M48
INCH,TZ
T1C0.010
T2C0.039
T3C0.138
%
G90
G05
T1
X21102Y-22650
X22756Y-22598
X23445Y-20512
X23465Y-21299
X23465Y-21969
X24134Y-19567
X24528Y-17598
X24528Y-17953
X24528Y-18307
X24528Y-18661
X24685Y-23583
X24803Y-23780
X24902Y-21850
X24941Y-22224
X25000Y-19567
X25010Y-23663
X25020Y-17598
X25020Y-17953
X25020Y-18307
X25020Y-18661
X25157Y-22697
X25183Y-21582
X25276Y-20846
X25354Y-23819
X25461Y-21752
X25669Y-20118
X25748Y-21594
X25961Y-18287
X26050Y-21263
X26831Y-21555
X26831Y-21791
X26831Y-22067
X27087Y-23307
X27283Y-23307
X27402Y-24685
X27480Y-23307
X27539Y-21693
X27776Y-18110
X27776Y-18346
X27776Y-18543
X28035Y-24917
X28097Y-30471
X28164Y-30274
X28425Y-22008
X28642Y-26831
X28740Y-30374
X29255Y-25692
X29390Y-26240
X29882Y-22480
X29882Y-22677
X29882Y-22913
X29921Y-31654
X30039Y-29882
X30157Y-28563
X30197Y-23661
X30236Y-22126
X30630Y-26063
X31063Y-21496
X32362Y-28878
X32638Y-26142
X33031Y-22087
X33661Y-25000
X33740Y-27677
T2
X20844Y-25433
X20844Y-26299
X20850Y-23226
X20850Y-24093
X20850Y-27638
X20850Y-28504
X21691Y-25433
X21691Y-26299
X21696Y-23226
X21696Y-24093
X21696Y-27638
X21696Y-28504
X22283Y-33819
X23307Y-33819
X24606Y-33819
X25606Y-33819
X26606Y-33819
X27819Y-33819
X28819Y-33819
T3
X19685Y-19685
X19685Y-31890
X31890Y-19685
X31890Y-31890
T0
M30
