G04 #@! TF.FileFunction,Copper,L1,Top,Signal*
%FSLAX46Y46*%
G04 Gerber Fmt 4.6, Leading zero omitted, Abs format (unit mm)*
G04 Created by KiCad (PCBNEW 4.0.6) date 05/31/18 20:17:05*
%MOMM*%
%LPD*%
G01*
G04 APERTURE LIST*
%ADD10C,0.100000*%
%ADD11C,4.500000*%
%ADD12R,0.750000X0.800000*%
%ADD13R,1.250000X1.000000*%
%ADD14R,0.800000X0.750000*%
%ADD15R,1.700000X0.900000*%
%ADD16R,0.500000X0.500000*%
%ADD17R,0.800000X0.800000*%
%ADD18R,1.700000X1.700000*%
%ADD19O,1.700000X1.700000*%
%ADD20R,0.900000X2.500000*%
%ADD21R,1.400000X0.700000*%
%ADD22R,4.300000X4.410000*%
%ADD23R,0.900000X0.500000*%
%ADD24R,0.500000X0.900000*%
%ADD25R,0.700000X0.250000*%
%ADD26R,0.250000X0.700000*%
%ADD27R,1.000000X1.000000*%
%ADD28R,0.304800X0.889000*%
%ADD29R,2.000000X0.600000*%
%ADD30O,0.300000X0.750000*%
%ADD31O,0.750000X0.300000*%
%ADD32R,0.900000X0.900000*%
%ADD33R,1.400000X0.400000*%
%ADD34R,2.150000X2.200000*%
%ADD35R,0.740000X2.400000*%
%ADD36R,2.500000X1.000000*%
%ADD37R,1.000000X1.600000*%
%ADD38R,0.750000X0.350000*%
%ADD39R,1.250000X0.900000*%
%ADD40R,1.000000X2.500000*%
%ADD41C,0.400000*%
%ADD42C,0.130000*%
%ADD43C,0.250000*%
%ADD44C,0.500000*%
%ADD45C,0.254000*%
G04 APERTURE END LIST*
D10*
D11*
X50000000Y-81000000D03*
X81000000Y-81000000D03*
X81000000Y-50000000D03*
D12*
X66900000Y-48650000D03*
X66900000Y-47150000D03*
D13*
X71450000Y-56900000D03*
X71450000Y-54900000D03*
D14*
X59600000Y-55800000D03*
X58100000Y-55800000D03*
X59600000Y-54100000D03*
X58100000Y-54100000D03*
X59550000Y-52100000D03*
X58050000Y-52100000D03*
D12*
X75000000Y-80200000D03*
X75000000Y-78700000D03*
D14*
X70500000Y-62700000D03*
X72000000Y-62700000D03*
D15*
X84300000Y-66400000D03*
X84300000Y-63500000D03*
D16*
X73300000Y-58500000D03*
X73300000Y-60700000D03*
D17*
X74750000Y-75350000D03*
X73150000Y-75350000D03*
X79000000Y-71150000D03*
X79000000Y-72750000D03*
D16*
X55500000Y-44350000D03*
X53300000Y-44350000D03*
D17*
X79000000Y-64100000D03*
X79000000Y-65700000D03*
D15*
X84300000Y-73350000D03*
X84300000Y-70450000D03*
D18*
X73200000Y-85900000D03*
D19*
X70660000Y-85900000D03*
D18*
X56600000Y-85900000D03*
X59200000Y-85900000D03*
X62500000Y-85900000D03*
X65040000Y-85900000D03*
X67580000Y-85900000D03*
D20*
X73050000Y-55400000D03*
X75950000Y-55400000D03*
D21*
X50100000Y-73240000D03*
X50100000Y-71970000D03*
X50100000Y-70700000D03*
X50100000Y-69430000D03*
D22*
X46290000Y-71335000D03*
D21*
X50100000Y-67570000D03*
X50100000Y-66300000D03*
X50100000Y-65030000D03*
X50100000Y-63760000D03*
D22*
X46290000Y-65665000D03*
D21*
X50000000Y-62000000D03*
X50000000Y-60730000D03*
X50000000Y-59460000D03*
X50000000Y-58190000D03*
D22*
X46190000Y-60095000D03*
D23*
X77800000Y-72700000D03*
X77800000Y-71200000D03*
X77800000Y-65650000D03*
X77800000Y-64150000D03*
X55250000Y-56950000D03*
X55250000Y-55450000D03*
X56600000Y-56950000D03*
X56600000Y-55450000D03*
X52650000Y-56950000D03*
X52650000Y-55450000D03*
X53950000Y-56950000D03*
X53950000Y-55450000D03*
X50000000Y-56950000D03*
X50000000Y-55450000D03*
X51350000Y-56950000D03*
X51350000Y-55450000D03*
D24*
X73200000Y-74050000D03*
X74700000Y-74050000D03*
D25*
X69000000Y-58350000D03*
X69000000Y-57850000D03*
X69000000Y-57350000D03*
X69000000Y-56850000D03*
X69000000Y-56350000D03*
X69000000Y-55850000D03*
X69000000Y-55350000D03*
X69000000Y-54850000D03*
X69000000Y-54350000D03*
X69000000Y-53850000D03*
X69000000Y-53350000D03*
X69000000Y-52850000D03*
D26*
X68350000Y-52200000D03*
X67850000Y-52200000D03*
X67350000Y-52200000D03*
X66850000Y-52200000D03*
X66350000Y-52200000D03*
X65850000Y-52200000D03*
X65350000Y-52200000D03*
X64850000Y-52200000D03*
X64350000Y-52200000D03*
X63850000Y-52200000D03*
X63350000Y-52200000D03*
X62850000Y-52200000D03*
D25*
X62200000Y-52850000D03*
X62200000Y-53350000D03*
X62200000Y-53850000D03*
X62200000Y-54350000D03*
X62200000Y-54850000D03*
X62200000Y-55350000D03*
X62200000Y-55850000D03*
X62200000Y-56350000D03*
X62200000Y-56850000D03*
X62200000Y-57350000D03*
X62200000Y-57850000D03*
X62200000Y-58350000D03*
D26*
X62850000Y-59000000D03*
X63350000Y-59000000D03*
X63850000Y-59000000D03*
X64350000Y-59000000D03*
X64850000Y-59000000D03*
X65350000Y-59000000D03*
X65850000Y-59000000D03*
X66350000Y-59000000D03*
X66850000Y-59000000D03*
X67350000Y-59000000D03*
X67850000Y-59000000D03*
X68350000Y-59000000D03*
D27*
X66300000Y-56400000D03*
D28*
X73050000Y-77900000D03*
X72550000Y-77900000D03*
X72050000Y-77900000D03*
X71550000Y-77900000D03*
X71550000Y-80922600D03*
X72050000Y-80922600D03*
X72550000Y-80922600D03*
X73050000Y-80922600D03*
D29*
X72200000Y-79411300D03*
D30*
X70150000Y-66975000D03*
X70650000Y-66975000D03*
X71150000Y-66975000D03*
X71650000Y-66975000D03*
D31*
X72375000Y-66250000D03*
X72375000Y-65750000D03*
X72375000Y-65250000D03*
X72375000Y-64750000D03*
D30*
X71650000Y-64025000D03*
X71150000Y-64025000D03*
X70650000Y-64025000D03*
X70150000Y-64025000D03*
D31*
X69425000Y-64750000D03*
X69425000Y-65250000D03*
X69425000Y-65750000D03*
X69425000Y-66250000D03*
D32*
X71350000Y-65050000D03*
X70450000Y-65050000D03*
X71350000Y-65950000D03*
X70450000Y-65950000D03*
D33*
X71300000Y-60750000D03*
X71300000Y-59550000D03*
X71300000Y-58350000D03*
D12*
X66900000Y-44450000D03*
X66900000Y-45950000D03*
D21*
X57823935Y-73205000D03*
X57823935Y-71935000D03*
X57823935Y-70665000D03*
X57823935Y-69395000D03*
D34*
X52958935Y-72400000D03*
X52958935Y-70200000D03*
X55108935Y-72400000D03*
X55108935Y-70200000D03*
D21*
X57810000Y-67605000D03*
X57810000Y-66335000D03*
X57810000Y-65065000D03*
X57810000Y-63795000D03*
D34*
X52945000Y-66800000D03*
X52945000Y-64600000D03*
X55095000Y-66800000D03*
X55095000Y-64600000D03*
D21*
X57823935Y-62000000D03*
X57823935Y-60730000D03*
X57823935Y-59460000D03*
X57823935Y-58190000D03*
D34*
X52958935Y-61195000D03*
X52958935Y-58995000D03*
X55108935Y-61195000D03*
X55108935Y-58995000D03*
D35*
X77610000Y-60150000D03*
X77610000Y-56250000D03*
X78880000Y-60150000D03*
X78880000Y-56250000D03*
X80150000Y-60150000D03*
X80150000Y-56250000D03*
X81420000Y-60150000D03*
X81420000Y-56250000D03*
X82690000Y-60150000D03*
X82690000Y-56250000D03*
D36*
X57900000Y-47200000D03*
X57900000Y-44200000D03*
D37*
X75200000Y-48500000D03*
X72200000Y-48500000D03*
D20*
X68350000Y-45300000D03*
X71250000Y-45300000D03*
D14*
X58850000Y-48500000D03*
X60350000Y-48500000D03*
X82050000Y-62400000D03*
X80550000Y-62400000D03*
X69050000Y-47800000D03*
X70550000Y-47800000D03*
X70600000Y-48900000D03*
X69100000Y-48900000D03*
D12*
X72600000Y-46800000D03*
X72600000Y-45300000D03*
D38*
X60925000Y-44850000D03*
X60925000Y-45650000D03*
X60925000Y-46450000D03*
X60925000Y-47250000D03*
X64925000Y-47250000D03*
X64925000Y-46450000D03*
X64925000Y-45650000D03*
X64925000Y-44850000D03*
D39*
X63550000Y-47400000D03*
X63550000Y-46500000D03*
X63550000Y-45600000D03*
X63550000Y-44700000D03*
X62300000Y-47400000D03*
X62300000Y-46500000D03*
X62300000Y-45600000D03*
X62300000Y-44700000D03*
D40*
X75200000Y-51400000D03*
X72200000Y-51400000D03*
D14*
X68050000Y-60300000D03*
X66550000Y-60300000D03*
D11*
X50000000Y-50000000D03*
D16*
X61300000Y-50300000D03*
X63500000Y-50300000D03*
D41*
X76300000Y-75899974D03*
X76000000Y-80400012D03*
X69600000Y-62700000D03*
X76700000Y-60100000D03*
X85500000Y-63500000D03*
X85700000Y-70300000D03*
X75900000Y-58200000D03*
X75900000Y-57600000D03*
X75900000Y-57100000D03*
X69800000Y-59200000D03*
X69300000Y-59200000D03*
X68800000Y-59200000D03*
X62300000Y-47400000D03*
X63550000Y-47400000D03*
X63550000Y-46500000D03*
X62300000Y-46500000D03*
X62300000Y-45600000D03*
X63550000Y-45600000D03*
X63550000Y-44700000D03*
X62300000Y-44700000D03*
X70550000Y-46000000D03*
X70550000Y-46600000D03*
X70550000Y-47100000D03*
X68150000Y-54750000D03*
X68150000Y-55350000D03*
X68150000Y-56050000D03*
X59600000Y-55800000D03*
X59600000Y-54100000D03*
X59550000Y-52100000D03*
X83900000Y-56100000D03*
X69950000Y-55100000D03*
X63000000Y-60400000D03*
X78900000Y-54600000D03*
X62700000Y-59899998D03*
X76800000Y-56200000D03*
X63250000Y-55500000D03*
X72750000Y-68150000D03*
X74308093Y-65258636D03*
X63965825Y-54817677D03*
X71210130Y-63289870D03*
X63350000Y-56450000D03*
X74650000Y-66650000D03*
X64671481Y-55251262D03*
X57799994Y-57400000D03*
X53600000Y-57530002D03*
X71536701Y-76895010D03*
X63900000Y-57650000D03*
X63524596Y-60103969D03*
X71366430Y-77396927D03*
X64400000Y-60500000D03*
X73000000Y-77150000D03*
X66167665Y-54009035D03*
X82900000Y-66400000D03*
X65399999Y-54850000D03*
X82200000Y-73350000D03*
X64200000Y-52950000D03*
X76600000Y-72550000D03*
X65200000Y-51100000D03*
X77800000Y-66200000D03*
X65940998Y-46450000D03*
X61300000Y-49700000D03*
X72200000Y-55900000D03*
X63500000Y-49700000D03*
D42*
X76100001Y-75699975D02*
X76300000Y-75899974D01*
X75750026Y-75350000D02*
X76100001Y-75699975D01*
X74750000Y-75350000D02*
X75750026Y-75350000D01*
D43*
X75800001Y-80200013D02*
X76000000Y-80400012D01*
X75799988Y-80200000D02*
X75800001Y-80200013D01*
X75000000Y-80200000D02*
X75799988Y-80200000D01*
D42*
X76750000Y-60150000D02*
X76700000Y-60100000D01*
X77610000Y-60150000D02*
X76750000Y-60150000D01*
X77610000Y-60150000D02*
X77610000Y-61480000D01*
X77610000Y-61480000D02*
X78530000Y-62400000D01*
X78530000Y-62400000D02*
X80020000Y-62400000D01*
X80020000Y-62400000D02*
X80550000Y-62400000D01*
X84300000Y-63500000D02*
X85500000Y-63500000D01*
X84300000Y-70450000D02*
X85280000Y-70450000D01*
X85280000Y-70450000D02*
X85430000Y-70300000D01*
X85430000Y-70300000D02*
X85700000Y-70300000D01*
D44*
X75900000Y-57600000D02*
X75900000Y-58200000D01*
X75900000Y-57100000D02*
X75900000Y-57600000D01*
X75950000Y-55400000D02*
X75950000Y-57050000D01*
X75950000Y-57050000D02*
X75900000Y-57100000D01*
X69300000Y-59200000D02*
X69800000Y-59200000D01*
X68800000Y-59200000D02*
X69300000Y-59200000D01*
X68600000Y-59200000D02*
X68800000Y-59200000D01*
D43*
X68400000Y-59000000D02*
X68600000Y-59200000D01*
X68350000Y-59000000D02*
X68400000Y-59000000D01*
D44*
X68050000Y-60300000D02*
X68100000Y-60300000D01*
D43*
X68350000Y-59000000D02*
X68350000Y-60000000D01*
X68350000Y-60000000D02*
X68050000Y-60300000D01*
D42*
X84600000Y-63200000D02*
X84300000Y-63500000D01*
D44*
X74700000Y-53350000D02*
X75000000Y-53350000D01*
X75000000Y-53350000D02*
X75200000Y-53150000D01*
X75200000Y-53150000D02*
X75200000Y-51400000D01*
X75950000Y-54600000D02*
X75950000Y-55400000D01*
X70100000Y-53350000D02*
X74700000Y-53350000D01*
X74700000Y-53350000D02*
X75950000Y-54600000D01*
D43*
X69400000Y-64000000D02*
X69425000Y-64025000D01*
X69425000Y-64025000D02*
X69425000Y-64750000D01*
D44*
X69400000Y-62900000D02*
X69400000Y-64000000D01*
X70500000Y-62700000D02*
X69600000Y-62700000D01*
X69600000Y-62700000D02*
X69400000Y-62900000D01*
D43*
X73050000Y-80922600D02*
X74277400Y-80922600D01*
X74277400Y-80922600D02*
X75000000Y-80200000D01*
D44*
X70475000Y-62700000D02*
X70500000Y-62700000D01*
D43*
X69000000Y-53850000D02*
X69600000Y-53850000D01*
X69600000Y-53850000D02*
X70100000Y-53350000D01*
X70100000Y-53350000D02*
X70100000Y-53300000D01*
X66550000Y-60300000D02*
X66350000Y-60100000D01*
X66350000Y-60100000D02*
X66350000Y-59000000D01*
D44*
X66900000Y-48650000D02*
X66900000Y-49550000D01*
X66900000Y-49550000D02*
X67125000Y-49775000D01*
X69700000Y-49775000D02*
X70575000Y-48900000D01*
X67125000Y-49775000D02*
X69700000Y-49775000D01*
X70575000Y-48900000D02*
X70600000Y-48900000D01*
X60925000Y-44850000D02*
X62150000Y-44850000D01*
X62150000Y-44850000D02*
X62300000Y-44700000D01*
D43*
X62300000Y-45600000D02*
X62300000Y-44700000D01*
X62300000Y-46500000D02*
X62300000Y-45600000D01*
X62300000Y-47400000D02*
X62300000Y-46500000D01*
X63550000Y-47400000D02*
X62300000Y-47400000D01*
X63550000Y-46500000D02*
X63550000Y-47400000D01*
X63550000Y-45600000D02*
X63550000Y-46500000D01*
X63550000Y-44700000D02*
X63550000Y-45600000D01*
X62300000Y-44700000D02*
X63550000Y-44700000D01*
D44*
X63650000Y-48650000D02*
X63550000Y-48550000D01*
X63550000Y-48550000D02*
X63550000Y-47400000D01*
X66900000Y-48650000D02*
X63650000Y-48650000D01*
X72200000Y-48500000D02*
X71800000Y-48900000D01*
X71800000Y-48900000D02*
X70600000Y-48900000D01*
X60925000Y-44850000D02*
X58550000Y-44850000D01*
X58550000Y-44850000D02*
X57900000Y-44200000D01*
D43*
X66350000Y-59000000D02*
X66350000Y-58300000D01*
X66350000Y-58300000D02*
X66300000Y-58250000D01*
D44*
X66300000Y-57400000D02*
X66300000Y-58250000D01*
X66300000Y-56400000D02*
X66300000Y-57400000D01*
X70550000Y-47800000D02*
X70550000Y-47100000D01*
X70550000Y-47100000D02*
X70550000Y-46000000D01*
X70550000Y-46000000D02*
X71250000Y-45300000D01*
X71250000Y-45300000D02*
X72600000Y-45300000D01*
D43*
X69000000Y-54850000D02*
X68250000Y-54850000D01*
X68250000Y-54850000D02*
X68150000Y-54750000D01*
D44*
X68150000Y-55350000D02*
X68150000Y-54750000D01*
X68150000Y-56050000D02*
X68150000Y-55350000D01*
D42*
X59600000Y-55800000D02*
X59600000Y-56305000D01*
X59600000Y-56305000D02*
X60645000Y-57350000D01*
X60645000Y-57350000D02*
X61720000Y-57350000D01*
X61720000Y-57350000D02*
X62200000Y-57350000D01*
X62150000Y-57400000D02*
X62200000Y-57350000D01*
X58100000Y-55800000D02*
X58125000Y-55800000D01*
X58125000Y-55800000D02*
X60175000Y-57850000D01*
X60175000Y-57850000D02*
X61720000Y-57850000D01*
X61720000Y-57850000D02*
X62200000Y-57850000D01*
X62200000Y-55350000D02*
X61323131Y-55350000D01*
X61323131Y-55350000D02*
X60073131Y-54100000D01*
X60073131Y-54100000D02*
X59600000Y-54100000D01*
X58167710Y-54100000D02*
X58747688Y-54679978D01*
X58100000Y-54100000D02*
X58167710Y-54100000D01*
X58747688Y-54679978D02*
X60285400Y-54679978D01*
X61455422Y-55850000D02*
X61720000Y-55850000D01*
X61720000Y-55850000D02*
X62200000Y-55850000D01*
X60285400Y-54679978D02*
X61455422Y-55850000D01*
X62200000Y-53350000D02*
X61658292Y-53350000D01*
X61658292Y-53350000D02*
X60408292Y-52100000D01*
X60408292Y-52100000D02*
X59550000Y-52100000D01*
X58754979Y-52979979D02*
X58754979Y-52779979D01*
X58754979Y-52779979D02*
X58075000Y-52100000D01*
X58075000Y-52100000D02*
X58050000Y-52100000D01*
X58754979Y-52979979D02*
X60849979Y-52979979D01*
X58050000Y-52300000D02*
X58075000Y-52300000D01*
X61720000Y-53850000D02*
X62200000Y-53850000D01*
X60849979Y-52979979D02*
X61720000Y-53850000D01*
D44*
X73300000Y-58500000D02*
X73300000Y-55650000D01*
X73300000Y-55650000D02*
X73050000Y-55400000D01*
X72469999Y-54019999D02*
X73050000Y-54600000D01*
X70230001Y-54019999D02*
X72469999Y-54019999D01*
X73050000Y-54600000D02*
X73050000Y-55400000D01*
D43*
X70230001Y-54019999D02*
X69900000Y-54350000D01*
X69900000Y-54350000D02*
X69000000Y-54350000D01*
D42*
X73200000Y-74050000D02*
X73200000Y-75300000D01*
X73200000Y-75300000D02*
X73150000Y-75350000D01*
X79000000Y-71150000D02*
X77850000Y-71150000D01*
X77850000Y-71150000D02*
X77800000Y-71200000D01*
D44*
X46200000Y-48900000D02*
X50750000Y-44350000D01*
X50750000Y-44350000D02*
X53300000Y-44350000D01*
X46200000Y-57380000D02*
X46200000Y-48900000D01*
X46190000Y-60095000D02*
X46190000Y-57390000D01*
X46190000Y-57390000D02*
X46200000Y-57380000D01*
D42*
X77800000Y-64150000D02*
X78950000Y-64150000D01*
X78950000Y-64150000D02*
X79000000Y-64100000D01*
X83900000Y-56100000D02*
X82050000Y-57950000D01*
X82050000Y-57950000D02*
X82050000Y-62400000D01*
X83900000Y-56100000D02*
X82840000Y-56100000D01*
X82840000Y-56100000D02*
X82690000Y-56250000D01*
X82690000Y-55420000D02*
X82690000Y-56250000D01*
X69000000Y-55350000D02*
X69700000Y-55350000D01*
X69700000Y-55350000D02*
X69950000Y-55100000D01*
X63129594Y-60270406D02*
X63129594Y-59700406D01*
X63000000Y-60400000D02*
X63129594Y-60270406D01*
X63129594Y-59700406D02*
X63350000Y-59480000D01*
X63350000Y-59480000D02*
X63350000Y-59000000D01*
X78880000Y-56250000D02*
X78880000Y-54620000D01*
X78880000Y-54620000D02*
X78900000Y-54600000D01*
X78880000Y-55420000D02*
X78880000Y-56250000D01*
X62850000Y-59749998D02*
X62700000Y-59899998D01*
X62850000Y-59000000D02*
X62850000Y-59749998D01*
X77610000Y-56250000D02*
X76850000Y-56250000D01*
X76850000Y-56250000D02*
X76800000Y-56200000D01*
X63250000Y-55217158D02*
X63250000Y-55500000D01*
X65088965Y-53400000D02*
X64715396Y-53400000D01*
X65850000Y-52638965D02*
X65088965Y-53400000D01*
X65850000Y-52200000D02*
X65850000Y-52638965D01*
X63250000Y-54865396D02*
X63250000Y-55217158D01*
X64715396Y-53400000D02*
X63250000Y-54865396D01*
X71650000Y-66975000D02*
X71650000Y-67200000D01*
X71650000Y-67200000D02*
X72600000Y-68150000D01*
X72600000Y-68150000D02*
X72750000Y-68150000D01*
X64238998Y-54617678D02*
X64165824Y-54617678D01*
X66350000Y-52506676D02*
X64238998Y-54617678D01*
X66350000Y-52200000D02*
X66350000Y-52506676D01*
X64165824Y-54617678D02*
X63965825Y-54817677D01*
X74299457Y-65250000D02*
X74308093Y-65258636D01*
X73450000Y-65250000D02*
X72375000Y-65250000D01*
X73450000Y-65250000D02*
X74299457Y-65250000D01*
X70927288Y-63289870D02*
X71210130Y-63289870D01*
X70150000Y-63800000D02*
X70660130Y-63289870D01*
X70150000Y-64025000D02*
X70150000Y-63800000D01*
X70660130Y-63289870D02*
X70927288Y-63289870D01*
X63549999Y-56250001D02*
X63350000Y-56450000D01*
X64276479Y-55523521D02*
X63549999Y-56250001D01*
X64276479Y-55061660D02*
X64276479Y-55523521D01*
X64471960Y-54866179D02*
X64276479Y-55061660D01*
X65870364Y-53354023D02*
X64471960Y-54752427D01*
X66175977Y-53354023D02*
X65870364Y-53354023D01*
X66850000Y-52680000D02*
X66175977Y-53354023D01*
X66850000Y-52200000D02*
X66850000Y-52680000D01*
X64471960Y-54752427D02*
X64471960Y-54866179D01*
X67350000Y-52200000D02*
X67350000Y-52621300D01*
X66001364Y-53614034D02*
X64871480Y-54743918D01*
X64871480Y-55051263D02*
X64671481Y-55251262D01*
X64871480Y-54743918D02*
X64871480Y-55051263D01*
X66357266Y-53614034D02*
X66001364Y-53614034D01*
X67350000Y-52621300D02*
X66357266Y-53614034D01*
X73570000Y-66650000D02*
X73170000Y-66250000D01*
X73170000Y-66250000D02*
X72375000Y-66250000D01*
X74650000Y-66650000D02*
X73570000Y-66650000D01*
X72550000Y-80922600D02*
X72550000Y-85250000D01*
X72550000Y-85250000D02*
X73200000Y-85900000D01*
X70660000Y-85900000D02*
X72050000Y-84510000D01*
X72050000Y-84510000D02*
X72050000Y-80922600D01*
X50100000Y-68950000D02*
X50100000Y-69430000D01*
X55050000Y-56950000D02*
X54250000Y-56150000D01*
X48910011Y-56139989D02*
X48700000Y-56350000D01*
X52007700Y-56139989D02*
X48910011Y-56139989D01*
X54250000Y-56150000D02*
X52017711Y-56150000D01*
X52017711Y-56150000D02*
X52007700Y-56139989D01*
X48700000Y-56350000D02*
X48700000Y-67550000D01*
X55250000Y-56950000D02*
X55050000Y-56950000D01*
X48700000Y-67550000D02*
X50100000Y-68950000D01*
X50100000Y-69430000D02*
X49750000Y-69430000D01*
X56600000Y-56950000D02*
X56600000Y-57330000D01*
X56600000Y-57330000D02*
X56525000Y-57405000D01*
X56525000Y-57405000D02*
X56525000Y-68950000D01*
X56525000Y-68950000D02*
X56970000Y-69395000D01*
X56970000Y-69395000D02*
X57823935Y-69395000D01*
X50100000Y-63760000D02*
X49270000Y-63760000D01*
X49270000Y-63760000D02*
X49000000Y-63490000D01*
X49000000Y-63490000D02*
X49000000Y-56700000D01*
X49000000Y-56700000D02*
X49300000Y-56400000D01*
X49300000Y-56400000D02*
X51900000Y-56400000D01*
X51900000Y-56400000D02*
X52450000Y-56950000D01*
X52450000Y-56950000D02*
X52650000Y-56950000D01*
X53950000Y-56950000D02*
X54150000Y-56950000D01*
X54150000Y-56950000D02*
X54750000Y-57550000D01*
X54750000Y-57550000D02*
X55701002Y-57550000D01*
X55701002Y-57550000D02*
X55895001Y-57356001D01*
X55895001Y-57356001D02*
X55895001Y-56603997D01*
X55895001Y-56603997D02*
X56148998Y-56350000D01*
X56148998Y-56350000D02*
X56982290Y-56350000D01*
X56982290Y-56350000D02*
X57245001Y-56612711D01*
X57245001Y-56612711D02*
X57245001Y-57304999D01*
X57245001Y-57304999D02*
X56800000Y-57750000D01*
X57595000Y-63795000D02*
X57810000Y-63795000D01*
X56800000Y-57750000D02*
X56800000Y-63000000D01*
X56800000Y-63000000D02*
X57595000Y-63795000D01*
X50000000Y-56950000D02*
X50000000Y-58190000D01*
X57823935Y-57423941D02*
X57799994Y-57400000D01*
X57823935Y-58190000D02*
X57823935Y-57423941D01*
X51420000Y-57400000D02*
X53469998Y-57400000D01*
X53469998Y-57400000D02*
X53600000Y-57530002D01*
X51350000Y-56950000D02*
X51350000Y-57330000D01*
X51350000Y-57330000D02*
X51420000Y-57400000D01*
X62200000Y-56850000D02*
X61720000Y-56850000D01*
X61720000Y-56850000D02*
X60070000Y-55200000D01*
X60070000Y-55200000D02*
X57700000Y-55200000D01*
X55969988Y-54930012D02*
X55450000Y-55450000D01*
X57700000Y-55200000D02*
X57430012Y-54930012D01*
X57430012Y-54930012D02*
X55969988Y-54930012D01*
X55450000Y-55450000D02*
X55250000Y-55450000D01*
X58757290Y-57000000D02*
X60107290Y-58350000D01*
X60107290Y-58350000D02*
X62200000Y-58350000D01*
X58757290Y-57000000D02*
X58000000Y-57000000D01*
X58000000Y-57000000D02*
X57180000Y-56180000D01*
X57180000Y-56180000D02*
X57180000Y-55830000D01*
X57180000Y-55830000D02*
X56800000Y-55450000D01*
X56800000Y-55450000D02*
X56600000Y-55450000D01*
X52650000Y-55450000D02*
X52650000Y-53650000D01*
X52650000Y-53650000D02*
X52700000Y-53600000D01*
X52700000Y-53600000D02*
X57459998Y-53600000D01*
X57459998Y-53600000D02*
X57529999Y-53529999D01*
X57529999Y-53529999D02*
X60156001Y-53529999D01*
X60156001Y-53529999D02*
X61476002Y-54850000D01*
X61476002Y-54850000D02*
X62200000Y-54850000D01*
X53950000Y-55450000D02*
X53950000Y-55350000D01*
X54800000Y-54500000D02*
X57223998Y-54500000D01*
X53950000Y-55350000D02*
X54800000Y-54500000D01*
X57223998Y-54500000D02*
X57393999Y-54670001D01*
X57393999Y-54670001D02*
X58370001Y-54670001D01*
X58370001Y-54670001D02*
X58639989Y-54939989D01*
X58639989Y-54939989D02*
X60177700Y-54939989D01*
X60177700Y-54939989D02*
X61587711Y-56350000D01*
X61587711Y-56350000D02*
X62200000Y-56350000D01*
X62200000Y-52850000D02*
X62200000Y-52223998D01*
X62200000Y-52223998D02*
X60900000Y-52223998D01*
X60900000Y-52223998D02*
X60076002Y-51400000D01*
X60076002Y-51400000D02*
X53600000Y-51400000D01*
X53600000Y-51400000D02*
X50000000Y-55000000D01*
X50000000Y-55000000D02*
X50000000Y-55070000D01*
X50000000Y-55070000D02*
X50000000Y-55450000D01*
X62200000Y-54350000D02*
X61720000Y-54350000D01*
X61720000Y-54350000D02*
X60609990Y-53239990D01*
X57200000Y-52576002D02*
X55523998Y-52576002D01*
X60609990Y-53239990D02*
X57863988Y-53239990D01*
X57863988Y-53239990D02*
X57200000Y-52576002D01*
X51350000Y-55070000D02*
X51350000Y-55450000D01*
X55523998Y-52576002D02*
X55500000Y-52600000D01*
X55500000Y-52600000D02*
X53332290Y-52600000D01*
X53332290Y-52600000D02*
X51350000Y-54582290D01*
X51350000Y-54582290D02*
X51350000Y-55070000D01*
X69000000Y-56850000D02*
X69480000Y-56850000D01*
X69480000Y-56850000D02*
X70404999Y-57774999D01*
X70404999Y-57774999D02*
X70404999Y-60354999D01*
X70404999Y-60354999D02*
X70800000Y-60750000D01*
X70800000Y-60750000D02*
X71300000Y-60750000D01*
X69480000Y-56350000D02*
X69000000Y-56350000D01*
X70800000Y-57670000D02*
X69480000Y-56350000D01*
X70800000Y-58350000D02*
X70800000Y-57670000D01*
D43*
X71300000Y-58350000D02*
X70800000Y-58350000D01*
D42*
X72550000Y-77900000D02*
X72050000Y-77900000D01*
X69000000Y-52850000D02*
X68329727Y-52850000D01*
X68329727Y-52850000D02*
X67909749Y-53269978D01*
X67909749Y-53269978D02*
X67909749Y-53590251D01*
X67909749Y-53590251D02*
X66995001Y-54504999D01*
X66995001Y-54504999D02*
X66895001Y-54504999D01*
X66895001Y-54504999D02*
X64032842Y-57367158D01*
X64032842Y-57367158D02*
X63900000Y-57367158D01*
X63900000Y-57367158D02*
X63900000Y-57650000D01*
X72050000Y-77900000D02*
X72050000Y-77325500D01*
X71619510Y-76895010D02*
X71536701Y-76895010D01*
X72050000Y-77325500D02*
X71619510Y-76895010D01*
X63850000Y-59000000D02*
X63850000Y-59778565D01*
X63850000Y-59778565D02*
X63724595Y-59903970D01*
X63724595Y-59903970D02*
X63524596Y-60103969D01*
X71366430Y-77716430D02*
X71366430Y-77679769D01*
X71550000Y-77900000D02*
X71366430Y-77716430D01*
X71366430Y-77679769D02*
X71366430Y-77396927D01*
X64350000Y-60450000D02*
X64400000Y-60500000D01*
X64350000Y-59000000D02*
X64350000Y-60450000D01*
X73050000Y-77900000D02*
X73050000Y-77200000D01*
X73050000Y-77200000D02*
X73000000Y-77150000D01*
X66366967Y-54009035D02*
X66167665Y-54009035D01*
X67850000Y-52526002D02*
X66366967Y-54009035D01*
X67850000Y-52200000D02*
X67850000Y-52526002D01*
X84300000Y-66400000D02*
X82900000Y-66400000D01*
X67850000Y-52200000D02*
X67850000Y-52464579D01*
X65682841Y-54850000D02*
X65399999Y-54850000D01*
X65962016Y-54850000D02*
X65682841Y-54850000D01*
X68350000Y-52462016D02*
X65962016Y-54850000D01*
X68350000Y-52200000D02*
X68350000Y-52462016D01*
X82200000Y-73350000D02*
X84300000Y-73350000D01*
X64200000Y-52950000D02*
X65080000Y-52950000D01*
X65080000Y-52950000D02*
X65350000Y-52680000D01*
X77800000Y-72700000D02*
X76750000Y-72700000D01*
X76750000Y-72700000D02*
X76600000Y-72550000D01*
X65350000Y-52200000D02*
X65350000Y-52680000D01*
X69700000Y-51100000D02*
X69700000Y-53130000D01*
X69480000Y-53350000D02*
X69000000Y-53350000D01*
X69700000Y-53130000D02*
X69480000Y-53350000D01*
X65200000Y-51100000D02*
X69700000Y-51100000D01*
X77800000Y-65650000D02*
X77800000Y-66200000D01*
X61300000Y-50300000D02*
X61300000Y-49700000D01*
D44*
X64925000Y-46450000D02*
X65940998Y-46450000D01*
X65940998Y-46450000D02*
X66640998Y-47150000D01*
X66640998Y-47150000D02*
X66900000Y-47150000D01*
X58850000Y-48500000D02*
X58850000Y-48150000D01*
X58850000Y-48150000D02*
X57900000Y-47200000D01*
X57900000Y-47200000D02*
X58650000Y-46450000D01*
X58650000Y-46450000D02*
X60925000Y-46450000D01*
X60925000Y-45650000D02*
X60925000Y-46450000D01*
X55500000Y-44350000D02*
X55500000Y-44800000D01*
X55500000Y-44800000D02*
X57900000Y-47200000D01*
X66900000Y-44450000D02*
X67500000Y-44450000D01*
X67500000Y-44450000D02*
X68350000Y-45300000D01*
X64925000Y-44850000D02*
X66500000Y-44850000D01*
X66500000Y-44850000D02*
X66900000Y-44450000D01*
X66900000Y-45950000D02*
X66600000Y-45650000D01*
X66600000Y-45650000D02*
X64925000Y-45650000D01*
X72600000Y-46800000D02*
X73500000Y-46800000D01*
X73500000Y-46800000D02*
X75200000Y-48500000D01*
X60350000Y-48500000D02*
X60350000Y-47825000D01*
X60350000Y-47825000D02*
X60925000Y-47250000D01*
D42*
X69050000Y-47800000D02*
X65170000Y-47800000D01*
X65170000Y-47800000D02*
X64925000Y-47555000D01*
X64925000Y-47555000D02*
X64925000Y-47250000D01*
D44*
X69100000Y-48900000D02*
X69100000Y-47850000D01*
X69100000Y-47850000D02*
X69050000Y-47800000D01*
D42*
X72200000Y-55900000D02*
X71450000Y-55150000D01*
X71450000Y-55150000D02*
X71450000Y-54900000D01*
X63500000Y-50300000D02*
X63500000Y-49700000D01*
D43*
X71450000Y-54900000D02*
X71250000Y-54900000D01*
X71250000Y-54900000D02*
X70300000Y-55850000D01*
X70300000Y-55850000D02*
X69600000Y-55850000D01*
X69600000Y-55850000D02*
X69000000Y-55850000D01*
D45*
G36*
X48273000Y-74000000D02*
X48278028Y-74035381D01*
X48292714Y-74067961D01*
X48315895Y-74095160D01*
X48345736Y-74114823D01*
X48382886Y-74125842D01*
X54573198Y-74967724D01*
X57373000Y-79535822D01*
X57373000Y-87623000D01*
X54018441Y-87623000D01*
X53127000Y-87535594D01*
X53127000Y-80000000D01*
X53121972Y-79964619D01*
X53107286Y-79932039D01*
X53089803Y-79910197D01*
X51089803Y-77910197D01*
X51061229Y-77888734D01*
X51027807Y-77876082D01*
X51000000Y-77873000D01*
X45405915Y-77873000D01*
X44127000Y-76451284D01*
X44127000Y-58027000D01*
X48273000Y-58027000D01*
X48273000Y-74000000D01*
X48273000Y-74000000D01*
G37*
X48273000Y-74000000D02*
X48278028Y-74035381D01*
X48292714Y-74067961D01*
X48315895Y-74095160D01*
X48345736Y-74114823D01*
X48382886Y-74125842D01*
X54573198Y-74967724D01*
X57373000Y-79535822D01*
X57373000Y-87623000D01*
X54018441Y-87623000D01*
X53127000Y-87535594D01*
X53127000Y-80000000D01*
X53121972Y-79964619D01*
X53107286Y-79932039D01*
X53089803Y-79910197D01*
X51089803Y-77910197D01*
X51061229Y-77888734D01*
X51027807Y-77876082D01*
X51000000Y-77873000D01*
X45405915Y-77873000D01*
X44127000Y-76451284D01*
X44127000Y-58027000D01*
X48273000Y-58027000D01*
X48273000Y-74000000D01*
G36*
X56048000Y-73448000D02*
X49527000Y-73448000D01*
X49527000Y-70477000D01*
X51850000Y-70477000D01*
X51885381Y-70471972D01*
X51917961Y-70457286D01*
X51945160Y-70434105D01*
X51964823Y-70404264D01*
X51975395Y-70370127D01*
X51977000Y-70350000D01*
X51977000Y-69227000D01*
X56048000Y-69227000D01*
X56048000Y-73448000D01*
X56048000Y-73448000D01*
G37*
X56048000Y-73448000D02*
X49527000Y-73448000D01*
X49527000Y-70477000D01*
X51850000Y-70477000D01*
X51885381Y-70471972D01*
X51917961Y-70457286D01*
X51945160Y-70434105D01*
X51964823Y-70404264D01*
X51975395Y-70370127D01*
X51977000Y-70350000D01*
X51977000Y-69227000D01*
X56048000Y-69227000D01*
X56048000Y-73448000D01*
G36*
X56023000Y-67823000D02*
X49527372Y-67823000D01*
X49527000Y-67822628D01*
X49527000Y-64827000D01*
X51850000Y-64827000D01*
X51885381Y-64821972D01*
X51917961Y-64807286D01*
X51945160Y-64784105D01*
X51964823Y-64754264D01*
X51975395Y-64720127D01*
X51977000Y-64700000D01*
X51977000Y-63627000D01*
X56023000Y-63627000D01*
X56023000Y-67823000D01*
X56023000Y-67823000D01*
G37*
X56023000Y-67823000D02*
X49527372Y-67823000D01*
X49527000Y-67822628D01*
X49527000Y-64827000D01*
X51850000Y-64827000D01*
X51885381Y-64821972D01*
X51917961Y-64807286D01*
X51945160Y-64784105D01*
X51964823Y-64754264D01*
X51975395Y-64720127D01*
X51977000Y-64700000D01*
X51977000Y-63627000D01*
X56023000Y-63627000D01*
X56023000Y-67823000D01*
G36*
X53436360Y-58033634D02*
X53537299Y-58055827D01*
X53640627Y-58057991D01*
X53742406Y-58040045D01*
X53776038Y-58027000D01*
X56023000Y-58027000D01*
X56023000Y-62173923D01*
X49427000Y-62222069D01*
X49427000Y-59227000D01*
X51850000Y-59227000D01*
X51885381Y-59221972D01*
X51917961Y-59207286D01*
X51945160Y-59184105D01*
X51964823Y-59154264D01*
X51975395Y-59120127D01*
X51977000Y-59100000D01*
X51977000Y-58027000D01*
X53421175Y-58027000D01*
X53436360Y-58033634D01*
X53436360Y-58033634D01*
G37*
X53436360Y-58033634D02*
X53537299Y-58055827D01*
X53640627Y-58057991D01*
X53742406Y-58040045D01*
X53776038Y-58027000D01*
X56023000Y-58027000D01*
X56023000Y-62173923D01*
X49427000Y-62222069D01*
X49427000Y-59227000D01*
X51850000Y-59227000D01*
X51885381Y-59221972D01*
X51917961Y-59207286D01*
X51945160Y-59184105D01*
X51964823Y-59154264D01*
X51975395Y-59120127D01*
X51977000Y-59100000D01*
X51977000Y-58027000D01*
X53421175Y-58027000D01*
X53436360Y-58033634D01*
G36*
X71373000Y-87623000D02*
X69927000Y-87623000D01*
X69927000Y-84227000D01*
X71373000Y-84227000D01*
X71373000Y-87623000D01*
X71373000Y-87623000D01*
G37*
X71373000Y-87623000D02*
X69927000Y-87623000D01*
X69927000Y-84227000D01*
X71373000Y-84227000D01*
X71373000Y-87623000D01*
G36*
X73973000Y-87623000D02*
X72477000Y-87623000D01*
X72477000Y-84227000D01*
X73973000Y-84227000D01*
X73973000Y-87623000D01*
X73973000Y-87623000D01*
G37*
X73973000Y-87623000D02*
X72477000Y-87623000D01*
X72477000Y-84227000D01*
X73973000Y-84227000D01*
X73973000Y-87623000D01*
G36*
X63223000Y-87623000D02*
X61777000Y-87623000D01*
X61777000Y-84177000D01*
X63223000Y-84177000D01*
X63223000Y-87623000D01*
X63223000Y-87623000D01*
G37*
X63223000Y-87623000D02*
X61777000Y-87623000D01*
X61777000Y-84177000D01*
X63223000Y-84177000D01*
X63223000Y-87623000D01*
G36*
X65773000Y-87623000D02*
X64277000Y-87623000D01*
X64277000Y-84177000D01*
X65773000Y-84177000D01*
X65773000Y-87623000D01*
X65773000Y-87623000D01*
G37*
X65773000Y-87623000D02*
X64277000Y-87623000D01*
X64277000Y-84177000D01*
X65773000Y-84177000D01*
X65773000Y-87623000D01*
G36*
X68373000Y-87623000D02*
X66827000Y-87623000D01*
X66827000Y-84177000D01*
X68373000Y-84177000D01*
X68373000Y-87623000D01*
X68373000Y-87623000D01*
G37*
X68373000Y-87623000D02*
X66827000Y-87623000D01*
X66827000Y-84177000D01*
X68373000Y-84177000D01*
X68373000Y-87623000D01*
G36*
X81062420Y-44192451D02*
X84506373Y-46493627D01*
X86807549Y-49937580D01*
X87623000Y-54037131D01*
X87623000Y-76962869D01*
X86807549Y-81062420D01*
X85731394Y-82673000D01*
X82971690Y-82673000D01*
X83183400Y-82461659D01*
X83576551Y-81514846D01*
X83577446Y-80489652D01*
X83185948Y-79542154D01*
X82461659Y-78816600D01*
X81514846Y-78423449D01*
X80489652Y-78422554D01*
X79542154Y-78814052D01*
X78816600Y-79538341D01*
X78423449Y-80485154D01*
X78422554Y-81510348D01*
X78814052Y-82457846D01*
X79028831Y-82673000D01*
X72942000Y-82673000D01*
X72942000Y-81700506D01*
X73202400Y-81700506D01*
X73323579Y-81677705D01*
X73434874Y-81606088D01*
X73509538Y-81496814D01*
X73534287Y-81374600D01*
X74277400Y-81374600D01*
X74450373Y-81340194D01*
X74597012Y-81242212D01*
X74905818Y-80933406D01*
X75375000Y-80933406D01*
X75496179Y-80910605D01*
X75607474Y-80838988D01*
X75642458Y-80787788D01*
X75701088Y-80846521D01*
X75894713Y-80926921D01*
X76104367Y-80927104D01*
X76298132Y-80847042D01*
X76446509Y-80698924D01*
X76526909Y-80505299D01*
X76527092Y-80295645D01*
X76447030Y-80101880D01*
X76298912Y-79953503D01*
X76114296Y-79876844D01*
X75972961Y-79782406D01*
X75799988Y-79748000D01*
X75698622Y-79748000D01*
X75685605Y-79678821D01*
X75613988Y-79567526D01*
X75504714Y-79492862D01*
X75375000Y-79466594D01*
X74625000Y-79466594D01*
X74503821Y-79489395D01*
X74392526Y-79561012D01*
X74317862Y-79670286D01*
X74291594Y-79800000D01*
X74291594Y-80269182D01*
X74090176Y-80470600D01*
X73534395Y-80470600D01*
X73513005Y-80356921D01*
X73441388Y-80245626D01*
X73332114Y-80170962D01*
X73202400Y-80144694D01*
X72897600Y-80144694D01*
X72796416Y-80163733D01*
X72702400Y-80144694D01*
X72397600Y-80144694D01*
X72296416Y-80163733D01*
X72202400Y-80144694D01*
X71897600Y-80144694D01*
X71776421Y-80167495D01*
X71665126Y-80239112D01*
X71590462Y-80348386D01*
X71564194Y-80478100D01*
X71564194Y-81367100D01*
X71586995Y-81488279D01*
X71658000Y-81598623D01*
X71658000Y-82673000D01*
X60600000Y-82673000D01*
X60550590Y-82683006D01*
X60508965Y-82711447D01*
X60481685Y-82753841D01*
X60473000Y-82800000D01*
X60473000Y-87623000D01*
X58427000Y-87623000D01*
X58427000Y-78400000D01*
X58416994Y-78350590D01*
X58396426Y-78317349D01*
X57696951Y-77501294D01*
X70839338Y-77501294D01*
X70919400Y-77695059D01*
X70982815Y-77758585D01*
X71004269Y-77866442D01*
X71064194Y-77956126D01*
X71064194Y-78344500D01*
X71086995Y-78465679D01*
X71158612Y-78576974D01*
X71267886Y-78651638D01*
X71397600Y-78677906D01*
X71702400Y-78677906D01*
X71803584Y-78658867D01*
X71897600Y-78677906D01*
X72202400Y-78677906D01*
X72303584Y-78658867D01*
X72397600Y-78677906D01*
X72702400Y-78677906D01*
X72803584Y-78658867D01*
X72897600Y-78677906D01*
X73202400Y-78677906D01*
X73323579Y-78655105D01*
X73434874Y-78583488D01*
X73509538Y-78474214D01*
X73535806Y-78344500D01*
X73535806Y-77455500D01*
X73513005Y-77334321D01*
X73501509Y-77316456D01*
X73526909Y-77255287D01*
X73527092Y-77045633D01*
X73447030Y-76851868D01*
X73298912Y-76703491D01*
X73105287Y-76623091D01*
X72895633Y-76622908D01*
X72701868Y-76702970D01*
X72553491Y-76851088D01*
X72473091Y-77044713D01*
X72473023Y-77122094D01*
X72397600Y-77122094D01*
X72378843Y-77125623D01*
X72327186Y-77048314D01*
X72059764Y-76780892D01*
X71983731Y-76596878D01*
X71835613Y-76448501D01*
X71641988Y-76368101D01*
X71432334Y-76367918D01*
X71238569Y-76447980D01*
X71090192Y-76596098D01*
X71009792Y-76789723D01*
X71009609Y-76999377D01*
X71012273Y-77005824D01*
X70919921Y-77098015D01*
X70839521Y-77291640D01*
X70839338Y-77501294D01*
X57696951Y-77501294D01*
X57227000Y-76953019D01*
X57227000Y-74950000D01*
X72416594Y-74950000D01*
X72416594Y-75750000D01*
X72439395Y-75871179D01*
X72511012Y-75982474D01*
X72620286Y-76057138D01*
X72750000Y-76083406D01*
X73550000Y-76083406D01*
X73671179Y-76060605D01*
X73782474Y-75988988D01*
X73857138Y-75879714D01*
X73883406Y-75750000D01*
X73883406Y-74950000D01*
X74016594Y-74950000D01*
X74016594Y-75750000D01*
X74039395Y-75871179D01*
X74111012Y-75982474D01*
X74220286Y-76057138D01*
X74350000Y-76083406D01*
X75150000Y-76083406D01*
X75271179Y-76060605D01*
X75382474Y-75988988D01*
X75457138Y-75879714D01*
X75483406Y-75750000D01*
X75483406Y-75742000D01*
X75587654Y-75742000D01*
X75772975Y-75927321D01*
X75772908Y-76004341D01*
X75852970Y-76198106D01*
X76001088Y-76346483D01*
X76194713Y-76426883D01*
X76404367Y-76427066D01*
X76598132Y-76347004D01*
X76746509Y-76198886D01*
X76826909Y-76005261D01*
X76827092Y-75795607D01*
X76747030Y-75601842D01*
X76598912Y-75453465D01*
X76405287Y-75373065D01*
X76327395Y-75372997D01*
X76027212Y-75072814D01*
X75900038Y-74987839D01*
X75750026Y-74958000D01*
X75483406Y-74958000D01*
X75483406Y-74950000D01*
X75460605Y-74828821D01*
X75388988Y-74717526D01*
X75279714Y-74642862D01*
X75150000Y-74616594D01*
X74350000Y-74616594D01*
X74228821Y-74639395D01*
X74117526Y-74711012D01*
X74042862Y-74820286D01*
X74016594Y-74950000D01*
X73883406Y-74950000D01*
X73860605Y-74828821D01*
X73788988Y-74717526D01*
X73726372Y-74674742D01*
X73757138Y-74629714D01*
X73783406Y-74500000D01*
X73783406Y-73600000D01*
X73760605Y-73478821D01*
X73744870Y-73454367D01*
X81672908Y-73454367D01*
X81752970Y-73648132D01*
X81901088Y-73796509D01*
X82094713Y-73876909D01*
X82304367Y-73877092D01*
X82498132Y-73797030D01*
X82553258Y-73742000D01*
X83116594Y-73742000D01*
X83116594Y-73800000D01*
X83139395Y-73921179D01*
X83211012Y-74032474D01*
X83320286Y-74107138D01*
X83450000Y-74133406D01*
X85150000Y-74133406D01*
X85271179Y-74110605D01*
X85382474Y-74038988D01*
X85457138Y-73929714D01*
X85483406Y-73800000D01*
X85483406Y-72900000D01*
X85460605Y-72778821D01*
X85388988Y-72667526D01*
X85279714Y-72592862D01*
X85150000Y-72566594D01*
X83450000Y-72566594D01*
X83328821Y-72589395D01*
X83217526Y-72661012D01*
X83142862Y-72770286D01*
X83116594Y-72900000D01*
X83116594Y-72958000D01*
X82553326Y-72958000D01*
X82498912Y-72903491D01*
X82305287Y-72823091D01*
X82095633Y-72822908D01*
X81901868Y-72902970D01*
X81753491Y-73051088D01*
X81673091Y-73244713D01*
X81672908Y-73454367D01*
X73744870Y-73454367D01*
X73688988Y-73367526D01*
X73579714Y-73292862D01*
X73450000Y-73266594D01*
X72950000Y-73266594D01*
X72828821Y-73289395D01*
X72717526Y-73361012D01*
X72642862Y-73470286D01*
X72616594Y-73600000D01*
X72616594Y-74500000D01*
X72639395Y-74621179D01*
X72648709Y-74635653D01*
X72628821Y-74639395D01*
X72517526Y-74711012D01*
X72442862Y-74820286D01*
X72416594Y-74950000D01*
X57227000Y-74950000D01*
X57227000Y-72654367D01*
X76072908Y-72654367D01*
X76152970Y-72848132D01*
X76301088Y-72996509D01*
X76494713Y-73076909D01*
X76674923Y-73077066D01*
X76750000Y-73092000D01*
X77052793Y-73092000D01*
X77111012Y-73182474D01*
X77220286Y-73257138D01*
X77350000Y-73283406D01*
X78250000Y-73283406D01*
X78371179Y-73260605D01*
X78482474Y-73188988D01*
X78557138Y-73079714D01*
X78583406Y-72950000D01*
X78583406Y-72450000D01*
X78560605Y-72328821D01*
X78488988Y-72217526D01*
X78379714Y-72142862D01*
X78250000Y-72116594D01*
X77350000Y-72116594D01*
X77228821Y-72139395D01*
X77117526Y-72211012D01*
X77063076Y-72290702D01*
X77047030Y-72251868D01*
X76898912Y-72103491D01*
X76705287Y-72023091D01*
X76495633Y-72022908D01*
X76301868Y-72102970D01*
X76153491Y-72251088D01*
X76073091Y-72444713D01*
X76072908Y-72654367D01*
X57227000Y-72654367D01*
X57227000Y-70950000D01*
X77016594Y-70950000D01*
X77016594Y-71450000D01*
X77039395Y-71571179D01*
X77111012Y-71682474D01*
X77220286Y-71757138D01*
X77350000Y-71783406D01*
X78250000Y-71783406D01*
X78349557Y-71764673D01*
X78361012Y-71782474D01*
X78470286Y-71857138D01*
X78600000Y-71883406D01*
X79400000Y-71883406D01*
X79521179Y-71860605D01*
X79632474Y-71788988D01*
X79707138Y-71679714D01*
X79733406Y-71550000D01*
X79733406Y-70750000D01*
X79710605Y-70628821D01*
X79638988Y-70517526D01*
X79529714Y-70442862D01*
X79400000Y-70416594D01*
X78600000Y-70416594D01*
X78478821Y-70439395D01*
X78367526Y-70511012D01*
X78292862Y-70620286D01*
X78291892Y-70625077D01*
X78250000Y-70616594D01*
X77350000Y-70616594D01*
X77228821Y-70639395D01*
X77117526Y-70711012D01*
X77042862Y-70820286D01*
X77016594Y-70950000D01*
X57227000Y-70950000D01*
X57227000Y-70227000D01*
X59000000Y-70227000D01*
X59049410Y-70216994D01*
X59091035Y-70188553D01*
X59118315Y-70146159D01*
X59127000Y-70100000D01*
X59127000Y-70000000D01*
X83116594Y-70000000D01*
X83116594Y-70900000D01*
X83139395Y-71021179D01*
X83211012Y-71132474D01*
X83320286Y-71207138D01*
X83450000Y-71233406D01*
X85150000Y-71233406D01*
X85271179Y-71210605D01*
X85382474Y-71138988D01*
X85457138Y-71029714D01*
X85483406Y-70900000D01*
X85483406Y-70780690D01*
X85594713Y-70826909D01*
X85804367Y-70827092D01*
X85998132Y-70747030D01*
X86146509Y-70598912D01*
X86226909Y-70405287D01*
X86227092Y-70195633D01*
X86147030Y-70001868D01*
X85998912Y-69853491D01*
X85805287Y-69773091D01*
X85595633Y-69772908D01*
X85435127Y-69839228D01*
X85388988Y-69767526D01*
X85279714Y-69692862D01*
X85150000Y-69666594D01*
X83450000Y-69666594D01*
X83328821Y-69689395D01*
X83217526Y-69761012D01*
X83142862Y-69870286D01*
X83116594Y-70000000D01*
X59127000Y-70000000D01*
X59127000Y-68400000D01*
X59116994Y-68350590D01*
X59088553Y-68308965D01*
X59046159Y-68281685D01*
X59000000Y-68273000D01*
X57227000Y-68273000D01*
X57227000Y-65500000D01*
X61923000Y-65500000D01*
X62195283Y-66868859D01*
X62970679Y-68029321D01*
X64131141Y-68804717D01*
X65500000Y-69077000D01*
X66868859Y-68804717D01*
X68029321Y-68029321D01*
X68804717Y-66868859D01*
X68859344Y-66594230D01*
X69003707Y-66690691D01*
X69186247Y-66727000D01*
X69663753Y-66727000D01*
X69675296Y-66724704D01*
X69673000Y-66736247D01*
X69673000Y-67213753D01*
X69709309Y-67396293D01*
X69812710Y-67551043D01*
X69967460Y-67654444D01*
X70150000Y-67690753D01*
X70332540Y-67654444D01*
X70400000Y-67609369D01*
X70467460Y-67654444D01*
X70650000Y-67690753D01*
X70832540Y-67654444D01*
X70900000Y-67609369D01*
X70967460Y-67654444D01*
X71150000Y-67690753D01*
X71332540Y-67654444D01*
X71400000Y-67609369D01*
X71467460Y-67654444D01*
X71570584Y-67674956D01*
X72274248Y-68378620D01*
X72302970Y-68448132D01*
X72451088Y-68596509D01*
X72644713Y-68676909D01*
X72854367Y-68677092D01*
X73048132Y-68597030D01*
X73196509Y-68448912D01*
X73276909Y-68255287D01*
X73277092Y-68045633D01*
X73197030Y-67851868D01*
X73048912Y-67703491D01*
X72855287Y-67623091D01*
X72645633Y-67622908D01*
X72632646Y-67628274D01*
X72127000Y-67122628D01*
X72127000Y-66736247D01*
X72124704Y-66724704D01*
X72136247Y-66727000D01*
X72613753Y-66727000D01*
X72796293Y-66690691D01*
X72869164Y-66642000D01*
X73007628Y-66642000D01*
X73292814Y-66927186D01*
X73419988Y-67012161D01*
X73570000Y-67042000D01*
X74296674Y-67042000D01*
X74351088Y-67096509D01*
X74544713Y-67176909D01*
X74754367Y-67177092D01*
X74948132Y-67097030D01*
X75096509Y-66948912D01*
X75176909Y-66755287D01*
X75177092Y-66545633D01*
X75097030Y-66351868D01*
X74948912Y-66203491D01*
X74755287Y-66123091D01*
X74545633Y-66122908D01*
X74351868Y-66202970D01*
X74296742Y-66258000D01*
X73732372Y-66258000D01*
X73447186Y-65972814D01*
X73320012Y-65887839D01*
X73170000Y-65858000D01*
X73069271Y-65858000D01*
X73090753Y-65750000D01*
X73069271Y-65642000D01*
X73946146Y-65642000D01*
X74009181Y-65705145D01*
X74202806Y-65785545D01*
X74412460Y-65785728D01*
X74606225Y-65705666D01*
X74754602Y-65557548D01*
X74820021Y-65400000D01*
X77016594Y-65400000D01*
X77016594Y-65900000D01*
X77039395Y-66021179D01*
X77111012Y-66132474D01*
X77220286Y-66207138D01*
X77272984Y-66217810D01*
X77272908Y-66304367D01*
X77352970Y-66498132D01*
X77501088Y-66646509D01*
X77694713Y-66726909D01*
X77904367Y-66727092D01*
X78098132Y-66647030D01*
X78241044Y-66504367D01*
X82372908Y-66504367D01*
X82452970Y-66698132D01*
X82601088Y-66846509D01*
X82794713Y-66926909D01*
X83004367Y-66927092D01*
X83121957Y-66878505D01*
X83139395Y-66971179D01*
X83211012Y-67082474D01*
X83320286Y-67157138D01*
X83450000Y-67183406D01*
X85150000Y-67183406D01*
X85271179Y-67160605D01*
X85382474Y-67088988D01*
X85457138Y-66979714D01*
X85483406Y-66850000D01*
X85483406Y-65950000D01*
X85460605Y-65828821D01*
X85388988Y-65717526D01*
X85279714Y-65642862D01*
X85150000Y-65616594D01*
X83450000Y-65616594D01*
X83328821Y-65639395D01*
X83217526Y-65711012D01*
X83142862Y-65820286D01*
X83122327Y-65921690D01*
X83005287Y-65873091D01*
X82795633Y-65872908D01*
X82601868Y-65952970D01*
X82453491Y-66101088D01*
X82373091Y-66294713D01*
X82372908Y-66504367D01*
X78241044Y-66504367D01*
X78246509Y-66498912D01*
X78326909Y-66305287D01*
X78326984Y-66218921D01*
X78371179Y-66210605D01*
X78482474Y-66138988D01*
X78557138Y-66029714D01*
X78583406Y-65900000D01*
X78583406Y-65400000D01*
X78560605Y-65278821D01*
X78488988Y-65167526D01*
X78379714Y-65092862D01*
X78250000Y-65066594D01*
X77350000Y-65066594D01*
X77228821Y-65089395D01*
X77117526Y-65161012D01*
X77042862Y-65270286D01*
X77016594Y-65400000D01*
X74820021Y-65400000D01*
X74835002Y-65363923D01*
X74835185Y-65154269D01*
X74755123Y-64960504D01*
X74607005Y-64812127D01*
X74413380Y-64731727D01*
X74203726Y-64731544D01*
X74009961Y-64811606D01*
X73963486Y-64858000D01*
X72869164Y-64858000D01*
X72796293Y-64809309D01*
X72613753Y-64773000D01*
X72136247Y-64773000D01*
X71953707Y-64809309D01*
X71798957Y-64912710D01*
X71695556Y-65067460D01*
X71659247Y-65250000D01*
X71695556Y-65432540D01*
X71740631Y-65500000D01*
X71695556Y-65567460D01*
X71659247Y-65750000D01*
X71695556Y-65932540D01*
X71740631Y-66000000D01*
X71695556Y-66067460D01*
X71659247Y-66250000D01*
X71661543Y-66261543D01*
X71650000Y-66259247D01*
X71467460Y-66295556D01*
X71400000Y-66340631D01*
X71332540Y-66295556D01*
X71150000Y-66259247D01*
X70967460Y-66295556D01*
X70900000Y-66340631D01*
X70832540Y-66295556D01*
X70650000Y-66259247D01*
X70467460Y-66295556D01*
X70400000Y-66340631D01*
X70332540Y-66295556D01*
X70150000Y-66259247D01*
X70138457Y-66261543D01*
X70140753Y-66250000D01*
X70104444Y-66067460D01*
X70059369Y-66000000D01*
X70104444Y-65932540D01*
X70140753Y-65750000D01*
X70104444Y-65567460D01*
X70059369Y-65500000D01*
X70104444Y-65432540D01*
X70140753Y-65250000D01*
X70104444Y-65067460D01*
X70059369Y-65000000D01*
X70104444Y-64932540D01*
X70140753Y-64750000D01*
X70138457Y-64738457D01*
X70150000Y-64740753D01*
X70332540Y-64704444D01*
X70400000Y-64659369D01*
X70467460Y-64704444D01*
X70650000Y-64740753D01*
X70832540Y-64704444D01*
X70900000Y-64659369D01*
X70967460Y-64704444D01*
X71150000Y-64740753D01*
X71332540Y-64704444D01*
X71400000Y-64659369D01*
X71467460Y-64704444D01*
X71650000Y-64740753D01*
X71832540Y-64704444D01*
X71987290Y-64601043D01*
X72090691Y-64446293D01*
X72127000Y-64263753D01*
X72127000Y-63900000D01*
X77016594Y-63900000D01*
X77016594Y-64400000D01*
X77039395Y-64521179D01*
X77111012Y-64632474D01*
X77220286Y-64707138D01*
X77350000Y-64733406D01*
X78250000Y-64733406D01*
X78349557Y-64714673D01*
X78361012Y-64732474D01*
X78470286Y-64807138D01*
X78600000Y-64833406D01*
X79400000Y-64833406D01*
X79521179Y-64810605D01*
X79632474Y-64738988D01*
X79707138Y-64629714D01*
X79733406Y-64500000D01*
X79733406Y-63700000D01*
X79710605Y-63578821D01*
X79638988Y-63467526D01*
X79529714Y-63392862D01*
X79400000Y-63366594D01*
X78600000Y-63366594D01*
X78478821Y-63389395D01*
X78367526Y-63461012D01*
X78292862Y-63570286D01*
X78291892Y-63575077D01*
X78250000Y-63566594D01*
X77350000Y-63566594D01*
X77228821Y-63589395D01*
X77117526Y-63661012D01*
X77042862Y-63770286D01*
X77016594Y-63900000D01*
X72127000Y-63900000D01*
X72127000Y-63786247D01*
X72090691Y-63603707D01*
X71987290Y-63448957D01*
X71832540Y-63345556D01*
X71737099Y-63326572D01*
X71737222Y-63185503D01*
X71657160Y-62991738D01*
X71509042Y-62843361D01*
X71315417Y-62762961D01*
X71233406Y-62762889D01*
X71233406Y-62325000D01*
X71210605Y-62203821D01*
X71138988Y-62092526D01*
X71029714Y-62017862D01*
X70900000Y-61991594D01*
X70100000Y-61991594D01*
X69978821Y-62014395D01*
X69867526Y-62086012D01*
X69842253Y-62123000D01*
X69600005Y-62123000D01*
X69600000Y-62122999D01*
X69379192Y-62166922D01*
X69191999Y-62291999D01*
X69191997Y-62292002D01*
X68991999Y-62491999D01*
X68866922Y-62679192D01*
X68822999Y-62900000D01*
X68823000Y-62900005D01*
X68823000Y-64000000D01*
X68866922Y-64220808D01*
X68950023Y-64345179D01*
X68859344Y-64405770D01*
X68804717Y-64131141D01*
X68029321Y-62970679D01*
X66868859Y-62195283D01*
X65500000Y-61923000D01*
X64131141Y-62195283D01*
X62970679Y-62970679D01*
X62195283Y-64131141D01*
X61923000Y-65500000D01*
X57227000Y-65500000D01*
X57227000Y-64827000D01*
X59000000Y-64827000D01*
X59049410Y-64816994D01*
X59091035Y-64788553D01*
X59118315Y-64746159D01*
X59127000Y-64700000D01*
X59127000Y-62700000D01*
X59116994Y-62650590D01*
X59088553Y-62608965D01*
X59046159Y-62581685D01*
X59000000Y-62573000D01*
X57227000Y-62573000D01*
X57227000Y-59227000D01*
X60600000Y-59227000D01*
X60649410Y-59216994D01*
X60691035Y-59188553D01*
X60718315Y-59146159D01*
X60727000Y-59100000D01*
X60727000Y-58742000D01*
X61661542Y-58742000D01*
X61720286Y-58782138D01*
X61850000Y-58808406D01*
X62391594Y-58808406D01*
X62391594Y-59350000D01*
X62410312Y-59449479D01*
X62401868Y-59452968D01*
X62253491Y-59601086D01*
X62173091Y-59794711D01*
X62172908Y-60004365D01*
X62252970Y-60198130D01*
X62401088Y-60346507D01*
X62473020Y-60376376D01*
X62472908Y-60504367D01*
X62552970Y-60698132D01*
X62701088Y-60846509D01*
X62894713Y-60926909D01*
X63104367Y-60927092D01*
X63298132Y-60847030D01*
X63446509Y-60698912D01*
X63474739Y-60630926D01*
X63628963Y-60631061D01*
X63822728Y-60550999D01*
X63872998Y-60500816D01*
X63872908Y-60604367D01*
X63952970Y-60798132D01*
X64101088Y-60946509D01*
X64294713Y-61026909D01*
X64504367Y-61027092D01*
X64698132Y-60947030D01*
X64846509Y-60798912D01*
X64926909Y-60605287D01*
X64927092Y-60395633D01*
X64847030Y-60201868D01*
X64742000Y-60096654D01*
X64742000Y-59683406D01*
X64975000Y-59683406D01*
X65096179Y-59660605D01*
X65100063Y-59658105D01*
X65225000Y-59683406D01*
X65475000Y-59683406D01*
X65596179Y-59660605D01*
X65600063Y-59658105D01*
X65725000Y-59683406D01*
X65975000Y-59683406D01*
X66096179Y-59660605D01*
X66207474Y-59588988D01*
X66282138Y-59479714D01*
X66308406Y-59350000D01*
X66308406Y-58650000D01*
X66285605Y-58528821D01*
X66213988Y-58417526D01*
X66104714Y-58342862D01*
X65975000Y-58316594D01*
X65725000Y-58316594D01*
X65603821Y-58339395D01*
X65599937Y-58341895D01*
X65475000Y-58316594D01*
X65225000Y-58316594D01*
X65103821Y-58339395D01*
X65099937Y-58341895D01*
X64975000Y-58316594D01*
X64725000Y-58316594D01*
X64603821Y-58339395D01*
X64599937Y-58341895D01*
X64475000Y-58316594D01*
X64225000Y-58316594D01*
X64103821Y-58339395D01*
X64099937Y-58341895D01*
X63975000Y-58316594D01*
X63725000Y-58316594D01*
X63603821Y-58339395D01*
X63599937Y-58341895D01*
X63475000Y-58316594D01*
X63225000Y-58316594D01*
X63103821Y-58339395D01*
X63099937Y-58341895D01*
X62975000Y-58316594D01*
X62883406Y-58316594D01*
X62883406Y-58225000D01*
X62860605Y-58103821D01*
X62858105Y-58099937D01*
X62883406Y-57975000D01*
X62883406Y-57725000D01*
X62860605Y-57603821D01*
X62858105Y-57599937D01*
X62883406Y-57475000D01*
X62883406Y-57225000D01*
X62860605Y-57103821D01*
X62858105Y-57099937D01*
X62883406Y-56975000D01*
X62883406Y-56725000D01*
X62875039Y-56680535D01*
X62902970Y-56748132D01*
X63051088Y-56896509D01*
X63244713Y-56976909D01*
X63454367Y-56977092D01*
X63648132Y-56897030D01*
X63796509Y-56748912D01*
X63876909Y-56555287D01*
X63876977Y-56477395D01*
X64553665Y-55800707D01*
X64568722Y-55778173D01*
X64775848Y-55778354D01*
X64969613Y-55698292D01*
X65117990Y-55550174D01*
X65198390Y-55356549D01*
X65198407Y-55336920D01*
X65294712Y-55376909D01*
X65468567Y-55377061D01*
X63863138Y-56982490D01*
X63749988Y-57004997D01*
X63622814Y-57089972D01*
X63537839Y-57217146D01*
X63525494Y-57279211D01*
X63453491Y-57351088D01*
X63373091Y-57544713D01*
X63372908Y-57754367D01*
X63452970Y-57948132D01*
X63601088Y-58096509D01*
X63794713Y-58176909D01*
X64004367Y-58177092D01*
X64198132Y-58097030D01*
X64346509Y-57948912D01*
X64426909Y-57755287D01*
X64427092Y-57545633D01*
X64421726Y-57532646D01*
X67072860Y-54881512D01*
X67145013Y-54867160D01*
X67272187Y-54782185D01*
X68186935Y-53867437D01*
X68271910Y-53740263D01*
X68301749Y-53590251D01*
X68301749Y-53432350D01*
X68316594Y-53417505D01*
X68316594Y-53475000D01*
X68339395Y-53596179D01*
X68341895Y-53600063D01*
X68316594Y-53725000D01*
X68316594Y-53975000D01*
X68339395Y-54096179D01*
X68341895Y-54100063D01*
X68320266Y-54206868D01*
X68150000Y-54173000D01*
X67929192Y-54216922D01*
X67741999Y-54341999D01*
X67616922Y-54529192D01*
X67573000Y-54750000D01*
X67573000Y-56050000D01*
X67616922Y-56270808D01*
X67741999Y-56458001D01*
X67929192Y-56583078D01*
X68150000Y-56627000D01*
X68338152Y-56589574D01*
X68339395Y-56596179D01*
X68341895Y-56600063D01*
X68316594Y-56725000D01*
X68316594Y-56975000D01*
X68339395Y-57096179D01*
X68341895Y-57100063D01*
X68316594Y-57225000D01*
X68316594Y-57475000D01*
X68339395Y-57596179D01*
X68341895Y-57600063D01*
X68316594Y-57725000D01*
X68316594Y-57975000D01*
X68339395Y-58096179D01*
X68341895Y-58100063D01*
X68316594Y-58225000D01*
X68316594Y-58316594D01*
X68225000Y-58316594D01*
X68103821Y-58339395D01*
X68099937Y-58341895D01*
X67975000Y-58316594D01*
X67725000Y-58316594D01*
X67603821Y-58339395D01*
X67599937Y-58341895D01*
X67475000Y-58316594D01*
X67225000Y-58316594D01*
X67103821Y-58339395D01*
X67099937Y-58341895D01*
X66975000Y-58316594D01*
X66725000Y-58316594D01*
X66603821Y-58339395D01*
X66492526Y-58411012D01*
X66417862Y-58520286D01*
X66391594Y-58650000D01*
X66391594Y-59350000D01*
X66414395Y-59471179D01*
X66486012Y-59582474D01*
X66595286Y-59657138D01*
X66725000Y-59683406D01*
X66975000Y-59683406D01*
X67096179Y-59660605D01*
X67100063Y-59658105D01*
X67225000Y-59683406D01*
X67421576Y-59683406D01*
X67417526Y-59686012D01*
X67342862Y-59795286D01*
X67316594Y-59925000D01*
X67316594Y-60675000D01*
X67339395Y-60796179D01*
X67411012Y-60907474D01*
X67520286Y-60982138D01*
X67650000Y-61008406D01*
X68450000Y-61008406D01*
X68571179Y-60985605D01*
X68682474Y-60913988D01*
X68757138Y-60804714D01*
X68783406Y-60675000D01*
X68783406Y-60093480D01*
X68802000Y-60000000D01*
X68802000Y-59777000D01*
X69800000Y-59777000D01*
X70012999Y-59734631D01*
X70012999Y-60354999D01*
X70042838Y-60505011D01*
X70127813Y-60632185D01*
X70266594Y-60770966D01*
X70266594Y-60950000D01*
X70289395Y-61071179D01*
X70361012Y-61182474D01*
X70470286Y-61257138D01*
X70600000Y-61283406D01*
X72000000Y-61283406D01*
X72121179Y-61260605D01*
X72232474Y-61188988D01*
X72307138Y-61079714D01*
X72333406Y-60950000D01*
X72333406Y-60550000D01*
X72310605Y-60428821D01*
X72238988Y-60317526D01*
X72129714Y-60242862D01*
X72000000Y-60216594D01*
X70820966Y-60216594D01*
X70808739Y-60204367D01*
X76172908Y-60204367D01*
X76252970Y-60398132D01*
X76401088Y-60546509D01*
X76594713Y-60626909D01*
X76804367Y-60627092D01*
X76906594Y-60584853D01*
X76906594Y-61350000D01*
X76929395Y-61471179D01*
X77001012Y-61582474D01*
X77110286Y-61657138D01*
X77240000Y-61683406D01*
X77283516Y-61683406D01*
X77332814Y-61757186D01*
X78252814Y-62677186D01*
X78379988Y-62762161D01*
X78530000Y-62792000D01*
X79819793Y-62792000D01*
X79839395Y-62896179D01*
X79911012Y-63007474D01*
X80020286Y-63082138D01*
X80150000Y-63108406D01*
X80950000Y-63108406D01*
X81071179Y-63085605D01*
X81182474Y-63013988D01*
X81257138Y-62904714D01*
X81283406Y-62775000D01*
X81283406Y-62025000D01*
X81260605Y-61903821D01*
X81188988Y-61792526D01*
X81079714Y-61717862D01*
X80950000Y-61691594D01*
X80150000Y-61691594D01*
X80028821Y-61714395D01*
X79917526Y-61786012D01*
X79842862Y-61895286D01*
X79820037Y-62008000D01*
X78692372Y-62008000D01*
X78237189Y-61552817D01*
X78287138Y-61479714D01*
X78313406Y-61350000D01*
X78313406Y-58950000D01*
X78290605Y-58828821D01*
X78218988Y-58717526D01*
X78109714Y-58642862D01*
X77980000Y-58616594D01*
X77240000Y-58616594D01*
X77118821Y-58639395D01*
X77007526Y-58711012D01*
X76932862Y-58820286D01*
X76906594Y-58950000D01*
X76906594Y-59615157D01*
X76805287Y-59573091D01*
X76595633Y-59572908D01*
X76401868Y-59652970D01*
X76253491Y-59801088D01*
X76173091Y-59994713D01*
X76172908Y-60204367D01*
X70808739Y-60204367D01*
X70796999Y-60192627D01*
X70796999Y-58883406D01*
X72000000Y-58883406D01*
X72121179Y-58860605D01*
X72232474Y-58788988D01*
X72307138Y-58679714D01*
X72333406Y-58550000D01*
X72333406Y-58150000D01*
X72310605Y-58028821D01*
X72238988Y-57917526D01*
X72129714Y-57842862D01*
X72000000Y-57816594D01*
X71192000Y-57816594D01*
X71192000Y-57670000D01*
X71162161Y-57519988D01*
X71077186Y-57392814D01*
X69986372Y-56302000D01*
X70300000Y-56302000D01*
X70472973Y-56267594D01*
X70619612Y-56169612D01*
X71055818Y-55733406D01*
X72075000Y-55733406D01*
X72196179Y-55710605D01*
X72266594Y-55665294D01*
X72266594Y-56650000D01*
X72289395Y-56771179D01*
X72361012Y-56882474D01*
X72470286Y-56957138D01*
X72600000Y-56983406D01*
X72723000Y-56983406D01*
X72723000Y-58218367D01*
X72716594Y-58250000D01*
X72716594Y-58750000D01*
X72739395Y-58871179D01*
X72811012Y-58982474D01*
X72920286Y-59057138D01*
X73050000Y-59083406D01*
X73550000Y-59083406D01*
X73671179Y-59060605D01*
X73782474Y-58988988D01*
X73857138Y-58879714D01*
X73883406Y-58750000D01*
X73883406Y-58250000D01*
X73877000Y-58215954D01*
X73877000Y-55650000D01*
X73865463Y-55592000D01*
X73833406Y-55430840D01*
X73833406Y-54150000D01*
X73810605Y-54028821D01*
X73745084Y-53927000D01*
X74460998Y-53927000D01*
X75166594Y-54632596D01*
X75166594Y-56650000D01*
X75189395Y-56771179D01*
X75261012Y-56882474D01*
X75353675Y-56945788D01*
X75322999Y-57100000D01*
X75323000Y-57100005D01*
X75323000Y-58200000D01*
X75366922Y-58420808D01*
X75491999Y-58608001D01*
X75679192Y-58733078D01*
X75900000Y-58777000D01*
X76120808Y-58733078D01*
X76308001Y-58608001D01*
X76433078Y-58420808D01*
X76477000Y-58200000D01*
X76477000Y-57279904D01*
X76483078Y-57270808D01*
X76486225Y-57254988D01*
X76527001Y-57050000D01*
X76527000Y-57049995D01*
X76527000Y-56956859D01*
X76632474Y-56888988D01*
X76707138Y-56779714D01*
X76717827Y-56726929D01*
X76904367Y-56727092D01*
X76906594Y-56726172D01*
X76906594Y-57450000D01*
X76929395Y-57571179D01*
X77001012Y-57682474D01*
X77110286Y-57757138D01*
X77240000Y-57783406D01*
X77980000Y-57783406D01*
X78101179Y-57760605D01*
X78212474Y-57688988D01*
X78244779Y-57641708D01*
X78271012Y-57682474D01*
X78380286Y-57757138D01*
X78510000Y-57783406D01*
X79250000Y-57783406D01*
X79371179Y-57760605D01*
X79482474Y-57688988D01*
X79514779Y-57641708D01*
X79541012Y-57682474D01*
X79650286Y-57757138D01*
X79780000Y-57783406D01*
X80520000Y-57783406D01*
X80641179Y-57760605D01*
X80752474Y-57688988D01*
X80784779Y-57641708D01*
X80811012Y-57682474D01*
X80920286Y-57757138D01*
X81050000Y-57783406D01*
X81698919Y-57783406D01*
X81687839Y-57799988D01*
X81658000Y-57950000D01*
X81658000Y-58616594D01*
X81050000Y-58616594D01*
X80928821Y-58639395D01*
X80817526Y-58711012D01*
X80742862Y-58820286D01*
X80716594Y-58950000D01*
X80716594Y-61350000D01*
X80739395Y-61471179D01*
X80811012Y-61582474D01*
X80920286Y-61657138D01*
X81050000Y-61683406D01*
X81658000Y-61683406D01*
X81658000Y-61691594D01*
X81650000Y-61691594D01*
X81528821Y-61714395D01*
X81417526Y-61786012D01*
X81342862Y-61895286D01*
X81316594Y-62025000D01*
X81316594Y-62775000D01*
X81339395Y-62896179D01*
X81411012Y-63007474D01*
X81520286Y-63082138D01*
X81650000Y-63108406D01*
X82450000Y-63108406D01*
X82571179Y-63085605D01*
X82626510Y-63050000D01*
X83116594Y-63050000D01*
X83116594Y-63950000D01*
X83139395Y-64071179D01*
X83211012Y-64182474D01*
X83320286Y-64257138D01*
X83450000Y-64283406D01*
X85150000Y-64283406D01*
X85271179Y-64260605D01*
X85382474Y-64188988D01*
X85457138Y-64079714D01*
X85467818Y-64026973D01*
X85604367Y-64027092D01*
X85798132Y-63947030D01*
X85946509Y-63798912D01*
X86026909Y-63605287D01*
X86027092Y-63395633D01*
X85947030Y-63201868D01*
X85798912Y-63053491D01*
X85605287Y-62973091D01*
X85468912Y-62972972D01*
X85460605Y-62928821D01*
X85388988Y-62817526D01*
X85279714Y-62742862D01*
X85150000Y-62716594D01*
X83450000Y-62716594D01*
X83328821Y-62739395D01*
X83217526Y-62811012D01*
X83142862Y-62920286D01*
X83116594Y-63050000D01*
X82626510Y-63050000D01*
X82682474Y-63013988D01*
X82757138Y-62904714D01*
X82783406Y-62775000D01*
X82783406Y-62025000D01*
X82760605Y-61903821D01*
X82688988Y-61792526D01*
X82579714Y-61717862D01*
X82450000Y-61691594D01*
X82442000Y-61691594D01*
X82442000Y-58112372D01*
X82770966Y-57783406D01*
X83060000Y-57783406D01*
X83181179Y-57760605D01*
X83292474Y-57688988D01*
X83367138Y-57579714D01*
X83393406Y-57450000D01*
X83393406Y-57160966D01*
X83927347Y-56627025D01*
X84004367Y-56627092D01*
X84198132Y-56547030D01*
X84346509Y-56398912D01*
X84426909Y-56205287D01*
X84427092Y-55995633D01*
X84347030Y-55801868D01*
X84198912Y-55653491D01*
X84005287Y-55573091D01*
X83795633Y-55572908D01*
X83601868Y-55652970D01*
X83546742Y-55708000D01*
X83393406Y-55708000D01*
X83393406Y-55050000D01*
X83370605Y-54928821D01*
X83298988Y-54817526D01*
X83189714Y-54742862D01*
X83060000Y-54716594D01*
X82320000Y-54716594D01*
X82198821Y-54739395D01*
X82087526Y-54811012D01*
X82055221Y-54858292D01*
X82028988Y-54817526D01*
X81919714Y-54742862D01*
X81790000Y-54716594D01*
X81050000Y-54716594D01*
X80928821Y-54739395D01*
X80817526Y-54811012D01*
X80785221Y-54858292D01*
X80758988Y-54817526D01*
X80649714Y-54742862D01*
X80520000Y-54716594D01*
X79780000Y-54716594D01*
X79658821Y-54739395D01*
X79547526Y-54811012D01*
X79515221Y-54858292D01*
X79488988Y-54817526D01*
X79404324Y-54759677D01*
X79426909Y-54705287D01*
X79427092Y-54495633D01*
X79347030Y-54301868D01*
X79198912Y-54153491D01*
X79005287Y-54073091D01*
X78795633Y-54072908D01*
X78601868Y-54152970D01*
X78453491Y-54301088D01*
X78373091Y-54494713D01*
X78372908Y-54704367D01*
X78387684Y-54740127D01*
X78277526Y-54811012D01*
X78245221Y-54858292D01*
X78218988Y-54817526D01*
X78109714Y-54742862D01*
X77980000Y-54716594D01*
X77240000Y-54716594D01*
X77118821Y-54739395D01*
X77007526Y-54811012D01*
X76932862Y-54920286D01*
X76906594Y-55050000D01*
X76906594Y-55673634D01*
X76905287Y-55673091D01*
X76733406Y-55672941D01*
X76733406Y-54150000D01*
X76710605Y-54028821D01*
X76638988Y-53917526D01*
X76529714Y-53842862D01*
X76400000Y-53816594D01*
X75982596Y-53816594D01*
X75654465Y-53488463D01*
X75733078Y-53370808D01*
X75737217Y-53350000D01*
X75777001Y-53150000D01*
X75777000Y-53149995D01*
X75777000Y-52968918D01*
X75821179Y-52960605D01*
X75932474Y-52888988D01*
X76007138Y-52779714D01*
X76033406Y-52650000D01*
X76033406Y-50510348D01*
X78422554Y-50510348D01*
X78814052Y-51457846D01*
X79538341Y-52183400D01*
X80485154Y-52576551D01*
X81510348Y-52577446D01*
X82457846Y-52185948D01*
X83183400Y-51461659D01*
X83576551Y-50514846D01*
X83577446Y-49489652D01*
X83185948Y-48542154D01*
X82461659Y-47816600D01*
X81514846Y-47423449D01*
X80489652Y-47422554D01*
X79542154Y-47814052D01*
X78816600Y-48538341D01*
X78423449Y-49485154D01*
X78422554Y-50510348D01*
X76033406Y-50510348D01*
X76033406Y-50150000D01*
X76010605Y-50028821D01*
X75938988Y-49917526D01*
X75829714Y-49842862D01*
X75700000Y-49816594D01*
X74700000Y-49816594D01*
X74578821Y-49839395D01*
X74467526Y-49911012D01*
X74392862Y-50020286D01*
X74366594Y-50150000D01*
X74366594Y-52650000D01*
X74389395Y-52771179D01*
X74390567Y-52773000D01*
X70100000Y-52773000D01*
X70092000Y-52774591D01*
X70092000Y-51100000D01*
X70062161Y-50949988D01*
X69977186Y-50822814D01*
X69850012Y-50737839D01*
X69700000Y-50708000D01*
X65553326Y-50708000D01*
X65498912Y-50653491D01*
X65305287Y-50573091D01*
X65095633Y-50572908D01*
X64901868Y-50652970D01*
X64753491Y-50801088D01*
X64673091Y-50994713D01*
X64672908Y-51204367D01*
X64752970Y-51398132D01*
X64901088Y-51546509D01*
X65017589Y-51594884D01*
X64992526Y-51611012D01*
X64917862Y-51720286D01*
X64891594Y-51850000D01*
X64891594Y-52550000D01*
X64893099Y-52558000D01*
X64806786Y-52558000D01*
X64808406Y-52550000D01*
X64808406Y-51850000D01*
X64785605Y-51728821D01*
X64713988Y-51617526D01*
X64604714Y-51542862D01*
X64475000Y-51516594D01*
X64225000Y-51516594D01*
X64103821Y-51539395D01*
X64099937Y-51541895D01*
X63975000Y-51516594D01*
X63725000Y-51516594D01*
X63603821Y-51539395D01*
X63599937Y-51541895D01*
X63475000Y-51516594D01*
X63225000Y-51516594D01*
X63103821Y-51539395D01*
X63099937Y-51541895D01*
X62975000Y-51516594D01*
X62725000Y-51516594D01*
X62603821Y-51539395D01*
X62492526Y-51611012D01*
X62417862Y-51720286D01*
X62391594Y-51850000D01*
X62391594Y-51889621D01*
X62350012Y-51861837D01*
X62200000Y-51831998D01*
X61062372Y-51831998D01*
X60727000Y-51496626D01*
X60727000Y-50605304D01*
X60739395Y-50671179D01*
X60811012Y-50782474D01*
X60920286Y-50857138D01*
X61050000Y-50883406D01*
X61550000Y-50883406D01*
X61671179Y-50860605D01*
X61782474Y-50788988D01*
X61857138Y-50679714D01*
X61883406Y-50550000D01*
X61883406Y-50050000D01*
X62916594Y-50050000D01*
X62916594Y-50550000D01*
X62939395Y-50671179D01*
X63011012Y-50782474D01*
X63120286Y-50857138D01*
X63250000Y-50883406D01*
X63750000Y-50883406D01*
X63871179Y-50860605D01*
X63982474Y-50788988D01*
X64057138Y-50679714D01*
X64083406Y-50550000D01*
X64083406Y-50050000D01*
X64060605Y-49928821D01*
X63988988Y-49817526D01*
X63879714Y-49742862D01*
X63750000Y-49716594D01*
X63250000Y-49716594D01*
X63128821Y-49739395D01*
X63017526Y-49811012D01*
X62942862Y-49920286D01*
X62916594Y-50050000D01*
X61883406Y-50050000D01*
X61860605Y-49928821D01*
X61808947Y-49848543D01*
X61826909Y-49805287D01*
X61827092Y-49595633D01*
X61747030Y-49401868D01*
X61598912Y-49253491D01*
X61405287Y-49173091D01*
X61195633Y-49172908D01*
X61001868Y-49252970D01*
X60853491Y-49401088D01*
X60773091Y-49594713D01*
X60772908Y-49804367D01*
X60791433Y-49849201D01*
X60742862Y-49920286D01*
X60716594Y-50050000D01*
X60716594Y-50150005D01*
X60688553Y-50108965D01*
X60646159Y-50081685D01*
X60600000Y-50073000D01*
X56527000Y-50073000D01*
X56527000Y-48008498D01*
X56650000Y-48033406D01*
X57917404Y-48033406D01*
X58116594Y-48232596D01*
X58116594Y-48875000D01*
X58139395Y-48996179D01*
X58211012Y-49107474D01*
X58320286Y-49182138D01*
X58450000Y-49208406D01*
X59250000Y-49208406D01*
X59371179Y-49185605D01*
X59482474Y-49113988D01*
X59557138Y-49004714D01*
X59583406Y-48875000D01*
X59583406Y-48125000D01*
X59560605Y-48003821D01*
X59488988Y-47892526D01*
X59438017Y-47857699D01*
X59457138Y-47829714D01*
X59483406Y-47700000D01*
X59483406Y-47027000D01*
X60226314Y-47027000D01*
X60216594Y-47075000D01*
X60216594Y-47142404D01*
X59941999Y-47416999D01*
X59816922Y-47604192D01*
X59772999Y-47825000D01*
X59773000Y-47825005D01*
X59773000Y-47850315D01*
X59717526Y-47886012D01*
X59642862Y-47995286D01*
X59616594Y-48125000D01*
X59616594Y-48875000D01*
X59639395Y-48996179D01*
X59711012Y-49107474D01*
X59820286Y-49182138D01*
X59950000Y-49208406D01*
X60750000Y-49208406D01*
X60871179Y-49185605D01*
X60982474Y-49113988D01*
X61057138Y-49004714D01*
X61083406Y-48875000D01*
X61083406Y-48125000D01*
X61060605Y-48003821D01*
X61031857Y-47959145D01*
X61232595Y-47758406D01*
X61300000Y-47758406D01*
X61421179Y-47735605D01*
X61532474Y-47663988D01*
X61607138Y-47554714D01*
X61633406Y-47425000D01*
X61633406Y-47075000D01*
X61610605Y-46953821D01*
X61542941Y-46848669D01*
X61607138Y-46754714D01*
X61633406Y-46625000D01*
X61633406Y-46275000D01*
X61610605Y-46153821D01*
X61542941Y-46048669D01*
X61607138Y-45954714D01*
X61633406Y-45825000D01*
X61633406Y-45475000D01*
X61610605Y-45353821D01*
X61538988Y-45242526D01*
X61429714Y-45167862D01*
X61300000Y-45141594D01*
X61182733Y-45141594D01*
X61145808Y-45116922D01*
X60925000Y-45073000D01*
X60704192Y-45116922D01*
X60667267Y-45141594D01*
X60550000Y-45141594D01*
X60428821Y-45164395D01*
X60317526Y-45236012D01*
X60242862Y-45345286D01*
X60216594Y-45475000D01*
X60216594Y-45825000D01*
X60225626Y-45873000D01*
X58650000Y-45873000D01*
X58429192Y-45916922D01*
X58241999Y-46041999D01*
X58241997Y-46042002D01*
X57917405Y-46366594D01*
X57882595Y-46366594D01*
X56527000Y-45010998D01*
X56527000Y-44675000D01*
X64216594Y-44675000D01*
X64216594Y-45025000D01*
X64239395Y-45146179D01*
X64307059Y-45251331D01*
X64242862Y-45345286D01*
X64216594Y-45475000D01*
X64216594Y-45825000D01*
X64239395Y-45946179D01*
X64307059Y-46051331D01*
X64242862Y-46145286D01*
X64216594Y-46275000D01*
X64216594Y-46625000D01*
X64239395Y-46746179D01*
X64307059Y-46851331D01*
X64242862Y-46945286D01*
X64216594Y-47075000D01*
X64216594Y-47425000D01*
X64239395Y-47546179D01*
X64311012Y-47657474D01*
X64420286Y-47732138D01*
X64550000Y-47758406D01*
X64598516Y-47758406D01*
X64647814Y-47832186D01*
X64892814Y-48077186D01*
X65019988Y-48162161D01*
X65170000Y-48192000D01*
X68319793Y-48192000D01*
X68339395Y-48296179D01*
X68398170Y-48387517D01*
X68392862Y-48395286D01*
X68366594Y-48525000D01*
X68366594Y-49275000D01*
X68389395Y-49396179D01*
X68461012Y-49507474D01*
X68570286Y-49582138D01*
X68700000Y-49608406D01*
X69500000Y-49608406D01*
X69621179Y-49585605D01*
X69732474Y-49513988D01*
X69807138Y-49404714D01*
X69833406Y-49275000D01*
X69833406Y-48525000D01*
X69810605Y-48403821D01*
X69751830Y-48312483D01*
X69757138Y-48304714D01*
X69783406Y-48175000D01*
X69783406Y-47425000D01*
X69816594Y-47425000D01*
X69816594Y-48175000D01*
X69839395Y-48296179D01*
X69911012Y-48407474D01*
X70020286Y-48482138D01*
X70150000Y-48508406D01*
X70950000Y-48508406D01*
X71071179Y-48485605D01*
X71182474Y-48413988D01*
X71257138Y-48304714D01*
X71283406Y-48175000D01*
X71283406Y-47425000D01*
X71260605Y-47303821D01*
X71188988Y-47192526D01*
X71127000Y-47150171D01*
X71127000Y-46883406D01*
X71700000Y-46883406D01*
X71821179Y-46860605D01*
X71891594Y-46815294D01*
X71891594Y-47200000D01*
X71914395Y-47321179D01*
X71986012Y-47432474D01*
X72095286Y-47507138D01*
X72225000Y-47533406D01*
X72975000Y-47533406D01*
X73096179Y-47510605D01*
X73207474Y-47438988D01*
X73249829Y-47377000D01*
X73260998Y-47377000D01*
X74366594Y-48482596D01*
X74366594Y-49300000D01*
X74389395Y-49421179D01*
X74461012Y-49532474D01*
X74570286Y-49607138D01*
X74700000Y-49633406D01*
X75700000Y-49633406D01*
X75821179Y-49610605D01*
X75932474Y-49538988D01*
X76007138Y-49429714D01*
X76033406Y-49300000D01*
X76033406Y-47700000D01*
X76010605Y-47578821D01*
X75938988Y-47467526D01*
X75829714Y-47392862D01*
X75700000Y-47366594D01*
X74882596Y-47366594D01*
X73908001Y-46391999D01*
X73720808Y-46266922D01*
X73500000Y-46222999D01*
X73499995Y-46223000D01*
X73249685Y-46223000D01*
X73213988Y-46167526D01*
X73104714Y-46092862D01*
X72975000Y-46066594D01*
X72225000Y-46066594D01*
X72103821Y-46089395D01*
X72033406Y-46134706D01*
X72033406Y-45964857D01*
X72095286Y-46007138D01*
X72225000Y-46033406D01*
X72975000Y-46033406D01*
X73096179Y-46010605D01*
X73207474Y-45938988D01*
X73282138Y-45829714D01*
X73308406Y-45700000D01*
X73308406Y-44900000D01*
X73285605Y-44778821D01*
X73213988Y-44667526D01*
X73104714Y-44592862D01*
X72975000Y-44566594D01*
X72225000Y-44566594D01*
X72103821Y-44589395D01*
X72033406Y-44634706D01*
X72033406Y-44050000D01*
X72010605Y-43928821D01*
X71938988Y-43817526D01*
X71829714Y-43742862D01*
X71700000Y-43716594D01*
X70800000Y-43716594D01*
X70678821Y-43739395D01*
X70567526Y-43811012D01*
X70492862Y-43920286D01*
X70466594Y-44050000D01*
X70466594Y-45267404D01*
X70141999Y-45591999D01*
X70016922Y-45779192D01*
X69972999Y-46000000D01*
X69973000Y-46000005D01*
X69973000Y-47150315D01*
X69917526Y-47186012D01*
X69842862Y-47295286D01*
X69816594Y-47425000D01*
X69783406Y-47425000D01*
X69760605Y-47303821D01*
X69688988Y-47192526D01*
X69579714Y-47117862D01*
X69450000Y-47091594D01*
X68650000Y-47091594D01*
X68528821Y-47114395D01*
X68417526Y-47186012D01*
X68342862Y-47295286D01*
X68320037Y-47408000D01*
X67608406Y-47408000D01*
X67608406Y-46750000D01*
X67595302Y-46680359D01*
X67661012Y-46782474D01*
X67770286Y-46857138D01*
X67900000Y-46883406D01*
X68800000Y-46883406D01*
X68921179Y-46860605D01*
X69032474Y-46788988D01*
X69107138Y-46679714D01*
X69133406Y-46550000D01*
X69133406Y-44050000D01*
X69110605Y-43928821D01*
X69038988Y-43817526D01*
X68929714Y-43742862D01*
X68800000Y-43716594D01*
X67900000Y-43716594D01*
X67778821Y-43739395D01*
X67667526Y-43811012D01*
X67610195Y-43894919D01*
X67556977Y-43884333D01*
X67513988Y-43817526D01*
X67404714Y-43742862D01*
X67275000Y-43716594D01*
X66525000Y-43716594D01*
X66403821Y-43739395D01*
X66292526Y-43811012D01*
X66217862Y-43920286D01*
X66191594Y-44050000D01*
X66191594Y-44273000D01*
X64925000Y-44273000D01*
X64704192Y-44316922D01*
X64667267Y-44341594D01*
X64550000Y-44341594D01*
X64428821Y-44364395D01*
X64317526Y-44436012D01*
X64242862Y-44545286D01*
X64216594Y-44675000D01*
X56527000Y-44675000D01*
X56527000Y-43377000D01*
X76962869Y-43377000D01*
X81062420Y-44192451D01*
X81062420Y-44192451D01*
G37*
X81062420Y-44192451D02*
X84506373Y-46493627D01*
X86807549Y-49937580D01*
X87623000Y-54037131D01*
X87623000Y-76962869D01*
X86807549Y-81062420D01*
X85731394Y-82673000D01*
X82971690Y-82673000D01*
X83183400Y-82461659D01*
X83576551Y-81514846D01*
X83577446Y-80489652D01*
X83185948Y-79542154D01*
X82461659Y-78816600D01*
X81514846Y-78423449D01*
X80489652Y-78422554D01*
X79542154Y-78814052D01*
X78816600Y-79538341D01*
X78423449Y-80485154D01*
X78422554Y-81510348D01*
X78814052Y-82457846D01*
X79028831Y-82673000D01*
X72942000Y-82673000D01*
X72942000Y-81700506D01*
X73202400Y-81700506D01*
X73323579Y-81677705D01*
X73434874Y-81606088D01*
X73509538Y-81496814D01*
X73534287Y-81374600D01*
X74277400Y-81374600D01*
X74450373Y-81340194D01*
X74597012Y-81242212D01*
X74905818Y-80933406D01*
X75375000Y-80933406D01*
X75496179Y-80910605D01*
X75607474Y-80838988D01*
X75642458Y-80787788D01*
X75701088Y-80846521D01*
X75894713Y-80926921D01*
X76104367Y-80927104D01*
X76298132Y-80847042D01*
X76446509Y-80698924D01*
X76526909Y-80505299D01*
X76527092Y-80295645D01*
X76447030Y-80101880D01*
X76298912Y-79953503D01*
X76114296Y-79876844D01*
X75972961Y-79782406D01*
X75799988Y-79748000D01*
X75698622Y-79748000D01*
X75685605Y-79678821D01*
X75613988Y-79567526D01*
X75504714Y-79492862D01*
X75375000Y-79466594D01*
X74625000Y-79466594D01*
X74503821Y-79489395D01*
X74392526Y-79561012D01*
X74317862Y-79670286D01*
X74291594Y-79800000D01*
X74291594Y-80269182D01*
X74090176Y-80470600D01*
X73534395Y-80470600D01*
X73513005Y-80356921D01*
X73441388Y-80245626D01*
X73332114Y-80170962D01*
X73202400Y-80144694D01*
X72897600Y-80144694D01*
X72796416Y-80163733D01*
X72702400Y-80144694D01*
X72397600Y-80144694D01*
X72296416Y-80163733D01*
X72202400Y-80144694D01*
X71897600Y-80144694D01*
X71776421Y-80167495D01*
X71665126Y-80239112D01*
X71590462Y-80348386D01*
X71564194Y-80478100D01*
X71564194Y-81367100D01*
X71586995Y-81488279D01*
X71658000Y-81598623D01*
X71658000Y-82673000D01*
X60600000Y-82673000D01*
X60550590Y-82683006D01*
X60508965Y-82711447D01*
X60481685Y-82753841D01*
X60473000Y-82800000D01*
X60473000Y-87623000D01*
X58427000Y-87623000D01*
X58427000Y-78400000D01*
X58416994Y-78350590D01*
X58396426Y-78317349D01*
X57696951Y-77501294D01*
X70839338Y-77501294D01*
X70919400Y-77695059D01*
X70982815Y-77758585D01*
X71004269Y-77866442D01*
X71064194Y-77956126D01*
X71064194Y-78344500D01*
X71086995Y-78465679D01*
X71158612Y-78576974D01*
X71267886Y-78651638D01*
X71397600Y-78677906D01*
X71702400Y-78677906D01*
X71803584Y-78658867D01*
X71897600Y-78677906D01*
X72202400Y-78677906D01*
X72303584Y-78658867D01*
X72397600Y-78677906D01*
X72702400Y-78677906D01*
X72803584Y-78658867D01*
X72897600Y-78677906D01*
X73202400Y-78677906D01*
X73323579Y-78655105D01*
X73434874Y-78583488D01*
X73509538Y-78474214D01*
X73535806Y-78344500D01*
X73535806Y-77455500D01*
X73513005Y-77334321D01*
X73501509Y-77316456D01*
X73526909Y-77255287D01*
X73527092Y-77045633D01*
X73447030Y-76851868D01*
X73298912Y-76703491D01*
X73105287Y-76623091D01*
X72895633Y-76622908D01*
X72701868Y-76702970D01*
X72553491Y-76851088D01*
X72473091Y-77044713D01*
X72473023Y-77122094D01*
X72397600Y-77122094D01*
X72378843Y-77125623D01*
X72327186Y-77048314D01*
X72059764Y-76780892D01*
X71983731Y-76596878D01*
X71835613Y-76448501D01*
X71641988Y-76368101D01*
X71432334Y-76367918D01*
X71238569Y-76447980D01*
X71090192Y-76596098D01*
X71009792Y-76789723D01*
X71009609Y-76999377D01*
X71012273Y-77005824D01*
X70919921Y-77098015D01*
X70839521Y-77291640D01*
X70839338Y-77501294D01*
X57696951Y-77501294D01*
X57227000Y-76953019D01*
X57227000Y-74950000D01*
X72416594Y-74950000D01*
X72416594Y-75750000D01*
X72439395Y-75871179D01*
X72511012Y-75982474D01*
X72620286Y-76057138D01*
X72750000Y-76083406D01*
X73550000Y-76083406D01*
X73671179Y-76060605D01*
X73782474Y-75988988D01*
X73857138Y-75879714D01*
X73883406Y-75750000D01*
X73883406Y-74950000D01*
X74016594Y-74950000D01*
X74016594Y-75750000D01*
X74039395Y-75871179D01*
X74111012Y-75982474D01*
X74220286Y-76057138D01*
X74350000Y-76083406D01*
X75150000Y-76083406D01*
X75271179Y-76060605D01*
X75382474Y-75988988D01*
X75457138Y-75879714D01*
X75483406Y-75750000D01*
X75483406Y-75742000D01*
X75587654Y-75742000D01*
X75772975Y-75927321D01*
X75772908Y-76004341D01*
X75852970Y-76198106D01*
X76001088Y-76346483D01*
X76194713Y-76426883D01*
X76404367Y-76427066D01*
X76598132Y-76347004D01*
X76746509Y-76198886D01*
X76826909Y-76005261D01*
X76827092Y-75795607D01*
X76747030Y-75601842D01*
X76598912Y-75453465D01*
X76405287Y-75373065D01*
X76327395Y-75372997D01*
X76027212Y-75072814D01*
X75900038Y-74987839D01*
X75750026Y-74958000D01*
X75483406Y-74958000D01*
X75483406Y-74950000D01*
X75460605Y-74828821D01*
X75388988Y-74717526D01*
X75279714Y-74642862D01*
X75150000Y-74616594D01*
X74350000Y-74616594D01*
X74228821Y-74639395D01*
X74117526Y-74711012D01*
X74042862Y-74820286D01*
X74016594Y-74950000D01*
X73883406Y-74950000D01*
X73860605Y-74828821D01*
X73788988Y-74717526D01*
X73726372Y-74674742D01*
X73757138Y-74629714D01*
X73783406Y-74500000D01*
X73783406Y-73600000D01*
X73760605Y-73478821D01*
X73744870Y-73454367D01*
X81672908Y-73454367D01*
X81752970Y-73648132D01*
X81901088Y-73796509D01*
X82094713Y-73876909D01*
X82304367Y-73877092D01*
X82498132Y-73797030D01*
X82553258Y-73742000D01*
X83116594Y-73742000D01*
X83116594Y-73800000D01*
X83139395Y-73921179D01*
X83211012Y-74032474D01*
X83320286Y-74107138D01*
X83450000Y-74133406D01*
X85150000Y-74133406D01*
X85271179Y-74110605D01*
X85382474Y-74038988D01*
X85457138Y-73929714D01*
X85483406Y-73800000D01*
X85483406Y-72900000D01*
X85460605Y-72778821D01*
X85388988Y-72667526D01*
X85279714Y-72592862D01*
X85150000Y-72566594D01*
X83450000Y-72566594D01*
X83328821Y-72589395D01*
X83217526Y-72661012D01*
X83142862Y-72770286D01*
X83116594Y-72900000D01*
X83116594Y-72958000D01*
X82553326Y-72958000D01*
X82498912Y-72903491D01*
X82305287Y-72823091D01*
X82095633Y-72822908D01*
X81901868Y-72902970D01*
X81753491Y-73051088D01*
X81673091Y-73244713D01*
X81672908Y-73454367D01*
X73744870Y-73454367D01*
X73688988Y-73367526D01*
X73579714Y-73292862D01*
X73450000Y-73266594D01*
X72950000Y-73266594D01*
X72828821Y-73289395D01*
X72717526Y-73361012D01*
X72642862Y-73470286D01*
X72616594Y-73600000D01*
X72616594Y-74500000D01*
X72639395Y-74621179D01*
X72648709Y-74635653D01*
X72628821Y-74639395D01*
X72517526Y-74711012D01*
X72442862Y-74820286D01*
X72416594Y-74950000D01*
X57227000Y-74950000D01*
X57227000Y-72654367D01*
X76072908Y-72654367D01*
X76152970Y-72848132D01*
X76301088Y-72996509D01*
X76494713Y-73076909D01*
X76674923Y-73077066D01*
X76750000Y-73092000D01*
X77052793Y-73092000D01*
X77111012Y-73182474D01*
X77220286Y-73257138D01*
X77350000Y-73283406D01*
X78250000Y-73283406D01*
X78371179Y-73260605D01*
X78482474Y-73188988D01*
X78557138Y-73079714D01*
X78583406Y-72950000D01*
X78583406Y-72450000D01*
X78560605Y-72328821D01*
X78488988Y-72217526D01*
X78379714Y-72142862D01*
X78250000Y-72116594D01*
X77350000Y-72116594D01*
X77228821Y-72139395D01*
X77117526Y-72211012D01*
X77063076Y-72290702D01*
X77047030Y-72251868D01*
X76898912Y-72103491D01*
X76705287Y-72023091D01*
X76495633Y-72022908D01*
X76301868Y-72102970D01*
X76153491Y-72251088D01*
X76073091Y-72444713D01*
X76072908Y-72654367D01*
X57227000Y-72654367D01*
X57227000Y-70950000D01*
X77016594Y-70950000D01*
X77016594Y-71450000D01*
X77039395Y-71571179D01*
X77111012Y-71682474D01*
X77220286Y-71757138D01*
X77350000Y-71783406D01*
X78250000Y-71783406D01*
X78349557Y-71764673D01*
X78361012Y-71782474D01*
X78470286Y-71857138D01*
X78600000Y-71883406D01*
X79400000Y-71883406D01*
X79521179Y-71860605D01*
X79632474Y-71788988D01*
X79707138Y-71679714D01*
X79733406Y-71550000D01*
X79733406Y-70750000D01*
X79710605Y-70628821D01*
X79638988Y-70517526D01*
X79529714Y-70442862D01*
X79400000Y-70416594D01*
X78600000Y-70416594D01*
X78478821Y-70439395D01*
X78367526Y-70511012D01*
X78292862Y-70620286D01*
X78291892Y-70625077D01*
X78250000Y-70616594D01*
X77350000Y-70616594D01*
X77228821Y-70639395D01*
X77117526Y-70711012D01*
X77042862Y-70820286D01*
X77016594Y-70950000D01*
X57227000Y-70950000D01*
X57227000Y-70227000D01*
X59000000Y-70227000D01*
X59049410Y-70216994D01*
X59091035Y-70188553D01*
X59118315Y-70146159D01*
X59127000Y-70100000D01*
X59127000Y-70000000D01*
X83116594Y-70000000D01*
X83116594Y-70900000D01*
X83139395Y-71021179D01*
X83211012Y-71132474D01*
X83320286Y-71207138D01*
X83450000Y-71233406D01*
X85150000Y-71233406D01*
X85271179Y-71210605D01*
X85382474Y-71138988D01*
X85457138Y-71029714D01*
X85483406Y-70900000D01*
X85483406Y-70780690D01*
X85594713Y-70826909D01*
X85804367Y-70827092D01*
X85998132Y-70747030D01*
X86146509Y-70598912D01*
X86226909Y-70405287D01*
X86227092Y-70195633D01*
X86147030Y-70001868D01*
X85998912Y-69853491D01*
X85805287Y-69773091D01*
X85595633Y-69772908D01*
X85435127Y-69839228D01*
X85388988Y-69767526D01*
X85279714Y-69692862D01*
X85150000Y-69666594D01*
X83450000Y-69666594D01*
X83328821Y-69689395D01*
X83217526Y-69761012D01*
X83142862Y-69870286D01*
X83116594Y-70000000D01*
X59127000Y-70000000D01*
X59127000Y-68400000D01*
X59116994Y-68350590D01*
X59088553Y-68308965D01*
X59046159Y-68281685D01*
X59000000Y-68273000D01*
X57227000Y-68273000D01*
X57227000Y-65500000D01*
X61923000Y-65500000D01*
X62195283Y-66868859D01*
X62970679Y-68029321D01*
X64131141Y-68804717D01*
X65500000Y-69077000D01*
X66868859Y-68804717D01*
X68029321Y-68029321D01*
X68804717Y-66868859D01*
X68859344Y-66594230D01*
X69003707Y-66690691D01*
X69186247Y-66727000D01*
X69663753Y-66727000D01*
X69675296Y-66724704D01*
X69673000Y-66736247D01*
X69673000Y-67213753D01*
X69709309Y-67396293D01*
X69812710Y-67551043D01*
X69967460Y-67654444D01*
X70150000Y-67690753D01*
X70332540Y-67654444D01*
X70400000Y-67609369D01*
X70467460Y-67654444D01*
X70650000Y-67690753D01*
X70832540Y-67654444D01*
X70900000Y-67609369D01*
X70967460Y-67654444D01*
X71150000Y-67690753D01*
X71332540Y-67654444D01*
X71400000Y-67609369D01*
X71467460Y-67654444D01*
X71570584Y-67674956D01*
X72274248Y-68378620D01*
X72302970Y-68448132D01*
X72451088Y-68596509D01*
X72644713Y-68676909D01*
X72854367Y-68677092D01*
X73048132Y-68597030D01*
X73196509Y-68448912D01*
X73276909Y-68255287D01*
X73277092Y-68045633D01*
X73197030Y-67851868D01*
X73048912Y-67703491D01*
X72855287Y-67623091D01*
X72645633Y-67622908D01*
X72632646Y-67628274D01*
X72127000Y-67122628D01*
X72127000Y-66736247D01*
X72124704Y-66724704D01*
X72136247Y-66727000D01*
X72613753Y-66727000D01*
X72796293Y-66690691D01*
X72869164Y-66642000D01*
X73007628Y-66642000D01*
X73292814Y-66927186D01*
X73419988Y-67012161D01*
X73570000Y-67042000D01*
X74296674Y-67042000D01*
X74351088Y-67096509D01*
X74544713Y-67176909D01*
X74754367Y-67177092D01*
X74948132Y-67097030D01*
X75096509Y-66948912D01*
X75176909Y-66755287D01*
X75177092Y-66545633D01*
X75097030Y-66351868D01*
X74948912Y-66203491D01*
X74755287Y-66123091D01*
X74545633Y-66122908D01*
X74351868Y-66202970D01*
X74296742Y-66258000D01*
X73732372Y-66258000D01*
X73447186Y-65972814D01*
X73320012Y-65887839D01*
X73170000Y-65858000D01*
X73069271Y-65858000D01*
X73090753Y-65750000D01*
X73069271Y-65642000D01*
X73946146Y-65642000D01*
X74009181Y-65705145D01*
X74202806Y-65785545D01*
X74412460Y-65785728D01*
X74606225Y-65705666D01*
X74754602Y-65557548D01*
X74820021Y-65400000D01*
X77016594Y-65400000D01*
X77016594Y-65900000D01*
X77039395Y-66021179D01*
X77111012Y-66132474D01*
X77220286Y-66207138D01*
X77272984Y-66217810D01*
X77272908Y-66304367D01*
X77352970Y-66498132D01*
X77501088Y-66646509D01*
X77694713Y-66726909D01*
X77904367Y-66727092D01*
X78098132Y-66647030D01*
X78241044Y-66504367D01*
X82372908Y-66504367D01*
X82452970Y-66698132D01*
X82601088Y-66846509D01*
X82794713Y-66926909D01*
X83004367Y-66927092D01*
X83121957Y-66878505D01*
X83139395Y-66971179D01*
X83211012Y-67082474D01*
X83320286Y-67157138D01*
X83450000Y-67183406D01*
X85150000Y-67183406D01*
X85271179Y-67160605D01*
X85382474Y-67088988D01*
X85457138Y-66979714D01*
X85483406Y-66850000D01*
X85483406Y-65950000D01*
X85460605Y-65828821D01*
X85388988Y-65717526D01*
X85279714Y-65642862D01*
X85150000Y-65616594D01*
X83450000Y-65616594D01*
X83328821Y-65639395D01*
X83217526Y-65711012D01*
X83142862Y-65820286D01*
X83122327Y-65921690D01*
X83005287Y-65873091D01*
X82795633Y-65872908D01*
X82601868Y-65952970D01*
X82453491Y-66101088D01*
X82373091Y-66294713D01*
X82372908Y-66504367D01*
X78241044Y-66504367D01*
X78246509Y-66498912D01*
X78326909Y-66305287D01*
X78326984Y-66218921D01*
X78371179Y-66210605D01*
X78482474Y-66138988D01*
X78557138Y-66029714D01*
X78583406Y-65900000D01*
X78583406Y-65400000D01*
X78560605Y-65278821D01*
X78488988Y-65167526D01*
X78379714Y-65092862D01*
X78250000Y-65066594D01*
X77350000Y-65066594D01*
X77228821Y-65089395D01*
X77117526Y-65161012D01*
X77042862Y-65270286D01*
X77016594Y-65400000D01*
X74820021Y-65400000D01*
X74835002Y-65363923D01*
X74835185Y-65154269D01*
X74755123Y-64960504D01*
X74607005Y-64812127D01*
X74413380Y-64731727D01*
X74203726Y-64731544D01*
X74009961Y-64811606D01*
X73963486Y-64858000D01*
X72869164Y-64858000D01*
X72796293Y-64809309D01*
X72613753Y-64773000D01*
X72136247Y-64773000D01*
X71953707Y-64809309D01*
X71798957Y-64912710D01*
X71695556Y-65067460D01*
X71659247Y-65250000D01*
X71695556Y-65432540D01*
X71740631Y-65500000D01*
X71695556Y-65567460D01*
X71659247Y-65750000D01*
X71695556Y-65932540D01*
X71740631Y-66000000D01*
X71695556Y-66067460D01*
X71659247Y-66250000D01*
X71661543Y-66261543D01*
X71650000Y-66259247D01*
X71467460Y-66295556D01*
X71400000Y-66340631D01*
X71332540Y-66295556D01*
X71150000Y-66259247D01*
X70967460Y-66295556D01*
X70900000Y-66340631D01*
X70832540Y-66295556D01*
X70650000Y-66259247D01*
X70467460Y-66295556D01*
X70400000Y-66340631D01*
X70332540Y-66295556D01*
X70150000Y-66259247D01*
X70138457Y-66261543D01*
X70140753Y-66250000D01*
X70104444Y-66067460D01*
X70059369Y-66000000D01*
X70104444Y-65932540D01*
X70140753Y-65750000D01*
X70104444Y-65567460D01*
X70059369Y-65500000D01*
X70104444Y-65432540D01*
X70140753Y-65250000D01*
X70104444Y-65067460D01*
X70059369Y-65000000D01*
X70104444Y-64932540D01*
X70140753Y-64750000D01*
X70138457Y-64738457D01*
X70150000Y-64740753D01*
X70332540Y-64704444D01*
X70400000Y-64659369D01*
X70467460Y-64704444D01*
X70650000Y-64740753D01*
X70832540Y-64704444D01*
X70900000Y-64659369D01*
X70967460Y-64704444D01*
X71150000Y-64740753D01*
X71332540Y-64704444D01*
X71400000Y-64659369D01*
X71467460Y-64704444D01*
X71650000Y-64740753D01*
X71832540Y-64704444D01*
X71987290Y-64601043D01*
X72090691Y-64446293D01*
X72127000Y-64263753D01*
X72127000Y-63900000D01*
X77016594Y-63900000D01*
X77016594Y-64400000D01*
X77039395Y-64521179D01*
X77111012Y-64632474D01*
X77220286Y-64707138D01*
X77350000Y-64733406D01*
X78250000Y-64733406D01*
X78349557Y-64714673D01*
X78361012Y-64732474D01*
X78470286Y-64807138D01*
X78600000Y-64833406D01*
X79400000Y-64833406D01*
X79521179Y-64810605D01*
X79632474Y-64738988D01*
X79707138Y-64629714D01*
X79733406Y-64500000D01*
X79733406Y-63700000D01*
X79710605Y-63578821D01*
X79638988Y-63467526D01*
X79529714Y-63392862D01*
X79400000Y-63366594D01*
X78600000Y-63366594D01*
X78478821Y-63389395D01*
X78367526Y-63461012D01*
X78292862Y-63570286D01*
X78291892Y-63575077D01*
X78250000Y-63566594D01*
X77350000Y-63566594D01*
X77228821Y-63589395D01*
X77117526Y-63661012D01*
X77042862Y-63770286D01*
X77016594Y-63900000D01*
X72127000Y-63900000D01*
X72127000Y-63786247D01*
X72090691Y-63603707D01*
X71987290Y-63448957D01*
X71832540Y-63345556D01*
X71737099Y-63326572D01*
X71737222Y-63185503D01*
X71657160Y-62991738D01*
X71509042Y-62843361D01*
X71315417Y-62762961D01*
X71233406Y-62762889D01*
X71233406Y-62325000D01*
X71210605Y-62203821D01*
X71138988Y-62092526D01*
X71029714Y-62017862D01*
X70900000Y-61991594D01*
X70100000Y-61991594D01*
X69978821Y-62014395D01*
X69867526Y-62086012D01*
X69842253Y-62123000D01*
X69600005Y-62123000D01*
X69600000Y-62122999D01*
X69379192Y-62166922D01*
X69191999Y-62291999D01*
X69191997Y-62292002D01*
X68991999Y-62491999D01*
X68866922Y-62679192D01*
X68822999Y-62900000D01*
X68823000Y-62900005D01*
X68823000Y-64000000D01*
X68866922Y-64220808D01*
X68950023Y-64345179D01*
X68859344Y-64405770D01*
X68804717Y-64131141D01*
X68029321Y-62970679D01*
X66868859Y-62195283D01*
X65500000Y-61923000D01*
X64131141Y-62195283D01*
X62970679Y-62970679D01*
X62195283Y-64131141D01*
X61923000Y-65500000D01*
X57227000Y-65500000D01*
X57227000Y-64827000D01*
X59000000Y-64827000D01*
X59049410Y-64816994D01*
X59091035Y-64788553D01*
X59118315Y-64746159D01*
X59127000Y-64700000D01*
X59127000Y-62700000D01*
X59116994Y-62650590D01*
X59088553Y-62608965D01*
X59046159Y-62581685D01*
X59000000Y-62573000D01*
X57227000Y-62573000D01*
X57227000Y-59227000D01*
X60600000Y-59227000D01*
X60649410Y-59216994D01*
X60691035Y-59188553D01*
X60718315Y-59146159D01*
X60727000Y-59100000D01*
X60727000Y-58742000D01*
X61661542Y-58742000D01*
X61720286Y-58782138D01*
X61850000Y-58808406D01*
X62391594Y-58808406D01*
X62391594Y-59350000D01*
X62410312Y-59449479D01*
X62401868Y-59452968D01*
X62253491Y-59601086D01*
X62173091Y-59794711D01*
X62172908Y-60004365D01*
X62252970Y-60198130D01*
X62401088Y-60346507D01*
X62473020Y-60376376D01*
X62472908Y-60504367D01*
X62552970Y-60698132D01*
X62701088Y-60846509D01*
X62894713Y-60926909D01*
X63104367Y-60927092D01*
X63298132Y-60847030D01*
X63446509Y-60698912D01*
X63474739Y-60630926D01*
X63628963Y-60631061D01*
X63822728Y-60550999D01*
X63872998Y-60500816D01*
X63872908Y-60604367D01*
X63952970Y-60798132D01*
X64101088Y-60946509D01*
X64294713Y-61026909D01*
X64504367Y-61027092D01*
X64698132Y-60947030D01*
X64846509Y-60798912D01*
X64926909Y-60605287D01*
X64927092Y-60395633D01*
X64847030Y-60201868D01*
X64742000Y-60096654D01*
X64742000Y-59683406D01*
X64975000Y-59683406D01*
X65096179Y-59660605D01*
X65100063Y-59658105D01*
X65225000Y-59683406D01*
X65475000Y-59683406D01*
X65596179Y-59660605D01*
X65600063Y-59658105D01*
X65725000Y-59683406D01*
X65975000Y-59683406D01*
X66096179Y-59660605D01*
X66207474Y-59588988D01*
X66282138Y-59479714D01*
X66308406Y-59350000D01*
X66308406Y-58650000D01*
X66285605Y-58528821D01*
X66213988Y-58417526D01*
X66104714Y-58342862D01*
X65975000Y-58316594D01*
X65725000Y-58316594D01*
X65603821Y-58339395D01*
X65599937Y-58341895D01*
X65475000Y-58316594D01*
X65225000Y-58316594D01*
X65103821Y-58339395D01*
X65099937Y-58341895D01*
X64975000Y-58316594D01*
X64725000Y-58316594D01*
X64603821Y-58339395D01*
X64599937Y-58341895D01*
X64475000Y-58316594D01*
X64225000Y-58316594D01*
X64103821Y-58339395D01*
X64099937Y-58341895D01*
X63975000Y-58316594D01*
X63725000Y-58316594D01*
X63603821Y-58339395D01*
X63599937Y-58341895D01*
X63475000Y-58316594D01*
X63225000Y-58316594D01*
X63103821Y-58339395D01*
X63099937Y-58341895D01*
X62975000Y-58316594D01*
X62883406Y-58316594D01*
X62883406Y-58225000D01*
X62860605Y-58103821D01*
X62858105Y-58099937D01*
X62883406Y-57975000D01*
X62883406Y-57725000D01*
X62860605Y-57603821D01*
X62858105Y-57599937D01*
X62883406Y-57475000D01*
X62883406Y-57225000D01*
X62860605Y-57103821D01*
X62858105Y-57099937D01*
X62883406Y-56975000D01*
X62883406Y-56725000D01*
X62875039Y-56680535D01*
X62902970Y-56748132D01*
X63051088Y-56896509D01*
X63244713Y-56976909D01*
X63454367Y-56977092D01*
X63648132Y-56897030D01*
X63796509Y-56748912D01*
X63876909Y-56555287D01*
X63876977Y-56477395D01*
X64553665Y-55800707D01*
X64568722Y-55778173D01*
X64775848Y-55778354D01*
X64969613Y-55698292D01*
X65117990Y-55550174D01*
X65198390Y-55356549D01*
X65198407Y-55336920D01*
X65294712Y-55376909D01*
X65468567Y-55377061D01*
X63863138Y-56982490D01*
X63749988Y-57004997D01*
X63622814Y-57089972D01*
X63537839Y-57217146D01*
X63525494Y-57279211D01*
X63453491Y-57351088D01*
X63373091Y-57544713D01*
X63372908Y-57754367D01*
X63452970Y-57948132D01*
X63601088Y-58096509D01*
X63794713Y-58176909D01*
X64004367Y-58177092D01*
X64198132Y-58097030D01*
X64346509Y-57948912D01*
X64426909Y-57755287D01*
X64427092Y-57545633D01*
X64421726Y-57532646D01*
X67072860Y-54881512D01*
X67145013Y-54867160D01*
X67272187Y-54782185D01*
X68186935Y-53867437D01*
X68271910Y-53740263D01*
X68301749Y-53590251D01*
X68301749Y-53432350D01*
X68316594Y-53417505D01*
X68316594Y-53475000D01*
X68339395Y-53596179D01*
X68341895Y-53600063D01*
X68316594Y-53725000D01*
X68316594Y-53975000D01*
X68339395Y-54096179D01*
X68341895Y-54100063D01*
X68320266Y-54206868D01*
X68150000Y-54173000D01*
X67929192Y-54216922D01*
X67741999Y-54341999D01*
X67616922Y-54529192D01*
X67573000Y-54750000D01*
X67573000Y-56050000D01*
X67616922Y-56270808D01*
X67741999Y-56458001D01*
X67929192Y-56583078D01*
X68150000Y-56627000D01*
X68338152Y-56589574D01*
X68339395Y-56596179D01*
X68341895Y-56600063D01*
X68316594Y-56725000D01*
X68316594Y-56975000D01*
X68339395Y-57096179D01*
X68341895Y-57100063D01*
X68316594Y-57225000D01*
X68316594Y-57475000D01*
X68339395Y-57596179D01*
X68341895Y-57600063D01*
X68316594Y-57725000D01*
X68316594Y-57975000D01*
X68339395Y-58096179D01*
X68341895Y-58100063D01*
X68316594Y-58225000D01*
X68316594Y-58316594D01*
X68225000Y-58316594D01*
X68103821Y-58339395D01*
X68099937Y-58341895D01*
X67975000Y-58316594D01*
X67725000Y-58316594D01*
X67603821Y-58339395D01*
X67599937Y-58341895D01*
X67475000Y-58316594D01*
X67225000Y-58316594D01*
X67103821Y-58339395D01*
X67099937Y-58341895D01*
X66975000Y-58316594D01*
X66725000Y-58316594D01*
X66603821Y-58339395D01*
X66492526Y-58411012D01*
X66417862Y-58520286D01*
X66391594Y-58650000D01*
X66391594Y-59350000D01*
X66414395Y-59471179D01*
X66486012Y-59582474D01*
X66595286Y-59657138D01*
X66725000Y-59683406D01*
X66975000Y-59683406D01*
X67096179Y-59660605D01*
X67100063Y-59658105D01*
X67225000Y-59683406D01*
X67421576Y-59683406D01*
X67417526Y-59686012D01*
X67342862Y-59795286D01*
X67316594Y-59925000D01*
X67316594Y-60675000D01*
X67339395Y-60796179D01*
X67411012Y-60907474D01*
X67520286Y-60982138D01*
X67650000Y-61008406D01*
X68450000Y-61008406D01*
X68571179Y-60985605D01*
X68682474Y-60913988D01*
X68757138Y-60804714D01*
X68783406Y-60675000D01*
X68783406Y-60093480D01*
X68802000Y-60000000D01*
X68802000Y-59777000D01*
X69800000Y-59777000D01*
X70012999Y-59734631D01*
X70012999Y-60354999D01*
X70042838Y-60505011D01*
X70127813Y-60632185D01*
X70266594Y-60770966D01*
X70266594Y-60950000D01*
X70289395Y-61071179D01*
X70361012Y-61182474D01*
X70470286Y-61257138D01*
X70600000Y-61283406D01*
X72000000Y-61283406D01*
X72121179Y-61260605D01*
X72232474Y-61188988D01*
X72307138Y-61079714D01*
X72333406Y-60950000D01*
X72333406Y-60550000D01*
X72310605Y-60428821D01*
X72238988Y-60317526D01*
X72129714Y-60242862D01*
X72000000Y-60216594D01*
X70820966Y-60216594D01*
X70808739Y-60204367D01*
X76172908Y-60204367D01*
X76252970Y-60398132D01*
X76401088Y-60546509D01*
X76594713Y-60626909D01*
X76804367Y-60627092D01*
X76906594Y-60584853D01*
X76906594Y-61350000D01*
X76929395Y-61471179D01*
X77001012Y-61582474D01*
X77110286Y-61657138D01*
X77240000Y-61683406D01*
X77283516Y-61683406D01*
X77332814Y-61757186D01*
X78252814Y-62677186D01*
X78379988Y-62762161D01*
X78530000Y-62792000D01*
X79819793Y-62792000D01*
X79839395Y-62896179D01*
X79911012Y-63007474D01*
X80020286Y-63082138D01*
X80150000Y-63108406D01*
X80950000Y-63108406D01*
X81071179Y-63085605D01*
X81182474Y-63013988D01*
X81257138Y-62904714D01*
X81283406Y-62775000D01*
X81283406Y-62025000D01*
X81260605Y-61903821D01*
X81188988Y-61792526D01*
X81079714Y-61717862D01*
X80950000Y-61691594D01*
X80150000Y-61691594D01*
X80028821Y-61714395D01*
X79917526Y-61786012D01*
X79842862Y-61895286D01*
X79820037Y-62008000D01*
X78692372Y-62008000D01*
X78237189Y-61552817D01*
X78287138Y-61479714D01*
X78313406Y-61350000D01*
X78313406Y-58950000D01*
X78290605Y-58828821D01*
X78218988Y-58717526D01*
X78109714Y-58642862D01*
X77980000Y-58616594D01*
X77240000Y-58616594D01*
X77118821Y-58639395D01*
X77007526Y-58711012D01*
X76932862Y-58820286D01*
X76906594Y-58950000D01*
X76906594Y-59615157D01*
X76805287Y-59573091D01*
X76595633Y-59572908D01*
X76401868Y-59652970D01*
X76253491Y-59801088D01*
X76173091Y-59994713D01*
X76172908Y-60204367D01*
X70808739Y-60204367D01*
X70796999Y-60192627D01*
X70796999Y-58883406D01*
X72000000Y-58883406D01*
X72121179Y-58860605D01*
X72232474Y-58788988D01*
X72307138Y-58679714D01*
X72333406Y-58550000D01*
X72333406Y-58150000D01*
X72310605Y-58028821D01*
X72238988Y-57917526D01*
X72129714Y-57842862D01*
X72000000Y-57816594D01*
X71192000Y-57816594D01*
X71192000Y-57670000D01*
X71162161Y-57519988D01*
X71077186Y-57392814D01*
X69986372Y-56302000D01*
X70300000Y-56302000D01*
X70472973Y-56267594D01*
X70619612Y-56169612D01*
X71055818Y-55733406D01*
X72075000Y-55733406D01*
X72196179Y-55710605D01*
X72266594Y-55665294D01*
X72266594Y-56650000D01*
X72289395Y-56771179D01*
X72361012Y-56882474D01*
X72470286Y-56957138D01*
X72600000Y-56983406D01*
X72723000Y-56983406D01*
X72723000Y-58218367D01*
X72716594Y-58250000D01*
X72716594Y-58750000D01*
X72739395Y-58871179D01*
X72811012Y-58982474D01*
X72920286Y-59057138D01*
X73050000Y-59083406D01*
X73550000Y-59083406D01*
X73671179Y-59060605D01*
X73782474Y-58988988D01*
X73857138Y-58879714D01*
X73883406Y-58750000D01*
X73883406Y-58250000D01*
X73877000Y-58215954D01*
X73877000Y-55650000D01*
X73865463Y-55592000D01*
X73833406Y-55430840D01*
X73833406Y-54150000D01*
X73810605Y-54028821D01*
X73745084Y-53927000D01*
X74460998Y-53927000D01*
X75166594Y-54632596D01*
X75166594Y-56650000D01*
X75189395Y-56771179D01*
X75261012Y-56882474D01*
X75353675Y-56945788D01*
X75322999Y-57100000D01*
X75323000Y-57100005D01*
X75323000Y-58200000D01*
X75366922Y-58420808D01*
X75491999Y-58608001D01*
X75679192Y-58733078D01*
X75900000Y-58777000D01*
X76120808Y-58733078D01*
X76308001Y-58608001D01*
X76433078Y-58420808D01*
X76477000Y-58200000D01*
X76477000Y-57279904D01*
X76483078Y-57270808D01*
X76486225Y-57254988D01*
X76527001Y-57050000D01*
X76527000Y-57049995D01*
X76527000Y-56956859D01*
X76632474Y-56888988D01*
X76707138Y-56779714D01*
X76717827Y-56726929D01*
X76904367Y-56727092D01*
X76906594Y-56726172D01*
X76906594Y-57450000D01*
X76929395Y-57571179D01*
X77001012Y-57682474D01*
X77110286Y-57757138D01*
X77240000Y-57783406D01*
X77980000Y-57783406D01*
X78101179Y-57760605D01*
X78212474Y-57688988D01*
X78244779Y-57641708D01*
X78271012Y-57682474D01*
X78380286Y-57757138D01*
X78510000Y-57783406D01*
X79250000Y-57783406D01*
X79371179Y-57760605D01*
X79482474Y-57688988D01*
X79514779Y-57641708D01*
X79541012Y-57682474D01*
X79650286Y-57757138D01*
X79780000Y-57783406D01*
X80520000Y-57783406D01*
X80641179Y-57760605D01*
X80752474Y-57688988D01*
X80784779Y-57641708D01*
X80811012Y-57682474D01*
X80920286Y-57757138D01*
X81050000Y-57783406D01*
X81698919Y-57783406D01*
X81687839Y-57799988D01*
X81658000Y-57950000D01*
X81658000Y-58616594D01*
X81050000Y-58616594D01*
X80928821Y-58639395D01*
X80817526Y-58711012D01*
X80742862Y-58820286D01*
X80716594Y-58950000D01*
X80716594Y-61350000D01*
X80739395Y-61471179D01*
X80811012Y-61582474D01*
X80920286Y-61657138D01*
X81050000Y-61683406D01*
X81658000Y-61683406D01*
X81658000Y-61691594D01*
X81650000Y-61691594D01*
X81528821Y-61714395D01*
X81417526Y-61786012D01*
X81342862Y-61895286D01*
X81316594Y-62025000D01*
X81316594Y-62775000D01*
X81339395Y-62896179D01*
X81411012Y-63007474D01*
X81520286Y-63082138D01*
X81650000Y-63108406D01*
X82450000Y-63108406D01*
X82571179Y-63085605D01*
X82626510Y-63050000D01*
X83116594Y-63050000D01*
X83116594Y-63950000D01*
X83139395Y-64071179D01*
X83211012Y-64182474D01*
X83320286Y-64257138D01*
X83450000Y-64283406D01*
X85150000Y-64283406D01*
X85271179Y-64260605D01*
X85382474Y-64188988D01*
X85457138Y-64079714D01*
X85467818Y-64026973D01*
X85604367Y-64027092D01*
X85798132Y-63947030D01*
X85946509Y-63798912D01*
X86026909Y-63605287D01*
X86027092Y-63395633D01*
X85947030Y-63201868D01*
X85798912Y-63053491D01*
X85605287Y-62973091D01*
X85468912Y-62972972D01*
X85460605Y-62928821D01*
X85388988Y-62817526D01*
X85279714Y-62742862D01*
X85150000Y-62716594D01*
X83450000Y-62716594D01*
X83328821Y-62739395D01*
X83217526Y-62811012D01*
X83142862Y-62920286D01*
X83116594Y-63050000D01*
X82626510Y-63050000D01*
X82682474Y-63013988D01*
X82757138Y-62904714D01*
X82783406Y-62775000D01*
X82783406Y-62025000D01*
X82760605Y-61903821D01*
X82688988Y-61792526D01*
X82579714Y-61717862D01*
X82450000Y-61691594D01*
X82442000Y-61691594D01*
X82442000Y-58112372D01*
X82770966Y-57783406D01*
X83060000Y-57783406D01*
X83181179Y-57760605D01*
X83292474Y-57688988D01*
X83367138Y-57579714D01*
X83393406Y-57450000D01*
X83393406Y-57160966D01*
X83927347Y-56627025D01*
X84004367Y-56627092D01*
X84198132Y-56547030D01*
X84346509Y-56398912D01*
X84426909Y-56205287D01*
X84427092Y-55995633D01*
X84347030Y-55801868D01*
X84198912Y-55653491D01*
X84005287Y-55573091D01*
X83795633Y-55572908D01*
X83601868Y-55652970D01*
X83546742Y-55708000D01*
X83393406Y-55708000D01*
X83393406Y-55050000D01*
X83370605Y-54928821D01*
X83298988Y-54817526D01*
X83189714Y-54742862D01*
X83060000Y-54716594D01*
X82320000Y-54716594D01*
X82198821Y-54739395D01*
X82087526Y-54811012D01*
X82055221Y-54858292D01*
X82028988Y-54817526D01*
X81919714Y-54742862D01*
X81790000Y-54716594D01*
X81050000Y-54716594D01*
X80928821Y-54739395D01*
X80817526Y-54811012D01*
X80785221Y-54858292D01*
X80758988Y-54817526D01*
X80649714Y-54742862D01*
X80520000Y-54716594D01*
X79780000Y-54716594D01*
X79658821Y-54739395D01*
X79547526Y-54811012D01*
X79515221Y-54858292D01*
X79488988Y-54817526D01*
X79404324Y-54759677D01*
X79426909Y-54705287D01*
X79427092Y-54495633D01*
X79347030Y-54301868D01*
X79198912Y-54153491D01*
X79005287Y-54073091D01*
X78795633Y-54072908D01*
X78601868Y-54152970D01*
X78453491Y-54301088D01*
X78373091Y-54494713D01*
X78372908Y-54704367D01*
X78387684Y-54740127D01*
X78277526Y-54811012D01*
X78245221Y-54858292D01*
X78218988Y-54817526D01*
X78109714Y-54742862D01*
X77980000Y-54716594D01*
X77240000Y-54716594D01*
X77118821Y-54739395D01*
X77007526Y-54811012D01*
X76932862Y-54920286D01*
X76906594Y-55050000D01*
X76906594Y-55673634D01*
X76905287Y-55673091D01*
X76733406Y-55672941D01*
X76733406Y-54150000D01*
X76710605Y-54028821D01*
X76638988Y-53917526D01*
X76529714Y-53842862D01*
X76400000Y-53816594D01*
X75982596Y-53816594D01*
X75654465Y-53488463D01*
X75733078Y-53370808D01*
X75737217Y-53350000D01*
X75777001Y-53150000D01*
X75777000Y-53149995D01*
X75777000Y-52968918D01*
X75821179Y-52960605D01*
X75932474Y-52888988D01*
X76007138Y-52779714D01*
X76033406Y-52650000D01*
X76033406Y-50510348D01*
X78422554Y-50510348D01*
X78814052Y-51457846D01*
X79538341Y-52183400D01*
X80485154Y-52576551D01*
X81510348Y-52577446D01*
X82457846Y-52185948D01*
X83183400Y-51461659D01*
X83576551Y-50514846D01*
X83577446Y-49489652D01*
X83185948Y-48542154D01*
X82461659Y-47816600D01*
X81514846Y-47423449D01*
X80489652Y-47422554D01*
X79542154Y-47814052D01*
X78816600Y-48538341D01*
X78423449Y-49485154D01*
X78422554Y-50510348D01*
X76033406Y-50510348D01*
X76033406Y-50150000D01*
X76010605Y-50028821D01*
X75938988Y-49917526D01*
X75829714Y-49842862D01*
X75700000Y-49816594D01*
X74700000Y-49816594D01*
X74578821Y-49839395D01*
X74467526Y-49911012D01*
X74392862Y-50020286D01*
X74366594Y-50150000D01*
X74366594Y-52650000D01*
X74389395Y-52771179D01*
X74390567Y-52773000D01*
X70100000Y-52773000D01*
X70092000Y-52774591D01*
X70092000Y-51100000D01*
X70062161Y-50949988D01*
X69977186Y-50822814D01*
X69850012Y-50737839D01*
X69700000Y-50708000D01*
X65553326Y-50708000D01*
X65498912Y-50653491D01*
X65305287Y-50573091D01*
X65095633Y-50572908D01*
X64901868Y-50652970D01*
X64753491Y-50801088D01*
X64673091Y-50994713D01*
X64672908Y-51204367D01*
X64752970Y-51398132D01*
X64901088Y-51546509D01*
X65017589Y-51594884D01*
X64992526Y-51611012D01*
X64917862Y-51720286D01*
X64891594Y-51850000D01*
X64891594Y-52550000D01*
X64893099Y-52558000D01*
X64806786Y-52558000D01*
X64808406Y-52550000D01*
X64808406Y-51850000D01*
X64785605Y-51728821D01*
X64713988Y-51617526D01*
X64604714Y-51542862D01*
X64475000Y-51516594D01*
X64225000Y-51516594D01*
X64103821Y-51539395D01*
X64099937Y-51541895D01*
X63975000Y-51516594D01*
X63725000Y-51516594D01*
X63603821Y-51539395D01*
X63599937Y-51541895D01*
X63475000Y-51516594D01*
X63225000Y-51516594D01*
X63103821Y-51539395D01*
X63099937Y-51541895D01*
X62975000Y-51516594D01*
X62725000Y-51516594D01*
X62603821Y-51539395D01*
X62492526Y-51611012D01*
X62417862Y-51720286D01*
X62391594Y-51850000D01*
X62391594Y-51889621D01*
X62350012Y-51861837D01*
X62200000Y-51831998D01*
X61062372Y-51831998D01*
X60727000Y-51496626D01*
X60727000Y-50605304D01*
X60739395Y-50671179D01*
X60811012Y-50782474D01*
X60920286Y-50857138D01*
X61050000Y-50883406D01*
X61550000Y-50883406D01*
X61671179Y-50860605D01*
X61782474Y-50788988D01*
X61857138Y-50679714D01*
X61883406Y-50550000D01*
X61883406Y-50050000D01*
X62916594Y-50050000D01*
X62916594Y-50550000D01*
X62939395Y-50671179D01*
X63011012Y-50782474D01*
X63120286Y-50857138D01*
X63250000Y-50883406D01*
X63750000Y-50883406D01*
X63871179Y-50860605D01*
X63982474Y-50788988D01*
X64057138Y-50679714D01*
X64083406Y-50550000D01*
X64083406Y-50050000D01*
X64060605Y-49928821D01*
X63988988Y-49817526D01*
X63879714Y-49742862D01*
X63750000Y-49716594D01*
X63250000Y-49716594D01*
X63128821Y-49739395D01*
X63017526Y-49811012D01*
X62942862Y-49920286D01*
X62916594Y-50050000D01*
X61883406Y-50050000D01*
X61860605Y-49928821D01*
X61808947Y-49848543D01*
X61826909Y-49805287D01*
X61827092Y-49595633D01*
X61747030Y-49401868D01*
X61598912Y-49253491D01*
X61405287Y-49173091D01*
X61195633Y-49172908D01*
X61001868Y-49252970D01*
X60853491Y-49401088D01*
X60773091Y-49594713D01*
X60772908Y-49804367D01*
X60791433Y-49849201D01*
X60742862Y-49920286D01*
X60716594Y-50050000D01*
X60716594Y-50150005D01*
X60688553Y-50108965D01*
X60646159Y-50081685D01*
X60600000Y-50073000D01*
X56527000Y-50073000D01*
X56527000Y-48008498D01*
X56650000Y-48033406D01*
X57917404Y-48033406D01*
X58116594Y-48232596D01*
X58116594Y-48875000D01*
X58139395Y-48996179D01*
X58211012Y-49107474D01*
X58320286Y-49182138D01*
X58450000Y-49208406D01*
X59250000Y-49208406D01*
X59371179Y-49185605D01*
X59482474Y-49113988D01*
X59557138Y-49004714D01*
X59583406Y-48875000D01*
X59583406Y-48125000D01*
X59560605Y-48003821D01*
X59488988Y-47892526D01*
X59438017Y-47857699D01*
X59457138Y-47829714D01*
X59483406Y-47700000D01*
X59483406Y-47027000D01*
X60226314Y-47027000D01*
X60216594Y-47075000D01*
X60216594Y-47142404D01*
X59941999Y-47416999D01*
X59816922Y-47604192D01*
X59772999Y-47825000D01*
X59773000Y-47825005D01*
X59773000Y-47850315D01*
X59717526Y-47886012D01*
X59642862Y-47995286D01*
X59616594Y-48125000D01*
X59616594Y-48875000D01*
X59639395Y-48996179D01*
X59711012Y-49107474D01*
X59820286Y-49182138D01*
X59950000Y-49208406D01*
X60750000Y-49208406D01*
X60871179Y-49185605D01*
X60982474Y-49113988D01*
X61057138Y-49004714D01*
X61083406Y-48875000D01*
X61083406Y-48125000D01*
X61060605Y-48003821D01*
X61031857Y-47959145D01*
X61232595Y-47758406D01*
X61300000Y-47758406D01*
X61421179Y-47735605D01*
X61532474Y-47663988D01*
X61607138Y-47554714D01*
X61633406Y-47425000D01*
X61633406Y-47075000D01*
X61610605Y-46953821D01*
X61542941Y-46848669D01*
X61607138Y-46754714D01*
X61633406Y-46625000D01*
X61633406Y-46275000D01*
X61610605Y-46153821D01*
X61542941Y-46048669D01*
X61607138Y-45954714D01*
X61633406Y-45825000D01*
X61633406Y-45475000D01*
X61610605Y-45353821D01*
X61538988Y-45242526D01*
X61429714Y-45167862D01*
X61300000Y-45141594D01*
X61182733Y-45141594D01*
X61145808Y-45116922D01*
X60925000Y-45073000D01*
X60704192Y-45116922D01*
X60667267Y-45141594D01*
X60550000Y-45141594D01*
X60428821Y-45164395D01*
X60317526Y-45236012D01*
X60242862Y-45345286D01*
X60216594Y-45475000D01*
X60216594Y-45825000D01*
X60225626Y-45873000D01*
X58650000Y-45873000D01*
X58429192Y-45916922D01*
X58241999Y-46041999D01*
X58241997Y-46042002D01*
X57917405Y-46366594D01*
X57882595Y-46366594D01*
X56527000Y-45010998D01*
X56527000Y-44675000D01*
X64216594Y-44675000D01*
X64216594Y-45025000D01*
X64239395Y-45146179D01*
X64307059Y-45251331D01*
X64242862Y-45345286D01*
X64216594Y-45475000D01*
X64216594Y-45825000D01*
X64239395Y-45946179D01*
X64307059Y-46051331D01*
X64242862Y-46145286D01*
X64216594Y-46275000D01*
X64216594Y-46625000D01*
X64239395Y-46746179D01*
X64307059Y-46851331D01*
X64242862Y-46945286D01*
X64216594Y-47075000D01*
X64216594Y-47425000D01*
X64239395Y-47546179D01*
X64311012Y-47657474D01*
X64420286Y-47732138D01*
X64550000Y-47758406D01*
X64598516Y-47758406D01*
X64647814Y-47832186D01*
X64892814Y-48077186D01*
X65019988Y-48162161D01*
X65170000Y-48192000D01*
X68319793Y-48192000D01*
X68339395Y-48296179D01*
X68398170Y-48387517D01*
X68392862Y-48395286D01*
X68366594Y-48525000D01*
X68366594Y-49275000D01*
X68389395Y-49396179D01*
X68461012Y-49507474D01*
X68570286Y-49582138D01*
X68700000Y-49608406D01*
X69500000Y-49608406D01*
X69621179Y-49585605D01*
X69732474Y-49513988D01*
X69807138Y-49404714D01*
X69833406Y-49275000D01*
X69833406Y-48525000D01*
X69810605Y-48403821D01*
X69751830Y-48312483D01*
X69757138Y-48304714D01*
X69783406Y-48175000D01*
X69783406Y-47425000D01*
X69816594Y-47425000D01*
X69816594Y-48175000D01*
X69839395Y-48296179D01*
X69911012Y-48407474D01*
X70020286Y-48482138D01*
X70150000Y-48508406D01*
X70950000Y-48508406D01*
X71071179Y-48485605D01*
X71182474Y-48413988D01*
X71257138Y-48304714D01*
X71283406Y-48175000D01*
X71283406Y-47425000D01*
X71260605Y-47303821D01*
X71188988Y-47192526D01*
X71127000Y-47150171D01*
X71127000Y-46883406D01*
X71700000Y-46883406D01*
X71821179Y-46860605D01*
X71891594Y-46815294D01*
X71891594Y-47200000D01*
X71914395Y-47321179D01*
X71986012Y-47432474D01*
X72095286Y-47507138D01*
X72225000Y-47533406D01*
X72975000Y-47533406D01*
X73096179Y-47510605D01*
X73207474Y-47438988D01*
X73249829Y-47377000D01*
X73260998Y-47377000D01*
X74366594Y-48482596D01*
X74366594Y-49300000D01*
X74389395Y-49421179D01*
X74461012Y-49532474D01*
X74570286Y-49607138D01*
X74700000Y-49633406D01*
X75700000Y-49633406D01*
X75821179Y-49610605D01*
X75932474Y-49538988D01*
X76007138Y-49429714D01*
X76033406Y-49300000D01*
X76033406Y-47700000D01*
X76010605Y-47578821D01*
X75938988Y-47467526D01*
X75829714Y-47392862D01*
X75700000Y-47366594D01*
X74882596Y-47366594D01*
X73908001Y-46391999D01*
X73720808Y-46266922D01*
X73500000Y-46222999D01*
X73499995Y-46223000D01*
X73249685Y-46223000D01*
X73213988Y-46167526D01*
X73104714Y-46092862D01*
X72975000Y-46066594D01*
X72225000Y-46066594D01*
X72103821Y-46089395D01*
X72033406Y-46134706D01*
X72033406Y-45964857D01*
X72095286Y-46007138D01*
X72225000Y-46033406D01*
X72975000Y-46033406D01*
X73096179Y-46010605D01*
X73207474Y-45938988D01*
X73282138Y-45829714D01*
X73308406Y-45700000D01*
X73308406Y-44900000D01*
X73285605Y-44778821D01*
X73213988Y-44667526D01*
X73104714Y-44592862D01*
X72975000Y-44566594D01*
X72225000Y-44566594D01*
X72103821Y-44589395D01*
X72033406Y-44634706D01*
X72033406Y-44050000D01*
X72010605Y-43928821D01*
X71938988Y-43817526D01*
X71829714Y-43742862D01*
X71700000Y-43716594D01*
X70800000Y-43716594D01*
X70678821Y-43739395D01*
X70567526Y-43811012D01*
X70492862Y-43920286D01*
X70466594Y-44050000D01*
X70466594Y-45267404D01*
X70141999Y-45591999D01*
X70016922Y-45779192D01*
X69972999Y-46000000D01*
X69973000Y-46000005D01*
X69973000Y-47150315D01*
X69917526Y-47186012D01*
X69842862Y-47295286D01*
X69816594Y-47425000D01*
X69783406Y-47425000D01*
X69760605Y-47303821D01*
X69688988Y-47192526D01*
X69579714Y-47117862D01*
X69450000Y-47091594D01*
X68650000Y-47091594D01*
X68528821Y-47114395D01*
X68417526Y-47186012D01*
X68342862Y-47295286D01*
X68320037Y-47408000D01*
X67608406Y-47408000D01*
X67608406Y-46750000D01*
X67595302Y-46680359D01*
X67661012Y-46782474D01*
X67770286Y-46857138D01*
X67900000Y-46883406D01*
X68800000Y-46883406D01*
X68921179Y-46860605D01*
X69032474Y-46788988D01*
X69107138Y-46679714D01*
X69133406Y-46550000D01*
X69133406Y-44050000D01*
X69110605Y-43928821D01*
X69038988Y-43817526D01*
X68929714Y-43742862D01*
X68800000Y-43716594D01*
X67900000Y-43716594D01*
X67778821Y-43739395D01*
X67667526Y-43811012D01*
X67610195Y-43894919D01*
X67556977Y-43884333D01*
X67513988Y-43817526D01*
X67404714Y-43742862D01*
X67275000Y-43716594D01*
X66525000Y-43716594D01*
X66403821Y-43739395D01*
X66292526Y-43811012D01*
X66217862Y-43920286D01*
X66191594Y-44050000D01*
X66191594Y-44273000D01*
X64925000Y-44273000D01*
X64704192Y-44316922D01*
X64667267Y-44341594D01*
X64550000Y-44341594D01*
X64428821Y-44364395D01*
X64317526Y-44436012D01*
X64242862Y-44545286D01*
X64216594Y-44675000D01*
X56527000Y-44675000D01*
X56527000Y-43377000D01*
X76962869Y-43377000D01*
X81062420Y-44192451D01*
M02*
