G04 #@! TF.FileFunction,Copper,L2,Bot,Signal*
%FSLAX46Y46*%
G04 Gerber Fmt 4.6, Leading zero omitted, Abs format (unit mm)*
G04 Created by KiCad (PCBNEW 4.0.6) date 05/29/18 23:17:07*
%MOMM*%
%LPD*%
G01*
G04 APERTURE LIST*
%ADD10C,0.100000*%
%ADD11C,4.500000*%
%ADD12R,1.700000X1.700000*%
%ADD13O,1.700000X1.700000*%
%ADD14R,2.150000X2.200000*%
%ADD15C,0.400000*%
%ADD16C,0.130000*%
%ADD17C,0.250000*%
%ADD18C,0.500000*%
%ADD19C,0.254000*%
G04 APERTURE END LIST*
D10*
D11*
X50000000Y-81000000D03*
X81000000Y-81000000D03*
X81000000Y-50000000D03*
D12*
X73200000Y-85900000D03*
D13*
X70660000Y-85900000D03*
D12*
X56600000Y-85900000D03*
X59200000Y-85900000D03*
X62500000Y-85900000D03*
X65040000Y-85900000D03*
X67580000Y-85900000D03*
D14*
X52958935Y-72400000D03*
X52958935Y-70200000D03*
X55108935Y-72400000D03*
X55108935Y-70200000D03*
X52945000Y-66800000D03*
X52945000Y-64600000D03*
X55095000Y-66800000D03*
X55095000Y-64600000D03*
X52958935Y-61195000D03*
X52958935Y-58995000D03*
X55108935Y-61195000D03*
X55108935Y-58995000D03*
D11*
X50000000Y-50000000D03*
D15*
X76300000Y-75899974D03*
X76000000Y-80400012D03*
X69600000Y-62700000D03*
X76700000Y-60100000D03*
X85500000Y-63500000D03*
X85700000Y-70300000D03*
X75900000Y-58200000D03*
X75900000Y-57600000D03*
X75900000Y-57100000D03*
X69800000Y-59200000D03*
X69300000Y-59200000D03*
X68800000Y-59200000D03*
X62300000Y-47400000D03*
X63550000Y-47400000D03*
X63550000Y-46500000D03*
X62300000Y-46500000D03*
X62300000Y-45600000D03*
X63550000Y-45600000D03*
X63550000Y-44700000D03*
X62300000Y-44700000D03*
X70550000Y-46000000D03*
X70550000Y-46600000D03*
X70550000Y-47100000D03*
X68150000Y-54750000D03*
X68150000Y-55350000D03*
X68150000Y-56050000D03*
X59600000Y-55800000D03*
X59600000Y-54100000D03*
X59550000Y-52100000D03*
X83900000Y-56100000D03*
X69950000Y-55100000D03*
X63000000Y-60400000D03*
X78900000Y-54600000D03*
X62700000Y-59899998D03*
X76800000Y-56200000D03*
X63250000Y-55500000D03*
X72750000Y-68150000D03*
X74308093Y-65258636D03*
X63965825Y-54817677D03*
X71210130Y-63289870D03*
X63350000Y-56450000D03*
X74650000Y-66650000D03*
X64671481Y-55251262D03*
X57799994Y-57400000D03*
X53600000Y-57530002D03*
X71536701Y-76895010D03*
X63900000Y-57650000D03*
X63524596Y-60103969D03*
X71366430Y-77396927D03*
X64400000Y-60500000D03*
X73000000Y-77150000D03*
X66167665Y-54009035D03*
X82900000Y-66400000D03*
X65399999Y-54850000D03*
X82200000Y-73350000D03*
X64200000Y-52950000D03*
X76600000Y-72550000D03*
X65200000Y-51100000D03*
X77800000Y-66200000D03*
D16*
X76300000Y-75900000D02*
X76300000Y-75899974D01*
D17*
X76000000Y-80400000D02*
X76000000Y-80400012D01*
D18*
X71400000Y-64300000D02*
X69800000Y-62700000D01*
X69800000Y-62700000D02*
X69600000Y-62700000D01*
X71400000Y-68700000D02*
X71400000Y-64300000D01*
X76700000Y-74000000D02*
X71400000Y-68700000D01*
X76700000Y-75500000D02*
X76700000Y-74000000D01*
D16*
X76700000Y-59817158D02*
X76700000Y-60100000D01*
X76700000Y-58300000D02*
X76700000Y-59817158D01*
X76800000Y-58200000D02*
X76700000Y-58300000D01*
D18*
X76182842Y-58200000D02*
X76800000Y-58200000D01*
X76800000Y-58200000D02*
X86100000Y-58200000D01*
X86500000Y-58600000D02*
X86500000Y-63600000D01*
X86500000Y-63600000D02*
X86500000Y-70300000D01*
D16*
X85500000Y-63500000D02*
X85782842Y-63500000D01*
X85782842Y-63500000D02*
X85882842Y-63600000D01*
X85882842Y-63600000D02*
X86500000Y-63600000D01*
D18*
X86500000Y-70300000D02*
X86500000Y-71300000D01*
D16*
X85700000Y-70300000D02*
X86500000Y-70300000D01*
D18*
X76700000Y-75500000D02*
X76300000Y-75900000D01*
X76300000Y-75900000D02*
X76000000Y-76200000D01*
X76000000Y-76200000D02*
X76000000Y-80400000D01*
X82300000Y-75500000D02*
X76700000Y-75500000D01*
X86500000Y-71300000D02*
X82300000Y-75500000D01*
X86100000Y-58200000D02*
X86500000Y-58600000D01*
X75900000Y-58200000D02*
X76182842Y-58200000D01*
X69300000Y-59200000D02*
X68800000Y-59200000D01*
X69800000Y-59200000D02*
X69300000Y-59200000D01*
X70800000Y-58200000D02*
X69800000Y-59200000D01*
X75900000Y-58200000D02*
X70800000Y-58200000D01*
X75900000Y-57600000D02*
X75900000Y-58200000D01*
X75900000Y-57100000D02*
X75900000Y-57600000D01*
X68150000Y-56050000D02*
X68150000Y-49950000D01*
X68150000Y-49950000D02*
X68300000Y-49800000D01*
X68300000Y-49800000D02*
X68300000Y-49350000D01*
X68300000Y-49350000D02*
X70550000Y-47100000D01*
X70550000Y-46600000D02*
X70550000Y-46000000D01*
X70550000Y-47100000D02*
X70550000Y-46600000D01*
X68150000Y-55350000D02*
X68150000Y-56050000D01*
X68150000Y-54750000D02*
X68150000Y-55350000D01*
D16*
X60400000Y-51000000D02*
X57470000Y-51000000D01*
X57470000Y-51000000D02*
X50839989Y-57630011D01*
X60600000Y-51200000D02*
X60400000Y-51000000D01*
X60600000Y-54295000D02*
X60600000Y-51200000D01*
X59600000Y-55800000D02*
X59600000Y-55295000D01*
X59600000Y-55295000D02*
X60600000Y-54295000D01*
X50839989Y-62837700D02*
X50839989Y-57630011D01*
X50850000Y-62847711D02*
X50839989Y-62837700D01*
X52958935Y-70175000D02*
X50850000Y-68066065D01*
X52958935Y-70200000D02*
X52958935Y-70175000D01*
X50850000Y-68066065D02*
X50850000Y-62847711D01*
X60200000Y-53500000D02*
X59600000Y-54100000D01*
X60200000Y-51260011D02*
X60200000Y-53500000D01*
X57639989Y-51260011D02*
X60200000Y-51260011D01*
X51100000Y-57800000D02*
X57639989Y-51260011D01*
X51100000Y-62730000D02*
X51100000Y-57800000D01*
X52945000Y-64575000D02*
X51100000Y-62730000D01*
X52945000Y-64600000D02*
X52945000Y-64575000D01*
X59550000Y-52100000D02*
X59020000Y-52100000D01*
X59020000Y-52100000D02*
X57909989Y-53210011D01*
X57909989Y-53210011D02*
X56057699Y-53210011D01*
X55108935Y-58970000D02*
X55108935Y-58995000D01*
X52958935Y-58995000D02*
X52958935Y-56308775D01*
X52958935Y-56308775D02*
X56057699Y-53210011D01*
X69950000Y-55100000D02*
X82900000Y-55100000D01*
X82900000Y-55100000D02*
X83900000Y-56100000D01*
X62200000Y-60100000D02*
X62500000Y-60400000D01*
X68500000Y-56900000D02*
X68300000Y-56900000D01*
X62717158Y-60400000D02*
X63000000Y-60400000D01*
X62200000Y-53500000D02*
X62200000Y-60100000D01*
X63800000Y-51900000D02*
X62200000Y-53500000D01*
X65855013Y-50802698D02*
X65497302Y-50444987D01*
X67500000Y-53600000D02*
X65855013Y-51955013D01*
X78900000Y-54600000D02*
X69600000Y-54600000D01*
X67500000Y-56100000D02*
X67500000Y-53600000D01*
X68900000Y-56500000D02*
X68500000Y-56900000D01*
X63800000Y-51547685D02*
X63800000Y-51900000D01*
X64902698Y-50444987D02*
X63800000Y-51547685D01*
X68900000Y-55300000D02*
X68900000Y-56500000D01*
X69600000Y-54600000D02*
X68900000Y-55300000D01*
X62500000Y-60400000D02*
X62717158Y-60400000D01*
X68300000Y-56900000D02*
X67500000Y-56100000D01*
X65855013Y-51955013D02*
X65855013Y-50802698D01*
X65497302Y-50444987D02*
X64902698Y-50444987D01*
X62700000Y-53600000D02*
X62700000Y-59617156D01*
X64100000Y-51615396D02*
X64100000Y-52200000D01*
X65010398Y-50704998D02*
X64100000Y-51615396D01*
X67692300Y-57160011D02*
X67200000Y-56667711D01*
X65595002Y-50910398D02*
X65389602Y-50704998D01*
X64100000Y-52200000D02*
X62700000Y-53600000D01*
X68607700Y-57160011D02*
X67692300Y-57160011D01*
X69567710Y-56200000D02*
X68607700Y-57160011D01*
X65389602Y-50704998D02*
X65010398Y-50704998D01*
X62700000Y-59617156D02*
X62700000Y-59899998D01*
X67200000Y-53900000D02*
X65595002Y-52295002D01*
X65595002Y-52295002D02*
X65595002Y-50910398D01*
X67200000Y-56667711D02*
X67200000Y-53900000D01*
X76800000Y-56200000D02*
X69567710Y-56200000D01*
X64599946Y-56849946D02*
X63449999Y-55699999D01*
X64599946Y-59732234D02*
X64599946Y-56849946D01*
X66819967Y-60219967D02*
X65087679Y-60219967D01*
X67839989Y-61239989D02*
X66819967Y-60219967D01*
X72750000Y-64245138D02*
X69804914Y-61300052D01*
X69567763Y-61300052D02*
X69507700Y-61239989D01*
X69804914Y-61300052D02*
X69567763Y-61300052D01*
X63449999Y-55699999D02*
X63250000Y-55500000D01*
X72750000Y-68150000D02*
X72750000Y-64245138D01*
X69507700Y-61239989D02*
X67839989Y-61239989D01*
X65087679Y-60219967D02*
X64599946Y-59732234D01*
X69615400Y-60979978D02*
X67947688Y-60979978D01*
X74308093Y-65258636D02*
X70089498Y-61040041D01*
X70089498Y-61040041D02*
X69675463Y-61040041D01*
X66927666Y-59959956D02*
X65221403Y-59959956D01*
X65221403Y-59959956D02*
X64909957Y-59648510D01*
X67947688Y-60979978D02*
X66927666Y-59959956D01*
X69675463Y-61040041D02*
X69615400Y-60979978D01*
X64909957Y-59648510D02*
X64859957Y-59598510D01*
X63965825Y-55100519D02*
X63965825Y-54817677D01*
X64859957Y-56024340D02*
X63965825Y-55130208D01*
X64859957Y-59598510D02*
X64859957Y-56024340D01*
X63965825Y-55130208D02*
X63965825Y-55100519D01*
X64909956Y-59648511D02*
X64909957Y-59648510D01*
X66683108Y-60479978D02*
X67703130Y-61500000D01*
X64310011Y-57410011D02*
X64310011Y-59810008D01*
X64979981Y-60479978D02*
X66683108Y-60479978D01*
X71010131Y-63089871D02*
X71210130Y-63289870D01*
X67703130Y-61500000D02*
X69400000Y-61500000D01*
X63350000Y-56450000D02*
X64310011Y-57410011D01*
X64310011Y-59810008D02*
X64979981Y-60479978D01*
X69400000Y-61500000D02*
X70989871Y-63089871D01*
X70989871Y-63089871D02*
X71010131Y-63089871D01*
X71180033Y-60780033D02*
X69783163Y-60780030D01*
X65322279Y-59693121D02*
X65169968Y-59540810D01*
X74849999Y-66450001D02*
X74849999Y-64449999D01*
X69723100Y-60719967D02*
X68055387Y-60719967D01*
X67028541Y-59693121D02*
X65322279Y-59693121D01*
X68055387Y-60719967D02*
X67028541Y-59693121D01*
X69783163Y-60780030D02*
X69723100Y-60719967D01*
X74849999Y-64449999D02*
X71180033Y-60780033D01*
X74650000Y-66650000D02*
X74849999Y-66450001D01*
X64871480Y-55451261D02*
X64671481Y-55251262D01*
X65119968Y-59490810D02*
X65119968Y-55699749D01*
X65119968Y-55699749D02*
X64871480Y-55451261D01*
X65169968Y-59540810D02*
X65119968Y-59490810D01*
X65169967Y-59540811D02*
X65169968Y-59540810D01*
X57669992Y-57530002D02*
X57799994Y-57400000D01*
X53600000Y-57530002D02*
X57669992Y-57530002D01*
X70100000Y-75458309D02*
X70100000Y-64197051D01*
X64050000Y-60065398D02*
X64050000Y-58082842D01*
X66467710Y-61000000D02*
X64315398Y-61000000D01*
X63904999Y-60210399D02*
X64050000Y-60065398D01*
X67547798Y-62080088D02*
X66467710Y-61000000D01*
X64315398Y-61000000D02*
X63904999Y-60589601D01*
X71536701Y-76895010D02*
X70100000Y-75458309D01*
X63900000Y-57932842D02*
X63900000Y-57650000D01*
X63904999Y-60589601D02*
X63904999Y-60210399D01*
X64050000Y-58082842D02*
X63900000Y-57932842D01*
X70100000Y-64197051D02*
X67983037Y-62080088D01*
X67983037Y-62080088D02*
X67547798Y-62080088D01*
X71366430Y-77396927D02*
X69800000Y-75830497D01*
X69800000Y-75830497D02*
X69800000Y-64400000D01*
X69800000Y-64400000D02*
X67740099Y-62340099D01*
X67740099Y-62340099D02*
X67440099Y-62340099D01*
X67440099Y-62340099D02*
X66400000Y-61300000D01*
X63524596Y-60576909D02*
X63524596Y-60386811D01*
X66400000Y-61300000D02*
X64247687Y-61300000D01*
X64247687Y-61300000D02*
X63524596Y-60576909D01*
X63524596Y-60386811D02*
X63524596Y-60103969D01*
X73000000Y-77150000D02*
X70439990Y-74589990D01*
X64639989Y-60739989D02*
X64599999Y-60699999D01*
X70439990Y-64169330D02*
X68070660Y-61800000D01*
X68070660Y-61800000D02*
X67635420Y-61800000D01*
X64599999Y-60699999D02*
X64400000Y-60500000D01*
X66575409Y-60739989D02*
X64639989Y-60739989D01*
X70439990Y-74589990D02*
X70439990Y-64169330D01*
X67635420Y-61800000D02*
X66575409Y-60739989D01*
X66367664Y-57467664D02*
X66367664Y-54209034D01*
X68579923Y-59679923D02*
X66367664Y-57467664D01*
X70173977Y-59700000D02*
X70153900Y-59679923D01*
X73367710Y-59700000D02*
X70173977Y-59700000D01*
X82900000Y-66400000D02*
X80067710Y-66400000D01*
X70153900Y-59679923D02*
X68579923Y-59679923D01*
X66367664Y-54209034D02*
X66167665Y-54009035D01*
X80067710Y-66400000D02*
X73367710Y-59700000D01*
X65399999Y-54850000D02*
X65689989Y-55139990D01*
X69938500Y-60199945D02*
X69998565Y-60260010D01*
X75660011Y-66810011D02*
X82000001Y-73150001D01*
X68270785Y-60199945D02*
X69938500Y-60199945D01*
X82000001Y-73150001D02*
X82200000Y-73350000D01*
X69998565Y-60260010D02*
X71792301Y-60260011D01*
X71792301Y-60260011D02*
X75660011Y-64127721D01*
X75660011Y-64127721D02*
X75660011Y-66810011D01*
X65689989Y-57619149D02*
X68270785Y-60199945D01*
X65689989Y-55139990D02*
X65689989Y-57619149D01*
X69890864Y-60520020D02*
X69830800Y-60459956D01*
X70750309Y-60520022D02*
X69890864Y-60520020D01*
X67136240Y-59433110D02*
X65429979Y-59433110D01*
X75400000Y-64500000D02*
X71420022Y-60520022D01*
X68163086Y-60459956D02*
X67136240Y-59433110D01*
X71420022Y-60520022D02*
X70750309Y-60520022D01*
X75400000Y-71350000D02*
X75400000Y-64500000D01*
X76600000Y-72550000D02*
X75400000Y-71350000D01*
X69830800Y-60459956D02*
X68163086Y-60459956D01*
X65379979Y-59383110D02*
X65379978Y-57184600D01*
X64200000Y-53232842D02*
X64200000Y-52950000D01*
X65004997Y-54037839D02*
X64200000Y-53232842D01*
X65429978Y-55464583D02*
X65004997Y-55039602D01*
X65379978Y-57184600D02*
X65429978Y-57134600D01*
X65429979Y-59433110D02*
X65379979Y-59383110D01*
X65429978Y-57134600D02*
X65429978Y-55464583D01*
X65004997Y-55039602D02*
X65004997Y-54037839D01*
X65429978Y-59433111D02*
X65429979Y-59433110D01*
X65200000Y-51382842D02*
X65200000Y-51100000D01*
X65200000Y-53600000D02*
X65200000Y-51382842D01*
X66000000Y-54400000D02*
X65200000Y-53600000D01*
X77800000Y-65900000D02*
X71900001Y-60000000D01*
X68378484Y-59939934D02*
X66000000Y-57561450D01*
X77800000Y-66200000D02*
X77800000Y-65900000D01*
X70106266Y-60000000D02*
X70046200Y-59939934D01*
X66000000Y-57561450D02*
X66000000Y-54400000D01*
X70046200Y-59939934D02*
X68378484Y-59939934D01*
X71900001Y-60000000D02*
X70106266Y-60000000D01*
D19*
G36*
X63223000Y-84078807D02*
X63223000Y-87623000D01*
X61777000Y-87623000D01*
X61777000Y-84350000D01*
X61771972Y-84314619D01*
X61757389Y-84282202D01*
X54907389Y-73432202D01*
X54884249Y-73404968D01*
X54854438Y-73385259D01*
X54820317Y-73374636D01*
X54800000Y-73373000D01*
X51978452Y-73373000D01*
X52025565Y-69227000D01*
X56119962Y-69227000D01*
X63223000Y-84078807D01*
X63223000Y-84078807D01*
G37*
X63223000Y-84078807D02*
X63223000Y-87623000D01*
X61777000Y-87623000D01*
X61777000Y-84350000D01*
X61771972Y-84314619D01*
X61757389Y-84282202D01*
X54907389Y-73432202D01*
X54884249Y-73404968D01*
X54854438Y-73385259D01*
X54820317Y-73374636D01*
X54800000Y-73373000D01*
X51978452Y-73373000D01*
X52025565Y-69227000D01*
X56119962Y-69227000D01*
X63223000Y-84078807D01*
G36*
X65773000Y-84028531D02*
X65773000Y-87623000D01*
X64277000Y-87623000D01*
X64277000Y-84050000D01*
X64271972Y-84014619D01*
X64264014Y-83994055D01*
X56364014Y-67894055D01*
X56343914Y-67864507D01*
X56316378Y-67841727D01*
X56283586Y-67827522D01*
X56250000Y-67823000D01*
X52025581Y-67823000D01*
X51978435Y-63627000D01*
X56119593Y-63627000D01*
X65773000Y-84028531D01*
X65773000Y-84028531D01*
G37*
X65773000Y-84028531D02*
X65773000Y-87623000D01*
X64277000Y-87623000D01*
X64277000Y-84050000D01*
X64271972Y-84014619D01*
X64264014Y-83994055D01*
X56364014Y-67894055D01*
X56343914Y-67864507D01*
X56316378Y-67841727D01*
X56283586Y-67827522D01*
X56250000Y-67823000D01*
X52025581Y-67823000D01*
X51978435Y-63627000D01*
X56119593Y-63627000D01*
X65773000Y-84028531D01*
G36*
X53436360Y-58033634D02*
X53537299Y-58055827D01*
X53640627Y-58057991D01*
X53742406Y-58040045D01*
X53776038Y-58027000D01*
X56368753Y-58027000D01*
X68373000Y-84027901D01*
X68373000Y-87623000D01*
X66827000Y-87623000D01*
X66827000Y-84000000D01*
X66821972Y-83964619D01*
X66814423Y-83944897D01*
X56364423Y-62244897D01*
X56344542Y-62215201D01*
X56317175Y-62192220D01*
X56284488Y-62177773D01*
X56250000Y-62173000D01*
X52027000Y-62173000D01*
X52027000Y-58027000D01*
X53421175Y-58027000D01*
X53436360Y-58033634D01*
X53436360Y-58033634D01*
G37*
X53436360Y-58033634D02*
X53537299Y-58055827D01*
X53640627Y-58057991D01*
X53742406Y-58040045D01*
X53776038Y-58027000D01*
X56368753Y-58027000D01*
X68373000Y-84027901D01*
X68373000Y-87623000D01*
X66827000Y-87623000D01*
X66827000Y-84000000D01*
X66821972Y-83964619D01*
X66814423Y-83944897D01*
X56364423Y-62244897D01*
X56344542Y-62215201D01*
X56317175Y-62192220D01*
X56284488Y-62177773D01*
X56250000Y-62173000D01*
X52027000Y-62173000D01*
X52027000Y-58027000D01*
X53421175Y-58027000D01*
X53436360Y-58033634D01*
G36*
X65773000Y-49473000D02*
X60027000Y-49473000D01*
X60027000Y-43377000D01*
X65773000Y-43377000D01*
X65773000Y-49473000D01*
X65773000Y-49473000D01*
G37*
X65773000Y-49473000D02*
X60027000Y-49473000D01*
X60027000Y-43377000D01*
X65773000Y-43377000D01*
X65773000Y-49473000D01*
M02*
