G04 #@! TF.FileFunction,Copper,L1,Top,Signal*
%FSLAX46Y46*%
G04 Gerber Fmt 4.6, Leading zero omitted, Abs format (unit mm)*
G04 Created by KiCad (PCBNEW 4.0.6) date 06/16/19 22:16:32*
%MOMM*%
%LPD*%
G01*
G04 APERTURE LIST*
%ADD10C,0.100000*%
%ADD11R,1.800000X0.240000*%
%ADD12C,3.500000*%
%ADD13R,1.700000X1.700000*%
%ADD14O,1.700000X1.700000*%
%ADD15C,0.400000*%
%ADD16C,0.130000*%
%ADD17C,0.250000*%
G04 APERTURE END LIST*
D10*
D11*
X170250000Y-117550000D03*
X175250000Y-117550000D03*
X170250000Y-117050000D03*
X175250000Y-117050000D03*
X170250000Y-116550000D03*
X175250000Y-116550000D03*
X170250000Y-116050000D03*
X175250000Y-116050000D03*
X170250000Y-115550000D03*
X175250000Y-115550000D03*
X170250000Y-115050000D03*
X175250000Y-115050000D03*
X170250000Y-114550000D03*
X175250000Y-114550000D03*
X170250000Y-114050000D03*
X175250000Y-114050000D03*
X170250000Y-113550000D03*
X175250000Y-113550000D03*
X170250000Y-113050000D03*
X175250000Y-113050000D03*
X170250000Y-112550000D03*
X175250000Y-112550000D03*
X170250000Y-112050000D03*
X175250000Y-112050000D03*
X170250000Y-111550000D03*
X175250000Y-111550000D03*
X170250000Y-111050000D03*
X175250000Y-111050000D03*
X170250000Y-110550000D03*
X175250000Y-110550000D03*
X170250000Y-110050000D03*
X175250000Y-110050000D03*
X170250000Y-109550000D03*
X175250000Y-109550000D03*
X170250000Y-109050000D03*
X175250000Y-109050000D03*
X170250000Y-108550000D03*
X175250000Y-108550000D03*
X170250000Y-108050000D03*
X175250000Y-108050000D03*
X170250000Y-107550000D03*
X175250000Y-107550000D03*
X170250000Y-107050000D03*
X175250000Y-107050000D03*
X170250000Y-106550000D03*
X175250000Y-106550000D03*
X170250000Y-106050000D03*
X175250000Y-106050000D03*
X170250000Y-105550000D03*
X175250000Y-105550000D03*
X170250000Y-105050000D03*
X175250000Y-105050000D03*
X170250000Y-104550000D03*
X175250000Y-104550000D03*
X170250000Y-104050000D03*
X175250000Y-104050000D03*
X170250000Y-103550000D03*
X175250000Y-103550000D03*
X170250000Y-103050000D03*
X175250000Y-103050000D03*
X170250000Y-102550000D03*
X175250000Y-102550000D03*
X170250000Y-102050000D03*
X175250000Y-102050000D03*
X170250000Y-101550000D03*
X175250000Y-101550000D03*
X170250000Y-101050000D03*
X175250000Y-101050000D03*
X170250000Y-100550000D03*
X175250000Y-100550000D03*
X170250000Y-100050000D03*
X175250000Y-100050000D03*
X170250000Y-99550000D03*
X175250000Y-99550000D03*
X170250000Y-99050000D03*
X175250000Y-99050000D03*
X170250000Y-98550000D03*
X175250000Y-98550000D03*
X170250000Y-98050000D03*
X175250000Y-98050000D03*
X170250000Y-97550000D03*
X175250000Y-97550000D03*
X170250000Y-97050000D03*
X175250000Y-97050000D03*
X170250000Y-96550000D03*
X175250000Y-96550000D03*
X170250000Y-96050000D03*
X175250000Y-96050000D03*
X170250000Y-95550000D03*
X175250000Y-95550000D03*
X170250000Y-95050000D03*
X175250000Y-95050000D03*
X170250000Y-94550000D03*
X175250000Y-94550000D03*
X170250000Y-94050000D03*
X175250000Y-94050000D03*
X170250000Y-93550000D03*
X175250000Y-93550000D03*
X170250000Y-93050000D03*
X175250000Y-93050000D03*
D12*
X184600000Y-86800000D03*
X179600000Y-86800000D03*
D13*
X181860000Y-116950000D03*
D14*
X184400000Y-116950000D03*
X181860000Y-114410000D03*
X184400000Y-114410000D03*
X181860000Y-111870000D03*
X184400000Y-111870000D03*
X181860000Y-109330000D03*
X184400000Y-109330000D03*
X181860000Y-106790000D03*
X184400000Y-106790000D03*
X181860000Y-104250000D03*
X184400000Y-104250000D03*
X181860000Y-101710000D03*
X184400000Y-101710000D03*
X181860000Y-99170000D03*
X184400000Y-99170000D03*
X181860000Y-96630000D03*
X184400000Y-96630000D03*
X181860000Y-94090000D03*
X184400000Y-94090000D03*
D15*
X172850000Y-112700000D03*
X172951662Y-112142151D03*
X173050000Y-111150000D03*
X172800000Y-110300000D03*
X172900000Y-109400000D03*
X172750000Y-108200000D03*
D16*
X170250000Y-112050000D02*
X172200000Y-112050000D01*
X172650001Y-112500001D02*
X172850000Y-112700000D01*
X172200000Y-112050000D02*
X172650001Y-112500001D01*
X172751663Y-111942152D02*
X172951662Y-112142151D01*
X170250000Y-111550000D02*
X172359511Y-111550000D01*
X172359511Y-111550000D02*
X172751663Y-111942152D01*
X173050000Y-111150000D02*
X170350000Y-111150000D01*
X170350000Y-111150000D02*
X170250000Y-111050000D01*
X172800000Y-110300000D02*
X172550000Y-110550000D01*
X172550000Y-110550000D02*
X170250000Y-110550000D01*
X173099999Y-109599999D02*
X172900000Y-109400000D01*
X173550000Y-110050000D02*
X173099999Y-109599999D01*
X175250000Y-110050000D02*
X173550000Y-110050000D01*
X172949999Y-108399999D02*
X172750000Y-108200000D01*
X174100000Y-109550000D02*
X172949999Y-108399999D01*
X175250000Y-109550000D02*
X174100000Y-109550000D01*
D17*
X184400000Y-101710000D02*
X184400000Y-102912081D01*
X184400000Y-102912081D02*
X184400000Y-104250000D01*
X184400000Y-106790000D02*
X184400000Y-104250000D01*
X181860000Y-96630000D02*
X181860000Y-97832081D01*
X181860000Y-97832081D02*
X181860000Y-99170000D01*
X181860000Y-94090000D02*
X181860000Y-95292081D01*
X181860000Y-95292081D02*
X181860000Y-96630000D01*
G36*
X193768225Y-82748952D02*
X193774496Y-82749337D01*
X193954758Y-82759133D01*
X194086936Y-82792850D01*
X194210043Y-82851597D01*
X194319395Y-82933136D01*
X194410828Y-83034363D01*
X194480859Y-83151425D01*
X194526817Y-83279854D01*
X194549378Y-83431006D01*
X194550000Y-83455670D01*
X194550000Y-120437783D01*
X194540867Y-120605844D01*
X194507149Y-120738023D01*
X194448403Y-120861129D01*
X194366863Y-120970482D01*
X194265635Y-121061916D01*
X194148577Y-121131944D01*
X194020145Y-121177903D01*
X193868994Y-121200464D01*
X193861674Y-121200649D01*
X193856283Y-121200044D01*
X193850000Y-121200000D01*
X169363303Y-121200000D01*
X169195242Y-121190867D01*
X169063063Y-121157149D01*
X168939957Y-121098403D01*
X168830604Y-121016863D01*
X168739170Y-120915635D01*
X168669142Y-120798577D01*
X168623183Y-120670145D01*
X168600622Y-120518994D01*
X168600000Y-120494330D01*
X168600000Y-115930000D01*
X168973186Y-115930000D01*
X168973186Y-116170000D01*
X168977948Y-116229717D01*
X168999579Y-116299566D01*
X168988104Y-116325022D01*
X168973186Y-116430000D01*
X168973186Y-116670000D01*
X168977948Y-116729717D01*
X168999579Y-116799566D01*
X168988104Y-116825022D01*
X168973186Y-116930000D01*
X168973186Y-117170000D01*
X168977948Y-117229717D01*
X168999579Y-117299566D01*
X168988104Y-117325022D01*
X168973186Y-117430000D01*
X168973186Y-117670000D01*
X168977948Y-117729717D01*
X169009315Y-117831004D01*
X169067657Y-117919543D01*
X169148357Y-117988322D01*
X169245022Y-118031896D01*
X169350000Y-118046814D01*
X171150000Y-118046814D01*
X171209717Y-118042052D01*
X171311004Y-118010685D01*
X171399543Y-117952343D01*
X171468322Y-117871643D01*
X171511896Y-117774978D01*
X171526814Y-117670000D01*
X171526814Y-117430000D01*
X171522052Y-117370283D01*
X171500421Y-117300434D01*
X171511896Y-117274978D01*
X171526814Y-117170000D01*
X171526814Y-116930000D01*
X171522052Y-116870283D01*
X171500421Y-116800434D01*
X171511896Y-116774978D01*
X171526814Y-116670000D01*
X171526814Y-116430000D01*
X171522052Y-116370283D01*
X171500421Y-116300434D01*
X171511896Y-116274978D01*
X171526814Y-116170000D01*
X171526814Y-115930000D01*
X173973186Y-115930000D01*
X173973186Y-116170000D01*
X173977948Y-116229717D01*
X173999579Y-116299566D01*
X173988104Y-116325022D01*
X173973186Y-116430000D01*
X173973186Y-116670000D01*
X173977948Y-116729717D01*
X173999579Y-116799566D01*
X173988104Y-116825022D01*
X173973186Y-116930000D01*
X173973186Y-117170000D01*
X173977948Y-117229717D01*
X173999579Y-117299566D01*
X173988104Y-117325022D01*
X173973186Y-117430000D01*
X173973186Y-117670000D01*
X173977948Y-117729717D01*
X174009315Y-117831004D01*
X174067657Y-117919543D01*
X174148357Y-117988322D01*
X174245022Y-118031896D01*
X174350000Y-118046814D01*
X176150000Y-118046814D01*
X176209717Y-118042052D01*
X176311004Y-118010685D01*
X176399543Y-117952343D01*
X176468322Y-117871643D01*
X176511896Y-117774978D01*
X176526814Y-117670000D01*
X176526814Y-117430000D01*
X176522052Y-117370283D01*
X176500421Y-117300434D01*
X176511896Y-117274978D01*
X176526814Y-117170000D01*
X176526814Y-116930000D01*
X176522052Y-116870283D01*
X176500421Y-116800434D01*
X176511896Y-116774978D01*
X176526814Y-116670000D01*
X176526814Y-116430000D01*
X176522052Y-116370283D01*
X176500421Y-116300434D01*
X176511896Y-116274978D01*
X176526814Y-116170000D01*
X176526814Y-116100000D01*
X180633186Y-116100000D01*
X180633186Y-117800000D01*
X180637948Y-117859717D01*
X180669315Y-117961004D01*
X180727657Y-118049543D01*
X180808357Y-118118322D01*
X180905022Y-118161896D01*
X181010000Y-118176814D01*
X182710000Y-118176814D01*
X182769717Y-118172052D01*
X182871004Y-118140685D01*
X182959543Y-118082343D01*
X183028322Y-118001643D01*
X183071896Y-117904978D01*
X183086814Y-117800000D01*
X183086814Y-116941448D01*
X183169103Y-116941448D01*
X183190771Y-117179542D01*
X183258273Y-117408893D01*
X183369037Y-117620765D01*
X183518844Y-117807088D01*
X183701988Y-117960764D01*
X183911494Y-118075941D01*
X184139381Y-118148231D01*
X184376969Y-118174881D01*
X184394073Y-118175000D01*
X184405927Y-118175000D01*
X184643864Y-118151670D01*
X184872738Y-118082569D01*
X185083832Y-117970329D01*
X185269104Y-117819224D01*
X185421498Y-117635011D01*
X185535209Y-117424707D01*
X185605907Y-117196320D01*
X185630897Y-116958552D01*
X185609229Y-116720458D01*
X185541727Y-116491107D01*
X185430963Y-116279235D01*
X185281156Y-116092912D01*
X185098012Y-115939236D01*
X184888506Y-115824059D01*
X184660619Y-115751769D01*
X184423031Y-115725119D01*
X184405927Y-115725000D01*
X184394073Y-115725000D01*
X184156136Y-115748330D01*
X183927262Y-115817431D01*
X183716168Y-115929671D01*
X183530896Y-116080776D01*
X183378502Y-116264989D01*
X183264791Y-116475293D01*
X183194093Y-116703680D01*
X183169103Y-116941448D01*
X183086814Y-116941448D01*
X183086814Y-116100000D01*
X183082052Y-116040283D01*
X183050685Y-115938996D01*
X182992343Y-115850457D01*
X182911643Y-115781678D01*
X182814978Y-115738104D01*
X182710000Y-115723186D01*
X181010000Y-115723186D01*
X180950283Y-115727948D01*
X180848996Y-115759315D01*
X180760457Y-115817657D01*
X180691678Y-115898357D01*
X180648104Y-115995022D01*
X180633186Y-116100000D01*
X176526814Y-116100000D01*
X176526814Y-115930000D01*
X176522052Y-115870283D01*
X176490685Y-115768996D01*
X176432343Y-115680457D01*
X176351643Y-115611678D01*
X176254978Y-115568104D01*
X176150000Y-115553186D01*
X174350000Y-115553186D01*
X174290283Y-115557948D01*
X174188996Y-115589315D01*
X174100457Y-115647657D01*
X174031678Y-115728357D01*
X173988104Y-115825022D01*
X173973186Y-115930000D01*
X171526814Y-115930000D01*
X171522052Y-115870283D01*
X171490685Y-115768996D01*
X171432343Y-115680457D01*
X171351643Y-115611678D01*
X171254978Y-115568104D01*
X171150000Y-115553186D01*
X169350000Y-115553186D01*
X169290283Y-115557948D01*
X169188996Y-115589315D01*
X169100457Y-115647657D01*
X169031678Y-115728357D01*
X168988104Y-115825022D01*
X168973186Y-115930000D01*
X168600000Y-115930000D01*
X168600000Y-112930000D01*
X168973186Y-112930000D01*
X168973186Y-113170000D01*
X168977948Y-113229717D01*
X168999579Y-113299566D01*
X168988104Y-113325022D01*
X168973186Y-113430000D01*
X168973186Y-113670000D01*
X168977948Y-113729717D01*
X168999579Y-113799566D01*
X168988104Y-113825022D01*
X168973186Y-113930000D01*
X168973186Y-114170000D01*
X168977948Y-114229717D01*
X168999579Y-114299566D01*
X168988104Y-114325022D01*
X168973186Y-114430000D01*
X168973186Y-114670000D01*
X168977948Y-114729717D01*
X168999579Y-114799566D01*
X168988104Y-114825022D01*
X168973186Y-114930000D01*
X168973186Y-115170000D01*
X168977948Y-115229717D01*
X169009315Y-115331004D01*
X169067657Y-115419543D01*
X169148357Y-115488322D01*
X169245022Y-115531896D01*
X169350000Y-115546814D01*
X171150000Y-115546814D01*
X171209717Y-115542052D01*
X171311004Y-115510685D01*
X171399543Y-115452343D01*
X171468322Y-115371643D01*
X171511896Y-115274978D01*
X171526814Y-115170000D01*
X171526814Y-114930000D01*
X171522052Y-114870283D01*
X171500421Y-114800434D01*
X171511896Y-114774978D01*
X171526814Y-114670000D01*
X171526814Y-114430000D01*
X171522052Y-114370283D01*
X171500421Y-114300434D01*
X171511896Y-114274978D01*
X171526814Y-114170000D01*
X171526814Y-113930000D01*
X171522052Y-113870283D01*
X171500421Y-113800434D01*
X171511896Y-113774978D01*
X171526814Y-113670000D01*
X171526814Y-113430000D01*
X173973186Y-113430000D01*
X173973186Y-113670000D01*
X173977948Y-113729717D01*
X173999579Y-113799566D01*
X173988104Y-113825022D01*
X173973186Y-113930000D01*
X173973186Y-114170000D01*
X173977948Y-114229717D01*
X173999579Y-114299566D01*
X173988104Y-114325022D01*
X173973186Y-114430000D01*
X173973186Y-114670000D01*
X173977948Y-114729717D01*
X173999579Y-114799566D01*
X173988104Y-114825022D01*
X173973186Y-114930000D01*
X173973186Y-115170000D01*
X173977948Y-115229717D01*
X174009315Y-115331004D01*
X174067657Y-115419543D01*
X174148357Y-115488322D01*
X174245022Y-115531896D01*
X174350000Y-115546814D01*
X176150000Y-115546814D01*
X176209717Y-115542052D01*
X176311004Y-115510685D01*
X176399543Y-115452343D01*
X176468322Y-115371643D01*
X176511896Y-115274978D01*
X176526814Y-115170000D01*
X176526814Y-114930000D01*
X176522052Y-114870283D01*
X176500421Y-114800434D01*
X176511896Y-114774978D01*
X176526814Y-114670000D01*
X176526814Y-114430000D01*
X176524538Y-114401448D01*
X180629103Y-114401448D01*
X180650771Y-114639542D01*
X180718273Y-114868893D01*
X180829037Y-115080765D01*
X180978844Y-115267088D01*
X181161988Y-115420764D01*
X181371494Y-115535941D01*
X181599381Y-115608231D01*
X181836969Y-115634881D01*
X181854073Y-115635000D01*
X181865927Y-115635000D01*
X182103864Y-115611670D01*
X182332738Y-115542569D01*
X182543832Y-115430329D01*
X182729104Y-115279224D01*
X182881498Y-115095011D01*
X182995209Y-114884707D01*
X183065907Y-114656320D01*
X183090897Y-114418552D01*
X183069229Y-114180458D01*
X183001727Y-113951107D01*
X182890963Y-113739235D01*
X182741156Y-113552912D01*
X182558012Y-113399236D01*
X182348506Y-113284059D01*
X182120619Y-113211769D01*
X181883031Y-113185119D01*
X181865927Y-113185000D01*
X181854073Y-113185000D01*
X181616136Y-113208330D01*
X181387262Y-113277431D01*
X181176168Y-113389671D01*
X180990896Y-113540776D01*
X180838502Y-113724989D01*
X180724791Y-113935293D01*
X180654093Y-114163680D01*
X180629103Y-114401448D01*
X176524538Y-114401448D01*
X176522052Y-114370283D01*
X176500421Y-114300434D01*
X176511896Y-114274978D01*
X176526814Y-114170000D01*
X176526814Y-113930000D01*
X176522052Y-113870283D01*
X176500421Y-113800434D01*
X176511896Y-113774978D01*
X176526814Y-113670000D01*
X176526814Y-113430000D01*
X176522052Y-113370283D01*
X176490685Y-113268996D01*
X176432343Y-113180457D01*
X176351643Y-113111678D01*
X176254978Y-113068104D01*
X176150000Y-113053186D01*
X174350000Y-113053186D01*
X174290283Y-113057948D01*
X174188996Y-113089315D01*
X174100457Y-113147657D01*
X174031678Y-113228357D01*
X173988104Y-113325022D01*
X173973186Y-113430000D01*
X171526814Y-113430000D01*
X171522052Y-113370283D01*
X171500421Y-113300434D01*
X171511896Y-113274978D01*
X171526814Y-113170000D01*
X171526814Y-112930000D01*
X171522052Y-112870283D01*
X171490685Y-112768996D01*
X171432343Y-112680457D01*
X171351643Y-112611678D01*
X171254978Y-112568104D01*
X171150000Y-112553186D01*
X169350000Y-112553186D01*
X169290283Y-112557948D01*
X169188996Y-112589315D01*
X169100457Y-112647657D01*
X169031678Y-112728357D01*
X168988104Y-112825022D01*
X168973186Y-112930000D01*
X168600000Y-112930000D01*
X168600000Y-109930000D01*
X168973186Y-109930000D01*
X168973186Y-110170000D01*
X168977948Y-110229717D01*
X168999579Y-110299566D01*
X168988104Y-110325022D01*
X168973186Y-110430000D01*
X168973186Y-110670000D01*
X168977948Y-110729717D01*
X168999579Y-110799566D01*
X168988104Y-110825022D01*
X168973186Y-110930000D01*
X168973186Y-111170000D01*
X168977948Y-111229717D01*
X168999579Y-111299566D01*
X168988104Y-111325022D01*
X168973186Y-111430000D01*
X168973186Y-111670000D01*
X168977948Y-111729717D01*
X168999579Y-111799566D01*
X168988104Y-111825022D01*
X168973186Y-111930000D01*
X168973186Y-112170000D01*
X168977948Y-112229717D01*
X169009315Y-112331004D01*
X169067657Y-112419543D01*
X169148357Y-112488322D01*
X169245022Y-112531896D01*
X169350000Y-112546814D01*
X171150000Y-112546814D01*
X171209717Y-112542052D01*
X171311004Y-112510685D01*
X171342395Y-112490000D01*
X172017746Y-112490000D01*
X172274269Y-112746523D01*
X172274244Y-112748348D01*
X172294600Y-112859258D01*
X172336111Y-112964103D01*
X172397196Y-113058888D01*
X172475528Y-113140003D01*
X172568123Y-113204359D01*
X172671456Y-113249503D01*
X172781588Y-113273718D01*
X172894327Y-113276079D01*
X173005377Y-113256498D01*
X173110509Y-113215720D01*
X173205718Y-113155298D01*
X173287378Y-113077535D01*
X173352379Y-112985391D01*
X173398243Y-112882376D01*
X173423226Y-112772415D01*
X173425024Y-112643618D01*
X173403122Y-112533003D01*
X173394464Y-112511997D01*
X173454041Y-112427542D01*
X173499905Y-112324527D01*
X173524888Y-112214566D01*
X173526686Y-112085769D01*
X173504784Y-111975154D01*
X173461813Y-111870899D01*
X173399411Y-111776976D01*
X173319954Y-111696962D01*
X173287098Y-111674801D01*
X173310509Y-111665720D01*
X173405718Y-111605298D01*
X173487378Y-111527535D01*
X173552379Y-111435391D01*
X173598243Y-111332376D01*
X173623226Y-111222415D01*
X173625024Y-111093618D01*
X173603122Y-110983003D01*
X173560151Y-110878748D01*
X173497749Y-110784825D01*
X173418292Y-110704811D01*
X173324807Y-110641755D01*
X173276842Y-110621592D01*
X173302379Y-110585391D01*
X173348243Y-110482376D01*
X173357045Y-110443633D01*
X173376666Y-110454420D01*
X173378872Y-110455120D01*
X173380911Y-110456213D01*
X173419758Y-110468090D01*
X173458519Y-110480385D01*
X173460820Y-110480643D01*
X173463031Y-110481319D01*
X173503482Y-110485428D01*
X173543857Y-110489957D01*
X173548373Y-110489989D01*
X173548465Y-110489998D01*
X173548551Y-110489990D01*
X173550000Y-110490000D01*
X173973186Y-110490000D01*
X173973186Y-110670000D01*
X173977948Y-110729717D01*
X173999579Y-110799566D01*
X173988104Y-110825022D01*
X173973186Y-110930000D01*
X173973186Y-111170000D01*
X173977948Y-111229717D01*
X173999579Y-111299566D01*
X173988104Y-111325022D01*
X173973186Y-111430000D01*
X173973186Y-111670000D01*
X173977948Y-111729717D01*
X173999579Y-111799566D01*
X173988104Y-111825022D01*
X173973186Y-111930000D01*
X173973186Y-112170000D01*
X173977948Y-112229717D01*
X173999579Y-112299566D01*
X173988104Y-112325022D01*
X173973186Y-112430000D01*
X173973186Y-112670000D01*
X173977948Y-112729717D01*
X174009315Y-112831004D01*
X174067657Y-112919543D01*
X174148357Y-112988322D01*
X174245022Y-113031896D01*
X174350000Y-113046814D01*
X176150000Y-113046814D01*
X176209717Y-113042052D01*
X176311004Y-113010685D01*
X176399543Y-112952343D01*
X176468322Y-112871643D01*
X176511896Y-112774978D01*
X176526814Y-112670000D01*
X176526814Y-112430000D01*
X176522052Y-112370283D01*
X176500421Y-112300434D01*
X176511896Y-112274978D01*
X176526814Y-112170000D01*
X176526814Y-111930000D01*
X176522052Y-111870283D01*
X176519316Y-111861448D01*
X180629103Y-111861448D01*
X180650771Y-112099542D01*
X180718273Y-112328893D01*
X180829037Y-112540765D01*
X180978844Y-112727088D01*
X181161988Y-112880764D01*
X181371494Y-112995941D01*
X181599381Y-113068231D01*
X181836969Y-113094881D01*
X181854073Y-113095000D01*
X181865927Y-113095000D01*
X182103864Y-113071670D01*
X182332738Y-113002569D01*
X182543832Y-112890329D01*
X182729104Y-112739224D01*
X182881498Y-112555011D01*
X182995209Y-112344707D01*
X183065907Y-112116320D01*
X183090897Y-111878552D01*
X183069229Y-111640458D01*
X183001727Y-111411107D01*
X182890963Y-111199235D01*
X182741156Y-111012912D01*
X182558012Y-110859236D01*
X182348506Y-110744059D01*
X182120619Y-110671769D01*
X181883031Y-110645119D01*
X181865927Y-110645000D01*
X181854073Y-110645000D01*
X181616136Y-110668330D01*
X181387262Y-110737431D01*
X181176168Y-110849671D01*
X180990896Y-111000776D01*
X180838502Y-111184989D01*
X180724791Y-111395293D01*
X180654093Y-111623680D01*
X180629103Y-111861448D01*
X176519316Y-111861448D01*
X176500421Y-111800434D01*
X176511896Y-111774978D01*
X176526814Y-111670000D01*
X176526814Y-111430000D01*
X176522052Y-111370283D01*
X176500421Y-111300434D01*
X176511896Y-111274978D01*
X176526814Y-111170000D01*
X176526814Y-110930000D01*
X176522052Y-110870283D01*
X176500421Y-110800434D01*
X176511896Y-110774978D01*
X176526814Y-110670000D01*
X176526814Y-110430000D01*
X176522052Y-110370283D01*
X176500421Y-110300434D01*
X176511896Y-110274978D01*
X176526814Y-110170000D01*
X176526814Y-109930000D01*
X176522052Y-109870283D01*
X176500421Y-109800434D01*
X176511896Y-109774978D01*
X176526814Y-109670000D01*
X176526814Y-109430000D01*
X176522052Y-109370283D01*
X176506929Y-109321448D01*
X180629103Y-109321448D01*
X180650771Y-109559542D01*
X180718273Y-109788893D01*
X180829037Y-110000765D01*
X180978844Y-110187088D01*
X181161988Y-110340764D01*
X181371494Y-110455941D01*
X181599381Y-110528231D01*
X181836969Y-110554881D01*
X181854073Y-110555000D01*
X181865927Y-110555000D01*
X182103864Y-110531670D01*
X182332738Y-110462569D01*
X182543832Y-110350329D01*
X182729104Y-110199224D01*
X182881498Y-110015011D01*
X182995209Y-109804707D01*
X183065907Y-109576320D01*
X183090897Y-109338552D01*
X183069229Y-109100458D01*
X183001727Y-108871107D01*
X182890963Y-108659235D01*
X182741156Y-108472912D01*
X182558012Y-108319236D01*
X182348506Y-108204059D01*
X182120619Y-108131769D01*
X181883031Y-108105119D01*
X181865927Y-108105000D01*
X181854073Y-108105000D01*
X181616136Y-108128330D01*
X181387262Y-108197431D01*
X181176168Y-108309671D01*
X180990896Y-108460776D01*
X180838502Y-108644989D01*
X180724791Y-108855293D01*
X180654093Y-109083680D01*
X180629103Y-109321448D01*
X176506929Y-109321448D01*
X176500421Y-109300434D01*
X176511896Y-109274978D01*
X176526814Y-109170000D01*
X176526814Y-108930000D01*
X176522052Y-108870283D01*
X176500421Y-108800434D01*
X176511896Y-108774978D01*
X176526814Y-108670000D01*
X176526814Y-108430000D01*
X176522052Y-108370283D01*
X176500421Y-108300434D01*
X176511896Y-108274978D01*
X176526814Y-108170000D01*
X176526814Y-107930000D01*
X176522052Y-107870283D01*
X176500421Y-107800434D01*
X176511896Y-107774978D01*
X176526814Y-107670000D01*
X176526814Y-107430000D01*
X176522052Y-107370283D01*
X176500421Y-107300434D01*
X176511896Y-107274978D01*
X176526814Y-107170000D01*
X176526814Y-106930000D01*
X176522052Y-106870283D01*
X176500421Y-106800434D01*
X176508979Y-106781448D01*
X180629103Y-106781448D01*
X180650771Y-107019542D01*
X180718273Y-107248893D01*
X180829037Y-107460765D01*
X180978844Y-107647088D01*
X181161988Y-107800764D01*
X181371494Y-107915941D01*
X181599381Y-107988231D01*
X181836969Y-108014881D01*
X181854073Y-108015000D01*
X181865927Y-108015000D01*
X182103864Y-107991670D01*
X182332738Y-107922569D01*
X182543832Y-107810329D01*
X182729104Y-107659224D01*
X182881498Y-107475011D01*
X182995209Y-107264707D01*
X183065907Y-107036320D01*
X183090897Y-106798552D01*
X183069229Y-106560458D01*
X183001727Y-106331107D01*
X182890963Y-106119235D01*
X182741156Y-105932912D01*
X182558012Y-105779236D01*
X182348506Y-105664059D01*
X182120619Y-105591769D01*
X181883031Y-105565119D01*
X181865927Y-105565000D01*
X181854073Y-105565000D01*
X181616136Y-105588330D01*
X181387262Y-105657431D01*
X181176168Y-105769671D01*
X180990896Y-105920776D01*
X180838502Y-106104989D01*
X180724791Y-106315293D01*
X180654093Y-106543680D01*
X180629103Y-106781448D01*
X176508979Y-106781448D01*
X176511896Y-106774978D01*
X176526814Y-106670000D01*
X176526814Y-106430000D01*
X176522052Y-106370283D01*
X176500421Y-106300434D01*
X176511896Y-106274978D01*
X176526814Y-106170000D01*
X176526814Y-105930000D01*
X176522052Y-105870283D01*
X176490685Y-105768996D01*
X176432343Y-105680457D01*
X176351643Y-105611678D01*
X176254978Y-105568104D01*
X176150000Y-105553186D01*
X174350000Y-105553186D01*
X174290283Y-105557948D01*
X174188996Y-105589315D01*
X174100457Y-105647657D01*
X174031678Y-105728357D01*
X173988104Y-105825022D01*
X173973186Y-105930000D01*
X173973186Y-106170000D01*
X173977948Y-106229717D01*
X173999579Y-106299566D01*
X173988104Y-106325022D01*
X173973186Y-106430000D01*
X173973186Y-106670000D01*
X173977948Y-106729717D01*
X173999579Y-106799566D01*
X173988104Y-106825022D01*
X173973186Y-106930000D01*
X173973186Y-107170000D01*
X173977948Y-107229717D01*
X173999579Y-107299566D01*
X173988104Y-107325022D01*
X173973186Y-107430000D01*
X173973186Y-107670000D01*
X173977948Y-107729717D01*
X173999579Y-107799566D01*
X173988104Y-107825022D01*
X173973186Y-107930000D01*
X173973186Y-108170000D01*
X173977948Y-108229717D01*
X173999579Y-108299566D01*
X173988104Y-108325022D01*
X173973186Y-108430000D01*
X173973186Y-108670000D01*
X173977948Y-108729717D01*
X173999579Y-108799566D01*
X173990954Y-108818700D01*
X173324898Y-108152644D01*
X173325024Y-108143618D01*
X173303122Y-108033003D01*
X173260151Y-107928748D01*
X173197749Y-107834825D01*
X173118292Y-107754811D01*
X173024807Y-107691755D01*
X172920855Y-107648057D01*
X172810395Y-107625383D01*
X172697634Y-107624596D01*
X172586868Y-107645726D01*
X172482316Y-107687968D01*
X172387960Y-107749713D01*
X172307393Y-107828609D01*
X172243686Y-107921651D01*
X172199264Y-108025296D01*
X172175819Y-108135595D01*
X172174244Y-108248348D01*
X172194600Y-108359258D01*
X172236111Y-108464103D01*
X172297196Y-108558888D01*
X172375528Y-108640003D01*
X172468123Y-108704359D01*
X172571456Y-108749503D01*
X172681588Y-108773718D01*
X172701889Y-108774143D01*
X172767608Y-108839862D01*
X172736868Y-108845726D01*
X172632316Y-108887968D01*
X172537960Y-108949713D01*
X172457393Y-109028609D01*
X172393686Y-109121651D01*
X172349264Y-109225296D01*
X172325819Y-109335595D01*
X172324244Y-109448348D01*
X172344600Y-109559258D01*
X172386111Y-109664103D01*
X172447196Y-109758888D01*
X172497365Y-109810839D01*
X172437960Y-109849713D01*
X172357393Y-109928609D01*
X172293686Y-110021651D01*
X172255820Y-110110000D01*
X171526814Y-110110000D01*
X171526814Y-109930000D01*
X171522052Y-109870283D01*
X171490685Y-109768996D01*
X171432343Y-109680457D01*
X171351643Y-109611678D01*
X171254978Y-109568104D01*
X171150000Y-109553186D01*
X169350000Y-109553186D01*
X169290283Y-109557948D01*
X169188996Y-109589315D01*
X169100457Y-109647657D01*
X169031678Y-109728357D01*
X168988104Y-109825022D01*
X168973186Y-109930000D01*
X168600000Y-109930000D01*
X168600000Y-107430000D01*
X168973186Y-107430000D01*
X168973186Y-107670000D01*
X168977948Y-107729717D01*
X168999579Y-107799566D01*
X168988104Y-107825022D01*
X168973186Y-107930000D01*
X168973186Y-108170000D01*
X168977948Y-108229717D01*
X168999579Y-108299566D01*
X168988104Y-108325022D01*
X168973186Y-108430000D01*
X168973186Y-108670000D01*
X168977948Y-108729717D01*
X168999579Y-108799566D01*
X168988104Y-108825022D01*
X168973186Y-108930000D01*
X168973186Y-109170000D01*
X168977948Y-109229717D01*
X169009315Y-109331004D01*
X169067657Y-109419543D01*
X169148357Y-109488322D01*
X169245022Y-109531896D01*
X169350000Y-109546814D01*
X171150000Y-109546814D01*
X171209717Y-109542052D01*
X171311004Y-109510685D01*
X171399543Y-109452343D01*
X171468322Y-109371643D01*
X171511896Y-109274978D01*
X171526814Y-109170000D01*
X171526814Y-108930000D01*
X171522052Y-108870283D01*
X171500421Y-108800434D01*
X171511896Y-108774978D01*
X171526814Y-108670000D01*
X171526814Y-108430000D01*
X171522052Y-108370283D01*
X171500421Y-108300434D01*
X171511896Y-108274978D01*
X171526814Y-108170000D01*
X171526814Y-107930000D01*
X171522052Y-107870283D01*
X171500421Y-107800434D01*
X171511896Y-107774978D01*
X171526814Y-107670000D01*
X171526814Y-107430000D01*
X171522052Y-107370283D01*
X171490685Y-107268996D01*
X171432343Y-107180457D01*
X171351643Y-107111678D01*
X171254978Y-107068104D01*
X171150000Y-107053186D01*
X169350000Y-107053186D01*
X169290283Y-107057948D01*
X169188996Y-107089315D01*
X169100457Y-107147657D01*
X169031678Y-107228357D01*
X168988104Y-107325022D01*
X168973186Y-107430000D01*
X168600000Y-107430000D01*
X168600000Y-104930000D01*
X168973186Y-104930000D01*
X168973186Y-105170000D01*
X168977948Y-105229717D01*
X168999579Y-105299566D01*
X168988104Y-105325022D01*
X168973186Y-105430000D01*
X168973186Y-105670000D01*
X168977948Y-105729717D01*
X168999579Y-105799566D01*
X168988104Y-105825022D01*
X168973186Y-105930000D01*
X168973186Y-106170000D01*
X168977948Y-106229717D01*
X168999579Y-106299566D01*
X168988104Y-106325022D01*
X168973186Y-106430000D01*
X168973186Y-106670000D01*
X168977948Y-106729717D01*
X169009315Y-106831004D01*
X169067657Y-106919543D01*
X169148357Y-106988322D01*
X169245022Y-107031896D01*
X169350000Y-107046814D01*
X171150000Y-107046814D01*
X171209717Y-107042052D01*
X171311004Y-107010685D01*
X171399543Y-106952343D01*
X171468322Y-106871643D01*
X171511896Y-106774978D01*
X171526814Y-106670000D01*
X171526814Y-106430000D01*
X171522052Y-106370283D01*
X171500421Y-106300434D01*
X171511896Y-106274978D01*
X171526814Y-106170000D01*
X171526814Y-105930000D01*
X171522052Y-105870283D01*
X171500421Y-105800434D01*
X171511896Y-105774978D01*
X171526814Y-105670000D01*
X171526814Y-105430000D01*
X171522052Y-105370283D01*
X171500421Y-105300434D01*
X171511896Y-105274978D01*
X171526814Y-105170000D01*
X171526814Y-104930000D01*
X171522052Y-104870283D01*
X171490685Y-104768996D01*
X171432343Y-104680457D01*
X171351643Y-104611678D01*
X171254978Y-104568104D01*
X171150000Y-104553186D01*
X169350000Y-104553186D01*
X169290283Y-104557948D01*
X169188996Y-104589315D01*
X169100457Y-104647657D01*
X169031678Y-104728357D01*
X168988104Y-104825022D01*
X168973186Y-104930000D01*
X168600000Y-104930000D01*
X168600000Y-103430000D01*
X168973186Y-103430000D01*
X168973186Y-103670000D01*
X168977948Y-103729717D01*
X168999579Y-103799566D01*
X168988104Y-103825022D01*
X168973186Y-103930000D01*
X168973186Y-104170000D01*
X168977948Y-104229717D01*
X169009315Y-104331004D01*
X169067657Y-104419543D01*
X169148357Y-104488322D01*
X169245022Y-104531896D01*
X169350000Y-104546814D01*
X171150000Y-104546814D01*
X171209717Y-104542052D01*
X171311004Y-104510685D01*
X171399543Y-104452343D01*
X171418585Y-104430000D01*
X173973186Y-104430000D01*
X173973186Y-104670000D01*
X173977948Y-104729717D01*
X173999579Y-104799566D01*
X173988104Y-104825022D01*
X173973186Y-104930000D01*
X173973186Y-105170000D01*
X173977948Y-105229717D01*
X174009315Y-105331004D01*
X174067657Y-105419543D01*
X174148357Y-105488322D01*
X174245022Y-105531896D01*
X174350000Y-105546814D01*
X176150000Y-105546814D01*
X176209717Y-105542052D01*
X176311004Y-105510685D01*
X176399543Y-105452343D01*
X176468322Y-105371643D01*
X176511896Y-105274978D01*
X176526814Y-105170000D01*
X176526814Y-104930000D01*
X176522052Y-104870283D01*
X176500421Y-104800434D01*
X176511896Y-104774978D01*
X176526814Y-104670000D01*
X176526814Y-104430000D01*
X176522052Y-104370283D01*
X176490685Y-104268996D01*
X176472533Y-104241448D01*
X180629103Y-104241448D01*
X180650771Y-104479542D01*
X180718273Y-104708893D01*
X180829037Y-104920765D01*
X180978844Y-105107088D01*
X181161988Y-105260764D01*
X181371494Y-105375941D01*
X181599381Y-105448231D01*
X181836969Y-105474881D01*
X181854073Y-105475000D01*
X181865927Y-105475000D01*
X182103864Y-105451670D01*
X182332738Y-105382569D01*
X182543832Y-105270329D01*
X182729104Y-105119224D01*
X182881498Y-104935011D01*
X182995209Y-104724707D01*
X183065907Y-104496320D01*
X183090897Y-104258552D01*
X183069229Y-104020458D01*
X183001727Y-103791107D01*
X182890963Y-103579235D01*
X182741156Y-103392912D01*
X182558012Y-103239236D01*
X182348506Y-103124059D01*
X182120619Y-103051769D01*
X181883031Y-103025119D01*
X181865927Y-103025000D01*
X181854073Y-103025000D01*
X181616136Y-103048330D01*
X181387262Y-103117431D01*
X181176168Y-103229671D01*
X180990896Y-103380776D01*
X180838502Y-103564989D01*
X180724791Y-103775293D01*
X180654093Y-104003680D01*
X180629103Y-104241448D01*
X176472533Y-104241448D01*
X176432343Y-104180457D01*
X176351643Y-104111678D01*
X176254978Y-104068104D01*
X176150000Y-104053186D01*
X174350000Y-104053186D01*
X174290283Y-104057948D01*
X174188996Y-104089315D01*
X174100457Y-104147657D01*
X174031678Y-104228357D01*
X173988104Y-104325022D01*
X173973186Y-104430000D01*
X171418585Y-104430000D01*
X171468322Y-104371643D01*
X171511896Y-104274978D01*
X171526814Y-104170000D01*
X171526814Y-103930000D01*
X171522052Y-103870283D01*
X171500421Y-103800434D01*
X171511896Y-103774978D01*
X171526814Y-103670000D01*
X171526814Y-103430000D01*
X171522052Y-103370283D01*
X171490685Y-103268996D01*
X171432343Y-103180457D01*
X171351643Y-103111678D01*
X171254978Y-103068104D01*
X171150000Y-103053186D01*
X169350000Y-103053186D01*
X169290283Y-103057948D01*
X169188996Y-103089315D01*
X169100457Y-103147657D01*
X169031678Y-103228357D01*
X168988104Y-103325022D01*
X168973186Y-103430000D01*
X168600000Y-103430000D01*
X168600000Y-101930000D01*
X168973186Y-101930000D01*
X168973186Y-102170000D01*
X168977948Y-102229717D01*
X168999579Y-102299566D01*
X168988104Y-102325022D01*
X168973186Y-102430000D01*
X168973186Y-102670000D01*
X168977948Y-102729717D01*
X169009315Y-102831004D01*
X169067657Y-102919543D01*
X169148357Y-102988322D01*
X169245022Y-103031896D01*
X169350000Y-103046814D01*
X171150000Y-103046814D01*
X171209717Y-103042052D01*
X171311004Y-103010685D01*
X171399543Y-102952343D01*
X171418585Y-102930000D01*
X173973186Y-102930000D01*
X173973186Y-103170000D01*
X173977948Y-103229717D01*
X173999579Y-103299566D01*
X173988104Y-103325022D01*
X173973186Y-103430000D01*
X173973186Y-103670000D01*
X173977948Y-103729717D01*
X174009315Y-103831004D01*
X174067657Y-103919543D01*
X174148357Y-103988322D01*
X174245022Y-104031896D01*
X174350000Y-104046814D01*
X176150000Y-104046814D01*
X176209717Y-104042052D01*
X176311004Y-104010685D01*
X176399543Y-103952343D01*
X176468322Y-103871643D01*
X176511896Y-103774978D01*
X176526814Y-103670000D01*
X176526814Y-103430000D01*
X176522052Y-103370283D01*
X176500421Y-103300434D01*
X176511896Y-103274978D01*
X176526814Y-103170000D01*
X176526814Y-102930000D01*
X176522052Y-102870283D01*
X176490685Y-102768996D01*
X176432343Y-102680457D01*
X176351643Y-102611678D01*
X176254978Y-102568104D01*
X176150000Y-102553186D01*
X174350000Y-102553186D01*
X174290283Y-102557948D01*
X174188996Y-102589315D01*
X174100457Y-102647657D01*
X174031678Y-102728357D01*
X173988104Y-102825022D01*
X173973186Y-102930000D01*
X171418585Y-102930000D01*
X171468322Y-102871643D01*
X171511896Y-102774978D01*
X171526814Y-102670000D01*
X171526814Y-102430000D01*
X171522052Y-102370283D01*
X171500421Y-102300434D01*
X171511896Y-102274978D01*
X171526814Y-102170000D01*
X171526814Y-101930000D01*
X171522052Y-101870283D01*
X171490685Y-101768996D01*
X171432343Y-101680457D01*
X171351643Y-101611678D01*
X171254978Y-101568104D01*
X171150000Y-101553186D01*
X169350000Y-101553186D01*
X169290283Y-101557948D01*
X169188996Y-101589315D01*
X169100457Y-101647657D01*
X169031678Y-101728357D01*
X168988104Y-101825022D01*
X168973186Y-101930000D01*
X168600000Y-101930000D01*
X168600000Y-100430000D01*
X168973186Y-100430000D01*
X168973186Y-100670000D01*
X168977948Y-100729717D01*
X168999579Y-100799566D01*
X168988104Y-100825022D01*
X168973186Y-100930000D01*
X168973186Y-101170000D01*
X168977948Y-101229717D01*
X169009315Y-101331004D01*
X169067657Y-101419543D01*
X169148357Y-101488322D01*
X169245022Y-101531896D01*
X169350000Y-101546814D01*
X171150000Y-101546814D01*
X171209717Y-101542052D01*
X171311004Y-101510685D01*
X171399543Y-101452343D01*
X171418585Y-101430000D01*
X173973186Y-101430000D01*
X173973186Y-101670000D01*
X173977948Y-101729717D01*
X173999579Y-101799566D01*
X173988104Y-101825022D01*
X173973186Y-101930000D01*
X173973186Y-102170000D01*
X173977948Y-102229717D01*
X174009315Y-102331004D01*
X174067657Y-102419543D01*
X174148357Y-102488322D01*
X174245022Y-102531896D01*
X174350000Y-102546814D01*
X176150000Y-102546814D01*
X176209717Y-102542052D01*
X176311004Y-102510685D01*
X176399543Y-102452343D01*
X176468322Y-102371643D01*
X176511896Y-102274978D01*
X176526814Y-102170000D01*
X176526814Y-101930000D01*
X176522052Y-101870283D01*
X176500421Y-101800434D01*
X176511896Y-101774978D01*
X176522345Y-101701448D01*
X180629103Y-101701448D01*
X180650771Y-101939542D01*
X180718273Y-102168893D01*
X180829037Y-102380765D01*
X180978844Y-102567088D01*
X181161988Y-102720764D01*
X181371494Y-102835941D01*
X181599381Y-102908231D01*
X181836969Y-102934881D01*
X181854073Y-102935000D01*
X181865927Y-102935000D01*
X182103864Y-102911670D01*
X182332738Y-102842569D01*
X182543832Y-102730329D01*
X182729104Y-102579224D01*
X182881498Y-102395011D01*
X182995209Y-102184707D01*
X183065907Y-101956320D01*
X183090897Y-101718552D01*
X183089341Y-101701448D01*
X183169103Y-101701448D01*
X183190771Y-101939542D01*
X183258273Y-102168893D01*
X183369037Y-102380765D01*
X183518844Y-102567088D01*
X183701988Y-102720764D01*
X183900000Y-102829622D01*
X183900000Y-103131926D01*
X183716168Y-103229671D01*
X183530896Y-103380776D01*
X183378502Y-103564989D01*
X183264791Y-103775293D01*
X183194093Y-104003680D01*
X183169103Y-104241448D01*
X183190771Y-104479542D01*
X183258273Y-104708893D01*
X183369037Y-104920765D01*
X183518844Y-105107088D01*
X183701988Y-105260764D01*
X183900000Y-105369622D01*
X183900000Y-105671926D01*
X183716168Y-105769671D01*
X183530896Y-105920776D01*
X183378502Y-106104989D01*
X183264791Y-106315293D01*
X183194093Y-106543680D01*
X183169103Y-106781448D01*
X183190771Y-107019542D01*
X183258273Y-107248893D01*
X183369037Y-107460765D01*
X183518844Y-107647088D01*
X183701988Y-107800764D01*
X183911494Y-107915941D01*
X184139381Y-107988231D01*
X184376969Y-108014881D01*
X184394073Y-108015000D01*
X184405927Y-108015000D01*
X184643864Y-107991670D01*
X184872738Y-107922569D01*
X185083832Y-107810329D01*
X185269104Y-107659224D01*
X185421498Y-107475011D01*
X185535209Y-107264707D01*
X185605907Y-107036320D01*
X185630897Y-106798552D01*
X185609229Y-106560458D01*
X185541727Y-106331107D01*
X185430963Y-106119235D01*
X185281156Y-105932912D01*
X185098012Y-105779236D01*
X184900000Y-105670378D01*
X184900000Y-105368074D01*
X185083832Y-105270329D01*
X185269104Y-105119224D01*
X185421498Y-104935011D01*
X185535209Y-104724707D01*
X185605907Y-104496320D01*
X185630897Y-104258552D01*
X185609229Y-104020458D01*
X185541727Y-103791107D01*
X185430963Y-103579235D01*
X185281156Y-103392912D01*
X185098012Y-103239236D01*
X184900000Y-103130378D01*
X184900000Y-102828074D01*
X185083832Y-102730329D01*
X185269104Y-102579224D01*
X185421498Y-102395011D01*
X185535209Y-102184707D01*
X185605907Y-101956320D01*
X185630897Y-101718552D01*
X185609229Y-101480458D01*
X185541727Y-101251107D01*
X185430963Y-101039235D01*
X185281156Y-100852912D01*
X185098012Y-100699236D01*
X184888506Y-100584059D01*
X184660619Y-100511769D01*
X184423031Y-100485119D01*
X184405927Y-100485000D01*
X184394073Y-100485000D01*
X184156136Y-100508330D01*
X183927262Y-100577431D01*
X183716168Y-100689671D01*
X183530896Y-100840776D01*
X183378502Y-101024989D01*
X183264791Y-101235293D01*
X183194093Y-101463680D01*
X183169103Y-101701448D01*
X183089341Y-101701448D01*
X183069229Y-101480458D01*
X183001727Y-101251107D01*
X182890963Y-101039235D01*
X182741156Y-100852912D01*
X182558012Y-100699236D01*
X182348506Y-100584059D01*
X182120619Y-100511769D01*
X181883031Y-100485119D01*
X181865927Y-100485000D01*
X181854073Y-100485000D01*
X181616136Y-100508330D01*
X181387262Y-100577431D01*
X181176168Y-100689671D01*
X180990896Y-100840776D01*
X180838502Y-101024989D01*
X180724791Y-101235293D01*
X180654093Y-101463680D01*
X180629103Y-101701448D01*
X176522345Y-101701448D01*
X176526814Y-101670000D01*
X176526814Y-101430000D01*
X176522052Y-101370283D01*
X176490685Y-101268996D01*
X176432343Y-101180457D01*
X176351643Y-101111678D01*
X176254978Y-101068104D01*
X176150000Y-101053186D01*
X174350000Y-101053186D01*
X174290283Y-101057948D01*
X174188996Y-101089315D01*
X174100457Y-101147657D01*
X174031678Y-101228357D01*
X173988104Y-101325022D01*
X173973186Y-101430000D01*
X171418585Y-101430000D01*
X171468322Y-101371643D01*
X171511896Y-101274978D01*
X171526814Y-101170000D01*
X171526814Y-100930000D01*
X171522052Y-100870283D01*
X171500421Y-100800434D01*
X171511896Y-100774978D01*
X171526814Y-100670000D01*
X171526814Y-100430000D01*
X173973186Y-100430000D01*
X173973186Y-100670000D01*
X173977948Y-100729717D01*
X174009315Y-100831004D01*
X174067657Y-100919543D01*
X174148357Y-100988322D01*
X174245022Y-101031896D01*
X174350000Y-101046814D01*
X176150000Y-101046814D01*
X176209717Y-101042052D01*
X176311004Y-101010685D01*
X176399543Y-100952343D01*
X176468322Y-100871643D01*
X176511896Y-100774978D01*
X176526814Y-100670000D01*
X176526814Y-100430000D01*
X176522052Y-100370283D01*
X176490685Y-100268996D01*
X176432343Y-100180457D01*
X176351643Y-100111678D01*
X176254978Y-100068104D01*
X176150000Y-100053186D01*
X174350000Y-100053186D01*
X174290283Y-100057948D01*
X174188996Y-100089315D01*
X174100457Y-100147657D01*
X174031678Y-100228357D01*
X173988104Y-100325022D01*
X173973186Y-100430000D01*
X171526814Y-100430000D01*
X171522052Y-100370283D01*
X171490685Y-100268996D01*
X171432343Y-100180457D01*
X171351643Y-100111678D01*
X171254978Y-100068104D01*
X171150000Y-100053186D01*
X169350000Y-100053186D01*
X169290283Y-100057948D01*
X169188996Y-100089315D01*
X169100457Y-100147657D01*
X169031678Y-100228357D01*
X168988104Y-100325022D01*
X168973186Y-100430000D01*
X168600000Y-100430000D01*
X168600000Y-97430000D01*
X168973186Y-97430000D01*
X168973186Y-97670000D01*
X168977948Y-97729717D01*
X168999579Y-97799566D01*
X168988104Y-97825022D01*
X168973186Y-97930000D01*
X168973186Y-98170000D01*
X168977948Y-98229717D01*
X168999579Y-98299566D01*
X168988104Y-98325022D01*
X168973186Y-98430000D01*
X168973186Y-98670000D01*
X168977948Y-98729717D01*
X168999579Y-98799566D01*
X168988104Y-98825022D01*
X168973186Y-98930000D01*
X168973186Y-99170000D01*
X168977948Y-99229717D01*
X168999579Y-99299566D01*
X168988104Y-99325022D01*
X168973186Y-99430000D01*
X168973186Y-99670000D01*
X168977948Y-99729717D01*
X169009315Y-99831004D01*
X169067657Y-99919543D01*
X169148357Y-99988322D01*
X169245022Y-100031896D01*
X169350000Y-100046814D01*
X171150000Y-100046814D01*
X171209717Y-100042052D01*
X171311004Y-100010685D01*
X171399543Y-99952343D01*
X171468322Y-99871643D01*
X171511896Y-99774978D01*
X171526814Y-99670000D01*
X171526814Y-99430000D01*
X171522052Y-99370283D01*
X171500421Y-99300434D01*
X171511896Y-99274978D01*
X171526814Y-99170000D01*
X171526814Y-98930000D01*
X171522052Y-98870283D01*
X171500421Y-98800434D01*
X171511896Y-98774978D01*
X171526814Y-98670000D01*
X171526814Y-98430000D01*
X171522052Y-98370283D01*
X171500421Y-98300434D01*
X171511896Y-98274978D01*
X171526814Y-98170000D01*
X171526814Y-97930000D01*
X171522052Y-97870283D01*
X171500421Y-97800434D01*
X171511896Y-97774978D01*
X171526814Y-97670000D01*
X171526814Y-97430000D01*
X171522052Y-97370283D01*
X171490685Y-97268996D01*
X171432343Y-97180457D01*
X171351643Y-97111678D01*
X171254978Y-97068104D01*
X171150000Y-97053186D01*
X169350000Y-97053186D01*
X169290283Y-97057948D01*
X169188996Y-97089315D01*
X169100457Y-97147657D01*
X169031678Y-97228357D01*
X168988104Y-97325022D01*
X168973186Y-97430000D01*
X168600000Y-97430000D01*
X168600000Y-95930000D01*
X168973186Y-95930000D01*
X168973186Y-96170000D01*
X168977948Y-96229717D01*
X168999579Y-96299566D01*
X168988104Y-96325022D01*
X168973186Y-96430000D01*
X168973186Y-96670000D01*
X168977948Y-96729717D01*
X169009315Y-96831004D01*
X169067657Y-96919543D01*
X169148357Y-96988322D01*
X169245022Y-97031896D01*
X169350000Y-97046814D01*
X171150000Y-97046814D01*
X171209717Y-97042052D01*
X171311004Y-97010685D01*
X171399543Y-96952343D01*
X171468322Y-96871643D01*
X171511896Y-96774978D01*
X171526814Y-96670000D01*
X171526814Y-96430000D01*
X171522052Y-96370283D01*
X171500421Y-96300434D01*
X171511896Y-96274978D01*
X171526814Y-96170000D01*
X171526814Y-95930000D01*
X171522052Y-95870283D01*
X171490685Y-95768996D01*
X171432343Y-95680457D01*
X171351643Y-95611678D01*
X171254978Y-95568104D01*
X171150000Y-95553186D01*
X169350000Y-95553186D01*
X169290283Y-95557948D01*
X169188996Y-95589315D01*
X169100457Y-95647657D01*
X169031678Y-95728357D01*
X168988104Y-95825022D01*
X168973186Y-95930000D01*
X168600000Y-95930000D01*
X168600000Y-92930000D01*
X168973186Y-92930000D01*
X168973186Y-93170000D01*
X168977948Y-93229717D01*
X168999579Y-93299566D01*
X168988104Y-93325022D01*
X168973186Y-93430000D01*
X168973186Y-93670000D01*
X168977948Y-93729717D01*
X168999579Y-93799566D01*
X168988104Y-93825022D01*
X168973186Y-93930000D01*
X168973186Y-94170000D01*
X168977948Y-94229717D01*
X168999579Y-94299566D01*
X168988104Y-94325022D01*
X168973186Y-94430000D01*
X168973186Y-94670000D01*
X168977948Y-94729717D01*
X168999579Y-94799566D01*
X168988104Y-94825022D01*
X168973186Y-94930000D01*
X168973186Y-95170000D01*
X168977948Y-95229717D01*
X169009315Y-95331004D01*
X169067657Y-95419543D01*
X169148357Y-95488322D01*
X169245022Y-95531896D01*
X169350000Y-95546814D01*
X171150000Y-95546814D01*
X171209717Y-95542052D01*
X171311004Y-95510685D01*
X171399543Y-95452343D01*
X171468322Y-95371643D01*
X171511896Y-95274978D01*
X171526814Y-95170000D01*
X171526814Y-94930000D01*
X173973186Y-94930000D01*
X173973186Y-95170000D01*
X173977948Y-95229717D01*
X173999579Y-95299566D01*
X173988104Y-95325022D01*
X173973186Y-95430000D01*
X173973186Y-95670000D01*
X173977948Y-95729717D01*
X173999579Y-95799566D01*
X173988104Y-95825022D01*
X173973186Y-95930000D01*
X173973186Y-96170000D01*
X173977948Y-96229717D01*
X173999579Y-96299566D01*
X173988104Y-96325022D01*
X173973186Y-96430000D01*
X173973186Y-96670000D01*
X173977948Y-96729717D01*
X173999579Y-96799566D01*
X173988104Y-96825022D01*
X173973186Y-96930000D01*
X173973186Y-97170000D01*
X173977948Y-97229717D01*
X173999579Y-97299566D01*
X173988104Y-97325022D01*
X173973186Y-97430000D01*
X173973186Y-97670000D01*
X173977948Y-97729717D01*
X173999579Y-97799566D01*
X173988104Y-97825022D01*
X173973186Y-97930000D01*
X173973186Y-98170000D01*
X173977948Y-98229717D01*
X173999579Y-98299566D01*
X173988104Y-98325022D01*
X173973186Y-98430000D01*
X173973186Y-98670000D01*
X173977948Y-98729717D01*
X173999579Y-98799566D01*
X173988104Y-98825022D01*
X173973186Y-98930000D01*
X173973186Y-99170000D01*
X173977948Y-99229717D01*
X173999579Y-99299566D01*
X173988104Y-99325022D01*
X173973186Y-99430000D01*
X173973186Y-99670000D01*
X173977948Y-99729717D01*
X174009315Y-99831004D01*
X174067657Y-99919543D01*
X174148357Y-99988322D01*
X174245022Y-100031896D01*
X174350000Y-100046814D01*
X176150000Y-100046814D01*
X176209717Y-100042052D01*
X176311004Y-100010685D01*
X176399543Y-99952343D01*
X176468322Y-99871643D01*
X176511896Y-99774978D01*
X176526814Y-99670000D01*
X176526814Y-99430000D01*
X176522052Y-99370283D01*
X176500421Y-99300434D01*
X176511896Y-99274978D01*
X176526814Y-99170000D01*
X176526814Y-98930000D01*
X176522052Y-98870283D01*
X176500421Y-98800434D01*
X176511896Y-98774978D01*
X176526814Y-98670000D01*
X176526814Y-98430000D01*
X176522052Y-98370283D01*
X176500421Y-98300434D01*
X176511896Y-98274978D01*
X176526814Y-98170000D01*
X176526814Y-97930000D01*
X176522052Y-97870283D01*
X176500421Y-97800434D01*
X176511896Y-97774978D01*
X176526814Y-97670000D01*
X176526814Y-97430000D01*
X176522052Y-97370283D01*
X176500421Y-97300434D01*
X176511896Y-97274978D01*
X176526814Y-97170000D01*
X176526814Y-96930000D01*
X176522052Y-96870283D01*
X176500421Y-96800434D01*
X176511896Y-96774978D01*
X176526814Y-96670000D01*
X176526814Y-96430000D01*
X176522052Y-96370283D01*
X176500421Y-96300434D01*
X176511896Y-96274978D01*
X176526814Y-96170000D01*
X176526814Y-95930000D01*
X176522052Y-95870283D01*
X176500421Y-95800434D01*
X176511896Y-95774978D01*
X176526814Y-95670000D01*
X176526814Y-95430000D01*
X176522052Y-95370283D01*
X176500421Y-95300434D01*
X176511896Y-95274978D01*
X176526814Y-95170000D01*
X176526814Y-94930000D01*
X176522052Y-94870283D01*
X176490685Y-94768996D01*
X176432343Y-94680457D01*
X176351643Y-94611678D01*
X176254978Y-94568104D01*
X176150000Y-94553186D01*
X174350000Y-94553186D01*
X174290283Y-94557948D01*
X174188996Y-94589315D01*
X174100457Y-94647657D01*
X174031678Y-94728357D01*
X173988104Y-94825022D01*
X173973186Y-94930000D01*
X171526814Y-94930000D01*
X171522052Y-94870283D01*
X171500421Y-94800434D01*
X171511896Y-94774978D01*
X171526814Y-94670000D01*
X171526814Y-94430000D01*
X171522052Y-94370283D01*
X171500421Y-94300434D01*
X171511896Y-94274978D01*
X171526814Y-94170000D01*
X171526814Y-93930000D01*
X171522052Y-93870283D01*
X171500421Y-93800434D01*
X171511896Y-93774978D01*
X171526814Y-93670000D01*
X171526814Y-93430000D01*
X171522052Y-93370283D01*
X171500421Y-93300434D01*
X171511896Y-93274978D01*
X171526814Y-93170000D01*
X171526814Y-92930000D01*
X173973186Y-92930000D01*
X173973186Y-93170000D01*
X173977948Y-93229717D01*
X173999579Y-93299566D01*
X173988104Y-93325022D01*
X173973186Y-93430000D01*
X173973186Y-93670000D01*
X173977948Y-93729717D01*
X173999579Y-93799566D01*
X173988104Y-93825022D01*
X173973186Y-93930000D01*
X173973186Y-94170000D01*
X173977948Y-94229717D01*
X174009315Y-94331004D01*
X174067657Y-94419543D01*
X174148357Y-94488322D01*
X174245022Y-94531896D01*
X174350000Y-94546814D01*
X176150000Y-94546814D01*
X176209717Y-94542052D01*
X176311004Y-94510685D01*
X176399543Y-94452343D01*
X176468322Y-94371643D01*
X176511896Y-94274978D01*
X176526814Y-94170000D01*
X176526814Y-94081448D01*
X180629103Y-94081448D01*
X180650771Y-94319542D01*
X180718273Y-94548893D01*
X180829037Y-94760765D01*
X180978844Y-94947088D01*
X181161988Y-95100764D01*
X181360000Y-95209622D01*
X181360000Y-95511926D01*
X181176168Y-95609671D01*
X180990896Y-95760776D01*
X180838502Y-95944989D01*
X180724791Y-96155293D01*
X180654093Y-96383680D01*
X180629103Y-96621448D01*
X180650771Y-96859542D01*
X180718273Y-97088893D01*
X180829037Y-97300765D01*
X180978844Y-97487088D01*
X181161988Y-97640764D01*
X181360000Y-97749622D01*
X181360000Y-98051926D01*
X181176168Y-98149671D01*
X180990896Y-98300776D01*
X180838502Y-98484989D01*
X180724791Y-98695293D01*
X180654093Y-98923680D01*
X180629103Y-99161448D01*
X180650771Y-99399542D01*
X180718273Y-99628893D01*
X180829037Y-99840765D01*
X180978844Y-100027088D01*
X181161988Y-100180764D01*
X181371494Y-100295941D01*
X181599381Y-100368231D01*
X181836969Y-100394881D01*
X181854073Y-100395000D01*
X181865927Y-100395000D01*
X182103864Y-100371670D01*
X182332738Y-100302569D01*
X182543832Y-100190329D01*
X182729104Y-100039224D01*
X182881498Y-99855011D01*
X182995209Y-99644707D01*
X183065907Y-99416320D01*
X183090897Y-99178552D01*
X183089341Y-99161448D01*
X183169103Y-99161448D01*
X183190771Y-99399542D01*
X183258273Y-99628893D01*
X183369037Y-99840765D01*
X183518844Y-100027088D01*
X183701988Y-100180764D01*
X183911494Y-100295941D01*
X184139381Y-100368231D01*
X184376969Y-100394881D01*
X184394073Y-100395000D01*
X184405927Y-100395000D01*
X184643864Y-100371670D01*
X184872738Y-100302569D01*
X185083832Y-100190329D01*
X185269104Y-100039224D01*
X185421498Y-99855011D01*
X185535209Y-99644707D01*
X185605907Y-99416320D01*
X185630897Y-99178552D01*
X185609229Y-98940458D01*
X185541727Y-98711107D01*
X185430963Y-98499235D01*
X185281156Y-98312912D01*
X185098012Y-98159236D01*
X184888506Y-98044059D01*
X184660619Y-97971769D01*
X184423031Y-97945119D01*
X184405927Y-97945000D01*
X184394073Y-97945000D01*
X184156136Y-97968330D01*
X183927262Y-98037431D01*
X183716168Y-98149671D01*
X183530896Y-98300776D01*
X183378502Y-98484989D01*
X183264791Y-98695293D01*
X183194093Y-98923680D01*
X183169103Y-99161448D01*
X183089341Y-99161448D01*
X183069229Y-98940458D01*
X183001727Y-98711107D01*
X182890963Y-98499235D01*
X182741156Y-98312912D01*
X182558012Y-98159236D01*
X182360000Y-98050378D01*
X182360000Y-97748074D01*
X182543832Y-97650329D01*
X182729104Y-97499224D01*
X182881498Y-97315011D01*
X182995209Y-97104707D01*
X183065907Y-96876320D01*
X183090897Y-96638552D01*
X183089341Y-96621448D01*
X183169103Y-96621448D01*
X183190771Y-96859542D01*
X183258273Y-97088893D01*
X183369037Y-97300765D01*
X183518844Y-97487088D01*
X183701988Y-97640764D01*
X183911494Y-97755941D01*
X184139381Y-97828231D01*
X184376969Y-97854881D01*
X184394073Y-97855000D01*
X184405927Y-97855000D01*
X184643864Y-97831670D01*
X184872738Y-97762569D01*
X185083832Y-97650329D01*
X185269104Y-97499224D01*
X185421498Y-97315011D01*
X185535209Y-97104707D01*
X185605907Y-96876320D01*
X185630897Y-96638552D01*
X185609229Y-96400458D01*
X185541727Y-96171107D01*
X185430963Y-95959235D01*
X185281156Y-95772912D01*
X185098012Y-95619236D01*
X184888506Y-95504059D01*
X184660619Y-95431769D01*
X184423031Y-95405119D01*
X184405927Y-95405000D01*
X184394073Y-95405000D01*
X184156136Y-95428330D01*
X183927262Y-95497431D01*
X183716168Y-95609671D01*
X183530896Y-95760776D01*
X183378502Y-95944989D01*
X183264791Y-96155293D01*
X183194093Y-96383680D01*
X183169103Y-96621448D01*
X183089341Y-96621448D01*
X183069229Y-96400458D01*
X183001727Y-96171107D01*
X182890963Y-95959235D01*
X182741156Y-95772912D01*
X182558012Y-95619236D01*
X182360000Y-95510378D01*
X182360000Y-95208074D01*
X182543832Y-95110329D01*
X182729104Y-94959224D01*
X182881498Y-94775011D01*
X182995209Y-94564707D01*
X183065907Y-94336320D01*
X183090897Y-94098552D01*
X183089341Y-94081448D01*
X183169103Y-94081448D01*
X183190771Y-94319542D01*
X183258273Y-94548893D01*
X183369037Y-94760765D01*
X183518844Y-94947088D01*
X183701988Y-95100764D01*
X183911494Y-95215941D01*
X184139381Y-95288231D01*
X184376969Y-95314881D01*
X184394073Y-95315000D01*
X184405927Y-95315000D01*
X184643864Y-95291670D01*
X184872738Y-95222569D01*
X185083832Y-95110329D01*
X185269104Y-94959224D01*
X185421498Y-94775011D01*
X185535209Y-94564707D01*
X185605907Y-94336320D01*
X185630897Y-94098552D01*
X185609229Y-93860458D01*
X185541727Y-93631107D01*
X185430963Y-93419235D01*
X185281156Y-93232912D01*
X185098012Y-93079236D01*
X184888506Y-92964059D01*
X184660619Y-92891769D01*
X184423031Y-92865119D01*
X184405927Y-92865000D01*
X184394073Y-92865000D01*
X184156136Y-92888330D01*
X183927262Y-92957431D01*
X183716168Y-93069671D01*
X183530896Y-93220776D01*
X183378502Y-93404989D01*
X183264791Y-93615293D01*
X183194093Y-93843680D01*
X183169103Y-94081448D01*
X183089341Y-94081448D01*
X183069229Y-93860458D01*
X183001727Y-93631107D01*
X182890963Y-93419235D01*
X182741156Y-93232912D01*
X182558012Y-93079236D01*
X182348506Y-92964059D01*
X182120619Y-92891769D01*
X181883031Y-92865119D01*
X181865927Y-92865000D01*
X181854073Y-92865000D01*
X181616136Y-92888330D01*
X181387262Y-92957431D01*
X181176168Y-93069671D01*
X180990896Y-93220776D01*
X180838502Y-93404989D01*
X180724791Y-93615293D01*
X180654093Y-93843680D01*
X180629103Y-94081448D01*
X176526814Y-94081448D01*
X176526814Y-93930000D01*
X176522052Y-93870283D01*
X176500421Y-93800434D01*
X176511896Y-93774978D01*
X176526814Y-93670000D01*
X176526814Y-93430000D01*
X176522052Y-93370283D01*
X176500421Y-93300434D01*
X176511896Y-93274978D01*
X176526814Y-93170000D01*
X176526814Y-92930000D01*
X176522052Y-92870283D01*
X176490685Y-92768996D01*
X176432343Y-92680457D01*
X176351643Y-92611678D01*
X176254978Y-92568104D01*
X176150000Y-92553186D01*
X174350000Y-92553186D01*
X174290283Y-92557948D01*
X174188996Y-92589315D01*
X174100457Y-92647657D01*
X174031678Y-92728357D01*
X173988104Y-92825022D01*
X173973186Y-92930000D01*
X171526814Y-92930000D01*
X171522052Y-92870283D01*
X171490685Y-92768996D01*
X171432343Y-92680457D01*
X171351643Y-92611678D01*
X171254978Y-92568104D01*
X171150000Y-92553186D01*
X169350000Y-92553186D01*
X169290283Y-92557948D01*
X169188996Y-92589315D01*
X169100457Y-92647657D01*
X169031678Y-92728357D01*
X168988104Y-92825022D01*
X168973186Y-92930000D01*
X168600000Y-92930000D01*
X168600000Y-85928676D01*
X169572207Y-85928676D01*
X169647435Y-86338563D01*
X169800845Y-86726033D01*
X170026593Y-87076326D01*
X170316081Y-87376099D01*
X170658282Y-87613935D01*
X171040162Y-87780774D01*
X171447174Y-87870261D01*
X171863817Y-87878989D01*
X172274220Y-87806624D01*
X172662751Y-87655922D01*
X173014611Y-87432625D01*
X173316398Y-87145237D01*
X173433893Y-86978676D01*
X182472207Y-86978676D01*
X182547435Y-87388563D01*
X182700845Y-87776033D01*
X182926593Y-88126326D01*
X183216081Y-88426099D01*
X183558282Y-88663935D01*
X183940162Y-88830774D01*
X184347174Y-88920261D01*
X184763817Y-88928989D01*
X185174220Y-88856624D01*
X185562751Y-88705922D01*
X185914611Y-88482625D01*
X186216398Y-88195237D01*
X186456617Y-87854705D01*
X186626118Y-87474000D01*
X186718445Y-87067622D01*
X186725091Y-86591633D01*
X186644147Y-86182836D01*
X186485342Y-85797546D01*
X186254725Y-85450439D01*
X185961080Y-85154737D01*
X185615592Y-84921702D01*
X185231420Y-84760211D01*
X184823198Y-84676415D01*
X184406474Y-84673506D01*
X183997121Y-84751594D01*
X183610732Y-84907705D01*
X183262024Y-85135894D01*
X182964279Y-85427467D01*
X182728838Y-85771320D01*
X182564669Y-86154355D01*
X182478025Y-86561982D01*
X182472207Y-86978676D01*
X173433893Y-86978676D01*
X173556617Y-86804705D01*
X173726118Y-86424000D01*
X173818445Y-86017622D01*
X173825091Y-85541633D01*
X173744147Y-85132836D01*
X173585342Y-84747546D01*
X173354725Y-84400439D01*
X173061080Y-84104737D01*
X172715592Y-83871702D01*
X172331420Y-83710211D01*
X171923198Y-83626415D01*
X171506474Y-83623506D01*
X171097121Y-83701594D01*
X170710732Y-83857705D01*
X170362024Y-84085894D01*
X170064279Y-84377467D01*
X169828838Y-84721320D01*
X169664669Y-85104355D01*
X169578025Y-85511982D01*
X169572207Y-85928676D01*
X168600000Y-85928676D01*
X168600000Y-83512217D01*
X168609133Y-83344156D01*
X168642850Y-83211978D01*
X168701597Y-83088871D01*
X168783136Y-82979519D01*
X168884363Y-82888086D01*
X169001425Y-82818055D01*
X169129854Y-82772097D01*
X169281006Y-82749536D01*
X169305660Y-82748914D01*
X193749980Y-82750000D01*
X193765438Y-82748485D01*
X193768225Y-82748952D01*
X193768225Y-82748952D01*
G37*
X193768225Y-82748952D02*
X193774496Y-82749337D01*
X193954758Y-82759133D01*
X194086936Y-82792850D01*
X194210043Y-82851597D01*
X194319395Y-82933136D01*
X194410828Y-83034363D01*
X194480859Y-83151425D01*
X194526817Y-83279854D01*
X194549378Y-83431006D01*
X194550000Y-83455670D01*
X194550000Y-120437783D01*
X194540867Y-120605844D01*
X194507149Y-120738023D01*
X194448403Y-120861129D01*
X194366863Y-120970482D01*
X194265635Y-121061916D01*
X194148577Y-121131944D01*
X194020145Y-121177903D01*
X193868994Y-121200464D01*
X193861674Y-121200649D01*
X193856283Y-121200044D01*
X193850000Y-121200000D01*
X169363303Y-121200000D01*
X169195242Y-121190867D01*
X169063063Y-121157149D01*
X168939957Y-121098403D01*
X168830604Y-121016863D01*
X168739170Y-120915635D01*
X168669142Y-120798577D01*
X168623183Y-120670145D01*
X168600622Y-120518994D01*
X168600000Y-120494330D01*
X168600000Y-115930000D01*
X168973186Y-115930000D01*
X168973186Y-116170000D01*
X168977948Y-116229717D01*
X168999579Y-116299566D01*
X168988104Y-116325022D01*
X168973186Y-116430000D01*
X168973186Y-116670000D01*
X168977948Y-116729717D01*
X168999579Y-116799566D01*
X168988104Y-116825022D01*
X168973186Y-116930000D01*
X168973186Y-117170000D01*
X168977948Y-117229717D01*
X168999579Y-117299566D01*
X168988104Y-117325022D01*
X168973186Y-117430000D01*
X168973186Y-117670000D01*
X168977948Y-117729717D01*
X169009315Y-117831004D01*
X169067657Y-117919543D01*
X169148357Y-117988322D01*
X169245022Y-118031896D01*
X169350000Y-118046814D01*
X171150000Y-118046814D01*
X171209717Y-118042052D01*
X171311004Y-118010685D01*
X171399543Y-117952343D01*
X171468322Y-117871643D01*
X171511896Y-117774978D01*
X171526814Y-117670000D01*
X171526814Y-117430000D01*
X171522052Y-117370283D01*
X171500421Y-117300434D01*
X171511896Y-117274978D01*
X171526814Y-117170000D01*
X171526814Y-116930000D01*
X171522052Y-116870283D01*
X171500421Y-116800434D01*
X171511896Y-116774978D01*
X171526814Y-116670000D01*
X171526814Y-116430000D01*
X171522052Y-116370283D01*
X171500421Y-116300434D01*
X171511896Y-116274978D01*
X171526814Y-116170000D01*
X171526814Y-115930000D01*
X173973186Y-115930000D01*
X173973186Y-116170000D01*
X173977948Y-116229717D01*
X173999579Y-116299566D01*
X173988104Y-116325022D01*
X173973186Y-116430000D01*
X173973186Y-116670000D01*
X173977948Y-116729717D01*
X173999579Y-116799566D01*
X173988104Y-116825022D01*
X173973186Y-116930000D01*
X173973186Y-117170000D01*
X173977948Y-117229717D01*
X173999579Y-117299566D01*
X173988104Y-117325022D01*
X173973186Y-117430000D01*
X173973186Y-117670000D01*
X173977948Y-117729717D01*
X174009315Y-117831004D01*
X174067657Y-117919543D01*
X174148357Y-117988322D01*
X174245022Y-118031896D01*
X174350000Y-118046814D01*
X176150000Y-118046814D01*
X176209717Y-118042052D01*
X176311004Y-118010685D01*
X176399543Y-117952343D01*
X176468322Y-117871643D01*
X176511896Y-117774978D01*
X176526814Y-117670000D01*
X176526814Y-117430000D01*
X176522052Y-117370283D01*
X176500421Y-117300434D01*
X176511896Y-117274978D01*
X176526814Y-117170000D01*
X176526814Y-116930000D01*
X176522052Y-116870283D01*
X176500421Y-116800434D01*
X176511896Y-116774978D01*
X176526814Y-116670000D01*
X176526814Y-116430000D01*
X176522052Y-116370283D01*
X176500421Y-116300434D01*
X176511896Y-116274978D01*
X176526814Y-116170000D01*
X176526814Y-116100000D01*
X180633186Y-116100000D01*
X180633186Y-117800000D01*
X180637948Y-117859717D01*
X180669315Y-117961004D01*
X180727657Y-118049543D01*
X180808357Y-118118322D01*
X180905022Y-118161896D01*
X181010000Y-118176814D01*
X182710000Y-118176814D01*
X182769717Y-118172052D01*
X182871004Y-118140685D01*
X182959543Y-118082343D01*
X183028322Y-118001643D01*
X183071896Y-117904978D01*
X183086814Y-117800000D01*
X183086814Y-116941448D01*
X183169103Y-116941448D01*
X183190771Y-117179542D01*
X183258273Y-117408893D01*
X183369037Y-117620765D01*
X183518844Y-117807088D01*
X183701988Y-117960764D01*
X183911494Y-118075941D01*
X184139381Y-118148231D01*
X184376969Y-118174881D01*
X184394073Y-118175000D01*
X184405927Y-118175000D01*
X184643864Y-118151670D01*
X184872738Y-118082569D01*
X185083832Y-117970329D01*
X185269104Y-117819224D01*
X185421498Y-117635011D01*
X185535209Y-117424707D01*
X185605907Y-117196320D01*
X185630897Y-116958552D01*
X185609229Y-116720458D01*
X185541727Y-116491107D01*
X185430963Y-116279235D01*
X185281156Y-116092912D01*
X185098012Y-115939236D01*
X184888506Y-115824059D01*
X184660619Y-115751769D01*
X184423031Y-115725119D01*
X184405927Y-115725000D01*
X184394073Y-115725000D01*
X184156136Y-115748330D01*
X183927262Y-115817431D01*
X183716168Y-115929671D01*
X183530896Y-116080776D01*
X183378502Y-116264989D01*
X183264791Y-116475293D01*
X183194093Y-116703680D01*
X183169103Y-116941448D01*
X183086814Y-116941448D01*
X183086814Y-116100000D01*
X183082052Y-116040283D01*
X183050685Y-115938996D01*
X182992343Y-115850457D01*
X182911643Y-115781678D01*
X182814978Y-115738104D01*
X182710000Y-115723186D01*
X181010000Y-115723186D01*
X180950283Y-115727948D01*
X180848996Y-115759315D01*
X180760457Y-115817657D01*
X180691678Y-115898357D01*
X180648104Y-115995022D01*
X180633186Y-116100000D01*
X176526814Y-116100000D01*
X176526814Y-115930000D01*
X176522052Y-115870283D01*
X176490685Y-115768996D01*
X176432343Y-115680457D01*
X176351643Y-115611678D01*
X176254978Y-115568104D01*
X176150000Y-115553186D01*
X174350000Y-115553186D01*
X174290283Y-115557948D01*
X174188996Y-115589315D01*
X174100457Y-115647657D01*
X174031678Y-115728357D01*
X173988104Y-115825022D01*
X173973186Y-115930000D01*
X171526814Y-115930000D01*
X171522052Y-115870283D01*
X171490685Y-115768996D01*
X171432343Y-115680457D01*
X171351643Y-115611678D01*
X171254978Y-115568104D01*
X171150000Y-115553186D01*
X169350000Y-115553186D01*
X169290283Y-115557948D01*
X169188996Y-115589315D01*
X169100457Y-115647657D01*
X169031678Y-115728357D01*
X168988104Y-115825022D01*
X168973186Y-115930000D01*
X168600000Y-115930000D01*
X168600000Y-112930000D01*
X168973186Y-112930000D01*
X168973186Y-113170000D01*
X168977948Y-113229717D01*
X168999579Y-113299566D01*
X168988104Y-113325022D01*
X168973186Y-113430000D01*
X168973186Y-113670000D01*
X168977948Y-113729717D01*
X168999579Y-113799566D01*
X168988104Y-113825022D01*
X168973186Y-113930000D01*
X168973186Y-114170000D01*
X168977948Y-114229717D01*
X168999579Y-114299566D01*
X168988104Y-114325022D01*
X168973186Y-114430000D01*
X168973186Y-114670000D01*
X168977948Y-114729717D01*
X168999579Y-114799566D01*
X168988104Y-114825022D01*
X168973186Y-114930000D01*
X168973186Y-115170000D01*
X168977948Y-115229717D01*
X169009315Y-115331004D01*
X169067657Y-115419543D01*
X169148357Y-115488322D01*
X169245022Y-115531896D01*
X169350000Y-115546814D01*
X171150000Y-115546814D01*
X171209717Y-115542052D01*
X171311004Y-115510685D01*
X171399543Y-115452343D01*
X171468322Y-115371643D01*
X171511896Y-115274978D01*
X171526814Y-115170000D01*
X171526814Y-114930000D01*
X171522052Y-114870283D01*
X171500421Y-114800434D01*
X171511896Y-114774978D01*
X171526814Y-114670000D01*
X171526814Y-114430000D01*
X171522052Y-114370283D01*
X171500421Y-114300434D01*
X171511896Y-114274978D01*
X171526814Y-114170000D01*
X171526814Y-113930000D01*
X171522052Y-113870283D01*
X171500421Y-113800434D01*
X171511896Y-113774978D01*
X171526814Y-113670000D01*
X171526814Y-113430000D01*
X173973186Y-113430000D01*
X173973186Y-113670000D01*
X173977948Y-113729717D01*
X173999579Y-113799566D01*
X173988104Y-113825022D01*
X173973186Y-113930000D01*
X173973186Y-114170000D01*
X173977948Y-114229717D01*
X173999579Y-114299566D01*
X173988104Y-114325022D01*
X173973186Y-114430000D01*
X173973186Y-114670000D01*
X173977948Y-114729717D01*
X173999579Y-114799566D01*
X173988104Y-114825022D01*
X173973186Y-114930000D01*
X173973186Y-115170000D01*
X173977948Y-115229717D01*
X174009315Y-115331004D01*
X174067657Y-115419543D01*
X174148357Y-115488322D01*
X174245022Y-115531896D01*
X174350000Y-115546814D01*
X176150000Y-115546814D01*
X176209717Y-115542052D01*
X176311004Y-115510685D01*
X176399543Y-115452343D01*
X176468322Y-115371643D01*
X176511896Y-115274978D01*
X176526814Y-115170000D01*
X176526814Y-114930000D01*
X176522052Y-114870283D01*
X176500421Y-114800434D01*
X176511896Y-114774978D01*
X176526814Y-114670000D01*
X176526814Y-114430000D01*
X176524538Y-114401448D01*
X180629103Y-114401448D01*
X180650771Y-114639542D01*
X180718273Y-114868893D01*
X180829037Y-115080765D01*
X180978844Y-115267088D01*
X181161988Y-115420764D01*
X181371494Y-115535941D01*
X181599381Y-115608231D01*
X181836969Y-115634881D01*
X181854073Y-115635000D01*
X181865927Y-115635000D01*
X182103864Y-115611670D01*
X182332738Y-115542569D01*
X182543832Y-115430329D01*
X182729104Y-115279224D01*
X182881498Y-115095011D01*
X182995209Y-114884707D01*
X183065907Y-114656320D01*
X183090897Y-114418552D01*
X183069229Y-114180458D01*
X183001727Y-113951107D01*
X182890963Y-113739235D01*
X182741156Y-113552912D01*
X182558012Y-113399236D01*
X182348506Y-113284059D01*
X182120619Y-113211769D01*
X181883031Y-113185119D01*
X181865927Y-113185000D01*
X181854073Y-113185000D01*
X181616136Y-113208330D01*
X181387262Y-113277431D01*
X181176168Y-113389671D01*
X180990896Y-113540776D01*
X180838502Y-113724989D01*
X180724791Y-113935293D01*
X180654093Y-114163680D01*
X180629103Y-114401448D01*
X176524538Y-114401448D01*
X176522052Y-114370283D01*
X176500421Y-114300434D01*
X176511896Y-114274978D01*
X176526814Y-114170000D01*
X176526814Y-113930000D01*
X176522052Y-113870283D01*
X176500421Y-113800434D01*
X176511896Y-113774978D01*
X176526814Y-113670000D01*
X176526814Y-113430000D01*
X176522052Y-113370283D01*
X176490685Y-113268996D01*
X176432343Y-113180457D01*
X176351643Y-113111678D01*
X176254978Y-113068104D01*
X176150000Y-113053186D01*
X174350000Y-113053186D01*
X174290283Y-113057948D01*
X174188996Y-113089315D01*
X174100457Y-113147657D01*
X174031678Y-113228357D01*
X173988104Y-113325022D01*
X173973186Y-113430000D01*
X171526814Y-113430000D01*
X171522052Y-113370283D01*
X171500421Y-113300434D01*
X171511896Y-113274978D01*
X171526814Y-113170000D01*
X171526814Y-112930000D01*
X171522052Y-112870283D01*
X171490685Y-112768996D01*
X171432343Y-112680457D01*
X171351643Y-112611678D01*
X171254978Y-112568104D01*
X171150000Y-112553186D01*
X169350000Y-112553186D01*
X169290283Y-112557948D01*
X169188996Y-112589315D01*
X169100457Y-112647657D01*
X169031678Y-112728357D01*
X168988104Y-112825022D01*
X168973186Y-112930000D01*
X168600000Y-112930000D01*
X168600000Y-109930000D01*
X168973186Y-109930000D01*
X168973186Y-110170000D01*
X168977948Y-110229717D01*
X168999579Y-110299566D01*
X168988104Y-110325022D01*
X168973186Y-110430000D01*
X168973186Y-110670000D01*
X168977948Y-110729717D01*
X168999579Y-110799566D01*
X168988104Y-110825022D01*
X168973186Y-110930000D01*
X168973186Y-111170000D01*
X168977948Y-111229717D01*
X168999579Y-111299566D01*
X168988104Y-111325022D01*
X168973186Y-111430000D01*
X168973186Y-111670000D01*
X168977948Y-111729717D01*
X168999579Y-111799566D01*
X168988104Y-111825022D01*
X168973186Y-111930000D01*
X168973186Y-112170000D01*
X168977948Y-112229717D01*
X169009315Y-112331004D01*
X169067657Y-112419543D01*
X169148357Y-112488322D01*
X169245022Y-112531896D01*
X169350000Y-112546814D01*
X171150000Y-112546814D01*
X171209717Y-112542052D01*
X171311004Y-112510685D01*
X171342395Y-112490000D01*
X172017746Y-112490000D01*
X172274269Y-112746523D01*
X172274244Y-112748348D01*
X172294600Y-112859258D01*
X172336111Y-112964103D01*
X172397196Y-113058888D01*
X172475528Y-113140003D01*
X172568123Y-113204359D01*
X172671456Y-113249503D01*
X172781588Y-113273718D01*
X172894327Y-113276079D01*
X173005377Y-113256498D01*
X173110509Y-113215720D01*
X173205718Y-113155298D01*
X173287378Y-113077535D01*
X173352379Y-112985391D01*
X173398243Y-112882376D01*
X173423226Y-112772415D01*
X173425024Y-112643618D01*
X173403122Y-112533003D01*
X173394464Y-112511997D01*
X173454041Y-112427542D01*
X173499905Y-112324527D01*
X173524888Y-112214566D01*
X173526686Y-112085769D01*
X173504784Y-111975154D01*
X173461813Y-111870899D01*
X173399411Y-111776976D01*
X173319954Y-111696962D01*
X173287098Y-111674801D01*
X173310509Y-111665720D01*
X173405718Y-111605298D01*
X173487378Y-111527535D01*
X173552379Y-111435391D01*
X173598243Y-111332376D01*
X173623226Y-111222415D01*
X173625024Y-111093618D01*
X173603122Y-110983003D01*
X173560151Y-110878748D01*
X173497749Y-110784825D01*
X173418292Y-110704811D01*
X173324807Y-110641755D01*
X173276842Y-110621592D01*
X173302379Y-110585391D01*
X173348243Y-110482376D01*
X173357045Y-110443633D01*
X173376666Y-110454420D01*
X173378872Y-110455120D01*
X173380911Y-110456213D01*
X173419758Y-110468090D01*
X173458519Y-110480385D01*
X173460820Y-110480643D01*
X173463031Y-110481319D01*
X173503482Y-110485428D01*
X173543857Y-110489957D01*
X173548373Y-110489989D01*
X173548465Y-110489998D01*
X173548551Y-110489990D01*
X173550000Y-110490000D01*
X173973186Y-110490000D01*
X173973186Y-110670000D01*
X173977948Y-110729717D01*
X173999579Y-110799566D01*
X173988104Y-110825022D01*
X173973186Y-110930000D01*
X173973186Y-111170000D01*
X173977948Y-111229717D01*
X173999579Y-111299566D01*
X173988104Y-111325022D01*
X173973186Y-111430000D01*
X173973186Y-111670000D01*
X173977948Y-111729717D01*
X173999579Y-111799566D01*
X173988104Y-111825022D01*
X173973186Y-111930000D01*
X173973186Y-112170000D01*
X173977948Y-112229717D01*
X173999579Y-112299566D01*
X173988104Y-112325022D01*
X173973186Y-112430000D01*
X173973186Y-112670000D01*
X173977948Y-112729717D01*
X174009315Y-112831004D01*
X174067657Y-112919543D01*
X174148357Y-112988322D01*
X174245022Y-113031896D01*
X174350000Y-113046814D01*
X176150000Y-113046814D01*
X176209717Y-113042052D01*
X176311004Y-113010685D01*
X176399543Y-112952343D01*
X176468322Y-112871643D01*
X176511896Y-112774978D01*
X176526814Y-112670000D01*
X176526814Y-112430000D01*
X176522052Y-112370283D01*
X176500421Y-112300434D01*
X176511896Y-112274978D01*
X176526814Y-112170000D01*
X176526814Y-111930000D01*
X176522052Y-111870283D01*
X176519316Y-111861448D01*
X180629103Y-111861448D01*
X180650771Y-112099542D01*
X180718273Y-112328893D01*
X180829037Y-112540765D01*
X180978844Y-112727088D01*
X181161988Y-112880764D01*
X181371494Y-112995941D01*
X181599381Y-113068231D01*
X181836969Y-113094881D01*
X181854073Y-113095000D01*
X181865927Y-113095000D01*
X182103864Y-113071670D01*
X182332738Y-113002569D01*
X182543832Y-112890329D01*
X182729104Y-112739224D01*
X182881498Y-112555011D01*
X182995209Y-112344707D01*
X183065907Y-112116320D01*
X183090897Y-111878552D01*
X183069229Y-111640458D01*
X183001727Y-111411107D01*
X182890963Y-111199235D01*
X182741156Y-111012912D01*
X182558012Y-110859236D01*
X182348506Y-110744059D01*
X182120619Y-110671769D01*
X181883031Y-110645119D01*
X181865927Y-110645000D01*
X181854073Y-110645000D01*
X181616136Y-110668330D01*
X181387262Y-110737431D01*
X181176168Y-110849671D01*
X180990896Y-111000776D01*
X180838502Y-111184989D01*
X180724791Y-111395293D01*
X180654093Y-111623680D01*
X180629103Y-111861448D01*
X176519316Y-111861448D01*
X176500421Y-111800434D01*
X176511896Y-111774978D01*
X176526814Y-111670000D01*
X176526814Y-111430000D01*
X176522052Y-111370283D01*
X176500421Y-111300434D01*
X176511896Y-111274978D01*
X176526814Y-111170000D01*
X176526814Y-110930000D01*
X176522052Y-110870283D01*
X176500421Y-110800434D01*
X176511896Y-110774978D01*
X176526814Y-110670000D01*
X176526814Y-110430000D01*
X176522052Y-110370283D01*
X176500421Y-110300434D01*
X176511896Y-110274978D01*
X176526814Y-110170000D01*
X176526814Y-109930000D01*
X176522052Y-109870283D01*
X176500421Y-109800434D01*
X176511896Y-109774978D01*
X176526814Y-109670000D01*
X176526814Y-109430000D01*
X176522052Y-109370283D01*
X176506929Y-109321448D01*
X180629103Y-109321448D01*
X180650771Y-109559542D01*
X180718273Y-109788893D01*
X180829037Y-110000765D01*
X180978844Y-110187088D01*
X181161988Y-110340764D01*
X181371494Y-110455941D01*
X181599381Y-110528231D01*
X181836969Y-110554881D01*
X181854073Y-110555000D01*
X181865927Y-110555000D01*
X182103864Y-110531670D01*
X182332738Y-110462569D01*
X182543832Y-110350329D01*
X182729104Y-110199224D01*
X182881498Y-110015011D01*
X182995209Y-109804707D01*
X183065907Y-109576320D01*
X183090897Y-109338552D01*
X183069229Y-109100458D01*
X183001727Y-108871107D01*
X182890963Y-108659235D01*
X182741156Y-108472912D01*
X182558012Y-108319236D01*
X182348506Y-108204059D01*
X182120619Y-108131769D01*
X181883031Y-108105119D01*
X181865927Y-108105000D01*
X181854073Y-108105000D01*
X181616136Y-108128330D01*
X181387262Y-108197431D01*
X181176168Y-108309671D01*
X180990896Y-108460776D01*
X180838502Y-108644989D01*
X180724791Y-108855293D01*
X180654093Y-109083680D01*
X180629103Y-109321448D01*
X176506929Y-109321448D01*
X176500421Y-109300434D01*
X176511896Y-109274978D01*
X176526814Y-109170000D01*
X176526814Y-108930000D01*
X176522052Y-108870283D01*
X176500421Y-108800434D01*
X176511896Y-108774978D01*
X176526814Y-108670000D01*
X176526814Y-108430000D01*
X176522052Y-108370283D01*
X176500421Y-108300434D01*
X176511896Y-108274978D01*
X176526814Y-108170000D01*
X176526814Y-107930000D01*
X176522052Y-107870283D01*
X176500421Y-107800434D01*
X176511896Y-107774978D01*
X176526814Y-107670000D01*
X176526814Y-107430000D01*
X176522052Y-107370283D01*
X176500421Y-107300434D01*
X176511896Y-107274978D01*
X176526814Y-107170000D01*
X176526814Y-106930000D01*
X176522052Y-106870283D01*
X176500421Y-106800434D01*
X176508979Y-106781448D01*
X180629103Y-106781448D01*
X180650771Y-107019542D01*
X180718273Y-107248893D01*
X180829037Y-107460765D01*
X180978844Y-107647088D01*
X181161988Y-107800764D01*
X181371494Y-107915941D01*
X181599381Y-107988231D01*
X181836969Y-108014881D01*
X181854073Y-108015000D01*
X181865927Y-108015000D01*
X182103864Y-107991670D01*
X182332738Y-107922569D01*
X182543832Y-107810329D01*
X182729104Y-107659224D01*
X182881498Y-107475011D01*
X182995209Y-107264707D01*
X183065907Y-107036320D01*
X183090897Y-106798552D01*
X183069229Y-106560458D01*
X183001727Y-106331107D01*
X182890963Y-106119235D01*
X182741156Y-105932912D01*
X182558012Y-105779236D01*
X182348506Y-105664059D01*
X182120619Y-105591769D01*
X181883031Y-105565119D01*
X181865927Y-105565000D01*
X181854073Y-105565000D01*
X181616136Y-105588330D01*
X181387262Y-105657431D01*
X181176168Y-105769671D01*
X180990896Y-105920776D01*
X180838502Y-106104989D01*
X180724791Y-106315293D01*
X180654093Y-106543680D01*
X180629103Y-106781448D01*
X176508979Y-106781448D01*
X176511896Y-106774978D01*
X176526814Y-106670000D01*
X176526814Y-106430000D01*
X176522052Y-106370283D01*
X176500421Y-106300434D01*
X176511896Y-106274978D01*
X176526814Y-106170000D01*
X176526814Y-105930000D01*
X176522052Y-105870283D01*
X176490685Y-105768996D01*
X176432343Y-105680457D01*
X176351643Y-105611678D01*
X176254978Y-105568104D01*
X176150000Y-105553186D01*
X174350000Y-105553186D01*
X174290283Y-105557948D01*
X174188996Y-105589315D01*
X174100457Y-105647657D01*
X174031678Y-105728357D01*
X173988104Y-105825022D01*
X173973186Y-105930000D01*
X173973186Y-106170000D01*
X173977948Y-106229717D01*
X173999579Y-106299566D01*
X173988104Y-106325022D01*
X173973186Y-106430000D01*
X173973186Y-106670000D01*
X173977948Y-106729717D01*
X173999579Y-106799566D01*
X173988104Y-106825022D01*
X173973186Y-106930000D01*
X173973186Y-107170000D01*
X173977948Y-107229717D01*
X173999579Y-107299566D01*
X173988104Y-107325022D01*
X173973186Y-107430000D01*
X173973186Y-107670000D01*
X173977948Y-107729717D01*
X173999579Y-107799566D01*
X173988104Y-107825022D01*
X173973186Y-107930000D01*
X173973186Y-108170000D01*
X173977948Y-108229717D01*
X173999579Y-108299566D01*
X173988104Y-108325022D01*
X173973186Y-108430000D01*
X173973186Y-108670000D01*
X173977948Y-108729717D01*
X173999579Y-108799566D01*
X173990954Y-108818700D01*
X173324898Y-108152644D01*
X173325024Y-108143618D01*
X173303122Y-108033003D01*
X173260151Y-107928748D01*
X173197749Y-107834825D01*
X173118292Y-107754811D01*
X173024807Y-107691755D01*
X172920855Y-107648057D01*
X172810395Y-107625383D01*
X172697634Y-107624596D01*
X172586868Y-107645726D01*
X172482316Y-107687968D01*
X172387960Y-107749713D01*
X172307393Y-107828609D01*
X172243686Y-107921651D01*
X172199264Y-108025296D01*
X172175819Y-108135595D01*
X172174244Y-108248348D01*
X172194600Y-108359258D01*
X172236111Y-108464103D01*
X172297196Y-108558888D01*
X172375528Y-108640003D01*
X172468123Y-108704359D01*
X172571456Y-108749503D01*
X172681588Y-108773718D01*
X172701889Y-108774143D01*
X172767608Y-108839862D01*
X172736868Y-108845726D01*
X172632316Y-108887968D01*
X172537960Y-108949713D01*
X172457393Y-109028609D01*
X172393686Y-109121651D01*
X172349264Y-109225296D01*
X172325819Y-109335595D01*
X172324244Y-109448348D01*
X172344600Y-109559258D01*
X172386111Y-109664103D01*
X172447196Y-109758888D01*
X172497365Y-109810839D01*
X172437960Y-109849713D01*
X172357393Y-109928609D01*
X172293686Y-110021651D01*
X172255820Y-110110000D01*
X171526814Y-110110000D01*
X171526814Y-109930000D01*
X171522052Y-109870283D01*
X171490685Y-109768996D01*
X171432343Y-109680457D01*
X171351643Y-109611678D01*
X171254978Y-109568104D01*
X171150000Y-109553186D01*
X169350000Y-109553186D01*
X169290283Y-109557948D01*
X169188996Y-109589315D01*
X169100457Y-109647657D01*
X169031678Y-109728357D01*
X168988104Y-109825022D01*
X168973186Y-109930000D01*
X168600000Y-109930000D01*
X168600000Y-107430000D01*
X168973186Y-107430000D01*
X168973186Y-107670000D01*
X168977948Y-107729717D01*
X168999579Y-107799566D01*
X168988104Y-107825022D01*
X168973186Y-107930000D01*
X168973186Y-108170000D01*
X168977948Y-108229717D01*
X168999579Y-108299566D01*
X168988104Y-108325022D01*
X168973186Y-108430000D01*
X168973186Y-108670000D01*
X168977948Y-108729717D01*
X168999579Y-108799566D01*
X168988104Y-108825022D01*
X168973186Y-108930000D01*
X168973186Y-109170000D01*
X168977948Y-109229717D01*
X169009315Y-109331004D01*
X169067657Y-109419543D01*
X169148357Y-109488322D01*
X169245022Y-109531896D01*
X169350000Y-109546814D01*
X171150000Y-109546814D01*
X171209717Y-109542052D01*
X171311004Y-109510685D01*
X171399543Y-109452343D01*
X171468322Y-109371643D01*
X171511896Y-109274978D01*
X171526814Y-109170000D01*
X171526814Y-108930000D01*
X171522052Y-108870283D01*
X171500421Y-108800434D01*
X171511896Y-108774978D01*
X171526814Y-108670000D01*
X171526814Y-108430000D01*
X171522052Y-108370283D01*
X171500421Y-108300434D01*
X171511896Y-108274978D01*
X171526814Y-108170000D01*
X171526814Y-107930000D01*
X171522052Y-107870283D01*
X171500421Y-107800434D01*
X171511896Y-107774978D01*
X171526814Y-107670000D01*
X171526814Y-107430000D01*
X171522052Y-107370283D01*
X171490685Y-107268996D01*
X171432343Y-107180457D01*
X171351643Y-107111678D01*
X171254978Y-107068104D01*
X171150000Y-107053186D01*
X169350000Y-107053186D01*
X169290283Y-107057948D01*
X169188996Y-107089315D01*
X169100457Y-107147657D01*
X169031678Y-107228357D01*
X168988104Y-107325022D01*
X168973186Y-107430000D01*
X168600000Y-107430000D01*
X168600000Y-104930000D01*
X168973186Y-104930000D01*
X168973186Y-105170000D01*
X168977948Y-105229717D01*
X168999579Y-105299566D01*
X168988104Y-105325022D01*
X168973186Y-105430000D01*
X168973186Y-105670000D01*
X168977948Y-105729717D01*
X168999579Y-105799566D01*
X168988104Y-105825022D01*
X168973186Y-105930000D01*
X168973186Y-106170000D01*
X168977948Y-106229717D01*
X168999579Y-106299566D01*
X168988104Y-106325022D01*
X168973186Y-106430000D01*
X168973186Y-106670000D01*
X168977948Y-106729717D01*
X169009315Y-106831004D01*
X169067657Y-106919543D01*
X169148357Y-106988322D01*
X169245022Y-107031896D01*
X169350000Y-107046814D01*
X171150000Y-107046814D01*
X171209717Y-107042052D01*
X171311004Y-107010685D01*
X171399543Y-106952343D01*
X171468322Y-106871643D01*
X171511896Y-106774978D01*
X171526814Y-106670000D01*
X171526814Y-106430000D01*
X171522052Y-106370283D01*
X171500421Y-106300434D01*
X171511896Y-106274978D01*
X171526814Y-106170000D01*
X171526814Y-105930000D01*
X171522052Y-105870283D01*
X171500421Y-105800434D01*
X171511896Y-105774978D01*
X171526814Y-105670000D01*
X171526814Y-105430000D01*
X171522052Y-105370283D01*
X171500421Y-105300434D01*
X171511896Y-105274978D01*
X171526814Y-105170000D01*
X171526814Y-104930000D01*
X171522052Y-104870283D01*
X171490685Y-104768996D01*
X171432343Y-104680457D01*
X171351643Y-104611678D01*
X171254978Y-104568104D01*
X171150000Y-104553186D01*
X169350000Y-104553186D01*
X169290283Y-104557948D01*
X169188996Y-104589315D01*
X169100457Y-104647657D01*
X169031678Y-104728357D01*
X168988104Y-104825022D01*
X168973186Y-104930000D01*
X168600000Y-104930000D01*
X168600000Y-103430000D01*
X168973186Y-103430000D01*
X168973186Y-103670000D01*
X168977948Y-103729717D01*
X168999579Y-103799566D01*
X168988104Y-103825022D01*
X168973186Y-103930000D01*
X168973186Y-104170000D01*
X168977948Y-104229717D01*
X169009315Y-104331004D01*
X169067657Y-104419543D01*
X169148357Y-104488322D01*
X169245022Y-104531896D01*
X169350000Y-104546814D01*
X171150000Y-104546814D01*
X171209717Y-104542052D01*
X171311004Y-104510685D01*
X171399543Y-104452343D01*
X171418585Y-104430000D01*
X173973186Y-104430000D01*
X173973186Y-104670000D01*
X173977948Y-104729717D01*
X173999579Y-104799566D01*
X173988104Y-104825022D01*
X173973186Y-104930000D01*
X173973186Y-105170000D01*
X173977948Y-105229717D01*
X174009315Y-105331004D01*
X174067657Y-105419543D01*
X174148357Y-105488322D01*
X174245022Y-105531896D01*
X174350000Y-105546814D01*
X176150000Y-105546814D01*
X176209717Y-105542052D01*
X176311004Y-105510685D01*
X176399543Y-105452343D01*
X176468322Y-105371643D01*
X176511896Y-105274978D01*
X176526814Y-105170000D01*
X176526814Y-104930000D01*
X176522052Y-104870283D01*
X176500421Y-104800434D01*
X176511896Y-104774978D01*
X176526814Y-104670000D01*
X176526814Y-104430000D01*
X176522052Y-104370283D01*
X176490685Y-104268996D01*
X176472533Y-104241448D01*
X180629103Y-104241448D01*
X180650771Y-104479542D01*
X180718273Y-104708893D01*
X180829037Y-104920765D01*
X180978844Y-105107088D01*
X181161988Y-105260764D01*
X181371494Y-105375941D01*
X181599381Y-105448231D01*
X181836969Y-105474881D01*
X181854073Y-105475000D01*
X181865927Y-105475000D01*
X182103864Y-105451670D01*
X182332738Y-105382569D01*
X182543832Y-105270329D01*
X182729104Y-105119224D01*
X182881498Y-104935011D01*
X182995209Y-104724707D01*
X183065907Y-104496320D01*
X183090897Y-104258552D01*
X183069229Y-104020458D01*
X183001727Y-103791107D01*
X182890963Y-103579235D01*
X182741156Y-103392912D01*
X182558012Y-103239236D01*
X182348506Y-103124059D01*
X182120619Y-103051769D01*
X181883031Y-103025119D01*
X181865927Y-103025000D01*
X181854073Y-103025000D01*
X181616136Y-103048330D01*
X181387262Y-103117431D01*
X181176168Y-103229671D01*
X180990896Y-103380776D01*
X180838502Y-103564989D01*
X180724791Y-103775293D01*
X180654093Y-104003680D01*
X180629103Y-104241448D01*
X176472533Y-104241448D01*
X176432343Y-104180457D01*
X176351643Y-104111678D01*
X176254978Y-104068104D01*
X176150000Y-104053186D01*
X174350000Y-104053186D01*
X174290283Y-104057948D01*
X174188996Y-104089315D01*
X174100457Y-104147657D01*
X174031678Y-104228357D01*
X173988104Y-104325022D01*
X173973186Y-104430000D01*
X171418585Y-104430000D01*
X171468322Y-104371643D01*
X171511896Y-104274978D01*
X171526814Y-104170000D01*
X171526814Y-103930000D01*
X171522052Y-103870283D01*
X171500421Y-103800434D01*
X171511896Y-103774978D01*
X171526814Y-103670000D01*
X171526814Y-103430000D01*
X171522052Y-103370283D01*
X171490685Y-103268996D01*
X171432343Y-103180457D01*
X171351643Y-103111678D01*
X171254978Y-103068104D01*
X171150000Y-103053186D01*
X169350000Y-103053186D01*
X169290283Y-103057948D01*
X169188996Y-103089315D01*
X169100457Y-103147657D01*
X169031678Y-103228357D01*
X168988104Y-103325022D01*
X168973186Y-103430000D01*
X168600000Y-103430000D01*
X168600000Y-101930000D01*
X168973186Y-101930000D01*
X168973186Y-102170000D01*
X168977948Y-102229717D01*
X168999579Y-102299566D01*
X168988104Y-102325022D01*
X168973186Y-102430000D01*
X168973186Y-102670000D01*
X168977948Y-102729717D01*
X169009315Y-102831004D01*
X169067657Y-102919543D01*
X169148357Y-102988322D01*
X169245022Y-103031896D01*
X169350000Y-103046814D01*
X171150000Y-103046814D01*
X171209717Y-103042052D01*
X171311004Y-103010685D01*
X171399543Y-102952343D01*
X171418585Y-102930000D01*
X173973186Y-102930000D01*
X173973186Y-103170000D01*
X173977948Y-103229717D01*
X173999579Y-103299566D01*
X173988104Y-103325022D01*
X173973186Y-103430000D01*
X173973186Y-103670000D01*
X173977948Y-103729717D01*
X174009315Y-103831004D01*
X174067657Y-103919543D01*
X174148357Y-103988322D01*
X174245022Y-104031896D01*
X174350000Y-104046814D01*
X176150000Y-104046814D01*
X176209717Y-104042052D01*
X176311004Y-104010685D01*
X176399543Y-103952343D01*
X176468322Y-103871643D01*
X176511896Y-103774978D01*
X176526814Y-103670000D01*
X176526814Y-103430000D01*
X176522052Y-103370283D01*
X176500421Y-103300434D01*
X176511896Y-103274978D01*
X176526814Y-103170000D01*
X176526814Y-102930000D01*
X176522052Y-102870283D01*
X176490685Y-102768996D01*
X176432343Y-102680457D01*
X176351643Y-102611678D01*
X176254978Y-102568104D01*
X176150000Y-102553186D01*
X174350000Y-102553186D01*
X174290283Y-102557948D01*
X174188996Y-102589315D01*
X174100457Y-102647657D01*
X174031678Y-102728357D01*
X173988104Y-102825022D01*
X173973186Y-102930000D01*
X171418585Y-102930000D01*
X171468322Y-102871643D01*
X171511896Y-102774978D01*
X171526814Y-102670000D01*
X171526814Y-102430000D01*
X171522052Y-102370283D01*
X171500421Y-102300434D01*
X171511896Y-102274978D01*
X171526814Y-102170000D01*
X171526814Y-101930000D01*
X171522052Y-101870283D01*
X171490685Y-101768996D01*
X171432343Y-101680457D01*
X171351643Y-101611678D01*
X171254978Y-101568104D01*
X171150000Y-101553186D01*
X169350000Y-101553186D01*
X169290283Y-101557948D01*
X169188996Y-101589315D01*
X169100457Y-101647657D01*
X169031678Y-101728357D01*
X168988104Y-101825022D01*
X168973186Y-101930000D01*
X168600000Y-101930000D01*
X168600000Y-100430000D01*
X168973186Y-100430000D01*
X168973186Y-100670000D01*
X168977948Y-100729717D01*
X168999579Y-100799566D01*
X168988104Y-100825022D01*
X168973186Y-100930000D01*
X168973186Y-101170000D01*
X168977948Y-101229717D01*
X169009315Y-101331004D01*
X169067657Y-101419543D01*
X169148357Y-101488322D01*
X169245022Y-101531896D01*
X169350000Y-101546814D01*
X171150000Y-101546814D01*
X171209717Y-101542052D01*
X171311004Y-101510685D01*
X171399543Y-101452343D01*
X171418585Y-101430000D01*
X173973186Y-101430000D01*
X173973186Y-101670000D01*
X173977948Y-101729717D01*
X173999579Y-101799566D01*
X173988104Y-101825022D01*
X173973186Y-101930000D01*
X173973186Y-102170000D01*
X173977948Y-102229717D01*
X174009315Y-102331004D01*
X174067657Y-102419543D01*
X174148357Y-102488322D01*
X174245022Y-102531896D01*
X174350000Y-102546814D01*
X176150000Y-102546814D01*
X176209717Y-102542052D01*
X176311004Y-102510685D01*
X176399543Y-102452343D01*
X176468322Y-102371643D01*
X176511896Y-102274978D01*
X176526814Y-102170000D01*
X176526814Y-101930000D01*
X176522052Y-101870283D01*
X176500421Y-101800434D01*
X176511896Y-101774978D01*
X176522345Y-101701448D01*
X180629103Y-101701448D01*
X180650771Y-101939542D01*
X180718273Y-102168893D01*
X180829037Y-102380765D01*
X180978844Y-102567088D01*
X181161988Y-102720764D01*
X181371494Y-102835941D01*
X181599381Y-102908231D01*
X181836969Y-102934881D01*
X181854073Y-102935000D01*
X181865927Y-102935000D01*
X182103864Y-102911670D01*
X182332738Y-102842569D01*
X182543832Y-102730329D01*
X182729104Y-102579224D01*
X182881498Y-102395011D01*
X182995209Y-102184707D01*
X183065907Y-101956320D01*
X183090897Y-101718552D01*
X183089341Y-101701448D01*
X183169103Y-101701448D01*
X183190771Y-101939542D01*
X183258273Y-102168893D01*
X183369037Y-102380765D01*
X183518844Y-102567088D01*
X183701988Y-102720764D01*
X183900000Y-102829622D01*
X183900000Y-103131926D01*
X183716168Y-103229671D01*
X183530896Y-103380776D01*
X183378502Y-103564989D01*
X183264791Y-103775293D01*
X183194093Y-104003680D01*
X183169103Y-104241448D01*
X183190771Y-104479542D01*
X183258273Y-104708893D01*
X183369037Y-104920765D01*
X183518844Y-105107088D01*
X183701988Y-105260764D01*
X183900000Y-105369622D01*
X183900000Y-105671926D01*
X183716168Y-105769671D01*
X183530896Y-105920776D01*
X183378502Y-106104989D01*
X183264791Y-106315293D01*
X183194093Y-106543680D01*
X183169103Y-106781448D01*
X183190771Y-107019542D01*
X183258273Y-107248893D01*
X183369037Y-107460765D01*
X183518844Y-107647088D01*
X183701988Y-107800764D01*
X183911494Y-107915941D01*
X184139381Y-107988231D01*
X184376969Y-108014881D01*
X184394073Y-108015000D01*
X184405927Y-108015000D01*
X184643864Y-107991670D01*
X184872738Y-107922569D01*
X185083832Y-107810329D01*
X185269104Y-107659224D01*
X185421498Y-107475011D01*
X185535209Y-107264707D01*
X185605907Y-107036320D01*
X185630897Y-106798552D01*
X185609229Y-106560458D01*
X185541727Y-106331107D01*
X185430963Y-106119235D01*
X185281156Y-105932912D01*
X185098012Y-105779236D01*
X184900000Y-105670378D01*
X184900000Y-105368074D01*
X185083832Y-105270329D01*
X185269104Y-105119224D01*
X185421498Y-104935011D01*
X185535209Y-104724707D01*
X185605907Y-104496320D01*
X185630897Y-104258552D01*
X185609229Y-104020458D01*
X185541727Y-103791107D01*
X185430963Y-103579235D01*
X185281156Y-103392912D01*
X185098012Y-103239236D01*
X184900000Y-103130378D01*
X184900000Y-102828074D01*
X185083832Y-102730329D01*
X185269104Y-102579224D01*
X185421498Y-102395011D01*
X185535209Y-102184707D01*
X185605907Y-101956320D01*
X185630897Y-101718552D01*
X185609229Y-101480458D01*
X185541727Y-101251107D01*
X185430963Y-101039235D01*
X185281156Y-100852912D01*
X185098012Y-100699236D01*
X184888506Y-100584059D01*
X184660619Y-100511769D01*
X184423031Y-100485119D01*
X184405927Y-100485000D01*
X184394073Y-100485000D01*
X184156136Y-100508330D01*
X183927262Y-100577431D01*
X183716168Y-100689671D01*
X183530896Y-100840776D01*
X183378502Y-101024989D01*
X183264791Y-101235293D01*
X183194093Y-101463680D01*
X183169103Y-101701448D01*
X183089341Y-101701448D01*
X183069229Y-101480458D01*
X183001727Y-101251107D01*
X182890963Y-101039235D01*
X182741156Y-100852912D01*
X182558012Y-100699236D01*
X182348506Y-100584059D01*
X182120619Y-100511769D01*
X181883031Y-100485119D01*
X181865927Y-100485000D01*
X181854073Y-100485000D01*
X181616136Y-100508330D01*
X181387262Y-100577431D01*
X181176168Y-100689671D01*
X180990896Y-100840776D01*
X180838502Y-101024989D01*
X180724791Y-101235293D01*
X180654093Y-101463680D01*
X180629103Y-101701448D01*
X176522345Y-101701448D01*
X176526814Y-101670000D01*
X176526814Y-101430000D01*
X176522052Y-101370283D01*
X176490685Y-101268996D01*
X176432343Y-101180457D01*
X176351643Y-101111678D01*
X176254978Y-101068104D01*
X176150000Y-101053186D01*
X174350000Y-101053186D01*
X174290283Y-101057948D01*
X174188996Y-101089315D01*
X174100457Y-101147657D01*
X174031678Y-101228357D01*
X173988104Y-101325022D01*
X173973186Y-101430000D01*
X171418585Y-101430000D01*
X171468322Y-101371643D01*
X171511896Y-101274978D01*
X171526814Y-101170000D01*
X171526814Y-100930000D01*
X171522052Y-100870283D01*
X171500421Y-100800434D01*
X171511896Y-100774978D01*
X171526814Y-100670000D01*
X171526814Y-100430000D01*
X173973186Y-100430000D01*
X173973186Y-100670000D01*
X173977948Y-100729717D01*
X174009315Y-100831004D01*
X174067657Y-100919543D01*
X174148357Y-100988322D01*
X174245022Y-101031896D01*
X174350000Y-101046814D01*
X176150000Y-101046814D01*
X176209717Y-101042052D01*
X176311004Y-101010685D01*
X176399543Y-100952343D01*
X176468322Y-100871643D01*
X176511896Y-100774978D01*
X176526814Y-100670000D01*
X176526814Y-100430000D01*
X176522052Y-100370283D01*
X176490685Y-100268996D01*
X176432343Y-100180457D01*
X176351643Y-100111678D01*
X176254978Y-100068104D01*
X176150000Y-100053186D01*
X174350000Y-100053186D01*
X174290283Y-100057948D01*
X174188996Y-100089315D01*
X174100457Y-100147657D01*
X174031678Y-100228357D01*
X173988104Y-100325022D01*
X173973186Y-100430000D01*
X171526814Y-100430000D01*
X171522052Y-100370283D01*
X171490685Y-100268996D01*
X171432343Y-100180457D01*
X171351643Y-100111678D01*
X171254978Y-100068104D01*
X171150000Y-100053186D01*
X169350000Y-100053186D01*
X169290283Y-100057948D01*
X169188996Y-100089315D01*
X169100457Y-100147657D01*
X169031678Y-100228357D01*
X168988104Y-100325022D01*
X168973186Y-100430000D01*
X168600000Y-100430000D01*
X168600000Y-97430000D01*
X168973186Y-97430000D01*
X168973186Y-97670000D01*
X168977948Y-97729717D01*
X168999579Y-97799566D01*
X168988104Y-97825022D01*
X168973186Y-97930000D01*
X168973186Y-98170000D01*
X168977948Y-98229717D01*
X168999579Y-98299566D01*
X168988104Y-98325022D01*
X168973186Y-98430000D01*
X168973186Y-98670000D01*
X168977948Y-98729717D01*
X168999579Y-98799566D01*
X168988104Y-98825022D01*
X168973186Y-98930000D01*
X168973186Y-99170000D01*
X168977948Y-99229717D01*
X168999579Y-99299566D01*
X168988104Y-99325022D01*
X168973186Y-99430000D01*
X168973186Y-99670000D01*
X168977948Y-99729717D01*
X169009315Y-99831004D01*
X169067657Y-99919543D01*
X169148357Y-99988322D01*
X169245022Y-100031896D01*
X169350000Y-100046814D01*
X171150000Y-100046814D01*
X171209717Y-100042052D01*
X171311004Y-100010685D01*
X171399543Y-99952343D01*
X171468322Y-99871643D01*
X171511896Y-99774978D01*
X171526814Y-99670000D01*
X171526814Y-99430000D01*
X171522052Y-99370283D01*
X171500421Y-99300434D01*
X171511896Y-99274978D01*
X171526814Y-99170000D01*
X171526814Y-98930000D01*
X171522052Y-98870283D01*
X171500421Y-98800434D01*
X171511896Y-98774978D01*
X171526814Y-98670000D01*
X171526814Y-98430000D01*
X171522052Y-98370283D01*
X171500421Y-98300434D01*
X171511896Y-98274978D01*
X171526814Y-98170000D01*
X171526814Y-97930000D01*
X171522052Y-97870283D01*
X171500421Y-97800434D01*
X171511896Y-97774978D01*
X171526814Y-97670000D01*
X171526814Y-97430000D01*
X171522052Y-97370283D01*
X171490685Y-97268996D01*
X171432343Y-97180457D01*
X171351643Y-97111678D01*
X171254978Y-97068104D01*
X171150000Y-97053186D01*
X169350000Y-97053186D01*
X169290283Y-97057948D01*
X169188996Y-97089315D01*
X169100457Y-97147657D01*
X169031678Y-97228357D01*
X168988104Y-97325022D01*
X168973186Y-97430000D01*
X168600000Y-97430000D01*
X168600000Y-95930000D01*
X168973186Y-95930000D01*
X168973186Y-96170000D01*
X168977948Y-96229717D01*
X168999579Y-96299566D01*
X168988104Y-96325022D01*
X168973186Y-96430000D01*
X168973186Y-96670000D01*
X168977948Y-96729717D01*
X169009315Y-96831004D01*
X169067657Y-96919543D01*
X169148357Y-96988322D01*
X169245022Y-97031896D01*
X169350000Y-97046814D01*
X171150000Y-97046814D01*
X171209717Y-97042052D01*
X171311004Y-97010685D01*
X171399543Y-96952343D01*
X171468322Y-96871643D01*
X171511896Y-96774978D01*
X171526814Y-96670000D01*
X171526814Y-96430000D01*
X171522052Y-96370283D01*
X171500421Y-96300434D01*
X171511896Y-96274978D01*
X171526814Y-96170000D01*
X171526814Y-95930000D01*
X171522052Y-95870283D01*
X171490685Y-95768996D01*
X171432343Y-95680457D01*
X171351643Y-95611678D01*
X171254978Y-95568104D01*
X171150000Y-95553186D01*
X169350000Y-95553186D01*
X169290283Y-95557948D01*
X169188996Y-95589315D01*
X169100457Y-95647657D01*
X169031678Y-95728357D01*
X168988104Y-95825022D01*
X168973186Y-95930000D01*
X168600000Y-95930000D01*
X168600000Y-92930000D01*
X168973186Y-92930000D01*
X168973186Y-93170000D01*
X168977948Y-93229717D01*
X168999579Y-93299566D01*
X168988104Y-93325022D01*
X168973186Y-93430000D01*
X168973186Y-93670000D01*
X168977948Y-93729717D01*
X168999579Y-93799566D01*
X168988104Y-93825022D01*
X168973186Y-93930000D01*
X168973186Y-94170000D01*
X168977948Y-94229717D01*
X168999579Y-94299566D01*
X168988104Y-94325022D01*
X168973186Y-94430000D01*
X168973186Y-94670000D01*
X168977948Y-94729717D01*
X168999579Y-94799566D01*
X168988104Y-94825022D01*
X168973186Y-94930000D01*
X168973186Y-95170000D01*
X168977948Y-95229717D01*
X169009315Y-95331004D01*
X169067657Y-95419543D01*
X169148357Y-95488322D01*
X169245022Y-95531896D01*
X169350000Y-95546814D01*
X171150000Y-95546814D01*
X171209717Y-95542052D01*
X171311004Y-95510685D01*
X171399543Y-95452343D01*
X171468322Y-95371643D01*
X171511896Y-95274978D01*
X171526814Y-95170000D01*
X171526814Y-94930000D01*
X173973186Y-94930000D01*
X173973186Y-95170000D01*
X173977948Y-95229717D01*
X173999579Y-95299566D01*
X173988104Y-95325022D01*
X173973186Y-95430000D01*
X173973186Y-95670000D01*
X173977948Y-95729717D01*
X173999579Y-95799566D01*
X173988104Y-95825022D01*
X173973186Y-95930000D01*
X173973186Y-96170000D01*
X173977948Y-96229717D01*
X173999579Y-96299566D01*
X173988104Y-96325022D01*
X173973186Y-96430000D01*
X173973186Y-96670000D01*
X173977948Y-96729717D01*
X173999579Y-96799566D01*
X173988104Y-96825022D01*
X173973186Y-96930000D01*
X173973186Y-97170000D01*
X173977948Y-97229717D01*
X173999579Y-97299566D01*
X173988104Y-97325022D01*
X173973186Y-97430000D01*
X173973186Y-97670000D01*
X173977948Y-97729717D01*
X173999579Y-97799566D01*
X173988104Y-97825022D01*
X173973186Y-97930000D01*
X173973186Y-98170000D01*
X173977948Y-98229717D01*
X173999579Y-98299566D01*
X173988104Y-98325022D01*
X173973186Y-98430000D01*
X173973186Y-98670000D01*
X173977948Y-98729717D01*
X173999579Y-98799566D01*
X173988104Y-98825022D01*
X173973186Y-98930000D01*
X173973186Y-99170000D01*
X173977948Y-99229717D01*
X173999579Y-99299566D01*
X173988104Y-99325022D01*
X173973186Y-99430000D01*
X173973186Y-99670000D01*
X173977948Y-99729717D01*
X174009315Y-99831004D01*
X174067657Y-99919543D01*
X174148357Y-99988322D01*
X174245022Y-100031896D01*
X174350000Y-100046814D01*
X176150000Y-100046814D01*
X176209717Y-100042052D01*
X176311004Y-100010685D01*
X176399543Y-99952343D01*
X176468322Y-99871643D01*
X176511896Y-99774978D01*
X176526814Y-99670000D01*
X176526814Y-99430000D01*
X176522052Y-99370283D01*
X176500421Y-99300434D01*
X176511896Y-99274978D01*
X176526814Y-99170000D01*
X176526814Y-98930000D01*
X176522052Y-98870283D01*
X176500421Y-98800434D01*
X176511896Y-98774978D01*
X176526814Y-98670000D01*
X176526814Y-98430000D01*
X176522052Y-98370283D01*
X176500421Y-98300434D01*
X176511896Y-98274978D01*
X176526814Y-98170000D01*
X176526814Y-97930000D01*
X176522052Y-97870283D01*
X176500421Y-97800434D01*
X176511896Y-97774978D01*
X176526814Y-97670000D01*
X176526814Y-97430000D01*
X176522052Y-97370283D01*
X176500421Y-97300434D01*
X176511896Y-97274978D01*
X176526814Y-97170000D01*
X176526814Y-96930000D01*
X176522052Y-96870283D01*
X176500421Y-96800434D01*
X176511896Y-96774978D01*
X176526814Y-96670000D01*
X176526814Y-96430000D01*
X176522052Y-96370283D01*
X176500421Y-96300434D01*
X176511896Y-96274978D01*
X176526814Y-96170000D01*
X176526814Y-95930000D01*
X176522052Y-95870283D01*
X176500421Y-95800434D01*
X176511896Y-95774978D01*
X176526814Y-95670000D01*
X176526814Y-95430000D01*
X176522052Y-95370283D01*
X176500421Y-95300434D01*
X176511896Y-95274978D01*
X176526814Y-95170000D01*
X176526814Y-94930000D01*
X176522052Y-94870283D01*
X176490685Y-94768996D01*
X176432343Y-94680457D01*
X176351643Y-94611678D01*
X176254978Y-94568104D01*
X176150000Y-94553186D01*
X174350000Y-94553186D01*
X174290283Y-94557948D01*
X174188996Y-94589315D01*
X174100457Y-94647657D01*
X174031678Y-94728357D01*
X173988104Y-94825022D01*
X173973186Y-94930000D01*
X171526814Y-94930000D01*
X171522052Y-94870283D01*
X171500421Y-94800434D01*
X171511896Y-94774978D01*
X171526814Y-94670000D01*
X171526814Y-94430000D01*
X171522052Y-94370283D01*
X171500421Y-94300434D01*
X171511896Y-94274978D01*
X171526814Y-94170000D01*
X171526814Y-93930000D01*
X171522052Y-93870283D01*
X171500421Y-93800434D01*
X171511896Y-93774978D01*
X171526814Y-93670000D01*
X171526814Y-93430000D01*
X171522052Y-93370283D01*
X171500421Y-93300434D01*
X171511896Y-93274978D01*
X171526814Y-93170000D01*
X171526814Y-92930000D01*
X173973186Y-92930000D01*
X173973186Y-93170000D01*
X173977948Y-93229717D01*
X173999579Y-93299566D01*
X173988104Y-93325022D01*
X173973186Y-93430000D01*
X173973186Y-93670000D01*
X173977948Y-93729717D01*
X173999579Y-93799566D01*
X173988104Y-93825022D01*
X173973186Y-93930000D01*
X173973186Y-94170000D01*
X173977948Y-94229717D01*
X174009315Y-94331004D01*
X174067657Y-94419543D01*
X174148357Y-94488322D01*
X174245022Y-94531896D01*
X174350000Y-94546814D01*
X176150000Y-94546814D01*
X176209717Y-94542052D01*
X176311004Y-94510685D01*
X176399543Y-94452343D01*
X176468322Y-94371643D01*
X176511896Y-94274978D01*
X176526814Y-94170000D01*
X176526814Y-94081448D01*
X180629103Y-94081448D01*
X180650771Y-94319542D01*
X180718273Y-94548893D01*
X180829037Y-94760765D01*
X180978844Y-94947088D01*
X181161988Y-95100764D01*
X181360000Y-95209622D01*
X181360000Y-95511926D01*
X181176168Y-95609671D01*
X180990896Y-95760776D01*
X180838502Y-95944989D01*
X180724791Y-96155293D01*
X180654093Y-96383680D01*
X180629103Y-96621448D01*
X180650771Y-96859542D01*
X180718273Y-97088893D01*
X180829037Y-97300765D01*
X180978844Y-97487088D01*
X181161988Y-97640764D01*
X181360000Y-97749622D01*
X181360000Y-98051926D01*
X181176168Y-98149671D01*
X180990896Y-98300776D01*
X180838502Y-98484989D01*
X180724791Y-98695293D01*
X180654093Y-98923680D01*
X180629103Y-99161448D01*
X180650771Y-99399542D01*
X180718273Y-99628893D01*
X180829037Y-99840765D01*
X180978844Y-100027088D01*
X181161988Y-100180764D01*
X181371494Y-100295941D01*
X181599381Y-100368231D01*
X181836969Y-100394881D01*
X181854073Y-100395000D01*
X181865927Y-100395000D01*
X182103864Y-100371670D01*
X182332738Y-100302569D01*
X182543832Y-100190329D01*
X182729104Y-100039224D01*
X182881498Y-99855011D01*
X182995209Y-99644707D01*
X183065907Y-99416320D01*
X183090897Y-99178552D01*
X183089341Y-99161448D01*
X183169103Y-99161448D01*
X183190771Y-99399542D01*
X183258273Y-99628893D01*
X183369037Y-99840765D01*
X183518844Y-100027088D01*
X183701988Y-100180764D01*
X183911494Y-100295941D01*
X184139381Y-100368231D01*
X184376969Y-100394881D01*
X184394073Y-100395000D01*
X184405927Y-100395000D01*
X184643864Y-100371670D01*
X184872738Y-100302569D01*
X185083832Y-100190329D01*
X185269104Y-100039224D01*
X185421498Y-99855011D01*
X185535209Y-99644707D01*
X185605907Y-99416320D01*
X185630897Y-99178552D01*
X185609229Y-98940458D01*
X185541727Y-98711107D01*
X185430963Y-98499235D01*
X185281156Y-98312912D01*
X185098012Y-98159236D01*
X184888506Y-98044059D01*
X184660619Y-97971769D01*
X184423031Y-97945119D01*
X184405927Y-97945000D01*
X184394073Y-97945000D01*
X184156136Y-97968330D01*
X183927262Y-98037431D01*
X183716168Y-98149671D01*
X183530896Y-98300776D01*
X183378502Y-98484989D01*
X183264791Y-98695293D01*
X183194093Y-98923680D01*
X183169103Y-99161448D01*
X183089341Y-99161448D01*
X183069229Y-98940458D01*
X183001727Y-98711107D01*
X182890963Y-98499235D01*
X182741156Y-98312912D01*
X182558012Y-98159236D01*
X182360000Y-98050378D01*
X182360000Y-97748074D01*
X182543832Y-97650329D01*
X182729104Y-97499224D01*
X182881498Y-97315011D01*
X182995209Y-97104707D01*
X183065907Y-96876320D01*
X183090897Y-96638552D01*
X183089341Y-96621448D01*
X183169103Y-96621448D01*
X183190771Y-96859542D01*
X183258273Y-97088893D01*
X183369037Y-97300765D01*
X183518844Y-97487088D01*
X183701988Y-97640764D01*
X183911494Y-97755941D01*
X184139381Y-97828231D01*
X184376969Y-97854881D01*
X184394073Y-97855000D01*
X184405927Y-97855000D01*
X184643864Y-97831670D01*
X184872738Y-97762569D01*
X185083832Y-97650329D01*
X185269104Y-97499224D01*
X185421498Y-97315011D01*
X185535209Y-97104707D01*
X185605907Y-96876320D01*
X185630897Y-96638552D01*
X185609229Y-96400458D01*
X185541727Y-96171107D01*
X185430963Y-95959235D01*
X185281156Y-95772912D01*
X185098012Y-95619236D01*
X184888506Y-95504059D01*
X184660619Y-95431769D01*
X184423031Y-95405119D01*
X184405927Y-95405000D01*
X184394073Y-95405000D01*
X184156136Y-95428330D01*
X183927262Y-95497431D01*
X183716168Y-95609671D01*
X183530896Y-95760776D01*
X183378502Y-95944989D01*
X183264791Y-96155293D01*
X183194093Y-96383680D01*
X183169103Y-96621448D01*
X183089341Y-96621448D01*
X183069229Y-96400458D01*
X183001727Y-96171107D01*
X182890963Y-95959235D01*
X182741156Y-95772912D01*
X182558012Y-95619236D01*
X182360000Y-95510378D01*
X182360000Y-95208074D01*
X182543832Y-95110329D01*
X182729104Y-94959224D01*
X182881498Y-94775011D01*
X182995209Y-94564707D01*
X183065907Y-94336320D01*
X183090897Y-94098552D01*
X183089341Y-94081448D01*
X183169103Y-94081448D01*
X183190771Y-94319542D01*
X183258273Y-94548893D01*
X183369037Y-94760765D01*
X183518844Y-94947088D01*
X183701988Y-95100764D01*
X183911494Y-95215941D01*
X184139381Y-95288231D01*
X184376969Y-95314881D01*
X184394073Y-95315000D01*
X184405927Y-95315000D01*
X184643864Y-95291670D01*
X184872738Y-95222569D01*
X185083832Y-95110329D01*
X185269104Y-94959224D01*
X185421498Y-94775011D01*
X185535209Y-94564707D01*
X185605907Y-94336320D01*
X185630897Y-94098552D01*
X185609229Y-93860458D01*
X185541727Y-93631107D01*
X185430963Y-93419235D01*
X185281156Y-93232912D01*
X185098012Y-93079236D01*
X184888506Y-92964059D01*
X184660619Y-92891769D01*
X184423031Y-92865119D01*
X184405927Y-92865000D01*
X184394073Y-92865000D01*
X184156136Y-92888330D01*
X183927262Y-92957431D01*
X183716168Y-93069671D01*
X183530896Y-93220776D01*
X183378502Y-93404989D01*
X183264791Y-93615293D01*
X183194093Y-93843680D01*
X183169103Y-94081448D01*
X183089341Y-94081448D01*
X183069229Y-93860458D01*
X183001727Y-93631107D01*
X182890963Y-93419235D01*
X182741156Y-93232912D01*
X182558012Y-93079236D01*
X182348506Y-92964059D01*
X182120619Y-92891769D01*
X181883031Y-92865119D01*
X181865927Y-92865000D01*
X181854073Y-92865000D01*
X181616136Y-92888330D01*
X181387262Y-92957431D01*
X181176168Y-93069671D01*
X180990896Y-93220776D01*
X180838502Y-93404989D01*
X180724791Y-93615293D01*
X180654093Y-93843680D01*
X180629103Y-94081448D01*
X176526814Y-94081448D01*
X176526814Y-93930000D01*
X176522052Y-93870283D01*
X176500421Y-93800434D01*
X176511896Y-93774978D01*
X176526814Y-93670000D01*
X176526814Y-93430000D01*
X176522052Y-93370283D01*
X176500421Y-93300434D01*
X176511896Y-93274978D01*
X176526814Y-93170000D01*
X176526814Y-92930000D01*
X176522052Y-92870283D01*
X176490685Y-92768996D01*
X176432343Y-92680457D01*
X176351643Y-92611678D01*
X176254978Y-92568104D01*
X176150000Y-92553186D01*
X174350000Y-92553186D01*
X174290283Y-92557948D01*
X174188996Y-92589315D01*
X174100457Y-92647657D01*
X174031678Y-92728357D01*
X173988104Y-92825022D01*
X173973186Y-92930000D01*
X171526814Y-92930000D01*
X171522052Y-92870283D01*
X171490685Y-92768996D01*
X171432343Y-92680457D01*
X171351643Y-92611678D01*
X171254978Y-92568104D01*
X171150000Y-92553186D01*
X169350000Y-92553186D01*
X169290283Y-92557948D01*
X169188996Y-92589315D01*
X169100457Y-92647657D01*
X169031678Y-92728357D01*
X168988104Y-92825022D01*
X168973186Y-92930000D01*
X168600000Y-92930000D01*
X168600000Y-85928676D01*
X169572207Y-85928676D01*
X169647435Y-86338563D01*
X169800845Y-86726033D01*
X170026593Y-87076326D01*
X170316081Y-87376099D01*
X170658282Y-87613935D01*
X171040162Y-87780774D01*
X171447174Y-87870261D01*
X171863817Y-87878989D01*
X172274220Y-87806624D01*
X172662751Y-87655922D01*
X173014611Y-87432625D01*
X173316398Y-87145237D01*
X173433893Y-86978676D01*
X182472207Y-86978676D01*
X182547435Y-87388563D01*
X182700845Y-87776033D01*
X182926593Y-88126326D01*
X183216081Y-88426099D01*
X183558282Y-88663935D01*
X183940162Y-88830774D01*
X184347174Y-88920261D01*
X184763817Y-88928989D01*
X185174220Y-88856624D01*
X185562751Y-88705922D01*
X185914611Y-88482625D01*
X186216398Y-88195237D01*
X186456617Y-87854705D01*
X186626118Y-87474000D01*
X186718445Y-87067622D01*
X186725091Y-86591633D01*
X186644147Y-86182836D01*
X186485342Y-85797546D01*
X186254725Y-85450439D01*
X185961080Y-85154737D01*
X185615592Y-84921702D01*
X185231420Y-84760211D01*
X184823198Y-84676415D01*
X184406474Y-84673506D01*
X183997121Y-84751594D01*
X183610732Y-84907705D01*
X183262024Y-85135894D01*
X182964279Y-85427467D01*
X182728838Y-85771320D01*
X182564669Y-86154355D01*
X182478025Y-86561982D01*
X182472207Y-86978676D01*
X173433893Y-86978676D01*
X173556617Y-86804705D01*
X173726118Y-86424000D01*
X173818445Y-86017622D01*
X173825091Y-85541633D01*
X173744147Y-85132836D01*
X173585342Y-84747546D01*
X173354725Y-84400439D01*
X173061080Y-84104737D01*
X172715592Y-83871702D01*
X172331420Y-83710211D01*
X171923198Y-83626415D01*
X171506474Y-83623506D01*
X171097121Y-83701594D01*
X170710732Y-83857705D01*
X170362024Y-84085894D01*
X170064279Y-84377467D01*
X169828838Y-84721320D01*
X169664669Y-85104355D01*
X169578025Y-85511982D01*
X169572207Y-85928676D01*
X168600000Y-85928676D01*
X168600000Y-83512217D01*
X168609133Y-83344156D01*
X168642850Y-83211978D01*
X168701597Y-83088871D01*
X168783136Y-82979519D01*
X168884363Y-82888086D01*
X169001425Y-82818055D01*
X169129854Y-82772097D01*
X169281006Y-82749536D01*
X169305660Y-82748914D01*
X193749980Y-82750000D01*
X193765438Y-82748485D01*
X193768225Y-82748952D01*
M02*
