G04 #@! TF.FileFunction,Soldermask,Top*
%FSLAX46Y46*%
G04 Gerber Fmt 4.6, Leading zero omitted, Abs format (unit mm)*
G04 Created by KiCad (PCBNEW 4.0.6) date 06/16/19 22:16:32*
%MOMM*%
%LPD*%
G01*
G04 APERTURE LIST*
%ADD10C,0.100000*%
%ADD11R,2.200000X0.640000*%
%ADD12C,3.900000*%
%ADD13R,2.100000X2.100000*%
%ADD14O,2.100000X2.100000*%
G04 APERTURE END LIST*
D10*
D11*
X170250000Y-117550000D03*
X175250000Y-117550000D03*
X170250000Y-117050000D03*
X175250000Y-117050000D03*
X170250000Y-116550000D03*
X175250000Y-116550000D03*
X170250000Y-116050000D03*
X175250000Y-116050000D03*
X170250000Y-115550000D03*
X175250000Y-115550000D03*
X170250000Y-115050000D03*
X175250000Y-115050000D03*
X170250000Y-114550000D03*
X175250000Y-114550000D03*
X170250000Y-114050000D03*
X175250000Y-114050000D03*
X170250000Y-113550000D03*
X175250000Y-113550000D03*
X170250000Y-113050000D03*
X175250000Y-113050000D03*
X170250000Y-112550000D03*
X175250000Y-112550000D03*
X170250000Y-112050000D03*
X175250000Y-112050000D03*
X170250000Y-111550000D03*
X175250000Y-111550000D03*
X170250000Y-111050000D03*
X175250000Y-111050000D03*
X170250000Y-110550000D03*
X175250000Y-110550000D03*
X170250000Y-110050000D03*
X175250000Y-110050000D03*
X170250000Y-109550000D03*
X175250000Y-109550000D03*
X170250000Y-109050000D03*
X175250000Y-109050000D03*
X170250000Y-108550000D03*
X175250000Y-108550000D03*
X170250000Y-108050000D03*
X175250000Y-108050000D03*
X170250000Y-107550000D03*
X175250000Y-107550000D03*
X170250000Y-107050000D03*
X175250000Y-107050000D03*
X170250000Y-106550000D03*
X175250000Y-106550000D03*
X170250000Y-106050000D03*
X175250000Y-106050000D03*
X170250000Y-105550000D03*
X175250000Y-105550000D03*
X170250000Y-105050000D03*
X175250000Y-105050000D03*
X170250000Y-104550000D03*
X175250000Y-104550000D03*
X170250000Y-104050000D03*
X175250000Y-104050000D03*
X170250000Y-103550000D03*
X175250000Y-103550000D03*
X170250000Y-103050000D03*
X175250000Y-103050000D03*
X170250000Y-102550000D03*
X175250000Y-102550000D03*
X170250000Y-102050000D03*
X175250000Y-102050000D03*
X170250000Y-101550000D03*
X175250000Y-101550000D03*
X170250000Y-101050000D03*
X175250000Y-101050000D03*
X170250000Y-100550000D03*
X175250000Y-100550000D03*
X170250000Y-100050000D03*
X175250000Y-100050000D03*
X170250000Y-99550000D03*
X175250000Y-99550000D03*
X170250000Y-99050000D03*
X175250000Y-99050000D03*
X170250000Y-98550000D03*
X175250000Y-98550000D03*
X170250000Y-98050000D03*
X175250000Y-98050000D03*
X170250000Y-97550000D03*
X175250000Y-97550000D03*
X170250000Y-97050000D03*
X175250000Y-97050000D03*
X170250000Y-96550000D03*
X175250000Y-96550000D03*
X170250000Y-96050000D03*
X175250000Y-96050000D03*
X170250000Y-95550000D03*
X175250000Y-95550000D03*
X170250000Y-95050000D03*
X175250000Y-95050000D03*
X170250000Y-94550000D03*
X175250000Y-94550000D03*
X170250000Y-94050000D03*
X175250000Y-94050000D03*
X170250000Y-93550000D03*
X175250000Y-93550000D03*
X170250000Y-93050000D03*
X175250000Y-93050000D03*
D12*
X184600000Y-86800000D03*
X179600000Y-86800000D03*
D13*
X181860000Y-116950000D03*
D14*
X184400000Y-116950000D03*
X181860000Y-114410000D03*
X184400000Y-114410000D03*
X181860000Y-111870000D03*
X184400000Y-111870000D03*
X181860000Y-109330000D03*
X184400000Y-109330000D03*
X181860000Y-106790000D03*
X184400000Y-106790000D03*
X181860000Y-104250000D03*
X184400000Y-104250000D03*
X181860000Y-101710000D03*
X184400000Y-101710000D03*
X181860000Y-99170000D03*
X184400000Y-99170000D03*
X181860000Y-96630000D03*
X184400000Y-96630000D03*
X181860000Y-94090000D03*
X184400000Y-94090000D03*
D12*
X171700000Y-85750000D03*
M02*
