G04 #@! TF.FileFunction,Copper,L2,Bot,Signal*
%FSLAX46Y46*%
G04 Gerber Fmt 4.6, Leading zero omitted, Abs format (unit mm)*
G04 Created by KiCad (PCBNEW 4.0.6) date 06/16/19 22:16:32*
%MOMM*%
%LPD*%
G01*
G04 APERTURE LIST*
%ADD10C,0.100000*%
%ADD11R,1.500000X1.250000*%
%ADD12C,3.500000*%
%ADD13R,1.700000X1.700000*%
%ADD14O,1.700000X1.700000*%
%ADD15C,0.400000*%
%ADD16C,0.130000*%
%ADD17C,0.400000*%
G04 APERTURE END LIST*
D10*
D11*
X175350000Y-91650000D03*
X177850000Y-91650000D03*
D12*
X184600000Y-86800000D03*
X179600000Y-86800000D03*
D13*
X181860000Y-116950000D03*
D14*
X184400000Y-116950000D03*
X181860000Y-114410000D03*
X184400000Y-114410000D03*
X181860000Y-111870000D03*
X184400000Y-111870000D03*
X181860000Y-109330000D03*
X184400000Y-109330000D03*
X181860000Y-106790000D03*
X184400000Y-106790000D03*
X181860000Y-104250000D03*
X184400000Y-104250000D03*
X181860000Y-101710000D03*
X184400000Y-101710000D03*
X181860000Y-99170000D03*
X184400000Y-99170000D03*
X181860000Y-96630000D03*
X184400000Y-96630000D03*
X181860000Y-94090000D03*
X184400000Y-94090000D03*
D15*
X172850000Y-112700000D03*
X172951662Y-112142151D03*
X173050000Y-111150000D03*
X172800000Y-110300000D03*
X172900000Y-109400000D03*
X172750000Y-108200000D03*
D16*
X181860000Y-116950000D02*
X178210000Y-113300000D01*
X178210000Y-113300000D02*
X173450000Y-113300000D01*
X173450000Y-113300000D02*
X173049999Y-112899999D01*
X173049999Y-112899999D02*
X172850000Y-112700000D01*
X181860000Y-114410000D02*
X179950000Y-112500000D01*
X179950000Y-112500000D02*
X173309511Y-112500000D01*
X173309511Y-112500000D02*
X173151661Y-112342150D01*
X173151661Y-112342150D02*
X172951662Y-112142151D01*
X181860000Y-111870000D02*
X173770000Y-111870000D01*
X173770000Y-111870000D02*
X173050000Y-111150000D01*
X181860000Y-109330000D02*
X173770000Y-109330000D01*
X173770000Y-109330000D02*
X172800000Y-110300000D01*
X173099999Y-109200001D02*
X172900000Y-109400000D01*
X175510000Y-106790000D02*
X173099999Y-109200001D01*
X181860000Y-106790000D02*
X175510000Y-106790000D01*
X172949999Y-108000001D02*
X172750000Y-108200000D01*
X176700000Y-104250000D02*
X172949999Y-108000001D01*
X181860000Y-104250000D02*
X176700000Y-104250000D01*
D17*
G36*
X192750000Y-100250000D02*
X183300000Y-100250000D01*
X183300000Y-99341684D01*
X183316981Y-99180123D01*
X183300000Y-98993532D01*
X183300000Y-96801684D01*
X183316981Y-96640123D01*
X183300000Y-96453532D01*
X183300000Y-94261684D01*
X183316981Y-94100123D01*
X183300000Y-93913532D01*
X183300000Y-92500000D01*
X183292082Y-92444281D01*
X183268954Y-92392975D01*
X183232449Y-92350142D01*
X183185456Y-92319176D01*
X183131696Y-92302528D01*
X183100000Y-92300000D01*
X177099634Y-92300000D01*
X177095329Y-89950000D01*
X182100000Y-89950000D01*
X182155719Y-89942082D01*
X182207025Y-89918954D01*
X182249858Y-89882449D01*
X182280824Y-89835456D01*
X182297472Y-89781696D01*
X182300000Y-89750000D01*
X182300000Y-84400000D01*
X192750000Y-84400000D01*
X192750000Y-100250000D01*
X192750000Y-100250000D01*
G37*
X192750000Y-100250000D02*
X183300000Y-100250000D01*
X183300000Y-99341684D01*
X183316981Y-99180123D01*
X183300000Y-98993532D01*
X183300000Y-96801684D01*
X183316981Y-96640123D01*
X183300000Y-96453532D01*
X183300000Y-94261684D01*
X183316981Y-94100123D01*
X183300000Y-93913532D01*
X183300000Y-92500000D01*
X183292082Y-92444281D01*
X183268954Y-92392975D01*
X183232449Y-92350142D01*
X183185456Y-92319176D01*
X183131696Y-92302528D01*
X183100000Y-92300000D01*
X177099634Y-92300000D01*
X177095329Y-89950000D01*
X182100000Y-89950000D01*
X182155719Y-89942082D01*
X182207025Y-89918954D01*
X182249858Y-89882449D01*
X182280824Y-89835456D01*
X182297472Y-89781696D01*
X182300000Y-89750000D01*
X182300000Y-84400000D01*
X192750000Y-84400000D01*
X192750000Y-100250000D01*
G36*
X193749970Y-82975000D02*
X193760951Y-82973924D01*
X193762288Y-82974006D01*
X193920525Y-82982605D01*
X194009944Y-83005415D01*
X194093232Y-83045160D01*
X194167211Y-83100323D01*
X194229067Y-83168806D01*
X194276446Y-83248003D01*
X194307539Y-83334891D01*
X194324798Y-83450522D01*
X194325000Y-83458525D01*
X194325000Y-120431665D01*
X194317395Y-120571611D01*
X194294585Y-120661030D01*
X194254840Y-120744318D01*
X194199677Y-120818297D01*
X194131194Y-120880153D01*
X194051997Y-120927532D01*
X193965109Y-120958625D01*
X193855160Y-120975036D01*
X193850000Y-120975000D01*
X169369421Y-120975000D01*
X169229475Y-120967395D01*
X169140056Y-120944585D01*
X169056768Y-120904840D01*
X168982789Y-120849677D01*
X168920933Y-120781194D01*
X168873554Y-120701997D01*
X168842461Y-120615109D01*
X168825202Y-120499479D01*
X168825000Y-120491475D01*
X168825000Y-108267266D01*
X171948948Y-108267266D01*
X171977270Y-108421577D01*
X172035024Y-108567448D01*
X172120012Y-108699323D01*
X172228995Y-108812179D01*
X172303751Y-108864135D01*
X172284199Y-108883282D01*
X172195562Y-109012732D01*
X172133758Y-109156934D01*
X172101139Y-109310393D01*
X172098948Y-109467266D01*
X172127270Y-109621577D01*
X172185024Y-109767448D01*
X172190961Y-109776660D01*
X172184199Y-109783282D01*
X172095562Y-109912732D01*
X172033758Y-110056934D01*
X172001139Y-110210393D01*
X171998948Y-110367266D01*
X172027270Y-110521577D01*
X172085024Y-110667448D01*
X172170012Y-110799323D01*
X172278995Y-110912179D01*
X172282174Y-110914388D01*
X172251139Y-111060393D01*
X172248948Y-111217266D01*
X172277270Y-111371577D01*
X172335024Y-111517448D01*
X172378013Y-111584154D01*
X172335861Y-111625433D01*
X172247224Y-111754883D01*
X172185420Y-111899085D01*
X172152801Y-112052544D01*
X172150610Y-112209417D01*
X172164497Y-112285079D01*
X172145562Y-112312732D01*
X172083758Y-112456934D01*
X172051139Y-112610393D01*
X172048948Y-112767266D01*
X172077270Y-112921577D01*
X172135024Y-113067448D01*
X172220012Y-113199323D01*
X172328995Y-113312179D01*
X172457824Y-113401717D01*
X172601590Y-113464527D01*
X172694503Y-113484955D01*
X172979774Y-113770226D01*
X173027263Y-113809234D01*
X173074297Y-113848700D01*
X173077360Y-113850384D01*
X173080064Y-113852605D01*
X173134226Y-113881646D01*
X173188029Y-113911225D01*
X173191361Y-113912282D01*
X173194444Y-113913935D01*
X173253204Y-113931900D01*
X173311739Y-113950468D01*
X173315213Y-113950858D01*
X173318557Y-113951880D01*
X173379721Y-113958093D01*
X173440715Y-113964935D01*
X173447539Y-113964983D01*
X173447679Y-113964997D01*
X173447809Y-113964985D01*
X173450000Y-113965000D01*
X177934548Y-113965000D01*
X180407097Y-116437549D01*
X180407097Y-117800000D01*
X180414716Y-117895548D01*
X180464903Y-118057607D01*
X180558252Y-118199269D01*
X180687370Y-118309315D01*
X180842035Y-118379034D01*
X181010000Y-118402903D01*
X182710000Y-118402903D01*
X182805548Y-118395284D01*
X182967607Y-118345097D01*
X183109269Y-118251748D01*
X183219315Y-118122630D01*
X183289034Y-117967965D01*
X183299659Y-117893196D01*
X183356999Y-117964512D01*
X183573782Y-118146415D01*
X183821768Y-118282746D01*
X184091512Y-118368314D01*
X184372739Y-118399859D01*
X184392984Y-118400000D01*
X184407016Y-118400000D01*
X184688656Y-118372385D01*
X184959568Y-118290592D01*
X185209434Y-118157736D01*
X185428736Y-117978878D01*
X185609120Y-117760830D01*
X185743718Y-117511898D01*
X185827400Y-117241563D01*
X185856981Y-116960123D01*
X185831333Y-116678297D01*
X185751433Y-116406820D01*
X185620324Y-116156033D01*
X185443001Y-115935488D01*
X185226218Y-115753585D01*
X184978232Y-115617254D01*
X184708488Y-115531686D01*
X184427261Y-115500141D01*
X184407016Y-115500000D01*
X184392984Y-115500000D01*
X184111344Y-115527615D01*
X183840432Y-115609408D01*
X183590566Y-115742264D01*
X183371264Y-115921122D01*
X183304479Y-116001852D01*
X183255097Y-115842393D01*
X183161748Y-115700731D01*
X183032630Y-115590685D01*
X182877965Y-115520966D01*
X182801423Y-115510089D01*
X182888736Y-115438878D01*
X183069120Y-115220830D01*
X183203718Y-114971898D01*
X183287400Y-114701563D01*
X183316981Y-114420123D01*
X183291333Y-114138297D01*
X183211433Y-113866820D01*
X183080324Y-113616033D01*
X182903001Y-113395488D01*
X182686218Y-113213585D01*
X182552350Y-113139991D01*
X182669434Y-113077736D01*
X182888736Y-112898878D01*
X183069120Y-112680830D01*
X183203718Y-112431898D01*
X183287400Y-112161563D01*
X183316981Y-111880123D01*
X183291333Y-111598297D01*
X183211433Y-111326820D01*
X183080324Y-111076033D01*
X182903001Y-110855488D01*
X182686218Y-110673585D01*
X182552350Y-110599991D01*
X182669434Y-110537736D01*
X182888736Y-110358878D01*
X183069120Y-110140830D01*
X183203718Y-109891898D01*
X183287400Y-109621563D01*
X183316981Y-109340123D01*
X183291333Y-109058297D01*
X183211433Y-108786820D01*
X183080324Y-108536033D01*
X182903001Y-108315488D01*
X182686218Y-108133585D01*
X182552350Y-108059991D01*
X182669434Y-107997736D01*
X182888736Y-107818878D01*
X183069120Y-107600830D01*
X183129811Y-107488585D01*
X183179676Y-107583967D01*
X183356999Y-107804512D01*
X183573782Y-107986415D01*
X183821768Y-108122746D01*
X184091512Y-108208314D01*
X184372739Y-108239859D01*
X184392984Y-108240000D01*
X184407016Y-108240000D01*
X184688656Y-108212385D01*
X184959568Y-108130592D01*
X185209434Y-107997736D01*
X185428736Y-107818878D01*
X185609120Y-107600830D01*
X185743718Y-107351898D01*
X185827400Y-107081563D01*
X185856981Y-106800123D01*
X185831333Y-106518297D01*
X185751433Y-106246820D01*
X185620324Y-105996033D01*
X185443001Y-105775488D01*
X185226218Y-105593585D01*
X185092350Y-105519991D01*
X185209434Y-105457736D01*
X185428736Y-105278878D01*
X185609120Y-105060830D01*
X185743718Y-104811898D01*
X185827400Y-104541563D01*
X185856981Y-104260123D01*
X185831333Y-103978297D01*
X185751433Y-103706820D01*
X185620324Y-103456033D01*
X185443001Y-103235488D01*
X185226218Y-103053585D01*
X185092350Y-102979991D01*
X185209434Y-102917736D01*
X185428736Y-102738878D01*
X185609120Y-102520830D01*
X185743718Y-102271898D01*
X185827400Y-102001563D01*
X185856981Y-101720123D01*
X185831333Y-101438297D01*
X185751433Y-101166820D01*
X185690361Y-101050000D01*
X192950000Y-101050000D01*
X193168074Y-101008967D01*
X193368363Y-100880085D01*
X193502728Y-100683434D01*
X193550000Y-100450000D01*
X193550000Y-84200000D01*
X193508967Y-83981926D01*
X193380085Y-83781637D01*
X193183434Y-83647272D01*
X192950000Y-83600000D01*
X182100000Y-83600000D01*
X181881926Y-83641033D01*
X181681637Y-83769915D01*
X181547272Y-83966566D01*
X181500000Y-84200000D01*
X181500000Y-89150000D01*
X176894962Y-89150000D01*
X176675864Y-89191434D01*
X176475812Y-89320682D01*
X176341807Y-89517579D01*
X176294963Y-89751099D01*
X176300001Y-92501099D01*
X176341033Y-92718074D01*
X176469915Y-92918363D01*
X176666566Y-93052728D01*
X176900000Y-93100000D01*
X180799101Y-93100000D01*
X180650880Y-93279170D01*
X180516282Y-93528102D01*
X180432600Y-93798437D01*
X180403019Y-94079877D01*
X180428667Y-94361703D01*
X180508567Y-94633180D01*
X180639676Y-94883967D01*
X180816999Y-95104512D01*
X181033782Y-95286415D01*
X181167650Y-95360009D01*
X181050566Y-95422264D01*
X180831264Y-95601122D01*
X180650880Y-95819170D01*
X180516282Y-96068102D01*
X180432600Y-96338437D01*
X180403019Y-96619877D01*
X180428667Y-96901703D01*
X180508567Y-97173180D01*
X180639676Y-97423967D01*
X180816999Y-97644512D01*
X181033782Y-97826415D01*
X181167650Y-97900009D01*
X181050566Y-97962264D01*
X180831264Y-98141122D01*
X180650880Y-98359170D01*
X180516282Y-98608102D01*
X180432600Y-98878437D01*
X180403019Y-99159877D01*
X180428667Y-99441703D01*
X180508567Y-99713180D01*
X180639676Y-99963967D01*
X180816999Y-100184512D01*
X181033782Y-100366415D01*
X181167650Y-100440009D01*
X181050566Y-100502264D01*
X180831264Y-100681122D01*
X180650880Y-100899170D01*
X180516282Y-101148102D01*
X180432600Y-101418437D01*
X180403019Y-101699877D01*
X180428667Y-101981703D01*
X180508567Y-102253180D01*
X180639676Y-102503967D01*
X180816999Y-102724512D01*
X181033782Y-102906415D01*
X181167650Y-102980009D01*
X181050566Y-103042264D01*
X180831264Y-103221122D01*
X180650880Y-103439170D01*
X180572029Y-103585000D01*
X176700000Y-103585000D01*
X176638803Y-103591000D01*
X176577672Y-103596349D01*
X176574318Y-103597323D01*
X176570834Y-103597665D01*
X176512001Y-103615428D01*
X176453040Y-103632557D01*
X176449935Y-103634166D01*
X176446588Y-103635177D01*
X176392314Y-103664035D01*
X176337815Y-103692285D01*
X176335086Y-103694463D01*
X176331995Y-103696107D01*
X176284335Y-103734977D01*
X176236385Y-103773255D01*
X176231523Y-103778049D01*
X176231418Y-103778135D01*
X176231338Y-103778232D01*
X176229774Y-103779774D01*
X172594310Y-107415238D01*
X172523034Y-107428835D01*
X172377570Y-107487607D01*
X172246291Y-107573513D01*
X172134199Y-107683282D01*
X172045562Y-107812732D01*
X171983758Y-107956934D01*
X171951139Y-108110393D01*
X171948948Y-108267266D01*
X168825000Y-108267266D01*
X168825000Y-85947594D01*
X169346911Y-85947594D01*
X169430105Y-86400882D01*
X169599758Y-86829378D01*
X169849409Y-87216760D01*
X170169548Y-87548274D01*
X170547982Y-87811293D01*
X170970296Y-87995797D01*
X171420404Y-88094760D01*
X171881162Y-88104411D01*
X172335019Y-88024384D01*
X172764689Y-87857726D01*
X173153805Y-87610786D01*
X173487546Y-87292968D01*
X173753200Y-86916380D01*
X173940648Y-86495364D01*
X174042751Y-86045958D01*
X174050101Y-85519571D01*
X173960586Y-85067489D01*
X173784967Y-84641403D01*
X173529931Y-84257544D01*
X173205195Y-83930532D01*
X172823125Y-83672823D01*
X172398276Y-83494233D01*
X171946830Y-83401565D01*
X171485983Y-83398347D01*
X171033287Y-83484704D01*
X170605986Y-83657345D01*
X170220356Y-83909694D01*
X169891085Y-84232140D01*
X169630715Y-84612401D01*
X169449163Y-85035993D01*
X169353345Y-85486780D01*
X169346911Y-85947594D01*
X168825000Y-85947594D01*
X168825000Y-83518334D01*
X168832605Y-83378389D01*
X168855415Y-83288970D01*
X168895160Y-83205682D01*
X168950323Y-83131703D01*
X169018806Y-83069847D01*
X169098003Y-83022468D01*
X169184891Y-82991375D01*
X169300522Y-82974116D01*
X169308510Y-82973914D01*
X193749970Y-82975000D01*
X193749970Y-82975000D01*
G37*
X193749970Y-82975000D02*
X193760951Y-82973924D01*
X193762288Y-82974006D01*
X193920525Y-82982605D01*
X194009944Y-83005415D01*
X194093232Y-83045160D01*
X194167211Y-83100323D01*
X194229067Y-83168806D01*
X194276446Y-83248003D01*
X194307539Y-83334891D01*
X194324798Y-83450522D01*
X194325000Y-83458525D01*
X194325000Y-120431665D01*
X194317395Y-120571611D01*
X194294585Y-120661030D01*
X194254840Y-120744318D01*
X194199677Y-120818297D01*
X194131194Y-120880153D01*
X194051997Y-120927532D01*
X193965109Y-120958625D01*
X193855160Y-120975036D01*
X193850000Y-120975000D01*
X169369421Y-120975000D01*
X169229475Y-120967395D01*
X169140056Y-120944585D01*
X169056768Y-120904840D01*
X168982789Y-120849677D01*
X168920933Y-120781194D01*
X168873554Y-120701997D01*
X168842461Y-120615109D01*
X168825202Y-120499479D01*
X168825000Y-120491475D01*
X168825000Y-108267266D01*
X171948948Y-108267266D01*
X171977270Y-108421577D01*
X172035024Y-108567448D01*
X172120012Y-108699323D01*
X172228995Y-108812179D01*
X172303751Y-108864135D01*
X172284199Y-108883282D01*
X172195562Y-109012732D01*
X172133758Y-109156934D01*
X172101139Y-109310393D01*
X172098948Y-109467266D01*
X172127270Y-109621577D01*
X172185024Y-109767448D01*
X172190961Y-109776660D01*
X172184199Y-109783282D01*
X172095562Y-109912732D01*
X172033758Y-110056934D01*
X172001139Y-110210393D01*
X171998948Y-110367266D01*
X172027270Y-110521577D01*
X172085024Y-110667448D01*
X172170012Y-110799323D01*
X172278995Y-110912179D01*
X172282174Y-110914388D01*
X172251139Y-111060393D01*
X172248948Y-111217266D01*
X172277270Y-111371577D01*
X172335024Y-111517448D01*
X172378013Y-111584154D01*
X172335861Y-111625433D01*
X172247224Y-111754883D01*
X172185420Y-111899085D01*
X172152801Y-112052544D01*
X172150610Y-112209417D01*
X172164497Y-112285079D01*
X172145562Y-112312732D01*
X172083758Y-112456934D01*
X172051139Y-112610393D01*
X172048948Y-112767266D01*
X172077270Y-112921577D01*
X172135024Y-113067448D01*
X172220012Y-113199323D01*
X172328995Y-113312179D01*
X172457824Y-113401717D01*
X172601590Y-113464527D01*
X172694503Y-113484955D01*
X172979774Y-113770226D01*
X173027263Y-113809234D01*
X173074297Y-113848700D01*
X173077360Y-113850384D01*
X173080064Y-113852605D01*
X173134226Y-113881646D01*
X173188029Y-113911225D01*
X173191361Y-113912282D01*
X173194444Y-113913935D01*
X173253204Y-113931900D01*
X173311739Y-113950468D01*
X173315213Y-113950858D01*
X173318557Y-113951880D01*
X173379721Y-113958093D01*
X173440715Y-113964935D01*
X173447539Y-113964983D01*
X173447679Y-113964997D01*
X173447809Y-113964985D01*
X173450000Y-113965000D01*
X177934548Y-113965000D01*
X180407097Y-116437549D01*
X180407097Y-117800000D01*
X180414716Y-117895548D01*
X180464903Y-118057607D01*
X180558252Y-118199269D01*
X180687370Y-118309315D01*
X180842035Y-118379034D01*
X181010000Y-118402903D01*
X182710000Y-118402903D01*
X182805548Y-118395284D01*
X182967607Y-118345097D01*
X183109269Y-118251748D01*
X183219315Y-118122630D01*
X183289034Y-117967965D01*
X183299659Y-117893196D01*
X183356999Y-117964512D01*
X183573782Y-118146415D01*
X183821768Y-118282746D01*
X184091512Y-118368314D01*
X184372739Y-118399859D01*
X184392984Y-118400000D01*
X184407016Y-118400000D01*
X184688656Y-118372385D01*
X184959568Y-118290592D01*
X185209434Y-118157736D01*
X185428736Y-117978878D01*
X185609120Y-117760830D01*
X185743718Y-117511898D01*
X185827400Y-117241563D01*
X185856981Y-116960123D01*
X185831333Y-116678297D01*
X185751433Y-116406820D01*
X185620324Y-116156033D01*
X185443001Y-115935488D01*
X185226218Y-115753585D01*
X184978232Y-115617254D01*
X184708488Y-115531686D01*
X184427261Y-115500141D01*
X184407016Y-115500000D01*
X184392984Y-115500000D01*
X184111344Y-115527615D01*
X183840432Y-115609408D01*
X183590566Y-115742264D01*
X183371264Y-115921122D01*
X183304479Y-116001852D01*
X183255097Y-115842393D01*
X183161748Y-115700731D01*
X183032630Y-115590685D01*
X182877965Y-115520966D01*
X182801423Y-115510089D01*
X182888736Y-115438878D01*
X183069120Y-115220830D01*
X183203718Y-114971898D01*
X183287400Y-114701563D01*
X183316981Y-114420123D01*
X183291333Y-114138297D01*
X183211433Y-113866820D01*
X183080324Y-113616033D01*
X182903001Y-113395488D01*
X182686218Y-113213585D01*
X182552350Y-113139991D01*
X182669434Y-113077736D01*
X182888736Y-112898878D01*
X183069120Y-112680830D01*
X183203718Y-112431898D01*
X183287400Y-112161563D01*
X183316981Y-111880123D01*
X183291333Y-111598297D01*
X183211433Y-111326820D01*
X183080324Y-111076033D01*
X182903001Y-110855488D01*
X182686218Y-110673585D01*
X182552350Y-110599991D01*
X182669434Y-110537736D01*
X182888736Y-110358878D01*
X183069120Y-110140830D01*
X183203718Y-109891898D01*
X183287400Y-109621563D01*
X183316981Y-109340123D01*
X183291333Y-109058297D01*
X183211433Y-108786820D01*
X183080324Y-108536033D01*
X182903001Y-108315488D01*
X182686218Y-108133585D01*
X182552350Y-108059991D01*
X182669434Y-107997736D01*
X182888736Y-107818878D01*
X183069120Y-107600830D01*
X183129811Y-107488585D01*
X183179676Y-107583967D01*
X183356999Y-107804512D01*
X183573782Y-107986415D01*
X183821768Y-108122746D01*
X184091512Y-108208314D01*
X184372739Y-108239859D01*
X184392984Y-108240000D01*
X184407016Y-108240000D01*
X184688656Y-108212385D01*
X184959568Y-108130592D01*
X185209434Y-107997736D01*
X185428736Y-107818878D01*
X185609120Y-107600830D01*
X185743718Y-107351898D01*
X185827400Y-107081563D01*
X185856981Y-106800123D01*
X185831333Y-106518297D01*
X185751433Y-106246820D01*
X185620324Y-105996033D01*
X185443001Y-105775488D01*
X185226218Y-105593585D01*
X185092350Y-105519991D01*
X185209434Y-105457736D01*
X185428736Y-105278878D01*
X185609120Y-105060830D01*
X185743718Y-104811898D01*
X185827400Y-104541563D01*
X185856981Y-104260123D01*
X185831333Y-103978297D01*
X185751433Y-103706820D01*
X185620324Y-103456033D01*
X185443001Y-103235488D01*
X185226218Y-103053585D01*
X185092350Y-102979991D01*
X185209434Y-102917736D01*
X185428736Y-102738878D01*
X185609120Y-102520830D01*
X185743718Y-102271898D01*
X185827400Y-102001563D01*
X185856981Y-101720123D01*
X185831333Y-101438297D01*
X185751433Y-101166820D01*
X185690361Y-101050000D01*
X192950000Y-101050000D01*
X193168074Y-101008967D01*
X193368363Y-100880085D01*
X193502728Y-100683434D01*
X193550000Y-100450000D01*
X193550000Y-84200000D01*
X193508967Y-83981926D01*
X193380085Y-83781637D01*
X193183434Y-83647272D01*
X192950000Y-83600000D01*
X182100000Y-83600000D01*
X181881926Y-83641033D01*
X181681637Y-83769915D01*
X181547272Y-83966566D01*
X181500000Y-84200000D01*
X181500000Y-89150000D01*
X176894962Y-89150000D01*
X176675864Y-89191434D01*
X176475812Y-89320682D01*
X176341807Y-89517579D01*
X176294963Y-89751099D01*
X176300001Y-92501099D01*
X176341033Y-92718074D01*
X176469915Y-92918363D01*
X176666566Y-93052728D01*
X176900000Y-93100000D01*
X180799101Y-93100000D01*
X180650880Y-93279170D01*
X180516282Y-93528102D01*
X180432600Y-93798437D01*
X180403019Y-94079877D01*
X180428667Y-94361703D01*
X180508567Y-94633180D01*
X180639676Y-94883967D01*
X180816999Y-95104512D01*
X181033782Y-95286415D01*
X181167650Y-95360009D01*
X181050566Y-95422264D01*
X180831264Y-95601122D01*
X180650880Y-95819170D01*
X180516282Y-96068102D01*
X180432600Y-96338437D01*
X180403019Y-96619877D01*
X180428667Y-96901703D01*
X180508567Y-97173180D01*
X180639676Y-97423967D01*
X180816999Y-97644512D01*
X181033782Y-97826415D01*
X181167650Y-97900009D01*
X181050566Y-97962264D01*
X180831264Y-98141122D01*
X180650880Y-98359170D01*
X180516282Y-98608102D01*
X180432600Y-98878437D01*
X180403019Y-99159877D01*
X180428667Y-99441703D01*
X180508567Y-99713180D01*
X180639676Y-99963967D01*
X180816999Y-100184512D01*
X181033782Y-100366415D01*
X181167650Y-100440009D01*
X181050566Y-100502264D01*
X180831264Y-100681122D01*
X180650880Y-100899170D01*
X180516282Y-101148102D01*
X180432600Y-101418437D01*
X180403019Y-101699877D01*
X180428667Y-101981703D01*
X180508567Y-102253180D01*
X180639676Y-102503967D01*
X180816999Y-102724512D01*
X181033782Y-102906415D01*
X181167650Y-102980009D01*
X181050566Y-103042264D01*
X180831264Y-103221122D01*
X180650880Y-103439170D01*
X180572029Y-103585000D01*
X176700000Y-103585000D01*
X176638803Y-103591000D01*
X176577672Y-103596349D01*
X176574318Y-103597323D01*
X176570834Y-103597665D01*
X176512001Y-103615428D01*
X176453040Y-103632557D01*
X176449935Y-103634166D01*
X176446588Y-103635177D01*
X176392314Y-103664035D01*
X176337815Y-103692285D01*
X176335086Y-103694463D01*
X176331995Y-103696107D01*
X176284335Y-103734977D01*
X176236385Y-103773255D01*
X176231523Y-103778049D01*
X176231418Y-103778135D01*
X176231338Y-103778232D01*
X176229774Y-103779774D01*
X172594310Y-107415238D01*
X172523034Y-107428835D01*
X172377570Y-107487607D01*
X172246291Y-107573513D01*
X172134199Y-107683282D01*
X172045562Y-107812732D01*
X171983758Y-107956934D01*
X171951139Y-108110393D01*
X171948948Y-108267266D01*
X168825000Y-108267266D01*
X168825000Y-85947594D01*
X169346911Y-85947594D01*
X169430105Y-86400882D01*
X169599758Y-86829378D01*
X169849409Y-87216760D01*
X170169548Y-87548274D01*
X170547982Y-87811293D01*
X170970296Y-87995797D01*
X171420404Y-88094760D01*
X171881162Y-88104411D01*
X172335019Y-88024384D01*
X172764689Y-87857726D01*
X173153805Y-87610786D01*
X173487546Y-87292968D01*
X173753200Y-86916380D01*
X173940648Y-86495364D01*
X174042751Y-86045958D01*
X174050101Y-85519571D01*
X173960586Y-85067489D01*
X173784967Y-84641403D01*
X173529931Y-84257544D01*
X173205195Y-83930532D01*
X172823125Y-83672823D01*
X172398276Y-83494233D01*
X171946830Y-83401565D01*
X171485983Y-83398347D01*
X171033287Y-83484704D01*
X170605986Y-83657345D01*
X170220356Y-83909694D01*
X169891085Y-84232140D01*
X169630715Y-84612401D01*
X169449163Y-85035993D01*
X169353345Y-85486780D01*
X169346911Y-85947594D01*
X168825000Y-85947594D01*
X168825000Y-83518334D01*
X168832605Y-83378389D01*
X168855415Y-83288970D01*
X168895160Y-83205682D01*
X168950323Y-83131703D01*
X169018806Y-83069847D01*
X169098003Y-83022468D01*
X169184891Y-82991375D01*
X169300522Y-82974116D01*
X169308510Y-82973914D01*
X193749970Y-82975000D01*
M02*
