M48
INCH,TZ
T1C0.010
T2C0.039
T3C0.083
%
G90
G05
T1
X68012Y-42598
X68031Y-43425
X68051Y-44370
X68071Y-43071
X68091Y-44150
X68130Y-43760
T2
X71598Y-37043
X71598Y-38043
X71598Y-39043
X71598Y-40043
X71598Y-41043
X71598Y-42043
X71598Y-43043
X71598Y-44043
X71598Y-45043
X71598Y-46043
X72598Y-37043
X72598Y-38043
X72598Y-39043
X72598Y-40043
X72598Y-41043
X72598Y-42043
X72598Y-43043
X72598Y-44043
X72598Y-45043
X72598Y-46043
T3
X70709Y-34173
X72677Y-34173
T0
M30
