G04 #@! TF.FileFunction,Copper,L2,Bot,Signal*
%FSLAX46Y46*%
G04 Gerber Fmt 4.6, Leading zero omitted, Abs format (unit mm)*
G04 Created by KiCad (PCBNEW 4.0.6) date 07/31/17 21:00:10*
%MOMM*%
%LPD*%
G01*
G04 APERTURE LIST*
%ADD10C,0.100000*%
%ADD11R,1.700000X1.700000*%
%ADD12O,1.700000X1.700000*%
%ADD13C,0.600000*%
%ADD14C,0.500000*%
%ADD15C,0.500000*%
%ADD16C,0.250000*%
%ADD17C,0.300000*%
%ADD18C,0.254000*%
G04 APERTURE END LIST*
D10*
D11*
X148717000Y-113538000D03*
D12*
X151257000Y-113538000D03*
X153797000Y-113538000D03*
X156337000Y-113538000D03*
D11*
X168910000Y-91440000D03*
D12*
X168910000Y-93980000D03*
X168910000Y-96520000D03*
D11*
X168910000Y-111379000D03*
D12*
X168910000Y-108839000D03*
D13*
X156972000Y-95504000D03*
X153569250Y-106325250D03*
X152281750Y-106325250D03*
X150994250Y-106325250D03*
X149706750Y-106325250D03*
X153569250Y-105037750D03*
X152281750Y-105037750D03*
X150994250Y-105037750D03*
X149706750Y-105037750D03*
X153569250Y-103750250D03*
X152281750Y-103750250D03*
X150994250Y-103750250D03*
X149706750Y-103750250D03*
X153569250Y-102462750D03*
X152281750Y-102462750D03*
X150994250Y-102462750D03*
X149706750Y-102462750D03*
X121666000Y-88900000D03*
X122682000Y-88900000D03*
X122682000Y-89916000D03*
X123698000Y-89916000D03*
X123698000Y-88900000D03*
X152400000Y-108966000D03*
X161798000Y-109474000D03*
X163068000Y-91694000D03*
X150876000Y-96520000D03*
X162052000Y-105664000D03*
X167640000Y-105410000D03*
X163068000Y-96520000D03*
X160020000Y-98552000D03*
X136906000Y-98044000D03*
X135636000Y-98044000D03*
X134366000Y-98044000D03*
X164084000Y-104648000D03*
X162306000Y-99060000D03*
X158242000Y-104648000D03*
X156464000Y-105410000D03*
X139446000Y-110490000D03*
X129032000Y-113284000D03*
X139446000Y-101600000D03*
X129032000Y-104394000D03*
X139446000Y-92710000D03*
X129032000Y-95250000D03*
X158750000Y-103144000D03*
X151130000Y-94742000D03*
D14*
X157734000Y-109220000D03*
X157734000Y-105410000D03*
D13*
X131572000Y-113157000D03*
X139446000Y-107950000D03*
X123444000Y-113157000D03*
X139446000Y-113030000D03*
X131572000Y-104267000D03*
X139446000Y-99060000D03*
X123444000Y-104267000D03*
X139446000Y-104140000D03*
X131572000Y-95377000D03*
X139446000Y-90170000D03*
X123444000Y-95377000D03*
X139446000Y-95250000D03*
D14*
X150876000Y-108966000D03*
X158242000Y-110236000D03*
D15*
X168910000Y-96520000D02*
X167894000Y-95504000D01*
X167894000Y-95504000D02*
X156972000Y-95504000D01*
D16*
X153569250Y-106325250D02*
X153543000Y-106299000D01*
X152273000Y-106299000D02*
X152273000Y-106316500D01*
X152273000Y-106316500D02*
X152281750Y-106325250D01*
X151003000Y-106299000D02*
X151003000Y-106316500D01*
X151003000Y-106316500D02*
X150994250Y-106325250D01*
X149706750Y-106325250D02*
X149733000Y-106299000D01*
X153543000Y-105029000D02*
X153560500Y-105029000D01*
X153560500Y-105029000D02*
X153569250Y-105037750D01*
X152281750Y-105037750D02*
X152273000Y-105029000D01*
X150994250Y-105037750D02*
X151003000Y-105029000D01*
X149733000Y-105029000D02*
X149715500Y-105029000D01*
X149715500Y-105029000D02*
X149706750Y-105037750D01*
X153543000Y-103759000D02*
X153560500Y-103759000D01*
X153560500Y-103759000D02*
X153569250Y-103750250D01*
X152281750Y-103750250D02*
X152273000Y-103759000D01*
X150994250Y-103750250D02*
X151003000Y-103759000D01*
X149733000Y-103759000D02*
X149715500Y-103759000D01*
X149715500Y-103759000D02*
X149706750Y-103750250D01*
X152273000Y-102489000D02*
X152273000Y-102471500D01*
X152273000Y-102471500D02*
X152281750Y-102462750D01*
X151003000Y-102489000D02*
X151003000Y-102471500D01*
X151003000Y-102471500D02*
X150994250Y-102462750D01*
X149706750Y-102462750D02*
X149733000Y-102489000D01*
D15*
X150114000Y-88900000D02*
X123698000Y-88900000D01*
X122682000Y-88900000D02*
X121666000Y-88900000D01*
X123698000Y-89916000D02*
X122682000Y-89916000D01*
X150114000Y-88900000D02*
X162814000Y-88900000D01*
X162814000Y-88900000D02*
X163068000Y-89154000D01*
X163068000Y-91694000D02*
X163068000Y-89154000D01*
X150876000Y-96520000D02*
X150114000Y-95758000D01*
X150114000Y-95758000D02*
X150114000Y-88900000D01*
D16*
X163068000Y-96520000D02*
X166116000Y-96520000D01*
X166878000Y-97282000D02*
X166878000Y-102616000D01*
X166116000Y-96520000D02*
X166878000Y-97282000D01*
X162306000Y-105410000D02*
X167640000Y-105410000D01*
X162052000Y-105664000D02*
X162306000Y-105410000D01*
X167640000Y-105410000D02*
X167640000Y-103378000D01*
X167640000Y-103378000D02*
X166878000Y-102616000D01*
X162052000Y-96520000D02*
X163068000Y-96520000D01*
X160020000Y-98552000D02*
X161798000Y-96774000D01*
X161798000Y-96774000D02*
X162052000Y-96520000D01*
D15*
X134366000Y-98044000D02*
X135636000Y-98044000D01*
X164084000Y-104648000D02*
X158242000Y-104648000D01*
X162306000Y-99060000D02*
X162306000Y-100584000D01*
D16*
X162306000Y-100584000D02*
X158242000Y-104648000D01*
D15*
X156464000Y-104648000D02*
X158242000Y-104648000D01*
X156464000Y-105410000D02*
X156464000Y-104648000D01*
X156464000Y-104648000D02*
X156464000Y-98552000D01*
X156464000Y-98552000D02*
X155448000Y-97536000D01*
X155448000Y-97536000D02*
X138938000Y-97536000D01*
X138938000Y-97536000D02*
X138430000Y-98044000D01*
X138430000Y-98044000D02*
X136906000Y-98044000D01*
X136906000Y-98044000D02*
X135128000Y-98044000D01*
X139446000Y-110490000D02*
X135890000Y-114046000D01*
X135890000Y-114046000D02*
X129794000Y-114046000D01*
X129794000Y-114046000D02*
X129032000Y-113284000D01*
X139446000Y-101600000D02*
X135890000Y-105156000D01*
X135890000Y-105156000D02*
X129794000Y-105156000D01*
X129794000Y-105156000D02*
X129032000Y-104394000D01*
X139446000Y-92710000D02*
X135890000Y-96266000D01*
X135890000Y-96266000D02*
X130048000Y-96266000D01*
X130048000Y-96266000D02*
X129032000Y-95250000D01*
X158750000Y-103124000D02*
X158750000Y-103144000D01*
X158750000Y-103124000D02*
X158750000Y-99314000D01*
X158750000Y-99314000D02*
X156210000Y-96774000D01*
X156210000Y-96774000D02*
X153162000Y-96774000D01*
X153162000Y-96774000D02*
X151130000Y-94742000D01*
D17*
X157734000Y-105410000D02*
X157734000Y-109220000D01*
D15*
X131572000Y-113284000D02*
X131572000Y-113157000D01*
X131572000Y-113284000D02*
X136906000Y-107950000D01*
X136906000Y-107950000D02*
X139446000Y-107950000D01*
X123444000Y-113284000D02*
X123444000Y-113157000D01*
X123444000Y-113284000D02*
X124968000Y-114808000D01*
X124968000Y-114808000D02*
X137668000Y-114808000D01*
X137668000Y-114808000D02*
X139446000Y-113030000D01*
X131572000Y-104140000D02*
X131572000Y-104267000D01*
X131572000Y-104140000D02*
X136652000Y-99060000D01*
X136652000Y-99060000D02*
X139446000Y-99060000D01*
X123444000Y-104394000D02*
X123444000Y-104267000D01*
X123444000Y-104394000D02*
X124968000Y-105918000D01*
X124968000Y-105918000D02*
X137668000Y-105918000D01*
X137668000Y-105918000D02*
X139446000Y-104140000D01*
X131572000Y-95504000D02*
X131572000Y-95377000D01*
X131572000Y-95504000D02*
X136906000Y-90170000D01*
X136906000Y-90170000D02*
X139446000Y-90170000D01*
X123444000Y-95504000D02*
X123444000Y-95377000D01*
X123444000Y-95504000D02*
X124968000Y-97028000D01*
X124968000Y-97028000D02*
X137668000Y-97028000D01*
X137668000Y-97028000D02*
X139446000Y-95250000D01*
D17*
X150876000Y-108966000D02*
X151384000Y-109474000D01*
X151384000Y-109474000D02*
X151384000Y-109982000D01*
X151384000Y-109982000D02*
X151638000Y-110236000D01*
X151638000Y-110236000D02*
X158242000Y-110236000D01*
D18*
G36*
X170486000Y-114681000D02*
X157291491Y-114681000D01*
X157387054Y-114617147D01*
X157708961Y-114135378D01*
X157822000Y-113567093D01*
X157822000Y-113508907D01*
X157708961Y-112940622D01*
X157387054Y-112458853D01*
X156905285Y-112136946D01*
X156337000Y-112023907D01*
X155768715Y-112136946D01*
X155286946Y-112458853D01*
X155059298Y-112799553D01*
X154992183Y-112656642D01*
X154563924Y-112266355D01*
X154153890Y-112096524D01*
X153924000Y-112217845D01*
X153924000Y-113411000D01*
X153944000Y-113411000D01*
X153944000Y-113665000D01*
X153924000Y-113665000D01*
X153924000Y-113685000D01*
X153670000Y-113685000D01*
X153670000Y-113665000D01*
X153650000Y-113665000D01*
X153650000Y-113411000D01*
X153670000Y-113411000D01*
X153670000Y-112217845D01*
X153440110Y-112096524D01*
X153030076Y-112266355D01*
X152601817Y-112656642D01*
X152534702Y-112799553D01*
X152307054Y-112458853D01*
X151825285Y-112136946D01*
X151257000Y-112023907D01*
X150688715Y-112136946D01*
X150206946Y-112458853D01*
X150179150Y-112500452D01*
X150170162Y-112452683D01*
X150031090Y-112236559D01*
X149818890Y-112091569D01*
X149567000Y-112040560D01*
X147867000Y-112040560D01*
X147631683Y-112084838D01*
X147415559Y-112223910D01*
X147270569Y-112436110D01*
X147219560Y-112688000D01*
X147219560Y-114388000D01*
X147263838Y-114623317D01*
X147300956Y-114681000D01*
X146177000Y-114681000D01*
X146177000Y-98421000D01*
X155081420Y-98421000D01*
X155579000Y-98918579D01*
X155579000Y-105103178D01*
X155529162Y-105223201D01*
X155528838Y-105595167D01*
X155670883Y-105938943D01*
X155933673Y-106202192D01*
X156277201Y-106344838D01*
X156649167Y-106345162D01*
X156949000Y-106221274D01*
X156949000Y-108802734D01*
X156849154Y-109043190D01*
X156848847Y-109395265D01*
X156871876Y-109451000D01*
X152164425Y-109451000D01*
X152109245Y-109173594D01*
X151939079Y-108918921D01*
X151939076Y-108918919D01*
X151726130Y-108705972D01*
X151626704Y-108465343D01*
X151377967Y-108216171D01*
X151052810Y-108081154D01*
X150700735Y-108080847D01*
X150375343Y-108215296D01*
X150126171Y-108464033D01*
X149991154Y-108789190D01*
X149990847Y-109141265D01*
X150125296Y-109466657D01*
X150374033Y-109715829D01*
X150599000Y-109809243D01*
X150599000Y-109982000D01*
X150658755Y-110282407D01*
X150828921Y-110537079D01*
X151082921Y-110791079D01*
X151337593Y-110961245D01*
X151638000Y-111021000D01*
X157824734Y-111021000D01*
X158065190Y-111120846D01*
X158417265Y-111121153D01*
X158742657Y-110986704D01*
X158991829Y-110737967D01*
X159126846Y-110412810D01*
X159127153Y-110060735D01*
X158992704Y-109735343D01*
X158743967Y-109486171D01*
X158605598Y-109428715D01*
X158618846Y-109396810D01*
X158619153Y-109044735D01*
X158534146Y-108839000D01*
X167395907Y-108839000D01*
X167508946Y-109407285D01*
X167830853Y-109889054D01*
X167872452Y-109916850D01*
X167824683Y-109925838D01*
X167608559Y-110064910D01*
X167463569Y-110277110D01*
X167412560Y-110529000D01*
X167412560Y-112229000D01*
X167456838Y-112464317D01*
X167595910Y-112680441D01*
X167808110Y-112825431D01*
X168060000Y-112876440D01*
X169760000Y-112876440D01*
X169995317Y-112832162D01*
X170211441Y-112693090D01*
X170356431Y-112480890D01*
X170407440Y-112229000D01*
X170407440Y-110529000D01*
X170363162Y-110293683D01*
X170224090Y-110077559D01*
X170011890Y-109932569D01*
X169944459Y-109918914D01*
X169989147Y-109889054D01*
X170311054Y-109407285D01*
X170424093Y-108839000D01*
X170311054Y-108270715D01*
X169989147Y-107788946D01*
X169507378Y-107467039D01*
X168939093Y-107354000D01*
X168880907Y-107354000D01*
X168312622Y-107467039D01*
X167830853Y-107788946D01*
X167508946Y-108270715D01*
X167395907Y-108839000D01*
X158534146Y-108839000D01*
X158519000Y-108802346D01*
X158519000Y-105827266D01*
X158618846Y-105586810D01*
X158618893Y-105533000D01*
X163777178Y-105533000D01*
X163897201Y-105582838D01*
X164269167Y-105583162D01*
X164612943Y-105441117D01*
X164876192Y-105178327D01*
X165018838Y-104834799D01*
X165019162Y-104462833D01*
X164877117Y-104119057D01*
X164614327Y-103855808D01*
X164270799Y-103713162D01*
X163898833Y-103712838D01*
X163777431Y-103763000D01*
X160201802Y-103763000D01*
X162542931Y-101421871D01*
X162644675Y-101401633D01*
X162931790Y-101209790D01*
X163123633Y-100922675D01*
X163191000Y-100584000D01*
X163191000Y-99366822D01*
X163240838Y-99246799D01*
X163241162Y-98874833D01*
X163099117Y-98531057D01*
X162836327Y-98267808D01*
X162492799Y-98125162D01*
X162120833Y-98124838D01*
X161777057Y-98266883D01*
X161513808Y-98529673D01*
X161371162Y-98873201D01*
X161370838Y-99245167D01*
X161421000Y-99366569D01*
X161421000Y-100394198D01*
X159635000Y-102180198D01*
X159635000Y-99314000D01*
X159567633Y-98975325D01*
X159375790Y-98688210D01*
X159375787Y-98688208D01*
X157126715Y-96439135D01*
X157157167Y-96439162D01*
X157278569Y-96389000D01*
X167421965Y-96389000D01*
X167395907Y-96520000D01*
X167508946Y-97088285D01*
X167830853Y-97570054D01*
X168312622Y-97891961D01*
X168880907Y-98005000D01*
X168939093Y-98005000D01*
X169507378Y-97891961D01*
X169989147Y-97570054D01*
X170311054Y-97088285D01*
X170424093Y-96520000D01*
X170311054Y-95951715D01*
X169989147Y-95469946D01*
X169659974Y-95250000D01*
X169989147Y-95030054D01*
X170311054Y-94548285D01*
X170424093Y-93980000D01*
X170311054Y-93411715D01*
X169989147Y-92929946D01*
X169945223Y-92900597D01*
X170119698Y-92828327D01*
X170298327Y-92649699D01*
X170395000Y-92416310D01*
X170395000Y-91725750D01*
X170236250Y-91567000D01*
X169037000Y-91567000D01*
X169037000Y-91587000D01*
X168783000Y-91587000D01*
X168783000Y-91567000D01*
X167583750Y-91567000D01*
X167425000Y-91725750D01*
X167425000Y-92416310D01*
X167521673Y-92649699D01*
X167700302Y-92828327D01*
X167874777Y-92900597D01*
X167830853Y-92929946D01*
X167508946Y-93411715D01*
X167395907Y-93980000D01*
X167508946Y-94548285D01*
X167556196Y-94619000D01*
X157278822Y-94619000D01*
X157158799Y-94569162D01*
X156786833Y-94568838D01*
X156443057Y-94710883D01*
X156179808Y-94973673D01*
X156037162Y-95317201D01*
X156036838Y-95689167D01*
X156119407Y-95889000D01*
X153528579Y-95889000D01*
X151972744Y-94333164D01*
X151923117Y-94213057D01*
X151660327Y-93949808D01*
X151316799Y-93807162D01*
X150944833Y-93806838D01*
X150601057Y-93948883D01*
X150337808Y-94211673D01*
X150195162Y-94555201D01*
X150194838Y-94927167D01*
X150336883Y-95270943D01*
X150599673Y-95534192D01*
X150720986Y-95584566D01*
X151787421Y-96651000D01*
X146177000Y-96651000D01*
X146177000Y-90463690D01*
X167425000Y-90463690D01*
X167425000Y-91154250D01*
X167583750Y-91313000D01*
X168783000Y-91313000D01*
X168783000Y-90113750D01*
X169037000Y-90113750D01*
X169037000Y-91313000D01*
X170236250Y-91313000D01*
X170395000Y-91154250D01*
X170395000Y-90463690D01*
X170298327Y-90230301D01*
X170119698Y-90051673D01*
X169886309Y-89955000D01*
X169195750Y-89955000D01*
X169037000Y-90113750D01*
X168783000Y-90113750D01*
X168624250Y-89955000D01*
X167933691Y-89955000D01*
X167700302Y-90051673D01*
X167521673Y-90230301D01*
X167425000Y-90463690D01*
X146177000Y-90463690D01*
X146177000Y-90424000D01*
X146166994Y-90374590D01*
X146138553Y-90332965D01*
X146096159Y-90305685D01*
X146050000Y-90297000D01*
X140380890Y-90297000D01*
X140381162Y-89984833D01*
X140239117Y-89641057D01*
X139976327Y-89377808D01*
X139632799Y-89235162D01*
X139260833Y-89234838D01*
X139139431Y-89285000D01*
X136906005Y-89285000D01*
X136906000Y-89284999D01*
X136567325Y-89352367D01*
X136280210Y-89544210D01*
X136280208Y-89544213D01*
X135527421Y-90297000D01*
X120523000Y-90297000D01*
X120523000Y-88519000D01*
X170486000Y-88519000D01*
X170486000Y-114681000D01*
X170486000Y-114681000D01*
G37*
X170486000Y-114681000D02*
X157291491Y-114681000D01*
X157387054Y-114617147D01*
X157708961Y-114135378D01*
X157822000Y-113567093D01*
X157822000Y-113508907D01*
X157708961Y-112940622D01*
X157387054Y-112458853D01*
X156905285Y-112136946D01*
X156337000Y-112023907D01*
X155768715Y-112136946D01*
X155286946Y-112458853D01*
X155059298Y-112799553D01*
X154992183Y-112656642D01*
X154563924Y-112266355D01*
X154153890Y-112096524D01*
X153924000Y-112217845D01*
X153924000Y-113411000D01*
X153944000Y-113411000D01*
X153944000Y-113665000D01*
X153924000Y-113665000D01*
X153924000Y-113685000D01*
X153670000Y-113685000D01*
X153670000Y-113665000D01*
X153650000Y-113665000D01*
X153650000Y-113411000D01*
X153670000Y-113411000D01*
X153670000Y-112217845D01*
X153440110Y-112096524D01*
X153030076Y-112266355D01*
X152601817Y-112656642D01*
X152534702Y-112799553D01*
X152307054Y-112458853D01*
X151825285Y-112136946D01*
X151257000Y-112023907D01*
X150688715Y-112136946D01*
X150206946Y-112458853D01*
X150179150Y-112500452D01*
X150170162Y-112452683D01*
X150031090Y-112236559D01*
X149818890Y-112091569D01*
X149567000Y-112040560D01*
X147867000Y-112040560D01*
X147631683Y-112084838D01*
X147415559Y-112223910D01*
X147270569Y-112436110D01*
X147219560Y-112688000D01*
X147219560Y-114388000D01*
X147263838Y-114623317D01*
X147300956Y-114681000D01*
X146177000Y-114681000D01*
X146177000Y-98421000D01*
X155081420Y-98421000D01*
X155579000Y-98918579D01*
X155579000Y-105103178D01*
X155529162Y-105223201D01*
X155528838Y-105595167D01*
X155670883Y-105938943D01*
X155933673Y-106202192D01*
X156277201Y-106344838D01*
X156649167Y-106345162D01*
X156949000Y-106221274D01*
X156949000Y-108802734D01*
X156849154Y-109043190D01*
X156848847Y-109395265D01*
X156871876Y-109451000D01*
X152164425Y-109451000D01*
X152109245Y-109173594D01*
X151939079Y-108918921D01*
X151939076Y-108918919D01*
X151726130Y-108705972D01*
X151626704Y-108465343D01*
X151377967Y-108216171D01*
X151052810Y-108081154D01*
X150700735Y-108080847D01*
X150375343Y-108215296D01*
X150126171Y-108464033D01*
X149991154Y-108789190D01*
X149990847Y-109141265D01*
X150125296Y-109466657D01*
X150374033Y-109715829D01*
X150599000Y-109809243D01*
X150599000Y-109982000D01*
X150658755Y-110282407D01*
X150828921Y-110537079D01*
X151082921Y-110791079D01*
X151337593Y-110961245D01*
X151638000Y-111021000D01*
X157824734Y-111021000D01*
X158065190Y-111120846D01*
X158417265Y-111121153D01*
X158742657Y-110986704D01*
X158991829Y-110737967D01*
X159126846Y-110412810D01*
X159127153Y-110060735D01*
X158992704Y-109735343D01*
X158743967Y-109486171D01*
X158605598Y-109428715D01*
X158618846Y-109396810D01*
X158619153Y-109044735D01*
X158534146Y-108839000D01*
X167395907Y-108839000D01*
X167508946Y-109407285D01*
X167830853Y-109889054D01*
X167872452Y-109916850D01*
X167824683Y-109925838D01*
X167608559Y-110064910D01*
X167463569Y-110277110D01*
X167412560Y-110529000D01*
X167412560Y-112229000D01*
X167456838Y-112464317D01*
X167595910Y-112680441D01*
X167808110Y-112825431D01*
X168060000Y-112876440D01*
X169760000Y-112876440D01*
X169995317Y-112832162D01*
X170211441Y-112693090D01*
X170356431Y-112480890D01*
X170407440Y-112229000D01*
X170407440Y-110529000D01*
X170363162Y-110293683D01*
X170224090Y-110077559D01*
X170011890Y-109932569D01*
X169944459Y-109918914D01*
X169989147Y-109889054D01*
X170311054Y-109407285D01*
X170424093Y-108839000D01*
X170311054Y-108270715D01*
X169989147Y-107788946D01*
X169507378Y-107467039D01*
X168939093Y-107354000D01*
X168880907Y-107354000D01*
X168312622Y-107467039D01*
X167830853Y-107788946D01*
X167508946Y-108270715D01*
X167395907Y-108839000D01*
X158534146Y-108839000D01*
X158519000Y-108802346D01*
X158519000Y-105827266D01*
X158618846Y-105586810D01*
X158618893Y-105533000D01*
X163777178Y-105533000D01*
X163897201Y-105582838D01*
X164269167Y-105583162D01*
X164612943Y-105441117D01*
X164876192Y-105178327D01*
X165018838Y-104834799D01*
X165019162Y-104462833D01*
X164877117Y-104119057D01*
X164614327Y-103855808D01*
X164270799Y-103713162D01*
X163898833Y-103712838D01*
X163777431Y-103763000D01*
X160201802Y-103763000D01*
X162542931Y-101421871D01*
X162644675Y-101401633D01*
X162931790Y-101209790D01*
X163123633Y-100922675D01*
X163191000Y-100584000D01*
X163191000Y-99366822D01*
X163240838Y-99246799D01*
X163241162Y-98874833D01*
X163099117Y-98531057D01*
X162836327Y-98267808D01*
X162492799Y-98125162D01*
X162120833Y-98124838D01*
X161777057Y-98266883D01*
X161513808Y-98529673D01*
X161371162Y-98873201D01*
X161370838Y-99245167D01*
X161421000Y-99366569D01*
X161421000Y-100394198D01*
X159635000Y-102180198D01*
X159635000Y-99314000D01*
X159567633Y-98975325D01*
X159375790Y-98688210D01*
X159375787Y-98688208D01*
X157126715Y-96439135D01*
X157157167Y-96439162D01*
X157278569Y-96389000D01*
X167421965Y-96389000D01*
X167395907Y-96520000D01*
X167508946Y-97088285D01*
X167830853Y-97570054D01*
X168312622Y-97891961D01*
X168880907Y-98005000D01*
X168939093Y-98005000D01*
X169507378Y-97891961D01*
X169989147Y-97570054D01*
X170311054Y-97088285D01*
X170424093Y-96520000D01*
X170311054Y-95951715D01*
X169989147Y-95469946D01*
X169659974Y-95250000D01*
X169989147Y-95030054D01*
X170311054Y-94548285D01*
X170424093Y-93980000D01*
X170311054Y-93411715D01*
X169989147Y-92929946D01*
X169945223Y-92900597D01*
X170119698Y-92828327D01*
X170298327Y-92649699D01*
X170395000Y-92416310D01*
X170395000Y-91725750D01*
X170236250Y-91567000D01*
X169037000Y-91567000D01*
X169037000Y-91587000D01*
X168783000Y-91587000D01*
X168783000Y-91567000D01*
X167583750Y-91567000D01*
X167425000Y-91725750D01*
X167425000Y-92416310D01*
X167521673Y-92649699D01*
X167700302Y-92828327D01*
X167874777Y-92900597D01*
X167830853Y-92929946D01*
X167508946Y-93411715D01*
X167395907Y-93980000D01*
X167508946Y-94548285D01*
X167556196Y-94619000D01*
X157278822Y-94619000D01*
X157158799Y-94569162D01*
X156786833Y-94568838D01*
X156443057Y-94710883D01*
X156179808Y-94973673D01*
X156037162Y-95317201D01*
X156036838Y-95689167D01*
X156119407Y-95889000D01*
X153528579Y-95889000D01*
X151972744Y-94333164D01*
X151923117Y-94213057D01*
X151660327Y-93949808D01*
X151316799Y-93807162D01*
X150944833Y-93806838D01*
X150601057Y-93948883D01*
X150337808Y-94211673D01*
X150195162Y-94555201D01*
X150194838Y-94927167D01*
X150336883Y-95270943D01*
X150599673Y-95534192D01*
X150720986Y-95584566D01*
X151787421Y-96651000D01*
X146177000Y-96651000D01*
X146177000Y-90463690D01*
X167425000Y-90463690D01*
X167425000Y-91154250D01*
X167583750Y-91313000D01*
X168783000Y-91313000D01*
X168783000Y-90113750D01*
X169037000Y-90113750D01*
X169037000Y-91313000D01*
X170236250Y-91313000D01*
X170395000Y-91154250D01*
X170395000Y-90463690D01*
X170298327Y-90230301D01*
X170119698Y-90051673D01*
X169886309Y-89955000D01*
X169195750Y-89955000D01*
X169037000Y-90113750D01*
X168783000Y-90113750D01*
X168624250Y-89955000D01*
X167933691Y-89955000D01*
X167700302Y-90051673D01*
X167521673Y-90230301D01*
X167425000Y-90463690D01*
X146177000Y-90463690D01*
X146177000Y-90424000D01*
X146166994Y-90374590D01*
X146138553Y-90332965D01*
X146096159Y-90305685D01*
X146050000Y-90297000D01*
X140380890Y-90297000D01*
X140381162Y-89984833D01*
X140239117Y-89641057D01*
X139976327Y-89377808D01*
X139632799Y-89235162D01*
X139260833Y-89234838D01*
X139139431Y-89285000D01*
X136906005Y-89285000D01*
X136906000Y-89284999D01*
X136567325Y-89352367D01*
X136280210Y-89544210D01*
X136280208Y-89544213D01*
X135527421Y-90297000D01*
X120523000Y-90297000D01*
X120523000Y-88519000D01*
X170486000Y-88519000D01*
X170486000Y-114681000D01*
M02*
