G04 #@! TF.FileFunction,Copper,L1,Top,Signal*
%FSLAX46Y46*%
G04 Gerber Fmt 4.6, Leading zero omitted, Abs format (unit mm)*
G04 Created by KiCad (PCBNEW 4.0.6) date 07/31/17 21:00:10*
%MOMM*%
%LPD*%
G01*
G04 APERTURE LIST*
%ADD10C,0.100000*%
%ADD11R,1.000000X1.250000*%
%ADD12R,1.250000X1.000000*%
%ADD13R,0.800000X0.900000*%
%ADD14R,1.200000X1.200000*%
%ADD15R,1.700000X1.700000*%
%ADD16O,1.700000X1.700000*%
%ADD17R,1.400000X0.700000*%
%ADD18R,4.300000X4.410000*%
%ADD19R,0.700000X1.300000*%
%ADD20R,1.300000X0.700000*%
%ADD21R,0.700000X0.250000*%
%ADD22R,0.250000X0.700000*%
%ADD23R,1.287500X1.287500*%
%ADD24R,1.550000X0.600000*%
%ADD25R,1.600000X3.500000*%
%ADD26R,1.500000X1.300000*%
%ADD27C,0.600000*%
%ADD28C,0.500000*%
%ADD29C,0.500000*%
%ADD30C,0.250000*%
%ADD31C,0.300000*%
%ADD32C,0.160000*%
%ADD33C,0.254000*%
G04 APERTURE END LIST*
D10*
D11*
X164354000Y-106045000D03*
X166354000Y-106045000D03*
D12*
X156972000Y-100822000D03*
X156972000Y-98822000D03*
D11*
X143240000Y-110490000D03*
X141240000Y-110490000D03*
X143240000Y-101600000D03*
X141240000Y-101600000D03*
X143240000Y-92710000D03*
X141240000Y-92710000D03*
D13*
X159986000Y-104140000D03*
X162086000Y-104140000D03*
D14*
X165100000Y-97874000D03*
X165100000Y-95674000D03*
D15*
X148717000Y-113538000D03*
D16*
X151257000Y-113538000D03*
X153797000Y-113538000D03*
X156337000Y-113538000D03*
D15*
X168910000Y-91440000D03*
D16*
X168910000Y-93980000D03*
X168910000Y-96520000D03*
D15*
X168910000Y-111379000D03*
D16*
X168910000Y-108839000D03*
D17*
X131572000Y-109347000D03*
X131572000Y-110617000D03*
X131572000Y-111887000D03*
X131572000Y-113157000D03*
D18*
X135382000Y-111252000D03*
D17*
X123444000Y-109347000D03*
X123444000Y-110617000D03*
X123444000Y-111887000D03*
X123444000Y-113157000D03*
D18*
X127254000Y-111252000D03*
D17*
X131572000Y-100457000D03*
X131572000Y-101727000D03*
X131572000Y-102997000D03*
X131572000Y-104267000D03*
D18*
X135382000Y-102362000D03*
D17*
X123444000Y-100457000D03*
X123444000Y-101727000D03*
X123444000Y-102997000D03*
X123444000Y-104267000D03*
D18*
X127254000Y-102362000D03*
D17*
X131572000Y-91567000D03*
X131572000Y-92837000D03*
X131572000Y-94107000D03*
X131572000Y-95377000D03*
D18*
X135382000Y-93472000D03*
D17*
X123444000Y-91567000D03*
X123444000Y-92837000D03*
X123444000Y-94107000D03*
X123444000Y-95377000D03*
D18*
X127254000Y-93472000D03*
D19*
X162240000Y-100330000D03*
X160340000Y-100330000D03*
D20*
X158750000Y-100772000D03*
X158750000Y-98872000D03*
D19*
X141290000Y-107950000D03*
X143190000Y-107950000D03*
X141290000Y-113030000D03*
X143190000Y-113030000D03*
X141290000Y-99060000D03*
X143190000Y-99060000D03*
X141290000Y-104140000D03*
X143190000Y-104140000D03*
X141290000Y-90170000D03*
X143190000Y-90170000D03*
X141290000Y-95250000D03*
X143190000Y-95250000D03*
D20*
X165100000Y-92390000D03*
X165100000Y-90490000D03*
D21*
X155038000Y-107144000D03*
X155038000Y-106644000D03*
X155038000Y-106144000D03*
X155038000Y-105644000D03*
X155038000Y-105144000D03*
X155038000Y-104644000D03*
X155038000Y-104144000D03*
X155038000Y-103644000D03*
X155038000Y-103144000D03*
X155038000Y-102644000D03*
X155038000Y-102144000D03*
X155038000Y-101644000D03*
D22*
X154388000Y-100994000D03*
X153888000Y-100994000D03*
X153388000Y-100994000D03*
X152888000Y-100994000D03*
X152388000Y-100994000D03*
X151888000Y-100994000D03*
X151388000Y-100994000D03*
X150888000Y-100994000D03*
X150388000Y-100994000D03*
X149888000Y-100994000D03*
X149388000Y-100994000D03*
X148888000Y-100994000D03*
D21*
X148238000Y-101644000D03*
X148238000Y-102144000D03*
X148238000Y-102644000D03*
X148238000Y-103144000D03*
X148238000Y-103644000D03*
X148238000Y-104144000D03*
X148238000Y-104644000D03*
X148238000Y-105144000D03*
X148238000Y-105644000D03*
X148238000Y-106144000D03*
X148238000Y-106644000D03*
X148238000Y-107144000D03*
D22*
X148888000Y-107794000D03*
X149388000Y-107794000D03*
X149888000Y-107794000D03*
X150388000Y-107794000D03*
X150888000Y-107794000D03*
X151388000Y-107794000D03*
X151888000Y-107794000D03*
X152388000Y-107794000D03*
X152888000Y-107794000D03*
X153388000Y-107794000D03*
X153888000Y-107794000D03*
X154388000Y-107794000D03*
D23*
X149706750Y-102462750D03*
X149706750Y-103750250D03*
X149706750Y-105037750D03*
X149706750Y-106325250D03*
X150994250Y-102462750D03*
X150994250Y-103750250D03*
X150994250Y-105037750D03*
X150994250Y-106325250D03*
X152281750Y-102462750D03*
X152281750Y-103750250D03*
X152281750Y-105037750D03*
X152281750Y-106325250D03*
X153569250Y-102462750D03*
X153569250Y-103750250D03*
X153569250Y-105037750D03*
X153569250Y-106325250D03*
D24*
X160114000Y-108331000D03*
X160114000Y-109601000D03*
X160114000Y-110871000D03*
X160114000Y-112141000D03*
X165514000Y-112141000D03*
X165514000Y-110871000D03*
X165514000Y-109601000D03*
X165514000Y-108331000D03*
D11*
X158004000Y-92964000D03*
X160004000Y-92964000D03*
D25*
X148436000Y-92964000D03*
X153316000Y-92964000D03*
D26*
X161210000Y-114046000D03*
X163910000Y-114046000D03*
D27*
X156972000Y-95504000D03*
X153569250Y-106325250D03*
X152281750Y-106325250D03*
X150994250Y-106325250D03*
X149706750Y-106325250D03*
X153569250Y-105037750D03*
X152281750Y-105037750D03*
X150994250Y-105037750D03*
X149706750Y-105037750D03*
X153569250Y-103750250D03*
X152281750Y-103750250D03*
X150994250Y-103750250D03*
X149706750Y-103750250D03*
X153569250Y-102462750D03*
X152281750Y-102462750D03*
X150994250Y-102462750D03*
X149706750Y-102462750D03*
X121666000Y-88900000D03*
X122682000Y-88900000D03*
X122682000Y-89916000D03*
X123698000Y-89916000D03*
X123698000Y-88900000D03*
X152400000Y-108966000D03*
X161798000Y-109474000D03*
X163068000Y-91694000D03*
X150876000Y-96520000D03*
X162052000Y-105664000D03*
X167640000Y-105410000D03*
X163068000Y-96520000D03*
X160020000Y-98552000D03*
X136906000Y-98044000D03*
X135636000Y-98044000D03*
X134366000Y-98044000D03*
X164084000Y-104648000D03*
X162306000Y-99060000D03*
X158242000Y-104648000D03*
X156464000Y-105410000D03*
X139446000Y-110490000D03*
X129032000Y-113284000D03*
X139446000Y-101600000D03*
X129032000Y-104394000D03*
X139446000Y-92710000D03*
X129032000Y-95250000D03*
X158750000Y-103144000D03*
X151130000Y-94742000D03*
D28*
X157734000Y-109220000D03*
X157734000Y-105410000D03*
D27*
X131572000Y-113157000D03*
X139446000Y-107950000D03*
X123444000Y-113157000D03*
X139446000Y-113030000D03*
X131572000Y-104267000D03*
X139446000Y-99060000D03*
X123444000Y-104267000D03*
X139446000Y-104140000D03*
X131572000Y-95377000D03*
X139446000Y-90170000D03*
X123444000Y-95377000D03*
X139446000Y-95250000D03*
D28*
X150876000Y-108966000D03*
X158242000Y-110236000D03*
D29*
X162369500Y-107124500D02*
X162369500Y-107505500D01*
X161544000Y-110871000D02*
X160114000Y-110871000D01*
X162560000Y-109855000D02*
X161544000Y-110871000D01*
X162560000Y-107696000D02*
X162560000Y-109855000D01*
X162369500Y-107505500D02*
X162560000Y-107696000D01*
X156972000Y-92964000D02*
X158004000Y-92964000D01*
X157204000Y-95272000D02*
X157204000Y-92964000D01*
X156972000Y-95504000D02*
X157204000Y-95272000D01*
X157204000Y-92964000D02*
X156972000Y-92964000D01*
X156972000Y-92964000D02*
X153626000Y-92964000D01*
X163322000Y-103886000D02*
X168656000Y-103886000D01*
X168656000Y-103886000D02*
X168910000Y-103632000D01*
X168910000Y-103632000D02*
X168910000Y-96520000D01*
D30*
X155038000Y-102644000D02*
X156124002Y-102644000D01*
D31*
X163322000Y-102616000D02*
X163322000Y-103886000D01*
X163068000Y-102362000D02*
X163322000Y-102616000D01*
D30*
X156406002Y-102362000D02*
X163068000Y-102362000D01*
X156124002Y-102644000D02*
X156406002Y-102362000D01*
D29*
X163322000Y-106172000D02*
X162369500Y-107124500D01*
X162369500Y-107124500D02*
X162306000Y-107188000D01*
X162306000Y-107188000D02*
X157734000Y-107188000D01*
D31*
X157128000Y-107794000D02*
X154388000Y-107794000D01*
D29*
X157226000Y-107696000D02*
X157128000Y-107794000D01*
X157734000Y-107188000D02*
X157226000Y-107696000D01*
X163322000Y-103886000D02*
X163322000Y-106172000D01*
D30*
X153626000Y-92964000D02*
X153626000Y-93174000D01*
X150994250Y-106325250D02*
X149706750Y-106325250D01*
X150994250Y-102462750D02*
X149706750Y-102462750D01*
X152388000Y-107794000D02*
X152388000Y-106431500D01*
X152388000Y-106431500D02*
X152281750Y-106325250D01*
X150994250Y-102462750D02*
X152281750Y-102462750D01*
X152281750Y-102462750D02*
X153569250Y-102462750D01*
X153569250Y-102462750D02*
X153569250Y-103750250D01*
X153569250Y-103750250D02*
X152281750Y-103750250D01*
X152281750Y-103750250D02*
X150994250Y-103750250D01*
X150994250Y-103750250D02*
X149706750Y-103750250D01*
X149706750Y-103750250D02*
X149706750Y-105037750D01*
X149706750Y-105037750D02*
X150994250Y-105037750D01*
X150994250Y-105037750D02*
X152281750Y-105037750D01*
X152281750Y-105037750D02*
X153569250Y-105037750D01*
X153569250Y-105037750D02*
X153569250Y-106325250D01*
X153569250Y-106325250D02*
X152281750Y-106325250D01*
X152281750Y-106325250D02*
X150994250Y-106325250D01*
X150888000Y-100994000D02*
X150888000Y-102356500D01*
X150888000Y-102356500D02*
X152281750Y-103750250D01*
D29*
X121793000Y-91567000D02*
X123444000Y-91567000D01*
X121666000Y-91440000D02*
X121793000Y-91567000D01*
X121666000Y-88900000D02*
X121666000Y-91440000D01*
X122682000Y-89916000D02*
X122682000Y-88900000D01*
X123698000Y-88900000D02*
X123698000Y-89916000D01*
D30*
X156972000Y-98822000D02*
X158700000Y-98822000D01*
X158700000Y-98822000D02*
X158750000Y-98872000D01*
D29*
X163068000Y-91694000D02*
X161274000Y-91694000D01*
X161274000Y-91694000D02*
X160004000Y-92964000D01*
D30*
X152388000Y-107794000D02*
X152388000Y-108954000D01*
X152388000Y-108954000D02*
X152400000Y-108966000D01*
X160114000Y-109601000D02*
X161671000Y-109601000D01*
X161671000Y-109601000D02*
X161798000Y-109474000D01*
X150888000Y-100994000D02*
X150888000Y-96532000D01*
D29*
X150888000Y-96532000D02*
X150876000Y-96520000D01*
X165514000Y-108331000D02*
X165514000Y-106885000D01*
X165514000Y-106885000D02*
X166354000Y-106045000D01*
D30*
X162086000Y-104140000D02*
X162086000Y-105630000D01*
X162086000Y-105630000D02*
X162052000Y-105664000D01*
D29*
X167005000Y-106045000D02*
X167640000Y-105410000D01*
X166354000Y-106045000D02*
X167005000Y-106045000D01*
X163068000Y-96520000D02*
X163068000Y-91694000D01*
X165100000Y-90490000D02*
X167960000Y-90490000D01*
X167960000Y-90490000D02*
X168910000Y-91440000D01*
X165100000Y-90490000D02*
X164272000Y-90490000D01*
X164272000Y-90490000D02*
X163322000Y-91440000D01*
X163322000Y-91440000D02*
X163068000Y-91694000D01*
D30*
X152400000Y-107806000D02*
X152388000Y-107794000D01*
X158242000Y-98822000D02*
X159750000Y-98822000D01*
X159750000Y-98822000D02*
X160020000Y-98552000D01*
D29*
X135890000Y-98044000D02*
X136906000Y-98044000D01*
X135890000Y-98044000D02*
X135636000Y-98044000D01*
X164354000Y-106045000D02*
X164354000Y-104918000D01*
X164354000Y-104918000D02*
X164084000Y-104648000D01*
X161986000Y-100584000D02*
X161986000Y-99380000D01*
X161986000Y-99380000D02*
X162306000Y-99060000D01*
D30*
X157214000Y-103644000D02*
X158218000Y-104648000D01*
X158218000Y-104648000D02*
X158242000Y-104648000D01*
X157214000Y-103644000D02*
X155038000Y-103644000D01*
X155038000Y-104644000D02*
X155698000Y-104644000D01*
X155698000Y-104644000D02*
X156464000Y-105410000D01*
X158242000Y-100822000D02*
X159848000Y-100822000D01*
X155038000Y-101644000D02*
X155658000Y-101644000D01*
X156480000Y-100822000D02*
X158242000Y-100822000D01*
X155658000Y-101644000D02*
X156480000Y-100822000D01*
X159848000Y-100822000D02*
X160086000Y-100584000D01*
X148238000Y-106644000D02*
X146594000Y-106644000D01*
X144018000Y-110490000D02*
X143240000Y-110490000D01*
X144780000Y-109728000D02*
X144018000Y-110490000D01*
X144780000Y-108458000D02*
X144780000Y-109728000D01*
X146594000Y-106644000D02*
X144780000Y-108458000D01*
D29*
X141240000Y-110490000D02*
X139446000Y-110490000D01*
X129032000Y-113284000D02*
X127254000Y-111506000D01*
D30*
X127254000Y-111506000D02*
X127254000Y-111252000D01*
X127254000Y-111506000D02*
X127254000Y-111252000D01*
X148238000Y-106144000D02*
X146332000Y-106144000D01*
X141986000Y-109220000D02*
X141240000Y-109966000D01*
X144272000Y-109220000D02*
X141986000Y-109220000D01*
X144272000Y-108204000D02*
X144272000Y-109220000D01*
X146332000Y-106144000D02*
X144272000Y-108204000D01*
X148238000Y-104644000D02*
X146300000Y-104644000D01*
X144526000Y-101600000D02*
X143240000Y-101600000D01*
X144780000Y-101854000D02*
X144526000Y-101600000D01*
X144780000Y-103124000D02*
X144780000Y-101854000D01*
X146300000Y-104644000D02*
X144780000Y-103124000D01*
X148234000Y-104648000D02*
X148238000Y-104644000D01*
X148238000Y-104144000D02*
X146562000Y-104144000D01*
X141240000Y-100822000D02*
X141240000Y-101600000D01*
X141732000Y-100330000D02*
X141240000Y-100822000D01*
X144780000Y-100330000D02*
X141732000Y-100330000D01*
X145288000Y-100838000D02*
X144780000Y-100330000D01*
X145288000Y-102870000D02*
X145288000Y-100838000D01*
X146562000Y-104144000D02*
X145288000Y-102870000D01*
D29*
X129032000Y-104394000D02*
X127254000Y-102362000D01*
X141240000Y-101600000D02*
X139446000Y-101600000D01*
D30*
X127254000Y-102616000D02*
X127254000Y-102362000D01*
X148238000Y-102644000D02*
X147348000Y-102644000D01*
X145288000Y-92710000D02*
X143240000Y-92710000D01*
X145796000Y-93218000D02*
X145288000Y-92710000D01*
X145796000Y-97282000D02*
X145796000Y-93218000D01*
X146812000Y-98298000D02*
X145796000Y-97282000D01*
X146812000Y-102108000D02*
X146812000Y-98298000D01*
X147348000Y-102644000D02*
X146812000Y-102108000D01*
X148238000Y-102144000D02*
X147610000Y-102144000D01*
X142510000Y-91440000D02*
X141240000Y-92710000D01*
X145288000Y-91440000D02*
X142510000Y-91440000D01*
X146304000Y-92456000D02*
X145288000Y-91440000D01*
X146304000Y-97028000D02*
X146304000Y-92456000D01*
X147320000Y-98044000D02*
X146304000Y-97028000D01*
X147320000Y-101854000D02*
X147320000Y-98044000D01*
X147610000Y-102144000D02*
X147320000Y-101854000D01*
D29*
X141240000Y-92710000D02*
X139446000Y-92710000D01*
X129032000Y-95250000D02*
X127254000Y-93472000D01*
X151130000Y-94742000D02*
X149352000Y-92964000D01*
X148126000Y-92964000D02*
X149352000Y-92964000D01*
D30*
X155038000Y-103144000D02*
X158496000Y-103144000D01*
X158496000Y-103144000D02*
X158750000Y-103144000D01*
X158750000Y-103144000D02*
X158984000Y-103144000D01*
X158984000Y-103144000D02*
X159980000Y-104140000D01*
X159980000Y-104140000D02*
X159986000Y-104140000D01*
X154388000Y-100994000D02*
X154388000Y-97834000D01*
D29*
X154388000Y-97834000D02*
X154686000Y-97536000D01*
X154686000Y-97536000D02*
X164762000Y-97536000D01*
D30*
X164762000Y-97536000D02*
X165100000Y-97874000D01*
D29*
X165100000Y-95674000D02*
X165100000Y-92390000D01*
D31*
X155038000Y-104144000D02*
X156468000Y-104144000D01*
X156210000Y-110744000D02*
X156337000Y-113538000D01*
X157734000Y-109220000D02*
X156210000Y-110744000D01*
X156468000Y-104144000D02*
X157734000Y-105410000D01*
D29*
X148717000Y-113538000D02*
X148590000Y-108092000D01*
D32*
X148590000Y-108092000D02*
X148888000Y-107794000D01*
D31*
X151257000Y-112395000D02*
X151257000Y-113538000D01*
X149388000Y-110526000D02*
X151257000Y-112395000D01*
X149388000Y-107794000D02*
X149388000Y-110526000D01*
D32*
X151257000Y-113538000D02*
X151257000Y-112776000D01*
D31*
X155038000Y-102144000D02*
X155920000Y-102144000D01*
X155920000Y-102144000D02*
X156210000Y-101854000D01*
X156210000Y-101854000D02*
X162560000Y-101854000D01*
X162560000Y-101854000D02*
X163322000Y-101092000D01*
X163322000Y-101092000D02*
X163322000Y-99314000D01*
X163322000Y-99314000D02*
X163576000Y-99060000D01*
X163576000Y-99060000D02*
X165862000Y-99060000D01*
X165862000Y-99060000D02*
X166370000Y-98552000D01*
X166370000Y-98552000D02*
X166370000Y-93980000D01*
X166370000Y-93980000D02*
X168910000Y-93980000D01*
D30*
X168910000Y-93980000D02*
X168148000Y-93980000D01*
D29*
X165514000Y-110871000D02*
X164211000Y-110871000D01*
X164211000Y-110871000D02*
X163510000Y-111572000D01*
X163510000Y-111572000D02*
X163510000Y-114046000D01*
X165514000Y-110871000D02*
X166751000Y-110871000D01*
X166751000Y-110871000D02*
X167259000Y-111379000D01*
X167259000Y-111379000D02*
X168910000Y-111379000D01*
D31*
X165514000Y-109601000D02*
X163703000Y-109601000D01*
X161610000Y-112456000D02*
X161610000Y-114046000D01*
X163322000Y-110744000D02*
X161610000Y-112456000D01*
X163322000Y-109982000D02*
X163322000Y-110744000D01*
X163703000Y-109601000D02*
X163322000Y-109982000D01*
D29*
X165514000Y-109601000D02*
X166497000Y-109601000D01*
X166497000Y-109601000D02*
X167259000Y-108839000D01*
X167259000Y-108839000D02*
X168910000Y-108839000D01*
X141290000Y-107950000D02*
X139446000Y-107950000D01*
X141290000Y-113030000D02*
X139446000Y-113030000D01*
X141290000Y-99060000D02*
X139446000Y-99060000D01*
X141290000Y-104140000D02*
X139446000Y-104140000D01*
X141290000Y-90170000D02*
X139446000Y-90170000D01*
X141290000Y-95250000D02*
X139446000Y-95250000D01*
D30*
X148238000Y-105644000D02*
X146070000Y-105644000D01*
X143764000Y-107950000D02*
X143190000Y-107950000D01*
X146070000Y-105644000D02*
X143764000Y-107950000D01*
X148238000Y-107144000D02*
X146856000Y-107144000D01*
X144272000Y-111948000D02*
X143190000Y-113030000D01*
X144272000Y-110998000D02*
X144272000Y-111948000D01*
X145288000Y-109982000D02*
X144272000Y-110998000D01*
X145288000Y-108712000D02*
X145288000Y-109982000D01*
X146856000Y-107144000D02*
X145288000Y-108712000D01*
X148238000Y-103644000D02*
X146824000Y-103644000D01*
X145542000Y-99060000D02*
X143190000Y-99060000D01*
X145796000Y-99314000D02*
X145542000Y-99060000D01*
X145796000Y-102616000D02*
X145796000Y-99314000D01*
X146824000Y-103644000D02*
X145796000Y-102616000D01*
X148238000Y-105144000D02*
X146038000Y-105144000D01*
X145034000Y-104140000D02*
X143190000Y-104140000D01*
X146038000Y-105144000D02*
X145034000Y-104140000D01*
X148238000Y-101644000D02*
X148238000Y-97184000D01*
X146558000Y-90170000D02*
X143190000Y-90170000D01*
X146812000Y-90424000D02*
X146558000Y-90170000D01*
X146812000Y-96774000D02*
X146812000Y-90424000D01*
X147828000Y-96774000D02*
X146812000Y-96774000D01*
X148238000Y-97184000D02*
X147828000Y-96774000D01*
X148238000Y-103144000D02*
X147086000Y-103144000D01*
X145034000Y-95250000D02*
X143190000Y-95250000D01*
X145288000Y-95504000D02*
X145034000Y-95250000D01*
X145288000Y-97536000D02*
X145288000Y-95504000D01*
X146304000Y-98552000D02*
X145288000Y-97536000D01*
X146304000Y-102362000D02*
X146304000Y-98552000D01*
X147086000Y-103144000D02*
X146304000Y-102362000D01*
X148218000Y-103124000D02*
X148238000Y-103144000D01*
D31*
X149888000Y-107794000D02*
X149888000Y-109303448D01*
X149888000Y-109303448D02*
X150820552Y-110236000D01*
X150820552Y-110236000D02*
X155702000Y-110236000D01*
X155702000Y-110236000D02*
X157607000Y-108331000D01*
X157607000Y-108331000D02*
X160114000Y-108331000D01*
D32*
X149860000Y-107822000D02*
X149888000Y-107794000D01*
D31*
X150388000Y-107794000D02*
X150388000Y-108692000D01*
X150388000Y-108692000D02*
X150662000Y-108966000D01*
X150662000Y-108966000D02*
X150876000Y-108966000D01*
X158242000Y-110236000D02*
X158242000Y-112014000D01*
X158242000Y-112014000D02*
X158369000Y-112141000D01*
X158369000Y-112141000D02*
X160114000Y-112141000D01*
D33*
G36*
X132207000Y-94361000D02*
X129540000Y-94361000D01*
X129490590Y-94371006D01*
X129448965Y-94399447D01*
X129421685Y-94441841D01*
X129413000Y-94488000D01*
X129413000Y-95631000D01*
X125095000Y-95631000D01*
X125095000Y-88519000D01*
X132207000Y-88519000D01*
X132207000Y-94361000D01*
X132207000Y-94361000D01*
G37*
X132207000Y-94361000D02*
X129540000Y-94361000D01*
X129490590Y-94371006D01*
X129448965Y-94399447D01*
X129421685Y-94441841D01*
X129413000Y-94488000D01*
X129413000Y-95631000D01*
X125095000Y-95631000D01*
X125095000Y-88519000D01*
X132207000Y-88519000D01*
X132207000Y-94361000D01*
G36*
X137541000Y-113411000D02*
X133223000Y-113411000D01*
X133223000Y-88519000D01*
X137541000Y-88519000D01*
X137541000Y-113411000D01*
X137541000Y-113411000D01*
G37*
X137541000Y-113411000D02*
X133223000Y-113411000D01*
X133223000Y-88519000D01*
X137541000Y-88519000D01*
X137541000Y-113411000D01*
G36*
X132207000Y-103251000D02*
X129540000Y-103251000D01*
X129490590Y-103261006D01*
X129448965Y-103289447D01*
X129421685Y-103331841D01*
X129413000Y-103378000D01*
X129413000Y-104521000D01*
X125095000Y-104521000D01*
X125095000Y-96647000D01*
X132207000Y-96647000D01*
X132207000Y-103251000D01*
X132207000Y-103251000D01*
G37*
X132207000Y-103251000D02*
X129540000Y-103251000D01*
X129490590Y-103261006D01*
X129448965Y-103289447D01*
X129421685Y-103331841D01*
X129413000Y-103378000D01*
X129413000Y-104521000D01*
X125095000Y-104521000D01*
X125095000Y-96647000D01*
X132207000Y-96647000D01*
X132207000Y-103251000D01*
G36*
X132207000Y-112141000D02*
X129540000Y-112141000D01*
X129490590Y-112151006D01*
X129448965Y-112179447D01*
X129421685Y-112221841D01*
X129413000Y-112268000D01*
X129413000Y-113411000D01*
X125095000Y-113411000D01*
X125095000Y-105537000D01*
X132207000Y-105537000D01*
X132207000Y-112141000D01*
X132207000Y-112141000D01*
G37*
X132207000Y-112141000D02*
X129540000Y-112141000D01*
X129490590Y-112151006D01*
X129448965Y-112179447D01*
X129421685Y-112221841D01*
X129413000Y-112268000D01*
X129413000Y-113411000D01*
X125095000Y-113411000D01*
X125095000Y-105537000D01*
X132207000Y-105537000D01*
X132207000Y-112141000D01*
G36*
X124079000Y-94361000D02*
X122174000Y-94361000D01*
X122124590Y-94371006D01*
X122082965Y-94399447D01*
X122055685Y-94441841D01*
X122047000Y-94488000D01*
X122047000Y-99822000D01*
X122057006Y-99871410D01*
X122085447Y-99913035D01*
X122127841Y-99940315D01*
X122174000Y-99949000D01*
X124333000Y-99949000D01*
X124333000Y-103251000D01*
X122174000Y-103251000D01*
X122124590Y-103261006D01*
X122082965Y-103289447D01*
X122055685Y-103331841D01*
X122047000Y-103378000D01*
X122047000Y-108712000D01*
X122057006Y-108761410D01*
X122085447Y-108803035D01*
X122127841Y-108830315D01*
X122174000Y-108839000D01*
X124079000Y-108839000D01*
X124079000Y-112141000D01*
X120523000Y-112141000D01*
X120523000Y-88519000D01*
X124079000Y-88519000D01*
X124079000Y-94361000D01*
X124079000Y-94361000D01*
G37*
X124079000Y-94361000D02*
X122174000Y-94361000D01*
X122124590Y-94371006D01*
X122082965Y-94399447D01*
X122055685Y-94441841D01*
X122047000Y-94488000D01*
X122047000Y-99822000D01*
X122057006Y-99871410D01*
X122085447Y-99913035D01*
X122127841Y-99940315D01*
X122174000Y-99949000D01*
X124333000Y-99949000D01*
X124333000Y-103251000D01*
X122174000Y-103251000D01*
X122124590Y-103261006D01*
X122082965Y-103289447D01*
X122055685Y-103331841D01*
X122047000Y-103378000D01*
X122047000Y-108712000D01*
X122057006Y-108761410D01*
X122085447Y-108803035D01*
X122127841Y-108830315D01*
X122174000Y-108839000D01*
X124079000Y-108839000D01*
X124079000Y-112141000D01*
X120523000Y-112141000D01*
X120523000Y-88519000D01*
X124079000Y-88519000D01*
X124079000Y-94361000D01*
M02*
