M48
INCH,TZ
T1C0.012
T2C0.016
T3C0.039
%
G90
G05
T1
X59400Y-42900
X62100Y-41500
X62100Y-43000
X62300Y-43400
T2
X47900Y-35000
X48300Y-35000
X48300Y-35400
X48600Y-37550
X48600Y-41050
X48600Y-44550
X48700Y-35000
X48700Y-35400
X50800Y-37500
X50800Y-41100
X50800Y-44600
X51800Y-37550
X51800Y-41050
X51800Y-44550
X52900Y-38600
X53400Y-38600
X53900Y-38600
X54900Y-35500
X54900Y-36500
X54900Y-37500
X54900Y-39000
X54900Y-40000
X54900Y-41000
X54900Y-42500
X54900Y-43500
X54900Y-44500
X58940Y-40340
X58940Y-40847
X58940Y-41353
X58940Y-41860
X59400Y-38000
X59447Y-40340
X59447Y-40847
X59447Y-41353
X59447Y-41860
X59500Y-37300
X59953Y-40340
X59953Y-40847
X59953Y-41353
X59953Y-41860
X60000Y-42900
X60460Y-40340
X60460Y-40847
X60460Y-41353
X60460Y-41860
X61600Y-41500
X61800Y-37600
X62300Y-41200
X62500Y-40608
X63000Y-38800
X63700Y-43100
X63800Y-41600
X63900Y-39000
X64200Y-36100
X64200Y-38000
X64600Y-41200
X66000Y-41500
T3
X58550Y-44700
X59550Y-44700
X60550Y-44700
X61550Y-44700
X66500Y-36000
X66500Y-37000
X66500Y-38000
X66500Y-42850
X66500Y-43850
T0
M30
