G04 #@! TF.FileFunction,Soldermask,Top*
%FSLAX46Y46*%
G04 Gerber Fmt 4.6, Leading zero omitted, Abs format (unit mm)*
G04 Created by KiCad (PCBNEW 4.0.6) date 06/11/18 21:36:11*
%MOMM*%
%LPD*%
G01*
G04 APERTURE LIST*
%ADD10C,0.100000*%
%ADD11C,0.250000*%
%ADD12C,0.200000*%
%ADD13C,3.500000*%
%ADD14R,0.750000X0.800000*%
%ADD15R,0.800000X0.750000*%
%ADD16R,0.800000X0.800000*%
%ADD17R,0.500000X0.500000*%
%ADD18R,1.700000X1.700000*%
%ADD19O,1.700000X1.700000*%
%ADD20R,0.900000X2.500000*%
%ADD21R,1.400000X0.700000*%
%ADD22R,4.300000X4.410000*%
%ADD23R,0.500000X0.900000*%
%ADD24R,0.900000X0.500000*%
%ADD25R,0.304800X0.889000*%
%ADD26R,2.000000X0.600000*%
%ADD27O,0.750000X0.300000*%
%ADD28O,0.300000X0.750000*%
%ADD29R,0.900000X0.900000*%
%ADD30R,0.400000X1.400000*%
%ADD31R,2.150000X2.200000*%
%ADD32R,1.000000X1.600000*%
%ADD33R,0.750000X0.350000*%
%ADD34R,1.250000X0.900000*%
%ADD35R,1.600000X1.000000*%
%ADD36R,1.000000X1.250000*%
%ADD37R,0.900000X1.700000*%
%ADD38R,0.700000X0.250000*%
%ADD39R,0.640000X1.200000*%
%ADD40R,0.800000X0.900000*%
%ADD41R,2.400000X0.740000*%
%ADD42R,0.600000X0.300000*%
%ADD43R,0.300000X0.600000*%
%ADD44R,2.000000X2.000000*%
%ADD45C,0.254000*%
G04 APERTURE END LIST*
D10*
D11*
X62550000Y-81802381D02*
X62550000Y-80802381D01*
X63026190Y-81802381D02*
X63026190Y-80802381D01*
X63264285Y-80802381D01*
X63407143Y-80850000D01*
X63502381Y-80945238D01*
X63550000Y-81040476D01*
X63597619Y-81230952D01*
X63597619Y-81373810D01*
X63550000Y-81564286D01*
X63502381Y-81659524D01*
X63407143Y-81754762D01*
X63264285Y-81802381D01*
X63026190Y-81802381D01*
X67954762Y-81907143D02*
X67907143Y-81954762D01*
X67764286Y-82002381D01*
X67669048Y-82002381D01*
X67526190Y-81954762D01*
X67430952Y-81859524D01*
X67383333Y-81764286D01*
X67335714Y-81573810D01*
X67335714Y-81430952D01*
X67383333Y-81240476D01*
X67430952Y-81145238D01*
X67526190Y-81050000D01*
X67669048Y-81002381D01*
X67764286Y-81002381D01*
X67907143Y-81050000D01*
X67954762Y-81097619D01*
X68811905Y-82002381D02*
X68811905Y-81478571D01*
X68764286Y-81383333D01*
X68669048Y-81335714D01*
X68478571Y-81335714D01*
X68383333Y-81383333D01*
X68811905Y-81954762D02*
X68716667Y-82002381D01*
X68478571Y-82002381D01*
X68383333Y-81954762D01*
X68335714Y-81859524D01*
X68335714Y-81764286D01*
X68383333Y-81669048D01*
X68478571Y-81621429D01*
X68716667Y-81621429D01*
X68811905Y-81573810D01*
X69430952Y-82002381D02*
X69335714Y-81954762D01*
X69288095Y-81859524D01*
X69288095Y-81002381D01*
X69811905Y-82002381D02*
X69811905Y-81335714D01*
X69811905Y-81002381D02*
X69764286Y-81050000D01*
X69811905Y-81097619D01*
X69859524Y-81050000D01*
X69811905Y-81002381D01*
X69811905Y-81097619D01*
X70288095Y-82002381D02*
X70288095Y-81002381D01*
X70288095Y-81383333D02*
X70383333Y-81335714D01*
X70573810Y-81335714D01*
X70669048Y-81383333D01*
X70716667Y-81430952D01*
X70764286Y-81526190D01*
X70764286Y-81811905D01*
X70716667Y-81907143D01*
X70669048Y-81954762D01*
X70573810Y-82002381D01*
X70383333Y-82002381D01*
X70288095Y-81954762D01*
D12*
X78716666Y-53502381D02*
X78716666Y-52502381D01*
X78954761Y-52502381D01*
X79097619Y-52550000D01*
X79192857Y-52645238D01*
X79240476Y-52740476D01*
X79288095Y-52930952D01*
X79288095Y-53073810D01*
X79240476Y-53264286D01*
X79192857Y-53359524D01*
X79097619Y-53454762D01*
X78954761Y-53502381D01*
X78716666Y-53502381D01*
X79716666Y-53502381D02*
X79716666Y-52835714D01*
X79716666Y-52502381D02*
X79669047Y-52550000D01*
X79716666Y-52597619D01*
X79764285Y-52550000D01*
X79716666Y-52502381D01*
X79716666Y-52597619D01*
X80097618Y-52835714D02*
X80621428Y-52835714D01*
X80097618Y-53502381D01*
X80621428Y-53502381D01*
X80907142Y-52835714D02*
X81430952Y-52835714D01*
X80907142Y-53502381D01*
X81430952Y-53502381D01*
X81716666Y-52835714D02*
X81954761Y-53502381D01*
X82192857Y-52835714D02*
X81954761Y-53502381D01*
X81859523Y-53740476D01*
X81811904Y-53788095D01*
X81716666Y-53835714D01*
X83145238Y-53502381D02*
X82811904Y-53026190D01*
X82573809Y-53502381D02*
X82573809Y-52502381D01*
X82954762Y-52502381D01*
X83050000Y-52550000D01*
X83097619Y-52597619D01*
X83145238Y-52692857D01*
X83145238Y-52835714D01*
X83097619Y-52930952D01*
X83050000Y-52978571D01*
X82954762Y-53026190D01*
X82573809Y-53026190D01*
X83716666Y-53502381D02*
X83621428Y-53454762D01*
X83573809Y-53407143D01*
X83526190Y-53311905D01*
X83526190Y-53026190D01*
X83573809Y-52930952D01*
X83621428Y-52883333D01*
X83716666Y-52835714D01*
X83859524Y-52835714D01*
X83954762Y-52883333D01*
X84002381Y-52930952D01*
X84050000Y-53026190D01*
X84050000Y-53311905D01*
X84002381Y-53407143D01*
X83954762Y-53454762D01*
X83859524Y-53502381D01*
X83716666Y-53502381D01*
X84478571Y-53502381D02*
X84478571Y-52502381D01*
X84478571Y-52883333D02*
X84573809Y-52835714D01*
X84764286Y-52835714D01*
X84859524Y-52883333D01*
X84907143Y-52930952D01*
X84954762Y-53026190D01*
X84954762Y-53311905D01*
X84907143Y-53407143D01*
X84859524Y-53454762D01*
X84764286Y-53502381D01*
X84573809Y-53502381D01*
X84478571Y-53454762D01*
X85526190Y-53502381D02*
X85430952Y-53454762D01*
X85383333Y-53407143D01*
X85335714Y-53311905D01*
X85335714Y-53026190D01*
X85383333Y-52930952D01*
X85430952Y-52883333D01*
X85526190Y-52835714D01*
X85669048Y-52835714D01*
X85764286Y-52883333D01*
X85811905Y-52930952D01*
X85859524Y-53026190D01*
X85859524Y-53311905D01*
X85811905Y-53407143D01*
X85764286Y-53454762D01*
X85669048Y-53502381D01*
X85526190Y-53502381D01*
X86145238Y-52835714D02*
X86526190Y-52835714D01*
X86288095Y-52502381D02*
X86288095Y-53359524D01*
X86335714Y-53454762D01*
X86430952Y-53502381D01*
X86526190Y-53502381D01*
D13*
X50000000Y-81000000D03*
X81000000Y-81000000D03*
X81000000Y-50000000D03*
D14*
X66900000Y-48650000D03*
X66900000Y-47150000D03*
D15*
X59600000Y-55800000D03*
X58100000Y-55800000D03*
X59600000Y-54100000D03*
X58100000Y-54100000D03*
X59550000Y-52100000D03*
X58050000Y-52100000D03*
D14*
X75500000Y-80350000D03*
X75500000Y-78850000D03*
X68300000Y-70550000D03*
X68300000Y-72050000D03*
D16*
X68200000Y-74950000D03*
X69800000Y-74950000D03*
D17*
X55500000Y-44350000D03*
X53300000Y-44350000D03*
D18*
X73200000Y-85900000D03*
D19*
X70660000Y-85900000D03*
D18*
X56600000Y-85900000D03*
X59200000Y-85900000D03*
X62500000Y-85900000D03*
X65040000Y-85900000D03*
X67580000Y-85900000D03*
D20*
X72700000Y-52000000D03*
X75600000Y-52000000D03*
D21*
X50100000Y-73240000D03*
X50100000Y-71970000D03*
X50100000Y-70700000D03*
X50100000Y-69430000D03*
D22*
X46290000Y-71335000D03*
D21*
X50100000Y-67570000D03*
X50100000Y-66300000D03*
X50100000Y-65030000D03*
X50100000Y-63760000D03*
D22*
X46290000Y-65665000D03*
D21*
X50000000Y-62000000D03*
X50000000Y-60730000D03*
X50000000Y-59460000D03*
X50000000Y-58190000D03*
D22*
X46190000Y-60095000D03*
D23*
X63750000Y-76300000D03*
X62250000Y-76300000D03*
X68250000Y-76750000D03*
X69750000Y-76750000D03*
D24*
X55250000Y-56950000D03*
X55250000Y-55450000D03*
X56600000Y-56950000D03*
X56600000Y-55450000D03*
X52650000Y-56950000D03*
X52650000Y-55450000D03*
X53950000Y-56950000D03*
X53950000Y-55450000D03*
X50000000Y-56950000D03*
X50000000Y-55450000D03*
X51350000Y-56950000D03*
X51350000Y-55450000D03*
D23*
X74450000Y-70600000D03*
X72950000Y-70600000D03*
D25*
X73850000Y-78050000D03*
X73350000Y-78050000D03*
X72850000Y-78050000D03*
X72350000Y-78050000D03*
X72350000Y-81072600D03*
X72850000Y-81072600D03*
X73350000Y-81072600D03*
X73850000Y-81072600D03*
D26*
X73000000Y-79561300D03*
D27*
X64025000Y-70200000D03*
X64025000Y-70700000D03*
X64025000Y-71200000D03*
X64025000Y-71700000D03*
D28*
X64750000Y-72425000D03*
X65250000Y-72425000D03*
X65750000Y-72425000D03*
X66250000Y-72425000D03*
D27*
X66975000Y-71700000D03*
X66975000Y-71200000D03*
X66975000Y-70700000D03*
X66975000Y-70200000D03*
D28*
X66250000Y-69475000D03*
X65750000Y-69475000D03*
X65250000Y-69475000D03*
X64750000Y-69475000D03*
D29*
X65950000Y-71400000D03*
X65950000Y-70500000D03*
X65050000Y-71400000D03*
X65050000Y-70500000D03*
D30*
X70750000Y-56100000D03*
X69550000Y-56100000D03*
X68350000Y-56100000D03*
D14*
X66900000Y-44450000D03*
X66900000Y-45950000D03*
D21*
X57823935Y-73205000D03*
X57823935Y-71935000D03*
X57823935Y-70665000D03*
X57823935Y-69395000D03*
D31*
X52958935Y-72400000D03*
X52958935Y-70200000D03*
X55108935Y-72400000D03*
X55108935Y-70200000D03*
D21*
X57810000Y-67605000D03*
X57810000Y-66335000D03*
X57810000Y-65065000D03*
X57810000Y-63795000D03*
D31*
X52945000Y-66800000D03*
X52945000Y-64600000D03*
X55095000Y-66800000D03*
X55095000Y-64600000D03*
D21*
X57823935Y-62000000D03*
X57823935Y-60730000D03*
X57823935Y-59460000D03*
X57823935Y-58190000D03*
D31*
X52958935Y-61195000D03*
X52958935Y-58995000D03*
X55108935Y-61195000D03*
X55108935Y-58995000D03*
D32*
X75200000Y-48500000D03*
X72200000Y-48500000D03*
D20*
X68350000Y-45300000D03*
X71250000Y-45300000D03*
D14*
X61200000Y-51850000D03*
X61200000Y-50350000D03*
D15*
X69050000Y-47800000D03*
X70550000Y-47800000D03*
X70600000Y-48900000D03*
X69100000Y-48900000D03*
D14*
X72600000Y-46800000D03*
X72600000Y-45300000D03*
D33*
X60925000Y-44850000D03*
X60925000Y-45650000D03*
X60925000Y-46450000D03*
X60925000Y-47250000D03*
X64925000Y-47250000D03*
X64925000Y-46450000D03*
X64925000Y-45650000D03*
X64925000Y-44850000D03*
D34*
X63550000Y-47400000D03*
X63550000Y-46500000D03*
X63550000Y-45600000D03*
X63550000Y-44700000D03*
X62300000Y-47400000D03*
X62300000Y-46500000D03*
X62300000Y-45600000D03*
X62300000Y-44700000D03*
D14*
X68150000Y-51650000D03*
X68150000Y-50150000D03*
D17*
X74500000Y-72700000D03*
X72300000Y-72700000D03*
D15*
X71250000Y-54550000D03*
X69750000Y-54550000D03*
D35*
X57900000Y-47200000D03*
X57900000Y-44200000D03*
D36*
X75150000Y-54350000D03*
X73150000Y-54350000D03*
D14*
X74400000Y-63350000D03*
X74400000Y-64850000D03*
D16*
X63800000Y-74950000D03*
X62200000Y-74950000D03*
D17*
X74500000Y-76300000D03*
X72300000Y-76300000D03*
X74500000Y-74500000D03*
X72300000Y-74500000D03*
D23*
X60350000Y-48500000D03*
X58850000Y-48500000D03*
D37*
X67550000Y-79100000D03*
X70450000Y-79100000D03*
X61550000Y-79100000D03*
X64450000Y-79100000D03*
D38*
X69575000Y-51300000D03*
X69575000Y-51800000D03*
X69575000Y-52300000D03*
X69575000Y-52800000D03*
X69575000Y-53300000D03*
X71425000Y-53300000D03*
X71425000Y-52800000D03*
X71425000Y-52300000D03*
X71425000Y-51800000D03*
X71425000Y-51300000D03*
D39*
X70500000Y-52900000D03*
X70500000Y-51700000D03*
D26*
X76850000Y-55945000D03*
X76850000Y-57215000D03*
X76850000Y-58485000D03*
X76850000Y-59755000D03*
X76850000Y-61025000D03*
X76850000Y-62295000D03*
X76850000Y-63565000D03*
X76850000Y-64835000D03*
X76850000Y-66105000D03*
X76850000Y-67375000D03*
X76850000Y-68645000D03*
X76850000Y-69915000D03*
X76850000Y-71185000D03*
X76850000Y-72455000D03*
X86250000Y-72455000D03*
X86250000Y-71185000D03*
X86250000Y-69915000D03*
X86250000Y-68645000D03*
X86250000Y-67375000D03*
X86250000Y-66105000D03*
X86250000Y-64835000D03*
X86250000Y-63565000D03*
X86250000Y-62295000D03*
X86250000Y-61025000D03*
X86250000Y-59755000D03*
X86250000Y-58485000D03*
X86250000Y-57215000D03*
X86250000Y-55945000D03*
D24*
X76400000Y-44250000D03*
X76400000Y-45750000D03*
D40*
X72700000Y-69200000D03*
X74600000Y-69200000D03*
X73650000Y-67200000D03*
D16*
X75200000Y-45850000D03*
X75200000Y-44250000D03*
D41*
X62600000Y-53100000D03*
X66500000Y-53100000D03*
X62600000Y-54370000D03*
X66500000Y-54370000D03*
X62600000Y-55640000D03*
X66500000Y-55640000D03*
X62600000Y-56910000D03*
X66500000Y-56910000D03*
X62600000Y-58180000D03*
X66500000Y-58180000D03*
D42*
X69600000Y-58250000D03*
X69600000Y-58750000D03*
X69600000Y-59250000D03*
X69600000Y-59750000D03*
X69600000Y-60250000D03*
X69600000Y-60750000D03*
X69600000Y-61250000D03*
X69600000Y-61750000D03*
D43*
X70200000Y-62350000D03*
X70700000Y-62350000D03*
X71200000Y-62350000D03*
X71700000Y-62350000D03*
X72200000Y-62350000D03*
X72700000Y-62350000D03*
X73200000Y-62350000D03*
X73700000Y-62350000D03*
D42*
X74300000Y-61750000D03*
X74300000Y-61250000D03*
X74300000Y-60750000D03*
X74300000Y-60250000D03*
X74300000Y-59750000D03*
X74300000Y-59250000D03*
X74300000Y-58750000D03*
X74300000Y-58250000D03*
D43*
X73700000Y-57650000D03*
X73200000Y-57650000D03*
X72700000Y-57650000D03*
X72200000Y-57650000D03*
X71700000Y-57650000D03*
X71200000Y-57650000D03*
X70700000Y-57650000D03*
X70200000Y-57650000D03*
D44*
X72000000Y-60050000D03*
D13*
X50000000Y-50000000D03*
D45*
G36*
X48273000Y-74000000D02*
X48283006Y-74049410D01*
X48311447Y-74091035D01*
X48353841Y-74118315D01*
X48382886Y-74125842D01*
X54573198Y-74967724D01*
X57373000Y-79535822D01*
X57373000Y-87873000D01*
X53127000Y-87873000D01*
X53127000Y-80000000D01*
X53116994Y-79950590D01*
X53089803Y-79910197D01*
X51089803Y-77910197D01*
X51047789Y-77882334D01*
X51000000Y-77873000D01*
X45391502Y-77873000D01*
X43427000Y-76435559D01*
X43427000Y-58027000D01*
X48273000Y-58027000D01*
X48273000Y-74000000D01*
X48273000Y-74000000D01*
G37*
X48273000Y-74000000D02*
X48283006Y-74049410D01*
X48311447Y-74091035D01*
X48353841Y-74118315D01*
X48382886Y-74125842D01*
X54573198Y-74967724D01*
X57373000Y-79535822D01*
X57373000Y-87873000D01*
X53127000Y-87873000D01*
X53127000Y-80000000D01*
X53116994Y-79950590D01*
X53089803Y-79910197D01*
X51089803Y-77910197D01*
X51047789Y-77882334D01*
X51000000Y-77873000D01*
X45391502Y-77873000D01*
X43427000Y-76435559D01*
X43427000Y-58027000D01*
X48273000Y-58027000D01*
X48273000Y-74000000D01*
G36*
X55974435Y-62173000D02*
X49427000Y-62173000D01*
X49427000Y-59227000D01*
X51850000Y-59227000D01*
X51899410Y-59216994D01*
X51941035Y-59188553D01*
X51968315Y-59146159D01*
X51977000Y-59100000D01*
X51977000Y-58027000D01*
X56021548Y-58027000D01*
X55974435Y-62173000D01*
X55974435Y-62173000D01*
G37*
X55974435Y-62173000D02*
X49427000Y-62173000D01*
X49427000Y-59227000D01*
X51850000Y-59227000D01*
X51899410Y-59216994D01*
X51941035Y-59188553D01*
X51968315Y-59146159D01*
X51977000Y-59100000D01*
X51977000Y-58027000D01*
X56021548Y-58027000D01*
X55974435Y-62173000D01*
G36*
X55974435Y-67773000D02*
X49527000Y-67773000D01*
X49527000Y-64827000D01*
X51900000Y-64827000D01*
X51949410Y-64816994D01*
X51991035Y-64788553D01*
X52018315Y-64746159D01*
X52027000Y-64700000D01*
X52027000Y-63627000D01*
X56021548Y-63627000D01*
X55974435Y-67773000D01*
X55974435Y-67773000D01*
G37*
X55974435Y-67773000D02*
X49527000Y-67773000D01*
X49527000Y-64827000D01*
X51900000Y-64827000D01*
X51949410Y-64816994D01*
X51991035Y-64788553D01*
X52018315Y-64746159D01*
X52027000Y-64700000D01*
X52027000Y-63627000D01*
X56021548Y-63627000D01*
X55974435Y-67773000D01*
G36*
X56023000Y-73422055D02*
X49527000Y-73373937D01*
X49527000Y-70477000D01*
X51900000Y-70477000D01*
X51949410Y-70466994D01*
X51991035Y-70438553D01*
X52018315Y-70396159D01*
X52027000Y-70350000D01*
X52027000Y-69227000D01*
X56023000Y-69227000D01*
X56023000Y-73422055D01*
X56023000Y-73422055D01*
G37*
X56023000Y-73422055D02*
X49527000Y-73373937D01*
X49527000Y-70477000D01*
X51900000Y-70477000D01*
X51949410Y-70466994D01*
X51991035Y-70438553D01*
X52018315Y-70396159D01*
X52027000Y-70350000D01*
X52027000Y-69227000D01*
X56023000Y-69227000D01*
X56023000Y-73422055D01*
G36*
X60473000Y-59702606D02*
X60473000Y-87873000D01*
X58427000Y-87873000D01*
X58427000Y-78350000D01*
X58416994Y-78300590D01*
X58394921Y-78265626D01*
X57227000Y-76951715D01*
X57227000Y-70227000D01*
X59000000Y-70227000D01*
X59049410Y-70216994D01*
X59091035Y-70188553D01*
X59118315Y-70146159D01*
X59127000Y-70100000D01*
X59127000Y-68400000D01*
X59116994Y-68350590D01*
X59088553Y-68308965D01*
X59046159Y-68281685D01*
X59000000Y-68273000D01*
X57227000Y-68273000D01*
X57227000Y-64877000D01*
X59000000Y-64877000D01*
X59049410Y-64866994D01*
X59091035Y-64838553D01*
X59118315Y-64796159D01*
X59127000Y-64750000D01*
X59127000Y-62750000D01*
X59116994Y-62700590D01*
X59088553Y-62658965D01*
X59046159Y-62631685D01*
X59000000Y-62623000D01*
X57227000Y-62623000D01*
X57227000Y-59227000D01*
X59997394Y-59227000D01*
X60473000Y-59702606D01*
X60473000Y-59702606D01*
G37*
X60473000Y-59702606D02*
X60473000Y-87873000D01*
X58427000Y-87873000D01*
X58427000Y-78350000D01*
X58416994Y-78300590D01*
X58394921Y-78265626D01*
X57227000Y-76951715D01*
X57227000Y-70227000D01*
X59000000Y-70227000D01*
X59049410Y-70216994D01*
X59091035Y-70188553D01*
X59118315Y-70146159D01*
X59127000Y-70100000D01*
X59127000Y-68400000D01*
X59116994Y-68350590D01*
X59088553Y-68308965D01*
X59046159Y-68281685D01*
X59000000Y-68273000D01*
X57227000Y-68273000D01*
X57227000Y-64877000D01*
X59000000Y-64877000D01*
X59049410Y-64866994D01*
X59091035Y-64838553D01*
X59118315Y-64796159D01*
X59127000Y-64750000D01*
X59127000Y-62750000D01*
X59116994Y-62700590D01*
X59088553Y-62658965D01*
X59046159Y-62631685D01*
X59000000Y-62623000D01*
X57227000Y-62623000D01*
X57227000Y-59227000D01*
X59997394Y-59227000D01*
X60473000Y-59702606D01*
G36*
X63223000Y-87873000D02*
X61777000Y-87873000D01*
X61777000Y-84177000D01*
X63223000Y-84177000D01*
X63223000Y-87873000D01*
X63223000Y-87873000D01*
G37*
X63223000Y-87873000D02*
X61777000Y-87873000D01*
X61777000Y-84177000D01*
X63223000Y-84177000D01*
X63223000Y-87873000D01*
G36*
X65773000Y-87873000D02*
X64277000Y-87873000D01*
X64277000Y-84177000D01*
X65773000Y-84177000D01*
X65773000Y-87873000D01*
X65773000Y-87873000D01*
G37*
X65773000Y-87873000D02*
X64277000Y-87873000D01*
X64277000Y-84177000D01*
X65773000Y-84177000D01*
X65773000Y-87873000D01*
G36*
X68373000Y-87873000D02*
X66827000Y-87873000D01*
X66827000Y-84177000D01*
X68373000Y-84177000D01*
X68373000Y-87873000D01*
X68373000Y-87873000D01*
G37*
X68373000Y-87873000D02*
X66827000Y-87873000D01*
X66827000Y-84177000D01*
X68373000Y-84177000D01*
X68373000Y-87873000D01*
G36*
X71373000Y-87873000D02*
X69927000Y-87873000D01*
X69927000Y-84227000D01*
X71373000Y-84227000D01*
X71373000Y-87873000D01*
X71373000Y-87873000D01*
G37*
X71373000Y-87873000D02*
X69927000Y-87873000D01*
X69927000Y-84227000D01*
X71373000Y-84227000D01*
X71373000Y-87873000D01*
G36*
X73973000Y-87873000D02*
X72477000Y-87873000D01*
X72477000Y-84227000D01*
X73973000Y-84227000D01*
X73973000Y-87873000D01*
X73973000Y-87873000D01*
G37*
X73973000Y-87873000D02*
X72477000Y-87873000D01*
X72477000Y-84227000D01*
X73973000Y-84227000D01*
X73973000Y-87873000D01*
M02*
