G04 #@! TF.FileFunction,Copper,L2,Bot,Signal*
%FSLAX46Y46*%
G04 Gerber Fmt 4.6, Leading zero omitted, Abs format (unit mm)*
G04 Created by KiCad (PCBNEW 4.0.6) date 06/11/18 21:36:10*
%MOMM*%
%LPD*%
G01*
G04 APERTURE LIST*
%ADD10C,0.100000*%
%ADD11C,0.400000*%
%ADD12R,1.700000X1.700000*%
%ADD13O,1.700000X1.700000*%
%ADD14R,2.150000X2.200000*%
%ADD15C,0.500000*%
%ADD16C,0.130000*%
%ADD17C,0.250000*%
%ADD18C,0.254000*%
G04 APERTURE END LIST*
D10*
D11*
X81850000Y-46400000D03*
X78050000Y-46750000D03*
X69750000Y-44400000D03*
X73700000Y-49900000D03*
X77600000Y-52900000D03*
X83300000Y-59150000D03*
X70450000Y-50250000D03*
X59750000Y-44200000D03*
X77700000Y-53650000D03*
X86900000Y-74450000D03*
X85750000Y-75800000D03*
X84150000Y-74750000D03*
X84550000Y-76350000D03*
X64250000Y-51150000D03*
X65900000Y-50200000D03*
X63900000Y-49650000D03*
X65650000Y-52450000D03*
X74050000Y-52950000D03*
X78700000Y-44750000D03*
D12*
X73200000Y-85900000D03*
D13*
X70660000Y-85900000D03*
D12*
X56600000Y-85900000D03*
X59200000Y-85900000D03*
X62500000Y-85900000D03*
X65040000Y-85900000D03*
X67580000Y-85900000D03*
D14*
X52958935Y-72400000D03*
X52958935Y-70200000D03*
X55108935Y-72400000D03*
X55108935Y-70200000D03*
X52945000Y-66800000D03*
X52945000Y-64600000D03*
X55095000Y-66800000D03*
X55095000Y-64600000D03*
X52958935Y-61195000D03*
X52958935Y-58995000D03*
X55108935Y-61195000D03*
X55108935Y-58995000D03*
D11*
X85550000Y-50850000D03*
X77320710Y-76700000D03*
X66500002Y-77250000D03*
X80784944Y-69900000D03*
X84800000Y-69900000D03*
X75500000Y-80350000D03*
X76939127Y-77081583D03*
X68300000Y-69650000D03*
X70700000Y-57200000D03*
X72000000Y-60050000D03*
X71250000Y-54550000D03*
X69550000Y-56100000D03*
X78450000Y-72450000D03*
X84900000Y-71200000D03*
X62300000Y-47400000D03*
X63550000Y-47400000D03*
X63550000Y-46500000D03*
X62300000Y-46500000D03*
X62300000Y-45600000D03*
X63550000Y-45600000D03*
X63550000Y-44700000D03*
X62300000Y-44700000D03*
X59650000Y-54950000D03*
X84454990Y-61000000D03*
X75200000Y-76300002D03*
X59808914Y-58624634D03*
X84450000Y-58500000D03*
X85229860Y-64716880D03*
X59600000Y-54100000D03*
X74995685Y-74345685D03*
X84700000Y-62250000D03*
X56312977Y-53578613D03*
X83919816Y-65009781D03*
X59450000Y-50450000D03*
X59550000Y-52100000D03*
X75300000Y-72750000D03*
X85230386Y-66745581D03*
X56800000Y-52100000D03*
X66500000Y-54400000D03*
X72606293Y-56872336D03*
X66500000Y-53099992D03*
X73151655Y-56326974D03*
X81494041Y-73311909D03*
X81734968Y-63900000D03*
X71650000Y-58300000D03*
X67500032Y-74220799D03*
X65750012Y-73450000D03*
X65750000Y-72425000D03*
X69995010Y-70200000D03*
X66975000Y-70200000D03*
X57758777Y-57388811D03*
X53600000Y-57530002D03*
X60250000Y-55000000D03*
X84454990Y-59750000D03*
X58898755Y-57404990D03*
X78250000Y-68650000D03*
X84450000Y-63550000D03*
X58095010Y-53087816D03*
X57195010Y-54468315D03*
X78450000Y-69950000D03*
X84145010Y-65584591D03*
X55817340Y-51204006D03*
X78120973Y-71070397D03*
X57290257Y-52736745D03*
X81474957Y-64563314D03*
X72550000Y-61650000D03*
X78659979Y-56000000D03*
X79819990Y-55880687D03*
X79819990Y-55118075D03*
X78482822Y-55368190D03*
X68250000Y-53350000D03*
X71412184Y-53705177D03*
X80444823Y-62262184D03*
X80400000Y-62800000D03*
X69050000Y-52000000D03*
X69650000Y-52000000D03*
X70550000Y-46000000D03*
X70550000Y-46600000D03*
X70550000Y-47100000D03*
X81286830Y-73886830D03*
X81994979Y-63380432D03*
X72400000Y-58300000D03*
X65550000Y-75300000D03*
X80823180Y-74718190D03*
X82254990Y-62750000D03*
X73495746Y-58275521D03*
X70466802Y-76825431D03*
X69601820Y-69348180D03*
X67227295Y-77327695D03*
X67431317Y-76838524D03*
X70000000Y-68850000D03*
X78061830Y-61238170D03*
X72534012Y-63514891D03*
X78150000Y-62300000D03*
X72870924Y-63105742D03*
X78200000Y-63600000D03*
X73358980Y-62899070D03*
X81050000Y-56400000D03*
X79850000Y-56550000D03*
X75250000Y-59150000D03*
X84700000Y-55950000D03*
X84750000Y-56750000D03*
X81050000Y-57030013D03*
X79735025Y-57067391D03*
X73750000Y-57000000D03*
D15*
X76939127Y-77081583D02*
X77320710Y-76700000D01*
X68300000Y-69650000D02*
X68300000Y-71750000D01*
X68300000Y-71750000D02*
X66400000Y-73650000D01*
X66400000Y-73650000D02*
X66400000Y-77149998D01*
X66400000Y-77149998D02*
X66500002Y-77250000D01*
X66500002Y-77420662D02*
X66500002Y-77250000D01*
X74720710Y-79300000D02*
X68379340Y-79300000D01*
X68379340Y-79300000D02*
X66500002Y-77420662D01*
D16*
X84800000Y-69900000D02*
X80784944Y-69900000D01*
D15*
X74720710Y-79300000D02*
X74720710Y-79570710D01*
X74720710Y-79570710D02*
X75500000Y-80350000D01*
X76739128Y-77281582D02*
X76939127Y-77081583D01*
X74720710Y-79300000D02*
X76739128Y-77281582D01*
D17*
X69550000Y-56100000D02*
X69550000Y-55600000D01*
X69550000Y-55600000D02*
X70600000Y-54550000D01*
X70600000Y-54550000D02*
X71250000Y-54550000D01*
X84900000Y-71200000D02*
X83650000Y-72450000D01*
X83650000Y-72450000D02*
X78450000Y-72450000D01*
D16*
X84574839Y-64712512D02*
X84574839Y-65062106D01*
X83682181Y-66239604D02*
X83610624Y-66168047D01*
X84800023Y-65287289D02*
X84800023Y-65881893D01*
X84574839Y-65062106D02*
X84800023Y-65287289D01*
X64978830Y-55987142D02*
X60652540Y-55987142D01*
X71350054Y-62358366D02*
X64978830Y-55987142D01*
X71350054Y-63993780D02*
X71350054Y-62358366D01*
X83610624Y-66168047D02*
X83370324Y-66168047D01*
X84454990Y-61000000D02*
X83999745Y-61455245D01*
X83999745Y-61455245D02*
X83999745Y-64137418D01*
X83999745Y-64137418D02*
X84574839Y-64712512D01*
X84800023Y-65881893D02*
X84442312Y-66239604D01*
X59849999Y-55184601D02*
X59849999Y-55149999D01*
X84442312Y-66239604D02*
X83682181Y-66239604D01*
X60652540Y-55987142D02*
X59849999Y-55184601D01*
X73139497Y-65783225D02*
X71350054Y-63993780D01*
X83370324Y-66168047D02*
X82985502Y-65783225D01*
X59849999Y-55149999D02*
X59650000Y-54950000D01*
X82985502Y-65783225D02*
X73139497Y-65783225D01*
X52958935Y-70175000D02*
X50839989Y-68056054D01*
X52958935Y-70200000D02*
X52958935Y-70175000D01*
X59849999Y-54750001D02*
X59650000Y-54950000D01*
X60549999Y-54050001D02*
X59849999Y-54750001D01*
X60549999Y-51149999D02*
X60549999Y-54050001D01*
X50839989Y-56739987D02*
X56449998Y-51129978D01*
X60529978Y-51129978D02*
X60549999Y-51149999D01*
X50839989Y-68056054D02*
X50839989Y-56739987D01*
X56449998Y-51129978D02*
X60529978Y-51129978D01*
X59808914Y-58624634D02*
X64624634Y-58624634D01*
X64624634Y-58624634D02*
X69250001Y-63250001D01*
X74600000Y-70185410D02*
X74600000Y-75700002D01*
X69250001Y-63250001D02*
X69250001Y-64835406D01*
X74600000Y-75700002D02*
X75000001Y-76100003D01*
X69250001Y-64835406D02*
X69300000Y-64885405D01*
X69300000Y-64885405D02*
X69300000Y-64885410D01*
X69300000Y-64885410D02*
X74600000Y-70185410D01*
X75000001Y-76100003D02*
X75200000Y-76300002D01*
X77845002Y-72054998D02*
X75200000Y-74700000D01*
X84450000Y-58500000D02*
X85885398Y-59935398D01*
X85388621Y-67539659D02*
X82586896Y-67539659D01*
X82586896Y-67539659D02*
X80621557Y-69504998D01*
X75200000Y-74700000D02*
X75200000Y-76017160D01*
X78639602Y-72054998D02*
X77845002Y-72054998D01*
X85885398Y-59935398D02*
X85885398Y-67042882D01*
X85885398Y-67042882D02*
X85388621Y-67539659D01*
X80621557Y-69504998D02*
X80595342Y-69504998D01*
X80595342Y-69504998D02*
X79950000Y-70150340D01*
X79950000Y-70150340D02*
X79950000Y-70744600D01*
X79950000Y-70744600D02*
X78639602Y-72054998D01*
X75200000Y-76017160D02*
X75200000Y-76300002D01*
X65066222Y-56809956D02*
X70830032Y-62573766D01*
X83395224Y-66688069D02*
X83466781Y-66759626D01*
X85320045Y-64807065D02*
X85229860Y-64716880D01*
X73308923Y-66688069D02*
X83395224Y-66688069D01*
X84657712Y-66759626D02*
X85320045Y-66097293D01*
X57834602Y-52500000D02*
X57700000Y-52634602D01*
X57700000Y-53952315D02*
X59672616Y-55924931D01*
X57700000Y-52634602D02*
X57700000Y-53952315D01*
X59600000Y-53595000D02*
X58505000Y-52500000D01*
X70830032Y-62573766D02*
X70830032Y-64209178D01*
X60198129Y-56809956D02*
X65066222Y-56809956D01*
X58505000Y-52500000D02*
X57834602Y-52500000D01*
X83466781Y-66759626D02*
X84657712Y-66759626D01*
X70830032Y-64209178D02*
X73308923Y-66688069D01*
X85320045Y-66097293D02*
X85320045Y-64807065D01*
X59672616Y-55924931D02*
X59672616Y-56284443D01*
X59672616Y-56284443D02*
X60198129Y-56809956D01*
X60200000Y-52995000D02*
X59600000Y-53595000D01*
X56144988Y-52755012D02*
X56144988Y-51802699D01*
X51100000Y-62730000D02*
X51100000Y-57800000D01*
X60200000Y-51420022D02*
X60200000Y-52995000D01*
X56557698Y-51389989D02*
X60169967Y-51389989D01*
X56144988Y-51802699D02*
X56557698Y-51389989D01*
X51100000Y-57800000D02*
X56144988Y-52755012D01*
X52945000Y-64600000D02*
X52945000Y-64575000D01*
X60169967Y-51389989D02*
X60200000Y-51420022D01*
X52945000Y-64575000D02*
X51100000Y-62730000D01*
X59600000Y-53595000D02*
X59600000Y-54100000D01*
X74860011Y-73927169D02*
X74860011Y-70077707D01*
X74995685Y-74345685D02*
X74995685Y-74062843D01*
X58562322Y-58180033D02*
X58189989Y-57807700D01*
X58189989Y-56989989D02*
X56312977Y-55112977D01*
X56312977Y-53861455D02*
X56312977Y-53578613D01*
X56312977Y-55112977D02*
X56312977Y-53861455D01*
X64547743Y-58180033D02*
X58562322Y-58180033D01*
X69510011Y-63142300D02*
X64547743Y-58180033D01*
X69510011Y-64727707D02*
X69510011Y-63142300D01*
X74860011Y-70077707D02*
X69510011Y-64727707D01*
X74995685Y-74062843D02*
X74860011Y-73927169D01*
X58189989Y-57807700D02*
X58189989Y-56989989D01*
X75195684Y-74145686D02*
X74995685Y-74345685D01*
X79600000Y-70550000D02*
X78355013Y-71794987D01*
X79600000Y-67282289D02*
X79600000Y-70550000D01*
X77546383Y-71794987D02*
X75195684Y-74145686D01*
X78355013Y-71794987D02*
X77546383Y-71794987D01*
X85625387Y-66935182D02*
X85280921Y-67279648D01*
X79602641Y-67279648D02*
X79600000Y-67282289D01*
X84700000Y-62250000D02*
X85625387Y-63175387D01*
X85625387Y-63175387D02*
X85625387Y-66935182D01*
X85280921Y-67279648D02*
X79602641Y-67279648D01*
X83636974Y-65009781D02*
X83919816Y-65009781D01*
X83585509Y-64958316D02*
X83636974Y-65009781D01*
X73417721Y-64958316D02*
X83585509Y-64958316D01*
X59450000Y-50450000D02*
X60600000Y-50450000D01*
X72130087Y-61980087D02*
X72130087Y-63670682D01*
X60600000Y-50450000D02*
X72130087Y-61980087D01*
X72130087Y-63670682D02*
X73417721Y-64958316D01*
X52958935Y-57765000D02*
X52958935Y-58995000D01*
X56404999Y-52862711D02*
X52958935Y-56308775D01*
X57634602Y-52100000D02*
X57239601Y-51704999D01*
X59550000Y-52100000D02*
X57634602Y-52100000D01*
X56404999Y-51910399D02*
X56404999Y-52862711D01*
X56610399Y-51704999D02*
X56404999Y-51910399D01*
X57239601Y-51704999D02*
X56610399Y-51704999D01*
X52958935Y-56308775D02*
X52958935Y-57765000D01*
X55108935Y-58970000D02*
X55108935Y-58995000D01*
X75300000Y-72467158D02*
X75300000Y-72750000D01*
X75300000Y-70149988D02*
X75300000Y-72467158D01*
X69770022Y-64620008D02*
X75300000Y-70149988D01*
X56800000Y-55200000D02*
X58450000Y-56850000D01*
X56800000Y-52100000D02*
X56800000Y-55200000D01*
X58450000Y-57650000D02*
X58700000Y-57900000D01*
X58450000Y-56850000D02*
X58450000Y-57650000D01*
X69770022Y-63020022D02*
X69770022Y-64620008D01*
X64650000Y-57900000D02*
X69770022Y-63020022D01*
X58700000Y-57900000D02*
X64650000Y-57900000D01*
X75499999Y-72550001D02*
X75300000Y-72750000D01*
X76515024Y-71534976D02*
X75499999Y-72550001D01*
X79300000Y-70450000D02*
X78215024Y-71534976D01*
X83359081Y-67019637D02*
X83287524Y-66948080D01*
X85230386Y-66745581D02*
X84956330Y-67019637D01*
X84956330Y-67019637D02*
X83359081Y-67019637D01*
X83287524Y-66948080D02*
X79566498Y-66948080D01*
X78215024Y-71534976D02*
X76515024Y-71534976D01*
X79300000Y-67214578D02*
X79300000Y-70450000D01*
X79566498Y-66948080D02*
X79300000Y-67214578D01*
X66699999Y-54599999D02*
X66500000Y-54400000D01*
X68650000Y-56550000D02*
X66699999Y-54599999D01*
X72283957Y-56550000D02*
X68650000Y-56550000D01*
X72606293Y-56872336D02*
X72283957Y-56550000D01*
X66699999Y-53299991D02*
X66500000Y-53099992D01*
X67550007Y-54149999D02*
X66699999Y-53299991D01*
X71449999Y-54149999D02*
X67550007Y-54149999D01*
X73151655Y-55851655D02*
X71449999Y-54149999D01*
X73151655Y-56326974D02*
X73151655Y-55851655D01*
X75010399Y-76745001D02*
X76278659Y-76745001D01*
X79711751Y-73311909D02*
X81211199Y-73311909D01*
X81211199Y-73311909D02*
X81494041Y-73311909D01*
X72486197Y-74220799D02*
X75010399Y-76745001D01*
X67500032Y-74220799D02*
X72486197Y-74220799D01*
X76278659Y-76745001D02*
X79711751Y-73311909D01*
X81452126Y-63900000D02*
X81734968Y-63900000D01*
X71650000Y-58300000D02*
X73500000Y-60150000D01*
X79400000Y-61600000D02*
X79400000Y-63550000D01*
X77950000Y-60150000D02*
X79400000Y-61600000D01*
X73500000Y-60150000D02*
X77950000Y-60150000D01*
X79750000Y-63900000D02*
X81452126Y-63900000D01*
X79400000Y-63550000D02*
X79750000Y-63900000D01*
X65750000Y-72425000D02*
X65750000Y-73449988D01*
X65750000Y-73449988D02*
X65750012Y-73450000D01*
X68612168Y-69150000D02*
X69662168Y-70200000D01*
X69662168Y-70200000D02*
X69712168Y-70200000D01*
X66975000Y-70200000D02*
X66975000Y-69920000D01*
X66975000Y-69920000D02*
X67745000Y-69150000D01*
X69712168Y-70200000D02*
X69995010Y-70200000D01*
X67745000Y-69150000D02*
X68612168Y-69150000D01*
X53600000Y-57530002D02*
X57617586Y-57530002D01*
X57617586Y-57530002D02*
X57758777Y-57388811D01*
X71610065Y-62250666D02*
X64359399Y-55000000D01*
X73247196Y-65523214D02*
X71610065Y-63886081D01*
X64359399Y-55000000D02*
X60532842Y-55000000D01*
X83142016Y-65523214D02*
X73247196Y-65523214D01*
X83526838Y-65908036D02*
X83142016Y-65523214D01*
X84540012Y-65774193D02*
X84334612Y-65979593D01*
X84314828Y-65169806D02*
X84540012Y-65394989D01*
X84540012Y-65394989D02*
X84540012Y-65774193D01*
X83739734Y-64245118D02*
X84314828Y-64820212D01*
X83739734Y-60465256D02*
X83739734Y-64245118D01*
X84454990Y-59750000D02*
X83739734Y-60465256D01*
X83718324Y-65908036D02*
X83526838Y-65908036D01*
X71610065Y-63886081D02*
X71610065Y-62250666D01*
X84314828Y-64820212D02*
X84314828Y-65169806D01*
X60532842Y-55000000D02*
X60250000Y-55000000D01*
X83789881Y-65979593D02*
X83718324Y-65908036D01*
X84334612Y-65979593D02*
X83789881Y-65979593D01*
X59098754Y-57604989D02*
X58898755Y-57404990D01*
X70039993Y-62886860D02*
X69223100Y-62069967D01*
X69187678Y-62069967D02*
X64757700Y-57639989D01*
X69223100Y-62069967D02*
X69187678Y-62069967D01*
X78250000Y-68650000D02*
X74167722Y-68650000D01*
X74167722Y-68650000D02*
X70039993Y-64522269D01*
X70039993Y-64522269D02*
X70039993Y-62886860D01*
X64757700Y-57639989D02*
X59133754Y-57639989D01*
X59133754Y-57639989D02*
X59098754Y-57604989D01*
X82877802Y-66043236D02*
X83262624Y-66428058D01*
X59932627Y-56176743D02*
X60305829Y-56549945D01*
X71090043Y-62466066D02*
X71090043Y-64101480D01*
X58095010Y-53979614D02*
X59932627Y-55817231D01*
X85060034Y-65989593D02*
X85060034Y-65179589D01*
X84834850Y-63934850D02*
X84649999Y-63749999D01*
X73031797Y-66043236D02*
X82877802Y-66043236D01*
X83262624Y-66428058D02*
X83502924Y-66428058D01*
X65173922Y-56549945D02*
X71090043Y-62466066D01*
X59932627Y-55817231D02*
X59932627Y-56176743D01*
X60305829Y-56549945D02*
X65173922Y-56549945D01*
X84834850Y-64954406D02*
X84834850Y-63934850D01*
X83574481Y-66499615D02*
X84550012Y-66499615D01*
X84550012Y-66499615D02*
X85060034Y-65989593D01*
X84649999Y-63749999D02*
X84450000Y-63550000D01*
X85060034Y-65179589D02*
X84834850Y-64954406D01*
X83502924Y-66428058D02*
X83574481Y-66499615D01*
X71090043Y-64101480D02*
X73031797Y-66043236D01*
X58095010Y-53087816D02*
X58095010Y-53979614D01*
X78542301Y-68210011D02*
X74095442Y-68210011D01*
X59152594Y-56425899D02*
X57395009Y-54668314D01*
X78649999Y-69750001D02*
X78649999Y-68317709D01*
X59982729Y-57329978D02*
X59152594Y-56499843D01*
X70310010Y-62789166D02*
X64850822Y-57329978D01*
X78649999Y-68317709D02*
X78542301Y-68210011D01*
X78450000Y-69950000D02*
X78649999Y-69750001D01*
X64850822Y-57329978D02*
X59982729Y-57329978D01*
X59152594Y-56499843D02*
X59152594Y-56425899D01*
X70310010Y-64424579D02*
X70310010Y-62789166D01*
X57395009Y-54668314D02*
X57195010Y-54468315D01*
X74095442Y-68210011D02*
X70310010Y-64424579D01*
X83696632Y-65584591D02*
X83862168Y-65584591D01*
X83862168Y-65584591D02*
X84145010Y-65584591D01*
X55817340Y-51204006D02*
X56151379Y-50869967D01*
X83367054Y-65255013D02*
X83696632Y-65584591D01*
X73346706Y-65255013D02*
X83367054Y-65255013D01*
X71870076Y-63778383D02*
X73346706Y-65255013D01*
X71870076Y-62087786D02*
X71870076Y-63778383D01*
X60652257Y-50869967D02*
X71870076Y-62087786D01*
X56151379Y-50869967D02*
X60652257Y-50869967D01*
X59412605Y-56392143D02*
X60090429Y-57069967D01*
X60090429Y-57069967D02*
X64958522Y-57069967D01*
X64958522Y-57069967D02*
X70570021Y-62681466D01*
X78320972Y-70870398D02*
X78120973Y-71070397D01*
X79000000Y-70191370D02*
X78320972Y-70870398D01*
X59412605Y-56094894D02*
X59412605Y-56392143D01*
X78650001Y-67950000D02*
X79000000Y-68300000D01*
X74203142Y-67950000D02*
X78650001Y-67950000D01*
X70570021Y-64316879D02*
X74203142Y-67950000D01*
X57290257Y-52736745D02*
X57290257Y-53972546D01*
X57290257Y-53972546D02*
X59412605Y-56094894D01*
X70570021Y-62681466D02*
X70570021Y-64316879D01*
X79000000Y-68300000D02*
X79000000Y-70191370D01*
X72550000Y-61650000D02*
X73789989Y-60410011D01*
X79139989Y-63757700D02*
X79945603Y-64563314D01*
X79139989Y-61757699D02*
X79139989Y-63757700D01*
X79945603Y-64563314D02*
X81192115Y-64563314D01*
X77792301Y-60410011D02*
X79139989Y-61757699D01*
X81192115Y-64563314D02*
X81474957Y-64563314D01*
X73789989Y-60410011D02*
X77792301Y-60410011D01*
X78779292Y-55880687D02*
X78659979Y-56000000D01*
X79819990Y-55880687D02*
X78779292Y-55880687D01*
X78482822Y-55368190D02*
X79569875Y-55368190D01*
X79619991Y-55318074D02*
X79819990Y-55118075D01*
X79569875Y-55368190D02*
X79619991Y-55318074D01*
D17*
X68449999Y-53549999D02*
X68250000Y-53350000D01*
X71412184Y-53705177D02*
X68605177Y-53705177D01*
X68605177Y-53705177D02*
X68449999Y-53549999D01*
D15*
X80430002Y-53680002D02*
X78750000Y-52000000D01*
X78750000Y-52000000D02*
X69932842Y-52000000D01*
X80430002Y-62487156D02*
X80430002Y-53680002D01*
X80400000Y-62800000D02*
X80400000Y-62517158D01*
X69932842Y-52000000D02*
X69650000Y-52000000D01*
X80400000Y-62517158D02*
X80430002Y-62487156D01*
X69050000Y-51717158D02*
X69050000Y-52000000D01*
X69050000Y-48600000D02*
X69050000Y-51717158D01*
X70550000Y-47100000D02*
X69050000Y-48600000D01*
X69650000Y-52000000D02*
X69050000Y-52000000D01*
X70550000Y-46600000D02*
X70550000Y-46000000D01*
X70550000Y-47100000D02*
X70550000Y-46600000D01*
D16*
X81286830Y-74169672D02*
X81286830Y-73886830D01*
X65550000Y-77100000D02*
X70750000Y-82300000D01*
X65550000Y-75300000D02*
X65550000Y-77100000D01*
X70750000Y-82300000D02*
X74600000Y-82300000D01*
X74600000Y-82300000D02*
X81286830Y-75613170D01*
X81286830Y-75613170D02*
X81286830Y-74169672D01*
X72400000Y-58300000D02*
X73889989Y-59789989D01*
X79660011Y-61492300D02*
X79660011Y-63092300D01*
X80107700Y-63539989D02*
X80875407Y-63539989D01*
X80875407Y-63539989D02*
X81034964Y-63380432D01*
X81712137Y-63380432D02*
X81994979Y-63380432D01*
X81034964Y-63380432D02*
X81712137Y-63380432D01*
X77957699Y-59789989D02*
X79660011Y-61492300D01*
X79660011Y-63092300D02*
X80107700Y-63539989D01*
X73889989Y-59789989D02*
X77957699Y-59789989D01*
X70666801Y-77025430D02*
X76365940Y-77025430D01*
X78673180Y-74718190D02*
X80540338Y-74718190D01*
X76365940Y-77025430D02*
X78673180Y-74718190D01*
X70466802Y-76825431D02*
X70666801Y-77025430D01*
X80540338Y-74718190D02*
X80823180Y-74718190D01*
X76810943Y-58275521D02*
X79920022Y-61384600D01*
X80220662Y-63250000D02*
X80765852Y-63250000D01*
X79920022Y-61384600D02*
X79920022Y-62949360D01*
X73495746Y-58275521D02*
X76810943Y-58275521D01*
X81265852Y-62750000D02*
X81972148Y-62750000D01*
X79920022Y-62949360D02*
X80220662Y-63250000D01*
X81972148Y-62750000D02*
X82254990Y-62750000D01*
X80765852Y-63250000D02*
X81265852Y-62750000D01*
X70184611Y-70595001D02*
X70390011Y-70389601D01*
X70390011Y-69853529D02*
X69884662Y-69348180D01*
X70390011Y-70389601D02*
X70390011Y-69853529D01*
X70084339Y-70595001D02*
X70184611Y-70595001D01*
X66845011Y-73834329D02*
X70084339Y-70595001D01*
X66845011Y-76945411D02*
X66845011Y-73834329D01*
X69884662Y-69348180D02*
X69601820Y-69348180D01*
X67227295Y-77327695D02*
X66845011Y-76945411D01*
X67105022Y-76512229D02*
X67231318Y-76638525D01*
X67231318Y-76638525D02*
X67431317Y-76838524D01*
X70292311Y-70855012D02*
X70192038Y-70855012D01*
X67105022Y-73942028D02*
X67105022Y-76512229D01*
X70650022Y-70497301D02*
X70292311Y-70855012D01*
X70000000Y-68850000D02*
X70650022Y-69500022D01*
X70650022Y-69500022D02*
X70650022Y-70497301D01*
X70192038Y-70855012D02*
X67105022Y-73942028D01*
X78839989Y-63375411D02*
X78839989Y-62016329D01*
X78879978Y-63415400D02*
X78839989Y-63375411D01*
X78879978Y-64122337D02*
X78879978Y-63415400D01*
X73274134Y-64255013D02*
X78747302Y-64255013D01*
X78261829Y-61438169D02*
X78061830Y-61238170D01*
X78839989Y-62016329D02*
X78261829Y-61438169D01*
X72534012Y-63514891D02*
X73274134Y-64255013D01*
X78747302Y-64255013D02*
X78879978Y-64122337D01*
X78349999Y-62499999D02*
X78150000Y-62300000D01*
X78579978Y-62729978D02*
X78349999Y-62499999D01*
X78368087Y-63995002D02*
X78619967Y-63743122D01*
X78619967Y-63743122D02*
X78619967Y-63523100D01*
X73760184Y-63995002D02*
X78368087Y-63995002D01*
X72870924Y-63105742D02*
X73760184Y-63995002D01*
X78579978Y-63483111D02*
X78579978Y-62729978D01*
X78619967Y-63523100D02*
X78579978Y-63483111D01*
X78000001Y-63400001D02*
X78200000Y-63600000D01*
X73358980Y-62899070D02*
X77499070Y-62899070D01*
X77499070Y-62899070D02*
X78000001Y-63400001D01*
X72804999Y-58239601D02*
X72804999Y-57245001D01*
X72804999Y-57245001D02*
X73500000Y-56550000D01*
X75250000Y-59150000D02*
X73715398Y-59150000D01*
X73500000Y-56550000D02*
X79567158Y-56550000D01*
X79567158Y-56550000D02*
X79850000Y-56550000D01*
X73715398Y-59150000D02*
X72804999Y-58239601D01*
X81050000Y-56400000D02*
X81500000Y-55950000D01*
X81500000Y-55950000D02*
X84700000Y-55950000D01*
X84469987Y-57030013D02*
X84550001Y-56949999D01*
X81050000Y-57030013D02*
X84469987Y-57030013D01*
X84550001Y-56949999D02*
X84750000Y-56750000D01*
X79667634Y-57000000D02*
X79735025Y-57067391D01*
X73750000Y-57000000D02*
X79667634Y-57000000D01*
D18*
G36*
X63223000Y-84078807D02*
X63223000Y-87623000D01*
X61777000Y-87623000D01*
X61777000Y-84350000D01*
X61771972Y-84314619D01*
X61757389Y-84282202D01*
X54907389Y-73432202D01*
X54884249Y-73404968D01*
X54854438Y-73385259D01*
X54820317Y-73374636D01*
X54800000Y-73373000D01*
X51978452Y-73373000D01*
X52025565Y-69227000D01*
X56119962Y-69227000D01*
X63223000Y-84078807D01*
X63223000Y-84078807D01*
G37*
X63223000Y-84078807D02*
X63223000Y-87623000D01*
X61777000Y-87623000D01*
X61777000Y-84350000D01*
X61771972Y-84314619D01*
X61757389Y-84282202D01*
X54907389Y-73432202D01*
X54884249Y-73404968D01*
X54854438Y-73385259D01*
X54820317Y-73374636D01*
X54800000Y-73373000D01*
X51978452Y-73373000D01*
X52025565Y-69227000D01*
X56119962Y-69227000D01*
X63223000Y-84078807D01*
G36*
X65773000Y-84028531D02*
X65773000Y-87623000D01*
X64277000Y-87623000D01*
X64277000Y-84050000D01*
X64271972Y-84014619D01*
X64264014Y-83994055D01*
X56364014Y-67894055D01*
X56343914Y-67864507D01*
X56316378Y-67841727D01*
X56283586Y-67827522D01*
X56250000Y-67823000D01*
X52025581Y-67823000D01*
X51978435Y-63627000D01*
X56119593Y-63627000D01*
X65773000Y-84028531D01*
X65773000Y-84028531D01*
G37*
X65773000Y-84028531D02*
X65773000Y-87623000D01*
X64277000Y-87623000D01*
X64277000Y-84050000D01*
X64271972Y-84014619D01*
X64264014Y-83994055D01*
X56364014Y-67894055D01*
X56343914Y-67864507D01*
X56316378Y-67841727D01*
X56283586Y-67827522D01*
X56250000Y-67823000D01*
X52025581Y-67823000D01*
X51978435Y-63627000D01*
X56119593Y-63627000D01*
X65773000Y-84028531D01*
G36*
X53436360Y-58033634D02*
X53537299Y-58055827D01*
X53640627Y-58057991D01*
X53742406Y-58040045D01*
X53776038Y-58027000D01*
X56368753Y-58027000D01*
X65158000Y-77064291D01*
X65158000Y-77100000D01*
X65161537Y-77136074D01*
X65164690Y-77172109D01*
X65165265Y-77174087D01*
X65165466Y-77176140D01*
X65175942Y-77210839D01*
X65186034Y-77245576D01*
X65186981Y-77247404D01*
X65187578Y-77249380D01*
X65204576Y-77281348D01*
X65221241Y-77313499D01*
X65222529Y-77315113D01*
X65223495Y-77316929D01*
X65246362Y-77344967D01*
X65268971Y-77373289D01*
X65271798Y-77376156D01*
X65271848Y-77376217D01*
X65271905Y-77376264D01*
X65272814Y-77377186D01*
X65327885Y-77432257D01*
X68373000Y-84027901D01*
X68373000Y-87623000D01*
X66827000Y-87623000D01*
X66827000Y-84000000D01*
X66821972Y-83964619D01*
X66814423Y-83944897D01*
X56364423Y-62244897D01*
X56344542Y-62215201D01*
X56317175Y-62192220D01*
X56284488Y-62177773D01*
X56250000Y-62173000D01*
X52027000Y-62173000D01*
X52027000Y-58027000D01*
X53421175Y-58027000D01*
X53436360Y-58033634D01*
X53436360Y-58033634D01*
G37*
X53436360Y-58033634D02*
X53537299Y-58055827D01*
X53640627Y-58057991D01*
X53742406Y-58040045D01*
X53776038Y-58027000D01*
X56368753Y-58027000D01*
X65158000Y-77064291D01*
X65158000Y-77100000D01*
X65161537Y-77136074D01*
X65164690Y-77172109D01*
X65165265Y-77174087D01*
X65165466Y-77176140D01*
X65175942Y-77210839D01*
X65186034Y-77245576D01*
X65186981Y-77247404D01*
X65187578Y-77249380D01*
X65204576Y-77281348D01*
X65221241Y-77313499D01*
X65222529Y-77315113D01*
X65223495Y-77316929D01*
X65246362Y-77344967D01*
X65268971Y-77373289D01*
X65271798Y-77376156D01*
X65271848Y-77376217D01*
X65271905Y-77376264D01*
X65272814Y-77377186D01*
X65327885Y-77432257D01*
X68373000Y-84027901D01*
X68373000Y-87623000D01*
X66827000Y-87623000D01*
X66827000Y-84000000D01*
X66821972Y-83964619D01*
X66814423Y-83944897D01*
X56364423Y-62244897D01*
X56344542Y-62215201D01*
X56317175Y-62192220D01*
X56284488Y-62177773D01*
X56250000Y-62173000D01*
X52027000Y-62173000D01*
X52027000Y-58027000D01*
X53421175Y-58027000D01*
X53436360Y-58033634D01*
G36*
X81062420Y-44192451D02*
X84506373Y-46493627D01*
X86807549Y-49937580D01*
X87623000Y-54037131D01*
X87623000Y-76962869D01*
X86807549Y-81062420D01*
X85718734Y-82691947D01*
X82238530Y-82698392D01*
X82759768Y-82178062D01*
X83076639Y-81414953D01*
X83077360Y-80588672D01*
X82761822Y-79825011D01*
X82178062Y-79240232D01*
X81414953Y-78923361D01*
X80588672Y-78922640D01*
X79825011Y-79238178D01*
X79240232Y-79821938D01*
X78923361Y-80585047D01*
X78922640Y-81411328D01*
X79238178Y-82174989D01*
X79765241Y-82702972D01*
X69030884Y-82722850D01*
X67647252Y-79751624D01*
X70472814Y-82577186D01*
X70599988Y-82662161D01*
X70750000Y-82692001D01*
X70750005Y-82692000D01*
X74600000Y-82692000D01*
X74750012Y-82662161D01*
X74877186Y-82577186D01*
X81564016Y-75890356D01*
X81648991Y-75763182D01*
X81678830Y-75613170D01*
X81678830Y-74240156D01*
X81733339Y-74185742D01*
X81813739Y-73992117D01*
X81813922Y-73782463D01*
X81800689Y-73750438D01*
X81940550Y-73610821D01*
X82020950Y-73417196D01*
X82021133Y-73207542D01*
X81941071Y-73013777D01*
X81792953Y-72865400D01*
X81599328Y-72785000D01*
X81389674Y-72784817D01*
X81195909Y-72864879D01*
X81140783Y-72919909D01*
X79711751Y-72919909D01*
X79561739Y-72949748D01*
X79434565Y-73034723D01*
X76116287Y-76353001D01*
X75726955Y-76353001D01*
X75727092Y-76195635D01*
X75647030Y-76001870D01*
X75592000Y-75946744D01*
X75592000Y-74862372D01*
X78007374Y-72446998D01*
X78639602Y-72446998D01*
X78789614Y-72417159D01*
X78916788Y-72332184D01*
X80227186Y-71021786D01*
X80312161Y-70894612D01*
X80342000Y-70744600D01*
X80342000Y-70312712D01*
X80397195Y-70257517D01*
X80486032Y-70346509D01*
X80679657Y-70426909D01*
X80889311Y-70427092D01*
X81083076Y-70347030D01*
X81138202Y-70292000D01*
X84446674Y-70292000D01*
X84501088Y-70346509D01*
X84694713Y-70426909D01*
X84904367Y-70427092D01*
X85098132Y-70347030D01*
X85246509Y-70198912D01*
X85326909Y-70005287D01*
X85327092Y-69795633D01*
X85247030Y-69601868D01*
X85098912Y-69453491D01*
X84905287Y-69373091D01*
X84695633Y-69372908D01*
X84501868Y-69452970D01*
X84446742Y-69508000D01*
X81172927Y-69508000D01*
X82749268Y-67931659D01*
X85388621Y-67931659D01*
X85538633Y-67901820D01*
X85665807Y-67816845D01*
X86162584Y-67320068D01*
X86247559Y-67192894D01*
X86277398Y-67042882D01*
X86277398Y-59935398D01*
X86247559Y-59785386D01*
X86162584Y-59658212D01*
X84977025Y-58472653D01*
X84977092Y-58395633D01*
X84897030Y-58201868D01*
X84748912Y-58053491D01*
X84555287Y-57973091D01*
X84345633Y-57972908D01*
X84151868Y-58052970D01*
X84003491Y-58201088D01*
X83923091Y-58394713D01*
X83922908Y-58604367D01*
X84002970Y-58798132D01*
X84151088Y-58946509D01*
X84344713Y-59026909D01*
X84422605Y-59026977D01*
X84660218Y-59264590D01*
X84560277Y-59223091D01*
X84350623Y-59222908D01*
X84156858Y-59302970D01*
X84008481Y-59451088D01*
X83928081Y-59644713D01*
X83928013Y-59722605D01*
X83462548Y-60188070D01*
X83377573Y-60315244D01*
X83347734Y-60465256D01*
X83347734Y-64245118D01*
X83377573Y-64395130D01*
X83462548Y-64522304D01*
X83506560Y-64566316D01*
X82001955Y-64566316D01*
X82002049Y-64458947D01*
X81967078Y-64374310D01*
X82033100Y-64347030D01*
X82181477Y-64198912D01*
X82261877Y-64005287D01*
X82262021Y-63840308D01*
X82293111Y-63827462D01*
X82441488Y-63679344D01*
X82521888Y-63485719D01*
X82522071Y-63276065D01*
X82498705Y-63219515D01*
X82553122Y-63197030D01*
X82701499Y-63048912D01*
X82781899Y-62855287D01*
X82782082Y-62645633D01*
X82702020Y-62451868D01*
X82553902Y-62303491D01*
X82360277Y-62223091D01*
X82150623Y-62222908D01*
X81956858Y-62302970D01*
X81901732Y-62358000D01*
X81265852Y-62358000D01*
X81115840Y-62387839D01*
X81007002Y-62460562D01*
X81007002Y-57556976D01*
X81154367Y-57557105D01*
X81348132Y-57477043D01*
X81403258Y-57422013D01*
X84469987Y-57422013D01*
X84619999Y-57392174D01*
X84747173Y-57307199D01*
X84777347Y-57277025D01*
X84854367Y-57277092D01*
X85048132Y-57197030D01*
X85196509Y-57048912D01*
X85276909Y-56855287D01*
X85277092Y-56645633D01*
X85197030Y-56451868D01*
X85070336Y-56324952D01*
X85146509Y-56248912D01*
X85226909Y-56055287D01*
X85227092Y-55845633D01*
X85147030Y-55651868D01*
X84998912Y-55503491D01*
X84805287Y-55423091D01*
X84595633Y-55422908D01*
X84401868Y-55502970D01*
X84346742Y-55558000D01*
X81500000Y-55558000D01*
X81349988Y-55587839D01*
X81222814Y-55672814D01*
X81022653Y-55872975D01*
X81007002Y-55872962D01*
X81007002Y-53680007D01*
X81007003Y-53680002D01*
X80963080Y-53459194D01*
X80942639Y-53428601D01*
X80838003Y-53272001D01*
X80838000Y-53271999D01*
X79158001Y-51591999D01*
X78970808Y-51466922D01*
X78750000Y-51422999D01*
X78749995Y-51423000D01*
X69627000Y-51423000D01*
X69627000Y-50411328D01*
X78922640Y-50411328D01*
X79238178Y-51174989D01*
X79821938Y-51759768D01*
X80585047Y-52076639D01*
X81411328Y-52077360D01*
X82174989Y-51761822D01*
X82759768Y-51178062D01*
X83076639Y-50414953D01*
X83077360Y-49588672D01*
X82761822Y-48825011D01*
X82178062Y-48240232D01*
X81414953Y-47923361D01*
X80588672Y-47922640D01*
X79825011Y-48238178D01*
X79240232Y-48821938D01*
X78923361Y-49585047D01*
X78922640Y-50411328D01*
X69627000Y-50411328D01*
X69627000Y-48839002D01*
X70957998Y-47508003D01*
X70958001Y-47508001D01*
X71083078Y-47320808D01*
X71127000Y-47100000D01*
X71127000Y-46000000D01*
X71083078Y-45779192D01*
X70958001Y-45591999D01*
X70770808Y-45466922D01*
X70550000Y-45423000D01*
X70329192Y-45466922D01*
X70141999Y-45591999D01*
X70016922Y-45779192D01*
X69973000Y-46000000D01*
X69973000Y-46860999D01*
X68641999Y-48191999D01*
X68516922Y-48379192D01*
X68472999Y-48600000D01*
X68473000Y-48600005D01*
X68473000Y-52000000D01*
X68516922Y-52220808D01*
X68641999Y-52408001D01*
X68829192Y-52533078D01*
X69050000Y-52577000D01*
X78510998Y-52577000D01*
X79853002Y-53919003D01*
X79853002Y-54591103D01*
X79715623Y-54590983D01*
X79521858Y-54671045D01*
X79373481Y-54819163D01*
X79308278Y-54976190D01*
X78836148Y-54976190D01*
X78781734Y-54921681D01*
X78588109Y-54841281D01*
X78378455Y-54841098D01*
X78184690Y-54921160D01*
X78036313Y-55069278D01*
X77955913Y-55262903D01*
X77955730Y-55472557D01*
X78035792Y-55666322D01*
X78171469Y-55802237D01*
X78133070Y-55894713D01*
X78132887Y-56104367D01*
X78155048Y-56158000D01*
X73652052Y-56158000D01*
X73598685Y-56028842D01*
X73543655Y-55973716D01*
X73543655Y-55851655D01*
X73513816Y-55701643D01*
X73428841Y-55574469D01*
X71858577Y-54004205D01*
X71858693Y-54004089D01*
X71939093Y-53810464D01*
X71939276Y-53600810D01*
X71859214Y-53407045D01*
X71711096Y-53258668D01*
X71517471Y-53178268D01*
X71307817Y-53178085D01*
X71126080Y-53253177D01*
X68792401Y-53253177D01*
X68771624Y-53232400D01*
X68697030Y-53051868D01*
X68548912Y-52903491D01*
X68355287Y-52823091D01*
X68145633Y-52822908D01*
X67951868Y-52902970D01*
X67803491Y-53051088D01*
X67723091Y-53244713D01*
X67722908Y-53454367D01*
X67802970Y-53648132D01*
X67912645Y-53757999D01*
X67712379Y-53757999D01*
X67027025Y-53072645D01*
X67027092Y-52995625D01*
X66947030Y-52801860D01*
X66798912Y-52653483D01*
X66605287Y-52573083D01*
X66395633Y-52572900D01*
X66201868Y-52652962D01*
X66053491Y-52801080D01*
X65973091Y-52994705D01*
X65972908Y-53204359D01*
X66052970Y-53398124D01*
X66201088Y-53546501D01*
X66394713Y-53626901D01*
X66472605Y-53626969D01*
X67272821Y-54427185D01*
X67399995Y-54512160D01*
X67550007Y-54541999D01*
X71287627Y-54541999D01*
X72739448Y-55993820D01*
X72705146Y-56028062D01*
X72624746Y-56221687D01*
X72624646Y-56336317D01*
X72561143Y-56272814D01*
X72433969Y-56187839D01*
X72283957Y-56158000D01*
X68812372Y-56158000D01*
X67027025Y-54372653D01*
X67027092Y-54295633D01*
X66947030Y-54101868D01*
X66798912Y-53953491D01*
X66605287Y-53873091D01*
X66395633Y-53872908D01*
X66201868Y-53952970D01*
X66053491Y-54101088D01*
X65973091Y-54294713D01*
X65972908Y-54504367D01*
X66052970Y-54698132D01*
X66201088Y-54846509D01*
X66394713Y-54926909D01*
X66472605Y-54926977D01*
X68372814Y-56827186D01*
X68499988Y-56912161D01*
X68650000Y-56942000D01*
X72079231Y-56942000D01*
X72079201Y-56976703D01*
X72159263Y-57170468D01*
X72307381Y-57318845D01*
X72412999Y-57362701D01*
X72412999Y-57773010D01*
X72295633Y-57772908D01*
X72101868Y-57852970D01*
X72024996Y-57929708D01*
X71948912Y-57853491D01*
X71755287Y-57773091D01*
X71545633Y-57772908D01*
X71351868Y-57852970D01*
X71203491Y-58001088D01*
X71123091Y-58194713D01*
X71122908Y-58404367D01*
X71202970Y-58598132D01*
X71351088Y-58746509D01*
X71544713Y-58826909D01*
X71622605Y-58826977D01*
X73220628Y-60425000D01*
X72522653Y-61122975D01*
X72445633Y-61122908D01*
X72251868Y-61202970D01*
X72103491Y-61351088D01*
X72089399Y-61385027D01*
X60877186Y-50172814D01*
X60750012Y-50087839D01*
X60600000Y-50058000D01*
X59803326Y-50058000D01*
X59748912Y-50003491D01*
X59555287Y-49923091D01*
X59345633Y-49922908D01*
X59151868Y-50002970D01*
X59003491Y-50151088D01*
X58923091Y-50344713D01*
X58922975Y-50477967D01*
X56527000Y-50477967D01*
X56527000Y-43377000D01*
X76962869Y-43377000D01*
X81062420Y-44192451D01*
X81062420Y-44192451D01*
G37*
X81062420Y-44192451D02*
X84506373Y-46493627D01*
X86807549Y-49937580D01*
X87623000Y-54037131D01*
X87623000Y-76962869D01*
X86807549Y-81062420D01*
X85718734Y-82691947D01*
X82238530Y-82698392D01*
X82759768Y-82178062D01*
X83076639Y-81414953D01*
X83077360Y-80588672D01*
X82761822Y-79825011D01*
X82178062Y-79240232D01*
X81414953Y-78923361D01*
X80588672Y-78922640D01*
X79825011Y-79238178D01*
X79240232Y-79821938D01*
X78923361Y-80585047D01*
X78922640Y-81411328D01*
X79238178Y-82174989D01*
X79765241Y-82702972D01*
X69030884Y-82722850D01*
X67647252Y-79751624D01*
X70472814Y-82577186D01*
X70599988Y-82662161D01*
X70750000Y-82692001D01*
X70750005Y-82692000D01*
X74600000Y-82692000D01*
X74750012Y-82662161D01*
X74877186Y-82577186D01*
X81564016Y-75890356D01*
X81648991Y-75763182D01*
X81678830Y-75613170D01*
X81678830Y-74240156D01*
X81733339Y-74185742D01*
X81813739Y-73992117D01*
X81813922Y-73782463D01*
X81800689Y-73750438D01*
X81940550Y-73610821D01*
X82020950Y-73417196D01*
X82021133Y-73207542D01*
X81941071Y-73013777D01*
X81792953Y-72865400D01*
X81599328Y-72785000D01*
X81389674Y-72784817D01*
X81195909Y-72864879D01*
X81140783Y-72919909D01*
X79711751Y-72919909D01*
X79561739Y-72949748D01*
X79434565Y-73034723D01*
X76116287Y-76353001D01*
X75726955Y-76353001D01*
X75727092Y-76195635D01*
X75647030Y-76001870D01*
X75592000Y-75946744D01*
X75592000Y-74862372D01*
X78007374Y-72446998D01*
X78639602Y-72446998D01*
X78789614Y-72417159D01*
X78916788Y-72332184D01*
X80227186Y-71021786D01*
X80312161Y-70894612D01*
X80342000Y-70744600D01*
X80342000Y-70312712D01*
X80397195Y-70257517D01*
X80486032Y-70346509D01*
X80679657Y-70426909D01*
X80889311Y-70427092D01*
X81083076Y-70347030D01*
X81138202Y-70292000D01*
X84446674Y-70292000D01*
X84501088Y-70346509D01*
X84694713Y-70426909D01*
X84904367Y-70427092D01*
X85098132Y-70347030D01*
X85246509Y-70198912D01*
X85326909Y-70005287D01*
X85327092Y-69795633D01*
X85247030Y-69601868D01*
X85098912Y-69453491D01*
X84905287Y-69373091D01*
X84695633Y-69372908D01*
X84501868Y-69452970D01*
X84446742Y-69508000D01*
X81172927Y-69508000D01*
X82749268Y-67931659D01*
X85388621Y-67931659D01*
X85538633Y-67901820D01*
X85665807Y-67816845D01*
X86162584Y-67320068D01*
X86247559Y-67192894D01*
X86277398Y-67042882D01*
X86277398Y-59935398D01*
X86247559Y-59785386D01*
X86162584Y-59658212D01*
X84977025Y-58472653D01*
X84977092Y-58395633D01*
X84897030Y-58201868D01*
X84748912Y-58053491D01*
X84555287Y-57973091D01*
X84345633Y-57972908D01*
X84151868Y-58052970D01*
X84003491Y-58201088D01*
X83923091Y-58394713D01*
X83922908Y-58604367D01*
X84002970Y-58798132D01*
X84151088Y-58946509D01*
X84344713Y-59026909D01*
X84422605Y-59026977D01*
X84660218Y-59264590D01*
X84560277Y-59223091D01*
X84350623Y-59222908D01*
X84156858Y-59302970D01*
X84008481Y-59451088D01*
X83928081Y-59644713D01*
X83928013Y-59722605D01*
X83462548Y-60188070D01*
X83377573Y-60315244D01*
X83347734Y-60465256D01*
X83347734Y-64245118D01*
X83377573Y-64395130D01*
X83462548Y-64522304D01*
X83506560Y-64566316D01*
X82001955Y-64566316D01*
X82002049Y-64458947D01*
X81967078Y-64374310D01*
X82033100Y-64347030D01*
X82181477Y-64198912D01*
X82261877Y-64005287D01*
X82262021Y-63840308D01*
X82293111Y-63827462D01*
X82441488Y-63679344D01*
X82521888Y-63485719D01*
X82522071Y-63276065D01*
X82498705Y-63219515D01*
X82553122Y-63197030D01*
X82701499Y-63048912D01*
X82781899Y-62855287D01*
X82782082Y-62645633D01*
X82702020Y-62451868D01*
X82553902Y-62303491D01*
X82360277Y-62223091D01*
X82150623Y-62222908D01*
X81956858Y-62302970D01*
X81901732Y-62358000D01*
X81265852Y-62358000D01*
X81115840Y-62387839D01*
X81007002Y-62460562D01*
X81007002Y-57556976D01*
X81154367Y-57557105D01*
X81348132Y-57477043D01*
X81403258Y-57422013D01*
X84469987Y-57422013D01*
X84619999Y-57392174D01*
X84747173Y-57307199D01*
X84777347Y-57277025D01*
X84854367Y-57277092D01*
X85048132Y-57197030D01*
X85196509Y-57048912D01*
X85276909Y-56855287D01*
X85277092Y-56645633D01*
X85197030Y-56451868D01*
X85070336Y-56324952D01*
X85146509Y-56248912D01*
X85226909Y-56055287D01*
X85227092Y-55845633D01*
X85147030Y-55651868D01*
X84998912Y-55503491D01*
X84805287Y-55423091D01*
X84595633Y-55422908D01*
X84401868Y-55502970D01*
X84346742Y-55558000D01*
X81500000Y-55558000D01*
X81349988Y-55587839D01*
X81222814Y-55672814D01*
X81022653Y-55872975D01*
X81007002Y-55872962D01*
X81007002Y-53680007D01*
X81007003Y-53680002D01*
X80963080Y-53459194D01*
X80942639Y-53428601D01*
X80838003Y-53272001D01*
X80838000Y-53271999D01*
X79158001Y-51591999D01*
X78970808Y-51466922D01*
X78750000Y-51422999D01*
X78749995Y-51423000D01*
X69627000Y-51423000D01*
X69627000Y-50411328D01*
X78922640Y-50411328D01*
X79238178Y-51174989D01*
X79821938Y-51759768D01*
X80585047Y-52076639D01*
X81411328Y-52077360D01*
X82174989Y-51761822D01*
X82759768Y-51178062D01*
X83076639Y-50414953D01*
X83077360Y-49588672D01*
X82761822Y-48825011D01*
X82178062Y-48240232D01*
X81414953Y-47923361D01*
X80588672Y-47922640D01*
X79825011Y-48238178D01*
X79240232Y-48821938D01*
X78923361Y-49585047D01*
X78922640Y-50411328D01*
X69627000Y-50411328D01*
X69627000Y-48839002D01*
X70957998Y-47508003D01*
X70958001Y-47508001D01*
X71083078Y-47320808D01*
X71127000Y-47100000D01*
X71127000Y-46000000D01*
X71083078Y-45779192D01*
X70958001Y-45591999D01*
X70770808Y-45466922D01*
X70550000Y-45423000D01*
X70329192Y-45466922D01*
X70141999Y-45591999D01*
X70016922Y-45779192D01*
X69973000Y-46000000D01*
X69973000Y-46860999D01*
X68641999Y-48191999D01*
X68516922Y-48379192D01*
X68472999Y-48600000D01*
X68473000Y-48600005D01*
X68473000Y-52000000D01*
X68516922Y-52220808D01*
X68641999Y-52408001D01*
X68829192Y-52533078D01*
X69050000Y-52577000D01*
X78510998Y-52577000D01*
X79853002Y-53919003D01*
X79853002Y-54591103D01*
X79715623Y-54590983D01*
X79521858Y-54671045D01*
X79373481Y-54819163D01*
X79308278Y-54976190D01*
X78836148Y-54976190D01*
X78781734Y-54921681D01*
X78588109Y-54841281D01*
X78378455Y-54841098D01*
X78184690Y-54921160D01*
X78036313Y-55069278D01*
X77955913Y-55262903D01*
X77955730Y-55472557D01*
X78035792Y-55666322D01*
X78171469Y-55802237D01*
X78133070Y-55894713D01*
X78132887Y-56104367D01*
X78155048Y-56158000D01*
X73652052Y-56158000D01*
X73598685Y-56028842D01*
X73543655Y-55973716D01*
X73543655Y-55851655D01*
X73513816Y-55701643D01*
X73428841Y-55574469D01*
X71858577Y-54004205D01*
X71858693Y-54004089D01*
X71939093Y-53810464D01*
X71939276Y-53600810D01*
X71859214Y-53407045D01*
X71711096Y-53258668D01*
X71517471Y-53178268D01*
X71307817Y-53178085D01*
X71126080Y-53253177D01*
X68792401Y-53253177D01*
X68771624Y-53232400D01*
X68697030Y-53051868D01*
X68548912Y-52903491D01*
X68355287Y-52823091D01*
X68145633Y-52822908D01*
X67951868Y-52902970D01*
X67803491Y-53051088D01*
X67723091Y-53244713D01*
X67722908Y-53454367D01*
X67802970Y-53648132D01*
X67912645Y-53757999D01*
X67712379Y-53757999D01*
X67027025Y-53072645D01*
X67027092Y-52995625D01*
X66947030Y-52801860D01*
X66798912Y-52653483D01*
X66605287Y-52573083D01*
X66395633Y-52572900D01*
X66201868Y-52652962D01*
X66053491Y-52801080D01*
X65973091Y-52994705D01*
X65972908Y-53204359D01*
X66052970Y-53398124D01*
X66201088Y-53546501D01*
X66394713Y-53626901D01*
X66472605Y-53626969D01*
X67272821Y-54427185D01*
X67399995Y-54512160D01*
X67550007Y-54541999D01*
X71287627Y-54541999D01*
X72739448Y-55993820D01*
X72705146Y-56028062D01*
X72624746Y-56221687D01*
X72624646Y-56336317D01*
X72561143Y-56272814D01*
X72433969Y-56187839D01*
X72283957Y-56158000D01*
X68812372Y-56158000D01*
X67027025Y-54372653D01*
X67027092Y-54295633D01*
X66947030Y-54101868D01*
X66798912Y-53953491D01*
X66605287Y-53873091D01*
X66395633Y-53872908D01*
X66201868Y-53952970D01*
X66053491Y-54101088D01*
X65973091Y-54294713D01*
X65972908Y-54504367D01*
X66052970Y-54698132D01*
X66201088Y-54846509D01*
X66394713Y-54926909D01*
X66472605Y-54926977D01*
X68372814Y-56827186D01*
X68499988Y-56912161D01*
X68650000Y-56942000D01*
X72079231Y-56942000D01*
X72079201Y-56976703D01*
X72159263Y-57170468D01*
X72307381Y-57318845D01*
X72412999Y-57362701D01*
X72412999Y-57773010D01*
X72295633Y-57772908D01*
X72101868Y-57852970D01*
X72024996Y-57929708D01*
X71948912Y-57853491D01*
X71755287Y-57773091D01*
X71545633Y-57772908D01*
X71351868Y-57852970D01*
X71203491Y-58001088D01*
X71123091Y-58194713D01*
X71122908Y-58404367D01*
X71202970Y-58598132D01*
X71351088Y-58746509D01*
X71544713Y-58826909D01*
X71622605Y-58826977D01*
X73220628Y-60425000D01*
X72522653Y-61122975D01*
X72445633Y-61122908D01*
X72251868Y-61202970D01*
X72103491Y-61351088D01*
X72089399Y-61385027D01*
X60877186Y-50172814D01*
X60750012Y-50087839D01*
X60600000Y-50058000D01*
X59803326Y-50058000D01*
X59748912Y-50003491D01*
X59555287Y-49923091D01*
X59345633Y-49922908D01*
X59151868Y-50002970D01*
X59003491Y-50151088D01*
X58923091Y-50344713D01*
X58922975Y-50477967D01*
X56527000Y-50477967D01*
X56527000Y-43377000D01*
X76962869Y-43377000D01*
X81062420Y-44192451D01*
M02*
