M48
INCH,TZ
T1C0.010
T2C0.030
T3C0.039
%
G90
G05
T1
X17598Y-23209
X17835Y-27677
X17835Y-27992
X17953Y-22205
X18091Y-26732
X18169Y-26969
X18208Y-26533
X18287Y-23858
X18640Y-24331
X18878Y-23701
X20925Y-23858
X21122Y-24173
X21201Y-24744
X21614Y-18661
X21969Y-28068
X22028Y-21004
X22156Y-25010
X22470Y-25010
X22717Y-28740
X23051Y-28701
X23150Y-17323
X23583Y-20827
X23661Y-21535
X24528Y-17598
X24528Y-17953
X24528Y-18307
X24528Y-18661
X24646Y-20906
X24716Y-28737
X24796Y-29034
X24843Y-24370
X24921Y-19488
X24941Y-28740
X24986Y-29154
X25020Y-17598
X25020Y-17953
X25020Y-18307
X25020Y-18661
X25709Y-19449
X25807Y-27264
X26024Y-20236
X26811Y-19724
X26811Y-24370
X27185Y-21061
X27205Y-22165
X27402Y-32480
X27441Y-32126
X27559Y-28307
X27598Y-32756
X27638Y-20394
X27685Y-23051
X27756Y-29843
X27795Y-32126
X27815Y-24882
X27835Y-22480
X27992Y-32717
X28071Y-29646
X28128Y-20906
X28150Y-26811
X28150Y-32205
X28250Y-28010
X28386Y-26791
X28681Y-32224
X28701Y-26732
X28707Y-20921
X28878Y-26260
X28878Y-32461
X28903Y-25612
X29134Y-26752
X29134Y-29862
X29173Y-24646
X29429Y-29325
X29469Y-27343
X29567Y-26142
X29606Y-21614
X29685Y-32559
X29724Y-25669
X29764Y-26339
X29921Y-21969
X30118Y-30472
X30123Y-29311
X30470Y-28994
X30512Y-32087
X30630Y-19252
X30787Y-20433
X30866Y-29882
X30886Y-28583
X30925Y-24469
X30945Y-26378
X31090Y-28261
X31140Y-23916
X31260Y-17677
X31300Y-23664
X31315Y-24031
X31360Y-28213
X31417Y-24213
X31584Y-24368
X31772Y-21850
X31868Y-25320
X31977Y-27219
X32008Y-28701
X32087Y-26024
X32138Y-27059
X32303Y-26909
X32323Y-30354
X32441Y-24803
X32559Y-25512
X32618Y-24941
X32717Y-22441
X32756Y-27913
X32835Y-26732
X32874Y-21732
X33071Y-25394
X33130Y-26752
X33140Y-25002
X33148Y-24794
X33150Y-29764
X33622Y-22874
X33663Y-25929
X33701Y-29094
X33740Y-26161
X33762Y-25605
X33858Y-21811
X34055Y-23740
X34134Y-27480
T2
X19656Y-28061
X19665Y-27598
X20354Y-27589
X20364Y-28061
X22067Y-22490
X22077Y-23179
X22520Y-25945
X22530Y-26634
X22539Y-22480
X22539Y-23189
X22992Y-25935
X22992Y-26644
T3
X22283Y-33819
X23307Y-33819
X24606Y-33819
X25606Y-33819
X26606Y-33819
X27819Y-33819
X28819Y-33819
T0
M30
