G04 #@! TF.FileFunction,Copper,L2,Bot,Signal*
%FSLAX46Y46*%
G04 Gerber Fmt 4.6, Leading zero omitted, Abs format (unit mm)*
G04 Created by KiCad (PCBNEW 4.0.6) date 07/23/18 20:20:06*
%MOMM*%
%LPD*%
G01*
G04 APERTURE LIST*
%ADD10C,0.100000*%
%ADD11C,0.400000*%
%ADD12R,1.700000X1.700000*%
%ADD13O,1.700000X1.700000*%
%ADD14C,1.000000*%
%ADD15C,0.130000*%
%ADD16C,0.250000*%
%ADD17C,0.254000*%
G04 APERTURE END LIST*
D10*
D11*
X68800000Y-67600000D03*
X68800000Y-70450000D03*
X70450000Y-82150000D03*
X69350000Y-82100000D03*
X69200000Y-83150000D03*
X70050000Y-83150000D03*
X70800000Y-83150000D03*
X71450000Y-82600000D03*
X71650000Y-81800000D03*
X71000000Y-81150000D03*
X70350000Y-81200000D03*
X69400000Y-81150000D03*
X83250000Y-64250000D03*
X82750000Y-64800000D03*
X82200000Y-65300000D03*
X74250000Y-67550000D03*
X74400000Y-66300000D03*
X75250000Y-65250000D03*
X74250000Y-63200000D03*
X74800000Y-62150000D03*
X78600000Y-44450000D03*
X77500000Y-47300000D03*
X77300000Y-49200000D03*
X75850000Y-51550000D03*
X67600000Y-50700000D03*
X64950000Y-51200000D03*
X62800000Y-48950000D03*
X60250000Y-48500000D03*
X55200000Y-47250000D03*
X54450000Y-48150000D03*
X54350000Y-50900000D03*
X54450000Y-53250000D03*
X58000000Y-52450000D03*
X59650000Y-52700000D03*
X59900000Y-55000000D03*
X76450000Y-86200000D03*
X75050000Y-85800000D03*
X74800000Y-83000000D03*
X76850000Y-82550000D03*
X82200000Y-77400000D03*
X84700000Y-75050000D03*
X86400000Y-73250000D03*
X86400000Y-70050000D03*
X82850000Y-71150000D03*
X80850000Y-72950000D03*
X79000000Y-75100000D03*
X77500000Y-76900000D03*
X74550000Y-79200000D03*
X71500000Y-79300000D03*
X71550000Y-78200000D03*
X69150000Y-77750000D03*
X70400000Y-75800000D03*
X72400000Y-74950000D03*
X71300000Y-75250000D03*
X68250000Y-70000000D03*
X68550000Y-68500000D03*
X70850000Y-64400000D03*
X69650000Y-64250000D03*
X68250000Y-61700000D03*
X66550000Y-61600000D03*
X65000000Y-61600000D03*
X63150000Y-61800000D03*
X63800000Y-59000000D03*
X65900000Y-59250000D03*
X68700000Y-59150000D03*
X71950000Y-57750000D03*
X86500000Y-60550000D03*
X76150000Y-56150000D03*
X75950000Y-54750000D03*
X74900000Y-54800000D03*
X86100000Y-55600000D03*
X85800000Y-58050000D03*
X83950000Y-55650000D03*
D12*
X73200000Y-85900000D03*
D13*
X70660000Y-85900000D03*
D12*
X56600000Y-85900000D03*
X59200000Y-85900000D03*
X62500000Y-85900000D03*
X65040000Y-85900000D03*
X67580000Y-85900000D03*
D14*
X56050000Y-57125000D03*
X57250000Y-57100000D03*
X57250000Y-58900000D03*
X56075000Y-58875000D03*
X51700000Y-70075000D03*
X51725000Y-71275000D03*
X49925000Y-71275000D03*
X49950000Y-70100000D03*
X57200000Y-65900000D03*
X58400000Y-65875000D03*
X58400000Y-67675000D03*
X57225000Y-67650000D03*
D11*
X81650000Y-56250000D03*
X72914653Y-53138313D03*
X62600000Y-53100000D03*
X62300000Y-44700000D03*
X62300000Y-45600000D03*
X62300000Y-46500000D03*
X63550000Y-46500000D03*
X63550000Y-47400000D03*
X62300000Y-47400000D03*
X63550000Y-44700000D03*
X63550000Y-45600000D03*
X80944990Y-64314019D03*
X70319990Y-58550000D03*
X71444688Y-53100000D03*
X84195748Y-62975512D03*
X69050000Y-53495010D03*
X84175926Y-63505153D03*
X78350000Y-62150000D03*
X79800000Y-61500000D03*
X73350000Y-82450000D03*
X71500000Y-71400000D03*
X72850000Y-81850000D03*
X65550000Y-69250000D03*
X78600000Y-67000000D03*
X78450000Y-72600000D03*
X80222718Y-61895010D03*
X77394051Y-73644051D03*
X79654990Y-71660801D03*
X82400000Y-63000000D03*
X78967474Y-71783348D03*
X82850000Y-63350000D03*
X76513532Y-74448933D03*
X79540271Y-61037991D03*
X75650000Y-67900000D03*
X74000000Y-75850000D03*
X74750000Y-74485054D03*
X75450000Y-69544979D03*
X55800298Y-71291669D03*
X55950000Y-53350000D03*
X47950012Y-60200000D03*
X46150000Y-68500000D03*
X53650000Y-61400000D03*
X45600000Y-56400000D03*
X45950000Y-67900000D03*
X46248180Y-67393190D03*
X44700000Y-58950000D03*
X47345010Y-61800000D03*
X53850000Y-62850000D03*
X53150000Y-60600000D03*
X46450000Y-60600000D03*
X63463593Y-74050022D03*
X45300000Y-71100000D03*
X63350000Y-73000002D03*
X81222797Y-69135832D03*
X83400000Y-67900000D03*
X58550000Y-72900000D03*
X85700000Y-66450000D03*
X79096723Y-60747857D03*
X84150000Y-67950000D03*
X57075000Y-63525000D03*
X62981939Y-73747402D03*
X85504989Y-65858616D03*
X82050000Y-68350000D03*
X45300000Y-70300000D03*
X62778164Y-72992736D03*
X85754642Y-65036728D03*
X81629751Y-68728879D03*
X57700000Y-73000000D03*
X79502676Y-60105953D03*
X56275000Y-63525000D03*
D15*
X70860084Y-53100000D02*
X71255086Y-52704998D01*
X72714654Y-52938314D02*
X72914653Y-53138313D01*
X72481338Y-52704998D02*
X72714654Y-52938314D01*
X62600000Y-53100000D02*
X70860084Y-53100000D01*
X71255086Y-52704998D02*
X72481338Y-52704998D01*
X80944990Y-61858106D02*
X80944990Y-64031177D01*
X80944990Y-64031177D02*
X80944990Y-64314019D01*
X79897677Y-60810793D02*
X80944990Y-61858106D01*
X79897677Y-59916352D02*
X79897677Y-60810793D01*
X78731324Y-58749999D02*
X79897677Y-59916352D01*
X70519989Y-58749999D02*
X78731324Y-58749999D01*
X70319990Y-58550000D02*
X70519989Y-58749999D01*
X71644687Y-53299999D02*
X71444688Y-53100000D01*
X76574665Y-58229977D02*
X71644687Y-53299999D01*
X84195748Y-62975512D02*
X79450213Y-58229977D01*
X79450213Y-58229977D02*
X76574665Y-58229977D01*
X84175926Y-63505153D02*
X83854189Y-63505153D01*
X78839024Y-58489988D02*
X74044978Y-58489988D01*
X83854189Y-63505153D02*
X78839024Y-58489988D01*
X69249999Y-53695009D02*
X69050000Y-53495010D01*
X74044978Y-58489988D02*
X69249999Y-53695009D01*
X79000000Y-61500000D02*
X78549999Y-61950001D01*
X79800000Y-61500000D02*
X79000000Y-61500000D01*
X78549999Y-61950001D02*
X78350000Y-62150000D01*
X71500000Y-71400000D02*
X73357659Y-73257659D01*
X73357659Y-73257659D02*
X73357659Y-82442341D01*
X73357659Y-82442341D02*
X73350000Y-82450000D01*
X65550000Y-69250000D02*
X68550000Y-69250000D01*
X68550000Y-69250000D02*
X72850000Y-73550000D01*
X72850000Y-73550000D02*
X72850000Y-81072600D01*
X72850000Y-81072600D02*
X72850000Y-81850000D01*
X78450000Y-67150000D02*
X78600000Y-67000000D01*
X78450000Y-72600000D02*
X78450000Y-67150000D01*
X80022719Y-62095009D02*
X80222718Y-61895010D01*
X77394051Y-73644051D02*
X77394051Y-64723677D01*
X77394051Y-64723677D02*
X80022719Y-62095009D01*
X79654990Y-71377959D02*
X79654990Y-71660801D01*
X79654990Y-66177300D02*
X79654990Y-71377959D01*
X82400000Y-63432290D02*
X79654990Y-66177300D01*
X82400000Y-63000000D02*
X82400000Y-63432290D01*
X79906660Y-72055811D02*
X79239937Y-72055811D01*
X79167473Y-71983347D02*
X78967474Y-71783348D01*
X79239937Y-72055811D02*
X79167473Y-71983347D01*
X82850000Y-63350000D02*
X80050000Y-66150000D01*
X80050000Y-66150000D02*
X80050000Y-71912471D01*
X80050000Y-71912471D02*
X79906660Y-72055811D01*
X76513532Y-74166091D02*
X76513532Y-74448933D01*
X78677406Y-61237990D02*
X76513532Y-63401864D01*
X76513532Y-63401864D02*
X76513532Y-74166091D01*
X79340272Y-61237990D02*
X78677406Y-61237990D01*
X79540271Y-61037991D02*
X79340272Y-61237990D01*
X74000000Y-75850000D02*
X74000000Y-69550000D01*
X74000000Y-69550000D02*
X75650000Y-67900000D01*
X74750000Y-70244979D02*
X74750000Y-74202212D01*
X74750000Y-74202212D02*
X74750000Y-74485054D01*
X75450000Y-69544979D02*
X74750000Y-70244979D01*
X46150000Y-68500000D02*
X46349999Y-68300001D01*
X52808630Y-68300001D02*
X55600299Y-71091670D01*
X55600299Y-71091670D02*
X55800298Y-71291669D01*
X46349999Y-68300001D02*
X52808630Y-68300001D01*
D16*
X53650000Y-61400000D02*
X53650000Y-55650000D01*
X53650000Y-55650000D02*
X55950000Y-53350000D01*
D15*
X49150012Y-61400000D02*
X48150011Y-60399999D01*
X53650000Y-61400000D02*
X49150012Y-61400000D01*
X46700000Y-61450012D02*
X47750013Y-60399999D01*
X47110011Y-65292300D02*
X46700000Y-64882290D01*
X46432842Y-68500000D02*
X47110011Y-67822831D01*
X46150000Y-68500000D02*
X46432842Y-68500000D01*
X48150011Y-60399999D02*
X47950012Y-60200000D01*
X46700000Y-64882290D02*
X46700000Y-61450012D01*
X47750013Y-60399999D02*
X47950012Y-60200000D01*
X47110011Y-67822831D02*
X47110011Y-65292300D01*
X46850000Y-65400000D02*
X45600000Y-64150000D01*
X45600000Y-64150000D02*
X45600000Y-56400000D01*
X46850000Y-67600000D02*
X46850000Y-65400000D01*
X46550000Y-67900000D02*
X46850000Y-67600000D01*
X45950000Y-67900000D02*
X46550000Y-67900000D01*
X44700000Y-65845010D02*
X46048181Y-67193191D01*
X44700000Y-58950000D02*
X44700000Y-65845010D01*
X46048181Y-67193191D02*
X46248180Y-67393190D01*
X53850000Y-62850000D02*
X52800000Y-61800000D01*
X52800000Y-61800000D02*
X47627852Y-61800000D01*
X47627852Y-61800000D02*
X47345010Y-61800000D01*
X52100000Y-59550000D02*
X53150000Y-60600000D01*
X47900000Y-59550000D02*
X52100000Y-59550000D01*
X46850000Y-60600000D02*
X47900000Y-59550000D01*
X46450000Y-60600000D02*
X46850000Y-60600000D01*
X52600000Y-69050000D02*
X57450000Y-73900000D01*
X63263594Y-74250021D02*
X63463593Y-74050022D01*
X62549935Y-73900000D02*
X62899956Y-74250021D01*
X57450000Y-73900000D02*
X62549935Y-73900000D01*
X47400000Y-69050000D02*
X52600000Y-69050000D01*
X45705000Y-70745000D02*
X47400000Y-69050000D01*
X45425000Y-71100000D02*
X45705000Y-70820000D01*
X45300000Y-71100000D02*
X45425000Y-71100000D01*
X62899956Y-74250021D02*
X63263594Y-74250021D01*
X45705000Y-70820000D02*
X45705000Y-70745000D01*
X58550000Y-72900000D02*
X58899999Y-72550001D01*
X62899999Y-72550001D02*
X63150001Y-72800003D01*
X58899999Y-72550001D02*
X62899999Y-72550001D01*
X63150001Y-72800003D02*
X63350000Y-73000002D01*
X83400000Y-67900000D02*
X82164168Y-69135832D01*
X81505639Y-69135832D02*
X81222797Y-69135832D01*
X82164168Y-69135832D02*
X81505639Y-69135832D01*
X84150000Y-67950000D02*
X85650000Y-66450000D01*
X85650000Y-66450000D02*
X85700000Y-66450000D01*
X78813881Y-60747857D02*
X79096723Y-60747857D01*
X57950000Y-55850000D02*
X62847857Y-60747857D01*
X55450000Y-55850000D02*
X57950000Y-55850000D01*
X55100000Y-56200000D02*
X55450000Y-55850000D01*
X57075000Y-63120000D02*
X55100000Y-61145000D01*
X57075000Y-63525000D02*
X57075000Y-63120000D01*
X55100000Y-61145000D02*
X55100000Y-56200000D01*
X62847857Y-60747857D02*
X78813881Y-60747857D01*
X47255000Y-68750000D02*
X52667710Y-68750000D01*
X57532848Y-73615138D02*
X62849675Y-73615138D01*
X62849675Y-73615138D02*
X62981939Y-73747402D01*
X52667710Y-68750000D02*
X57532848Y-73615138D01*
X45300000Y-70300000D02*
X45705000Y-70300000D01*
X45705000Y-70300000D02*
X47255000Y-68750000D01*
X82050000Y-68350000D02*
X84541384Y-65858616D01*
X84541384Y-65858616D02*
X85222147Y-65858616D01*
X85222147Y-65858616D02*
X85504989Y-65858616D01*
X45300000Y-70300000D02*
X45425000Y-70300000D01*
X62578165Y-73192735D02*
X62778164Y-72992736D01*
X57700000Y-73000000D02*
X57995001Y-73295001D01*
X62475899Y-73295001D02*
X62578165Y-73192735D01*
X57995001Y-73295001D02*
X62475899Y-73295001D01*
X81629751Y-68728879D02*
X81629751Y-67820249D01*
X85008528Y-65500000D02*
X85471800Y-65036728D01*
X81629751Y-67820249D02*
X83950000Y-65500000D01*
X83950000Y-65500000D02*
X85008528Y-65500000D01*
X85471800Y-65036728D02*
X85754642Y-65036728D01*
X54839989Y-56092300D02*
X55582289Y-55350000D01*
X62905953Y-60105953D02*
X79219834Y-60105953D01*
X79219834Y-60105953D02*
X79502676Y-60105953D01*
X54839989Y-61684989D02*
X54839989Y-56092300D01*
X58150000Y-55350000D02*
X62905953Y-60105953D01*
X56275000Y-63120000D02*
X54839989Y-61684989D01*
X55582289Y-55350000D02*
X58150000Y-55350000D01*
X56275000Y-63525000D02*
X56275000Y-63120000D01*
D17*
G36*
X79043484Y-43679652D02*
X81009130Y-44273116D01*
X82822073Y-45237074D01*
X84413255Y-46534812D01*
X85722068Y-48116896D01*
X86698657Y-49923058D01*
X87305830Y-51884517D01*
X87522819Y-53949037D01*
X87523000Y-54000804D01*
X87523000Y-76976676D01*
X87320348Y-79043482D01*
X86726884Y-81009130D01*
X85762924Y-82822075D01*
X84465191Y-84413252D01*
X82883109Y-85722065D01*
X81076942Y-86698657D01*
X79115482Y-87305830D01*
X77050964Y-87522819D01*
X76999195Y-87523000D01*
X54023324Y-87523000D01*
X51956518Y-87320348D01*
X49990870Y-86726884D01*
X48177925Y-85762924D01*
X47303795Y-85050000D01*
X55320934Y-85050000D01*
X55320934Y-86750000D01*
X55326356Y-86817998D01*
X55362073Y-86933330D01*
X55428506Y-87034146D01*
X55520395Y-87112463D01*
X55630465Y-87162079D01*
X55750000Y-87179066D01*
X57450000Y-87179066D01*
X57517998Y-87173644D01*
X57633330Y-87137927D01*
X57734146Y-87071494D01*
X57812463Y-86979605D01*
X57862079Y-86869535D01*
X57879066Y-86750000D01*
X57879066Y-85050000D01*
X57873644Y-84982002D01*
X57837927Y-84866670D01*
X57771494Y-84765854D01*
X57679605Y-84687537D01*
X57569535Y-84637921D01*
X57450000Y-84620934D01*
X55750000Y-84620934D01*
X55682002Y-84626356D01*
X55566670Y-84662073D01*
X55465854Y-84728506D01*
X55387537Y-84820395D01*
X55337921Y-84930465D01*
X55320934Y-85050000D01*
X47303795Y-85050000D01*
X46586748Y-84465191D01*
X45277935Y-82883109D01*
X44358715Y-81183048D01*
X47820138Y-81183048D01*
X47897207Y-81602966D01*
X48054371Y-81999917D01*
X48285644Y-82358782D01*
X48582216Y-82665891D01*
X48932790Y-82909547D01*
X49324015Y-83080468D01*
X49740987Y-83172146D01*
X50167825Y-83181087D01*
X50588271Y-83106951D01*
X50986310Y-82952562D01*
X51346780Y-82723800D01*
X51655952Y-82429380D01*
X51902050Y-82080515D01*
X52075699Y-81690493D01*
X52170285Y-81274171D01*
X52177094Y-80786534D01*
X52094169Y-80367733D01*
X51931478Y-79973015D01*
X51695217Y-79617414D01*
X51394387Y-79314476D01*
X51040444Y-79075739D01*
X50646871Y-78910296D01*
X50228660Y-78824450D01*
X49801738Y-78821469D01*
X49382368Y-78901468D01*
X48986524Y-79061400D01*
X48629283Y-79295172D01*
X48324252Y-79593880D01*
X48083049Y-79946147D01*
X47914863Y-80338556D01*
X47826099Y-80756158D01*
X47820138Y-81183048D01*
X44358715Y-81183048D01*
X44301343Y-81076942D01*
X43694170Y-79115482D01*
X43477181Y-77050964D01*
X43477000Y-76999195D01*
X43477000Y-59002720D01*
X44072176Y-59002720D01*
X44094372Y-59123661D01*
X44139637Y-59237987D01*
X44206246Y-59341344D01*
X44208000Y-59343160D01*
X44208000Y-65845010D01*
X44212436Y-65890256D01*
X44216396Y-65935514D01*
X44217117Y-65937997D01*
X44217370Y-65940573D01*
X44230510Y-65984095D01*
X44243185Y-66027724D01*
X44244375Y-66030020D01*
X44245123Y-66032497D01*
X44266442Y-66072591D01*
X44287373Y-66112972D01*
X44288990Y-66114997D01*
X44290203Y-66117279D01*
X44318919Y-66152489D01*
X44347280Y-66188015D01*
X44350833Y-66191619D01*
X44350891Y-66191690D01*
X44350957Y-66191745D01*
X44352103Y-66192907D01*
X45563058Y-67403861D01*
X45555218Y-67408991D01*
X45467366Y-67495022D01*
X45397897Y-67596479D01*
X45349457Y-67709497D01*
X45323892Y-67829771D01*
X45322176Y-67952720D01*
X45344372Y-68073661D01*
X45389637Y-68187987D01*
X45456246Y-68291344D01*
X45535804Y-68373729D01*
X45523892Y-68429771D01*
X45522176Y-68552720D01*
X45544372Y-68673661D01*
X45589637Y-68787987D01*
X45656246Y-68891344D01*
X45741662Y-68979795D01*
X45842632Y-69049971D01*
X45955309Y-69099198D01*
X46075401Y-69125602D01*
X46181384Y-69127822D01*
X45574142Y-69735064D01*
X45486306Y-69698142D01*
X45365856Y-69673417D01*
X45242898Y-69672559D01*
X45122115Y-69695600D01*
X45008108Y-69741662D01*
X44905218Y-69808991D01*
X44817366Y-69895022D01*
X44747897Y-69996479D01*
X44699457Y-70109497D01*
X44673892Y-70229771D01*
X44672176Y-70352720D01*
X44694372Y-70473661D01*
X44739637Y-70587987D01*
X44806246Y-70691344D01*
X44814226Y-70699608D01*
X44747897Y-70796479D01*
X44699457Y-70909497D01*
X44673892Y-71029771D01*
X44672176Y-71152720D01*
X44694372Y-71273661D01*
X44739637Y-71387987D01*
X44806246Y-71491344D01*
X44891662Y-71579795D01*
X44992632Y-71649971D01*
X45105309Y-71699198D01*
X45225401Y-71725602D01*
X45348336Y-71728177D01*
X45469429Y-71706825D01*
X45584068Y-71662359D01*
X45687888Y-71596474D01*
X45776933Y-71511677D01*
X45847811Y-71411200D01*
X45878483Y-71342311D01*
X46052897Y-71167896D01*
X46081737Y-71132786D01*
X46110956Y-71097964D01*
X46112203Y-71095696D01*
X46113844Y-71093698D01*
X46135318Y-71053650D01*
X46157215Y-71013819D01*
X46157997Y-71011354D01*
X46159220Y-71009073D01*
X46169128Y-70976666D01*
X47603794Y-69542000D01*
X48673000Y-69542000D01*
X48673000Y-72050000D01*
X48702202Y-72205196D01*
X48793923Y-72347735D01*
X48933873Y-72443358D01*
X49100000Y-72477000D01*
X51926015Y-72477000D01*
X61220934Y-85930173D01*
X61220934Y-86750000D01*
X61226356Y-86817998D01*
X61262073Y-86933330D01*
X61328506Y-87034146D01*
X61420395Y-87112463D01*
X61530465Y-87162079D01*
X61650000Y-87179066D01*
X63350000Y-87179066D01*
X63417998Y-87173644D01*
X63533330Y-87137927D01*
X63634146Y-87071494D01*
X63712463Y-86979605D01*
X63750377Y-86895496D01*
X63752202Y-86905196D01*
X63843923Y-87047735D01*
X63983873Y-87143358D01*
X64065690Y-87159927D01*
X64070465Y-87162079D01*
X64090092Y-87164868D01*
X64150000Y-87177000D01*
X64175462Y-87177000D01*
X64190000Y-87179066D01*
X65890000Y-87179066D01*
X65957998Y-87173644D01*
X66020182Y-87154386D01*
X66055196Y-87147798D01*
X66067944Y-87139595D01*
X66073330Y-87137927D01*
X66174146Y-87071494D01*
X66174595Y-87070967D01*
X66197735Y-87056077D01*
X66239972Y-86994261D01*
X66252463Y-86979605D01*
X66257266Y-86968950D01*
X66293358Y-86916127D01*
X66299009Y-86888224D01*
X66302202Y-86905196D01*
X66393923Y-87047735D01*
X66533873Y-87143358D01*
X66597533Y-87156250D01*
X66610465Y-87162079D01*
X66663621Y-87169633D01*
X66700000Y-87177000D01*
X66715462Y-87177000D01*
X66730000Y-87179066D01*
X68430000Y-87179066D01*
X68497998Y-87173644D01*
X68544699Y-87159181D01*
X68605196Y-87147798D01*
X68747735Y-87056077D01*
X68843358Y-86916127D01*
X68877000Y-86750000D01*
X68877000Y-85893821D01*
X69383000Y-85893821D01*
X69383000Y-85906179D01*
X69407320Y-86154216D01*
X69479355Y-86392806D01*
X69596360Y-86612860D01*
X69753878Y-86805997D01*
X69945911Y-86964860D01*
X70165143Y-87083398D01*
X70403223Y-87157097D01*
X70651085Y-87183148D01*
X70899286Y-87160560D01*
X71138373Y-87090193D01*
X71359238Y-86974727D01*
X71553470Y-86818561D01*
X71713670Y-86627642D01*
X71833736Y-86409243D01*
X71909094Y-86171682D01*
X71920934Y-86066130D01*
X71920934Y-86750000D01*
X71926356Y-86817998D01*
X71962073Y-86933330D01*
X72028506Y-87034146D01*
X72120395Y-87112463D01*
X72230465Y-87162079D01*
X72350000Y-87179066D01*
X74050000Y-87179066D01*
X74117998Y-87173644D01*
X74233330Y-87137927D01*
X74334146Y-87071494D01*
X74412463Y-86979605D01*
X74462079Y-86869535D01*
X74479066Y-86750000D01*
X74479066Y-85050000D01*
X74473644Y-84982002D01*
X74437927Y-84866670D01*
X74371494Y-84765854D01*
X74279605Y-84687537D01*
X74169535Y-84637921D01*
X74050000Y-84620934D01*
X72350000Y-84620934D01*
X72282002Y-84626356D01*
X72166670Y-84662073D01*
X72065854Y-84728506D01*
X71987537Y-84820395D01*
X71937921Y-84930465D01*
X71920934Y-85050000D01*
X71920934Y-85729966D01*
X71912680Y-85645784D01*
X71840645Y-85407194D01*
X71723640Y-85187140D01*
X71566122Y-84994003D01*
X71374089Y-84835140D01*
X71154857Y-84716602D01*
X70916777Y-84642903D01*
X70668915Y-84616852D01*
X70420714Y-84639440D01*
X70181627Y-84709807D01*
X69960762Y-84825273D01*
X69766530Y-84981439D01*
X69606330Y-85172358D01*
X69486264Y-85390757D01*
X69410906Y-85628318D01*
X69383124Y-85875991D01*
X69383000Y-85893821D01*
X68877000Y-85893821D01*
X68877000Y-71350000D01*
X68863999Y-71245433D01*
X68790699Y-71092603D01*
X68663715Y-70980331D01*
X66521737Y-69742000D01*
X68346206Y-69742000D01*
X72358000Y-73753793D01*
X72358000Y-81458701D01*
X72297897Y-81546479D01*
X72249457Y-81659497D01*
X72223892Y-81779771D01*
X72222176Y-81902720D01*
X72244372Y-82023661D01*
X72289637Y-82137987D01*
X72356246Y-82241344D01*
X72441662Y-82329795D01*
X72542632Y-82399971D01*
X72655309Y-82449198D01*
X72722716Y-82464018D01*
X72722176Y-82502720D01*
X72744372Y-82623661D01*
X72789637Y-82737987D01*
X72856246Y-82841344D01*
X72941662Y-82929795D01*
X73042632Y-82999971D01*
X73155309Y-83049198D01*
X73275401Y-83075602D01*
X73398336Y-83078177D01*
X73519429Y-83056825D01*
X73634068Y-83012359D01*
X73737888Y-82946474D01*
X73826933Y-82861677D01*
X73897811Y-82761200D01*
X73947824Y-82648870D01*
X73975066Y-82528964D01*
X73977027Y-82388519D01*
X73953144Y-82267900D01*
X73906287Y-82154217D01*
X73849659Y-82068985D01*
X73849659Y-81183048D01*
X78820138Y-81183048D01*
X78897207Y-81602966D01*
X79054371Y-81999917D01*
X79285644Y-82358782D01*
X79582216Y-82665891D01*
X79932790Y-82909547D01*
X80324015Y-83080468D01*
X80740987Y-83172146D01*
X81167825Y-83181087D01*
X81588271Y-83106951D01*
X81986310Y-82952562D01*
X82346780Y-82723800D01*
X82655952Y-82429380D01*
X82902050Y-82080515D01*
X83075699Y-81690493D01*
X83170285Y-81274171D01*
X83177094Y-80786534D01*
X83094169Y-80367733D01*
X82931478Y-79973015D01*
X82695217Y-79617414D01*
X82394387Y-79314476D01*
X82040444Y-79075739D01*
X81646871Y-78910296D01*
X81228660Y-78824450D01*
X80801738Y-78821469D01*
X80382368Y-78901468D01*
X79986524Y-79061400D01*
X79629283Y-79295172D01*
X79324252Y-79593880D01*
X79083049Y-79946147D01*
X78914863Y-80338556D01*
X78826099Y-80756158D01*
X78820138Y-81183048D01*
X73849659Y-81183048D01*
X73849659Y-76458949D01*
X73925401Y-76475602D01*
X74048336Y-76478177D01*
X74169429Y-76456825D01*
X74284068Y-76412359D01*
X74387888Y-76346474D01*
X74476933Y-76261677D01*
X74547811Y-76161200D01*
X74597824Y-76048870D01*
X74625066Y-75928964D01*
X74627027Y-75788519D01*
X74603144Y-75667900D01*
X74556287Y-75554217D01*
X74492000Y-75457458D01*
X74492000Y-75056593D01*
X74555309Y-75084252D01*
X74675401Y-75110656D01*
X74798336Y-75113231D01*
X74919429Y-75091879D01*
X75034068Y-75047413D01*
X75137888Y-74981528D01*
X75226933Y-74896731D01*
X75297811Y-74796254D01*
X75347824Y-74683924D01*
X75375066Y-74564018D01*
X75377027Y-74423573D01*
X75353144Y-74302954D01*
X75306287Y-74189271D01*
X75242000Y-74092512D01*
X75242000Y-70448773D01*
X75521744Y-70169029D01*
X75619429Y-70151804D01*
X75734068Y-70107338D01*
X75837888Y-70041453D01*
X75926933Y-69956656D01*
X75997811Y-69856179D01*
X76021532Y-69802901D01*
X76021532Y-74057634D01*
X75961429Y-74145412D01*
X75912989Y-74258430D01*
X75887424Y-74378704D01*
X75885708Y-74501653D01*
X75907904Y-74622594D01*
X75953169Y-74736920D01*
X76019778Y-74840277D01*
X76105194Y-74928728D01*
X76206164Y-74998904D01*
X76318841Y-75048131D01*
X76438933Y-75074535D01*
X76561868Y-75077110D01*
X76682961Y-75055758D01*
X76797600Y-75011292D01*
X76901420Y-74945407D01*
X76990465Y-74860610D01*
X77061343Y-74760133D01*
X77111356Y-74647803D01*
X77138598Y-74527897D01*
X77140559Y-74387452D01*
X77116676Y-74266833D01*
X77086658Y-74194005D01*
X77086683Y-74194022D01*
X77199360Y-74243249D01*
X77319452Y-74269653D01*
X77442387Y-74272228D01*
X77563480Y-74250876D01*
X77678119Y-74206410D01*
X77781939Y-74140525D01*
X77870984Y-74055728D01*
X77941862Y-73955251D01*
X77991875Y-73842921D01*
X78019117Y-73723015D01*
X78021078Y-73582570D01*
X77997195Y-73461951D01*
X77950338Y-73348268D01*
X77886051Y-73251509D01*
X77886051Y-72878930D01*
X77889637Y-72887987D01*
X77956246Y-72991344D01*
X78041662Y-73079795D01*
X78142632Y-73149971D01*
X78255309Y-73199198D01*
X78375401Y-73225602D01*
X78498336Y-73228177D01*
X78619429Y-73206825D01*
X78734068Y-73162359D01*
X78837888Y-73096474D01*
X78926933Y-73011677D01*
X78997811Y-72911200D01*
X79047824Y-72798870D01*
X79075066Y-72678964D01*
X79077027Y-72538519D01*
X79072709Y-72516710D01*
X79094330Y-72523320D01*
X79137644Y-72537060D01*
X79140215Y-72537348D01*
X79142690Y-72538105D01*
X79187914Y-72542698D01*
X79233068Y-72547763D01*
X79238125Y-72547798D01*
X79238220Y-72547808D01*
X79238309Y-72547800D01*
X79239937Y-72547811D01*
X79906660Y-72547811D01*
X79951906Y-72543375D01*
X79997164Y-72539415D01*
X79999647Y-72538694D01*
X80002223Y-72538441D01*
X80045745Y-72525301D01*
X80089374Y-72512626D01*
X80091670Y-72511436D01*
X80094147Y-72510688D01*
X80134241Y-72489369D01*
X80174622Y-72468438D01*
X80176647Y-72466821D01*
X80178929Y-72465608D01*
X80214139Y-72436892D01*
X80249665Y-72408531D01*
X80253269Y-72404978D01*
X80253340Y-72404920D01*
X80253395Y-72404854D01*
X80254557Y-72403708D01*
X80397896Y-72260368D01*
X80426733Y-72225262D01*
X80455956Y-72190435D01*
X80457203Y-72188167D01*
X80458844Y-72186169D01*
X80480328Y-72146102D01*
X80502215Y-72106290D01*
X80502996Y-72103827D01*
X80504220Y-72101545D01*
X80517500Y-72058105D01*
X80531249Y-72014764D01*
X80531538Y-72012188D01*
X80532293Y-72009718D01*
X80536882Y-71964539D01*
X80541952Y-71919340D01*
X80541987Y-71914284D01*
X80541997Y-71914189D01*
X80541989Y-71914100D01*
X80542000Y-71912471D01*
X80542000Y-69188552D01*
X80594973Y-69188552D01*
X80617169Y-69309493D01*
X80662434Y-69423819D01*
X80729043Y-69527176D01*
X80814459Y-69615627D01*
X80915429Y-69685803D01*
X81028106Y-69735030D01*
X81148198Y-69761434D01*
X81271133Y-69764009D01*
X81392226Y-69742657D01*
X81506865Y-69698191D01*
X81610685Y-69632306D01*
X81615383Y-69627832D01*
X82164168Y-69627832D01*
X82209414Y-69623396D01*
X82254672Y-69619436D01*
X82257155Y-69618715D01*
X82259731Y-69618462D01*
X82303253Y-69605322D01*
X82346882Y-69592647D01*
X82349178Y-69591457D01*
X82351655Y-69590709D01*
X82391749Y-69569390D01*
X82432130Y-69548459D01*
X82434155Y-69546842D01*
X82436437Y-69545629D01*
X82471647Y-69516913D01*
X82507173Y-69488552D01*
X82510777Y-69484999D01*
X82510848Y-69484941D01*
X82510903Y-69484875D01*
X82512065Y-69483729D01*
X83471744Y-68524050D01*
X83569429Y-68506825D01*
X83684068Y-68462359D01*
X83739276Y-68427324D01*
X83741662Y-68429795D01*
X83842632Y-68499971D01*
X83955309Y-68549198D01*
X84075401Y-68575602D01*
X84198336Y-68578177D01*
X84319429Y-68556825D01*
X84434068Y-68512359D01*
X84537888Y-68446474D01*
X84626933Y-68361677D01*
X84697811Y-68261200D01*
X84747824Y-68148870D01*
X84775066Y-68028964D01*
X84775183Y-68020611D01*
X85718246Y-67077547D01*
X85748336Y-67078177D01*
X85869429Y-67056825D01*
X85984068Y-67012359D01*
X86087888Y-66946474D01*
X86176933Y-66861677D01*
X86247811Y-66761200D01*
X86297824Y-66648870D01*
X86325066Y-66528964D01*
X86327027Y-66388519D01*
X86303144Y-66267900D01*
X86256287Y-66154217D01*
X86188241Y-66051800D01*
X86119770Y-65982849D01*
X86130055Y-65937580D01*
X86132016Y-65797135D01*
X86108133Y-65676516D01*
X86068442Y-65580219D01*
X86142530Y-65533202D01*
X86231575Y-65448405D01*
X86302453Y-65347928D01*
X86352466Y-65235598D01*
X86379708Y-65115692D01*
X86381669Y-64975247D01*
X86357786Y-64854628D01*
X86310929Y-64740945D01*
X86242883Y-64638528D01*
X86156241Y-64551278D01*
X86054301Y-64482519D01*
X85940948Y-64434870D01*
X85820498Y-64410145D01*
X85697540Y-64409287D01*
X85576757Y-64432328D01*
X85462750Y-64478390D01*
X85359860Y-64545719D01*
X85340190Y-64564981D01*
X85332743Y-64567229D01*
X85289087Y-64579913D01*
X85286792Y-64581103D01*
X85284313Y-64581851D01*
X85244200Y-64603180D01*
X85203838Y-64624101D01*
X85201813Y-64625718D01*
X85199531Y-64626931D01*
X85164321Y-64655647D01*
X85128795Y-64684008D01*
X85125196Y-64687557D01*
X85125120Y-64687619D01*
X85125062Y-64687689D01*
X85123904Y-64688831D01*
X84804734Y-65008000D01*
X83950000Y-65008000D01*
X83904804Y-65012431D01*
X83859496Y-65016395D01*
X83857008Y-65017118D01*
X83854437Y-65017370D01*
X83810943Y-65030501D01*
X83767287Y-65043185D01*
X83764992Y-65044375D01*
X83762513Y-65045123D01*
X83722400Y-65066452D01*
X83682038Y-65087373D01*
X83680013Y-65088990D01*
X83677731Y-65090203D01*
X83642521Y-65118919D01*
X83606995Y-65147280D01*
X83603396Y-65150829D01*
X83603320Y-65150891D01*
X83603262Y-65150961D01*
X83602104Y-65152103D01*
X81281854Y-67472352D01*
X81252993Y-67507488D01*
X81223795Y-67542285D01*
X81222548Y-67544553D01*
X81220907Y-67546551D01*
X81199433Y-67586599D01*
X81177536Y-67626430D01*
X81176754Y-67628895D01*
X81175531Y-67631176D01*
X81162255Y-67674601D01*
X81148502Y-67717956D01*
X81148213Y-67720532D01*
X81147458Y-67723002D01*
X81142869Y-67768181D01*
X81137799Y-67813380D01*
X81137764Y-67818436D01*
X81137754Y-67818531D01*
X81137762Y-67818620D01*
X81137751Y-67820249D01*
X81137751Y-68337580D01*
X81077648Y-68425358D01*
X81029519Y-68537651D01*
X80930905Y-68577494D01*
X80828015Y-68644823D01*
X80740163Y-68730854D01*
X80670694Y-68832311D01*
X80622254Y-68945329D01*
X80596689Y-69065603D01*
X80594973Y-69188552D01*
X80542000Y-69188552D01*
X80542000Y-66353794D01*
X82921745Y-63974049D01*
X83019429Y-63956825D01*
X83134068Y-63912359D01*
X83237888Y-63846474D01*
X83326933Y-63761677D01*
X83363327Y-63710084D01*
X83506292Y-63853049D01*
X83541398Y-63881886D01*
X83576225Y-63911109D01*
X83578493Y-63912356D01*
X83580491Y-63913997D01*
X83620558Y-63935481D01*
X83660370Y-63957368D01*
X83662833Y-63958149D01*
X83665115Y-63959373D01*
X83708555Y-63972653D01*
X83751896Y-63986402D01*
X83754472Y-63986691D01*
X83756942Y-63987446D01*
X83773620Y-63989140D01*
X83868558Y-64055124D01*
X83981235Y-64104351D01*
X84101327Y-64130755D01*
X84224262Y-64133330D01*
X84345355Y-64111978D01*
X84459994Y-64067512D01*
X84563814Y-64001627D01*
X84652859Y-63916830D01*
X84723737Y-63816353D01*
X84773750Y-63704023D01*
X84800992Y-63584117D01*
X84802953Y-63443672D01*
X84779070Y-63323053D01*
X84754221Y-63262765D01*
X84793572Y-63174382D01*
X84820814Y-63054476D01*
X84822775Y-62914031D01*
X84798892Y-62793412D01*
X84752035Y-62679729D01*
X84683989Y-62577312D01*
X84597347Y-62490062D01*
X84495407Y-62421303D01*
X84382054Y-62373654D01*
X84265826Y-62349796D01*
X79798110Y-57882080D01*
X79762974Y-57853219D01*
X79728177Y-57824021D01*
X79725909Y-57822774D01*
X79723911Y-57821133D01*
X79683863Y-57799659D01*
X79644032Y-57777762D01*
X79641567Y-57776980D01*
X79639286Y-57775757D01*
X79595861Y-57762481D01*
X79552506Y-57748728D01*
X79549930Y-57748439D01*
X79547460Y-57747684D01*
X79502281Y-57743095D01*
X79457082Y-57738025D01*
X79452026Y-57737990D01*
X79451931Y-57737980D01*
X79451842Y-57737988D01*
X79450213Y-57737977D01*
X76778458Y-57737977D01*
X72794348Y-53753866D01*
X72840054Y-53763915D01*
X72962989Y-53766490D01*
X73084082Y-53745138D01*
X73198721Y-53700672D01*
X73302541Y-53634787D01*
X73391586Y-53549990D01*
X73462464Y-53449513D01*
X73512477Y-53337183D01*
X73539719Y-53217277D01*
X73541680Y-53076832D01*
X73517797Y-52956213D01*
X73470940Y-52842530D01*
X73402894Y-52740113D01*
X73316252Y-52652863D01*
X73214312Y-52584104D01*
X73100959Y-52536455D01*
X72984730Y-52512596D01*
X72829235Y-52357101D01*
X72794099Y-52328240D01*
X72759302Y-52299042D01*
X72757034Y-52297795D01*
X72755036Y-52296154D01*
X72714988Y-52274680D01*
X72675157Y-52252783D01*
X72672692Y-52252001D01*
X72670411Y-52250778D01*
X72626986Y-52237502D01*
X72583631Y-52223749D01*
X72581055Y-52223460D01*
X72578585Y-52222705D01*
X72533406Y-52218116D01*
X72488207Y-52213046D01*
X72483151Y-52213011D01*
X72483056Y-52213001D01*
X72482967Y-52213009D01*
X72481338Y-52212998D01*
X71255086Y-52212998D01*
X71209840Y-52217434D01*
X71164582Y-52221394D01*
X71162099Y-52222115D01*
X71159523Y-52222368D01*
X71116001Y-52235508D01*
X71072372Y-52248183D01*
X71070076Y-52249373D01*
X71067599Y-52250121D01*
X71027465Y-52271461D01*
X70987124Y-52292372D01*
X70985102Y-52293986D01*
X70982817Y-52295201D01*
X70947604Y-52323920D01*
X70912080Y-52352278D01*
X70908480Y-52355828D01*
X70908406Y-52355889D01*
X70908349Y-52355958D01*
X70907189Y-52357102D01*
X70656290Y-52608000D01*
X62991888Y-52608000D01*
X62899659Y-52545791D01*
X62786306Y-52498142D01*
X62665856Y-52473417D01*
X62542898Y-52472559D01*
X62422115Y-52495600D01*
X62308108Y-52541662D01*
X62205218Y-52608991D01*
X62117366Y-52695022D01*
X62047897Y-52796479D01*
X61999457Y-52909497D01*
X61973892Y-53029771D01*
X61972176Y-53152720D01*
X61994372Y-53273661D01*
X62039637Y-53387987D01*
X62106246Y-53491344D01*
X62191662Y-53579795D01*
X62292632Y-53649971D01*
X62405309Y-53699198D01*
X62525401Y-53725602D01*
X62648336Y-53728177D01*
X62769429Y-53706825D01*
X62884068Y-53662359D01*
X62987888Y-53596474D01*
X62992586Y-53592000D01*
X68430301Y-53592000D01*
X68444372Y-53668671D01*
X68489637Y-53782997D01*
X68556246Y-53886354D01*
X68641662Y-53974805D01*
X68742632Y-54044981D01*
X68855309Y-54094208D01*
X68975401Y-54120612D01*
X68979902Y-54120706D01*
X73117196Y-58257999D01*
X70877836Y-58257999D01*
X70876277Y-58254217D01*
X70808231Y-58151800D01*
X70721589Y-58064550D01*
X70619649Y-57995791D01*
X70506296Y-57948142D01*
X70385846Y-57923417D01*
X70262888Y-57922559D01*
X70142105Y-57945600D01*
X70028098Y-57991662D01*
X69925208Y-58058991D01*
X69837356Y-58145022D01*
X69767887Y-58246479D01*
X69719447Y-58359497D01*
X69693882Y-58479771D01*
X69692166Y-58602720D01*
X69714362Y-58723661D01*
X69759627Y-58837987D01*
X69826236Y-58941344D01*
X69911652Y-59029795D01*
X70012622Y-59099971D01*
X70125299Y-59149198D01*
X70245391Y-59175602D01*
X70278853Y-59176303D01*
X70286339Y-59180317D01*
X70326170Y-59202214D01*
X70328635Y-59202996D01*
X70330916Y-59204219D01*
X70374341Y-59217495D01*
X70417696Y-59231248D01*
X70420272Y-59231537D01*
X70422742Y-59232292D01*
X70467921Y-59236881D01*
X70513120Y-59241951D01*
X70518176Y-59241986D01*
X70518271Y-59241996D01*
X70518360Y-59241988D01*
X70519989Y-59241999D01*
X78527530Y-59241999D01*
X78899484Y-59613953D01*
X63109746Y-59613953D01*
X58497897Y-55002103D01*
X58462761Y-54973242D01*
X58427964Y-54944044D01*
X58425696Y-54942797D01*
X58423698Y-54941156D01*
X58383650Y-54919682D01*
X58343819Y-54897785D01*
X58341354Y-54897003D01*
X58339073Y-54895780D01*
X58295648Y-54882504D01*
X58252293Y-54868751D01*
X58249717Y-54868462D01*
X58247247Y-54867707D01*
X58202068Y-54863118D01*
X58156869Y-54858048D01*
X58151813Y-54858013D01*
X58151718Y-54858003D01*
X58151629Y-54858011D01*
X58150000Y-54858000D01*
X55582289Y-54858000D01*
X55537093Y-54862431D01*
X55491785Y-54866395D01*
X55489297Y-54867118D01*
X55486726Y-54867370D01*
X55443232Y-54880501D01*
X55399576Y-54893185D01*
X55397281Y-54894375D01*
X55394802Y-54895123D01*
X55354689Y-54916452D01*
X55314327Y-54937373D01*
X55312302Y-54938990D01*
X55310020Y-54940203D01*
X55274810Y-54968919D01*
X55239284Y-54997280D01*
X55235685Y-55000829D01*
X55235609Y-55000891D01*
X55235551Y-55000961D01*
X55234393Y-55002103D01*
X54492092Y-55744403D01*
X54463231Y-55779539D01*
X54434033Y-55814336D01*
X54432786Y-55816604D01*
X54431145Y-55818602D01*
X54409671Y-55858650D01*
X54387774Y-55898481D01*
X54386992Y-55900946D01*
X54385769Y-55903227D01*
X54372493Y-55946652D01*
X54358740Y-55990007D01*
X54358451Y-55992583D01*
X54357696Y-55995053D01*
X54353107Y-56040232D01*
X54348037Y-56085431D01*
X54348002Y-56090487D01*
X54347992Y-56090582D01*
X54348000Y-56090671D01*
X54347989Y-56092300D01*
X54347989Y-61684989D01*
X54352425Y-61730235D01*
X54356385Y-61775493D01*
X54357106Y-61777976D01*
X54357359Y-61780552D01*
X54370499Y-61824074D01*
X54383174Y-61867703D01*
X54384364Y-61869999D01*
X54385112Y-61872476D01*
X54406431Y-61912570D01*
X54427362Y-61952951D01*
X54428979Y-61954976D01*
X54430192Y-61957258D01*
X54458908Y-61992468D01*
X54487269Y-62027994D01*
X54490822Y-62031598D01*
X54490880Y-62031669D01*
X54490946Y-62031724D01*
X54492092Y-62032886D01*
X55710233Y-63251027D01*
X55674457Y-63334497D01*
X55648892Y-63454771D01*
X55647176Y-63577720D01*
X55669372Y-63698661D01*
X55714637Y-63812987D01*
X55781246Y-63916344D01*
X55866662Y-64004795D01*
X55967632Y-64074971D01*
X56080309Y-64124198D01*
X56200401Y-64150602D01*
X56323336Y-64153177D01*
X56444429Y-64131825D01*
X56559068Y-64087359D01*
X56662888Y-64021474D01*
X56674605Y-64010316D01*
X56767632Y-64074971D01*
X56880309Y-64124198D01*
X57000401Y-64150602D01*
X57123336Y-64153177D01*
X57244429Y-64131825D01*
X57359068Y-64087359D01*
X57462888Y-64021474D01*
X57551933Y-63936677D01*
X57622811Y-63836200D01*
X57672824Y-63723870D01*
X57700066Y-63603964D01*
X57702027Y-63463519D01*
X57678144Y-63342900D01*
X57631287Y-63229217D01*
X57567000Y-63132458D01*
X57567000Y-63120000D01*
X57562569Y-63074804D01*
X57558605Y-63029496D01*
X57557882Y-63027008D01*
X57557630Y-63024437D01*
X57544499Y-62980943D01*
X57531815Y-62937287D01*
X57530625Y-62934992D01*
X57529877Y-62932513D01*
X57508548Y-62892400D01*
X57487627Y-62852038D01*
X57486010Y-62850013D01*
X57484797Y-62847731D01*
X57456074Y-62812513D01*
X57427720Y-62776995D01*
X57424171Y-62773396D01*
X57424109Y-62773320D01*
X57424039Y-62773262D01*
X57422897Y-62772104D01*
X55592000Y-60941206D01*
X55592000Y-60127000D01*
X57772066Y-60127000D01*
X58998390Y-64719193D01*
X56507906Y-64673073D01*
X56344804Y-64702202D01*
X56202265Y-64793923D01*
X56106642Y-64933873D01*
X56073000Y-65100000D01*
X56073000Y-68550000D01*
X56089736Y-68668375D01*
X56168114Y-68818665D01*
X56298788Y-68926620D01*
X62159956Y-72058001D01*
X58899999Y-72058001D01*
X58854757Y-72062437D01*
X58809495Y-72066397D01*
X58807012Y-72067118D01*
X58804436Y-72067371D01*
X58760914Y-72080511D01*
X58717285Y-72093186D01*
X58714989Y-72094376D01*
X58712512Y-72095124D01*
X58672399Y-72116453D01*
X58632036Y-72137375D01*
X58630013Y-72138990D01*
X58627730Y-72140204D01*
X58592508Y-72168930D01*
X58556993Y-72197282D01*
X58553395Y-72200830D01*
X58553319Y-72200892D01*
X58553261Y-72200962D01*
X58552102Y-72202105D01*
X58478996Y-72275211D01*
X58372115Y-72295600D01*
X58258108Y-72341662D01*
X58155218Y-72408991D01*
X58069520Y-72492913D01*
X57999659Y-72445791D01*
X57886306Y-72398142D01*
X57765856Y-72373417D01*
X57642898Y-72372559D01*
X57522115Y-72395600D01*
X57408108Y-72441662D01*
X57305218Y-72508991D01*
X57217366Y-72595022D01*
X57213773Y-72600270D01*
X56293618Y-71680115D01*
X56348109Y-71602869D01*
X56398122Y-71490539D01*
X56425364Y-71370633D01*
X56427325Y-71230188D01*
X56403442Y-71109569D01*
X56356585Y-70995886D01*
X56288539Y-70893469D01*
X56201897Y-70806219D01*
X56099957Y-70737460D01*
X55986604Y-70689811D01*
X55870374Y-70665952D01*
X53156527Y-67952104D01*
X53121391Y-67923243D01*
X53086594Y-67894045D01*
X53084326Y-67892798D01*
X53082328Y-67891157D01*
X53042280Y-67869683D01*
X53002449Y-67847786D01*
X52999984Y-67847004D01*
X52997703Y-67845781D01*
X52954278Y-67832505D01*
X52910923Y-67818752D01*
X52908347Y-67818463D01*
X52905877Y-67817708D01*
X52860698Y-67813119D01*
X52815499Y-67808049D01*
X52810443Y-67808014D01*
X52810348Y-67808004D01*
X52810259Y-67808012D01*
X52808630Y-67808001D01*
X47602011Y-67808001D01*
X47602011Y-65292300D01*
X47597575Y-65247062D01*
X47593615Y-65201795D01*
X47592893Y-65199311D01*
X47592641Y-65196737D01*
X47579505Y-65153227D01*
X47566826Y-65109586D01*
X47565636Y-65107290D01*
X47564888Y-65104813D01*
X47543559Y-65064700D01*
X47522637Y-65024337D01*
X47521022Y-65022314D01*
X47519808Y-65020031D01*
X47491082Y-64984809D01*
X47462730Y-64949294D01*
X47459182Y-64945696D01*
X47459120Y-64945620D01*
X47459050Y-64945562D01*
X47457907Y-64944403D01*
X47192000Y-64678497D01*
X47192000Y-62408362D01*
X47270411Y-62425602D01*
X47393346Y-62428177D01*
X47514439Y-62406825D01*
X47629078Y-62362359D01*
X47732898Y-62296474D01*
X47737596Y-62292000D01*
X52596206Y-62292000D01*
X53225604Y-62921397D01*
X53244372Y-63023661D01*
X53289637Y-63137987D01*
X53356246Y-63241344D01*
X53441662Y-63329795D01*
X53542632Y-63399971D01*
X53655309Y-63449198D01*
X53775401Y-63475602D01*
X53898336Y-63478177D01*
X54019429Y-63456825D01*
X54134068Y-63412359D01*
X54237888Y-63346474D01*
X54326933Y-63261677D01*
X54397811Y-63161200D01*
X54447824Y-63048870D01*
X54475066Y-62928964D01*
X54477027Y-62788519D01*
X54453144Y-62667900D01*
X54406287Y-62554217D01*
X54338241Y-62451800D01*
X54251599Y-62364550D01*
X54149659Y-62295791D01*
X54036306Y-62248142D01*
X53920077Y-62224283D01*
X53720128Y-62024334D01*
X53819429Y-62006825D01*
X53934068Y-61962359D01*
X54037888Y-61896474D01*
X54126933Y-61811677D01*
X54197811Y-61711200D01*
X54247824Y-61598870D01*
X54275066Y-61478964D01*
X54277027Y-61338519D01*
X54253144Y-61217900D01*
X54206287Y-61104217D01*
X54202000Y-61097765D01*
X54202000Y-55878646D01*
X56126604Y-53954042D01*
X56234068Y-53912359D01*
X56337888Y-53846474D01*
X56426933Y-53761677D01*
X56497811Y-53661200D01*
X56547824Y-53548870D01*
X56575066Y-53428964D01*
X56577027Y-53288519D01*
X56553144Y-53167900D01*
X56506287Y-53054217D01*
X56438241Y-52951800D01*
X56351599Y-52864550D01*
X56249659Y-52795791D01*
X56136306Y-52748142D01*
X56015856Y-52723417D01*
X55892898Y-52722559D01*
X55772115Y-52745600D01*
X55658108Y-52791662D01*
X55555218Y-52858991D01*
X55467366Y-52945022D01*
X55397897Y-53046479D01*
X55349457Y-53159497D01*
X55346650Y-53172704D01*
X53259677Y-55259677D01*
X53227334Y-55299053D01*
X53194537Y-55338138D01*
X53193136Y-55340686D01*
X53191297Y-55342925D01*
X53167229Y-55387811D01*
X53142637Y-55432544D01*
X53141759Y-55435312D01*
X53140388Y-55437869D01*
X53125472Y-55486655D01*
X53110063Y-55535233D01*
X53109740Y-55538113D01*
X53108890Y-55540893D01*
X53103730Y-55591687D01*
X53098054Y-55642293D01*
X53098014Y-55647962D01*
X53098003Y-55648073D01*
X53098013Y-55648176D01*
X53098000Y-55650000D01*
X53098000Y-59852207D01*
X52447897Y-59202103D01*
X52412761Y-59173242D01*
X52377964Y-59144044D01*
X52375696Y-59142797D01*
X52373698Y-59141156D01*
X52333650Y-59119682D01*
X52293819Y-59097785D01*
X52291354Y-59097003D01*
X52289073Y-59095780D01*
X52245648Y-59082504D01*
X52202293Y-59068751D01*
X52199717Y-59068462D01*
X52197247Y-59067707D01*
X52152068Y-59063118D01*
X52106869Y-59058048D01*
X52101813Y-59058013D01*
X52101718Y-59058003D01*
X52101629Y-59058011D01*
X52100000Y-59058000D01*
X47900000Y-59058000D01*
X47854754Y-59062436D01*
X47809496Y-59066396D01*
X47807013Y-59067117D01*
X47804437Y-59067370D01*
X47760915Y-59080510D01*
X47717286Y-59093185D01*
X47714990Y-59094375D01*
X47712513Y-59095123D01*
X47672400Y-59116452D01*
X47632037Y-59137374D01*
X47630013Y-59138989D01*
X47627731Y-59140203D01*
X47592540Y-59168904D01*
X47556994Y-59197280D01*
X47553394Y-59200830D01*
X47553320Y-59200891D01*
X47553263Y-59200960D01*
X47552103Y-59202104D01*
X46720621Y-60033585D01*
X46636306Y-59998142D01*
X46515856Y-59973417D01*
X46392898Y-59972559D01*
X46272115Y-59995600D01*
X46158108Y-60041662D01*
X46092000Y-60084922D01*
X46092000Y-56790318D01*
X46147811Y-56711200D01*
X46197824Y-56598870D01*
X46225066Y-56478964D01*
X46227027Y-56338519D01*
X46203144Y-56217900D01*
X46156287Y-56104217D01*
X46088241Y-56001800D01*
X46001599Y-55914550D01*
X45899659Y-55845791D01*
X45786306Y-55798142D01*
X45665856Y-55773417D01*
X45542898Y-55772559D01*
X45422115Y-55795600D01*
X45308108Y-55841662D01*
X45205218Y-55908991D01*
X45117366Y-55995022D01*
X45047897Y-56096479D01*
X44999457Y-56209497D01*
X44973892Y-56329771D01*
X44972176Y-56452720D01*
X44994372Y-56573661D01*
X45039637Y-56687987D01*
X45106246Y-56791344D01*
X45108000Y-56793160D01*
X45108000Y-58470996D01*
X45101599Y-58464550D01*
X44999659Y-58395791D01*
X44886306Y-58348142D01*
X44765856Y-58323417D01*
X44642898Y-58322559D01*
X44522115Y-58345600D01*
X44408108Y-58391662D01*
X44305218Y-58458991D01*
X44217366Y-58545022D01*
X44147897Y-58646479D01*
X44099457Y-58759497D01*
X44073892Y-58879771D01*
X44072176Y-59002720D01*
X43477000Y-59002720D01*
X43477000Y-54023324D01*
X43679652Y-51956516D01*
X44215093Y-50183048D01*
X47820138Y-50183048D01*
X47897207Y-50602966D01*
X48054371Y-50999917D01*
X48285644Y-51358782D01*
X48582216Y-51665891D01*
X48932790Y-51909547D01*
X49324015Y-52080468D01*
X49740987Y-52172146D01*
X50167825Y-52181087D01*
X50588271Y-52106951D01*
X50986310Y-51952562D01*
X51346780Y-51723800D01*
X51655952Y-51429380D01*
X51902050Y-51080515D01*
X52075699Y-50690493D01*
X52170285Y-50274171D01*
X52171557Y-50183048D01*
X78820138Y-50183048D01*
X78897207Y-50602966D01*
X79054371Y-50999917D01*
X79285644Y-51358782D01*
X79582216Y-51665891D01*
X79932790Y-51909547D01*
X80324015Y-52080468D01*
X80740987Y-52172146D01*
X81167825Y-52181087D01*
X81588271Y-52106951D01*
X81986310Y-51952562D01*
X82346780Y-51723800D01*
X82655952Y-51429380D01*
X82902050Y-51080515D01*
X83075699Y-50690493D01*
X83170285Y-50274171D01*
X83177094Y-49786534D01*
X83094169Y-49367733D01*
X82931478Y-48973015D01*
X82695217Y-48617414D01*
X82394387Y-48314476D01*
X82040444Y-48075739D01*
X81646871Y-47910296D01*
X81228660Y-47824450D01*
X80801738Y-47821469D01*
X80382368Y-47901468D01*
X79986524Y-48061400D01*
X79629283Y-48295172D01*
X79324252Y-48593880D01*
X79083049Y-48946147D01*
X78914863Y-49338556D01*
X78826099Y-49756158D01*
X78820138Y-50183048D01*
X52171557Y-50183048D01*
X52177094Y-49786534D01*
X52094169Y-49367733D01*
X51931478Y-48973015D01*
X51695217Y-48617414D01*
X51394387Y-48314476D01*
X51040444Y-48075739D01*
X50646871Y-47910296D01*
X50228660Y-47824450D01*
X49801738Y-47821469D01*
X49382368Y-47901468D01*
X48986524Y-48061400D01*
X48629283Y-48295172D01*
X48324252Y-48593880D01*
X48083049Y-48946147D01*
X47914863Y-49338556D01*
X47826099Y-49756158D01*
X47820138Y-50183048D01*
X44215093Y-50183048D01*
X44273116Y-49990870D01*
X45237074Y-48177927D01*
X46534812Y-46586745D01*
X48116896Y-45277932D01*
X49923058Y-44301343D01*
X51884517Y-43694170D01*
X53949037Y-43477181D01*
X54000804Y-43477000D01*
X76976676Y-43477000D01*
X79043484Y-43679652D01*
X79043484Y-43679652D01*
G37*
X79043484Y-43679652D02*
X81009130Y-44273116D01*
X82822073Y-45237074D01*
X84413255Y-46534812D01*
X85722068Y-48116896D01*
X86698657Y-49923058D01*
X87305830Y-51884517D01*
X87522819Y-53949037D01*
X87523000Y-54000804D01*
X87523000Y-76976676D01*
X87320348Y-79043482D01*
X86726884Y-81009130D01*
X85762924Y-82822075D01*
X84465191Y-84413252D01*
X82883109Y-85722065D01*
X81076942Y-86698657D01*
X79115482Y-87305830D01*
X77050964Y-87522819D01*
X76999195Y-87523000D01*
X54023324Y-87523000D01*
X51956518Y-87320348D01*
X49990870Y-86726884D01*
X48177925Y-85762924D01*
X47303795Y-85050000D01*
X55320934Y-85050000D01*
X55320934Y-86750000D01*
X55326356Y-86817998D01*
X55362073Y-86933330D01*
X55428506Y-87034146D01*
X55520395Y-87112463D01*
X55630465Y-87162079D01*
X55750000Y-87179066D01*
X57450000Y-87179066D01*
X57517998Y-87173644D01*
X57633330Y-87137927D01*
X57734146Y-87071494D01*
X57812463Y-86979605D01*
X57862079Y-86869535D01*
X57879066Y-86750000D01*
X57879066Y-85050000D01*
X57873644Y-84982002D01*
X57837927Y-84866670D01*
X57771494Y-84765854D01*
X57679605Y-84687537D01*
X57569535Y-84637921D01*
X57450000Y-84620934D01*
X55750000Y-84620934D01*
X55682002Y-84626356D01*
X55566670Y-84662073D01*
X55465854Y-84728506D01*
X55387537Y-84820395D01*
X55337921Y-84930465D01*
X55320934Y-85050000D01*
X47303795Y-85050000D01*
X46586748Y-84465191D01*
X45277935Y-82883109D01*
X44358715Y-81183048D01*
X47820138Y-81183048D01*
X47897207Y-81602966D01*
X48054371Y-81999917D01*
X48285644Y-82358782D01*
X48582216Y-82665891D01*
X48932790Y-82909547D01*
X49324015Y-83080468D01*
X49740987Y-83172146D01*
X50167825Y-83181087D01*
X50588271Y-83106951D01*
X50986310Y-82952562D01*
X51346780Y-82723800D01*
X51655952Y-82429380D01*
X51902050Y-82080515D01*
X52075699Y-81690493D01*
X52170285Y-81274171D01*
X52177094Y-80786534D01*
X52094169Y-80367733D01*
X51931478Y-79973015D01*
X51695217Y-79617414D01*
X51394387Y-79314476D01*
X51040444Y-79075739D01*
X50646871Y-78910296D01*
X50228660Y-78824450D01*
X49801738Y-78821469D01*
X49382368Y-78901468D01*
X48986524Y-79061400D01*
X48629283Y-79295172D01*
X48324252Y-79593880D01*
X48083049Y-79946147D01*
X47914863Y-80338556D01*
X47826099Y-80756158D01*
X47820138Y-81183048D01*
X44358715Y-81183048D01*
X44301343Y-81076942D01*
X43694170Y-79115482D01*
X43477181Y-77050964D01*
X43477000Y-76999195D01*
X43477000Y-59002720D01*
X44072176Y-59002720D01*
X44094372Y-59123661D01*
X44139637Y-59237987D01*
X44206246Y-59341344D01*
X44208000Y-59343160D01*
X44208000Y-65845010D01*
X44212436Y-65890256D01*
X44216396Y-65935514D01*
X44217117Y-65937997D01*
X44217370Y-65940573D01*
X44230510Y-65984095D01*
X44243185Y-66027724D01*
X44244375Y-66030020D01*
X44245123Y-66032497D01*
X44266442Y-66072591D01*
X44287373Y-66112972D01*
X44288990Y-66114997D01*
X44290203Y-66117279D01*
X44318919Y-66152489D01*
X44347280Y-66188015D01*
X44350833Y-66191619D01*
X44350891Y-66191690D01*
X44350957Y-66191745D01*
X44352103Y-66192907D01*
X45563058Y-67403861D01*
X45555218Y-67408991D01*
X45467366Y-67495022D01*
X45397897Y-67596479D01*
X45349457Y-67709497D01*
X45323892Y-67829771D01*
X45322176Y-67952720D01*
X45344372Y-68073661D01*
X45389637Y-68187987D01*
X45456246Y-68291344D01*
X45535804Y-68373729D01*
X45523892Y-68429771D01*
X45522176Y-68552720D01*
X45544372Y-68673661D01*
X45589637Y-68787987D01*
X45656246Y-68891344D01*
X45741662Y-68979795D01*
X45842632Y-69049971D01*
X45955309Y-69099198D01*
X46075401Y-69125602D01*
X46181384Y-69127822D01*
X45574142Y-69735064D01*
X45486306Y-69698142D01*
X45365856Y-69673417D01*
X45242898Y-69672559D01*
X45122115Y-69695600D01*
X45008108Y-69741662D01*
X44905218Y-69808991D01*
X44817366Y-69895022D01*
X44747897Y-69996479D01*
X44699457Y-70109497D01*
X44673892Y-70229771D01*
X44672176Y-70352720D01*
X44694372Y-70473661D01*
X44739637Y-70587987D01*
X44806246Y-70691344D01*
X44814226Y-70699608D01*
X44747897Y-70796479D01*
X44699457Y-70909497D01*
X44673892Y-71029771D01*
X44672176Y-71152720D01*
X44694372Y-71273661D01*
X44739637Y-71387987D01*
X44806246Y-71491344D01*
X44891662Y-71579795D01*
X44992632Y-71649971D01*
X45105309Y-71699198D01*
X45225401Y-71725602D01*
X45348336Y-71728177D01*
X45469429Y-71706825D01*
X45584068Y-71662359D01*
X45687888Y-71596474D01*
X45776933Y-71511677D01*
X45847811Y-71411200D01*
X45878483Y-71342311D01*
X46052897Y-71167896D01*
X46081737Y-71132786D01*
X46110956Y-71097964D01*
X46112203Y-71095696D01*
X46113844Y-71093698D01*
X46135318Y-71053650D01*
X46157215Y-71013819D01*
X46157997Y-71011354D01*
X46159220Y-71009073D01*
X46169128Y-70976666D01*
X47603794Y-69542000D01*
X48673000Y-69542000D01*
X48673000Y-72050000D01*
X48702202Y-72205196D01*
X48793923Y-72347735D01*
X48933873Y-72443358D01*
X49100000Y-72477000D01*
X51926015Y-72477000D01*
X61220934Y-85930173D01*
X61220934Y-86750000D01*
X61226356Y-86817998D01*
X61262073Y-86933330D01*
X61328506Y-87034146D01*
X61420395Y-87112463D01*
X61530465Y-87162079D01*
X61650000Y-87179066D01*
X63350000Y-87179066D01*
X63417998Y-87173644D01*
X63533330Y-87137927D01*
X63634146Y-87071494D01*
X63712463Y-86979605D01*
X63750377Y-86895496D01*
X63752202Y-86905196D01*
X63843923Y-87047735D01*
X63983873Y-87143358D01*
X64065690Y-87159927D01*
X64070465Y-87162079D01*
X64090092Y-87164868D01*
X64150000Y-87177000D01*
X64175462Y-87177000D01*
X64190000Y-87179066D01*
X65890000Y-87179066D01*
X65957998Y-87173644D01*
X66020182Y-87154386D01*
X66055196Y-87147798D01*
X66067944Y-87139595D01*
X66073330Y-87137927D01*
X66174146Y-87071494D01*
X66174595Y-87070967D01*
X66197735Y-87056077D01*
X66239972Y-86994261D01*
X66252463Y-86979605D01*
X66257266Y-86968950D01*
X66293358Y-86916127D01*
X66299009Y-86888224D01*
X66302202Y-86905196D01*
X66393923Y-87047735D01*
X66533873Y-87143358D01*
X66597533Y-87156250D01*
X66610465Y-87162079D01*
X66663621Y-87169633D01*
X66700000Y-87177000D01*
X66715462Y-87177000D01*
X66730000Y-87179066D01*
X68430000Y-87179066D01*
X68497998Y-87173644D01*
X68544699Y-87159181D01*
X68605196Y-87147798D01*
X68747735Y-87056077D01*
X68843358Y-86916127D01*
X68877000Y-86750000D01*
X68877000Y-85893821D01*
X69383000Y-85893821D01*
X69383000Y-85906179D01*
X69407320Y-86154216D01*
X69479355Y-86392806D01*
X69596360Y-86612860D01*
X69753878Y-86805997D01*
X69945911Y-86964860D01*
X70165143Y-87083398D01*
X70403223Y-87157097D01*
X70651085Y-87183148D01*
X70899286Y-87160560D01*
X71138373Y-87090193D01*
X71359238Y-86974727D01*
X71553470Y-86818561D01*
X71713670Y-86627642D01*
X71833736Y-86409243D01*
X71909094Y-86171682D01*
X71920934Y-86066130D01*
X71920934Y-86750000D01*
X71926356Y-86817998D01*
X71962073Y-86933330D01*
X72028506Y-87034146D01*
X72120395Y-87112463D01*
X72230465Y-87162079D01*
X72350000Y-87179066D01*
X74050000Y-87179066D01*
X74117998Y-87173644D01*
X74233330Y-87137927D01*
X74334146Y-87071494D01*
X74412463Y-86979605D01*
X74462079Y-86869535D01*
X74479066Y-86750000D01*
X74479066Y-85050000D01*
X74473644Y-84982002D01*
X74437927Y-84866670D01*
X74371494Y-84765854D01*
X74279605Y-84687537D01*
X74169535Y-84637921D01*
X74050000Y-84620934D01*
X72350000Y-84620934D01*
X72282002Y-84626356D01*
X72166670Y-84662073D01*
X72065854Y-84728506D01*
X71987537Y-84820395D01*
X71937921Y-84930465D01*
X71920934Y-85050000D01*
X71920934Y-85729966D01*
X71912680Y-85645784D01*
X71840645Y-85407194D01*
X71723640Y-85187140D01*
X71566122Y-84994003D01*
X71374089Y-84835140D01*
X71154857Y-84716602D01*
X70916777Y-84642903D01*
X70668915Y-84616852D01*
X70420714Y-84639440D01*
X70181627Y-84709807D01*
X69960762Y-84825273D01*
X69766530Y-84981439D01*
X69606330Y-85172358D01*
X69486264Y-85390757D01*
X69410906Y-85628318D01*
X69383124Y-85875991D01*
X69383000Y-85893821D01*
X68877000Y-85893821D01*
X68877000Y-71350000D01*
X68863999Y-71245433D01*
X68790699Y-71092603D01*
X68663715Y-70980331D01*
X66521737Y-69742000D01*
X68346206Y-69742000D01*
X72358000Y-73753793D01*
X72358000Y-81458701D01*
X72297897Y-81546479D01*
X72249457Y-81659497D01*
X72223892Y-81779771D01*
X72222176Y-81902720D01*
X72244372Y-82023661D01*
X72289637Y-82137987D01*
X72356246Y-82241344D01*
X72441662Y-82329795D01*
X72542632Y-82399971D01*
X72655309Y-82449198D01*
X72722716Y-82464018D01*
X72722176Y-82502720D01*
X72744372Y-82623661D01*
X72789637Y-82737987D01*
X72856246Y-82841344D01*
X72941662Y-82929795D01*
X73042632Y-82999971D01*
X73155309Y-83049198D01*
X73275401Y-83075602D01*
X73398336Y-83078177D01*
X73519429Y-83056825D01*
X73634068Y-83012359D01*
X73737888Y-82946474D01*
X73826933Y-82861677D01*
X73897811Y-82761200D01*
X73947824Y-82648870D01*
X73975066Y-82528964D01*
X73977027Y-82388519D01*
X73953144Y-82267900D01*
X73906287Y-82154217D01*
X73849659Y-82068985D01*
X73849659Y-81183048D01*
X78820138Y-81183048D01*
X78897207Y-81602966D01*
X79054371Y-81999917D01*
X79285644Y-82358782D01*
X79582216Y-82665891D01*
X79932790Y-82909547D01*
X80324015Y-83080468D01*
X80740987Y-83172146D01*
X81167825Y-83181087D01*
X81588271Y-83106951D01*
X81986310Y-82952562D01*
X82346780Y-82723800D01*
X82655952Y-82429380D01*
X82902050Y-82080515D01*
X83075699Y-81690493D01*
X83170285Y-81274171D01*
X83177094Y-80786534D01*
X83094169Y-80367733D01*
X82931478Y-79973015D01*
X82695217Y-79617414D01*
X82394387Y-79314476D01*
X82040444Y-79075739D01*
X81646871Y-78910296D01*
X81228660Y-78824450D01*
X80801738Y-78821469D01*
X80382368Y-78901468D01*
X79986524Y-79061400D01*
X79629283Y-79295172D01*
X79324252Y-79593880D01*
X79083049Y-79946147D01*
X78914863Y-80338556D01*
X78826099Y-80756158D01*
X78820138Y-81183048D01*
X73849659Y-81183048D01*
X73849659Y-76458949D01*
X73925401Y-76475602D01*
X74048336Y-76478177D01*
X74169429Y-76456825D01*
X74284068Y-76412359D01*
X74387888Y-76346474D01*
X74476933Y-76261677D01*
X74547811Y-76161200D01*
X74597824Y-76048870D01*
X74625066Y-75928964D01*
X74627027Y-75788519D01*
X74603144Y-75667900D01*
X74556287Y-75554217D01*
X74492000Y-75457458D01*
X74492000Y-75056593D01*
X74555309Y-75084252D01*
X74675401Y-75110656D01*
X74798336Y-75113231D01*
X74919429Y-75091879D01*
X75034068Y-75047413D01*
X75137888Y-74981528D01*
X75226933Y-74896731D01*
X75297811Y-74796254D01*
X75347824Y-74683924D01*
X75375066Y-74564018D01*
X75377027Y-74423573D01*
X75353144Y-74302954D01*
X75306287Y-74189271D01*
X75242000Y-74092512D01*
X75242000Y-70448773D01*
X75521744Y-70169029D01*
X75619429Y-70151804D01*
X75734068Y-70107338D01*
X75837888Y-70041453D01*
X75926933Y-69956656D01*
X75997811Y-69856179D01*
X76021532Y-69802901D01*
X76021532Y-74057634D01*
X75961429Y-74145412D01*
X75912989Y-74258430D01*
X75887424Y-74378704D01*
X75885708Y-74501653D01*
X75907904Y-74622594D01*
X75953169Y-74736920D01*
X76019778Y-74840277D01*
X76105194Y-74928728D01*
X76206164Y-74998904D01*
X76318841Y-75048131D01*
X76438933Y-75074535D01*
X76561868Y-75077110D01*
X76682961Y-75055758D01*
X76797600Y-75011292D01*
X76901420Y-74945407D01*
X76990465Y-74860610D01*
X77061343Y-74760133D01*
X77111356Y-74647803D01*
X77138598Y-74527897D01*
X77140559Y-74387452D01*
X77116676Y-74266833D01*
X77086658Y-74194005D01*
X77086683Y-74194022D01*
X77199360Y-74243249D01*
X77319452Y-74269653D01*
X77442387Y-74272228D01*
X77563480Y-74250876D01*
X77678119Y-74206410D01*
X77781939Y-74140525D01*
X77870984Y-74055728D01*
X77941862Y-73955251D01*
X77991875Y-73842921D01*
X78019117Y-73723015D01*
X78021078Y-73582570D01*
X77997195Y-73461951D01*
X77950338Y-73348268D01*
X77886051Y-73251509D01*
X77886051Y-72878930D01*
X77889637Y-72887987D01*
X77956246Y-72991344D01*
X78041662Y-73079795D01*
X78142632Y-73149971D01*
X78255309Y-73199198D01*
X78375401Y-73225602D01*
X78498336Y-73228177D01*
X78619429Y-73206825D01*
X78734068Y-73162359D01*
X78837888Y-73096474D01*
X78926933Y-73011677D01*
X78997811Y-72911200D01*
X79047824Y-72798870D01*
X79075066Y-72678964D01*
X79077027Y-72538519D01*
X79072709Y-72516710D01*
X79094330Y-72523320D01*
X79137644Y-72537060D01*
X79140215Y-72537348D01*
X79142690Y-72538105D01*
X79187914Y-72542698D01*
X79233068Y-72547763D01*
X79238125Y-72547798D01*
X79238220Y-72547808D01*
X79238309Y-72547800D01*
X79239937Y-72547811D01*
X79906660Y-72547811D01*
X79951906Y-72543375D01*
X79997164Y-72539415D01*
X79999647Y-72538694D01*
X80002223Y-72538441D01*
X80045745Y-72525301D01*
X80089374Y-72512626D01*
X80091670Y-72511436D01*
X80094147Y-72510688D01*
X80134241Y-72489369D01*
X80174622Y-72468438D01*
X80176647Y-72466821D01*
X80178929Y-72465608D01*
X80214139Y-72436892D01*
X80249665Y-72408531D01*
X80253269Y-72404978D01*
X80253340Y-72404920D01*
X80253395Y-72404854D01*
X80254557Y-72403708D01*
X80397896Y-72260368D01*
X80426733Y-72225262D01*
X80455956Y-72190435D01*
X80457203Y-72188167D01*
X80458844Y-72186169D01*
X80480328Y-72146102D01*
X80502215Y-72106290D01*
X80502996Y-72103827D01*
X80504220Y-72101545D01*
X80517500Y-72058105D01*
X80531249Y-72014764D01*
X80531538Y-72012188D01*
X80532293Y-72009718D01*
X80536882Y-71964539D01*
X80541952Y-71919340D01*
X80541987Y-71914284D01*
X80541997Y-71914189D01*
X80541989Y-71914100D01*
X80542000Y-71912471D01*
X80542000Y-69188552D01*
X80594973Y-69188552D01*
X80617169Y-69309493D01*
X80662434Y-69423819D01*
X80729043Y-69527176D01*
X80814459Y-69615627D01*
X80915429Y-69685803D01*
X81028106Y-69735030D01*
X81148198Y-69761434D01*
X81271133Y-69764009D01*
X81392226Y-69742657D01*
X81506865Y-69698191D01*
X81610685Y-69632306D01*
X81615383Y-69627832D01*
X82164168Y-69627832D01*
X82209414Y-69623396D01*
X82254672Y-69619436D01*
X82257155Y-69618715D01*
X82259731Y-69618462D01*
X82303253Y-69605322D01*
X82346882Y-69592647D01*
X82349178Y-69591457D01*
X82351655Y-69590709D01*
X82391749Y-69569390D01*
X82432130Y-69548459D01*
X82434155Y-69546842D01*
X82436437Y-69545629D01*
X82471647Y-69516913D01*
X82507173Y-69488552D01*
X82510777Y-69484999D01*
X82510848Y-69484941D01*
X82510903Y-69484875D01*
X82512065Y-69483729D01*
X83471744Y-68524050D01*
X83569429Y-68506825D01*
X83684068Y-68462359D01*
X83739276Y-68427324D01*
X83741662Y-68429795D01*
X83842632Y-68499971D01*
X83955309Y-68549198D01*
X84075401Y-68575602D01*
X84198336Y-68578177D01*
X84319429Y-68556825D01*
X84434068Y-68512359D01*
X84537888Y-68446474D01*
X84626933Y-68361677D01*
X84697811Y-68261200D01*
X84747824Y-68148870D01*
X84775066Y-68028964D01*
X84775183Y-68020611D01*
X85718246Y-67077547D01*
X85748336Y-67078177D01*
X85869429Y-67056825D01*
X85984068Y-67012359D01*
X86087888Y-66946474D01*
X86176933Y-66861677D01*
X86247811Y-66761200D01*
X86297824Y-66648870D01*
X86325066Y-66528964D01*
X86327027Y-66388519D01*
X86303144Y-66267900D01*
X86256287Y-66154217D01*
X86188241Y-66051800D01*
X86119770Y-65982849D01*
X86130055Y-65937580D01*
X86132016Y-65797135D01*
X86108133Y-65676516D01*
X86068442Y-65580219D01*
X86142530Y-65533202D01*
X86231575Y-65448405D01*
X86302453Y-65347928D01*
X86352466Y-65235598D01*
X86379708Y-65115692D01*
X86381669Y-64975247D01*
X86357786Y-64854628D01*
X86310929Y-64740945D01*
X86242883Y-64638528D01*
X86156241Y-64551278D01*
X86054301Y-64482519D01*
X85940948Y-64434870D01*
X85820498Y-64410145D01*
X85697540Y-64409287D01*
X85576757Y-64432328D01*
X85462750Y-64478390D01*
X85359860Y-64545719D01*
X85340190Y-64564981D01*
X85332743Y-64567229D01*
X85289087Y-64579913D01*
X85286792Y-64581103D01*
X85284313Y-64581851D01*
X85244200Y-64603180D01*
X85203838Y-64624101D01*
X85201813Y-64625718D01*
X85199531Y-64626931D01*
X85164321Y-64655647D01*
X85128795Y-64684008D01*
X85125196Y-64687557D01*
X85125120Y-64687619D01*
X85125062Y-64687689D01*
X85123904Y-64688831D01*
X84804734Y-65008000D01*
X83950000Y-65008000D01*
X83904804Y-65012431D01*
X83859496Y-65016395D01*
X83857008Y-65017118D01*
X83854437Y-65017370D01*
X83810943Y-65030501D01*
X83767287Y-65043185D01*
X83764992Y-65044375D01*
X83762513Y-65045123D01*
X83722400Y-65066452D01*
X83682038Y-65087373D01*
X83680013Y-65088990D01*
X83677731Y-65090203D01*
X83642521Y-65118919D01*
X83606995Y-65147280D01*
X83603396Y-65150829D01*
X83603320Y-65150891D01*
X83603262Y-65150961D01*
X83602104Y-65152103D01*
X81281854Y-67472352D01*
X81252993Y-67507488D01*
X81223795Y-67542285D01*
X81222548Y-67544553D01*
X81220907Y-67546551D01*
X81199433Y-67586599D01*
X81177536Y-67626430D01*
X81176754Y-67628895D01*
X81175531Y-67631176D01*
X81162255Y-67674601D01*
X81148502Y-67717956D01*
X81148213Y-67720532D01*
X81147458Y-67723002D01*
X81142869Y-67768181D01*
X81137799Y-67813380D01*
X81137764Y-67818436D01*
X81137754Y-67818531D01*
X81137762Y-67818620D01*
X81137751Y-67820249D01*
X81137751Y-68337580D01*
X81077648Y-68425358D01*
X81029519Y-68537651D01*
X80930905Y-68577494D01*
X80828015Y-68644823D01*
X80740163Y-68730854D01*
X80670694Y-68832311D01*
X80622254Y-68945329D01*
X80596689Y-69065603D01*
X80594973Y-69188552D01*
X80542000Y-69188552D01*
X80542000Y-66353794D01*
X82921745Y-63974049D01*
X83019429Y-63956825D01*
X83134068Y-63912359D01*
X83237888Y-63846474D01*
X83326933Y-63761677D01*
X83363327Y-63710084D01*
X83506292Y-63853049D01*
X83541398Y-63881886D01*
X83576225Y-63911109D01*
X83578493Y-63912356D01*
X83580491Y-63913997D01*
X83620558Y-63935481D01*
X83660370Y-63957368D01*
X83662833Y-63958149D01*
X83665115Y-63959373D01*
X83708555Y-63972653D01*
X83751896Y-63986402D01*
X83754472Y-63986691D01*
X83756942Y-63987446D01*
X83773620Y-63989140D01*
X83868558Y-64055124D01*
X83981235Y-64104351D01*
X84101327Y-64130755D01*
X84224262Y-64133330D01*
X84345355Y-64111978D01*
X84459994Y-64067512D01*
X84563814Y-64001627D01*
X84652859Y-63916830D01*
X84723737Y-63816353D01*
X84773750Y-63704023D01*
X84800992Y-63584117D01*
X84802953Y-63443672D01*
X84779070Y-63323053D01*
X84754221Y-63262765D01*
X84793572Y-63174382D01*
X84820814Y-63054476D01*
X84822775Y-62914031D01*
X84798892Y-62793412D01*
X84752035Y-62679729D01*
X84683989Y-62577312D01*
X84597347Y-62490062D01*
X84495407Y-62421303D01*
X84382054Y-62373654D01*
X84265826Y-62349796D01*
X79798110Y-57882080D01*
X79762974Y-57853219D01*
X79728177Y-57824021D01*
X79725909Y-57822774D01*
X79723911Y-57821133D01*
X79683863Y-57799659D01*
X79644032Y-57777762D01*
X79641567Y-57776980D01*
X79639286Y-57775757D01*
X79595861Y-57762481D01*
X79552506Y-57748728D01*
X79549930Y-57748439D01*
X79547460Y-57747684D01*
X79502281Y-57743095D01*
X79457082Y-57738025D01*
X79452026Y-57737990D01*
X79451931Y-57737980D01*
X79451842Y-57737988D01*
X79450213Y-57737977D01*
X76778458Y-57737977D01*
X72794348Y-53753866D01*
X72840054Y-53763915D01*
X72962989Y-53766490D01*
X73084082Y-53745138D01*
X73198721Y-53700672D01*
X73302541Y-53634787D01*
X73391586Y-53549990D01*
X73462464Y-53449513D01*
X73512477Y-53337183D01*
X73539719Y-53217277D01*
X73541680Y-53076832D01*
X73517797Y-52956213D01*
X73470940Y-52842530D01*
X73402894Y-52740113D01*
X73316252Y-52652863D01*
X73214312Y-52584104D01*
X73100959Y-52536455D01*
X72984730Y-52512596D01*
X72829235Y-52357101D01*
X72794099Y-52328240D01*
X72759302Y-52299042D01*
X72757034Y-52297795D01*
X72755036Y-52296154D01*
X72714988Y-52274680D01*
X72675157Y-52252783D01*
X72672692Y-52252001D01*
X72670411Y-52250778D01*
X72626986Y-52237502D01*
X72583631Y-52223749D01*
X72581055Y-52223460D01*
X72578585Y-52222705D01*
X72533406Y-52218116D01*
X72488207Y-52213046D01*
X72483151Y-52213011D01*
X72483056Y-52213001D01*
X72482967Y-52213009D01*
X72481338Y-52212998D01*
X71255086Y-52212998D01*
X71209840Y-52217434D01*
X71164582Y-52221394D01*
X71162099Y-52222115D01*
X71159523Y-52222368D01*
X71116001Y-52235508D01*
X71072372Y-52248183D01*
X71070076Y-52249373D01*
X71067599Y-52250121D01*
X71027465Y-52271461D01*
X70987124Y-52292372D01*
X70985102Y-52293986D01*
X70982817Y-52295201D01*
X70947604Y-52323920D01*
X70912080Y-52352278D01*
X70908480Y-52355828D01*
X70908406Y-52355889D01*
X70908349Y-52355958D01*
X70907189Y-52357102D01*
X70656290Y-52608000D01*
X62991888Y-52608000D01*
X62899659Y-52545791D01*
X62786306Y-52498142D01*
X62665856Y-52473417D01*
X62542898Y-52472559D01*
X62422115Y-52495600D01*
X62308108Y-52541662D01*
X62205218Y-52608991D01*
X62117366Y-52695022D01*
X62047897Y-52796479D01*
X61999457Y-52909497D01*
X61973892Y-53029771D01*
X61972176Y-53152720D01*
X61994372Y-53273661D01*
X62039637Y-53387987D01*
X62106246Y-53491344D01*
X62191662Y-53579795D01*
X62292632Y-53649971D01*
X62405309Y-53699198D01*
X62525401Y-53725602D01*
X62648336Y-53728177D01*
X62769429Y-53706825D01*
X62884068Y-53662359D01*
X62987888Y-53596474D01*
X62992586Y-53592000D01*
X68430301Y-53592000D01*
X68444372Y-53668671D01*
X68489637Y-53782997D01*
X68556246Y-53886354D01*
X68641662Y-53974805D01*
X68742632Y-54044981D01*
X68855309Y-54094208D01*
X68975401Y-54120612D01*
X68979902Y-54120706D01*
X73117196Y-58257999D01*
X70877836Y-58257999D01*
X70876277Y-58254217D01*
X70808231Y-58151800D01*
X70721589Y-58064550D01*
X70619649Y-57995791D01*
X70506296Y-57948142D01*
X70385846Y-57923417D01*
X70262888Y-57922559D01*
X70142105Y-57945600D01*
X70028098Y-57991662D01*
X69925208Y-58058991D01*
X69837356Y-58145022D01*
X69767887Y-58246479D01*
X69719447Y-58359497D01*
X69693882Y-58479771D01*
X69692166Y-58602720D01*
X69714362Y-58723661D01*
X69759627Y-58837987D01*
X69826236Y-58941344D01*
X69911652Y-59029795D01*
X70012622Y-59099971D01*
X70125299Y-59149198D01*
X70245391Y-59175602D01*
X70278853Y-59176303D01*
X70286339Y-59180317D01*
X70326170Y-59202214D01*
X70328635Y-59202996D01*
X70330916Y-59204219D01*
X70374341Y-59217495D01*
X70417696Y-59231248D01*
X70420272Y-59231537D01*
X70422742Y-59232292D01*
X70467921Y-59236881D01*
X70513120Y-59241951D01*
X70518176Y-59241986D01*
X70518271Y-59241996D01*
X70518360Y-59241988D01*
X70519989Y-59241999D01*
X78527530Y-59241999D01*
X78899484Y-59613953D01*
X63109746Y-59613953D01*
X58497897Y-55002103D01*
X58462761Y-54973242D01*
X58427964Y-54944044D01*
X58425696Y-54942797D01*
X58423698Y-54941156D01*
X58383650Y-54919682D01*
X58343819Y-54897785D01*
X58341354Y-54897003D01*
X58339073Y-54895780D01*
X58295648Y-54882504D01*
X58252293Y-54868751D01*
X58249717Y-54868462D01*
X58247247Y-54867707D01*
X58202068Y-54863118D01*
X58156869Y-54858048D01*
X58151813Y-54858013D01*
X58151718Y-54858003D01*
X58151629Y-54858011D01*
X58150000Y-54858000D01*
X55582289Y-54858000D01*
X55537093Y-54862431D01*
X55491785Y-54866395D01*
X55489297Y-54867118D01*
X55486726Y-54867370D01*
X55443232Y-54880501D01*
X55399576Y-54893185D01*
X55397281Y-54894375D01*
X55394802Y-54895123D01*
X55354689Y-54916452D01*
X55314327Y-54937373D01*
X55312302Y-54938990D01*
X55310020Y-54940203D01*
X55274810Y-54968919D01*
X55239284Y-54997280D01*
X55235685Y-55000829D01*
X55235609Y-55000891D01*
X55235551Y-55000961D01*
X55234393Y-55002103D01*
X54492092Y-55744403D01*
X54463231Y-55779539D01*
X54434033Y-55814336D01*
X54432786Y-55816604D01*
X54431145Y-55818602D01*
X54409671Y-55858650D01*
X54387774Y-55898481D01*
X54386992Y-55900946D01*
X54385769Y-55903227D01*
X54372493Y-55946652D01*
X54358740Y-55990007D01*
X54358451Y-55992583D01*
X54357696Y-55995053D01*
X54353107Y-56040232D01*
X54348037Y-56085431D01*
X54348002Y-56090487D01*
X54347992Y-56090582D01*
X54348000Y-56090671D01*
X54347989Y-56092300D01*
X54347989Y-61684989D01*
X54352425Y-61730235D01*
X54356385Y-61775493D01*
X54357106Y-61777976D01*
X54357359Y-61780552D01*
X54370499Y-61824074D01*
X54383174Y-61867703D01*
X54384364Y-61869999D01*
X54385112Y-61872476D01*
X54406431Y-61912570D01*
X54427362Y-61952951D01*
X54428979Y-61954976D01*
X54430192Y-61957258D01*
X54458908Y-61992468D01*
X54487269Y-62027994D01*
X54490822Y-62031598D01*
X54490880Y-62031669D01*
X54490946Y-62031724D01*
X54492092Y-62032886D01*
X55710233Y-63251027D01*
X55674457Y-63334497D01*
X55648892Y-63454771D01*
X55647176Y-63577720D01*
X55669372Y-63698661D01*
X55714637Y-63812987D01*
X55781246Y-63916344D01*
X55866662Y-64004795D01*
X55967632Y-64074971D01*
X56080309Y-64124198D01*
X56200401Y-64150602D01*
X56323336Y-64153177D01*
X56444429Y-64131825D01*
X56559068Y-64087359D01*
X56662888Y-64021474D01*
X56674605Y-64010316D01*
X56767632Y-64074971D01*
X56880309Y-64124198D01*
X57000401Y-64150602D01*
X57123336Y-64153177D01*
X57244429Y-64131825D01*
X57359068Y-64087359D01*
X57462888Y-64021474D01*
X57551933Y-63936677D01*
X57622811Y-63836200D01*
X57672824Y-63723870D01*
X57700066Y-63603964D01*
X57702027Y-63463519D01*
X57678144Y-63342900D01*
X57631287Y-63229217D01*
X57567000Y-63132458D01*
X57567000Y-63120000D01*
X57562569Y-63074804D01*
X57558605Y-63029496D01*
X57557882Y-63027008D01*
X57557630Y-63024437D01*
X57544499Y-62980943D01*
X57531815Y-62937287D01*
X57530625Y-62934992D01*
X57529877Y-62932513D01*
X57508548Y-62892400D01*
X57487627Y-62852038D01*
X57486010Y-62850013D01*
X57484797Y-62847731D01*
X57456074Y-62812513D01*
X57427720Y-62776995D01*
X57424171Y-62773396D01*
X57424109Y-62773320D01*
X57424039Y-62773262D01*
X57422897Y-62772104D01*
X55592000Y-60941206D01*
X55592000Y-60127000D01*
X57772066Y-60127000D01*
X58998390Y-64719193D01*
X56507906Y-64673073D01*
X56344804Y-64702202D01*
X56202265Y-64793923D01*
X56106642Y-64933873D01*
X56073000Y-65100000D01*
X56073000Y-68550000D01*
X56089736Y-68668375D01*
X56168114Y-68818665D01*
X56298788Y-68926620D01*
X62159956Y-72058001D01*
X58899999Y-72058001D01*
X58854757Y-72062437D01*
X58809495Y-72066397D01*
X58807012Y-72067118D01*
X58804436Y-72067371D01*
X58760914Y-72080511D01*
X58717285Y-72093186D01*
X58714989Y-72094376D01*
X58712512Y-72095124D01*
X58672399Y-72116453D01*
X58632036Y-72137375D01*
X58630013Y-72138990D01*
X58627730Y-72140204D01*
X58592508Y-72168930D01*
X58556993Y-72197282D01*
X58553395Y-72200830D01*
X58553319Y-72200892D01*
X58553261Y-72200962D01*
X58552102Y-72202105D01*
X58478996Y-72275211D01*
X58372115Y-72295600D01*
X58258108Y-72341662D01*
X58155218Y-72408991D01*
X58069520Y-72492913D01*
X57999659Y-72445791D01*
X57886306Y-72398142D01*
X57765856Y-72373417D01*
X57642898Y-72372559D01*
X57522115Y-72395600D01*
X57408108Y-72441662D01*
X57305218Y-72508991D01*
X57217366Y-72595022D01*
X57213773Y-72600270D01*
X56293618Y-71680115D01*
X56348109Y-71602869D01*
X56398122Y-71490539D01*
X56425364Y-71370633D01*
X56427325Y-71230188D01*
X56403442Y-71109569D01*
X56356585Y-70995886D01*
X56288539Y-70893469D01*
X56201897Y-70806219D01*
X56099957Y-70737460D01*
X55986604Y-70689811D01*
X55870374Y-70665952D01*
X53156527Y-67952104D01*
X53121391Y-67923243D01*
X53086594Y-67894045D01*
X53084326Y-67892798D01*
X53082328Y-67891157D01*
X53042280Y-67869683D01*
X53002449Y-67847786D01*
X52999984Y-67847004D01*
X52997703Y-67845781D01*
X52954278Y-67832505D01*
X52910923Y-67818752D01*
X52908347Y-67818463D01*
X52905877Y-67817708D01*
X52860698Y-67813119D01*
X52815499Y-67808049D01*
X52810443Y-67808014D01*
X52810348Y-67808004D01*
X52810259Y-67808012D01*
X52808630Y-67808001D01*
X47602011Y-67808001D01*
X47602011Y-65292300D01*
X47597575Y-65247062D01*
X47593615Y-65201795D01*
X47592893Y-65199311D01*
X47592641Y-65196737D01*
X47579505Y-65153227D01*
X47566826Y-65109586D01*
X47565636Y-65107290D01*
X47564888Y-65104813D01*
X47543559Y-65064700D01*
X47522637Y-65024337D01*
X47521022Y-65022314D01*
X47519808Y-65020031D01*
X47491082Y-64984809D01*
X47462730Y-64949294D01*
X47459182Y-64945696D01*
X47459120Y-64945620D01*
X47459050Y-64945562D01*
X47457907Y-64944403D01*
X47192000Y-64678497D01*
X47192000Y-62408362D01*
X47270411Y-62425602D01*
X47393346Y-62428177D01*
X47514439Y-62406825D01*
X47629078Y-62362359D01*
X47732898Y-62296474D01*
X47737596Y-62292000D01*
X52596206Y-62292000D01*
X53225604Y-62921397D01*
X53244372Y-63023661D01*
X53289637Y-63137987D01*
X53356246Y-63241344D01*
X53441662Y-63329795D01*
X53542632Y-63399971D01*
X53655309Y-63449198D01*
X53775401Y-63475602D01*
X53898336Y-63478177D01*
X54019429Y-63456825D01*
X54134068Y-63412359D01*
X54237888Y-63346474D01*
X54326933Y-63261677D01*
X54397811Y-63161200D01*
X54447824Y-63048870D01*
X54475066Y-62928964D01*
X54477027Y-62788519D01*
X54453144Y-62667900D01*
X54406287Y-62554217D01*
X54338241Y-62451800D01*
X54251599Y-62364550D01*
X54149659Y-62295791D01*
X54036306Y-62248142D01*
X53920077Y-62224283D01*
X53720128Y-62024334D01*
X53819429Y-62006825D01*
X53934068Y-61962359D01*
X54037888Y-61896474D01*
X54126933Y-61811677D01*
X54197811Y-61711200D01*
X54247824Y-61598870D01*
X54275066Y-61478964D01*
X54277027Y-61338519D01*
X54253144Y-61217900D01*
X54206287Y-61104217D01*
X54202000Y-61097765D01*
X54202000Y-55878646D01*
X56126604Y-53954042D01*
X56234068Y-53912359D01*
X56337888Y-53846474D01*
X56426933Y-53761677D01*
X56497811Y-53661200D01*
X56547824Y-53548870D01*
X56575066Y-53428964D01*
X56577027Y-53288519D01*
X56553144Y-53167900D01*
X56506287Y-53054217D01*
X56438241Y-52951800D01*
X56351599Y-52864550D01*
X56249659Y-52795791D01*
X56136306Y-52748142D01*
X56015856Y-52723417D01*
X55892898Y-52722559D01*
X55772115Y-52745600D01*
X55658108Y-52791662D01*
X55555218Y-52858991D01*
X55467366Y-52945022D01*
X55397897Y-53046479D01*
X55349457Y-53159497D01*
X55346650Y-53172704D01*
X53259677Y-55259677D01*
X53227334Y-55299053D01*
X53194537Y-55338138D01*
X53193136Y-55340686D01*
X53191297Y-55342925D01*
X53167229Y-55387811D01*
X53142637Y-55432544D01*
X53141759Y-55435312D01*
X53140388Y-55437869D01*
X53125472Y-55486655D01*
X53110063Y-55535233D01*
X53109740Y-55538113D01*
X53108890Y-55540893D01*
X53103730Y-55591687D01*
X53098054Y-55642293D01*
X53098014Y-55647962D01*
X53098003Y-55648073D01*
X53098013Y-55648176D01*
X53098000Y-55650000D01*
X53098000Y-59852207D01*
X52447897Y-59202103D01*
X52412761Y-59173242D01*
X52377964Y-59144044D01*
X52375696Y-59142797D01*
X52373698Y-59141156D01*
X52333650Y-59119682D01*
X52293819Y-59097785D01*
X52291354Y-59097003D01*
X52289073Y-59095780D01*
X52245648Y-59082504D01*
X52202293Y-59068751D01*
X52199717Y-59068462D01*
X52197247Y-59067707D01*
X52152068Y-59063118D01*
X52106869Y-59058048D01*
X52101813Y-59058013D01*
X52101718Y-59058003D01*
X52101629Y-59058011D01*
X52100000Y-59058000D01*
X47900000Y-59058000D01*
X47854754Y-59062436D01*
X47809496Y-59066396D01*
X47807013Y-59067117D01*
X47804437Y-59067370D01*
X47760915Y-59080510D01*
X47717286Y-59093185D01*
X47714990Y-59094375D01*
X47712513Y-59095123D01*
X47672400Y-59116452D01*
X47632037Y-59137374D01*
X47630013Y-59138989D01*
X47627731Y-59140203D01*
X47592540Y-59168904D01*
X47556994Y-59197280D01*
X47553394Y-59200830D01*
X47553320Y-59200891D01*
X47553263Y-59200960D01*
X47552103Y-59202104D01*
X46720621Y-60033585D01*
X46636306Y-59998142D01*
X46515856Y-59973417D01*
X46392898Y-59972559D01*
X46272115Y-59995600D01*
X46158108Y-60041662D01*
X46092000Y-60084922D01*
X46092000Y-56790318D01*
X46147811Y-56711200D01*
X46197824Y-56598870D01*
X46225066Y-56478964D01*
X46227027Y-56338519D01*
X46203144Y-56217900D01*
X46156287Y-56104217D01*
X46088241Y-56001800D01*
X46001599Y-55914550D01*
X45899659Y-55845791D01*
X45786306Y-55798142D01*
X45665856Y-55773417D01*
X45542898Y-55772559D01*
X45422115Y-55795600D01*
X45308108Y-55841662D01*
X45205218Y-55908991D01*
X45117366Y-55995022D01*
X45047897Y-56096479D01*
X44999457Y-56209497D01*
X44973892Y-56329771D01*
X44972176Y-56452720D01*
X44994372Y-56573661D01*
X45039637Y-56687987D01*
X45106246Y-56791344D01*
X45108000Y-56793160D01*
X45108000Y-58470996D01*
X45101599Y-58464550D01*
X44999659Y-58395791D01*
X44886306Y-58348142D01*
X44765856Y-58323417D01*
X44642898Y-58322559D01*
X44522115Y-58345600D01*
X44408108Y-58391662D01*
X44305218Y-58458991D01*
X44217366Y-58545022D01*
X44147897Y-58646479D01*
X44099457Y-58759497D01*
X44073892Y-58879771D01*
X44072176Y-59002720D01*
X43477000Y-59002720D01*
X43477000Y-54023324D01*
X43679652Y-51956516D01*
X44215093Y-50183048D01*
X47820138Y-50183048D01*
X47897207Y-50602966D01*
X48054371Y-50999917D01*
X48285644Y-51358782D01*
X48582216Y-51665891D01*
X48932790Y-51909547D01*
X49324015Y-52080468D01*
X49740987Y-52172146D01*
X50167825Y-52181087D01*
X50588271Y-52106951D01*
X50986310Y-51952562D01*
X51346780Y-51723800D01*
X51655952Y-51429380D01*
X51902050Y-51080515D01*
X52075699Y-50690493D01*
X52170285Y-50274171D01*
X52171557Y-50183048D01*
X78820138Y-50183048D01*
X78897207Y-50602966D01*
X79054371Y-50999917D01*
X79285644Y-51358782D01*
X79582216Y-51665891D01*
X79932790Y-51909547D01*
X80324015Y-52080468D01*
X80740987Y-52172146D01*
X81167825Y-52181087D01*
X81588271Y-52106951D01*
X81986310Y-51952562D01*
X82346780Y-51723800D01*
X82655952Y-51429380D01*
X82902050Y-51080515D01*
X83075699Y-50690493D01*
X83170285Y-50274171D01*
X83177094Y-49786534D01*
X83094169Y-49367733D01*
X82931478Y-48973015D01*
X82695217Y-48617414D01*
X82394387Y-48314476D01*
X82040444Y-48075739D01*
X81646871Y-47910296D01*
X81228660Y-47824450D01*
X80801738Y-47821469D01*
X80382368Y-47901468D01*
X79986524Y-48061400D01*
X79629283Y-48295172D01*
X79324252Y-48593880D01*
X79083049Y-48946147D01*
X78914863Y-49338556D01*
X78826099Y-49756158D01*
X78820138Y-50183048D01*
X52171557Y-50183048D01*
X52177094Y-49786534D01*
X52094169Y-49367733D01*
X51931478Y-48973015D01*
X51695217Y-48617414D01*
X51394387Y-48314476D01*
X51040444Y-48075739D01*
X50646871Y-47910296D01*
X50228660Y-47824450D01*
X49801738Y-47821469D01*
X49382368Y-47901468D01*
X48986524Y-48061400D01*
X48629283Y-48295172D01*
X48324252Y-48593880D01*
X48083049Y-48946147D01*
X47914863Y-49338556D01*
X47826099Y-49756158D01*
X47820138Y-50183048D01*
X44215093Y-50183048D01*
X44273116Y-49990870D01*
X45237074Y-48177927D01*
X46534812Y-46586745D01*
X48116896Y-45277932D01*
X49923058Y-44301343D01*
X51884517Y-43694170D01*
X53949037Y-43477181D01*
X54000804Y-43477000D01*
X76976676Y-43477000D01*
X79043484Y-43679652D01*
G36*
X62499961Y-61095754D02*
X62535071Y-61124594D01*
X62569893Y-61153813D01*
X62572161Y-61155060D01*
X62574159Y-61156701D01*
X62614207Y-61178175D01*
X62654038Y-61200072D01*
X62656503Y-61200854D01*
X62658784Y-61202077D01*
X62702250Y-61215366D01*
X62745564Y-61229106D01*
X62748135Y-61229394D01*
X62750610Y-61230151D01*
X62795834Y-61234744D01*
X62840988Y-61239809D01*
X62846045Y-61239844D01*
X62846140Y-61239854D01*
X62846229Y-61239846D01*
X62847857Y-61239857D01*
X77979745Y-61239857D01*
X76165635Y-63053967D01*
X76136774Y-63089103D01*
X76107576Y-63123900D01*
X76106329Y-63126168D01*
X76104688Y-63128166D01*
X76083214Y-63168214D01*
X76061317Y-63208045D01*
X76060535Y-63210510D01*
X76059312Y-63212791D01*
X76046036Y-63256216D01*
X76032283Y-63299571D01*
X76031994Y-63302147D01*
X76031239Y-63304617D01*
X76026650Y-63349796D01*
X76021580Y-63394995D01*
X76021545Y-63400051D01*
X76021535Y-63400146D01*
X76021543Y-63400235D01*
X76021532Y-63401864D01*
X76021532Y-67394270D01*
X75949659Y-67345791D01*
X75836306Y-67298142D01*
X75715856Y-67273417D01*
X75592898Y-67272559D01*
X75472115Y-67295600D01*
X75358108Y-67341662D01*
X75255218Y-67408991D01*
X75167366Y-67495022D01*
X75097897Y-67596479D01*
X75049457Y-67709497D01*
X75023892Y-67829771D01*
X75023884Y-67830323D01*
X73652103Y-69202103D01*
X73623242Y-69237239D01*
X73594044Y-69272036D01*
X73592797Y-69274304D01*
X73591156Y-69276302D01*
X73569682Y-69316350D01*
X73547785Y-69356181D01*
X73547003Y-69358646D01*
X73545780Y-69360927D01*
X73532504Y-69404352D01*
X73518751Y-69447707D01*
X73518462Y-69450283D01*
X73517707Y-69452753D01*
X73513118Y-69497932D01*
X73508048Y-69543131D01*
X73508013Y-69548187D01*
X73508003Y-69548282D01*
X73508011Y-69548371D01*
X73508000Y-69550000D01*
X73508000Y-72712207D01*
X72125228Y-71329434D01*
X72103144Y-71217900D01*
X72056287Y-71104217D01*
X71988241Y-71001800D01*
X71901599Y-70914550D01*
X71799659Y-70845791D01*
X71686306Y-70798142D01*
X71565856Y-70773417D01*
X71442898Y-70772559D01*
X71322115Y-70795600D01*
X71208108Y-70841662D01*
X71105218Y-70908991D01*
X71017366Y-70995022D01*
X71006575Y-71010782D01*
X68897897Y-68902103D01*
X68862761Y-68873242D01*
X68827964Y-68844044D01*
X68825696Y-68842797D01*
X68823698Y-68841156D01*
X68783650Y-68819682D01*
X68743819Y-68797785D01*
X68741354Y-68797003D01*
X68739073Y-68795780D01*
X68695648Y-68782504D01*
X68652293Y-68768751D01*
X68649717Y-68768462D01*
X68647247Y-68767707D01*
X68602068Y-68763118D01*
X68556869Y-68758048D01*
X68551813Y-68758013D01*
X68551718Y-68758003D01*
X68551629Y-68758011D01*
X68550000Y-68758000D01*
X67168452Y-68758000D01*
X67556152Y-68548371D01*
X68109092Y-68090940D01*
X68562651Y-67534821D01*
X68899556Y-66901196D01*
X69106972Y-66214200D01*
X69177000Y-65500000D01*
X69175566Y-65397332D01*
X69085624Y-64685366D01*
X68859107Y-64004429D01*
X68504642Y-63380458D01*
X68035731Y-62837220D01*
X67470235Y-62395406D01*
X66829694Y-62071845D01*
X66138504Y-61878862D01*
X65422995Y-61823806D01*
X64710418Y-61908776D01*
X64027917Y-62130534D01*
X63401486Y-62480634D01*
X62854988Y-62945741D01*
X62409237Y-63508139D01*
X62081212Y-64146406D01*
X61883408Y-64836231D01*
X61852173Y-65208194D01*
X60164149Y-58759942D01*
X62499961Y-61095754D01*
X62499961Y-61095754D01*
G37*
X62499961Y-61095754D02*
X62535071Y-61124594D01*
X62569893Y-61153813D01*
X62572161Y-61155060D01*
X62574159Y-61156701D01*
X62614207Y-61178175D01*
X62654038Y-61200072D01*
X62656503Y-61200854D01*
X62658784Y-61202077D01*
X62702250Y-61215366D01*
X62745564Y-61229106D01*
X62748135Y-61229394D01*
X62750610Y-61230151D01*
X62795834Y-61234744D01*
X62840988Y-61239809D01*
X62846045Y-61239844D01*
X62846140Y-61239854D01*
X62846229Y-61239846D01*
X62847857Y-61239857D01*
X77979745Y-61239857D01*
X76165635Y-63053967D01*
X76136774Y-63089103D01*
X76107576Y-63123900D01*
X76106329Y-63126168D01*
X76104688Y-63128166D01*
X76083214Y-63168214D01*
X76061317Y-63208045D01*
X76060535Y-63210510D01*
X76059312Y-63212791D01*
X76046036Y-63256216D01*
X76032283Y-63299571D01*
X76031994Y-63302147D01*
X76031239Y-63304617D01*
X76026650Y-63349796D01*
X76021580Y-63394995D01*
X76021545Y-63400051D01*
X76021535Y-63400146D01*
X76021543Y-63400235D01*
X76021532Y-63401864D01*
X76021532Y-67394270D01*
X75949659Y-67345791D01*
X75836306Y-67298142D01*
X75715856Y-67273417D01*
X75592898Y-67272559D01*
X75472115Y-67295600D01*
X75358108Y-67341662D01*
X75255218Y-67408991D01*
X75167366Y-67495022D01*
X75097897Y-67596479D01*
X75049457Y-67709497D01*
X75023892Y-67829771D01*
X75023884Y-67830323D01*
X73652103Y-69202103D01*
X73623242Y-69237239D01*
X73594044Y-69272036D01*
X73592797Y-69274304D01*
X73591156Y-69276302D01*
X73569682Y-69316350D01*
X73547785Y-69356181D01*
X73547003Y-69358646D01*
X73545780Y-69360927D01*
X73532504Y-69404352D01*
X73518751Y-69447707D01*
X73518462Y-69450283D01*
X73517707Y-69452753D01*
X73513118Y-69497932D01*
X73508048Y-69543131D01*
X73508013Y-69548187D01*
X73508003Y-69548282D01*
X73508011Y-69548371D01*
X73508000Y-69550000D01*
X73508000Y-72712207D01*
X72125228Y-71329434D01*
X72103144Y-71217900D01*
X72056287Y-71104217D01*
X71988241Y-71001800D01*
X71901599Y-70914550D01*
X71799659Y-70845791D01*
X71686306Y-70798142D01*
X71565856Y-70773417D01*
X71442898Y-70772559D01*
X71322115Y-70795600D01*
X71208108Y-70841662D01*
X71105218Y-70908991D01*
X71017366Y-70995022D01*
X71006575Y-71010782D01*
X68897897Y-68902103D01*
X68862761Y-68873242D01*
X68827964Y-68844044D01*
X68825696Y-68842797D01*
X68823698Y-68841156D01*
X68783650Y-68819682D01*
X68743819Y-68797785D01*
X68741354Y-68797003D01*
X68739073Y-68795780D01*
X68695648Y-68782504D01*
X68652293Y-68768751D01*
X68649717Y-68768462D01*
X68647247Y-68767707D01*
X68602068Y-68763118D01*
X68556869Y-68758048D01*
X68551813Y-68758013D01*
X68551718Y-68758003D01*
X68551629Y-68758011D01*
X68550000Y-68758000D01*
X67168452Y-68758000D01*
X67556152Y-68548371D01*
X68109092Y-68090940D01*
X68562651Y-67534821D01*
X68899556Y-66901196D01*
X69106972Y-66214200D01*
X69177000Y-65500000D01*
X69175566Y-65397332D01*
X69085624Y-64685366D01*
X68859107Y-64004429D01*
X68504642Y-63380458D01*
X68035731Y-62837220D01*
X67470235Y-62395406D01*
X66829694Y-62071845D01*
X66138504Y-61878862D01*
X65422995Y-61823806D01*
X64710418Y-61908776D01*
X64027917Y-62130534D01*
X63401486Y-62480634D01*
X62854988Y-62945741D01*
X62409237Y-63508139D01*
X62081212Y-64146406D01*
X61883408Y-64836231D01*
X61852173Y-65208194D01*
X60164149Y-58759942D01*
X62499961Y-61095754D01*
G36*
X52461534Y-69465906D02*
X63223000Y-84740245D01*
X63223000Y-86573000D01*
X61777000Y-86573000D01*
X61777000Y-85800000D01*
X61771972Y-85764619D01*
X61754487Y-85727809D01*
X52254487Y-71977809D01*
X52230238Y-71951558D01*
X52199636Y-71933102D01*
X52150000Y-71923000D01*
X49227000Y-71923000D01*
X49227000Y-69442000D01*
X52437628Y-69442000D01*
X52461534Y-69465906D01*
X52461534Y-69465906D01*
G37*
X52461534Y-69465906D02*
X63223000Y-84740245D01*
X63223000Y-86573000D01*
X61777000Y-86573000D01*
X61777000Y-85800000D01*
X61771972Y-85764619D01*
X61754487Y-85727809D01*
X52254487Y-71977809D01*
X52230238Y-71951558D01*
X52199636Y-71933102D01*
X52150000Y-71923000D01*
X49227000Y-71923000D01*
X49227000Y-69442000D01*
X52437628Y-69442000D01*
X52461534Y-69465906D01*
G36*
X59073000Y-65274670D02*
X59073000Y-68500000D01*
X59078028Y-68535381D01*
X59092714Y-68567961D01*
X59115895Y-68595160D01*
X59139244Y-68611525D01*
X65773000Y-72225437D01*
X65773000Y-86623000D01*
X64277000Y-86623000D01*
X64277000Y-72637080D01*
X64271972Y-72601699D01*
X64257286Y-72569119D01*
X64234105Y-72541920D01*
X64209845Y-72525064D01*
X56627000Y-68473862D01*
X56627000Y-65229373D01*
X59073000Y-65274670D01*
X59073000Y-65274670D01*
G37*
X59073000Y-65274670D02*
X59073000Y-68500000D01*
X59078028Y-68535381D01*
X59092714Y-68567961D01*
X59115895Y-68595160D01*
X59139244Y-68611525D01*
X65773000Y-72225437D01*
X65773000Y-86623000D01*
X64277000Y-86623000D01*
X64277000Y-72637080D01*
X64271972Y-72601699D01*
X64257286Y-72569119D01*
X64234105Y-72541920D01*
X64209845Y-72525064D01*
X56627000Y-68473862D01*
X56627000Y-65229373D01*
X59073000Y-65274670D01*
G36*
X59434821Y-58161502D02*
X61927140Y-67682162D01*
X61940964Y-67715117D01*
X61963422Y-67742916D01*
X61986436Y-67759948D01*
X65137793Y-69581826D01*
X65206788Y-69653273D01*
X65291654Y-69712256D01*
X65386360Y-69753632D01*
X65464803Y-69770879D01*
X68323000Y-71423274D01*
X68323000Y-86623000D01*
X66827000Y-86623000D01*
X66827000Y-72150000D01*
X66821972Y-72114619D01*
X66807286Y-72082039D01*
X66784105Y-72054840D01*
X66764046Y-72040332D01*
X60559207Y-68416706D01*
X58222700Y-59667233D01*
X58208714Y-59634347D01*
X58186119Y-59606660D01*
X58156706Y-59586363D01*
X58122802Y-59575064D01*
X58100000Y-59573000D01*
X55492000Y-59573000D01*
X55492000Y-56477000D01*
X57942833Y-56477000D01*
X59434821Y-58161502D01*
X59434821Y-58161502D01*
G37*
X59434821Y-58161502D02*
X61927140Y-67682162D01*
X61940964Y-67715117D01*
X61963422Y-67742916D01*
X61986436Y-67759948D01*
X65137793Y-69581826D01*
X65206788Y-69653273D01*
X65291654Y-69712256D01*
X65386360Y-69753632D01*
X65464803Y-69770879D01*
X68323000Y-71423274D01*
X68323000Y-86623000D01*
X66827000Y-86623000D01*
X66827000Y-72150000D01*
X66821972Y-72114619D01*
X66807286Y-72082039D01*
X66784105Y-72054840D01*
X66764046Y-72040332D01*
X60559207Y-68416706D01*
X58222700Y-59667233D01*
X58208714Y-59634347D01*
X58186119Y-59606660D01*
X58156706Y-59586363D01*
X58122802Y-59575064D01*
X58100000Y-59573000D01*
X55492000Y-59573000D01*
X55492000Y-56477000D01*
X57942833Y-56477000D01*
X59434821Y-58161502D01*
M02*
