M48
INCH,TZ
T1C0.010
T2C0.039
%
G90
G05
T1
X21102Y-22650
X21975Y-20159
X22170Y-21094
X22362Y-20512
X22518Y-21444
X22555Y-20762
X22740Y-22594
X22776Y-19075
X22872Y-20901
X23188Y-22600
X23406Y-19862
X23445Y-20512
X23465Y-21299
X23484Y-21634
X23547Y-23081
X23720Y-21654
X24528Y-17598
X24528Y-17953
X24528Y-18307
X24528Y-18661
X25020Y-17598
X25020Y-17953
X25020Y-18307
X25020Y-18661
X25157Y-19606
X25807Y-29646
X25827Y-19882
X26043Y-29390
X26181Y-20906
X26181Y-21417
X26482Y-30437
X26552Y-30241
X26643Y-28998
X26655Y-28790
X26732Y-27638
X26752Y-20276
X26969Y-29154
X27205Y-29803
X27303Y-21673
X27351Y-26814
X27402Y-28957
X27558Y-26789
X27579Y-21614
X27717Y-20413
X27743Y-30246
X27835Y-22520
X27854Y-23386
X27874Y-26791
X27894Y-29508
X27972Y-27421
X28031Y-31969
X28041Y-26624
X28209Y-22953
X28268Y-27382
X28268Y-27756
X28346Y-23642
X28504Y-22953
X28557Y-25006
X28563Y-24272
X28585Y-22391
X28689Y-24845
X28800Y-22176
X28839Y-20295
X28858Y-29311
X28881Y-24763
X28935Y-22943
X28957Y-28996
X29035Y-22441
X29114Y-20295
X29350Y-21496
X29526Y-29270
X29606Y-30039
X29626Y-23287
X29646Y-28642
X29724Y-31634
X29843Y-20394
X29843Y-21417
X30157Y-29429
X30295Y-30295
X30413Y-29134
X30531Y-32224
X30733Y-24110
X30756Y-27980
X30768Y-24528
X30787Y-25039
X30807Y-27028
X30827Y-30669
X30872Y-21799
X30886Y-27539
X30886Y-28524
X30892Y-22105
X30925Y-17638
X31498Y-22615
X31512Y-22327
X31547Y-22087
X31557Y-21750
X31654Y-24606
X31805Y-27520
X31999Y-29658
X32028Y-28878
X32049Y-22223
X32049Y-22469
X32285Y-25718
X32303Y-25394
X32396Y-25013
X32423Y-24716
X33039Y-25594
X33128Y-25821
X33150Y-29547
X33248Y-23031
X33248Y-25020
X33250Y-23524
X33250Y-24016
X33346Y-22028
X33346Y-24508
X33366Y-22343
X33386Y-27520
X33425Y-28031
X33555Y-25479
X33555Y-26278
X33878Y-30531
X33937Y-29606
X33957Y-20906
T2
X20844Y-25433
X20844Y-26299
X20850Y-23226
X20850Y-24093
X20850Y-27638
X20850Y-28504
X21691Y-25433
X21691Y-26299
X21696Y-23226
X21696Y-24093
X21696Y-27638
X21696Y-28504
X22283Y-33819
X23307Y-33819
X24606Y-33819
X25606Y-33819
X26606Y-33819
X27819Y-33819
X28819Y-33819
T0
M30
