M48
INCH,TZ
T1C0.010
T2C0.030
T3C0.039
%
G90
G05
T1
X17598Y-23209
X17835Y-27677
X17835Y-27992
X17953Y-22205
X18091Y-26732
X18169Y-26969
X18208Y-26533
X18287Y-23858
X18640Y-24331
X18878Y-23701
X20925Y-23858
X21122Y-24173
X21201Y-24744
X21398Y-20039
X21437Y-18957
X21437Y-20965
X21732Y-18602
X21969Y-28068
X22028Y-21004
X22156Y-25010
X22470Y-25010
X22717Y-28740
X22835Y-20650
X23051Y-28701
X23484Y-20748
X23583Y-21654
X23720Y-19094
X24528Y-17598
X24528Y-17953
X24528Y-18307
X24528Y-18661
X24646Y-20906
X24716Y-28737
X24724Y-19272
X24796Y-29034
X24862Y-24331
X24941Y-28740
X24986Y-29154
X25020Y-17598
X25020Y-17953
X25020Y-18307
X25020Y-18661
X25118Y-23228
X25571Y-20157
X25591Y-24252
X25807Y-27264
X25945Y-23327
X26201Y-24252
X26614Y-19961
X26870Y-24291
X26870Y-27559
X26988Y-26969
X27047Y-23287
X27087Y-26614
X27087Y-27736
X27185Y-21061
X27224Y-30610
X27244Y-32736
X27303Y-32323
X27323Y-31949
X27421Y-25295
X27579Y-32736
X27685Y-23051
X27697Y-31969
X27717Y-29843
X27736Y-32343
X27874Y-32736
X27894Y-25354
X27953Y-31949
X28071Y-29626
X28128Y-20906
X28130Y-32520
X28150Y-28110
X28150Y-31220
X28169Y-30787
X28209Y-32205
X28327Y-22736
X28504Y-29508
X28681Y-32224
X28707Y-20921
X28878Y-32461
X29134Y-29862
X29232Y-24882
X29232Y-26594
X29291Y-26102
X29350Y-31181
X29429Y-29325
X29449Y-24469
X29449Y-32677
X29488Y-21575
X29547Y-33780
X29626Y-25689
X29705Y-27380
X29783Y-26732
X29862Y-20295
X29902Y-21555
X29980Y-22106
X30098Y-33937
X30123Y-29311
X30256Y-32500
X30433Y-19370
X30470Y-28994
X30512Y-18622
X30512Y-30276
X30846Y-24469
X30886Y-28583
X30945Y-17500
X30945Y-26378
X31090Y-28261
X31102Y-29567
X31140Y-23916
X31300Y-23664
X31315Y-24031
X31360Y-28213
X31417Y-24213
X31584Y-24368
X31831Y-28720
X31868Y-25320
X31977Y-27219
X32138Y-27059
X32146Y-22146
X32303Y-26909
X32362Y-25709
X32362Y-30472
X32441Y-24803
X32579Y-25512
X32618Y-24941
X32618Y-28012
X32776Y-25295
X32835Y-26732
X33051Y-21909
X33130Y-26752
X33140Y-25002
X33148Y-24794
X33346Y-29547
X33663Y-25929
X33740Y-26161
X33762Y-25605
X33780Y-22854
X33898Y-21890
X34016Y-27579
X34016Y-28839
X34055Y-23839
T2
X19656Y-28061
X19665Y-27598
X20354Y-27589
X20364Y-28061
X22067Y-22490
X22077Y-23179
X22520Y-25945
X22530Y-26634
X22539Y-22480
X22539Y-23189
X22992Y-25935
X22992Y-26644
T3
X22283Y-33819
X23307Y-33819
X24606Y-33819
X25606Y-33819
X26606Y-33819
X27819Y-33819
X28819Y-33819
T0
M30
