M48
INCH,TZ
T1C0.010
T2C0.039
%
G90
G05
T1
X21102Y-22650
X21975Y-20159
X22170Y-21094
X22362Y-20512
X22518Y-21444
X22555Y-20762
X22740Y-22594
X22872Y-20901
X23188Y-22600
X23406Y-19862
X23445Y-20512
X23465Y-21299
X23484Y-21634
X23524Y-17402
X23547Y-23081
X23720Y-21654
X24528Y-17598
X24528Y-17953
X24528Y-18307
X24528Y-18661
X25020Y-17598
X25020Y-17953
X25020Y-18307
X25020Y-18661
X25157Y-19547
X25295Y-20138
X25807Y-29646
X25846Y-20650
X25886Y-28514
X25886Y-28917
X25945Y-19764
X26181Y-20906
X26181Y-21417
X26181Y-30413
X26368Y-27638
X26467Y-30444
X26548Y-30251
X26575Y-29221
X26870Y-21004
X26890Y-27421
X27185Y-20472
X27382Y-22087
X27402Y-27302
X27421Y-20472
X27461Y-17480
X27557Y-27638
X27559Y-27106
X27736Y-19783
X27743Y-30246
X27776Y-18110
X27776Y-18346
X27776Y-18543
X27835Y-22520
X28051Y-21476
X28115Y-21144
X28209Y-22953
X28346Y-23642
X28504Y-22953
X28557Y-25006
X28563Y-24272
X28585Y-22391
X28689Y-24845
X28800Y-22176
X28881Y-24763
X28935Y-22943
X29016Y-19646
X29035Y-22441
X29154Y-20846
X29526Y-29270
X29606Y-30039
X29626Y-23287
X29646Y-28642
X29724Y-31634
X30291Y-30347
X30441Y-30197
X30551Y-20827
X30591Y-21122
X30728Y-18406
X30733Y-24110
X30756Y-27980
X30768Y-24528
X30787Y-25039
X30807Y-27028
X30886Y-27539
X30886Y-28524
X30899Y-21799
X30968Y-22047
X30984Y-17618
X31392Y-22467
X31425Y-21700
X31425Y-22000
X31437Y-22264
X31654Y-24724
X31671Y-24513
X31805Y-27520
X31820Y-29417
X31909Y-22205
X31909Y-22453
X32003Y-29089
X32077Y-25419
X32084Y-28863
X32179Y-25157
X32224Y-18268
X32281Y-24953
X32384Y-24705
X32795Y-23287
X33039Y-25594
X33128Y-25821
X33130Y-29429
X33248Y-23031
X33248Y-25020
X33250Y-23524
X33250Y-24016
X33287Y-30059
X33346Y-22028
X33346Y-24508
X33366Y-22343
X33386Y-27520
X33425Y-28031
X33555Y-25479
X33555Y-26278
X33681Y-20020
X33760Y-29843
X34213Y-29311
T2
X20844Y-25433
X20844Y-26299
X20850Y-23226
X20850Y-24093
X20850Y-27638
X20850Y-28504
X21691Y-25433
X21691Y-26299
X21696Y-23226
X21696Y-24093
X21696Y-27638
X21696Y-28504
X22283Y-33819
X23307Y-33819
X24606Y-33819
X25606Y-33819
X26606Y-33819
X27819Y-33819
X28819Y-33819
T0
M30
