G04 #@! TF.FileFunction,Soldermask,Bot*
%FSLAX46Y46*%
G04 Gerber Fmt 4.6, Leading zero omitted, Abs format (unit mm)*
G04 Created by KiCad (PCBNEW 4.0.6) date 08/18/18 21:16:28*
%MOMM*%
%LPD*%
G01*
G04 APERTURE LIST*
%ADD10C,0.100000*%
%ADD11C,3.500000*%
%ADD12R,1.700000X1.700000*%
%ADD13O,1.700000X1.700000*%
%ADD14C,1.000000*%
%ADD15C,0.254000*%
G04 APERTURE END LIST*
D10*
D11*
X50000000Y-81000000D03*
X81000000Y-81000000D03*
X81000000Y-50000000D03*
D12*
X73200000Y-85900000D03*
D13*
X70660000Y-85900000D03*
D12*
X56600000Y-85900000D03*
X59200000Y-85900000D03*
X62500000Y-85900000D03*
X65040000Y-85900000D03*
X67580000Y-85900000D03*
D14*
X56050000Y-57125000D03*
X57250000Y-57100000D03*
X57250000Y-58900000D03*
X56075000Y-58875000D03*
X51700000Y-70075000D03*
X51725000Y-71275000D03*
X49925000Y-71275000D03*
X49950000Y-70100000D03*
X57200000Y-65900000D03*
X58400000Y-65875000D03*
X58400000Y-67675000D03*
X57225000Y-67650000D03*
D11*
X50000000Y-50000000D03*
D15*
G36*
X60531012Y-59209035D02*
X61924688Y-67670640D01*
X61942591Y-67717767D01*
X61986436Y-67759948D01*
X68323000Y-71423274D01*
X68323000Y-86623000D01*
X66827000Y-86623000D01*
X66827000Y-72150000D01*
X66816994Y-72100590D01*
X66788553Y-72058965D01*
X66764046Y-72040332D01*
X60563417Y-68419165D01*
X58974563Y-60425242D01*
X58939803Y-60360197D01*
X58189803Y-59610197D01*
X58147789Y-59582334D01*
X58100000Y-59573000D01*
X55427000Y-59573000D01*
X55427000Y-56477000D01*
X57945336Y-56477000D01*
X60531012Y-59209035D01*
X60531012Y-59209035D01*
G37*
X60531012Y-59209035D02*
X61924688Y-67670640D01*
X61942591Y-67717767D01*
X61986436Y-67759948D01*
X68323000Y-71423274D01*
X68323000Y-86623000D01*
X66827000Y-86623000D01*
X66827000Y-72150000D01*
X66816994Y-72100590D01*
X66788553Y-72058965D01*
X66764046Y-72040332D01*
X60563417Y-68419165D01*
X58974563Y-60425242D01*
X58939803Y-60360197D01*
X58189803Y-59610197D01*
X58147789Y-59582334D01*
X58100000Y-59573000D01*
X55427000Y-59573000D01*
X55427000Y-56477000D01*
X57945336Y-56477000D01*
X60531012Y-59209035D01*
G36*
X59073000Y-65274670D02*
X59073000Y-68500000D01*
X59083006Y-68549410D01*
X59111447Y-68591035D01*
X59136725Y-68610115D01*
X65773000Y-72423497D01*
X65773000Y-86623000D01*
X64277000Y-86623000D01*
X64277000Y-72800000D01*
X64266994Y-72750590D01*
X64238553Y-72708965D01*
X64211677Y-72688982D01*
X56627000Y-68475273D01*
X56627000Y-65229373D01*
X59073000Y-65274670D01*
X59073000Y-65274670D01*
G37*
X59073000Y-65274670D02*
X59073000Y-68500000D01*
X59083006Y-68549410D01*
X59111447Y-68591035D01*
X59136725Y-68610115D01*
X65773000Y-72423497D01*
X65773000Y-86623000D01*
X64277000Y-86623000D01*
X64277000Y-72800000D01*
X64266994Y-72750590D01*
X64238553Y-72708965D01*
X64211677Y-72688982D01*
X56627000Y-68475273D01*
X56627000Y-65229373D01*
X59073000Y-65274670D01*
G36*
X63223000Y-84740245D02*
X63223000Y-86623000D01*
X61777000Y-86623000D01*
X61777000Y-85800000D01*
X61766994Y-85750590D01*
X61754487Y-85727809D01*
X52254487Y-71977809D01*
X52218168Y-71942846D01*
X52150000Y-71923000D01*
X49227000Y-71923000D01*
X49227000Y-69427000D01*
X52434123Y-69427000D01*
X63223000Y-84740245D01*
X63223000Y-84740245D01*
G37*
X63223000Y-84740245D02*
X63223000Y-86623000D01*
X61777000Y-86623000D01*
X61777000Y-85800000D01*
X61766994Y-85750590D01*
X61754487Y-85727809D01*
X52254487Y-71977809D01*
X52218168Y-71942846D01*
X52150000Y-71923000D01*
X49227000Y-71923000D01*
X49227000Y-69427000D01*
X52434123Y-69427000D01*
X63223000Y-84740245D01*
M02*
