G04 #@! TF.FileFunction,Soldermask,Bot*
%FSLAX46Y46*%
G04 Gerber Fmt 4.6, Leading zero omitted, Abs format (unit mm)*
G04 Created by KiCad (PCBNEW 4.0.6) date 06/16/19 22:14:51*
%MOMM*%
%LPD*%
G01*
G04 APERTURE LIST*
%ADD10C,0.100000*%
%ADD11R,1.200000X1.700000*%
%ADD12R,2.200000X1.700000*%
%ADD13C,2.900000*%
%ADD14C,3.900000*%
%ADD15O,8.900000X3.400000*%
%ADD16C,6.600000*%
%ADD17C,0.254000*%
G04 APERTURE END LIST*
D10*
D11*
X64650000Y-146820000D03*
D12*
X63350000Y-152020000D03*
X63350000Y-150720000D03*
X63350000Y-146820000D03*
X63350000Y-148120000D03*
X63350000Y-149420000D03*
D11*
X62050000Y-146820000D03*
X62050000Y-148120000D03*
X62050000Y-149420000D03*
X62050000Y-150720000D03*
X62050000Y-152020000D03*
X64650000Y-152020000D03*
X64650000Y-150720000D03*
X64650000Y-149420000D03*
X64650000Y-148120000D03*
D13*
X78150000Y-32550000D03*
X74950000Y-32550000D03*
X78150000Y-36600000D03*
X74950000Y-36600000D03*
D14*
X67600000Y-165400000D03*
X62600000Y-165400000D03*
X80650000Y-166800000D03*
X80650000Y-161800000D03*
X85300000Y-166800000D03*
X85300000Y-161800000D03*
D13*
X73300000Y-82300000D03*
X76500000Y-82300000D03*
X70000000Y-34450000D03*
X67000000Y-34450000D03*
X64000000Y-34450000D03*
X61000000Y-34450000D03*
D15*
X60800000Y-139800000D03*
X72800000Y-139800000D03*
D16*
X91500000Y-166500000D03*
X53500000Y-33500000D03*
X91500000Y-33500000D03*
X53500000Y-166500000D03*
D13*
X58500000Y-82100000D03*
X61700000Y-82100000D03*
D17*
G36*
X55223000Y-104975818D02*
X55223000Y-109600000D01*
X55233006Y-109649410D01*
X55261447Y-109691035D01*
X55303841Y-109718315D01*
X55350000Y-109727000D01*
X68850000Y-109727000D01*
X68899410Y-109716994D01*
X68941035Y-109688553D01*
X68968315Y-109646159D01*
X68977000Y-109600000D01*
X68977000Y-104977000D01*
X71373000Y-104977000D01*
X71373000Y-111523000D01*
X54850000Y-111523000D01*
X54800590Y-111533006D01*
X54758965Y-111561447D01*
X54731685Y-111603841D01*
X54723000Y-111650000D01*
X54723000Y-162550000D01*
X54733006Y-162599410D01*
X54761447Y-162641035D01*
X54803841Y-162668315D01*
X54850000Y-162677000D01*
X64273000Y-162677000D01*
X64273000Y-169873000D01*
X50176903Y-169873000D01*
X50127098Y-104928193D01*
X55223000Y-104975818D01*
X55223000Y-104975818D01*
G37*
X55223000Y-104975818D02*
X55223000Y-109600000D01*
X55233006Y-109649410D01*
X55261447Y-109691035D01*
X55303841Y-109718315D01*
X55350000Y-109727000D01*
X68850000Y-109727000D01*
X68899410Y-109716994D01*
X68941035Y-109688553D01*
X68968315Y-109646159D01*
X68977000Y-109600000D01*
X68977000Y-104977000D01*
X71373000Y-104977000D01*
X71373000Y-111523000D01*
X54850000Y-111523000D01*
X54800590Y-111533006D01*
X54758965Y-111561447D01*
X54731685Y-111603841D01*
X54723000Y-111650000D01*
X54723000Y-162550000D01*
X54733006Y-162599410D01*
X54761447Y-162641035D01*
X54803841Y-162668315D01*
X54850000Y-162677000D01*
X64273000Y-162677000D01*
X64273000Y-169873000D01*
X50176903Y-169873000D01*
X50127098Y-104928193D01*
X55223000Y-104975818D01*
M02*
