M48
INCH,TZ
T1C0.010
T2C0.020
T3C0.024
T4C0.059
T5C0.083
T6C0.169
%
G90
G05
T1
X20177Y-20787
X20295Y-19193
X20394Y-21732
X20394Y-22717
X20394Y-23622
X20846Y-53189
X20925Y-30000
X20945Y-19055
X20984Y-21732
X21339Y-26693
X21339Y-27480
X21496Y-57520
X21634Y-25571
X21634Y-44528
X21752Y-56732
X21831Y-28661
X22008Y-57520
X22033Y-30591
X22559Y-26693
X22559Y-27480
X22835Y-15630
X22835Y-16220
X23268Y-14902
X23484Y-16220
X23545Y-21988
X23545Y-22296
X23545Y-22723
X23642Y-17638
X23674Y-23008
X23878Y-45039
X24134Y-15492
X24429Y-15118
X24449Y-41870
X24626Y-17618
X24862Y-22835
X24921Y-20709
X24941Y-16437
X25453Y-22835
X25630Y-22185
X25886Y-21319
X25912Y-21526
X26083Y-18071
X26083Y-18661
X26083Y-21713
X26378Y-15689
X26874Y-18890
X27010Y-19237
X27047Y-18720
X27222Y-20630
X27638Y-21951
X27874Y-24646
X28012Y-18917
X28228Y-19134
X28235Y-21565
X28543Y-21181
X28563Y-16358
X28563Y-16949
X28642Y-20394
X28681Y-20866
X28712Y-19988
X28996Y-56480
X29803Y-24646
X29803Y-25146
X29803Y-25646
X29803Y-26646
X30295Y-16811
X30551Y-16216
X31091Y-24041
X31358Y-15650
X31634Y-23150
X32382Y-15709
X32539Y-23484
X32756Y-54035
X33386Y-54587
X34016Y-54587
X34449Y-15709
T2
X21004Y-40787
X21004Y-41496
X21004Y-42028
X21575Y-41516
X21575Y-42028
X22815Y-33720
X22815Y-34370
X22835Y-35000
X22835Y-35571
X23465Y-43740
X23504Y-35571
X23642Y-33740
X24370Y-33740
X24370Y-35571
X24370Y-45059
X24764Y-43858
X25236Y-44154
X25630Y-33760
X25630Y-35531
X26201Y-43169
X26201Y-44350
X26240Y-46929
X26240Y-47323
X26240Y-47697
X26614Y-35531
X26634Y-33760
X26693Y-47717
X27106Y-47717
X27402Y-33760
X27402Y-34311
X27402Y-34941
X27402Y-35531
X27657Y-44311
X27677Y-46929
X27677Y-47362
X27677Y-47717
X27854Y-58524
X27874Y-59232
X27874Y-59823
X27874Y-60531
X27874Y-61220
X27874Y-62008
X27874Y-62657
X27874Y-63327
X27874Y-63996
X27874Y-64528
X27874Y-65118
X29272Y-40669
X29272Y-41280
X29272Y-41929
X30000Y-44705
X30079Y-40906
X30079Y-41929
X31437Y-33819
X31437Y-34350
X31437Y-35098
X31437Y-35886
X31929Y-43760
X32185Y-45118
X32264Y-35886
X32362Y-33819
X32717Y-45138
X33287Y-43740
X33327Y-35886
X33366Y-33819
X33622Y-44055
X34626Y-47598
X34626Y-48110
X34646Y-47008
X34705Y-43189
X34705Y-44370
X35177Y-48110
X35689Y-48110
X36004Y-18614
X36004Y-19614
X36004Y-20614
X36004Y-21614
X36004Y-22614
X36004Y-23614
X36319Y-46988
X36319Y-47638
X36319Y-48110
X36398Y-44331
T3
X20748Y-25177
X21811Y-23622
X21850Y-22717
X23701Y-19449
X23720Y-28091
X32106Y-18622
X32106Y-19606
X32106Y-20610
X32106Y-21614
X32126Y-17618
X32343Y-22598
T4
X24016Y-13563
X24370Y-34665
X25197Y-13563
X25630Y-34665
X26378Y-13563
X27559Y-13563
X29508Y-12815
X29508Y-14409
X30768Y-12815
X30768Y-14409
X33366Y-34961
X34626Y-34961
T5
X24646Y-65118
X26614Y-65118
X31752Y-63701
X31752Y-65669
X33583Y-63701
X33583Y-65669
T6
X21063Y-13189
X21063Y-65551
X36024Y-13189
X36024Y-65551
T0
M30
