M48
INCH,TZ
T1C0.010
T2C0.012
T3C0.039
T4C0.059
T5C0.063
T6C0.083
T7C0.169
%
G90
G05
T1
X20394Y-20748
X20394Y-21732
X20394Y-22717
X20394Y-23622
X20551Y-19075
X20709Y-39606
X20827Y-20118
X20945Y-18976
X20984Y-21732
X21063Y-19843
X21575Y-15157
X21890Y-62008
X21949Y-20965
X21965Y-19649
X22146Y-20157
X22165Y-62126
X22205Y-40118
X22854Y-22106
X22874Y-58268
X22874Y-59980
X23080Y-22331
X23091Y-28740
X23150Y-38307
X23346Y-27362
X23642Y-17638
X23681Y-28740
X23760Y-33839
X23780Y-58189
X23780Y-58445
X23780Y-58697
X23780Y-58957
X23931Y-56615
X24016Y-56366
X24055Y-25197
X24055Y-25787
X24134Y-15492
X24193Y-29488
X24213Y-27717
X24272Y-16220
X24329Y-28307
X24370Y-26142
X24488Y-28937
X24626Y-17618
X24713Y-29162
X24791Y-24606
X24862Y-24094
X25000Y-24606
X25000Y-24815
X25138Y-29035
X25197Y-23937
X25362Y-29112
X25472Y-61496
X25615Y-29215
X25709Y-27835
X25928Y-29317
X26063Y-61496
X26102Y-57677
X26102Y-57933
X26102Y-58697
X26102Y-59720
X26250Y-29419
X26378Y-15689
X26378Y-25039
X26496Y-20512
X26496Y-21102
X26850Y-61535
X26969Y-27835
X27008Y-60945
X27165Y-39606
X27244Y-27795
X27362Y-25197
X27500Y-56358
X27874Y-24646
X27953Y-57126
X27953Y-57717
X27992Y-28504
X28071Y-20945
X28091Y-56358
X28169Y-16634
X28228Y-16358
X28583Y-28504
X28618Y-20350
X28740Y-40118
X29390Y-16654
X29685Y-38307
X29803Y-24646
X29803Y-25146
X29803Y-25646
X29803Y-26646
X30075Y-58112
X30256Y-16969
X30276Y-20945
X31043Y-32126
X31260Y-31890
X31413Y-59132
X31496Y-20945
X32264Y-62205
X32854Y-62205
X33228Y-44291
X33740Y-45354
X34016Y-17614
X34016Y-18614
X34016Y-19614
X34016Y-20614
X34134Y-47520
X34134Y-48307
X35354Y-47520
X35354Y-48307
X36142Y-58543
X36772Y-58543
T2
X24429Y-57803
X24429Y-58315
X24429Y-58827
X24429Y-59339
X24429Y-59850
X24941Y-57803
X24941Y-58315
X24941Y-58827
X24941Y-59339
X24941Y-59850
X25453Y-57803
X25453Y-58315
X25453Y-58827
X25453Y-59339
X25453Y-59850
T3
X20709Y-36890
X20768Y-33209
X20807Y-32343
X21220Y-42480
X21220Y-43406
X21614Y-39213
X21791Y-33209
X21811Y-32323
X22205Y-39213
X22677Y-56811
X22795Y-39213
X23406Y-56811
X24055Y-39882
X24213Y-42087
X25335Y-39882
X25512Y-42087
X26969Y-37323
X27067Y-33012
X27638Y-42539
X27638Y-43327
X27677Y-32402
X28012Y-65433
X28740Y-39213
X28780Y-65433
X29587Y-65453
X30413Y-65453
X30709Y-39606
X30748Y-42087
X31673Y-35748
X31949Y-39606
X32008Y-42087
X36004Y-18614
X36004Y-19614
X36004Y-20614
X36004Y-21614
X36004Y-22614
X36004Y-23614
T4
X23031Y-32323
X24016Y-13563
X24291Y-32323
X25197Y-13563
X26378Y-13563
X27559Y-13563
X28858Y-32402
X29508Y-12815
X29508Y-14409
X30118Y-32402
X30768Y-12815
X30768Y-14409
T6
X24646Y-65118
X26614Y-65118
X31752Y-63701
X31752Y-65669
X33583Y-63701
X33583Y-65669
T7
X21063Y-13189
X21063Y-65551
X36024Y-13189
X36024Y-65551
T5
X22972Y-55039G85X24902Y-55039
G05
X27697Y-55039G85X29626Y-55039
G05
T0
M30
