G04 #@! TF.FileFunction,Copper,L3,Inr,Signal*
%FSLAX46Y46*%
G04 Gerber Fmt 4.6, Leading zero omitted, Abs format (unit mm)*
G04 Created by KiCad (PCBNEW 4.0.6) date 07/27/19 23:28:40*
%MOMM*%
%LPD*%
G01*
G04 APERTURE LIST*
%ADD10C,0.100000*%
%ADD11C,2.500000*%
%ADD12C,3.500000*%
%ADD13C,6.200000*%
%ADD14C,1.000000*%
%ADD15C,0.800000*%
%ADD16C,0.400000*%
%ADD17C,0.254000*%
G04 APERTURE END LIST*
D10*
D11*
X78150000Y-32550000D03*
X74950000Y-32550000D03*
X78150000Y-36600000D03*
X74950000Y-36600000D03*
D12*
X67600000Y-165400000D03*
X62600000Y-165400000D03*
X80650000Y-166800000D03*
X80650000Y-161800000D03*
X85300000Y-166800000D03*
X85300000Y-161800000D03*
D11*
X61824000Y-82042000D03*
X65024000Y-82042000D03*
X70000000Y-34450000D03*
X67000000Y-34450000D03*
X64000000Y-34450000D03*
X61000000Y-34450000D03*
D13*
X91500000Y-166500000D03*
X53500000Y-33500000D03*
X91500000Y-33500000D03*
X53500000Y-166500000D03*
D11*
X81890000Y-81026000D03*
X85090000Y-81026000D03*
D14*
X60250000Y-71350000D03*
X52700000Y-63950000D03*
X81550000Y-54900000D03*
X82150000Y-57400000D03*
X55500000Y-57700000D03*
X55400000Y-60000000D03*
X60200000Y-49400000D03*
X81550000Y-49800000D03*
X81550000Y-47300000D03*
X81600000Y-44750000D03*
X81550000Y-52350000D03*
D15*
X73600000Y-103500000D03*
X73600000Y-105800000D03*
X73600000Y-108800000D03*
X73600000Y-110650000D03*
X52800000Y-102450000D03*
X52800000Y-104600000D03*
X52800000Y-106450000D03*
X52800000Y-108350000D03*
X68000000Y-168750000D03*
X70000000Y-168750000D03*
X71650000Y-168750000D03*
X73400000Y-168750000D03*
X75050000Y-168750000D03*
X76650000Y-168750000D03*
X76650000Y-166750000D03*
X75900000Y-165700000D03*
X74000000Y-165700000D03*
X72650000Y-165250000D03*
X72650000Y-163300000D03*
X72650000Y-161650000D03*
X72650000Y-159900000D03*
X72650000Y-158450000D03*
X72650000Y-156800000D03*
X71500000Y-155650000D03*
X71500000Y-154200000D03*
X71500000Y-152750000D03*
X71500000Y-151400000D03*
X71500000Y-150050000D03*
X71450000Y-148850000D03*
X69850000Y-148850000D03*
X68331370Y-148850000D03*
X68165685Y-150150000D03*
X68165685Y-151700000D03*
X68165685Y-153250000D03*
X68165685Y-154850000D03*
X67600000Y-161800000D03*
X67600000Y-160750000D03*
X67600000Y-159450000D03*
X67600000Y-158150000D03*
X67600000Y-157050000D03*
X67600000Y-156050000D03*
X52800000Y-110450000D03*
X61775000Y-119125000D03*
X56225000Y-119125000D03*
X61775000Y-114275000D03*
X56225000Y-114275000D03*
X53550000Y-99150000D03*
X53150000Y-96300000D03*
X54350000Y-93650000D03*
X54350000Y-88900000D03*
X73750000Y-101250000D03*
X77502000Y-101854000D03*
X73950000Y-99200000D03*
X73950000Y-97550000D03*
X74954000Y-93980000D03*
X74954000Y-89154000D03*
X76746000Y-119126000D03*
X82296000Y-119126000D03*
X82296000Y-114276000D03*
X76746000Y-114276000D03*
D16*
X55963000Y-77700000D03*
X84800000Y-138650000D03*
X62550000Y-44750000D03*
X69145010Y-52400000D03*
X58000000Y-39700000D03*
X75700000Y-67680000D03*
X75700000Y-65140000D03*
X75700000Y-63870000D03*
X57300000Y-69800000D03*
X57300000Y-67800000D03*
X54200000Y-69800000D03*
X54200000Y-67800000D03*
D15*
X91450000Y-52360000D03*
X91450000Y-49820000D03*
X91450000Y-47280000D03*
D16*
X87500000Y-39900000D03*
X82250000Y-39900000D03*
X53300000Y-55200000D03*
X53200000Y-48400000D03*
X64650000Y-58000000D03*
X66250000Y-45900000D03*
X63300000Y-52600000D03*
X77600000Y-41188700D03*
X76950000Y-42700000D03*
X72550000Y-43050000D03*
X62050000Y-38400000D03*
X61300000Y-39350000D03*
X53149500Y-76200000D03*
X54950000Y-64950000D03*
D15*
X59900000Y-87300000D03*
X59900000Y-88900000D03*
X68100000Y-84200000D03*
X68100000Y-82000000D03*
D16*
X65024000Y-87798000D03*
X57300000Y-104150000D03*
X86400000Y-138650000D03*
X51250000Y-52800000D03*
X71717705Y-54775793D03*
X58000000Y-41200000D03*
X70800000Y-62600000D03*
X75700000Y-62600000D03*
X60050000Y-44800000D03*
D15*
X91450000Y-54900000D03*
X91450000Y-59980000D03*
X91450000Y-57440000D03*
D16*
X51800000Y-60000000D03*
X51800000Y-57700000D03*
X51550000Y-48750000D03*
X51800000Y-55200000D03*
X63150000Y-58000000D03*
X66250000Y-47400000D03*
X72550000Y-41550000D03*
X67000000Y-39850000D03*
X59804990Y-57716195D03*
X70200000Y-55755021D03*
X60132078Y-58440707D03*
X65100000Y-56350000D03*
X71150000Y-48050000D03*
X71700000Y-48600000D03*
X78971770Y-61065001D03*
X72750000Y-51800000D03*
X80350000Y-58800000D03*
X72929315Y-50770685D03*
X59804990Y-55850000D03*
X72850000Y-53000000D03*
X59804990Y-56630888D03*
X72500000Y-53800000D03*
X52950000Y-135100000D03*
X83200000Y-137250000D03*
X65750000Y-54150000D03*
X68700000Y-47550000D03*
X65816041Y-54675882D03*
X68260630Y-47980740D03*
X68605602Y-48863072D03*
X66250000Y-55150000D03*
X82650000Y-59650000D03*
X63350000Y-41750000D03*
X59650000Y-41200000D03*
X79650000Y-39750000D03*
X58650000Y-76550000D03*
X76121000Y-107551000D03*
X55600000Y-107550000D03*
X52850000Y-138200000D03*
X85090000Y-87798000D03*
X77850000Y-104200000D03*
X55450000Y-72800000D03*
X59100000Y-37850000D03*
X65400000Y-140750000D03*
X55400000Y-141750000D03*
D17*
G36*
X73883628Y-30951043D02*
X73352907Y-31480839D01*
X73065328Y-32173405D01*
X73064674Y-32923305D01*
X73351043Y-33616372D01*
X73880839Y-34147093D01*
X74573405Y-34434672D01*
X75323305Y-34435326D01*
X76016372Y-34148957D01*
X76547093Y-33619161D01*
X76549650Y-33613002D01*
X76551043Y-33616372D01*
X77080839Y-34147093D01*
X77773405Y-34434672D01*
X78523305Y-34435326D01*
X79216372Y-34148957D01*
X79747093Y-33619161D01*
X80034672Y-32926595D01*
X80035326Y-32176695D01*
X79748957Y-31483628D01*
X79219161Y-30952907D01*
X78634177Y-30710000D01*
X89008170Y-30710000D01*
X88335467Y-31381530D01*
X87765650Y-32753803D01*
X87764353Y-34239678D01*
X88331775Y-35612944D01*
X89381530Y-36664533D01*
X90753803Y-37234350D01*
X92239678Y-37235647D01*
X93612944Y-36668225D01*
X94290000Y-35992350D01*
X94290000Y-164008170D01*
X93618470Y-163335467D01*
X92246197Y-162765650D01*
X90760322Y-162764353D01*
X89387056Y-163331775D01*
X88335467Y-164381530D01*
X87765650Y-165753803D01*
X87764353Y-167239678D01*
X88331775Y-168612944D01*
X89007650Y-169290000D01*
X77546454Y-169290000D01*
X77684820Y-168956777D01*
X77685179Y-168545029D01*
X77527942Y-168164485D01*
X77237046Y-167873081D01*
X76940373Y-167749892D01*
X77235515Y-167627942D01*
X77526919Y-167337046D01*
X77553793Y-167272325D01*
X78264587Y-167272325D01*
X78626916Y-168149229D01*
X79297242Y-168820726D01*
X80173513Y-169184585D01*
X81122325Y-169185413D01*
X81999229Y-168823084D01*
X82670726Y-168152758D01*
X82975300Y-167419262D01*
X83276916Y-168149229D01*
X83947242Y-168820726D01*
X84823513Y-169184585D01*
X85772325Y-169185413D01*
X86649229Y-168823084D01*
X87320726Y-168152758D01*
X87684585Y-167276487D01*
X87685413Y-166327675D01*
X87323084Y-165450771D01*
X86652758Y-164779274D01*
X85776487Y-164415415D01*
X84827675Y-164414587D01*
X83950771Y-164776916D01*
X83279274Y-165447242D01*
X82974700Y-166180738D01*
X82673084Y-165450771D01*
X82002758Y-164779274D01*
X81126487Y-164415415D01*
X80177675Y-164414587D01*
X79300771Y-164776916D01*
X78629274Y-165447242D01*
X78265415Y-166323513D01*
X78264587Y-167272325D01*
X77553793Y-167272325D01*
X77684820Y-166956777D01*
X77685179Y-166545029D01*
X77527942Y-166164485D01*
X77237046Y-165873081D01*
X76934959Y-165747644D01*
X76935179Y-165495029D01*
X76777942Y-165114485D01*
X76487046Y-164823081D01*
X76106777Y-164665180D01*
X75695029Y-164664821D01*
X75314485Y-164822058D01*
X75023081Y-165112954D01*
X74950015Y-165288916D01*
X74877942Y-165114485D01*
X74587046Y-164823081D01*
X74206777Y-164665180D01*
X73795029Y-164664821D01*
X73567010Y-164759036D01*
X73527942Y-164664485D01*
X73237046Y-164373081D01*
X73000728Y-164274954D01*
X73235515Y-164177942D01*
X73526919Y-163887046D01*
X73684820Y-163506777D01*
X73685179Y-163095029D01*
X73527942Y-162714485D01*
X73288712Y-162474837D01*
X73491578Y-162272325D01*
X78264587Y-162272325D01*
X78626916Y-163149229D01*
X79297242Y-163820726D01*
X80173513Y-164184585D01*
X81122325Y-164185413D01*
X81999229Y-163823084D01*
X82670726Y-163152758D01*
X82975300Y-162419262D01*
X83276916Y-163149229D01*
X83947242Y-163820726D01*
X84823513Y-164184585D01*
X85772325Y-164185413D01*
X86649229Y-163823084D01*
X87320726Y-163152758D01*
X87684585Y-162276487D01*
X87685413Y-161327675D01*
X87323084Y-160450771D01*
X86652758Y-159779274D01*
X85776487Y-159415415D01*
X84827675Y-159414587D01*
X83950771Y-159776916D01*
X83279274Y-160447242D01*
X82974700Y-161180738D01*
X82673084Y-160450771D01*
X82002758Y-159779274D01*
X81126487Y-159415415D01*
X80177675Y-159414587D01*
X79300771Y-159776916D01*
X78629274Y-160447242D01*
X78265415Y-161323513D01*
X78264587Y-162272325D01*
X73491578Y-162272325D01*
X73526919Y-162237046D01*
X73684820Y-161856777D01*
X73685179Y-161445029D01*
X73527942Y-161064485D01*
X73238712Y-160774750D01*
X73526919Y-160487046D01*
X73684820Y-160106777D01*
X73685179Y-159695029D01*
X73527942Y-159314485D01*
X73388712Y-159175012D01*
X73526919Y-159037046D01*
X73684820Y-158656777D01*
X73685179Y-158245029D01*
X73527942Y-157864485D01*
X73288712Y-157624837D01*
X73526919Y-157387046D01*
X73684820Y-157006777D01*
X73685179Y-156595029D01*
X73527942Y-156214485D01*
X73237046Y-155923081D01*
X72856777Y-155765180D01*
X72534900Y-155764899D01*
X72535179Y-155445029D01*
X72377942Y-155064485D01*
X72238712Y-154925012D01*
X72376919Y-154787046D01*
X72534820Y-154406777D01*
X72535179Y-153995029D01*
X72377942Y-153614485D01*
X72238712Y-153475012D01*
X72376919Y-153337046D01*
X72534820Y-152956777D01*
X72535179Y-152545029D01*
X72377942Y-152164485D01*
X72288712Y-152075099D01*
X72376919Y-151987046D01*
X72534820Y-151606777D01*
X72535179Y-151195029D01*
X72377942Y-150814485D01*
X72288712Y-150725099D01*
X72376919Y-150637046D01*
X72534820Y-150256777D01*
X72535179Y-149845029D01*
X72377942Y-149464485D01*
X72333861Y-149420327D01*
X72484820Y-149056777D01*
X72485179Y-148645029D01*
X72327942Y-148264485D01*
X72037046Y-147973081D01*
X71656777Y-147815180D01*
X71245029Y-147814821D01*
X70864485Y-147972058D01*
X70649881Y-148186288D01*
X70437046Y-147973081D01*
X70056777Y-147815180D01*
X69645029Y-147814821D01*
X69264485Y-147972058D01*
X69090637Y-148145603D01*
X68918416Y-147973081D01*
X68538147Y-147815180D01*
X68126399Y-147814821D01*
X67745855Y-147972058D01*
X67454451Y-148262954D01*
X67296550Y-148643223D01*
X67296191Y-149054971D01*
X67442623Y-149409365D01*
X67288766Y-149562954D01*
X67130865Y-149943223D01*
X67130506Y-150354971D01*
X67287743Y-150735515D01*
X67476973Y-150925075D01*
X67288766Y-151112954D01*
X67130865Y-151493223D01*
X67130506Y-151904971D01*
X67287743Y-152285515D01*
X67476973Y-152475075D01*
X67288766Y-152662954D01*
X67130865Y-153043223D01*
X67130506Y-153454971D01*
X67287743Y-153835515D01*
X67501973Y-154050119D01*
X67288766Y-154262954D01*
X67130865Y-154643223D01*
X67130506Y-155054971D01*
X67154911Y-155114035D01*
X67014485Y-155172058D01*
X66723081Y-155462954D01*
X66565180Y-155843223D01*
X66564821Y-156254971D01*
X66686830Y-156550256D01*
X66565180Y-156843223D01*
X66564821Y-157254971D01*
X66707540Y-157600380D01*
X66565180Y-157943223D01*
X66564821Y-158354971D01*
X66722058Y-158735515D01*
X66786288Y-158799857D01*
X66723081Y-158862954D01*
X66565180Y-159243223D01*
X66564821Y-159654971D01*
X66722058Y-160035515D01*
X66786288Y-160099857D01*
X66723081Y-160162954D01*
X66565180Y-160543223D01*
X66564821Y-160954971D01*
X66697185Y-161275318D01*
X66565180Y-161593223D01*
X66564821Y-162004971D01*
X66722058Y-162385515D01*
X67012954Y-162676919D01*
X67393223Y-162834820D01*
X67804971Y-162835179D01*
X68185515Y-162677942D01*
X68476919Y-162387046D01*
X68634820Y-162006777D01*
X68635179Y-161595029D01*
X68502815Y-161274682D01*
X68634820Y-160956777D01*
X68635179Y-160545029D01*
X68477942Y-160164485D01*
X68413712Y-160100143D01*
X68476919Y-160037046D01*
X68634820Y-159656777D01*
X68635179Y-159245029D01*
X68477942Y-158864485D01*
X68413712Y-158800143D01*
X68476919Y-158737046D01*
X68634820Y-158356777D01*
X68635179Y-157945029D01*
X68492460Y-157599620D01*
X68634820Y-157256777D01*
X68635179Y-156845029D01*
X68513170Y-156549744D01*
X68634820Y-156256777D01*
X68635179Y-155845029D01*
X68610774Y-155785965D01*
X68751200Y-155727942D01*
X69042604Y-155437046D01*
X69200505Y-155056777D01*
X69200864Y-154645029D01*
X69043627Y-154264485D01*
X68829397Y-154049881D01*
X69042604Y-153837046D01*
X69200505Y-153456777D01*
X69200864Y-153045029D01*
X69043627Y-152664485D01*
X68854397Y-152474925D01*
X69042604Y-152287046D01*
X69200505Y-151906777D01*
X69200864Y-151495029D01*
X69043627Y-151114485D01*
X68854397Y-150924925D01*
X69042604Y-150737046D01*
X69200505Y-150356777D01*
X69200864Y-149945029D01*
X69054432Y-149590635D01*
X69090733Y-149554397D01*
X69262954Y-149726919D01*
X69643223Y-149884820D01*
X70054971Y-149885179D01*
X70435515Y-149727942D01*
X70567941Y-149595747D01*
X70465180Y-149843223D01*
X70464821Y-150254971D01*
X70622058Y-150635515D01*
X70711288Y-150724901D01*
X70623081Y-150812954D01*
X70465180Y-151193223D01*
X70464821Y-151604971D01*
X70622058Y-151985515D01*
X70711288Y-152074901D01*
X70623081Y-152162954D01*
X70465180Y-152543223D01*
X70464821Y-152954971D01*
X70622058Y-153335515D01*
X70761288Y-153474988D01*
X70623081Y-153612954D01*
X70465180Y-153993223D01*
X70464821Y-154404971D01*
X70622058Y-154785515D01*
X70761288Y-154924988D01*
X70623081Y-155062954D01*
X70465180Y-155443223D01*
X70464821Y-155854971D01*
X70622058Y-156235515D01*
X70912954Y-156526919D01*
X71293223Y-156684820D01*
X71615100Y-156685101D01*
X71614821Y-157004971D01*
X71772058Y-157385515D01*
X72011288Y-157625163D01*
X71773081Y-157862954D01*
X71615180Y-158243223D01*
X71614821Y-158654971D01*
X71772058Y-159035515D01*
X71911288Y-159174988D01*
X71773081Y-159312954D01*
X71615180Y-159693223D01*
X71614821Y-160104971D01*
X71772058Y-160485515D01*
X72061288Y-160775250D01*
X71773081Y-161062954D01*
X71615180Y-161443223D01*
X71614821Y-161854971D01*
X71772058Y-162235515D01*
X72011288Y-162475163D01*
X71773081Y-162712954D01*
X71615180Y-163093223D01*
X71614821Y-163504971D01*
X71772058Y-163885515D01*
X72062954Y-164176919D01*
X72299272Y-164275046D01*
X72064485Y-164372058D01*
X71773081Y-164662954D01*
X71615180Y-165043223D01*
X71614821Y-165454971D01*
X71772058Y-165835515D01*
X72062954Y-166126919D01*
X72443223Y-166284820D01*
X72854971Y-166285179D01*
X73082990Y-166190964D01*
X73122058Y-166285515D01*
X73412954Y-166576919D01*
X73793223Y-166734820D01*
X74204971Y-166735179D01*
X74585515Y-166577942D01*
X74876919Y-166287046D01*
X74949985Y-166111084D01*
X75022058Y-166285515D01*
X75312954Y-166576919D01*
X75615041Y-166702356D01*
X75614821Y-166954971D01*
X75772058Y-167335515D01*
X76062954Y-167626919D01*
X76359627Y-167750108D01*
X76064485Y-167872058D01*
X75849881Y-168086288D01*
X75637046Y-167873081D01*
X75256777Y-167715180D01*
X74845029Y-167714821D01*
X74464485Y-167872058D01*
X74224837Y-168111288D01*
X73987046Y-167873081D01*
X73606777Y-167715180D01*
X73195029Y-167714821D01*
X72814485Y-167872058D01*
X72524750Y-168161288D01*
X72237046Y-167873081D01*
X71856777Y-167715180D01*
X71445029Y-167714821D01*
X71064485Y-167872058D01*
X70824837Y-168111288D01*
X70587046Y-167873081D01*
X70206777Y-167715180D01*
X69795029Y-167714821D01*
X69414485Y-167872058D01*
X69123081Y-168162954D01*
X68999892Y-168459627D01*
X68877942Y-168164485D01*
X68587046Y-167873081D01*
X68224496Y-167722537D01*
X68949229Y-167423084D01*
X69620726Y-166752758D01*
X69984585Y-165876487D01*
X69985413Y-164927675D01*
X69623084Y-164050771D01*
X68952758Y-163379274D01*
X68076487Y-163015415D01*
X67127675Y-163014587D01*
X66250771Y-163376916D01*
X65579274Y-164047242D01*
X65215415Y-164923513D01*
X65214587Y-165872325D01*
X65576916Y-166749229D01*
X66247242Y-167420726D01*
X67123513Y-167784585D01*
X67625127Y-167785023D01*
X67414485Y-167872058D01*
X67123081Y-168162954D01*
X66965180Y-168543223D01*
X66964821Y-168954971D01*
X67103252Y-169290000D01*
X55991830Y-169290000D01*
X56664533Y-168618470D01*
X57234350Y-167246197D01*
X57235549Y-165872325D01*
X60214587Y-165872325D01*
X60576916Y-166749229D01*
X61247242Y-167420726D01*
X62123513Y-167784585D01*
X63072325Y-167785413D01*
X63949229Y-167423084D01*
X64620726Y-166752758D01*
X64984585Y-165876487D01*
X64985413Y-164927675D01*
X64623084Y-164050771D01*
X63952758Y-163379274D01*
X63076487Y-163015415D01*
X62127675Y-163014587D01*
X61250771Y-163376916D01*
X60579274Y-164047242D01*
X60215415Y-164923513D01*
X60214587Y-165872325D01*
X57235549Y-165872325D01*
X57235647Y-165760322D01*
X56668225Y-164387056D01*
X55618470Y-163335467D01*
X54246197Y-162765650D01*
X52760322Y-162764353D01*
X51387056Y-163331775D01*
X50710000Y-164007650D01*
X50710000Y-141915363D01*
X54564855Y-141915363D01*
X54691708Y-142222372D01*
X54926393Y-142457466D01*
X55233179Y-142584855D01*
X55565363Y-142585145D01*
X55872372Y-142458292D01*
X56107466Y-142223607D01*
X56234855Y-141916821D01*
X56235145Y-141584637D01*
X56108292Y-141277628D01*
X55873607Y-141042534D01*
X55567347Y-140915363D01*
X64564855Y-140915363D01*
X64691708Y-141222372D01*
X64926393Y-141457466D01*
X65233179Y-141584855D01*
X65565363Y-141585145D01*
X65872372Y-141458292D01*
X66107466Y-141223607D01*
X66234855Y-140916821D01*
X66235145Y-140584637D01*
X66108292Y-140277628D01*
X65873607Y-140042534D01*
X65566821Y-139915145D01*
X65234637Y-139914855D01*
X64927628Y-140041708D01*
X64692534Y-140276393D01*
X64565145Y-140583179D01*
X64564855Y-140915363D01*
X55567347Y-140915363D01*
X55566821Y-140915145D01*
X55234637Y-140914855D01*
X54927628Y-141041708D01*
X54692534Y-141276393D01*
X54565145Y-141583179D01*
X54564855Y-141915363D01*
X50710000Y-141915363D01*
X50710000Y-138365363D01*
X52014855Y-138365363D01*
X52141708Y-138672372D01*
X52376393Y-138907466D01*
X52683179Y-139034855D01*
X53015363Y-139035145D01*
X53322372Y-138908292D01*
X53415462Y-138815363D01*
X83964855Y-138815363D01*
X84091708Y-139122372D01*
X84326393Y-139357466D01*
X84633179Y-139484855D01*
X84965363Y-139485145D01*
X85272372Y-139358292D01*
X85507466Y-139123607D01*
X85634855Y-138816821D01*
X85635145Y-138484637D01*
X85508292Y-138177628D01*
X85273607Y-137942534D01*
X84966821Y-137815145D01*
X84634637Y-137814855D01*
X84327628Y-137941708D01*
X84092534Y-138176393D01*
X83965145Y-138483179D01*
X83964855Y-138815363D01*
X53415462Y-138815363D01*
X53557466Y-138673607D01*
X53684855Y-138366821D01*
X53685145Y-138034637D01*
X53558292Y-137727628D01*
X53323607Y-137492534D01*
X53137760Y-137415363D01*
X82364855Y-137415363D01*
X82491708Y-137722372D01*
X82726393Y-137957466D01*
X83033179Y-138084855D01*
X83365363Y-138085145D01*
X83672372Y-137958292D01*
X83907466Y-137723607D01*
X84034855Y-137416821D01*
X84035145Y-137084637D01*
X83908292Y-136777628D01*
X83673607Y-136542534D01*
X83366821Y-136415145D01*
X83034637Y-136414855D01*
X82727628Y-136541708D01*
X82492534Y-136776393D01*
X82365145Y-137083179D01*
X82364855Y-137415363D01*
X53137760Y-137415363D01*
X53016821Y-137365145D01*
X52684637Y-137364855D01*
X52377628Y-137491708D01*
X52142534Y-137726393D01*
X52015145Y-138033179D01*
X52014855Y-138365363D01*
X50710000Y-138365363D01*
X50710000Y-135265363D01*
X52114855Y-135265363D01*
X52241708Y-135572372D01*
X52476393Y-135807466D01*
X52783179Y-135934855D01*
X53115363Y-135935145D01*
X53422372Y-135808292D01*
X53657466Y-135573607D01*
X53784855Y-135266821D01*
X53785145Y-134934637D01*
X53658292Y-134627628D01*
X53423607Y-134392534D01*
X53116821Y-134265145D01*
X52784637Y-134264855D01*
X52477628Y-134391708D01*
X52242534Y-134626393D01*
X52115145Y-134933179D01*
X52114855Y-135265363D01*
X50710000Y-135265363D01*
X50710000Y-119329971D01*
X55189821Y-119329971D01*
X55347058Y-119710515D01*
X55637954Y-120001919D01*
X56018223Y-120159820D01*
X56429971Y-120160179D01*
X56810515Y-120002942D01*
X57101919Y-119712046D01*
X57259820Y-119331777D01*
X57259821Y-119329971D01*
X60739821Y-119329971D01*
X60897058Y-119710515D01*
X61187954Y-120001919D01*
X61568223Y-120159820D01*
X61979971Y-120160179D01*
X62360515Y-120002942D01*
X62651919Y-119712046D01*
X62809820Y-119331777D01*
X62809820Y-119330971D01*
X75710821Y-119330971D01*
X75868058Y-119711515D01*
X76158954Y-120002919D01*
X76539223Y-120160820D01*
X76950971Y-120161179D01*
X77331515Y-120003942D01*
X77622919Y-119713046D01*
X77780820Y-119332777D01*
X77780821Y-119330971D01*
X81260821Y-119330971D01*
X81418058Y-119711515D01*
X81708954Y-120002919D01*
X82089223Y-120160820D01*
X82500971Y-120161179D01*
X82881515Y-120003942D01*
X83172919Y-119713046D01*
X83330820Y-119332777D01*
X83331179Y-118921029D01*
X83173942Y-118540485D01*
X82883046Y-118249081D01*
X82502777Y-118091180D01*
X82091029Y-118090821D01*
X81710485Y-118248058D01*
X81419081Y-118538954D01*
X81261180Y-118919223D01*
X81260821Y-119330971D01*
X77780821Y-119330971D01*
X77781179Y-118921029D01*
X77623942Y-118540485D01*
X77333046Y-118249081D01*
X76952777Y-118091180D01*
X76541029Y-118090821D01*
X76160485Y-118248058D01*
X75869081Y-118538954D01*
X75711180Y-118919223D01*
X75710821Y-119330971D01*
X62809820Y-119330971D01*
X62810179Y-118920029D01*
X62652942Y-118539485D01*
X62362046Y-118248081D01*
X61981777Y-118090180D01*
X61570029Y-118089821D01*
X61189485Y-118247058D01*
X60898081Y-118537954D01*
X60740180Y-118918223D01*
X60739821Y-119329971D01*
X57259821Y-119329971D01*
X57260179Y-118920029D01*
X57102942Y-118539485D01*
X56812046Y-118248081D01*
X56431777Y-118090180D01*
X56020029Y-118089821D01*
X55639485Y-118247058D01*
X55348081Y-118537954D01*
X55190180Y-118918223D01*
X55189821Y-119329971D01*
X50710000Y-119329971D01*
X50710000Y-114479971D01*
X55189821Y-114479971D01*
X55347058Y-114860515D01*
X55637954Y-115151919D01*
X56018223Y-115309820D01*
X56429971Y-115310179D01*
X56810515Y-115152942D01*
X57101919Y-114862046D01*
X57259820Y-114481777D01*
X57259821Y-114479971D01*
X60739821Y-114479971D01*
X60897058Y-114860515D01*
X61187954Y-115151919D01*
X61568223Y-115309820D01*
X61979971Y-115310179D01*
X62360515Y-115152942D01*
X62651919Y-114862046D01*
X62809820Y-114481777D01*
X62809820Y-114480971D01*
X75710821Y-114480971D01*
X75868058Y-114861515D01*
X76158954Y-115152919D01*
X76539223Y-115310820D01*
X76950971Y-115311179D01*
X77331515Y-115153942D01*
X77622919Y-114863046D01*
X77780820Y-114482777D01*
X77780821Y-114480971D01*
X81260821Y-114480971D01*
X81418058Y-114861515D01*
X81708954Y-115152919D01*
X82089223Y-115310820D01*
X82500971Y-115311179D01*
X82881515Y-115153942D01*
X83172919Y-114863046D01*
X83330820Y-114482777D01*
X83331179Y-114071029D01*
X83173942Y-113690485D01*
X82883046Y-113399081D01*
X82502777Y-113241180D01*
X82091029Y-113240821D01*
X81710485Y-113398058D01*
X81419081Y-113688954D01*
X81261180Y-114069223D01*
X81260821Y-114480971D01*
X77780821Y-114480971D01*
X77781179Y-114071029D01*
X77623942Y-113690485D01*
X77333046Y-113399081D01*
X76952777Y-113241180D01*
X76541029Y-113240821D01*
X76160485Y-113398058D01*
X75869081Y-113688954D01*
X75711180Y-114069223D01*
X75710821Y-114480971D01*
X62809820Y-114480971D01*
X62810179Y-114070029D01*
X62652942Y-113689485D01*
X62362046Y-113398081D01*
X61981777Y-113240180D01*
X61570029Y-113239821D01*
X61189485Y-113397058D01*
X60898081Y-113687954D01*
X60740180Y-114068223D01*
X60739821Y-114479971D01*
X57259821Y-114479971D01*
X57260179Y-114070029D01*
X57102942Y-113689485D01*
X56812046Y-113398081D01*
X56431777Y-113240180D01*
X56020029Y-113239821D01*
X55639485Y-113397058D01*
X55348081Y-113687954D01*
X55190180Y-114068223D01*
X55189821Y-114479971D01*
X50710000Y-114479971D01*
X50710000Y-110654971D01*
X51764821Y-110654971D01*
X51922058Y-111035515D01*
X52212954Y-111326919D01*
X52593223Y-111484820D01*
X53004971Y-111485179D01*
X53385515Y-111327942D01*
X53676919Y-111037046D01*
X53834820Y-110656777D01*
X53835179Y-110245029D01*
X53677942Y-109864485D01*
X53387046Y-109573081D01*
X53006777Y-109415180D01*
X52595029Y-109414821D01*
X52214485Y-109572058D01*
X51923081Y-109862954D01*
X51765180Y-110243223D01*
X51764821Y-110654971D01*
X50710000Y-110654971D01*
X50710000Y-104804971D01*
X51764821Y-104804971D01*
X51922058Y-105185515D01*
X52212954Y-105476919D01*
X52328561Y-105524923D01*
X52214485Y-105572058D01*
X51923081Y-105862954D01*
X51765180Y-106243223D01*
X51764821Y-106654971D01*
X51922058Y-107035515D01*
X52212954Y-107326919D01*
X52388916Y-107399985D01*
X52214485Y-107472058D01*
X51923081Y-107762954D01*
X51765180Y-108143223D01*
X51764821Y-108554971D01*
X51922058Y-108935515D01*
X52212954Y-109226919D01*
X52593223Y-109384820D01*
X53004971Y-109385179D01*
X53385515Y-109227942D01*
X53608875Y-109004971D01*
X72564821Y-109004971D01*
X72722058Y-109385515D01*
X73012954Y-109676919D01*
X73128561Y-109724923D01*
X73014485Y-109772058D01*
X72723081Y-110062954D01*
X72565180Y-110443223D01*
X72564821Y-110854971D01*
X72722058Y-111235515D01*
X73012954Y-111526919D01*
X73393223Y-111684820D01*
X73804971Y-111685179D01*
X74185515Y-111527942D01*
X74476919Y-111237046D01*
X74634820Y-110856777D01*
X74635179Y-110445029D01*
X74477942Y-110064485D01*
X74187046Y-109773081D01*
X74071439Y-109725077D01*
X74185515Y-109677942D01*
X74476919Y-109387046D01*
X74634820Y-109006777D01*
X74635179Y-108595029D01*
X74477942Y-108214485D01*
X74187046Y-107923081D01*
X73806777Y-107765180D01*
X73395029Y-107764821D01*
X73014485Y-107922058D01*
X72723081Y-108212954D01*
X72565180Y-108593223D01*
X72564821Y-109004971D01*
X53608875Y-109004971D01*
X53676919Y-108937046D01*
X53834820Y-108556777D01*
X53835179Y-108145029D01*
X53677942Y-107764485D01*
X53628906Y-107715363D01*
X54764855Y-107715363D01*
X54891708Y-108022372D01*
X55126393Y-108257466D01*
X55433179Y-108384855D01*
X55765363Y-108385145D01*
X56072372Y-108258292D01*
X56307466Y-108023607D01*
X56434855Y-107716821D01*
X56434855Y-107716363D01*
X75285855Y-107716363D01*
X75412708Y-108023372D01*
X75647393Y-108258466D01*
X75954179Y-108385855D01*
X76286363Y-108386145D01*
X76593372Y-108259292D01*
X76828466Y-108024607D01*
X76955855Y-107717821D01*
X76956145Y-107385637D01*
X76829292Y-107078628D01*
X76594607Y-106843534D01*
X76287821Y-106716145D01*
X75955637Y-106715855D01*
X75648628Y-106842708D01*
X75413534Y-107077393D01*
X75286145Y-107384179D01*
X75285855Y-107716363D01*
X56434855Y-107716363D01*
X56435145Y-107384637D01*
X56308292Y-107077628D01*
X56073607Y-106842534D01*
X55766821Y-106715145D01*
X55434637Y-106714855D01*
X55127628Y-106841708D01*
X54892534Y-107076393D01*
X54765145Y-107383179D01*
X54764855Y-107715363D01*
X53628906Y-107715363D01*
X53387046Y-107473081D01*
X53211084Y-107400015D01*
X53385515Y-107327942D01*
X53676919Y-107037046D01*
X53834820Y-106656777D01*
X53835179Y-106245029D01*
X53735990Y-106004971D01*
X72564821Y-106004971D01*
X72722058Y-106385515D01*
X73012954Y-106676919D01*
X73393223Y-106834820D01*
X73804971Y-106835179D01*
X74185515Y-106677942D01*
X74476919Y-106387046D01*
X74634820Y-106006777D01*
X74635179Y-105595029D01*
X74477942Y-105214485D01*
X74187046Y-104923081D01*
X73806777Y-104765180D01*
X73395029Y-104764821D01*
X73014485Y-104922058D01*
X72723081Y-105212954D01*
X72565180Y-105593223D01*
X72564821Y-106004971D01*
X53735990Y-106004971D01*
X53677942Y-105864485D01*
X53387046Y-105573081D01*
X53271439Y-105525077D01*
X53385515Y-105477942D01*
X53676919Y-105187046D01*
X53834820Y-104806777D01*
X53835179Y-104395029D01*
X53677942Y-104014485D01*
X53387046Y-103723081D01*
X53343433Y-103704971D01*
X72564821Y-103704971D01*
X72722058Y-104085515D01*
X73012954Y-104376919D01*
X73393223Y-104534820D01*
X73804971Y-104535179D01*
X74185515Y-104377942D01*
X74198115Y-104365363D01*
X77014855Y-104365363D01*
X77141708Y-104672372D01*
X77376393Y-104907466D01*
X77683179Y-105034855D01*
X78015363Y-105035145D01*
X78322372Y-104908292D01*
X78557466Y-104673607D01*
X78684855Y-104366821D01*
X78685145Y-104034637D01*
X78558292Y-103727628D01*
X78323607Y-103492534D01*
X78016821Y-103365145D01*
X77684637Y-103364855D01*
X77377628Y-103491708D01*
X77142534Y-103726393D01*
X77015145Y-104033179D01*
X77014855Y-104365363D01*
X74198115Y-104365363D01*
X74476919Y-104087046D01*
X74634820Y-103706777D01*
X74635179Y-103295029D01*
X74477942Y-102914485D01*
X74187046Y-102623081D01*
X73806777Y-102465180D01*
X73395029Y-102464821D01*
X73014485Y-102622058D01*
X72723081Y-102912954D01*
X72565180Y-103293223D01*
X72564821Y-103704971D01*
X53343433Y-103704971D01*
X53006777Y-103565180D01*
X52595029Y-103564821D01*
X52214485Y-103722058D01*
X51923081Y-104012954D01*
X51765180Y-104393223D01*
X51764821Y-104804971D01*
X50710000Y-104804971D01*
X50710000Y-102654971D01*
X51764821Y-102654971D01*
X51922058Y-103035515D01*
X52212954Y-103326919D01*
X52593223Y-103484820D01*
X53004971Y-103485179D01*
X53385515Y-103327942D01*
X53676919Y-103037046D01*
X53834820Y-102656777D01*
X53835179Y-102245029D01*
X53677942Y-101864485D01*
X53387046Y-101573081D01*
X53102605Y-101454971D01*
X72714821Y-101454971D01*
X72872058Y-101835515D01*
X73162954Y-102126919D01*
X73543223Y-102284820D01*
X73954971Y-102285179D01*
X74335515Y-102127942D01*
X74404606Y-102058971D01*
X76466821Y-102058971D01*
X76624058Y-102439515D01*
X76914954Y-102730919D01*
X77295223Y-102888820D01*
X77706971Y-102889179D01*
X78087515Y-102731942D01*
X78378919Y-102441046D01*
X78536820Y-102060777D01*
X78537179Y-101649029D01*
X78379942Y-101268485D01*
X78089046Y-100977081D01*
X77708777Y-100819180D01*
X77297029Y-100818821D01*
X76916485Y-100976058D01*
X76625081Y-101266954D01*
X76467180Y-101647223D01*
X76466821Y-102058971D01*
X74404606Y-102058971D01*
X74626919Y-101837046D01*
X74784820Y-101456777D01*
X74785179Y-101045029D01*
X74627942Y-100664485D01*
X74337046Y-100373081D01*
X74004624Y-100235048D01*
X74154971Y-100235179D01*
X74535515Y-100077942D01*
X74826919Y-99787046D01*
X74984820Y-99406777D01*
X74985179Y-98995029D01*
X74827942Y-98614485D01*
X74588712Y-98374837D01*
X74826919Y-98137046D01*
X74984820Y-97756777D01*
X74985179Y-97345029D01*
X74827942Y-96964485D01*
X74537046Y-96673081D01*
X74156777Y-96515180D01*
X73745029Y-96514821D01*
X73364485Y-96672058D01*
X73073081Y-96962954D01*
X72915180Y-97343223D01*
X72914821Y-97754971D01*
X73072058Y-98135515D01*
X73311288Y-98375163D01*
X73073081Y-98612954D01*
X72915180Y-98993223D01*
X72914821Y-99404971D01*
X73072058Y-99785515D01*
X73362954Y-100076919D01*
X73695376Y-100214952D01*
X73545029Y-100214821D01*
X73164485Y-100372058D01*
X72873081Y-100662954D01*
X72715180Y-101043223D01*
X72714821Y-101454971D01*
X53102605Y-101454971D01*
X53006777Y-101415180D01*
X52595029Y-101414821D01*
X52214485Y-101572058D01*
X51923081Y-101862954D01*
X51765180Y-102243223D01*
X51764821Y-102654971D01*
X50710000Y-102654971D01*
X50710000Y-99354971D01*
X52514821Y-99354971D01*
X52672058Y-99735515D01*
X52962954Y-100026919D01*
X53343223Y-100184820D01*
X53754971Y-100185179D01*
X54135515Y-100027942D01*
X54426919Y-99737046D01*
X54584820Y-99356777D01*
X54585179Y-98945029D01*
X54427942Y-98564485D01*
X54137046Y-98273081D01*
X53756777Y-98115180D01*
X53345029Y-98114821D01*
X52964485Y-98272058D01*
X52673081Y-98562954D01*
X52515180Y-98943223D01*
X52514821Y-99354971D01*
X50710000Y-99354971D01*
X50710000Y-96504971D01*
X52114821Y-96504971D01*
X52272058Y-96885515D01*
X52562954Y-97176919D01*
X52943223Y-97334820D01*
X53354971Y-97335179D01*
X53735515Y-97177942D01*
X54026919Y-96887046D01*
X54184820Y-96506777D01*
X54185179Y-96095029D01*
X54027942Y-95714485D01*
X53737046Y-95423081D01*
X53356777Y-95265180D01*
X52945029Y-95264821D01*
X52564485Y-95422058D01*
X52273081Y-95712954D01*
X52115180Y-96093223D01*
X52114821Y-96504971D01*
X50710000Y-96504971D01*
X50710000Y-93854971D01*
X53314821Y-93854971D01*
X53472058Y-94235515D01*
X53762954Y-94526919D01*
X54143223Y-94684820D01*
X54554971Y-94685179D01*
X54935515Y-94527942D01*
X55226919Y-94237046D01*
X55248542Y-94184971D01*
X73918821Y-94184971D01*
X74076058Y-94565515D01*
X74366954Y-94856919D01*
X74747223Y-95014820D01*
X75158971Y-95015179D01*
X75539515Y-94857942D01*
X75830919Y-94567046D01*
X75988820Y-94186777D01*
X75989179Y-93775029D01*
X75831942Y-93394485D01*
X75541046Y-93103081D01*
X75160777Y-92945180D01*
X74749029Y-92944821D01*
X74368485Y-93102058D01*
X74077081Y-93392954D01*
X73919180Y-93773223D01*
X73918821Y-94184971D01*
X55248542Y-94184971D01*
X55384820Y-93856777D01*
X55385179Y-93445029D01*
X55227942Y-93064485D01*
X54937046Y-92773081D01*
X54556777Y-92615180D01*
X54145029Y-92614821D01*
X53764485Y-92772058D01*
X53473081Y-93062954D01*
X53315180Y-93443223D01*
X53314821Y-93854971D01*
X50710000Y-93854971D01*
X50710000Y-89104971D01*
X53314821Y-89104971D01*
X53472058Y-89485515D01*
X53762954Y-89776919D01*
X54143223Y-89934820D01*
X54554971Y-89935179D01*
X54935515Y-89777942D01*
X55226919Y-89487046D01*
X55280100Y-89358971D01*
X73918821Y-89358971D01*
X74076058Y-89739515D01*
X74366954Y-90030919D01*
X74747223Y-90188820D01*
X75158971Y-90189179D01*
X75539515Y-90031942D01*
X75830919Y-89741046D01*
X75988820Y-89360777D01*
X75989179Y-88949029D01*
X75831942Y-88568485D01*
X75541046Y-88277081D01*
X75160777Y-88119180D01*
X74749029Y-88118821D01*
X74368485Y-88276058D01*
X74077081Y-88566954D01*
X73919180Y-88947223D01*
X73918821Y-89358971D01*
X55280100Y-89358971D01*
X55384820Y-89106777D01*
X55385179Y-88695029D01*
X55227942Y-88314485D01*
X54937046Y-88023081D01*
X54793229Y-87963363D01*
X84254855Y-87963363D01*
X84381708Y-88270372D01*
X84616393Y-88505466D01*
X84923179Y-88632855D01*
X85255363Y-88633145D01*
X85562372Y-88506292D01*
X85797466Y-88271607D01*
X85924855Y-87964821D01*
X85925145Y-87632637D01*
X85798292Y-87325628D01*
X85563607Y-87090534D01*
X85256821Y-86963145D01*
X84924637Y-86962855D01*
X84617628Y-87089708D01*
X84382534Y-87324393D01*
X84255145Y-87631179D01*
X84254855Y-87963363D01*
X54793229Y-87963363D01*
X54556777Y-87865180D01*
X54145029Y-87864821D01*
X53764485Y-88022058D01*
X53473081Y-88312954D01*
X53315180Y-88693223D01*
X53314821Y-89104971D01*
X50710000Y-89104971D01*
X50710000Y-82415305D01*
X59938674Y-82415305D01*
X60225043Y-83108372D01*
X60754839Y-83639093D01*
X61447405Y-83926672D01*
X62197305Y-83927326D01*
X62890372Y-83640957D01*
X63421093Y-83111161D01*
X63708672Y-82418595D01*
X63709326Y-81668695D01*
X63598017Y-81399305D01*
X80004674Y-81399305D01*
X80291043Y-82092372D01*
X80820839Y-82623093D01*
X81513405Y-82910672D01*
X82263305Y-82911326D01*
X82956372Y-82624957D01*
X83487093Y-82095161D01*
X83489650Y-82089002D01*
X83491043Y-82092372D01*
X84020839Y-82623093D01*
X84713405Y-82910672D01*
X85463305Y-82911326D01*
X86156372Y-82624957D01*
X86687093Y-82095161D01*
X86974672Y-81402595D01*
X86975326Y-80652695D01*
X86688957Y-79959628D01*
X86159161Y-79428907D01*
X85466595Y-79141328D01*
X84716695Y-79140674D01*
X84023628Y-79427043D01*
X83492907Y-79956839D01*
X83490350Y-79962998D01*
X83488957Y-79959628D01*
X82959161Y-79428907D01*
X82266595Y-79141328D01*
X81516695Y-79140674D01*
X80823628Y-79427043D01*
X80292907Y-79956839D01*
X80005328Y-80649405D01*
X80004674Y-81399305D01*
X63598017Y-81399305D01*
X63422957Y-80975628D01*
X62893161Y-80444907D01*
X62200595Y-80157328D01*
X61450695Y-80156674D01*
X60757628Y-80443043D01*
X60226907Y-80972839D01*
X59939328Y-81665405D01*
X59938674Y-82415305D01*
X50710000Y-82415305D01*
X50710000Y-77865363D01*
X55127855Y-77865363D01*
X55254708Y-78172372D01*
X55489393Y-78407466D01*
X55796179Y-78534855D01*
X56128363Y-78535145D01*
X56435372Y-78408292D01*
X56670466Y-78173607D01*
X56797855Y-77866821D01*
X56798145Y-77534637D01*
X56671292Y-77227628D01*
X56436607Y-76992534D01*
X56129821Y-76865145D01*
X55797637Y-76864855D01*
X55490628Y-76991708D01*
X55255534Y-77226393D01*
X55128145Y-77533179D01*
X55127855Y-77865363D01*
X50710000Y-77865363D01*
X50710000Y-76365363D01*
X52314355Y-76365363D01*
X52441208Y-76672372D01*
X52675893Y-76907466D01*
X52982679Y-77034855D01*
X53314863Y-77035145D01*
X53621872Y-76908292D01*
X53815137Y-76715363D01*
X57814855Y-76715363D01*
X57941708Y-77022372D01*
X58176393Y-77257466D01*
X58483179Y-77384855D01*
X58815363Y-77385145D01*
X59122372Y-77258292D01*
X59357466Y-77023607D01*
X59484855Y-76716821D01*
X59485145Y-76384637D01*
X59358292Y-76077628D01*
X59123607Y-75842534D01*
X58816821Y-75715145D01*
X58484637Y-75714855D01*
X58177628Y-75841708D01*
X57942534Y-76076393D01*
X57815145Y-76383179D01*
X57814855Y-76715363D01*
X53815137Y-76715363D01*
X53856966Y-76673607D01*
X53984355Y-76366821D01*
X53984645Y-76034637D01*
X53857792Y-75727628D01*
X53623107Y-75492534D01*
X53316321Y-75365145D01*
X52984137Y-75364855D01*
X52677128Y-75491708D01*
X52442034Y-75726393D01*
X52314645Y-76033179D01*
X52314355Y-76365363D01*
X50710000Y-76365363D01*
X50710000Y-72965363D01*
X54614855Y-72965363D01*
X54741708Y-73272372D01*
X54976393Y-73507466D01*
X55283179Y-73634855D01*
X55615363Y-73635145D01*
X55922372Y-73508292D01*
X56157466Y-73273607D01*
X56284855Y-72966821D01*
X56285145Y-72634637D01*
X56158292Y-72327628D01*
X55923607Y-72092534D01*
X55616821Y-71965145D01*
X55284637Y-71964855D01*
X54977628Y-72091708D01*
X54742534Y-72326393D01*
X54615145Y-72633179D01*
X54614855Y-72965363D01*
X50710000Y-72965363D01*
X50710000Y-71574775D01*
X59114803Y-71574775D01*
X59287233Y-71992086D01*
X59606235Y-72311645D01*
X60023244Y-72484803D01*
X60474775Y-72485197D01*
X60892086Y-72312767D01*
X61211645Y-71993765D01*
X61384803Y-71576756D01*
X61385197Y-71125225D01*
X61212767Y-70707914D01*
X60893765Y-70388355D01*
X60476756Y-70215197D01*
X60025225Y-70214803D01*
X59607914Y-70387233D01*
X59288355Y-70706235D01*
X59115197Y-71123244D01*
X59114803Y-71574775D01*
X50710000Y-71574775D01*
X50710000Y-69965363D01*
X53364855Y-69965363D01*
X53491708Y-70272372D01*
X53726393Y-70507466D01*
X54033179Y-70634855D01*
X54365363Y-70635145D01*
X54672372Y-70508292D01*
X54907466Y-70273607D01*
X55034855Y-69966821D01*
X55034856Y-69965363D01*
X56464855Y-69965363D01*
X56591708Y-70272372D01*
X56826393Y-70507466D01*
X57133179Y-70634855D01*
X57465363Y-70635145D01*
X57772372Y-70508292D01*
X58007466Y-70273607D01*
X58134855Y-69966821D01*
X58135145Y-69634637D01*
X58008292Y-69327628D01*
X57773607Y-69092534D01*
X57466821Y-68965145D01*
X57134637Y-68964855D01*
X56827628Y-69091708D01*
X56592534Y-69326393D01*
X56465145Y-69633179D01*
X56464855Y-69965363D01*
X55034856Y-69965363D01*
X55035145Y-69634637D01*
X54908292Y-69327628D01*
X54673607Y-69092534D01*
X54366821Y-68965145D01*
X54034637Y-68964855D01*
X53727628Y-69091708D01*
X53492534Y-69326393D01*
X53365145Y-69633179D01*
X53364855Y-69965363D01*
X50710000Y-69965363D01*
X50710000Y-67965363D01*
X53364855Y-67965363D01*
X53491708Y-68272372D01*
X53726393Y-68507466D01*
X54033179Y-68634855D01*
X54365363Y-68635145D01*
X54672372Y-68508292D01*
X54907466Y-68273607D01*
X55034855Y-67966821D01*
X55034856Y-67965363D01*
X56464855Y-67965363D01*
X56591708Y-68272372D01*
X56826393Y-68507466D01*
X57133179Y-68634855D01*
X57465363Y-68635145D01*
X57772372Y-68508292D01*
X58007466Y-68273607D01*
X58134855Y-67966821D01*
X58134961Y-67845363D01*
X74864855Y-67845363D01*
X74991708Y-68152372D01*
X75226393Y-68387466D01*
X75533179Y-68514855D01*
X75865363Y-68515145D01*
X76172372Y-68388292D01*
X76407466Y-68153607D01*
X76534855Y-67846821D01*
X76535145Y-67514637D01*
X76408292Y-67207628D01*
X76173607Y-66972534D01*
X75866821Y-66845145D01*
X75534637Y-66844855D01*
X75227628Y-66971708D01*
X74992534Y-67206393D01*
X74865145Y-67513179D01*
X74864855Y-67845363D01*
X58134961Y-67845363D01*
X58135145Y-67634637D01*
X58008292Y-67327628D01*
X57773607Y-67092534D01*
X57466821Y-66965145D01*
X57134637Y-66964855D01*
X56827628Y-67091708D01*
X56592534Y-67326393D01*
X56465145Y-67633179D01*
X56464855Y-67965363D01*
X55034856Y-67965363D01*
X55035145Y-67634637D01*
X54908292Y-67327628D01*
X54673607Y-67092534D01*
X54366821Y-66965145D01*
X54034637Y-66964855D01*
X53727628Y-67091708D01*
X53492534Y-67326393D01*
X53365145Y-67633179D01*
X53364855Y-67965363D01*
X50710000Y-67965363D01*
X50710000Y-65115363D01*
X54114855Y-65115363D01*
X54241708Y-65422372D01*
X54476393Y-65657466D01*
X54783179Y-65784855D01*
X55115363Y-65785145D01*
X55422372Y-65658292D01*
X55657466Y-65423607D01*
X55784855Y-65116821D01*
X55785145Y-64784637D01*
X55658292Y-64477628D01*
X55423607Y-64242534D01*
X55116821Y-64115145D01*
X54784637Y-64114855D01*
X54477628Y-64241708D01*
X54242534Y-64476393D01*
X54115145Y-64783179D01*
X54114855Y-65115363D01*
X50710000Y-65115363D01*
X50710000Y-64174775D01*
X51564803Y-64174775D01*
X51737233Y-64592086D01*
X52056235Y-64911645D01*
X52473244Y-65084803D01*
X52924775Y-65085197D01*
X53342086Y-64912767D01*
X53661645Y-64593765D01*
X53834803Y-64176756D01*
X53834926Y-64035363D01*
X74864855Y-64035363D01*
X74991708Y-64342372D01*
X75154131Y-64505078D01*
X74992534Y-64666393D01*
X74865145Y-64973179D01*
X74864855Y-65305363D01*
X74991708Y-65612372D01*
X75226393Y-65847466D01*
X75533179Y-65974855D01*
X75865363Y-65975145D01*
X76172372Y-65848292D01*
X76407466Y-65613607D01*
X76534855Y-65306821D01*
X76535145Y-64974637D01*
X76408292Y-64667628D01*
X76245869Y-64504922D01*
X76407466Y-64343607D01*
X76534855Y-64036821D01*
X76535145Y-63704637D01*
X76408292Y-63397628D01*
X76173607Y-63162534D01*
X75866821Y-63035145D01*
X75534637Y-63034855D01*
X75227628Y-63161708D01*
X74992534Y-63396393D01*
X74865145Y-63703179D01*
X74864855Y-64035363D01*
X53834926Y-64035363D01*
X53835197Y-63725225D01*
X53662767Y-63307914D01*
X53343765Y-62988355D01*
X52926756Y-62815197D01*
X52475225Y-62814803D01*
X52057914Y-62987233D01*
X51738355Y-63306235D01*
X51565197Y-63723244D01*
X51564803Y-64174775D01*
X50710000Y-64174775D01*
X50710000Y-61230364D01*
X78136625Y-61230364D01*
X78263478Y-61537373D01*
X78498163Y-61772467D01*
X78804949Y-61899856D01*
X79137133Y-61900146D01*
X79444142Y-61773293D01*
X79679236Y-61538608D01*
X79806625Y-61231822D01*
X79806915Y-60899638D01*
X79680062Y-60592629D01*
X79445377Y-60357535D01*
X79138591Y-60230146D01*
X78806407Y-60229856D01*
X78499398Y-60356709D01*
X78264304Y-60591394D01*
X78136915Y-60898180D01*
X78136625Y-61230364D01*
X50710000Y-61230364D01*
X50710000Y-60224775D01*
X54264803Y-60224775D01*
X54437233Y-60642086D01*
X54756235Y-60961645D01*
X55173244Y-61134803D01*
X55624775Y-61135197D01*
X56042086Y-60962767D01*
X56361645Y-60643765D01*
X56534803Y-60226756D01*
X56535161Y-59815363D01*
X81814855Y-59815363D01*
X81941708Y-60122372D01*
X82176393Y-60357466D01*
X82483179Y-60484855D01*
X82815363Y-60485145D01*
X83122372Y-60358292D01*
X83357466Y-60123607D01*
X83484855Y-59816821D01*
X83485145Y-59484637D01*
X83358292Y-59177628D01*
X83123607Y-58942534D01*
X82816821Y-58815145D01*
X82484637Y-58814855D01*
X82177628Y-58941708D01*
X81942534Y-59176393D01*
X81815145Y-59483179D01*
X81814855Y-59815363D01*
X56535161Y-59815363D01*
X56535197Y-59775225D01*
X56362767Y-59357914D01*
X56043765Y-59038355D01*
X55626756Y-58865197D01*
X55175225Y-58864803D01*
X54757914Y-59037233D01*
X54438355Y-59356235D01*
X54265197Y-59773244D01*
X54264803Y-60224775D01*
X50710000Y-60224775D01*
X50710000Y-57924775D01*
X54364803Y-57924775D01*
X54537233Y-58342086D01*
X54856235Y-58661645D01*
X55273244Y-58834803D01*
X55724775Y-58835197D01*
X56142086Y-58662767D01*
X56461645Y-58343765D01*
X56634803Y-57926756D01*
X56635197Y-57475225D01*
X56462767Y-57057914D01*
X56143765Y-56738355D01*
X55726756Y-56565197D01*
X55275225Y-56564803D01*
X54857914Y-56737233D01*
X54538355Y-57056235D01*
X54365197Y-57473244D01*
X54364803Y-57924775D01*
X50710000Y-57924775D01*
X50710000Y-55365363D01*
X52464855Y-55365363D01*
X52591708Y-55672372D01*
X52826393Y-55907466D01*
X53133179Y-56034855D01*
X53465363Y-56035145D01*
X53513239Y-56015363D01*
X58969845Y-56015363D01*
X59062919Y-56240620D01*
X58970135Y-56464067D01*
X58969845Y-56796251D01*
X59096698Y-57103260D01*
X59166774Y-57173458D01*
X59097524Y-57242588D01*
X58970135Y-57549374D01*
X58969845Y-57881558D01*
X59096698Y-58188567D01*
X59297122Y-58389340D01*
X59296933Y-58606070D01*
X59423786Y-58913079D01*
X59658471Y-59148173D01*
X59965257Y-59275562D01*
X60297441Y-59275852D01*
X60604450Y-59148999D01*
X60788406Y-58965363D01*
X79514855Y-58965363D01*
X79641708Y-59272372D01*
X79876393Y-59507466D01*
X80183179Y-59634855D01*
X80515363Y-59635145D01*
X80822372Y-59508292D01*
X81057466Y-59273607D01*
X81184855Y-58966821D01*
X81185145Y-58634637D01*
X81058292Y-58327628D01*
X80823607Y-58092534D01*
X80516821Y-57965145D01*
X80184637Y-57964855D01*
X79877628Y-58091708D01*
X79642534Y-58326393D01*
X79515145Y-58633179D01*
X79514855Y-58965363D01*
X60788406Y-58965363D01*
X60839544Y-58914314D01*
X60966933Y-58607528D01*
X60967223Y-58275344D01*
X60921780Y-58165363D01*
X63814855Y-58165363D01*
X63941708Y-58472372D01*
X64176393Y-58707466D01*
X64483179Y-58834855D01*
X64815363Y-58835145D01*
X65122372Y-58708292D01*
X65357466Y-58473607D01*
X65484855Y-58166821D01*
X65485145Y-57834637D01*
X65398433Y-57624775D01*
X81014803Y-57624775D01*
X81187233Y-58042086D01*
X81506235Y-58361645D01*
X81923244Y-58534803D01*
X82374775Y-58535197D01*
X82792086Y-58362767D01*
X83111645Y-58043765D01*
X83284803Y-57626756D01*
X83285197Y-57175225D01*
X83112767Y-56757914D01*
X82793765Y-56438355D01*
X82376756Y-56265197D01*
X81925225Y-56264803D01*
X81507914Y-56437233D01*
X81188355Y-56756235D01*
X81015197Y-57173244D01*
X81014803Y-57624775D01*
X65398433Y-57624775D01*
X65358292Y-57527628D01*
X65123607Y-57292534D01*
X64816821Y-57165145D01*
X64484637Y-57164855D01*
X64177628Y-57291708D01*
X63942534Y-57526393D01*
X63815145Y-57833179D01*
X63814855Y-58165363D01*
X60921780Y-58165363D01*
X60840370Y-57968335D01*
X60639946Y-57767562D01*
X60640135Y-57550832D01*
X60513282Y-57243823D01*
X60443206Y-57173625D01*
X60512456Y-57104495D01*
X60639845Y-56797709D01*
X60640091Y-56515363D01*
X64264855Y-56515363D01*
X64391708Y-56822372D01*
X64626393Y-57057466D01*
X64933179Y-57184855D01*
X65265363Y-57185145D01*
X65572372Y-57058292D01*
X65807466Y-56823607D01*
X65934855Y-56516821D01*
X65935145Y-56184637D01*
X65808292Y-55877628D01*
X65796500Y-55865815D01*
X66083179Y-55984855D01*
X66415363Y-55985145D01*
X66572097Y-55920384D01*
X69364855Y-55920384D01*
X69491708Y-56227393D01*
X69726393Y-56462487D01*
X70033179Y-56589876D01*
X70365363Y-56590166D01*
X70672372Y-56463313D01*
X70907466Y-56228628D01*
X71034855Y-55921842D01*
X71035145Y-55589658D01*
X70908292Y-55282649D01*
X70750693Y-55124775D01*
X80414803Y-55124775D01*
X80587233Y-55542086D01*
X80906235Y-55861645D01*
X81323244Y-56034803D01*
X81774775Y-56035197D01*
X82192086Y-55862767D01*
X82511645Y-55543765D01*
X82684803Y-55126756D01*
X82685197Y-54675225D01*
X82512767Y-54257914D01*
X82193765Y-53938355D01*
X81776756Y-53765197D01*
X81325225Y-53764803D01*
X80907914Y-53937233D01*
X80588355Y-54256235D01*
X80415197Y-54673244D01*
X80414803Y-55124775D01*
X70750693Y-55124775D01*
X70673607Y-55047555D01*
X70366821Y-54920166D01*
X70034637Y-54919876D01*
X69727628Y-55046729D01*
X69492534Y-55281414D01*
X69365145Y-55588200D01*
X69364855Y-55920384D01*
X66572097Y-55920384D01*
X66722372Y-55858292D01*
X66957466Y-55623607D01*
X67084855Y-55316821D01*
X67085145Y-54984637D01*
X66958292Y-54677628D01*
X66723607Y-54442534D01*
X66602279Y-54392154D01*
X66577987Y-54333362D01*
X66584855Y-54316821D01*
X66585145Y-53984637D01*
X66577182Y-53965363D01*
X71664855Y-53965363D01*
X71791708Y-54272372D01*
X72026393Y-54507466D01*
X72333179Y-54634855D01*
X72665363Y-54635145D01*
X72972372Y-54508292D01*
X73207466Y-54273607D01*
X73334855Y-53966821D01*
X73335092Y-53695594D01*
X73557466Y-53473607D01*
X73684855Y-53166821D01*
X73685145Y-52834637D01*
X73577773Y-52574775D01*
X80414803Y-52574775D01*
X80587233Y-52992086D01*
X80906235Y-53311645D01*
X81323244Y-53484803D01*
X81774775Y-53485197D01*
X82192086Y-53312767D01*
X82511645Y-52993765D01*
X82684803Y-52576756D01*
X82684813Y-52564971D01*
X90414821Y-52564971D01*
X90572058Y-52945515D01*
X90862954Y-53236919D01*
X91243223Y-53394820D01*
X91654971Y-53395179D01*
X92035515Y-53237942D01*
X92326919Y-52947046D01*
X92484820Y-52566777D01*
X92485179Y-52155029D01*
X92327942Y-51774485D01*
X92037046Y-51483081D01*
X91656777Y-51325180D01*
X91245029Y-51324821D01*
X90864485Y-51482058D01*
X90573081Y-51772954D01*
X90415180Y-52153223D01*
X90414821Y-52564971D01*
X82684813Y-52564971D01*
X82685197Y-52125225D01*
X82512767Y-51707914D01*
X82193765Y-51388355D01*
X81776756Y-51215197D01*
X81325225Y-51214803D01*
X80907914Y-51387233D01*
X80588355Y-51706235D01*
X80415197Y-52123244D01*
X80414803Y-52574775D01*
X73577773Y-52574775D01*
X73558292Y-52527628D01*
X73380956Y-52349983D01*
X73457466Y-52273607D01*
X73584855Y-51966821D01*
X73585145Y-51634637D01*
X73486036Y-51394774D01*
X73636781Y-51244292D01*
X73764170Y-50937506D01*
X73764460Y-50605322D01*
X73637607Y-50298313D01*
X73402922Y-50063219D01*
X73310339Y-50024775D01*
X80414803Y-50024775D01*
X80587233Y-50442086D01*
X80906235Y-50761645D01*
X81323244Y-50934803D01*
X81774775Y-50935197D01*
X82192086Y-50762767D01*
X82511645Y-50443765D01*
X82684803Y-50026756D01*
X82684804Y-50024971D01*
X90414821Y-50024971D01*
X90572058Y-50405515D01*
X90862954Y-50696919D01*
X91243223Y-50854820D01*
X91654971Y-50855179D01*
X92035515Y-50697942D01*
X92326919Y-50407046D01*
X92484820Y-50026777D01*
X92485179Y-49615029D01*
X92327942Y-49234485D01*
X92037046Y-48943081D01*
X91656777Y-48785180D01*
X91245029Y-48784821D01*
X90864485Y-48942058D01*
X90573081Y-49232954D01*
X90415180Y-49613223D01*
X90414821Y-50024971D01*
X82684804Y-50024971D01*
X82685197Y-49575225D01*
X82512767Y-49157914D01*
X82193765Y-48838355D01*
X81776756Y-48665197D01*
X81325225Y-48664803D01*
X80907914Y-48837233D01*
X80588355Y-49156235D01*
X80415197Y-49573244D01*
X80414803Y-50024775D01*
X73310339Y-50024775D01*
X73096136Y-49935830D01*
X72763952Y-49935540D01*
X72456943Y-50062393D01*
X72221849Y-50297078D01*
X72094460Y-50603864D01*
X72094170Y-50936048D01*
X72193279Y-51175911D01*
X72042534Y-51326393D01*
X71915145Y-51633179D01*
X71914855Y-51965363D01*
X72041708Y-52272372D01*
X72219044Y-52450017D01*
X72142534Y-52526393D01*
X72015145Y-52833179D01*
X72014908Y-53104406D01*
X71792534Y-53326393D01*
X71665145Y-53633179D01*
X71664855Y-53965363D01*
X66577182Y-53965363D01*
X66458292Y-53677628D01*
X66223607Y-53442534D01*
X65916821Y-53315145D01*
X65584637Y-53314855D01*
X65277628Y-53441708D01*
X65042534Y-53676393D01*
X64915145Y-53983179D01*
X64914855Y-54315363D01*
X64988054Y-54492520D01*
X64981186Y-54509061D01*
X64980896Y-54841245D01*
X65107749Y-55148254D01*
X65342434Y-55383348D01*
X65463762Y-55433728D01*
X65541708Y-55622372D01*
X65553500Y-55634185D01*
X65266821Y-55515145D01*
X64934637Y-55514855D01*
X64627628Y-55641708D01*
X64392534Y-55876393D01*
X64265145Y-56183179D01*
X64264855Y-56515363D01*
X60640091Y-56515363D01*
X60640135Y-56465525D01*
X60547061Y-56240268D01*
X60639845Y-56016821D01*
X60640135Y-55684637D01*
X60513282Y-55377628D01*
X60278597Y-55142534D01*
X59971811Y-55015145D01*
X59639627Y-55014855D01*
X59332618Y-55141708D01*
X59097524Y-55376393D01*
X58970135Y-55683179D01*
X58969845Y-56015363D01*
X53513239Y-56015363D01*
X53772372Y-55908292D01*
X54007466Y-55673607D01*
X54134855Y-55366821D01*
X54135145Y-55034637D01*
X54008292Y-54727628D01*
X53773607Y-54492534D01*
X53466821Y-54365145D01*
X53134637Y-54364855D01*
X52827628Y-54491708D01*
X52592534Y-54726393D01*
X52465145Y-55033179D01*
X52464855Y-55365363D01*
X50710000Y-55365363D01*
X50710000Y-52765363D01*
X62464855Y-52765363D01*
X62591708Y-53072372D01*
X62826393Y-53307466D01*
X63133179Y-53434855D01*
X63465363Y-53435145D01*
X63772372Y-53308292D01*
X64007466Y-53073607D01*
X64134855Y-52766821D01*
X64135030Y-52565363D01*
X68309865Y-52565363D01*
X68436718Y-52872372D01*
X68671403Y-53107466D01*
X68978189Y-53234855D01*
X69310373Y-53235145D01*
X69617382Y-53108292D01*
X69852476Y-52873607D01*
X69979865Y-52566821D01*
X69980155Y-52234637D01*
X69853302Y-51927628D01*
X69618617Y-51692534D01*
X69311831Y-51565145D01*
X68979647Y-51564855D01*
X68672638Y-51691708D01*
X68437544Y-51926393D01*
X68310155Y-52233179D01*
X68309865Y-52565363D01*
X64135030Y-52565363D01*
X64135145Y-52434637D01*
X64008292Y-52127628D01*
X63773607Y-51892534D01*
X63466821Y-51765145D01*
X63134637Y-51764855D01*
X62827628Y-51891708D01*
X62592534Y-52126393D01*
X62465145Y-52433179D01*
X62464855Y-52765363D01*
X50710000Y-52765363D01*
X50710000Y-49624775D01*
X59064803Y-49624775D01*
X59237233Y-50042086D01*
X59556235Y-50361645D01*
X59973244Y-50534803D01*
X60424775Y-50535197D01*
X60842086Y-50362767D01*
X61161645Y-50043765D01*
X61334803Y-49626756D01*
X61335197Y-49175225D01*
X61162767Y-48757914D01*
X60843765Y-48438355D01*
X60426756Y-48265197D01*
X59975225Y-48264803D01*
X59557914Y-48437233D01*
X59238355Y-48756235D01*
X59065197Y-49173244D01*
X59064803Y-49624775D01*
X50710000Y-49624775D01*
X50710000Y-48565363D01*
X52364855Y-48565363D01*
X52491708Y-48872372D01*
X52726393Y-49107466D01*
X53033179Y-49234855D01*
X53365363Y-49235145D01*
X53672372Y-49108292D01*
X53907466Y-48873607D01*
X54034855Y-48566821D01*
X54035145Y-48234637D01*
X53998564Y-48146103D01*
X67425485Y-48146103D01*
X67552338Y-48453112D01*
X67777888Y-48679055D01*
X67770747Y-48696251D01*
X67770457Y-49028435D01*
X67897310Y-49335444D01*
X68131995Y-49570538D01*
X68438781Y-49697927D01*
X68770965Y-49698217D01*
X69077974Y-49571364D01*
X69313068Y-49336679D01*
X69440457Y-49029893D01*
X69440747Y-48697709D01*
X69313894Y-48390700D01*
X69177052Y-48253620D01*
X69215375Y-48215363D01*
X70314855Y-48215363D01*
X70441708Y-48522372D01*
X70676393Y-48757466D01*
X70899948Y-48850294D01*
X70991708Y-49072372D01*
X71226393Y-49307466D01*
X71533179Y-49434855D01*
X71865363Y-49435145D01*
X72172372Y-49308292D01*
X72407466Y-49073607D01*
X72534855Y-48766821D01*
X72535145Y-48434637D01*
X72408292Y-48127628D01*
X72173607Y-47892534D01*
X71950052Y-47799706D01*
X71858292Y-47577628D01*
X71805531Y-47524775D01*
X80414803Y-47524775D01*
X80587233Y-47942086D01*
X80906235Y-48261645D01*
X81323244Y-48434803D01*
X81774775Y-48435197D01*
X82192086Y-48262767D01*
X82511645Y-47943765D01*
X82684803Y-47526756D01*
X82684839Y-47484971D01*
X90414821Y-47484971D01*
X90572058Y-47865515D01*
X90862954Y-48156919D01*
X91243223Y-48314820D01*
X91654971Y-48315179D01*
X92035515Y-48157942D01*
X92326919Y-47867046D01*
X92484820Y-47486777D01*
X92485179Y-47075029D01*
X92327942Y-46694485D01*
X92037046Y-46403081D01*
X91656777Y-46245180D01*
X91245029Y-46244821D01*
X90864485Y-46402058D01*
X90573081Y-46692954D01*
X90415180Y-47073223D01*
X90414821Y-47484971D01*
X82684839Y-47484971D01*
X82685197Y-47075225D01*
X82512767Y-46657914D01*
X82193765Y-46338355D01*
X81776756Y-46165197D01*
X81325225Y-46164803D01*
X80907914Y-46337233D01*
X80588355Y-46656235D01*
X80415197Y-47073244D01*
X80414803Y-47524775D01*
X71805531Y-47524775D01*
X71623607Y-47342534D01*
X71316821Y-47215145D01*
X70984637Y-47214855D01*
X70677628Y-47341708D01*
X70442534Y-47576393D01*
X70315145Y-47883179D01*
X70314855Y-48215363D01*
X69215375Y-48215363D01*
X69407466Y-48023607D01*
X69534855Y-47716821D01*
X69535145Y-47384637D01*
X69408292Y-47077628D01*
X69173607Y-46842534D01*
X68866821Y-46715145D01*
X68534637Y-46714855D01*
X68227628Y-46841708D01*
X67992534Y-47076393D01*
X67936571Y-47211167D01*
X67788258Y-47272448D01*
X67553164Y-47507133D01*
X67425775Y-47813919D01*
X67425485Y-48146103D01*
X53998564Y-48146103D01*
X53908292Y-47927628D01*
X53673607Y-47692534D01*
X53366821Y-47565145D01*
X53034637Y-47564855D01*
X52727628Y-47691708D01*
X52492534Y-47926393D01*
X52365145Y-48233179D01*
X52364855Y-48565363D01*
X50710000Y-48565363D01*
X50710000Y-46065363D01*
X65414855Y-46065363D01*
X65541708Y-46372372D01*
X65776393Y-46607466D01*
X66083179Y-46734855D01*
X66415363Y-46735145D01*
X66722372Y-46608292D01*
X66957466Y-46373607D01*
X67084855Y-46066821D01*
X67085145Y-45734637D01*
X66958292Y-45427628D01*
X66723607Y-45192534D01*
X66416821Y-45065145D01*
X66084637Y-45064855D01*
X65777628Y-45191708D01*
X65542534Y-45426393D01*
X65415145Y-45733179D01*
X65414855Y-46065363D01*
X50710000Y-46065363D01*
X50710000Y-44915363D01*
X61714855Y-44915363D01*
X61841708Y-45222372D01*
X62076393Y-45457466D01*
X62383179Y-45584855D01*
X62715363Y-45585145D01*
X63022372Y-45458292D01*
X63257466Y-45223607D01*
X63360790Y-44974775D01*
X80464803Y-44974775D01*
X80637233Y-45392086D01*
X80956235Y-45711645D01*
X81373244Y-45884803D01*
X81824775Y-45885197D01*
X82242086Y-45712767D01*
X82561645Y-45393765D01*
X82734803Y-44976756D01*
X82735197Y-44525225D01*
X82562767Y-44107914D01*
X82243765Y-43788355D01*
X81826756Y-43615197D01*
X81375225Y-43614803D01*
X80957914Y-43787233D01*
X80638355Y-44106235D01*
X80465197Y-44523244D01*
X80464803Y-44974775D01*
X63360790Y-44974775D01*
X63384855Y-44916821D01*
X63385145Y-44584637D01*
X63258292Y-44277628D01*
X63023607Y-44042534D01*
X62716821Y-43915145D01*
X62384637Y-43914855D01*
X62077628Y-44041708D01*
X61842534Y-44276393D01*
X61715145Y-44583179D01*
X61714855Y-44915363D01*
X50710000Y-44915363D01*
X50710000Y-43215363D01*
X71714855Y-43215363D01*
X71841708Y-43522372D01*
X72076393Y-43757466D01*
X72383179Y-43884855D01*
X72715363Y-43885145D01*
X73022372Y-43758292D01*
X73257466Y-43523607D01*
X73384855Y-43216821D01*
X73385145Y-42884637D01*
X73377182Y-42865363D01*
X76114855Y-42865363D01*
X76241708Y-43172372D01*
X76476393Y-43407466D01*
X76783179Y-43534855D01*
X77115363Y-43535145D01*
X77422372Y-43408292D01*
X77657466Y-43173607D01*
X77784855Y-42866821D01*
X77785145Y-42534637D01*
X77658292Y-42227628D01*
X77454593Y-42023574D01*
X77765363Y-42023845D01*
X78072372Y-41896992D01*
X78307466Y-41662307D01*
X78434855Y-41355521D01*
X78435145Y-41023337D01*
X78308292Y-40716328D01*
X78073607Y-40481234D01*
X77766821Y-40353845D01*
X77434637Y-40353555D01*
X77127628Y-40480408D01*
X76892534Y-40715093D01*
X76765145Y-41021879D01*
X76764855Y-41354063D01*
X76891708Y-41661072D01*
X77095407Y-41865126D01*
X76784637Y-41864855D01*
X76477628Y-41991708D01*
X76242534Y-42226393D01*
X76115145Y-42533179D01*
X76114855Y-42865363D01*
X73377182Y-42865363D01*
X73258292Y-42577628D01*
X73023607Y-42342534D01*
X72716821Y-42215145D01*
X72384637Y-42214855D01*
X72077628Y-42341708D01*
X71842534Y-42576393D01*
X71715145Y-42883179D01*
X71714855Y-43215363D01*
X50710000Y-43215363D01*
X50710000Y-41365363D01*
X58814855Y-41365363D01*
X58941708Y-41672372D01*
X59176393Y-41907466D01*
X59483179Y-42034855D01*
X59815363Y-42035145D01*
X60105258Y-41915363D01*
X62514855Y-41915363D01*
X62641708Y-42222372D01*
X62876393Y-42457466D01*
X63183179Y-42584855D01*
X63515363Y-42585145D01*
X63822372Y-42458292D01*
X64057466Y-42223607D01*
X64184855Y-41916821D01*
X64185145Y-41584637D01*
X64058292Y-41277628D01*
X63823607Y-41042534D01*
X63516821Y-40915145D01*
X63184637Y-40914855D01*
X62877628Y-41041708D01*
X62642534Y-41276393D01*
X62515145Y-41583179D01*
X62514855Y-41915363D01*
X60105258Y-41915363D01*
X60122372Y-41908292D01*
X60357466Y-41673607D01*
X60484855Y-41366821D01*
X60485145Y-41034637D01*
X60358292Y-40727628D01*
X60123607Y-40492534D01*
X59816821Y-40365145D01*
X59484637Y-40364855D01*
X59177628Y-40491708D01*
X58942534Y-40726393D01*
X58815145Y-41033179D01*
X58814855Y-41365363D01*
X50710000Y-41365363D01*
X50710000Y-39865363D01*
X57164855Y-39865363D01*
X57291708Y-40172372D01*
X57526393Y-40407466D01*
X57833179Y-40534855D01*
X58165363Y-40535145D01*
X58472372Y-40408292D01*
X58707466Y-40173607D01*
X58834855Y-39866821D01*
X58835145Y-39534637D01*
X58827182Y-39515363D01*
X60464855Y-39515363D01*
X60591708Y-39822372D01*
X60826393Y-40057466D01*
X61133179Y-40184855D01*
X61465363Y-40185145D01*
X61772372Y-40058292D01*
X61915550Y-39915363D01*
X78814855Y-39915363D01*
X78941708Y-40222372D01*
X79176393Y-40457466D01*
X79483179Y-40584855D01*
X79815363Y-40585145D01*
X80122372Y-40458292D01*
X80357466Y-40223607D01*
X80423174Y-40065363D01*
X81414855Y-40065363D01*
X81541708Y-40372372D01*
X81776393Y-40607466D01*
X82083179Y-40734855D01*
X82415363Y-40735145D01*
X82722372Y-40608292D01*
X82957466Y-40373607D01*
X83084855Y-40066821D01*
X83084856Y-40065363D01*
X86664855Y-40065363D01*
X86791708Y-40372372D01*
X87026393Y-40607466D01*
X87333179Y-40734855D01*
X87665363Y-40735145D01*
X87972372Y-40608292D01*
X88207466Y-40373607D01*
X88334855Y-40066821D01*
X88335145Y-39734637D01*
X88208292Y-39427628D01*
X87973607Y-39192534D01*
X87666821Y-39065145D01*
X87334637Y-39064855D01*
X87027628Y-39191708D01*
X86792534Y-39426393D01*
X86665145Y-39733179D01*
X86664855Y-40065363D01*
X83084856Y-40065363D01*
X83085145Y-39734637D01*
X82958292Y-39427628D01*
X82723607Y-39192534D01*
X82416821Y-39065145D01*
X82084637Y-39064855D01*
X81777628Y-39191708D01*
X81542534Y-39426393D01*
X81415145Y-39733179D01*
X81414855Y-40065363D01*
X80423174Y-40065363D01*
X80484855Y-39916821D01*
X80485145Y-39584637D01*
X80358292Y-39277628D01*
X80123607Y-39042534D01*
X79816821Y-38915145D01*
X79484637Y-38914855D01*
X79177628Y-39041708D01*
X78942534Y-39276393D01*
X78815145Y-39583179D01*
X78814855Y-39915363D01*
X61915550Y-39915363D01*
X62007466Y-39823607D01*
X62134855Y-39516821D01*
X62135101Y-39235075D01*
X62215363Y-39235145D01*
X62522372Y-39108292D01*
X62757466Y-38873607D01*
X62884855Y-38566821D01*
X62885145Y-38234637D01*
X62758292Y-37927628D01*
X62523607Y-37692534D01*
X62216821Y-37565145D01*
X61884637Y-37564855D01*
X61577628Y-37691708D01*
X61342534Y-37926393D01*
X61215145Y-38233179D01*
X61214899Y-38514925D01*
X61134637Y-38514855D01*
X60827628Y-38641708D01*
X60592534Y-38876393D01*
X60465145Y-39183179D01*
X60464855Y-39515363D01*
X58827182Y-39515363D01*
X58708292Y-39227628D01*
X58473607Y-38992534D01*
X58166821Y-38865145D01*
X57834637Y-38864855D01*
X57527628Y-38991708D01*
X57292534Y-39226393D01*
X57165145Y-39533179D01*
X57164855Y-39865363D01*
X50710000Y-39865363D01*
X50710000Y-38015363D01*
X58264855Y-38015363D01*
X58391708Y-38322372D01*
X58626393Y-38557466D01*
X58933179Y-38684855D01*
X59265363Y-38685145D01*
X59572372Y-38558292D01*
X59807466Y-38323607D01*
X59934855Y-38016821D01*
X59935145Y-37684637D01*
X59808292Y-37377628D01*
X59573607Y-37142534D01*
X59266821Y-37015145D01*
X58934637Y-37014855D01*
X58627628Y-37141708D01*
X58392534Y-37376393D01*
X58265145Y-37683179D01*
X58264855Y-38015363D01*
X50710000Y-38015363D01*
X50710000Y-35991830D01*
X51381530Y-36664533D01*
X52753803Y-37234350D01*
X54239678Y-37235647D01*
X54874594Y-36973305D01*
X73064674Y-36973305D01*
X73351043Y-37666372D01*
X73880839Y-38197093D01*
X74573405Y-38484672D01*
X75323305Y-38485326D01*
X76016372Y-38198957D01*
X76547093Y-37669161D01*
X76549650Y-37663002D01*
X76551043Y-37666372D01*
X77080839Y-38197093D01*
X77773405Y-38484672D01*
X78523305Y-38485326D01*
X79216372Y-38198957D01*
X79747093Y-37669161D01*
X80034672Y-36976595D01*
X80035326Y-36226695D01*
X79748957Y-35533628D01*
X79219161Y-35002907D01*
X78526595Y-34715328D01*
X77776695Y-34714674D01*
X77083628Y-35001043D01*
X76552907Y-35530839D01*
X76550350Y-35536998D01*
X76548957Y-35533628D01*
X76019161Y-35002907D01*
X75326595Y-34715328D01*
X74576695Y-34714674D01*
X73883628Y-35001043D01*
X73352907Y-35530839D01*
X73065328Y-36223405D01*
X73064674Y-36973305D01*
X54874594Y-36973305D01*
X55612944Y-36668225D01*
X56664533Y-35618470D01*
X56994714Y-34823305D01*
X59114674Y-34823305D01*
X59401043Y-35516372D01*
X59930839Y-36047093D01*
X60623405Y-36334672D01*
X61373305Y-36335326D01*
X62066372Y-36048957D01*
X62500292Y-35615794D01*
X62930839Y-36047093D01*
X63623405Y-36334672D01*
X64373305Y-36335326D01*
X65066372Y-36048957D01*
X65500292Y-35615794D01*
X65930839Y-36047093D01*
X66623405Y-36334672D01*
X67373305Y-36335326D01*
X68066372Y-36048957D01*
X68500292Y-35615794D01*
X68930839Y-36047093D01*
X69623405Y-36334672D01*
X70373305Y-36335326D01*
X71066372Y-36048957D01*
X71597093Y-35519161D01*
X71884672Y-34826595D01*
X71885326Y-34076695D01*
X71598957Y-33383628D01*
X71069161Y-32852907D01*
X70376595Y-32565328D01*
X69626695Y-32564674D01*
X68933628Y-32851043D01*
X68499708Y-33284206D01*
X68069161Y-32852907D01*
X67376595Y-32565328D01*
X66626695Y-32564674D01*
X65933628Y-32851043D01*
X65499708Y-33284206D01*
X65069161Y-32852907D01*
X64376595Y-32565328D01*
X63626695Y-32564674D01*
X62933628Y-32851043D01*
X62499708Y-33284206D01*
X62069161Y-32852907D01*
X61376595Y-32565328D01*
X60626695Y-32564674D01*
X59933628Y-32851043D01*
X59402907Y-33380839D01*
X59115328Y-34073405D01*
X59114674Y-34823305D01*
X56994714Y-34823305D01*
X57234350Y-34246197D01*
X57235647Y-32760322D01*
X56668225Y-31387056D01*
X55992350Y-30710000D01*
X74466998Y-30710000D01*
X73883628Y-30951043D01*
X73883628Y-30951043D01*
G37*
X73883628Y-30951043D02*
X73352907Y-31480839D01*
X73065328Y-32173405D01*
X73064674Y-32923305D01*
X73351043Y-33616372D01*
X73880839Y-34147093D01*
X74573405Y-34434672D01*
X75323305Y-34435326D01*
X76016372Y-34148957D01*
X76547093Y-33619161D01*
X76549650Y-33613002D01*
X76551043Y-33616372D01*
X77080839Y-34147093D01*
X77773405Y-34434672D01*
X78523305Y-34435326D01*
X79216372Y-34148957D01*
X79747093Y-33619161D01*
X80034672Y-32926595D01*
X80035326Y-32176695D01*
X79748957Y-31483628D01*
X79219161Y-30952907D01*
X78634177Y-30710000D01*
X89008170Y-30710000D01*
X88335467Y-31381530D01*
X87765650Y-32753803D01*
X87764353Y-34239678D01*
X88331775Y-35612944D01*
X89381530Y-36664533D01*
X90753803Y-37234350D01*
X92239678Y-37235647D01*
X93612944Y-36668225D01*
X94290000Y-35992350D01*
X94290000Y-164008170D01*
X93618470Y-163335467D01*
X92246197Y-162765650D01*
X90760322Y-162764353D01*
X89387056Y-163331775D01*
X88335467Y-164381530D01*
X87765650Y-165753803D01*
X87764353Y-167239678D01*
X88331775Y-168612944D01*
X89007650Y-169290000D01*
X77546454Y-169290000D01*
X77684820Y-168956777D01*
X77685179Y-168545029D01*
X77527942Y-168164485D01*
X77237046Y-167873081D01*
X76940373Y-167749892D01*
X77235515Y-167627942D01*
X77526919Y-167337046D01*
X77553793Y-167272325D01*
X78264587Y-167272325D01*
X78626916Y-168149229D01*
X79297242Y-168820726D01*
X80173513Y-169184585D01*
X81122325Y-169185413D01*
X81999229Y-168823084D01*
X82670726Y-168152758D01*
X82975300Y-167419262D01*
X83276916Y-168149229D01*
X83947242Y-168820726D01*
X84823513Y-169184585D01*
X85772325Y-169185413D01*
X86649229Y-168823084D01*
X87320726Y-168152758D01*
X87684585Y-167276487D01*
X87685413Y-166327675D01*
X87323084Y-165450771D01*
X86652758Y-164779274D01*
X85776487Y-164415415D01*
X84827675Y-164414587D01*
X83950771Y-164776916D01*
X83279274Y-165447242D01*
X82974700Y-166180738D01*
X82673084Y-165450771D01*
X82002758Y-164779274D01*
X81126487Y-164415415D01*
X80177675Y-164414587D01*
X79300771Y-164776916D01*
X78629274Y-165447242D01*
X78265415Y-166323513D01*
X78264587Y-167272325D01*
X77553793Y-167272325D01*
X77684820Y-166956777D01*
X77685179Y-166545029D01*
X77527942Y-166164485D01*
X77237046Y-165873081D01*
X76934959Y-165747644D01*
X76935179Y-165495029D01*
X76777942Y-165114485D01*
X76487046Y-164823081D01*
X76106777Y-164665180D01*
X75695029Y-164664821D01*
X75314485Y-164822058D01*
X75023081Y-165112954D01*
X74950015Y-165288916D01*
X74877942Y-165114485D01*
X74587046Y-164823081D01*
X74206777Y-164665180D01*
X73795029Y-164664821D01*
X73567010Y-164759036D01*
X73527942Y-164664485D01*
X73237046Y-164373081D01*
X73000728Y-164274954D01*
X73235515Y-164177942D01*
X73526919Y-163887046D01*
X73684820Y-163506777D01*
X73685179Y-163095029D01*
X73527942Y-162714485D01*
X73288712Y-162474837D01*
X73491578Y-162272325D01*
X78264587Y-162272325D01*
X78626916Y-163149229D01*
X79297242Y-163820726D01*
X80173513Y-164184585D01*
X81122325Y-164185413D01*
X81999229Y-163823084D01*
X82670726Y-163152758D01*
X82975300Y-162419262D01*
X83276916Y-163149229D01*
X83947242Y-163820726D01*
X84823513Y-164184585D01*
X85772325Y-164185413D01*
X86649229Y-163823084D01*
X87320726Y-163152758D01*
X87684585Y-162276487D01*
X87685413Y-161327675D01*
X87323084Y-160450771D01*
X86652758Y-159779274D01*
X85776487Y-159415415D01*
X84827675Y-159414587D01*
X83950771Y-159776916D01*
X83279274Y-160447242D01*
X82974700Y-161180738D01*
X82673084Y-160450771D01*
X82002758Y-159779274D01*
X81126487Y-159415415D01*
X80177675Y-159414587D01*
X79300771Y-159776916D01*
X78629274Y-160447242D01*
X78265415Y-161323513D01*
X78264587Y-162272325D01*
X73491578Y-162272325D01*
X73526919Y-162237046D01*
X73684820Y-161856777D01*
X73685179Y-161445029D01*
X73527942Y-161064485D01*
X73238712Y-160774750D01*
X73526919Y-160487046D01*
X73684820Y-160106777D01*
X73685179Y-159695029D01*
X73527942Y-159314485D01*
X73388712Y-159175012D01*
X73526919Y-159037046D01*
X73684820Y-158656777D01*
X73685179Y-158245029D01*
X73527942Y-157864485D01*
X73288712Y-157624837D01*
X73526919Y-157387046D01*
X73684820Y-157006777D01*
X73685179Y-156595029D01*
X73527942Y-156214485D01*
X73237046Y-155923081D01*
X72856777Y-155765180D01*
X72534900Y-155764899D01*
X72535179Y-155445029D01*
X72377942Y-155064485D01*
X72238712Y-154925012D01*
X72376919Y-154787046D01*
X72534820Y-154406777D01*
X72535179Y-153995029D01*
X72377942Y-153614485D01*
X72238712Y-153475012D01*
X72376919Y-153337046D01*
X72534820Y-152956777D01*
X72535179Y-152545029D01*
X72377942Y-152164485D01*
X72288712Y-152075099D01*
X72376919Y-151987046D01*
X72534820Y-151606777D01*
X72535179Y-151195029D01*
X72377942Y-150814485D01*
X72288712Y-150725099D01*
X72376919Y-150637046D01*
X72534820Y-150256777D01*
X72535179Y-149845029D01*
X72377942Y-149464485D01*
X72333861Y-149420327D01*
X72484820Y-149056777D01*
X72485179Y-148645029D01*
X72327942Y-148264485D01*
X72037046Y-147973081D01*
X71656777Y-147815180D01*
X71245029Y-147814821D01*
X70864485Y-147972058D01*
X70649881Y-148186288D01*
X70437046Y-147973081D01*
X70056777Y-147815180D01*
X69645029Y-147814821D01*
X69264485Y-147972058D01*
X69090637Y-148145603D01*
X68918416Y-147973081D01*
X68538147Y-147815180D01*
X68126399Y-147814821D01*
X67745855Y-147972058D01*
X67454451Y-148262954D01*
X67296550Y-148643223D01*
X67296191Y-149054971D01*
X67442623Y-149409365D01*
X67288766Y-149562954D01*
X67130865Y-149943223D01*
X67130506Y-150354971D01*
X67287743Y-150735515D01*
X67476973Y-150925075D01*
X67288766Y-151112954D01*
X67130865Y-151493223D01*
X67130506Y-151904971D01*
X67287743Y-152285515D01*
X67476973Y-152475075D01*
X67288766Y-152662954D01*
X67130865Y-153043223D01*
X67130506Y-153454971D01*
X67287743Y-153835515D01*
X67501973Y-154050119D01*
X67288766Y-154262954D01*
X67130865Y-154643223D01*
X67130506Y-155054971D01*
X67154911Y-155114035D01*
X67014485Y-155172058D01*
X66723081Y-155462954D01*
X66565180Y-155843223D01*
X66564821Y-156254971D01*
X66686830Y-156550256D01*
X66565180Y-156843223D01*
X66564821Y-157254971D01*
X66707540Y-157600380D01*
X66565180Y-157943223D01*
X66564821Y-158354971D01*
X66722058Y-158735515D01*
X66786288Y-158799857D01*
X66723081Y-158862954D01*
X66565180Y-159243223D01*
X66564821Y-159654971D01*
X66722058Y-160035515D01*
X66786288Y-160099857D01*
X66723081Y-160162954D01*
X66565180Y-160543223D01*
X66564821Y-160954971D01*
X66697185Y-161275318D01*
X66565180Y-161593223D01*
X66564821Y-162004971D01*
X66722058Y-162385515D01*
X67012954Y-162676919D01*
X67393223Y-162834820D01*
X67804971Y-162835179D01*
X68185515Y-162677942D01*
X68476919Y-162387046D01*
X68634820Y-162006777D01*
X68635179Y-161595029D01*
X68502815Y-161274682D01*
X68634820Y-160956777D01*
X68635179Y-160545029D01*
X68477942Y-160164485D01*
X68413712Y-160100143D01*
X68476919Y-160037046D01*
X68634820Y-159656777D01*
X68635179Y-159245029D01*
X68477942Y-158864485D01*
X68413712Y-158800143D01*
X68476919Y-158737046D01*
X68634820Y-158356777D01*
X68635179Y-157945029D01*
X68492460Y-157599620D01*
X68634820Y-157256777D01*
X68635179Y-156845029D01*
X68513170Y-156549744D01*
X68634820Y-156256777D01*
X68635179Y-155845029D01*
X68610774Y-155785965D01*
X68751200Y-155727942D01*
X69042604Y-155437046D01*
X69200505Y-155056777D01*
X69200864Y-154645029D01*
X69043627Y-154264485D01*
X68829397Y-154049881D01*
X69042604Y-153837046D01*
X69200505Y-153456777D01*
X69200864Y-153045029D01*
X69043627Y-152664485D01*
X68854397Y-152474925D01*
X69042604Y-152287046D01*
X69200505Y-151906777D01*
X69200864Y-151495029D01*
X69043627Y-151114485D01*
X68854397Y-150924925D01*
X69042604Y-150737046D01*
X69200505Y-150356777D01*
X69200864Y-149945029D01*
X69054432Y-149590635D01*
X69090733Y-149554397D01*
X69262954Y-149726919D01*
X69643223Y-149884820D01*
X70054971Y-149885179D01*
X70435515Y-149727942D01*
X70567941Y-149595747D01*
X70465180Y-149843223D01*
X70464821Y-150254971D01*
X70622058Y-150635515D01*
X70711288Y-150724901D01*
X70623081Y-150812954D01*
X70465180Y-151193223D01*
X70464821Y-151604971D01*
X70622058Y-151985515D01*
X70711288Y-152074901D01*
X70623081Y-152162954D01*
X70465180Y-152543223D01*
X70464821Y-152954971D01*
X70622058Y-153335515D01*
X70761288Y-153474988D01*
X70623081Y-153612954D01*
X70465180Y-153993223D01*
X70464821Y-154404971D01*
X70622058Y-154785515D01*
X70761288Y-154924988D01*
X70623081Y-155062954D01*
X70465180Y-155443223D01*
X70464821Y-155854971D01*
X70622058Y-156235515D01*
X70912954Y-156526919D01*
X71293223Y-156684820D01*
X71615100Y-156685101D01*
X71614821Y-157004971D01*
X71772058Y-157385515D01*
X72011288Y-157625163D01*
X71773081Y-157862954D01*
X71615180Y-158243223D01*
X71614821Y-158654971D01*
X71772058Y-159035515D01*
X71911288Y-159174988D01*
X71773081Y-159312954D01*
X71615180Y-159693223D01*
X71614821Y-160104971D01*
X71772058Y-160485515D01*
X72061288Y-160775250D01*
X71773081Y-161062954D01*
X71615180Y-161443223D01*
X71614821Y-161854971D01*
X71772058Y-162235515D01*
X72011288Y-162475163D01*
X71773081Y-162712954D01*
X71615180Y-163093223D01*
X71614821Y-163504971D01*
X71772058Y-163885515D01*
X72062954Y-164176919D01*
X72299272Y-164275046D01*
X72064485Y-164372058D01*
X71773081Y-164662954D01*
X71615180Y-165043223D01*
X71614821Y-165454971D01*
X71772058Y-165835515D01*
X72062954Y-166126919D01*
X72443223Y-166284820D01*
X72854971Y-166285179D01*
X73082990Y-166190964D01*
X73122058Y-166285515D01*
X73412954Y-166576919D01*
X73793223Y-166734820D01*
X74204971Y-166735179D01*
X74585515Y-166577942D01*
X74876919Y-166287046D01*
X74949985Y-166111084D01*
X75022058Y-166285515D01*
X75312954Y-166576919D01*
X75615041Y-166702356D01*
X75614821Y-166954971D01*
X75772058Y-167335515D01*
X76062954Y-167626919D01*
X76359627Y-167750108D01*
X76064485Y-167872058D01*
X75849881Y-168086288D01*
X75637046Y-167873081D01*
X75256777Y-167715180D01*
X74845029Y-167714821D01*
X74464485Y-167872058D01*
X74224837Y-168111288D01*
X73987046Y-167873081D01*
X73606777Y-167715180D01*
X73195029Y-167714821D01*
X72814485Y-167872058D01*
X72524750Y-168161288D01*
X72237046Y-167873081D01*
X71856777Y-167715180D01*
X71445029Y-167714821D01*
X71064485Y-167872058D01*
X70824837Y-168111288D01*
X70587046Y-167873081D01*
X70206777Y-167715180D01*
X69795029Y-167714821D01*
X69414485Y-167872058D01*
X69123081Y-168162954D01*
X68999892Y-168459627D01*
X68877942Y-168164485D01*
X68587046Y-167873081D01*
X68224496Y-167722537D01*
X68949229Y-167423084D01*
X69620726Y-166752758D01*
X69984585Y-165876487D01*
X69985413Y-164927675D01*
X69623084Y-164050771D01*
X68952758Y-163379274D01*
X68076487Y-163015415D01*
X67127675Y-163014587D01*
X66250771Y-163376916D01*
X65579274Y-164047242D01*
X65215415Y-164923513D01*
X65214587Y-165872325D01*
X65576916Y-166749229D01*
X66247242Y-167420726D01*
X67123513Y-167784585D01*
X67625127Y-167785023D01*
X67414485Y-167872058D01*
X67123081Y-168162954D01*
X66965180Y-168543223D01*
X66964821Y-168954971D01*
X67103252Y-169290000D01*
X55991830Y-169290000D01*
X56664533Y-168618470D01*
X57234350Y-167246197D01*
X57235549Y-165872325D01*
X60214587Y-165872325D01*
X60576916Y-166749229D01*
X61247242Y-167420726D01*
X62123513Y-167784585D01*
X63072325Y-167785413D01*
X63949229Y-167423084D01*
X64620726Y-166752758D01*
X64984585Y-165876487D01*
X64985413Y-164927675D01*
X64623084Y-164050771D01*
X63952758Y-163379274D01*
X63076487Y-163015415D01*
X62127675Y-163014587D01*
X61250771Y-163376916D01*
X60579274Y-164047242D01*
X60215415Y-164923513D01*
X60214587Y-165872325D01*
X57235549Y-165872325D01*
X57235647Y-165760322D01*
X56668225Y-164387056D01*
X55618470Y-163335467D01*
X54246197Y-162765650D01*
X52760322Y-162764353D01*
X51387056Y-163331775D01*
X50710000Y-164007650D01*
X50710000Y-141915363D01*
X54564855Y-141915363D01*
X54691708Y-142222372D01*
X54926393Y-142457466D01*
X55233179Y-142584855D01*
X55565363Y-142585145D01*
X55872372Y-142458292D01*
X56107466Y-142223607D01*
X56234855Y-141916821D01*
X56235145Y-141584637D01*
X56108292Y-141277628D01*
X55873607Y-141042534D01*
X55567347Y-140915363D01*
X64564855Y-140915363D01*
X64691708Y-141222372D01*
X64926393Y-141457466D01*
X65233179Y-141584855D01*
X65565363Y-141585145D01*
X65872372Y-141458292D01*
X66107466Y-141223607D01*
X66234855Y-140916821D01*
X66235145Y-140584637D01*
X66108292Y-140277628D01*
X65873607Y-140042534D01*
X65566821Y-139915145D01*
X65234637Y-139914855D01*
X64927628Y-140041708D01*
X64692534Y-140276393D01*
X64565145Y-140583179D01*
X64564855Y-140915363D01*
X55567347Y-140915363D01*
X55566821Y-140915145D01*
X55234637Y-140914855D01*
X54927628Y-141041708D01*
X54692534Y-141276393D01*
X54565145Y-141583179D01*
X54564855Y-141915363D01*
X50710000Y-141915363D01*
X50710000Y-138365363D01*
X52014855Y-138365363D01*
X52141708Y-138672372D01*
X52376393Y-138907466D01*
X52683179Y-139034855D01*
X53015363Y-139035145D01*
X53322372Y-138908292D01*
X53415462Y-138815363D01*
X83964855Y-138815363D01*
X84091708Y-139122372D01*
X84326393Y-139357466D01*
X84633179Y-139484855D01*
X84965363Y-139485145D01*
X85272372Y-139358292D01*
X85507466Y-139123607D01*
X85634855Y-138816821D01*
X85635145Y-138484637D01*
X85508292Y-138177628D01*
X85273607Y-137942534D01*
X84966821Y-137815145D01*
X84634637Y-137814855D01*
X84327628Y-137941708D01*
X84092534Y-138176393D01*
X83965145Y-138483179D01*
X83964855Y-138815363D01*
X53415462Y-138815363D01*
X53557466Y-138673607D01*
X53684855Y-138366821D01*
X53685145Y-138034637D01*
X53558292Y-137727628D01*
X53323607Y-137492534D01*
X53137760Y-137415363D01*
X82364855Y-137415363D01*
X82491708Y-137722372D01*
X82726393Y-137957466D01*
X83033179Y-138084855D01*
X83365363Y-138085145D01*
X83672372Y-137958292D01*
X83907466Y-137723607D01*
X84034855Y-137416821D01*
X84035145Y-137084637D01*
X83908292Y-136777628D01*
X83673607Y-136542534D01*
X83366821Y-136415145D01*
X83034637Y-136414855D01*
X82727628Y-136541708D01*
X82492534Y-136776393D01*
X82365145Y-137083179D01*
X82364855Y-137415363D01*
X53137760Y-137415363D01*
X53016821Y-137365145D01*
X52684637Y-137364855D01*
X52377628Y-137491708D01*
X52142534Y-137726393D01*
X52015145Y-138033179D01*
X52014855Y-138365363D01*
X50710000Y-138365363D01*
X50710000Y-135265363D01*
X52114855Y-135265363D01*
X52241708Y-135572372D01*
X52476393Y-135807466D01*
X52783179Y-135934855D01*
X53115363Y-135935145D01*
X53422372Y-135808292D01*
X53657466Y-135573607D01*
X53784855Y-135266821D01*
X53785145Y-134934637D01*
X53658292Y-134627628D01*
X53423607Y-134392534D01*
X53116821Y-134265145D01*
X52784637Y-134264855D01*
X52477628Y-134391708D01*
X52242534Y-134626393D01*
X52115145Y-134933179D01*
X52114855Y-135265363D01*
X50710000Y-135265363D01*
X50710000Y-119329971D01*
X55189821Y-119329971D01*
X55347058Y-119710515D01*
X55637954Y-120001919D01*
X56018223Y-120159820D01*
X56429971Y-120160179D01*
X56810515Y-120002942D01*
X57101919Y-119712046D01*
X57259820Y-119331777D01*
X57259821Y-119329971D01*
X60739821Y-119329971D01*
X60897058Y-119710515D01*
X61187954Y-120001919D01*
X61568223Y-120159820D01*
X61979971Y-120160179D01*
X62360515Y-120002942D01*
X62651919Y-119712046D01*
X62809820Y-119331777D01*
X62809820Y-119330971D01*
X75710821Y-119330971D01*
X75868058Y-119711515D01*
X76158954Y-120002919D01*
X76539223Y-120160820D01*
X76950971Y-120161179D01*
X77331515Y-120003942D01*
X77622919Y-119713046D01*
X77780820Y-119332777D01*
X77780821Y-119330971D01*
X81260821Y-119330971D01*
X81418058Y-119711515D01*
X81708954Y-120002919D01*
X82089223Y-120160820D01*
X82500971Y-120161179D01*
X82881515Y-120003942D01*
X83172919Y-119713046D01*
X83330820Y-119332777D01*
X83331179Y-118921029D01*
X83173942Y-118540485D01*
X82883046Y-118249081D01*
X82502777Y-118091180D01*
X82091029Y-118090821D01*
X81710485Y-118248058D01*
X81419081Y-118538954D01*
X81261180Y-118919223D01*
X81260821Y-119330971D01*
X77780821Y-119330971D01*
X77781179Y-118921029D01*
X77623942Y-118540485D01*
X77333046Y-118249081D01*
X76952777Y-118091180D01*
X76541029Y-118090821D01*
X76160485Y-118248058D01*
X75869081Y-118538954D01*
X75711180Y-118919223D01*
X75710821Y-119330971D01*
X62809820Y-119330971D01*
X62810179Y-118920029D01*
X62652942Y-118539485D01*
X62362046Y-118248081D01*
X61981777Y-118090180D01*
X61570029Y-118089821D01*
X61189485Y-118247058D01*
X60898081Y-118537954D01*
X60740180Y-118918223D01*
X60739821Y-119329971D01*
X57259821Y-119329971D01*
X57260179Y-118920029D01*
X57102942Y-118539485D01*
X56812046Y-118248081D01*
X56431777Y-118090180D01*
X56020029Y-118089821D01*
X55639485Y-118247058D01*
X55348081Y-118537954D01*
X55190180Y-118918223D01*
X55189821Y-119329971D01*
X50710000Y-119329971D01*
X50710000Y-114479971D01*
X55189821Y-114479971D01*
X55347058Y-114860515D01*
X55637954Y-115151919D01*
X56018223Y-115309820D01*
X56429971Y-115310179D01*
X56810515Y-115152942D01*
X57101919Y-114862046D01*
X57259820Y-114481777D01*
X57259821Y-114479971D01*
X60739821Y-114479971D01*
X60897058Y-114860515D01*
X61187954Y-115151919D01*
X61568223Y-115309820D01*
X61979971Y-115310179D01*
X62360515Y-115152942D01*
X62651919Y-114862046D01*
X62809820Y-114481777D01*
X62809820Y-114480971D01*
X75710821Y-114480971D01*
X75868058Y-114861515D01*
X76158954Y-115152919D01*
X76539223Y-115310820D01*
X76950971Y-115311179D01*
X77331515Y-115153942D01*
X77622919Y-114863046D01*
X77780820Y-114482777D01*
X77780821Y-114480971D01*
X81260821Y-114480971D01*
X81418058Y-114861515D01*
X81708954Y-115152919D01*
X82089223Y-115310820D01*
X82500971Y-115311179D01*
X82881515Y-115153942D01*
X83172919Y-114863046D01*
X83330820Y-114482777D01*
X83331179Y-114071029D01*
X83173942Y-113690485D01*
X82883046Y-113399081D01*
X82502777Y-113241180D01*
X82091029Y-113240821D01*
X81710485Y-113398058D01*
X81419081Y-113688954D01*
X81261180Y-114069223D01*
X81260821Y-114480971D01*
X77780821Y-114480971D01*
X77781179Y-114071029D01*
X77623942Y-113690485D01*
X77333046Y-113399081D01*
X76952777Y-113241180D01*
X76541029Y-113240821D01*
X76160485Y-113398058D01*
X75869081Y-113688954D01*
X75711180Y-114069223D01*
X75710821Y-114480971D01*
X62809820Y-114480971D01*
X62810179Y-114070029D01*
X62652942Y-113689485D01*
X62362046Y-113398081D01*
X61981777Y-113240180D01*
X61570029Y-113239821D01*
X61189485Y-113397058D01*
X60898081Y-113687954D01*
X60740180Y-114068223D01*
X60739821Y-114479971D01*
X57259821Y-114479971D01*
X57260179Y-114070029D01*
X57102942Y-113689485D01*
X56812046Y-113398081D01*
X56431777Y-113240180D01*
X56020029Y-113239821D01*
X55639485Y-113397058D01*
X55348081Y-113687954D01*
X55190180Y-114068223D01*
X55189821Y-114479971D01*
X50710000Y-114479971D01*
X50710000Y-110654971D01*
X51764821Y-110654971D01*
X51922058Y-111035515D01*
X52212954Y-111326919D01*
X52593223Y-111484820D01*
X53004971Y-111485179D01*
X53385515Y-111327942D01*
X53676919Y-111037046D01*
X53834820Y-110656777D01*
X53835179Y-110245029D01*
X53677942Y-109864485D01*
X53387046Y-109573081D01*
X53006777Y-109415180D01*
X52595029Y-109414821D01*
X52214485Y-109572058D01*
X51923081Y-109862954D01*
X51765180Y-110243223D01*
X51764821Y-110654971D01*
X50710000Y-110654971D01*
X50710000Y-104804971D01*
X51764821Y-104804971D01*
X51922058Y-105185515D01*
X52212954Y-105476919D01*
X52328561Y-105524923D01*
X52214485Y-105572058D01*
X51923081Y-105862954D01*
X51765180Y-106243223D01*
X51764821Y-106654971D01*
X51922058Y-107035515D01*
X52212954Y-107326919D01*
X52388916Y-107399985D01*
X52214485Y-107472058D01*
X51923081Y-107762954D01*
X51765180Y-108143223D01*
X51764821Y-108554971D01*
X51922058Y-108935515D01*
X52212954Y-109226919D01*
X52593223Y-109384820D01*
X53004971Y-109385179D01*
X53385515Y-109227942D01*
X53608875Y-109004971D01*
X72564821Y-109004971D01*
X72722058Y-109385515D01*
X73012954Y-109676919D01*
X73128561Y-109724923D01*
X73014485Y-109772058D01*
X72723081Y-110062954D01*
X72565180Y-110443223D01*
X72564821Y-110854971D01*
X72722058Y-111235515D01*
X73012954Y-111526919D01*
X73393223Y-111684820D01*
X73804971Y-111685179D01*
X74185515Y-111527942D01*
X74476919Y-111237046D01*
X74634820Y-110856777D01*
X74635179Y-110445029D01*
X74477942Y-110064485D01*
X74187046Y-109773081D01*
X74071439Y-109725077D01*
X74185515Y-109677942D01*
X74476919Y-109387046D01*
X74634820Y-109006777D01*
X74635179Y-108595029D01*
X74477942Y-108214485D01*
X74187046Y-107923081D01*
X73806777Y-107765180D01*
X73395029Y-107764821D01*
X73014485Y-107922058D01*
X72723081Y-108212954D01*
X72565180Y-108593223D01*
X72564821Y-109004971D01*
X53608875Y-109004971D01*
X53676919Y-108937046D01*
X53834820Y-108556777D01*
X53835179Y-108145029D01*
X53677942Y-107764485D01*
X53628906Y-107715363D01*
X54764855Y-107715363D01*
X54891708Y-108022372D01*
X55126393Y-108257466D01*
X55433179Y-108384855D01*
X55765363Y-108385145D01*
X56072372Y-108258292D01*
X56307466Y-108023607D01*
X56434855Y-107716821D01*
X56434855Y-107716363D01*
X75285855Y-107716363D01*
X75412708Y-108023372D01*
X75647393Y-108258466D01*
X75954179Y-108385855D01*
X76286363Y-108386145D01*
X76593372Y-108259292D01*
X76828466Y-108024607D01*
X76955855Y-107717821D01*
X76956145Y-107385637D01*
X76829292Y-107078628D01*
X76594607Y-106843534D01*
X76287821Y-106716145D01*
X75955637Y-106715855D01*
X75648628Y-106842708D01*
X75413534Y-107077393D01*
X75286145Y-107384179D01*
X75285855Y-107716363D01*
X56434855Y-107716363D01*
X56435145Y-107384637D01*
X56308292Y-107077628D01*
X56073607Y-106842534D01*
X55766821Y-106715145D01*
X55434637Y-106714855D01*
X55127628Y-106841708D01*
X54892534Y-107076393D01*
X54765145Y-107383179D01*
X54764855Y-107715363D01*
X53628906Y-107715363D01*
X53387046Y-107473081D01*
X53211084Y-107400015D01*
X53385515Y-107327942D01*
X53676919Y-107037046D01*
X53834820Y-106656777D01*
X53835179Y-106245029D01*
X53735990Y-106004971D01*
X72564821Y-106004971D01*
X72722058Y-106385515D01*
X73012954Y-106676919D01*
X73393223Y-106834820D01*
X73804971Y-106835179D01*
X74185515Y-106677942D01*
X74476919Y-106387046D01*
X74634820Y-106006777D01*
X74635179Y-105595029D01*
X74477942Y-105214485D01*
X74187046Y-104923081D01*
X73806777Y-104765180D01*
X73395029Y-104764821D01*
X73014485Y-104922058D01*
X72723081Y-105212954D01*
X72565180Y-105593223D01*
X72564821Y-106004971D01*
X53735990Y-106004971D01*
X53677942Y-105864485D01*
X53387046Y-105573081D01*
X53271439Y-105525077D01*
X53385515Y-105477942D01*
X53676919Y-105187046D01*
X53834820Y-104806777D01*
X53835179Y-104395029D01*
X53677942Y-104014485D01*
X53387046Y-103723081D01*
X53343433Y-103704971D01*
X72564821Y-103704971D01*
X72722058Y-104085515D01*
X73012954Y-104376919D01*
X73393223Y-104534820D01*
X73804971Y-104535179D01*
X74185515Y-104377942D01*
X74198115Y-104365363D01*
X77014855Y-104365363D01*
X77141708Y-104672372D01*
X77376393Y-104907466D01*
X77683179Y-105034855D01*
X78015363Y-105035145D01*
X78322372Y-104908292D01*
X78557466Y-104673607D01*
X78684855Y-104366821D01*
X78685145Y-104034637D01*
X78558292Y-103727628D01*
X78323607Y-103492534D01*
X78016821Y-103365145D01*
X77684637Y-103364855D01*
X77377628Y-103491708D01*
X77142534Y-103726393D01*
X77015145Y-104033179D01*
X77014855Y-104365363D01*
X74198115Y-104365363D01*
X74476919Y-104087046D01*
X74634820Y-103706777D01*
X74635179Y-103295029D01*
X74477942Y-102914485D01*
X74187046Y-102623081D01*
X73806777Y-102465180D01*
X73395029Y-102464821D01*
X73014485Y-102622058D01*
X72723081Y-102912954D01*
X72565180Y-103293223D01*
X72564821Y-103704971D01*
X53343433Y-103704971D01*
X53006777Y-103565180D01*
X52595029Y-103564821D01*
X52214485Y-103722058D01*
X51923081Y-104012954D01*
X51765180Y-104393223D01*
X51764821Y-104804971D01*
X50710000Y-104804971D01*
X50710000Y-102654971D01*
X51764821Y-102654971D01*
X51922058Y-103035515D01*
X52212954Y-103326919D01*
X52593223Y-103484820D01*
X53004971Y-103485179D01*
X53385515Y-103327942D01*
X53676919Y-103037046D01*
X53834820Y-102656777D01*
X53835179Y-102245029D01*
X53677942Y-101864485D01*
X53387046Y-101573081D01*
X53102605Y-101454971D01*
X72714821Y-101454971D01*
X72872058Y-101835515D01*
X73162954Y-102126919D01*
X73543223Y-102284820D01*
X73954971Y-102285179D01*
X74335515Y-102127942D01*
X74404606Y-102058971D01*
X76466821Y-102058971D01*
X76624058Y-102439515D01*
X76914954Y-102730919D01*
X77295223Y-102888820D01*
X77706971Y-102889179D01*
X78087515Y-102731942D01*
X78378919Y-102441046D01*
X78536820Y-102060777D01*
X78537179Y-101649029D01*
X78379942Y-101268485D01*
X78089046Y-100977081D01*
X77708777Y-100819180D01*
X77297029Y-100818821D01*
X76916485Y-100976058D01*
X76625081Y-101266954D01*
X76467180Y-101647223D01*
X76466821Y-102058971D01*
X74404606Y-102058971D01*
X74626919Y-101837046D01*
X74784820Y-101456777D01*
X74785179Y-101045029D01*
X74627942Y-100664485D01*
X74337046Y-100373081D01*
X74004624Y-100235048D01*
X74154971Y-100235179D01*
X74535515Y-100077942D01*
X74826919Y-99787046D01*
X74984820Y-99406777D01*
X74985179Y-98995029D01*
X74827942Y-98614485D01*
X74588712Y-98374837D01*
X74826919Y-98137046D01*
X74984820Y-97756777D01*
X74985179Y-97345029D01*
X74827942Y-96964485D01*
X74537046Y-96673081D01*
X74156777Y-96515180D01*
X73745029Y-96514821D01*
X73364485Y-96672058D01*
X73073081Y-96962954D01*
X72915180Y-97343223D01*
X72914821Y-97754971D01*
X73072058Y-98135515D01*
X73311288Y-98375163D01*
X73073081Y-98612954D01*
X72915180Y-98993223D01*
X72914821Y-99404971D01*
X73072058Y-99785515D01*
X73362954Y-100076919D01*
X73695376Y-100214952D01*
X73545029Y-100214821D01*
X73164485Y-100372058D01*
X72873081Y-100662954D01*
X72715180Y-101043223D01*
X72714821Y-101454971D01*
X53102605Y-101454971D01*
X53006777Y-101415180D01*
X52595029Y-101414821D01*
X52214485Y-101572058D01*
X51923081Y-101862954D01*
X51765180Y-102243223D01*
X51764821Y-102654971D01*
X50710000Y-102654971D01*
X50710000Y-99354971D01*
X52514821Y-99354971D01*
X52672058Y-99735515D01*
X52962954Y-100026919D01*
X53343223Y-100184820D01*
X53754971Y-100185179D01*
X54135515Y-100027942D01*
X54426919Y-99737046D01*
X54584820Y-99356777D01*
X54585179Y-98945029D01*
X54427942Y-98564485D01*
X54137046Y-98273081D01*
X53756777Y-98115180D01*
X53345029Y-98114821D01*
X52964485Y-98272058D01*
X52673081Y-98562954D01*
X52515180Y-98943223D01*
X52514821Y-99354971D01*
X50710000Y-99354971D01*
X50710000Y-96504971D01*
X52114821Y-96504971D01*
X52272058Y-96885515D01*
X52562954Y-97176919D01*
X52943223Y-97334820D01*
X53354971Y-97335179D01*
X53735515Y-97177942D01*
X54026919Y-96887046D01*
X54184820Y-96506777D01*
X54185179Y-96095029D01*
X54027942Y-95714485D01*
X53737046Y-95423081D01*
X53356777Y-95265180D01*
X52945029Y-95264821D01*
X52564485Y-95422058D01*
X52273081Y-95712954D01*
X52115180Y-96093223D01*
X52114821Y-96504971D01*
X50710000Y-96504971D01*
X50710000Y-93854971D01*
X53314821Y-93854971D01*
X53472058Y-94235515D01*
X53762954Y-94526919D01*
X54143223Y-94684820D01*
X54554971Y-94685179D01*
X54935515Y-94527942D01*
X55226919Y-94237046D01*
X55248542Y-94184971D01*
X73918821Y-94184971D01*
X74076058Y-94565515D01*
X74366954Y-94856919D01*
X74747223Y-95014820D01*
X75158971Y-95015179D01*
X75539515Y-94857942D01*
X75830919Y-94567046D01*
X75988820Y-94186777D01*
X75989179Y-93775029D01*
X75831942Y-93394485D01*
X75541046Y-93103081D01*
X75160777Y-92945180D01*
X74749029Y-92944821D01*
X74368485Y-93102058D01*
X74077081Y-93392954D01*
X73919180Y-93773223D01*
X73918821Y-94184971D01*
X55248542Y-94184971D01*
X55384820Y-93856777D01*
X55385179Y-93445029D01*
X55227942Y-93064485D01*
X54937046Y-92773081D01*
X54556777Y-92615180D01*
X54145029Y-92614821D01*
X53764485Y-92772058D01*
X53473081Y-93062954D01*
X53315180Y-93443223D01*
X53314821Y-93854971D01*
X50710000Y-93854971D01*
X50710000Y-89104971D01*
X53314821Y-89104971D01*
X53472058Y-89485515D01*
X53762954Y-89776919D01*
X54143223Y-89934820D01*
X54554971Y-89935179D01*
X54935515Y-89777942D01*
X55226919Y-89487046D01*
X55280100Y-89358971D01*
X73918821Y-89358971D01*
X74076058Y-89739515D01*
X74366954Y-90030919D01*
X74747223Y-90188820D01*
X75158971Y-90189179D01*
X75539515Y-90031942D01*
X75830919Y-89741046D01*
X75988820Y-89360777D01*
X75989179Y-88949029D01*
X75831942Y-88568485D01*
X75541046Y-88277081D01*
X75160777Y-88119180D01*
X74749029Y-88118821D01*
X74368485Y-88276058D01*
X74077081Y-88566954D01*
X73919180Y-88947223D01*
X73918821Y-89358971D01*
X55280100Y-89358971D01*
X55384820Y-89106777D01*
X55385179Y-88695029D01*
X55227942Y-88314485D01*
X54937046Y-88023081D01*
X54793229Y-87963363D01*
X84254855Y-87963363D01*
X84381708Y-88270372D01*
X84616393Y-88505466D01*
X84923179Y-88632855D01*
X85255363Y-88633145D01*
X85562372Y-88506292D01*
X85797466Y-88271607D01*
X85924855Y-87964821D01*
X85925145Y-87632637D01*
X85798292Y-87325628D01*
X85563607Y-87090534D01*
X85256821Y-86963145D01*
X84924637Y-86962855D01*
X84617628Y-87089708D01*
X84382534Y-87324393D01*
X84255145Y-87631179D01*
X84254855Y-87963363D01*
X54793229Y-87963363D01*
X54556777Y-87865180D01*
X54145029Y-87864821D01*
X53764485Y-88022058D01*
X53473081Y-88312954D01*
X53315180Y-88693223D01*
X53314821Y-89104971D01*
X50710000Y-89104971D01*
X50710000Y-82415305D01*
X59938674Y-82415305D01*
X60225043Y-83108372D01*
X60754839Y-83639093D01*
X61447405Y-83926672D01*
X62197305Y-83927326D01*
X62890372Y-83640957D01*
X63421093Y-83111161D01*
X63708672Y-82418595D01*
X63709326Y-81668695D01*
X63598017Y-81399305D01*
X80004674Y-81399305D01*
X80291043Y-82092372D01*
X80820839Y-82623093D01*
X81513405Y-82910672D01*
X82263305Y-82911326D01*
X82956372Y-82624957D01*
X83487093Y-82095161D01*
X83489650Y-82089002D01*
X83491043Y-82092372D01*
X84020839Y-82623093D01*
X84713405Y-82910672D01*
X85463305Y-82911326D01*
X86156372Y-82624957D01*
X86687093Y-82095161D01*
X86974672Y-81402595D01*
X86975326Y-80652695D01*
X86688957Y-79959628D01*
X86159161Y-79428907D01*
X85466595Y-79141328D01*
X84716695Y-79140674D01*
X84023628Y-79427043D01*
X83492907Y-79956839D01*
X83490350Y-79962998D01*
X83488957Y-79959628D01*
X82959161Y-79428907D01*
X82266595Y-79141328D01*
X81516695Y-79140674D01*
X80823628Y-79427043D01*
X80292907Y-79956839D01*
X80005328Y-80649405D01*
X80004674Y-81399305D01*
X63598017Y-81399305D01*
X63422957Y-80975628D01*
X62893161Y-80444907D01*
X62200595Y-80157328D01*
X61450695Y-80156674D01*
X60757628Y-80443043D01*
X60226907Y-80972839D01*
X59939328Y-81665405D01*
X59938674Y-82415305D01*
X50710000Y-82415305D01*
X50710000Y-77865363D01*
X55127855Y-77865363D01*
X55254708Y-78172372D01*
X55489393Y-78407466D01*
X55796179Y-78534855D01*
X56128363Y-78535145D01*
X56435372Y-78408292D01*
X56670466Y-78173607D01*
X56797855Y-77866821D01*
X56798145Y-77534637D01*
X56671292Y-77227628D01*
X56436607Y-76992534D01*
X56129821Y-76865145D01*
X55797637Y-76864855D01*
X55490628Y-76991708D01*
X55255534Y-77226393D01*
X55128145Y-77533179D01*
X55127855Y-77865363D01*
X50710000Y-77865363D01*
X50710000Y-76365363D01*
X52314355Y-76365363D01*
X52441208Y-76672372D01*
X52675893Y-76907466D01*
X52982679Y-77034855D01*
X53314863Y-77035145D01*
X53621872Y-76908292D01*
X53815137Y-76715363D01*
X57814855Y-76715363D01*
X57941708Y-77022372D01*
X58176393Y-77257466D01*
X58483179Y-77384855D01*
X58815363Y-77385145D01*
X59122372Y-77258292D01*
X59357466Y-77023607D01*
X59484855Y-76716821D01*
X59485145Y-76384637D01*
X59358292Y-76077628D01*
X59123607Y-75842534D01*
X58816821Y-75715145D01*
X58484637Y-75714855D01*
X58177628Y-75841708D01*
X57942534Y-76076393D01*
X57815145Y-76383179D01*
X57814855Y-76715363D01*
X53815137Y-76715363D01*
X53856966Y-76673607D01*
X53984355Y-76366821D01*
X53984645Y-76034637D01*
X53857792Y-75727628D01*
X53623107Y-75492534D01*
X53316321Y-75365145D01*
X52984137Y-75364855D01*
X52677128Y-75491708D01*
X52442034Y-75726393D01*
X52314645Y-76033179D01*
X52314355Y-76365363D01*
X50710000Y-76365363D01*
X50710000Y-72965363D01*
X54614855Y-72965363D01*
X54741708Y-73272372D01*
X54976393Y-73507466D01*
X55283179Y-73634855D01*
X55615363Y-73635145D01*
X55922372Y-73508292D01*
X56157466Y-73273607D01*
X56284855Y-72966821D01*
X56285145Y-72634637D01*
X56158292Y-72327628D01*
X55923607Y-72092534D01*
X55616821Y-71965145D01*
X55284637Y-71964855D01*
X54977628Y-72091708D01*
X54742534Y-72326393D01*
X54615145Y-72633179D01*
X54614855Y-72965363D01*
X50710000Y-72965363D01*
X50710000Y-71574775D01*
X59114803Y-71574775D01*
X59287233Y-71992086D01*
X59606235Y-72311645D01*
X60023244Y-72484803D01*
X60474775Y-72485197D01*
X60892086Y-72312767D01*
X61211645Y-71993765D01*
X61384803Y-71576756D01*
X61385197Y-71125225D01*
X61212767Y-70707914D01*
X60893765Y-70388355D01*
X60476756Y-70215197D01*
X60025225Y-70214803D01*
X59607914Y-70387233D01*
X59288355Y-70706235D01*
X59115197Y-71123244D01*
X59114803Y-71574775D01*
X50710000Y-71574775D01*
X50710000Y-69965363D01*
X53364855Y-69965363D01*
X53491708Y-70272372D01*
X53726393Y-70507466D01*
X54033179Y-70634855D01*
X54365363Y-70635145D01*
X54672372Y-70508292D01*
X54907466Y-70273607D01*
X55034855Y-69966821D01*
X55034856Y-69965363D01*
X56464855Y-69965363D01*
X56591708Y-70272372D01*
X56826393Y-70507466D01*
X57133179Y-70634855D01*
X57465363Y-70635145D01*
X57772372Y-70508292D01*
X58007466Y-70273607D01*
X58134855Y-69966821D01*
X58135145Y-69634637D01*
X58008292Y-69327628D01*
X57773607Y-69092534D01*
X57466821Y-68965145D01*
X57134637Y-68964855D01*
X56827628Y-69091708D01*
X56592534Y-69326393D01*
X56465145Y-69633179D01*
X56464855Y-69965363D01*
X55034856Y-69965363D01*
X55035145Y-69634637D01*
X54908292Y-69327628D01*
X54673607Y-69092534D01*
X54366821Y-68965145D01*
X54034637Y-68964855D01*
X53727628Y-69091708D01*
X53492534Y-69326393D01*
X53365145Y-69633179D01*
X53364855Y-69965363D01*
X50710000Y-69965363D01*
X50710000Y-67965363D01*
X53364855Y-67965363D01*
X53491708Y-68272372D01*
X53726393Y-68507466D01*
X54033179Y-68634855D01*
X54365363Y-68635145D01*
X54672372Y-68508292D01*
X54907466Y-68273607D01*
X55034855Y-67966821D01*
X55034856Y-67965363D01*
X56464855Y-67965363D01*
X56591708Y-68272372D01*
X56826393Y-68507466D01*
X57133179Y-68634855D01*
X57465363Y-68635145D01*
X57772372Y-68508292D01*
X58007466Y-68273607D01*
X58134855Y-67966821D01*
X58134961Y-67845363D01*
X74864855Y-67845363D01*
X74991708Y-68152372D01*
X75226393Y-68387466D01*
X75533179Y-68514855D01*
X75865363Y-68515145D01*
X76172372Y-68388292D01*
X76407466Y-68153607D01*
X76534855Y-67846821D01*
X76535145Y-67514637D01*
X76408292Y-67207628D01*
X76173607Y-66972534D01*
X75866821Y-66845145D01*
X75534637Y-66844855D01*
X75227628Y-66971708D01*
X74992534Y-67206393D01*
X74865145Y-67513179D01*
X74864855Y-67845363D01*
X58134961Y-67845363D01*
X58135145Y-67634637D01*
X58008292Y-67327628D01*
X57773607Y-67092534D01*
X57466821Y-66965145D01*
X57134637Y-66964855D01*
X56827628Y-67091708D01*
X56592534Y-67326393D01*
X56465145Y-67633179D01*
X56464855Y-67965363D01*
X55034856Y-67965363D01*
X55035145Y-67634637D01*
X54908292Y-67327628D01*
X54673607Y-67092534D01*
X54366821Y-66965145D01*
X54034637Y-66964855D01*
X53727628Y-67091708D01*
X53492534Y-67326393D01*
X53365145Y-67633179D01*
X53364855Y-67965363D01*
X50710000Y-67965363D01*
X50710000Y-65115363D01*
X54114855Y-65115363D01*
X54241708Y-65422372D01*
X54476393Y-65657466D01*
X54783179Y-65784855D01*
X55115363Y-65785145D01*
X55422372Y-65658292D01*
X55657466Y-65423607D01*
X55784855Y-65116821D01*
X55785145Y-64784637D01*
X55658292Y-64477628D01*
X55423607Y-64242534D01*
X55116821Y-64115145D01*
X54784637Y-64114855D01*
X54477628Y-64241708D01*
X54242534Y-64476393D01*
X54115145Y-64783179D01*
X54114855Y-65115363D01*
X50710000Y-65115363D01*
X50710000Y-64174775D01*
X51564803Y-64174775D01*
X51737233Y-64592086D01*
X52056235Y-64911645D01*
X52473244Y-65084803D01*
X52924775Y-65085197D01*
X53342086Y-64912767D01*
X53661645Y-64593765D01*
X53834803Y-64176756D01*
X53834926Y-64035363D01*
X74864855Y-64035363D01*
X74991708Y-64342372D01*
X75154131Y-64505078D01*
X74992534Y-64666393D01*
X74865145Y-64973179D01*
X74864855Y-65305363D01*
X74991708Y-65612372D01*
X75226393Y-65847466D01*
X75533179Y-65974855D01*
X75865363Y-65975145D01*
X76172372Y-65848292D01*
X76407466Y-65613607D01*
X76534855Y-65306821D01*
X76535145Y-64974637D01*
X76408292Y-64667628D01*
X76245869Y-64504922D01*
X76407466Y-64343607D01*
X76534855Y-64036821D01*
X76535145Y-63704637D01*
X76408292Y-63397628D01*
X76173607Y-63162534D01*
X75866821Y-63035145D01*
X75534637Y-63034855D01*
X75227628Y-63161708D01*
X74992534Y-63396393D01*
X74865145Y-63703179D01*
X74864855Y-64035363D01*
X53834926Y-64035363D01*
X53835197Y-63725225D01*
X53662767Y-63307914D01*
X53343765Y-62988355D01*
X52926756Y-62815197D01*
X52475225Y-62814803D01*
X52057914Y-62987233D01*
X51738355Y-63306235D01*
X51565197Y-63723244D01*
X51564803Y-64174775D01*
X50710000Y-64174775D01*
X50710000Y-61230364D01*
X78136625Y-61230364D01*
X78263478Y-61537373D01*
X78498163Y-61772467D01*
X78804949Y-61899856D01*
X79137133Y-61900146D01*
X79444142Y-61773293D01*
X79679236Y-61538608D01*
X79806625Y-61231822D01*
X79806915Y-60899638D01*
X79680062Y-60592629D01*
X79445377Y-60357535D01*
X79138591Y-60230146D01*
X78806407Y-60229856D01*
X78499398Y-60356709D01*
X78264304Y-60591394D01*
X78136915Y-60898180D01*
X78136625Y-61230364D01*
X50710000Y-61230364D01*
X50710000Y-60224775D01*
X54264803Y-60224775D01*
X54437233Y-60642086D01*
X54756235Y-60961645D01*
X55173244Y-61134803D01*
X55624775Y-61135197D01*
X56042086Y-60962767D01*
X56361645Y-60643765D01*
X56534803Y-60226756D01*
X56535161Y-59815363D01*
X81814855Y-59815363D01*
X81941708Y-60122372D01*
X82176393Y-60357466D01*
X82483179Y-60484855D01*
X82815363Y-60485145D01*
X83122372Y-60358292D01*
X83357466Y-60123607D01*
X83484855Y-59816821D01*
X83485145Y-59484637D01*
X83358292Y-59177628D01*
X83123607Y-58942534D01*
X82816821Y-58815145D01*
X82484637Y-58814855D01*
X82177628Y-58941708D01*
X81942534Y-59176393D01*
X81815145Y-59483179D01*
X81814855Y-59815363D01*
X56535161Y-59815363D01*
X56535197Y-59775225D01*
X56362767Y-59357914D01*
X56043765Y-59038355D01*
X55626756Y-58865197D01*
X55175225Y-58864803D01*
X54757914Y-59037233D01*
X54438355Y-59356235D01*
X54265197Y-59773244D01*
X54264803Y-60224775D01*
X50710000Y-60224775D01*
X50710000Y-57924775D01*
X54364803Y-57924775D01*
X54537233Y-58342086D01*
X54856235Y-58661645D01*
X55273244Y-58834803D01*
X55724775Y-58835197D01*
X56142086Y-58662767D01*
X56461645Y-58343765D01*
X56634803Y-57926756D01*
X56635197Y-57475225D01*
X56462767Y-57057914D01*
X56143765Y-56738355D01*
X55726756Y-56565197D01*
X55275225Y-56564803D01*
X54857914Y-56737233D01*
X54538355Y-57056235D01*
X54365197Y-57473244D01*
X54364803Y-57924775D01*
X50710000Y-57924775D01*
X50710000Y-55365363D01*
X52464855Y-55365363D01*
X52591708Y-55672372D01*
X52826393Y-55907466D01*
X53133179Y-56034855D01*
X53465363Y-56035145D01*
X53513239Y-56015363D01*
X58969845Y-56015363D01*
X59062919Y-56240620D01*
X58970135Y-56464067D01*
X58969845Y-56796251D01*
X59096698Y-57103260D01*
X59166774Y-57173458D01*
X59097524Y-57242588D01*
X58970135Y-57549374D01*
X58969845Y-57881558D01*
X59096698Y-58188567D01*
X59297122Y-58389340D01*
X59296933Y-58606070D01*
X59423786Y-58913079D01*
X59658471Y-59148173D01*
X59965257Y-59275562D01*
X60297441Y-59275852D01*
X60604450Y-59148999D01*
X60788406Y-58965363D01*
X79514855Y-58965363D01*
X79641708Y-59272372D01*
X79876393Y-59507466D01*
X80183179Y-59634855D01*
X80515363Y-59635145D01*
X80822372Y-59508292D01*
X81057466Y-59273607D01*
X81184855Y-58966821D01*
X81185145Y-58634637D01*
X81058292Y-58327628D01*
X80823607Y-58092534D01*
X80516821Y-57965145D01*
X80184637Y-57964855D01*
X79877628Y-58091708D01*
X79642534Y-58326393D01*
X79515145Y-58633179D01*
X79514855Y-58965363D01*
X60788406Y-58965363D01*
X60839544Y-58914314D01*
X60966933Y-58607528D01*
X60967223Y-58275344D01*
X60921780Y-58165363D01*
X63814855Y-58165363D01*
X63941708Y-58472372D01*
X64176393Y-58707466D01*
X64483179Y-58834855D01*
X64815363Y-58835145D01*
X65122372Y-58708292D01*
X65357466Y-58473607D01*
X65484855Y-58166821D01*
X65485145Y-57834637D01*
X65398433Y-57624775D01*
X81014803Y-57624775D01*
X81187233Y-58042086D01*
X81506235Y-58361645D01*
X81923244Y-58534803D01*
X82374775Y-58535197D01*
X82792086Y-58362767D01*
X83111645Y-58043765D01*
X83284803Y-57626756D01*
X83285197Y-57175225D01*
X83112767Y-56757914D01*
X82793765Y-56438355D01*
X82376756Y-56265197D01*
X81925225Y-56264803D01*
X81507914Y-56437233D01*
X81188355Y-56756235D01*
X81015197Y-57173244D01*
X81014803Y-57624775D01*
X65398433Y-57624775D01*
X65358292Y-57527628D01*
X65123607Y-57292534D01*
X64816821Y-57165145D01*
X64484637Y-57164855D01*
X64177628Y-57291708D01*
X63942534Y-57526393D01*
X63815145Y-57833179D01*
X63814855Y-58165363D01*
X60921780Y-58165363D01*
X60840370Y-57968335D01*
X60639946Y-57767562D01*
X60640135Y-57550832D01*
X60513282Y-57243823D01*
X60443206Y-57173625D01*
X60512456Y-57104495D01*
X60639845Y-56797709D01*
X60640091Y-56515363D01*
X64264855Y-56515363D01*
X64391708Y-56822372D01*
X64626393Y-57057466D01*
X64933179Y-57184855D01*
X65265363Y-57185145D01*
X65572372Y-57058292D01*
X65807466Y-56823607D01*
X65934855Y-56516821D01*
X65935145Y-56184637D01*
X65808292Y-55877628D01*
X65796500Y-55865815D01*
X66083179Y-55984855D01*
X66415363Y-55985145D01*
X66572097Y-55920384D01*
X69364855Y-55920384D01*
X69491708Y-56227393D01*
X69726393Y-56462487D01*
X70033179Y-56589876D01*
X70365363Y-56590166D01*
X70672372Y-56463313D01*
X70907466Y-56228628D01*
X71034855Y-55921842D01*
X71035145Y-55589658D01*
X70908292Y-55282649D01*
X70750693Y-55124775D01*
X80414803Y-55124775D01*
X80587233Y-55542086D01*
X80906235Y-55861645D01*
X81323244Y-56034803D01*
X81774775Y-56035197D01*
X82192086Y-55862767D01*
X82511645Y-55543765D01*
X82684803Y-55126756D01*
X82685197Y-54675225D01*
X82512767Y-54257914D01*
X82193765Y-53938355D01*
X81776756Y-53765197D01*
X81325225Y-53764803D01*
X80907914Y-53937233D01*
X80588355Y-54256235D01*
X80415197Y-54673244D01*
X80414803Y-55124775D01*
X70750693Y-55124775D01*
X70673607Y-55047555D01*
X70366821Y-54920166D01*
X70034637Y-54919876D01*
X69727628Y-55046729D01*
X69492534Y-55281414D01*
X69365145Y-55588200D01*
X69364855Y-55920384D01*
X66572097Y-55920384D01*
X66722372Y-55858292D01*
X66957466Y-55623607D01*
X67084855Y-55316821D01*
X67085145Y-54984637D01*
X66958292Y-54677628D01*
X66723607Y-54442534D01*
X66602279Y-54392154D01*
X66577987Y-54333362D01*
X66584855Y-54316821D01*
X66585145Y-53984637D01*
X66577182Y-53965363D01*
X71664855Y-53965363D01*
X71791708Y-54272372D01*
X72026393Y-54507466D01*
X72333179Y-54634855D01*
X72665363Y-54635145D01*
X72972372Y-54508292D01*
X73207466Y-54273607D01*
X73334855Y-53966821D01*
X73335092Y-53695594D01*
X73557466Y-53473607D01*
X73684855Y-53166821D01*
X73685145Y-52834637D01*
X73577773Y-52574775D01*
X80414803Y-52574775D01*
X80587233Y-52992086D01*
X80906235Y-53311645D01*
X81323244Y-53484803D01*
X81774775Y-53485197D01*
X82192086Y-53312767D01*
X82511645Y-52993765D01*
X82684803Y-52576756D01*
X82684813Y-52564971D01*
X90414821Y-52564971D01*
X90572058Y-52945515D01*
X90862954Y-53236919D01*
X91243223Y-53394820D01*
X91654971Y-53395179D01*
X92035515Y-53237942D01*
X92326919Y-52947046D01*
X92484820Y-52566777D01*
X92485179Y-52155029D01*
X92327942Y-51774485D01*
X92037046Y-51483081D01*
X91656777Y-51325180D01*
X91245029Y-51324821D01*
X90864485Y-51482058D01*
X90573081Y-51772954D01*
X90415180Y-52153223D01*
X90414821Y-52564971D01*
X82684813Y-52564971D01*
X82685197Y-52125225D01*
X82512767Y-51707914D01*
X82193765Y-51388355D01*
X81776756Y-51215197D01*
X81325225Y-51214803D01*
X80907914Y-51387233D01*
X80588355Y-51706235D01*
X80415197Y-52123244D01*
X80414803Y-52574775D01*
X73577773Y-52574775D01*
X73558292Y-52527628D01*
X73380956Y-52349983D01*
X73457466Y-52273607D01*
X73584855Y-51966821D01*
X73585145Y-51634637D01*
X73486036Y-51394774D01*
X73636781Y-51244292D01*
X73764170Y-50937506D01*
X73764460Y-50605322D01*
X73637607Y-50298313D01*
X73402922Y-50063219D01*
X73310339Y-50024775D01*
X80414803Y-50024775D01*
X80587233Y-50442086D01*
X80906235Y-50761645D01*
X81323244Y-50934803D01*
X81774775Y-50935197D01*
X82192086Y-50762767D01*
X82511645Y-50443765D01*
X82684803Y-50026756D01*
X82684804Y-50024971D01*
X90414821Y-50024971D01*
X90572058Y-50405515D01*
X90862954Y-50696919D01*
X91243223Y-50854820D01*
X91654971Y-50855179D01*
X92035515Y-50697942D01*
X92326919Y-50407046D01*
X92484820Y-50026777D01*
X92485179Y-49615029D01*
X92327942Y-49234485D01*
X92037046Y-48943081D01*
X91656777Y-48785180D01*
X91245029Y-48784821D01*
X90864485Y-48942058D01*
X90573081Y-49232954D01*
X90415180Y-49613223D01*
X90414821Y-50024971D01*
X82684804Y-50024971D01*
X82685197Y-49575225D01*
X82512767Y-49157914D01*
X82193765Y-48838355D01*
X81776756Y-48665197D01*
X81325225Y-48664803D01*
X80907914Y-48837233D01*
X80588355Y-49156235D01*
X80415197Y-49573244D01*
X80414803Y-50024775D01*
X73310339Y-50024775D01*
X73096136Y-49935830D01*
X72763952Y-49935540D01*
X72456943Y-50062393D01*
X72221849Y-50297078D01*
X72094460Y-50603864D01*
X72094170Y-50936048D01*
X72193279Y-51175911D01*
X72042534Y-51326393D01*
X71915145Y-51633179D01*
X71914855Y-51965363D01*
X72041708Y-52272372D01*
X72219044Y-52450017D01*
X72142534Y-52526393D01*
X72015145Y-52833179D01*
X72014908Y-53104406D01*
X71792534Y-53326393D01*
X71665145Y-53633179D01*
X71664855Y-53965363D01*
X66577182Y-53965363D01*
X66458292Y-53677628D01*
X66223607Y-53442534D01*
X65916821Y-53315145D01*
X65584637Y-53314855D01*
X65277628Y-53441708D01*
X65042534Y-53676393D01*
X64915145Y-53983179D01*
X64914855Y-54315363D01*
X64988054Y-54492520D01*
X64981186Y-54509061D01*
X64980896Y-54841245D01*
X65107749Y-55148254D01*
X65342434Y-55383348D01*
X65463762Y-55433728D01*
X65541708Y-55622372D01*
X65553500Y-55634185D01*
X65266821Y-55515145D01*
X64934637Y-55514855D01*
X64627628Y-55641708D01*
X64392534Y-55876393D01*
X64265145Y-56183179D01*
X64264855Y-56515363D01*
X60640091Y-56515363D01*
X60640135Y-56465525D01*
X60547061Y-56240268D01*
X60639845Y-56016821D01*
X60640135Y-55684637D01*
X60513282Y-55377628D01*
X60278597Y-55142534D01*
X59971811Y-55015145D01*
X59639627Y-55014855D01*
X59332618Y-55141708D01*
X59097524Y-55376393D01*
X58970135Y-55683179D01*
X58969845Y-56015363D01*
X53513239Y-56015363D01*
X53772372Y-55908292D01*
X54007466Y-55673607D01*
X54134855Y-55366821D01*
X54135145Y-55034637D01*
X54008292Y-54727628D01*
X53773607Y-54492534D01*
X53466821Y-54365145D01*
X53134637Y-54364855D01*
X52827628Y-54491708D01*
X52592534Y-54726393D01*
X52465145Y-55033179D01*
X52464855Y-55365363D01*
X50710000Y-55365363D01*
X50710000Y-52765363D01*
X62464855Y-52765363D01*
X62591708Y-53072372D01*
X62826393Y-53307466D01*
X63133179Y-53434855D01*
X63465363Y-53435145D01*
X63772372Y-53308292D01*
X64007466Y-53073607D01*
X64134855Y-52766821D01*
X64135030Y-52565363D01*
X68309865Y-52565363D01*
X68436718Y-52872372D01*
X68671403Y-53107466D01*
X68978189Y-53234855D01*
X69310373Y-53235145D01*
X69617382Y-53108292D01*
X69852476Y-52873607D01*
X69979865Y-52566821D01*
X69980155Y-52234637D01*
X69853302Y-51927628D01*
X69618617Y-51692534D01*
X69311831Y-51565145D01*
X68979647Y-51564855D01*
X68672638Y-51691708D01*
X68437544Y-51926393D01*
X68310155Y-52233179D01*
X68309865Y-52565363D01*
X64135030Y-52565363D01*
X64135145Y-52434637D01*
X64008292Y-52127628D01*
X63773607Y-51892534D01*
X63466821Y-51765145D01*
X63134637Y-51764855D01*
X62827628Y-51891708D01*
X62592534Y-52126393D01*
X62465145Y-52433179D01*
X62464855Y-52765363D01*
X50710000Y-52765363D01*
X50710000Y-49624775D01*
X59064803Y-49624775D01*
X59237233Y-50042086D01*
X59556235Y-50361645D01*
X59973244Y-50534803D01*
X60424775Y-50535197D01*
X60842086Y-50362767D01*
X61161645Y-50043765D01*
X61334803Y-49626756D01*
X61335197Y-49175225D01*
X61162767Y-48757914D01*
X60843765Y-48438355D01*
X60426756Y-48265197D01*
X59975225Y-48264803D01*
X59557914Y-48437233D01*
X59238355Y-48756235D01*
X59065197Y-49173244D01*
X59064803Y-49624775D01*
X50710000Y-49624775D01*
X50710000Y-48565363D01*
X52364855Y-48565363D01*
X52491708Y-48872372D01*
X52726393Y-49107466D01*
X53033179Y-49234855D01*
X53365363Y-49235145D01*
X53672372Y-49108292D01*
X53907466Y-48873607D01*
X54034855Y-48566821D01*
X54035145Y-48234637D01*
X53998564Y-48146103D01*
X67425485Y-48146103D01*
X67552338Y-48453112D01*
X67777888Y-48679055D01*
X67770747Y-48696251D01*
X67770457Y-49028435D01*
X67897310Y-49335444D01*
X68131995Y-49570538D01*
X68438781Y-49697927D01*
X68770965Y-49698217D01*
X69077974Y-49571364D01*
X69313068Y-49336679D01*
X69440457Y-49029893D01*
X69440747Y-48697709D01*
X69313894Y-48390700D01*
X69177052Y-48253620D01*
X69215375Y-48215363D01*
X70314855Y-48215363D01*
X70441708Y-48522372D01*
X70676393Y-48757466D01*
X70899948Y-48850294D01*
X70991708Y-49072372D01*
X71226393Y-49307466D01*
X71533179Y-49434855D01*
X71865363Y-49435145D01*
X72172372Y-49308292D01*
X72407466Y-49073607D01*
X72534855Y-48766821D01*
X72535145Y-48434637D01*
X72408292Y-48127628D01*
X72173607Y-47892534D01*
X71950052Y-47799706D01*
X71858292Y-47577628D01*
X71805531Y-47524775D01*
X80414803Y-47524775D01*
X80587233Y-47942086D01*
X80906235Y-48261645D01*
X81323244Y-48434803D01*
X81774775Y-48435197D01*
X82192086Y-48262767D01*
X82511645Y-47943765D01*
X82684803Y-47526756D01*
X82684839Y-47484971D01*
X90414821Y-47484971D01*
X90572058Y-47865515D01*
X90862954Y-48156919D01*
X91243223Y-48314820D01*
X91654971Y-48315179D01*
X92035515Y-48157942D01*
X92326919Y-47867046D01*
X92484820Y-47486777D01*
X92485179Y-47075029D01*
X92327942Y-46694485D01*
X92037046Y-46403081D01*
X91656777Y-46245180D01*
X91245029Y-46244821D01*
X90864485Y-46402058D01*
X90573081Y-46692954D01*
X90415180Y-47073223D01*
X90414821Y-47484971D01*
X82684839Y-47484971D01*
X82685197Y-47075225D01*
X82512767Y-46657914D01*
X82193765Y-46338355D01*
X81776756Y-46165197D01*
X81325225Y-46164803D01*
X80907914Y-46337233D01*
X80588355Y-46656235D01*
X80415197Y-47073244D01*
X80414803Y-47524775D01*
X71805531Y-47524775D01*
X71623607Y-47342534D01*
X71316821Y-47215145D01*
X70984637Y-47214855D01*
X70677628Y-47341708D01*
X70442534Y-47576393D01*
X70315145Y-47883179D01*
X70314855Y-48215363D01*
X69215375Y-48215363D01*
X69407466Y-48023607D01*
X69534855Y-47716821D01*
X69535145Y-47384637D01*
X69408292Y-47077628D01*
X69173607Y-46842534D01*
X68866821Y-46715145D01*
X68534637Y-46714855D01*
X68227628Y-46841708D01*
X67992534Y-47076393D01*
X67936571Y-47211167D01*
X67788258Y-47272448D01*
X67553164Y-47507133D01*
X67425775Y-47813919D01*
X67425485Y-48146103D01*
X53998564Y-48146103D01*
X53908292Y-47927628D01*
X53673607Y-47692534D01*
X53366821Y-47565145D01*
X53034637Y-47564855D01*
X52727628Y-47691708D01*
X52492534Y-47926393D01*
X52365145Y-48233179D01*
X52364855Y-48565363D01*
X50710000Y-48565363D01*
X50710000Y-46065363D01*
X65414855Y-46065363D01*
X65541708Y-46372372D01*
X65776393Y-46607466D01*
X66083179Y-46734855D01*
X66415363Y-46735145D01*
X66722372Y-46608292D01*
X66957466Y-46373607D01*
X67084855Y-46066821D01*
X67085145Y-45734637D01*
X66958292Y-45427628D01*
X66723607Y-45192534D01*
X66416821Y-45065145D01*
X66084637Y-45064855D01*
X65777628Y-45191708D01*
X65542534Y-45426393D01*
X65415145Y-45733179D01*
X65414855Y-46065363D01*
X50710000Y-46065363D01*
X50710000Y-44915363D01*
X61714855Y-44915363D01*
X61841708Y-45222372D01*
X62076393Y-45457466D01*
X62383179Y-45584855D01*
X62715363Y-45585145D01*
X63022372Y-45458292D01*
X63257466Y-45223607D01*
X63360790Y-44974775D01*
X80464803Y-44974775D01*
X80637233Y-45392086D01*
X80956235Y-45711645D01*
X81373244Y-45884803D01*
X81824775Y-45885197D01*
X82242086Y-45712767D01*
X82561645Y-45393765D01*
X82734803Y-44976756D01*
X82735197Y-44525225D01*
X82562767Y-44107914D01*
X82243765Y-43788355D01*
X81826756Y-43615197D01*
X81375225Y-43614803D01*
X80957914Y-43787233D01*
X80638355Y-44106235D01*
X80465197Y-44523244D01*
X80464803Y-44974775D01*
X63360790Y-44974775D01*
X63384855Y-44916821D01*
X63385145Y-44584637D01*
X63258292Y-44277628D01*
X63023607Y-44042534D01*
X62716821Y-43915145D01*
X62384637Y-43914855D01*
X62077628Y-44041708D01*
X61842534Y-44276393D01*
X61715145Y-44583179D01*
X61714855Y-44915363D01*
X50710000Y-44915363D01*
X50710000Y-43215363D01*
X71714855Y-43215363D01*
X71841708Y-43522372D01*
X72076393Y-43757466D01*
X72383179Y-43884855D01*
X72715363Y-43885145D01*
X73022372Y-43758292D01*
X73257466Y-43523607D01*
X73384855Y-43216821D01*
X73385145Y-42884637D01*
X73377182Y-42865363D01*
X76114855Y-42865363D01*
X76241708Y-43172372D01*
X76476393Y-43407466D01*
X76783179Y-43534855D01*
X77115363Y-43535145D01*
X77422372Y-43408292D01*
X77657466Y-43173607D01*
X77784855Y-42866821D01*
X77785145Y-42534637D01*
X77658292Y-42227628D01*
X77454593Y-42023574D01*
X77765363Y-42023845D01*
X78072372Y-41896992D01*
X78307466Y-41662307D01*
X78434855Y-41355521D01*
X78435145Y-41023337D01*
X78308292Y-40716328D01*
X78073607Y-40481234D01*
X77766821Y-40353845D01*
X77434637Y-40353555D01*
X77127628Y-40480408D01*
X76892534Y-40715093D01*
X76765145Y-41021879D01*
X76764855Y-41354063D01*
X76891708Y-41661072D01*
X77095407Y-41865126D01*
X76784637Y-41864855D01*
X76477628Y-41991708D01*
X76242534Y-42226393D01*
X76115145Y-42533179D01*
X76114855Y-42865363D01*
X73377182Y-42865363D01*
X73258292Y-42577628D01*
X73023607Y-42342534D01*
X72716821Y-42215145D01*
X72384637Y-42214855D01*
X72077628Y-42341708D01*
X71842534Y-42576393D01*
X71715145Y-42883179D01*
X71714855Y-43215363D01*
X50710000Y-43215363D01*
X50710000Y-41365363D01*
X58814855Y-41365363D01*
X58941708Y-41672372D01*
X59176393Y-41907466D01*
X59483179Y-42034855D01*
X59815363Y-42035145D01*
X60105258Y-41915363D01*
X62514855Y-41915363D01*
X62641708Y-42222372D01*
X62876393Y-42457466D01*
X63183179Y-42584855D01*
X63515363Y-42585145D01*
X63822372Y-42458292D01*
X64057466Y-42223607D01*
X64184855Y-41916821D01*
X64185145Y-41584637D01*
X64058292Y-41277628D01*
X63823607Y-41042534D01*
X63516821Y-40915145D01*
X63184637Y-40914855D01*
X62877628Y-41041708D01*
X62642534Y-41276393D01*
X62515145Y-41583179D01*
X62514855Y-41915363D01*
X60105258Y-41915363D01*
X60122372Y-41908292D01*
X60357466Y-41673607D01*
X60484855Y-41366821D01*
X60485145Y-41034637D01*
X60358292Y-40727628D01*
X60123607Y-40492534D01*
X59816821Y-40365145D01*
X59484637Y-40364855D01*
X59177628Y-40491708D01*
X58942534Y-40726393D01*
X58815145Y-41033179D01*
X58814855Y-41365363D01*
X50710000Y-41365363D01*
X50710000Y-39865363D01*
X57164855Y-39865363D01*
X57291708Y-40172372D01*
X57526393Y-40407466D01*
X57833179Y-40534855D01*
X58165363Y-40535145D01*
X58472372Y-40408292D01*
X58707466Y-40173607D01*
X58834855Y-39866821D01*
X58835145Y-39534637D01*
X58827182Y-39515363D01*
X60464855Y-39515363D01*
X60591708Y-39822372D01*
X60826393Y-40057466D01*
X61133179Y-40184855D01*
X61465363Y-40185145D01*
X61772372Y-40058292D01*
X61915550Y-39915363D01*
X78814855Y-39915363D01*
X78941708Y-40222372D01*
X79176393Y-40457466D01*
X79483179Y-40584855D01*
X79815363Y-40585145D01*
X80122372Y-40458292D01*
X80357466Y-40223607D01*
X80423174Y-40065363D01*
X81414855Y-40065363D01*
X81541708Y-40372372D01*
X81776393Y-40607466D01*
X82083179Y-40734855D01*
X82415363Y-40735145D01*
X82722372Y-40608292D01*
X82957466Y-40373607D01*
X83084855Y-40066821D01*
X83084856Y-40065363D01*
X86664855Y-40065363D01*
X86791708Y-40372372D01*
X87026393Y-40607466D01*
X87333179Y-40734855D01*
X87665363Y-40735145D01*
X87972372Y-40608292D01*
X88207466Y-40373607D01*
X88334855Y-40066821D01*
X88335145Y-39734637D01*
X88208292Y-39427628D01*
X87973607Y-39192534D01*
X87666821Y-39065145D01*
X87334637Y-39064855D01*
X87027628Y-39191708D01*
X86792534Y-39426393D01*
X86665145Y-39733179D01*
X86664855Y-40065363D01*
X83084856Y-40065363D01*
X83085145Y-39734637D01*
X82958292Y-39427628D01*
X82723607Y-39192534D01*
X82416821Y-39065145D01*
X82084637Y-39064855D01*
X81777628Y-39191708D01*
X81542534Y-39426393D01*
X81415145Y-39733179D01*
X81414855Y-40065363D01*
X80423174Y-40065363D01*
X80484855Y-39916821D01*
X80485145Y-39584637D01*
X80358292Y-39277628D01*
X80123607Y-39042534D01*
X79816821Y-38915145D01*
X79484637Y-38914855D01*
X79177628Y-39041708D01*
X78942534Y-39276393D01*
X78815145Y-39583179D01*
X78814855Y-39915363D01*
X61915550Y-39915363D01*
X62007466Y-39823607D01*
X62134855Y-39516821D01*
X62135101Y-39235075D01*
X62215363Y-39235145D01*
X62522372Y-39108292D01*
X62757466Y-38873607D01*
X62884855Y-38566821D01*
X62885145Y-38234637D01*
X62758292Y-37927628D01*
X62523607Y-37692534D01*
X62216821Y-37565145D01*
X61884637Y-37564855D01*
X61577628Y-37691708D01*
X61342534Y-37926393D01*
X61215145Y-38233179D01*
X61214899Y-38514925D01*
X61134637Y-38514855D01*
X60827628Y-38641708D01*
X60592534Y-38876393D01*
X60465145Y-39183179D01*
X60464855Y-39515363D01*
X58827182Y-39515363D01*
X58708292Y-39227628D01*
X58473607Y-38992534D01*
X58166821Y-38865145D01*
X57834637Y-38864855D01*
X57527628Y-38991708D01*
X57292534Y-39226393D01*
X57165145Y-39533179D01*
X57164855Y-39865363D01*
X50710000Y-39865363D01*
X50710000Y-38015363D01*
X58264855Y-38015363D01*
X58391708Y-38322372D01*
X58626393Y-38557466D01*
X58933179Y-38684855D01*
X59265363Y-38685145D01*
X59572372Y-38558292D01*
X59807466Y-38323607D01*
X59934855Y-38016821D01*
X59935145Y-37684637D01*
X59808292Y-37377628D01*
X59573607Y-37142534D01*
X59266821Y-37015145D01*
X58934637Y-37014855D01*
X58627628Y-37141708D01*
X58392534Y-37376393D01*
X58265145Y-37683179D01*
X58264855Y-38015363D01*
X50710000Y-38015363D01*
X50710000Y-35991830D01*
X51381530Y-36664533D01*
X52753803Y-37234350D01*
X54239678Y-37235647D01*
X54874594Y-36973305D01*
X73064674Y-36973305D01*
X73351043Y-37666372D01*
X73880839Y-38197093D01*
X74573405Y-38484672D01*
X75323305Y-38485326D01*
X76016372Y-38198957D01*
X76547093Y-37669161D01*
X76549650Y-37663002D01*
X76551043Y-37666372D01*
X77080839Y-38197093D01*
X77773405Y-38484672D01*
X78523305Y-38485326D01*
X79216372Y-38198957D01*
X79747093Y-37669161D01*
X80034672Y-36976595D01*
X80035326Y-36226695D01*
X79748957Y-35533628D01*
X79219161Y-35002907D01*
X78526595Y-34715328D01*
X77776695Y-34714674D01*
X77083628Y-35001043D01*
X76552907Y-35530839D01*
X76550350Y-35536998D01*
X76548957Y-35533628D01*
X76019161Y-35002907D01*
X75326595Y-34715328D01*
X74576695Y-34714674D01*
X73883628Y-35001043D01*
X73352907Y-35530839D01*
X73065328Y-36223405D01*
X73064674Y-36973305D01*
X54874594Y-36973305D01*
X55612944Y-36668225D01*
X56664533Y-35618470D01*
X56994714Y-34823305D01*
X59114674Y-34823305D01*
X59401043Y-35516372D01*
X59930839Y-36047093D01*
X60623405Y-36334672D01*
X61373305Y-36335326D01*
X62066372Y-36048957D01*
X62500292Y-35615794D01*
X62930839Y-36047093D01*
X63623405Y-36334672D01*
X64373305Y-36335326D01*
X65066372Y-36048957D01*
X65500292Y-35615794D01*
X65930839Y-36047093D01*
X66623405Y-36334672D01*
X67373305Y-36335326D01*
X68066372Y-36048957D01*
X68500292Y-35615794D01*
X68930839Y-36047093D01*
X69623405Y-36334672D01*
X70373305Y-36335326D01*
X71066372Y-36048957D01*
X71597093Y-35519161D01*
X71884672Y-34826595D01*
X71885326Y-34076695D01*
X71598957Y-33383628D01*
X71069161Y-32852907D01*
X70376595Y-32565328D01*
X69626695Y-32564674D01*
X68933628Y-32851043D01*
X68499708Y-33284206D01*
X68069161Y-32852907D01*
X67376595Y-32565328D01*
X66626695Y-32564674D01*
X65933628Y-32851043D01*
X65499708Y-33284206D01*
X65069161Y-32852907D01*
X64376595Y-32565328D01*
X63626695Y-32564674D01*
X62933628Y-32851043D01*
X62499708Y-33284206D01*
X62069161Y-32852907D01*
X61376595Y-32565328D01*
X60626695Y-32564674D01*
X59933628Y-32851043D01*
X59402907Y-33380839D01*
X59115328Y-34073405D01*
X59114674Y-34823305D01*
X56994714Y-34823305D01*
X57234350Y-34246197D01*
X57235647Y-32760322D01*
X56668225Y-31387056D01*
X55992350Y-30710000D01*
X74466998Y-30710000D01*
X73883628Y-30951043D01*
M02*
