G04 #@! TF.FileFunction,Legend,Bot*
%FSLAX46Y46*%
G04 Gerber Fmt 4.6, Leading zero omitted, Abs format (unit mm)*
G04 Created by KiCad (PCBNEW 4.0.6) date 06/16/19 22:14:51*
%MOMM*%
%LPD*%
G01*
G04 APERTURE LIST*
%ADD10C,0.100000*%
%ADD11C,0.300000*%
G04 APERTURE END LIST*
D10*
D11*
X58550000Y-85982143D02*
X58478571Y-85839286D01*
X58478571Y-85625000D01*
X58550000Y-85410715D01*
X58692857Y-85267857D01*
X58835714Y-85196429D01*
X59121429Y-85125000D01*
X59335714Y-85125000D01*
X59621429Y-85196429D01*
X59764286Y-85267857D01*
X59907143Y-85410715D01*
X59978571Y-85625000D01*
X59978571Y-85767857D01*
X59907143Y-85982143D01*
X59835714Y-86053572D01*
X59335714Y-86053572D01*
X59335714Y-85767857D01*
X59978571Y-86696429D02*
X58478571Y-86696429D01*
X59978571Y-87553572D01*
X58478571Y-87553572D01*
X59978571Y-88267858D02*
X58478571Y-88267858D01*
X58478571Y-88625001D01*
X58550000Y-88839286D01*
X58692857Y-88982144D01*
X58835714Y-89053572D01*
X59121429Y-89125001D01*
X59335714Y-89125001D01*
X59621429Y-89053572D01*
X59764286Y-88982144D01*
X59907143Y-88839286D01*
X59978571Y-88625001D01*
X59978571Y-88267858D01*
X61078571Y-86564287D02*
X61078571Y-85850001D01*
X61792857Y-85778572D01*
X61721429Y-85850001D01*
X61650000Y-85992858D01*
X61650000Y-86350001D01*
X61721429Y-86492858D01*
X61792857Y-86564287D01*
X61935714Y-86635715D01*
X62292857Y-86635715D01*
X62435714Y-86564287D01*
X62507143Y-86492858D01*
X62578571Y-86350001D01*
X62578571Y-85992858D01*
X62507143Y-85850001D01*
X62435714Y-85778572D01*
X61078571Y-87064286D02*
X62578571Y-87564286D01*
X61078571Y-88064286D01*
X74575000Y-86457143D02*
X74503571Y-86314286D01*
X74503571Y-86100000D01*
X74575000Y-85885715D01*
X74717857Y-85742857D01*
X74860714Y-85671429D01*
X75146429Y-85600000D01*
X75360714Y-85600000D01*
X75646429Y-85671429D01*
X75789286Y-85742857D01*
X75932143Y-85885715D01*
X76003571Y-86100000D01*
X76003571Y-86242857D01*
X75932143Y-86457143D01*
X75860714Y-86528572D01*
X75360714Y-86528572D01*
X75360714Y-86242857D01*
X76003571Y-87171429D02*
X74503571Y-87171429D01*
X76003571Y-88028572D01*
X74503571Y-88028572D01*
X76003571Y-88742858D02*
X74503571Y-88742858D01*
X74503571Y-89100001D01*
X74575000Y-89314286D01*
X74717857Y-89457144D01*
X74860714Y-89528572D01*
X75146429Y-89600001D01*
X75360714Y-89600001D01*
X75646429Y-89528572D01*
X75789286Y-89457144D01*
X75932143Y-89314286D01*
X76003571Y-89100001D01*
X76003571Y-88742858D01*
X77253571Y-85485715D02*
X77253571Y-86414286D01*
X77825000Y-85914286D01*
X77825000Y-86128572D01*
X77896429Y-86271429D01*
X77967857Y-86342858D01*
X78110714Y-86414286D01*
X78467857Y-86414286D01*
X78610714Y-86342858D01*
X78682143Y-86271429D01*
X78753571Y-86128572D01*
X78753571Y-85700000D01*
X78682143Y-85557143D01*
X78610714Y-85485715D01*
X78610714Y-87057143D02*
X78682143Y-87128571D01*
X78753571Y-87057143D01*
X78682143Y-86985714D01*
X78610714Y-87057143D01*
X78753571Y-87057143D01*
X77253571Y-87628572D02*
X77253571Y-88557143D01*
X77825000Y-88057143D01*
X77825000Y-88271429D01*
X77896429Y-88414286D01*
X77967857Y-88485715D01*
X78110714Y-88557143D01*
X78467857Y-88557143D01*
X78610714Y-88485715D01*
X78682143Y-88414286D01*
X78753571Y-88271429D01*
X78753571Y-87842857D01*
X78682143Y-87700000D01*
X78610714Y-87628572D01*
X77253571Y-88985714D02*
X78753571Y-89485714D01*
X77253571Y-89985714D01*
X82053571Y-145967857D02*
X82053571Y-146253572D01*
X81982143Y-146396429D01*
X81910714Y-146467857D01*
X81696429Y-146610715D01*
X81410714Y-146682143D01*
X80839286Y-146682143D01*
X80696429Y-146610715D01*
X80625000Y-146539286D01*
X80553571Y-146396429D01*
X80553571Y-146110715D01*
X80625000Y-145967857D01*
X80696429Y-145896429D01*
X80839286Y-145825000D01*
X81196429Y-145825000D01*
X81339286Y-145896429D01*
X81410714Y-145967857D01*
X81482143Y-146110715D01*
X81482143Y-146396429D01*
X81410714Y-146539286D01*
X81339286Y-146610715D01*
X81196429Y-146682143D01*
X80553571Y-147610714D02*
X80553571Y-147753571D01*
X80625000Y-147896428D01*
X80696429Y-147967857D01*
X80839286Y-148039286D01*
X81125000Y-148110714D01*
X81482143Y-148110714D01*
X81767857Y-148039286D01*
X81910714Y-147967857D01*
X81982143Y-147896428D01*
X82053571Y-147753571D01*
X82053571Y-147610714D01*
X81982143Y-147467857D01*
X81910714Y-147396428D01*
X81767857Y-147325000D01*
X81482143Y-147253571D01*
X81125000Y-147253571D01*
X80839286Y-147325000D01*
X80696429Y-147396428D01*
X80625000Y-147467857D01*
X80553571Y-147610714D01*
X80553571Y-149682142D02*
X82053571Y-150182142D01*
X80553571Y-150682142D01*
X82053571Y-152539285D02*
X81982143Y-152396427D01*
X81910714Y-152324999D01*
X81767857Y-152253570D01*
X81339286Y-152253570D01*
X81196429Y-152324999D01*
X81125000Y-152396427D01*
X81053571Y-152539285D01*
X81053571Y-152753570D01*
X81125000Y-152896427D01*
X81196429Y-152967856D01*
X81339286Y-153039285D01*
X81767857Y-153039285D01*
X81910714Y-152967856D01*
X81982143Y-152896427D01*
X82053571Y-152753570D01*
X82053571Y-152539285D01*
X81053571Y-154324999D02*
X82053571Y-154324999D01*
X81053571Y-153682142D02*
X81839286Y-153682142D01*
X81982143Y-153753570D01*
X82053571Y-153896428D01*
X82053571Y-154110713D01*
X81982143Y-154253570D01*
X81910714Y-154324999D01*
X81053571Y-154824999D02*
X81053571Y-155396428D01*
X80553571Y-155039285D02*
X81839286Y-155039285D01*
X81982143Y-155110713D01*
X82053571Y-155253571D01*
X82053571Y-155396428D01*
X81053571Y-155896428D02*
X82553571Y-155896428D01*
X81125000Y-155896428D02*
X81053571Y-156039285D01*
X81053571Y-156324999D01*
X81125000Y-156467856D01*
X81196429Y-156539285D01*
X81339286Y-156610714D01*
X81767857Y-156610714D01*
X81910714Y-156539285D01*
X81982143Y-156467856D01*
X82053571Y-156324999D01*
X82053571Y-156039285D01*
X81982143Y-155896428D01*
X81053571Y-157896428D02*
X82053571Y-157896428D01*
X81053571Y-157253571D02*
X81839286Y-157253571D01*
X81982143Y-157324999D01*
X82053571Y-157467857D01*
X82053571Y-157682142D01*
X81982143Y-157824999D01*
X81910714Y-157896428D01*
X81053571Y-158396428D02*
X81053571Y-158967857D01*
X80553571Y-158610714D02*
X81839286Y-158610714D01*
X81982143Y-158682142D01*
X82053571Y-158825000D01*
X82053571Y-158967857D01*
X76121428Y-166632143D02*
X74978571Y-166632143D01*
X88321428Y-166557143D02*
X87178571Y-166557143D01*
X88396428Y-161732143D02*
X87253571Y-161732143D01*
X87825000Y-162303571D02*
X87825000Y-161160714D01*
X75871428Y-161657143D02*
X74728571Y-161657143D01*
X75300000Y-162228571D02*
X75300000Y-161085714D01*
X65703571Y-144614287D02*
X65703571Y-143757144D01*
X65703571Y-144185716D02*
X64203571Y-144185716D01*
X64417857Y-144042859D01*
X64560714Y-143900001D01*
X64632143Y-143757144D01*
X64346429Y-145185715D02*
X64275000Y-145257144D01*
X64203571Y-145400001D01*
X64203571Y-145757144D01*
X64275000Y-145900001D01*
X64346429Y-145971430D01*
X64489286Y-146042858D01*
X64632143Y-146042858D01*
X64846429Y-145971430D01*
X65703571Y-145114287D01*
X65703571Y-146042858D01*
X65132143Y-146685715D02*
X65132143Y-147828572D01*
X64346429Y-148471429D02*
X64275000Y-148542858D01*
X64203571Y-148685715D01*
X64203571Y-149042858D01*
X64275000Y-149185715D01*
X64346429Y-149257144D01*
X64489286Y-149328572D01*
X64632143Y-149328572D01*
X64846429Y-149257144D01*
X65703571Y-148400001D01*
X65703571Y-149328572D01*
X64703571Y-150614286D02*
X65703571Y-150614286D01*
X64132143Y-150257143D02*
X65203571Y-149900000D01*
X65203571Y-150828572D01*
X64203571Y-152328571D02*
X65703571Y-152828571D01*
X64203571Y-153328571D01*
X65632143Y-154899999D02*
X65703571Y-155042856D01*
X65703571Y-155328571D01*
X65632143Y-155471428D01*
X65489286Y-155542856D01*
X65417857Y-155542856D01*
X65275000Y-155471428D01*
X65203571Y-155328571D01*
X65203571Y-155114285D01*
X65132143Y-154971428D01*
X64989286Y-154899999D01*
X64917857Y-154899999D01*
X64775000Y-154971428D01*
X64703571Y-155114285D01*
X64703571Y-155328571D01*
X64775000Y-155471428D01*
X64703571Y-156828571D02*
X65703571Y-156828571D01*
X64703571Y-156185714D02*
X65489286Y-156185714D01*
X65632143Y-156257142D01*
X65703571Y-156400000D01*
X65703571Y-156614285D01*
X65632143Y-156757142D01*
X65560714Y-156828571D01*
X64703571Y-157542857D02*
X66203571Y-157542857D01*
X64775000Y-157542857D02*
X64703571Y-157685714D01*
X64703571Y-157971428D01*
X64775000Y-158114285D01*
X64846429Y-158185714D01*
X64989286Y-158257143D01*
X65417857Y-158257143D01*
X65560714Y-158185714D01*
X65632143Y-158114285D01*
X65703571Y-157971428D01*
X65703571Y-157685714D01*
X65632143Y-157542857D01*
X64703571Y-158900000D02*
X66203571Y-158900000D01*
X64775000Y-158900000D02*
X64703571Y-159042857D01*
X64703571Y-159328571D01*
X64775000Y-159471428D01*
X64846429Y-159542857D01*
X64989286Y-159614286D01*
X65417857Y-159614286D01*
X65560714Y-159542857D01*
X65632143Y-159471428D01*
X65703571Y-159328571D01*
X65703571Y-159042857D01*
X65632143Y-158900000D01*
X65703571Y-160471429D02*
X65632143Y-160328571D01*
X65489286Y-160257143D01*
X64203571Y-160257143D01*
X64703571Y-160900000D02*
X65703571Y-161257143D01*
X64703571Y-161614285D02*
X65703571Y-161257143D01*
X66060714Y-161114285D01*
X66132143Y-161042857D01*
X66203571Y-160900000D01*
X69121428Y-160307143D02*
X67978571Y-160307143D01*
X61921428Y-160057143D02*
X60778571Y-160057143D01*
X61350000Y-160628571D02*
X61350000Y-159485714D01*
X84653571Y-41607144D02*
X83939286Y-41107144D01*
X84653571Y-40750001D02*
X83153571Y-40750001D01*
X83153571Y-41321429D01*
X83225000Y-41464287D01*
X83296429Y-41535715D01*
X83439286Y-41607144D01*
X83653571Y-41607144D01*
X83796429Y-41535715D01*
X83867857Y-41464287D01*
X83939286Y-41321429D01*
X83939286Y-40750001D01*
X84582143Y-42178572D02*
X84653571Y-42392858D01*
X84653571Y-42750001D01*
X84582143Y-42892858D01*
X84510714Y-42964287D01*
X84367857Y-43035715D01*
X84225000Y-43035715D01*
X84082143Y-42964287D01*
X84010714Y-42892858D01*
X83939286Y-42750001D01*
X83867857Y-42464287D01*
X83796429Y-42321429D01*
X83725000Y-42250001D01*
X83582143Y-42178572D01*
X83439286Y-42178572D01*
X83296429Y-42250001D01*
X83225000Y-42321429D01*
X83153571Y-42464287D01*
X83153571Y-42821429D01*
X83225000Y-43035715D01*
X83653571Y-44321429D02*
X84653571Y-44321429D01*
X83082143Y-43964286D02*
X84153571Y-43607143D01*
X84153571Y-44535715D01*
X83796429Y-45321429D02*
X83725000Y-45178571D01*
X83653571Y-45107143D01*
X83510714Y-45035714D01*
X83439286Y-45035714D01*
X83296429Y-45107143D01*
X83225000Y-45178571D01*
X83153571Y-45321429D01*
X83153571Y-45607143D01*
X83225000Y-45750000D01*
X83296429Y-45821429D01*
X83439286Y-45892857D01*
X83510714Y-45892857D01*
X83653571Y-45821429D01*
X83725000Y-45750000D01*
X83796429Y-45607143D01*
X83796429Y-45321429D01*
X83867857Y-45178571D01*
X83939286Y-45107143D01*
X84082143Y-45035714D01*
X84367857Y-45035714D01*
X84510714Y-45107143D01*
X84582143Y-45178571D01*
X84653571Y-45321429D01*
X84653571Y-45607143D01*
X84582143Y-45750000D01*
X84510714Y-45821429D01*
X84367857Y-45892857D01*
X84082143Y-45892857D01*
X83939286Y-45821429D01*
X83867857Y-45750000D01*
X83796429Y-45607143D01*
X83153571Y-47250000D02*
X83153571Y-46535714D01*
X83867857Y-46464285D01*
X83796429Y-46535714D01*
X83725000Y-46678571D01*
X83725000Y-47035714D01*
X83796429Y-47178571D01*
X83867857Y-47250000D01*
X84010714Y-47321428D01*
X84367857Y-47321428D01*
X84510714Y-47250000D01*
X84582143Y-47178571D01*
X84653571Y-47035714D01*
X84653571Y-46678571D01*
X84582143Y-46535714D01*
X84510714Y-46464285D01*
X76428571Y-41707144D02*
X75714286Y-41207144D01*
X76428571Y-40850001D02*
X74928571Y-40850001D01*
X74928571Y-41421429D01*
X75000000Y-41564287D01*
X75071429Y-41635715D01*
X75214286Y-41707144D01*
X75428571Y-41707144D01*
X75571429Y-41635715D01*
X75642857Y-41564287D01*
X75714286Y-41421429D01*
X75714286Y-40850001D01*
X76357143Y-42278572D02*
X76428571Y-42492858D01*
X76428571Y-42850001D01*
X76357143Y-42992858D01*
X76285714Y-43064287D01*
X76142857Y-43135715D01*
X76000000Y-43135715D01*
X75857143Y-43064287D01*
X75785714Y-42992858D01*
X75714286Y-42850001D01*
X75642857Y-42564287D01*
X75571429Y-42421429D01*
X75500000Y-42350001D01*
X75357143Y-42278572D01*
X75214286Y-42278572D01*
X75071429Y-42350001D01*
X75000000Y-42421429D01*
X74928571Y-42564287D01*
X74928571Y-42921429D01*
X75000000Y-43135715D01*
X75428571Y-44421429D02*
X76428571Y-44421429D01*
X74857143Y-44064286D02*
X75928571Y-43707143D01*
X75928571Y-44635715D01*
X75571429Y-45421429D02*
X75500000Y-45278571D01*
X75428571Y-45207143D01*
X75285714Y-45135714D01*
X75214286Y-45135714D01*
X75071429Y-45207143D01*
X75000000Y-45278571D01*
X74928571Y-45421429D01*
X74928571Y-45707143D01*
X75000000Y-45850000D01*
X75071429Y-45921429D01*
X75214286Y-45992857D01*
X75285714Y-45992857D01*
X75428571Y-45921429D01*
X75500000Y-45850000D01*
X75571429Y-45707143D01*
X75571429Y-45421429D01*
X75642857Y-45278571D01*
X75714286Y-45207143D01*
X75857143Y-45135714D01*
X76142857Y-45135714D01*
X76285714Y-45207143D01*
X76357143Y-45278571D01*
X76428571Y-45421429D01*
X76428571Y-45707143D01*
X76357143Y-45850000D01*
X76285714Y-45921429D01*
X76142857Y-45992857D01*
X75857143Y-45992857D01*
X75714286Y-45921429D01*
X75642857Y-45850000D01*
X75571429Y-45707143D01*
X74928571Y-47350000D02*
X74928571Y-46635714D01*
X75642857Y-46564285D01*
X75571429Y-46635714D01*
X75500000Y-46778571D01*
X75500000Y-47135714D01*
X75571429Y-47278571D01*
X75642857Y-47350000D01*
X75785714Y-47421428D01*
X76142857Y-47421428D01*
X76285714Y-47350000D01*
X76357143Y-47278571D01*
X76428571Y-47135714D01*
X76428571Y-46778571D01*
X76357143Y-46635714D01*
X76285714Y-46564285D01*
M02*
