G04 #@! TF.FileFunction,Copper,L4,Bot,Signal*
%FSLAX46Y46*%
G04 Gerber Fmt 4.6, Leading zero omitted, Abs format (unit mm)*
G04 Created by KiCad (PCBNEW 4.0.6) date 06/16/19 22:14:51*
%MOMM*%
%LPD*%
G01*
G04 APERTURE LIST*
%ADD10C,0.100000*%
%ADD11R,0.800000X1.300000*%
%ADD12R,1.800000X1.300000*%
%ADD13C,2.500000*%
%ADD14C,3.500000*%
%ADD15O,8.500000X3.000000*%
%ADD16C,6.200000*%
%ADD17C,1.400000*%
%ADD18C,0.400000*%
%ADD19C,0.130000*%
%ADD20C,0.250000*%
%ADD21C,0.500000*%
%ADD22C,0.254000*%
G04 APERTURE END LIST*
D10*
D11*
X64650000Y-146820000D03*
D12*
X63350000Y-152020000D03*
X63350000Y-150720000D03*
X63350000Y-146820000D03*
X63350000Y-148120000D03*
X63350000Y-149420000D03*
D11*
X62050000Y-146820000D03*
X62050000Y-148120000D03*
X62050000Y-149420000D03*
X62050000Y-150720000D03*
X62050000Y-152020000D03*
X64650000Y-152020000D03*
X64650000Y-150720000D03*
X64650000Y-149420000D03*
X64650000Y-148120000D03*
D13*
X78150000Y-32550000D03*
X74950000Y-32550000D03*
X78150000Y-36600000D03*
X74950000Y-36600000D03*
D14*
X67600000Y-165400000D03*
X62600000Y-165400000D03*
X80650000Y-166800000D03*
X80650000Y-161800000D03*
X85300000Y-166800000D03*
X85300000Y-161800000D03*
D13*
X73300000Y-82300000D03*
X76500000Y-82300000D03*
X70000000Y-34450000D03*
X67000000Y-34450000D03*
X64000000Y-34450000D03*
X61000000Y-34450000D03*
D15*
X60800000Y-139800000D03*
X72800000Y-139800000D03*
D16*
X91500000Y-166500000D03*
X53500000Y-33500000D03*
X91500000Y-33500000D03*
X53500000Y-166500000D03*
D13*
X58500000Y-82100000D03*
X61700000Y-82100000D03*
D17*
X59450000Y-144300000D03*
X54900000Y-99600000D03*
X57900000Y-99600000D03*
X55350000Y-84350000D03*
X52750000Y-84350000D03*
X52850000Y-82150000D03*
X55400000Y-82100000D03*
D18*
X75700000Y-67680000D03*
X61300000Y-39350000D03*
X62550000Y-44750000D03*
D17*
X77250000Y-166250000D03*
X75150000Y-166250000D03*
X73100000Y-166200000D03*
X71150000Y-166200000D03*
X68750000Y-83850000D03*
X91450000Y-52360000D03*
X91450000Y-49820000D03*
X91450000Y-47280000D03*
D18*
X75700000Y-63870000D03*
X75700000Y-65140000D03*
X72600000Y-72400000D03*
X65300000Y-70700000D03*
X60150000Y-73000000D03*
X61100000Y-64000000D03*
X67300000Y-53600000D03*
X53300000Y-55200000D03*
X55790600Y-49909400D03*
X53200000Y-48200000D03*
X72688700Y-51688700D03*
X71300000Y-53200000D03*
X76900000Y-53200000D03*
X80000000Y-53200000D03*
D17*
X70300000Y-82300000D03*
X52600000Y-93700000D03*
X68500000Y-94800000D03*
X81300000Y-106900000D03*
X78100000Y-106900000D03*
X81150000Y-100600000D03*
X78000000Y-100600000D03*
X73000000Y-99600000D03*
X56400000Y-99600000D03*
X64800000Y-106900000D03*
X61500000Y-106900000D03*
X64350000Y-101300000D03*
X61100000Y-101300000D03*
D18*
X89800000Y-122700000D03*
X89800000Y-120700000D03*
X86700000Y-120700000D03*
X86700000Y-122700000D03*
D17*
X57600000Y-144300000D03*
D18*
X58100000Y-148000000D03*
X58100000Y-152350000D03*
X64700000Y-156200000D03*
X91800000Y-148700000D03*
X81950000Y-158000000D03*
X59300000Y-69500000D03*
X61000869Y-143170091D03*
X60400000Y-149090000D03*
X60783800Y-143803345D03*
X54800000Y-38500000D03*
D17*
X70200000Y-110050000D03*
X70200000Y-108050000D03*
X53900000Y-110250000D03*
X53900000Y-107900000D03*
D18*
X56300000Y-157800000D03*
X60400000Y-148450000D03*
X83450000Y-158000000D03*
X68200000Y-156300000D03*
X73000000Y-101900000D03*
X69000000Y-100600000D03*
X52600000Y-100600000D03*
X56400000Y-101900000D03*
X51800000Y-52700000D03*
X52200000Y-48450000D03*
X51800000Y-57700000D03*
X60050000Y-44800000D03*
X93400000Y-148700000D03*
D17*
X91450000Y-59980000D03*
X91450000Y-57440000D03*
X91450000Y-54900000D03*
D18*
X70800000Y-62600000D03*
X75700000Y-62600000D03*
X71100000Y-72400000D03*
X61100000Y-65500000D03*
X67000000Y-39850000D03*
X67300000Y-52100000D03*
X51800000Y-60000000D03*
X51800000Y-55200000D03*
X58650000Y-73000000D03*
D17*
X80450000Y-90800000D03*
D18*
X66300000Y-146500000D03*
X68600000Y-154800000D03*
X66674338Y-74725043D03*
X79400000Y-81000000D03*
X61450000Y-74900000D03*
X78850000Y-81600000D03*
X85700000Y-115200000D03*
X84400000Y-112500000D03*
X69500000Y-64000000D03*
X67000000Y-63600000D03*
X61900000Y-66400000D03*
X61500000Y-70400000D03*
X65858166Y-74465033D03*
X86400000Y-44740000D03*
X65062275Y-74205022D03*
X86400000Y-47280000D03*
X64419043Y-73945011D03*
X86400000Y-49820000D03*
X86400000Y-52360000D03*
X63850000Y-73750000D03*
X76390000Y-147605000D03*
X71350000Y-143150000D03*
X66200000Y-156200000D03*
X66300000Y-151690000D03*
X58622323Y-56720911D03*
X58050002Y-56150000D03*
X63150000Y-61200000D03*
X55750000Y-53250000D03*
X68500000Y-70700000D03*
X52900000Y-51100000D03*
X56250000Y-51200000D03*
X64000000Y-60800000D03*
X69200000Y-70600000D03*
X53500000Y-50400000D03*
X61795010Y-71900000D03*
X63500000Y-62500000D03*
X63500000Y-63030013D03*
X62200000Y-73500000D03*
X62969987Y-62500000D03*
X62770685Y-74070685D03*
X76850000Y-43100000D03*
X71700000Y-41550000D03*
X71550000Y-42250000D03*
X74650000Y-42300000D03*
X61650000Y-41200000D03*
X60350000Y-85950000D03*
X75400000Y-97300000D03*
X58800000Y-97300000D03*
X60400000Y-149750000D03*
X71000000Y-146600000D03*
X66300000Y-149090000D03*
X55600000Y-157500000D03*
X60400000Y-147800000D03*
X79790000Y-150195000D03*
X71000000Y-145100000D03*
X69850000Y-143150000D03*
X66300000Y-147150000D03*
D19*
X61200868Y-143370090D02*
X61000869Y-143170091D01*
X61016864Y-144154885D02*
X61200868Y-143970881D01*
X61016864Y-148473136D02*
X61016864Y-144154885D01*
X60400000Y-149090000D02*
X61016864Y-148473136D01*
X61200868Y-143970881D02*
X61200868Y-143370090D01*
D20*
X53400000Y-144750000D02*
X55750000Y-142400000D01*
X55750000Y-142400000D02*
X59563731Y-142400000D01*
X59563731Y-142400000D02*
X60783800Y-143620069D01*
X60783800Y-143620069D02*
X60783800Y-143803345D01*
D19*
X54800000Y-38500000D02*
X54800000Y-38782842D01*
X54800000Y-38782842D02*
X50600000Y-42982842D01*
X50600000Y-42982842D02*
X50600000Y-104600000D01*
X50600000Y-104600000D02*
X53900000Y-107900000D01*
X70200000Y-108050000D02*
X70200000Y-110050000D01*
X53900000Y-107900000D02*
X53900000Y-110250000D01*
D20*
X56300000Y-157517158D02*
X56300000Y-157800000D01*
X56300000Y-152050000D02*
X56300000Y-157517158D01*
X59900000Y-148450000D02*
X56300000Y-152050000D01*
X60400000Y-148450000D02*
X59900000Y-148450000D01*
X60366596Y-148450000D02*
X60400000Y-148450000D01*
D19*
X68200000Y-156300000D02*
X69100000Y-157200000D01*
X82650000Y-157200000D02*
X83450000Y-158000000D01*
X69100000Y-157200000D02*
X82650000Y-157200000D01*
D21*
X69000000Y-100600000D02*
X70250000Y-101850000D01*
X70250000Y-101850000D02*
X72950000Y-101850000D01*
X72950000Y-101850000D02*
X73000000Y-101900000D01*
D20*
X52600000Y-100600000D02*
X53900000Y-101900000D01*
X53900000Y-101900000D02*
X56400000Y-101900000D01*
X68600000Y-154800000D02*
X68600000Y-154250000D01*
X68600000Y-154250000D02*
X67700000Y-153350000D01*
X67700000Y-153350000D02*
X67700000Y-151200000D01*
X67700000Y-151200000D02*
X65700000Y-149200000D01*
X65700000Y-149200000D02*
X65700000Y-147100000D01*
X65700000Y-147100000D02*
X66300000Y-146500000D01*
D19*
X79400000Y-81000000D02*
X73125043Y-74725043D01*
X73125043Y-74725043D02*
X66957180Y-74725043D01*
X66957180Y-74725043D02*
X66674338Y-74725043D01*
X78850000Y-81600000D02*
X72370044Y-75120044D01*
X72370044Y-75120044D02*
X61670044Y-75120044D01*
X61649999Y-75099999D02*
X61450000Y-74900000D01*
X61670044Y-75120044D02*
X61649999Y-75099999D01*
X85500001Y-115000001D02*
X85700000Y-115200000D01*
X84400000Y-113900000D02*
X85500001Y-115000001D01*
X84400000Y-112500000D02*
X84400000Y-113900000D01*
X67000000Y-63600000D02*
X69100000Y-63600000D01*
X69100000Y-63600000D02*
X69500000Y-64000000D01*
X61500000Y-70400000D02*
X61500000Y-66800000D01*
X61500000Y-66800000D02*
X61900000Y-66400000D01*
X66141008Y-74465033D02*
X65858166Y-74465033D01*
X87315024Y-72238109D02*
X85223099Y-74330034D01*
X66276007Y-74330034D02*
X66141008Y-74465033D01*
X85223099Y-74330034D02*
X66276007Y-74330034D01*
X87315024Y-51954998D02*
X87315024Y-72238109D01*
X87055013Y-51694988D02*
X87315024Y-51954998D01*
X87055013Y-49522698D02*
X87055013Y-51694988D01*
X86795002Y-49262687D02*
X87055013Y-49522698D01*
X86795002Y-47090398D02*
X86795002Y-49262687D01*
X86400000Y-46695396D02*
X86795002Y-47090398D01*
X86400000Y-44740000D02*
X86400000Y-46695396D01*
X87055013Y-72130409D02*
X85115399Y-74070023D01*
X65480116Y-74070023D02*
X65345117Y-74205022D01*
X86795002Y-51802687D02*
X87055013Y-52062698D01*
X87055013Y-52062698D02*
X87055013Y-72130409D01*
X65345117Y-74205022D02*
X65062275Y-74205022D01*
X85115399Y-74070023D02*
X65480116Y-74070023D01*
X86400000Y-49235396D02*
X86795002Y-49630398D01*
X86400000Y-47280000D02*
X86400000Y-49235396D01*
X86795002Y-49630398D02*
X86795002Y-51802687D01*
X86795002Y-52170398D02*
X86795002Y-72022709D01*
X85007699Y-73810012D02*
X64836884Y-73810012D01*
X86795002Y-72022709D02*
X85007699Y-73810012D01*
X86400000Y-51775396D02*
X86795002Y-52170398D01*
X86400000Y-49820000D02*
X86400000Y-51775396D01*
X64701885Y-73945011D02*
X64419043Y-73945011D01*
X64836884Y-73810012D02*
X64701885Y-73945011D01*
X86400000Y-72050000D02*
X86400000Y-52360000D01*
X84899999Y-73550001D02*
X86400000Y-72050000D01*
X63850000Y-73750000D02*
X64049999Y-73550001D01*
X64049999Y-73550001D02*
X84899999Y-73550001D01*
X71350000Y-143150000D02*
X71935000Y-143150000D01*
X71935000Y-143150000D02*
X76390000Y-147605000D01*
X66300000Y-151690000D02*
X66300000Y-156100000D01*
X66300000Y-156100000D02*
X66200000Y-156200000D01*
X58620913Y-56720911D02*
X58622323Y-56720911D01*
X58050002Y-56150000D02*
X58620913Y-56720911D01*
X63895002Y-62095002D02*
X63895002Y-61945002D01*
X63895002Y-61945002D02*
X63150000Y-61200000D01*
X52900000Y-51100000D02*
X53600000Y-51100000D01*
X53600000Y-51100000D02*
X55750000Y-53250000D01*
X68217158Y-70700000D02*
X68500000Y-70700000D01*
X63895002Y-67295002D02*
X67300000Y-70700000D01*
X67300000Y-70700000D02*
X68217158Y-70700000D01*
X63895002Y-62095002D02*
X63895002Y-67295002D01*
X56250000Y-51200000D02*
X55450000Y-50400000D01*
X55450000Y-50400000D02*
X53500000Y-50400000D01*
X64200000Y-61100000D02*
X64200000Y-61000000D01*
X64200000Y-61000000D02*
X64000000Y-60800000D01*
X69000001Y-70400001D02*
X69200000Y-70600000D01*
X67704998Y-70304998D02*
X68904998Y-70304998D01*
X64200000Y-61100000D02*
X64200000Y-66800000D01*
X64200000Y-66800000D02*
X67704998Y-70304998D01*
X68904998Y-70304998D02*
X69000001Y-70400001D01*
X61995009Y-71700001D02*
X61795010Y-71900000D01*
X62300000Y-71395010D02*
X61995009Y-71700001D01*
X63182842Y-61900000D02*
X62600000Y-61900000D01*
X63500000Y-62217158D02*
X63182842Y-61900000D01*
X62600000Y-61900000D02*
X62300000Y-62200000D01*
X63500000Y-62500000D02*
X63500000Y-62217158D01*
X62300000Y-62200000D02*
X62300000Y-71395010D01*
X63500000Y-73515398D02*
X63500000Y-63312855D01*
X63500000Y-63312855D02*
X63500000Y-63030013D01*
X63454999Y-73945001D02*
X63454999Y-73560399D01*
X62900000Y-74500000D02*
X63454999Y-73945001D01*
X62600000Y-74500000D02*
X62900000Y-74500000D01*
X62200000Y-73500000D02*
X62200000Y-74100000D01*
X62200000Y-74100000D02*
X62600000Y-74500000D01*
X63454999Y-73560399D02*
X63500000Y-73515398D01*
X62770685Y-62699302D02*
X62969987Y-62500000D01*
X62770685Y-74070685D02*
X62770685Y-62699302D01*
X71700000Y-41550000D02*
X75300000Y-41550000D01*
X75300000Y-41550000D02*
X76850000Y-43100000D01*
X74650000Y-42300000D02*
X71600000Y-42300000D01*
X71600000Y-42300000D02*
X71550000Y-42250000D01*
X58800000Y-97300000D02*
X59050000Y-97550000D01*
X59050000Y-97550000D02*
X59050000Y-108050000D01*
X67600000Y-108250000D02*
X67750000Y-108100000D01*
X59050000Y-108050000D02*
X58850000Y-108250000D01*
X58850000Y-108250000D02*
X67600000Y-108250000D01*
X67750000Y-108100000D02*
X67750000Y-103600000D01*
X67750000Y-103600000D02*
X73900000Y-103600000D01*
X73900000Y-103600000D02*
X73900000Y-114300000D01*
X60900000Y-149750000D02*
X60400000Y-149750000D01*
X66200000Y-140750000D02*
X61295001Y-145654999D01*
X61295001Y-149354999D02*
X60900000Y-149750000D01*
X61295001Y-145654999D02*
X61295001Y-149354999D01*
X73900000Y-114300000D02*
X66200000Y-122000000D01*
X66200000Y-122000000D02*
X66200000Y-140750000D01*
X61950000Y-56250000D02*
X61950000Y-41500000D01*
X61950000Y-41500000D02*
X61650000Y-41200000D01*
X55250000Y-62950000D02*
X61950000Y-56250000D01*
X55250000Y-71900000D02*
X55250000Y-62950000D01*
X64600000Y-81250000D02*
X55250000Y-71900000D01*
X64600000Y-81982842D02*
X64600000Y-81250000D01*
X62482842Y-84100000D02*
X64600000Y-81982842D01*
X60350000Y-85950000D02*
X60632842Y-85950000D01*
X60632842Y-85950000D02*
X62482842Y-84100000D01*
X73900000Y-103600000D02*
X74950000Y-103600000D01*
X74950000Y-103600000D02*
X75400000Y-103150000D01*
X75400000Y-103150000D02*
X75400000Y-97300000D01*
X66300000Y-149090000D02*
X68510000Y-149090000D01*
X68510000Y-149090000D02*
X71000000Y-146600000D01*
D20*
X60400000Y-147800000D02*
X60000000Y-147400000D01*
X60000000Y-147400000D02*
X55900000Y-147400000D01*
X55900000Y-147400000D02*
X55900000Y-157200000D01*
X55900000Y-157200000D02*
X55600000Y-157500000D01*
X60300000Y-147800000D02*
X60400000Y-147800000D01*
D19*
X71000000Y-145100000D02*
X73300398Y-145100000D01*
X73300398Y-145100000D02*
X78395398Y-150195000D01*
X78395398Y-150195000D02*
X79790000Y-150195000D01*
X69700000Y-144250000D02*
X69700000Y-143300000D01*
X69700000Y-143300000D02*
X69850000Y-143150000D01*
X69700000Y-144250000D02*
X66800000Y-147150000D01*
X66800000Y-147150000D02*
X66300000Y-147150000D01*
D22*
G36*
X55223000Y-104975818D02*
X55223000Y-109600000D01*
X55233006Y-109649410D01*
X55261447Y-109691035D01*
X55303841Y-109718315D01*
X55350000Y-109727000D01*
X68850000Y-109727000D01*
X68899410Y-109716994D01*
X68941035Y-109688553D01*
X68968315Y-109646159D01*
X68977000Y-109600000D01*
X68977000Y-104977000D01*
X71373000Y-104977000D01*
X71373000Y-111523000D01*
X54900000Y-111523000D01*
X54850590Y-111533006D01*
X54808965Y-111561447D01*
X54781685Y-111603841D01*
X54773000Y-111649875D01*
X54723000Y-162549875D01*
X54732957Y-162599295D01*
X54761357Y-162640948D01*
X54803725Y-162668269D01*
X54850000Y-162677000D01*
X64273000Y-162677000D01*
X64273000Y-169290000D01*
X55991830Y-169290000D01*
X56664533Y-168618470D01*
X57234350Y-167246197D01*
X57235647Y-165760322D01*
X56668225Y-164387056D01*
X55618470Y-163335467D01*
X54246197Y-162765650D01*
X52760322Y-162764353D01*
X51387056Y-163331775D01*
X50710000Y-164007650D01*
X50710000Y-104933641D01*
X55223000Y-104975818D01*
X55223000Y-104975818D01*
G37*
X55223000Y-104975818D02*
X55223000Y-109600000D01*
X55233006Y-109649410D01*
X55261447Y-109691035D01*
X55303841Y-109718315D01*
X55350000Y-109727000D01*
X68850000Y-109727000D01*
X68899410Y-109716994D01*
X68941035Y-109688553D01*
X68968315Y-109646159D01*
X68977000Y-109600000D01*
X68977000Y-104977000D01*
X71373000Y-104977000D01*
X71373000Y-111523000D01*
X54900000Y-111523000D01*
X54850590Y-111533006D01*
X54808965Y-111561447D01*
X54781685Y-111603841D01*
X54773000Y-111649875D01*
X54723000Y-162549875D01*
X54732957Y-162599295D01*
X54761357Y-162640948D01*
X54803725Y-162668269D01*
X54850000Y-162677000D01*
X64273000Y-162677000D01*
X64273000Y-169290000D01*
X55991830Y-169290000D01*
X56664533Y-168618470D01*
X57234350Y-167246197D01*
X57235647Y-165760322D01*
X56668225Y-164387056D01*
X55618470Y-163335467D01*
X54246197Y-162765650D01*
X52760322Y-162764353D01*
X51387056Y-163331775D01*
X50710000Y-164007650D01*
X50710000Y-104933641D01*
X55223000Y-104975818D01*
G36*
X82723000Y-107673000D02*
X76427000Y-107673000D01*
X76427000Y-101050000D01*
X76416994Y-101000590D01*
X76388553Y-100958965D01*
X76346159Y-100931685D01*
X76300000Y-100923000D01*
X75892000Y-100923000D01*
X75892000Y-98026118D01*
X82723000Y-98020008D01*
X82723000Y-107673000D01*
X82723000Y-107673000D01*
G37*
X82723000Y-107673000D02*
X76427000Y-107673000D01*
X76427000Y-101050000D01*
X76416994Y-101000590D01*
X76388553Y-100958965D01*
X76346159Y-100931685D01*
X76300000Y-100923000D01*
X75892000Y-100923000D01*
X75892000Y-98026118D01*
X82723000Y-98020008D01*
X82723000Y-107673000D01*
G36*
X59673000Y-86750000D02*
X59683006Y-86799410D01*
X59711447Y-86841035D01*
X59753841Y-86868315D01*
X59800000Y-86877000D01*
X67369189Y-86877000D01*
X67418599Y-86866994D01*
X67460224Y-86838553D01*
X67487504Y-86796159D01*
X67496187Y-86750652D01*
X67526349Y-80877000D01*
X74773043Y-80877000D01*
X74778512Y-97161723D01*
X74773109Y-97174735D01*
X74772891Y-97424171D01*
X74778605Y-97438000D01*
X74778760Y-97900043D01*
X74788782Y-97949449D01*
X74817237Y-97991064D01*
X74859641Y-98018330D01*
X74905874Y-98027000D01*
X74908000Y-98026998D01*
X74908000Y-100923000D01*
X70327000Y-100923000D01*
X70327000Y-99250000D01*
X70316994Y-99200590D01*
X70288553Y-99158965D01*
X70246159Y-99131685D01*
X70200000Y-99123000D01*
X66300000Y-99123000D01*
X66250590Y-99133006D01*
X66208965Y-99161447D01*
X66181685Y-99203841D01*
X66173000Y-99250000D01*
X66173000Y-107473000D01*
X59977000Y-107473000D01*
X59977000Y-101200000D01*
X59966994Y-101150590D01*
X59938553Y-101108965D01*
X59896159Y-101081685D01*
X59850000Y-101073000D01*
X59542000Y-101073000D01*
X59542000Y-97550000D01*
X59504549Y-97361720D01*
X59427048Y-97245731D01*
X59427109Y-97175829D01*
X59331855Y-96945297D01*
X59155631Y-96768765D01*
X58925265Y-96673109D01*
X58675829Y-96672891D01*
X58445297Y-96768145D01*
X58268765Y-96944369D01*
X58173109Y-97174735D01*
X58172891Y-97424171D01*
X58268145Y-97654703D01*
X58444369Y-97831235D01*
X58558000Y-97878419D01*
X58558000Y-101073000D01*
X53853646Y-101073000D01*
X53727000Y-100946354D01*
X53727000Y-95150000D01*
X53716994Y-95100590D01*
X53688553Y-95058965D01*
X53646159Y-95031685D01*
X53600000Y-95023000D01*
X51127000Y-95023000D01*
X51127000Y-80577000D01*
X59673000Y-80577000D01*
X59673000Y-86750000D01*
X59673000Y-86750000D01*
G37*
X59673000Y-86750000D02*
X59683006Y-86799410D01*
X59711447Y-86841035D01*
X59753841Y-86868315D01*
X59800000Y-86877000D01*
X67369189Y-86877000D01*
X67418599Y-86866994D01*
X67460224Y-86838553D01*
X67487504Y-86796159D01*
X67496187Y-86750652D01*
X67526349Y-80877000D01*
X74773043Y-80877000D01*
X74778512Y-97161723D01*
X74773109Y-97174735D01*
X74772891Y-97424171D01*
X74778605Y-97438000D01*
X74778760Y-97900043D01*
X74788782Y-97949449D01*
X74817237Y-97991064D01*
X74859641Y-98018330D01*
X74905874Y-98027000D01*
X74908000Y-98026998D01*
X74908000Y-100923000D01*
X70327000Y-100923000D01*
X70327000Y-99250000D01*
X70316994Y-99200590D01*
X70288553Y-99158965D01*
X70246159Y-99131685D01*
X70200000Y-99123000D01*
X66300000Y-99123000D01*
X66250590Y-99133006D01*
X66208965Y-99161447D01*
X66181685Y-99203841D01*
X66173000Y-99250000D01*
X66173000Y-107473000D01*
X59977000Y-107473000D01*
X59977000Y-101200000D01*
X59966994Y-101150590D01*
X59938553Y-101108965D01*
X59896159Y-101081685D01*
X59850000Y-101073000D01*
X59542000Y-101073000D01*
X59542000Y-97550000D01*
X59504549Y-97361720D01*
X59427048Y-97245731D01*
X59427109Y-97175829D01*
X59331855Y-96945297D01*
X59155631Y-96768765D01*
X58925265Y-96673109D01*
X58675829Y-96672891D01*
X58445297Y-96768145D01*
X58268765Y-96944369D01*
X58173109Y-97174735D01*
X58172891Y-97424171D01*
X58268145Y-97654703D01*
X58444369Y-97831235D01*
X58558000Y-97878419D01*
X58558000Y-101073000D01*
X53853646Y-101073000D01*
X53727000Y-100946354D01*
X53727000Y-95150000D01*
X53716994Y-95100590D01*
X53688553Y-95058965D01*
X53646159Y-95031685D01*
X53600000Y-95023000D01*
X51127000Y-95023000D01*
X51127000Y-80577000D01*
X59673000Y-80577000D01*
X59673000Y-86750000D01*
M02*
