G04 #@! TF.FileFunction,Soldermask,Bot*
%FSLAX46Y46*%
G04 Gerber Fmt 4.6, Leading zero omitted, Abs format (unit mm)*
G04 Created by KiCad (PCBNEW 4.0.6) date 11/06/18 21:24:15*
%MOMM*%
%LPD*%
G01*
G04 APERTURE LIST*
%ADD10C,0.100000*%
%ADD11C,3.900000*%
%ADD12C,6.400000*%
%ADD13R,1.200000X1.700000*%
%ADD14R,2.200000X1.700000*%
%ADD15R,2.100000X2.100000*%
%ADD16O,2.100000X2.100000*%
G04 APERTURE END LIST*
D10*
D11*
X91500000Y-166500000D03*
X53500000Y-166500000D03*
X91500000Y-33500000D03*
D12*
X68700000Y-165800000D03*
X61500000Y-165800000D03*
D11*
X78700000Y-166700000D03*
X78700000Y-161700000D03*
X84400000Y-166700000D03*
X84400000Y-161700000D03*
D13*
X64650000Y-146820000D03*
D14*
X63350000Y-152020000D03*
X63350000Y-150720000D03*
X63350000Y-146820000D03*
X63350000Y-148120000D03*
X63350000Y-149420000D03*
D13*
X62050000Y-146820000D03*
X62050000Y-148120000D03*
X62050000Y-149420000D03*
X62050000Y-150720000D03*
X62050000Y-152020000D03*
X64650000Y-152020000D03*
X64650000Y-150720000D03*
X64650000Y-149420000D03*
X64650000Y-148120000D03*
D15*
X75300000Y-83300000D03*
D16*
X77840000Y-83300000D03*
D15*
X59260000Y-83300000D03*
D16*
X61800000Y-83300000D03*
D15*
X85100000Y-38100000D03*
D16*
X82560000Y-38100000D03*
D15*
X77100000Y-38100000D03*
D16*
X74560000Y-38100000D03*
D15*
X58820000Y-38100000D03*
D16*
X61360000Y-38100000D03*
X63900000Y-38100000D03*
X66440000Y-38100000D03*
D11*
X53500000Y-33500000D03*
D15*
X90000000Y-49360000D03*
D16*
X92540000Y-49360000D03*
X90000000Y-51900000D03*
X92540000Y-51900000D03*
X90000000Y-54440000D03*
X92540000Y-54440000D03*
X90000000Y-56980000D03*
X92540000Y-56980000D03*
X90000000Y-59520000D03*
X92540000Y-59520000D03*
X90000000Y-62060000D03*
X92540000Y-62060000D03*
X90000000Y-64600000D03*
X92540000Y-64600000D03*
X90000000Y-67140000D03*
X92540000Y-67140000D03*
X90000000Y-69680000D03*
X92540000Y-69680000D03*
X90000000Y-72220000D03*
X92540000Y-72220000D03*
X90000000Y-74760000D03*
X92540000Y-74760000D03*
X90000000Y-77300000D03*
X92540000Y-77300000D03*
X90000000Y-79840000D03*
X92540000Y-79840000D03*
X90000000Y-82380000D03*
X92540000Y-82380000D03*
X90000000Y-84920000D03*
X92540000Y-84920000D03*
X90000000Y-87460000D03*
X92540000Y-87460000D03*
X90000000Y-90000000D03*
X92540000Y-90000000D03*
X90000000Y-92540000D03*
X92540000Y-92540000D03*
X90000000Y-95080000D03*
X92540000Y-95080000D03*
X90000000Y-97620000D03*
X92540000Y-97620000D03*
M02*
