G04 #@! TF.FileFunction,Legend,Top*
%FSLAX46Y46*%
G04 Gerber Fmt 4.6, Leading zero omitted, Abs format (unit mm)*
G04 Created by KiCad (PCBNEW 4.0.6) date 07/18/19 23:03:05*
%MOMM*%
%LPD*%
G01*
G04 APERTURE LIST*
%ADD10C,0.100000*%
%ADD11C,0.120000*%
%ADD12C,0.152400*%
%ADD13C,0.150000*%
G04 APERTURE END LIST*
D10*
D11*
X68800000Y-100850000D02*
X68800000Y-104050000D01*
X68800000Y-104050000D02*
X58200000Y-104050000D01*
X58200000Y-104050000D02*
X58200000Y-100850000D01*
X58200000Y-96650000D02*
X58200000Y-93450000D01*
X58200000Y-93450000D02*
X68800000Y-93450000D01*
X68800000Y-93450000D02*
X68800000Y-96650000D01*
X55150000Y-110850000D02*
X55150000Y-111550000D01*
X53950000Y-111550000D02*
X53950000Y-110850000D01*
X76800000Y-110950000D02*
X76800000Y-111650000D01*
X75600000Y-111650000D02*
X75600000Y-110950000D01*
X53100000Y-69200000D02*
X53800000Y-69200000D01*
X53800000Y-70400000D02*
X53100000Y-70400000D01*
X52200000Y-54600000D02*
X52900000Y-54600000D01*
X52900000Y-55800000D02*
X52200000Y-55800000D01*
X57700000Y-69200000D02*
X58400000Y-69200000D01*
X58400000Y-70400000D02*
X57700000Y-70400000D01*
X85500000Y-37800000D02*
X85500000Y-38800000D01*
X85500000Y-38800000D02*
X87600000Y-38800000D01*
X85500000Y-37800000D02*
X87600000Y-37800000D01*
X84350000Y-38800000D02*
X84350000Y-37800000D01*
X84350000Y-37800000D02*
X82250000Y-37800000D01*
X84350000Y-38800000D02*
X82250000Y-38800000D01*
X75885000Y-61905000D02*
X79415000Y-61905000D01*
X75885000Y-68375000D02*
X79415000Y-68375000D01*
X74560000Y-61970000D02*
X75885000Y-61970000D01*
X75885000Y-61905000D02*
X75885000Y-61970000D01*
X79415000Y-61905000D02*
X79415000Y-61970000D01*
X75885000Y-68310000D02*
X75885000Y-68375000D01*
X79415000Y-68310000D02*
X79415000Y-68375000D01*
X53250000Y-140620000D02*
X54250000Y-140620000D01*
X54250000Y-141980000D02*
X53250000Y-141980000D01*
X52950000Y-67120000D02*
X53950000Y-67120000D01*
X53950000Y-68480000D02*
X52950000Y-68480000D01*
X53950000Y-66580000D02*
X52950000Y-66580000D01*
X52950000Y-65220000D02*
X53950000Y-65220000D01*
X53050000Y-58380000D02*
X52050000Y-58380000D01*
X52050000Y-57020000D02*
X53050000Y-57020000D01*
X53050000Y-60680000D02*
X52050000Y-60680000D01*
X52050000Y-59320000D02*
X53050000Y-59320000D01*
X58550000Y-66580000D02*
X57550000Y-66580000D01*
X57550000Y-65220000D02*
X58550000Y-65220000D01*
X57550000Y-67120000D02*
X58550000Y-67120000D01*
X58550000Y-68480000D02*
X57550000Y-68480000D01*
X86250000Y-39220000D02*
X87250000Y-39220000D01*
X87250000Y-40580000D02*
X86250000Y-40580000D01*
X83500000Y-40580000D02*
X82500000Y-40580000D01*
X82500000Y-39220000D02*
X83500000Y-39220000D01*
D12*
X75605400Y-41023600D02*
X75173600Y-41023600D01*
X78094600Y-44376400D02*
X78526400Y-44376400D01*
X78526400Y-44376400D02*
X78526400Y-41023600D01*
X78526400Y-41023600D02*
X78094600Y-41023600D01*
X75173600Y-41023600D02*
X75173600Y-44376400D01*
X75173600Y-44376400D02*
X75605400Y-44376400D01*
D11*
X67100000Y-157870000D02*
X63500000Y-157870000D01*
X63500000Y-161330000D02*
X67100000Y-161330000D01*
X73150000Y-41950000D02*
X73150000Y-42650000D01*
X71950000Y-42650000D02*
X71950000Y-41950000D01*
X71480000Y-62850000D02*
X71480000Y-63850000D01*
X70120000Y-63850000D02*
X70120000Y-62850000D01*
X65650000Y-47000000D02*
X65650000Y-46300000D01*
X66850000Y-46300000D02*
X66850000Y-47000000D01*
X57400000Y-40800000D02*
X57400000Y-40100000D01*
X58600000Y-40100000D02*
X58600000Y-40800000D01*
X64250000Y-58600000D02*
X63550000Y-58600000D01*
X63550000Y-57400000D02*
X64250000Y-57400000D01*
X60730000Y-43550000D02*
X60730000Y-44550000D01*
X59370000Y-44550000D02*
X59370000Y-43550000D01*
X63150000Y-43650000D02*
X63150000Y-44350000D01*
X61950000Y-44350000D02*
X61950000Y-43650000D01*
X66320000Y-39600000D02*
X66320000Y-38600000D01*
X67680000Y-38600000D02*
X67680000Y-39600000D01*
X65170000Y-116700000D02*
X65170000Y-118700000D01*
X68130000Y-118700000D02*
X68130000Y-116700000D01*
X86520000Y-116900000D02*
X86520000Y-118900000D01*
X89480000Y-118900000D02*
X89480000Y-116900000D01*
X90770000Y-116850000D02*
X90770000Y-118850000D01*
X93730000Y-118850000D02*
X93730000Y-116850000D01*
X68820000Y-116700000D02*
X68820000Y-118700000D01*
X71780000Y-118700000D02*
X71780000Y-116700000D01*
X91200000Y-102000000D02*
X91200000Y-105200000D01*
X91200000Y-105200000D02*
X80600000Y-105200000D01*
X80600000Y-105200000D02*
X80600000Y-102000000D01*
X80600000Y-97800000D02*
X80600000Y-94600000D01*
X80600000Y-94600000D02*
X91200000Y-94600000D01*
X91200000Y-94600000D02*
X91200000Y-97800000D01*
X55000000Y-98200000D02*
X51700000Y-98200000D01*
X51700000Y-98200000D02*
X51700000Y-103600000D01*
X55000000Y-98200000D02*
X55000000Y-103600000D01*
X78050000Y-98500000D02*
X74750000Y-98500000D01*
X74750000Y-98500000D02*
X74750000Y-103900000D01*
X78050000Y-98500000D02*
X78050000Y-103900000D01*
X82000000Y-116150000D02*
X78700000Y-116150000D01*
X78700000Y-116150000D02*
X78700000Y-121550000D01*
X82000000Y-116150000D02*
X82000000Y-121550000D01*
X60450000Y-116550000D02*
X57150000Y-116550000D01*
X57150000Y-116550000D02*
X57150000Y-121950000D01*
X60450000Y-116550000D02*
X60450000Y-121950000D01*
X71730000Y-112050000D02*
X71730000Y-110050000D01*
X68770000Y-110050000D02*
X68770000Y-112050000D01*
X89630000Y-112200000D02*
X89630000Y-110200000D01*
X86670000Y-110200000D02*
X86670000Y-112200000D01*
X68030000Y-112150000D02*
X68030000Y-110150000D01*
X65070000Y-110150000D02*
X65070000Y-112150000D01*
X93930000Y-112100000D02*
X93930000Y-110100000D01*
X90970000Y-110100000D02*
X90970000Y-112100000D01*
X79500000Y-155200000D02*
X79500000Y-151900000D01*
X79500000Y-151900000D02*
X74100000Y-151900000D01*
X79500000Y-155200000D02*
X74100000Y-155200000D01*
X86325000Y-43410000D02*
X91525000Y-43410000D01*
X86325000Y-68930000D02*
X91525000Y-68930000D01*
X84885000Y-43980000D02*
X86325000Y-43980000D01*
X86325000Y-43410000D02*
X86325000Y-43980000D01*
X91525000Y-43410000D02*
X91525000Y-43980000D01*
X86325000Y-68360000D02*
X86325000Y-68930000D01*
X91525000Y-68360000D02*
X91525000Y-68930000D01*
X86325000Y-45500000D02*
X86325000Y-46520000D01*
X91525000Y-45500000D02*
X91525000Y-46520000D01*
X86325000Y-48040000D02*
X86325000Y-49060000D01*
X91525000Y-48040000D02*
X91525000Y-49060000D01*
X86325000Y-50580000D02*
X86325000Y-51600000D01*
X91525000Y-50580000D02*
X91525000Y-51600000D01*
X86325000Y-53120000D02*
X86325000Y-54140000D01*
X91525000Y-53120000D02*
X91525000Y-54140000D01*
X86325000Y-55660000D02*
X86325000Y-56680000D01*
X91525000Y-55660000D02*
X91525000Y-56680000D01*
X86325000Y-58200000D02*
X86325000Y-59220000D01*
X91525000Y-58200000D02*
X91525000Y-59220000D01*
X86325000Y-60740000D02*
X86325000Y-61760000D01*
X91525000Y-60740000D02*
X91525000Y-61760000D01*
X86325000Y-63280000D02*
X86325000Y-64300000D01*
X91525000Y-63280000D02*
X91525000Y-64300000D01*
X86325000Y-65820000D02*
X86325000Y-66840000D01*
X91525000Y-65820000D02*
X91525000Y-66840000D01*
X79500000Y-151400000D02*
X79500000Y-148100000D01*
X79500000Y-148100000D02*
X74100000Y-148100000D01*
X79500000Y-151400000D02*
X74100000Y-151400000D01*
X52703000Y-75000000D02*
X52703000Y-73800000D01*
X52703000Y-73800000D02*
X55403000Y-73800000D01*
X56703000Y-78600000D02*
X52703000Y-78600000D01*
X52703000Y-78600000D02*
X52703000Y-77400000D01*
X55750000Y-144370000D02*
X56410000Y-144370000D01*
X54090000Y-144370000D02*
X54750000Y-144370000D01*
X54090000Y-144370000D02*
X54090000Y-146400000D01*
X56410000Y-145780000D02*
X56410000Y-144370000D01*
D13*
X54107143Y-113591666D02*
X54154762Y-113639285D01*
X54202381Y-113782142D01*
X54202381Y-113877380D01*
X54154762Y-114020238D01*
X54059524Y-114115476D01*
X53964286Y-114163095D01*
X53773810Y-114210714D01*
X53630952Y-114210714D01*
X53440476Y-114163095D01*
X53345238Y-114115476D01*
X53250000Y-114020238D01*
X53202381Y-113877380D01*
X53202381Y-113782142D01*
X53250000Y-113639285D01*
X53297619Y-113591666D01*
X53202381Y-113258333D02*
X53202381Y-112591666D01*
X54202381Y-113020238D01*
X75057143Y-111466666D02*
X75104762Y-111514285D01*
X75152381Y-111657142D01*
X75152381Y-111752380D01*
X75104762Y-111895238D01*
X75009524Y-111990476D01*
X74914286Y-112038095D01*
X74723810Y-112085714D01*
X74580952Y-112085714D01*
X74390476Y-112038095D01*
X74295238Y-111990476D01*
X74200000Y-111895238D01*
X74152381Y-111752380D01*
X74152381Y-111657142D01*
X74200000Y-111514285D01*
X74247619Y-111466666D01*
X74580952Y-110895238D02*
X74533333Y-110990476D01*
X74485714Y-111038095D01*
X74390476Y-111085714D01*
X74342857Y-111085714D01*
X74247619Y-111038095D01*
X74200000Y-110990476D01*
X74152381Y-110895238D01*
X74152381Y-110704761D01*
X74200000Y-110609523D01*
X74247619Y-110561904D01*
X74342857Y-110514285D01*
X74390476Y-110514285D01*
X74485714Y-110561904D01*
X74533333Y-110609523D01*
X74580952Y-110704761D01*
X74580952Y-110895238D01*
X74628571Y-110990476D01*
X74676190Y-111038095D01*
X74771429Y-111085714D01*
X74961905Y-111085714D01*
X75057143Y-111038095D01*
X75104762Y-110990476D01*
X75152381Y-110895238D01*
X75152381Y-110704761D01*
X75104762Y-110609523D01*
X75057143Y-110561904D01*
X74961905Y-110514285D01*
X74771429Y-110514285D01*
X74676190Y-110561904D01*
X74628571Y-110609523D01*
X74580952Y-110704761D01*
X49757143Y-70157143D02*
X49709524Y-70204762D01*
X49566667Y-70252381D01*
X49471429Y-70252381D01*
X49328571Y-70204762D01*
X49233333Y-70109524D01*
X49185714Y-70014286D01*
X49138095Y-69823810D01*
X49138095Y-69680952D01*
X49185714Y-69490476D01*
X49233333Y-69395238D01*
X49328571Y-69300000D01*
X49471429Y-69252381D01*
X49566667Y-69252381D01*
X49709524Y-69300000D01*
X49757143Y-69347619D01*
X50709524Y-70252381D02*
X50138095Y-70252381D01*
X50423809Y-70252381D02*
X50423809Y-69252381D01*
X50328571Y-69395238D01*
X50233333Y-69490476D01*
X50138095Y-69538095D01*
X51185714Y-70252381D02*
X51376190Y-70252381D01*
X51471429Y-70204762D01*
X51519048Y-70157143D01*
X51614286Y-70014286D01*
X51661905Y-69823810D01*
X51661905Y-69442857D01*
X51614286Y-69347619D01*
X51566667Y-69300000D01*
X51471429Y-69252381D01*
X51280952Y-69252381D01*
X51185714Y-69300000D01*
X51138095Y-69347619D01*
X51090476Y-69442857D01*
X51090476Y-69680952D01*
X51138095Y-69776190D01*
X51185714Y-69823810D01*
X51280952Y-69871429D01*
X51471429Y-69871429D01*
X51566667Y-69823810D01*
X51614286Y-69776190D01*
X51661905Y-69680952D01*
X54807143Y-55557143D02*
X54759524Y-55604762D01*
X54616667Y-55652381D01*
X54521429Y-55652381D01*
X54378571Y-55604762D01*
X54283333Y-55509524D01*
X54235714Y-55414286D01*
X54188095Y-55223810D01*
X54188095Y-55080952D01*
X54235714Y-54890476D01*
X54283333Y-54795238D01*
X54378571Y-54700000D01*
X54521429Y-54652381D01*
X54616667Y-54652381D01*
X54759524Y-54700000D01*
X54807143Y-54747619D01*
X55188095Y-54747619D02*
X55235714Y-54700000D01*
X55330952Y-54652381D01*
X55569048Y-54652381D01*
X55664286Y-54700000D01*
X55711905Y-54747619D01*
X55759524Y-54842857D01*
X55759524Y-54938095D01*
X55711905Y-55080952D01*
X55140476Y-55652381D01*
X55759524Y-55652381D01*
X56378571Y-54652381D02*
X56473810Y-54652381D01*
X56569048Y-54700000D01*
X56616667Y-54747619D01*
X56664286Y-54842857D01*
X56711905Y-55033333D01*
X56711905Y-55271429D01*
X56664286Y-55461905D01*
X56616667Y-55557143D01*
X56569048Y-55604762D01*
X56473810Y-55652381D01*
X56378571Y-55652381D01*
X56283333Y-55604762D01*
X56235714Y-55557143D01*
X56188095Y-55461905D01*
X56140476Y-55271429D01*
X56140476Y-55033333D01*
X56188095Y-54842857D01*
X56235714Y-54747619D01*
X56283333Y-54700000D01*
X56378571Y-54652381D01*
X60307143Y-70207143D02*
X60259524Y-70254762D01*
X60116667Y-70302381D01*
X60021429Y-70302381D01*
X59878571Y-70254762D01*
X59783333Y-70159524D01*
X59735714Y-70064286D01*
X59688095Y-69873810D01*
X59688095Y-69730952D01*
X59735714Y-69540476D01*
X59783333Y-69445238D01*
X59878571Y-69350000D01*
X60021429Y-69302381D01*
X60116667Y-69302381D01*
X60259524Y-69350000D01*
X60307143Y-69397619D01*
X60688095Y-69397619D02*
X60735714Y-69350000D01*
X60830952Y-69302381D01*
X61069048Y-69302381D01*
X61164286Y-69350000D01*
X61211905Y-69397619D01*
X61259524Y-69492857D01*
X61259524Y-69588095D01*
X61211905Y-69730952D01*
X60640476Y-70302381D01*
X61259524Y-70302381D01*
X62211905Y-70302381D02*
X61640476Y-70302381D01*
X61926190Y-70302381D02*
X61926190Y-69302381D01*
X61830952Y-69445238D01*
X61735714Y-69540476D01*
X61640476Y-69588095D01*
X53583334Y-143202381D02*
X53250000Y-142726190D01*
X53011905Y-143202381D02*
X53011905Y-142202381D01*
X53392858Y-142202381D01*
X53488096Y-142250000D01*
X53535715Y-142297619D01*
X53583334Y-142392857D01*
X53583334Y-142535714D01*
X53535715Y-142630952D01*
X53488096Y-142678571D01*
X53392858Y-142726190D01*
X53011905Y-142726190D01*
X54535715Y-143202381D02*
X53964286Y-143202381D01*
X54250000Y-143202381D02*
X54250000Y-142202381D01*
X54154762Y-142345238D01*
X54059524Y-142440476D01*
X53964286Y-142488095D01*
X49757143Y-68352381D02*
X49423809Y-67876190D01*
X49185714Y-68352381D02*
X49185714Y-67352381D01*
X49566667Y-67352381D01*
X49661905Y-67400000D01*
X49709524Y-67447619D01*
X49757143Y-67542857D01*
X49757143Y-67685714D01*
X49709524Y-67780952D01*
X49661905Y-67828571D01*
X49566667Y-67876190D01*
X49185714Y-67876190D01*
X50709524Y-68352381D02*
X50138095Y-68352381D01*
X50423809Y-68352381D02*
X50423809Y-67352381D01*
X50328571Y-67495238D01*
X50233333Y-67590476D01*
X50138095Y-67638095D01*
X51042857Y-67352381D02*
X51661905Y-67352381D01*
X51328571Y-67733333D01*
X51471429Y-67733333D01*
X51566667Y-67780952D01*
X51614286Y-67828571D01*
X51661905Y-67923810D01*
X51661905Y-68161905D01*
X51614286Y-68257143D01*
X51566667Y-68304762D01*
X51471429Y-68352381D01*
X51185714Y-68352381D01*
X51090476Y-68304762D01*
X51042857Y-68257143D01*
X50007143Y-66202381D02*
X49673809Y-65726190D01*
X49435714Y-66202381D02*
X49435714Y-65202381D01*
X49816667Y-65202381D01*
X49911905Y-65250000D01*
X49959524Y-65297619D01*
X50007143Y-65392857D01*
X50007143Y-65535714D01*
X49959524Y-65630952D01*
X49911905Y-65678571D01*
X49816667Y-65726190D01*
X49435714Y-65726190D01*
X50959524Y-66202381D02*
X50388095Y-66202381D01*
X50673809Y-66202381D02*
X50673809Y-65202381D01*
X50578571Y-65345238D01*
X50483333Y-65440476D01*
X50388095Y-65488095D01*
X51816667Y-65535714D02*
X51816667Y-66202381D01*
X51578571Y-65154762D02*
X51340476Y-65869048D01*
X51959524Y-65869048D01*
X54707143Y-58002381D02*
X54373809Y-57526190D01*
X54135714Y-58002381D02*
X54135714Y-57002381D01*
X54516667Y-57002381D01*
X54611905Y-57050000D01*
X54659524Y-57097619D01*
X54707143Y-57192857D01*
X54707143Y-57335714D01*
X54659524Y-57430952D01*
X54611905Y-57478571D01*
X54516667Y-57526190D01*
X54135714Y-57526190D01*
X55659524Y-58002381D02*
X55088095Y-58002381D01*
X55373809Y-58002381D02*
X55373809Y-57002381D01*
X55278571Y-57145238D01*
X55183333Y-57240476D01*
X55088095Y-57288095D01*
X56564286Y-57002381D02*
X56088095Y-57002381D01*
X56040476Y-57478571D01*
X56088095Y-57430952D01*
X56183333Y-57383333D01*
X56421429Y-57383333D01*
X56516667Y-57430952D01*
X56564286Y-57478571D01*
X56611905Y-57573810D01*
X56611905Y-57811905D01*
X56564286Y-57907143D01*
X56516667Y-57954762D01*
X56421429Y-58002381D01*
X56183333Y-58002381D01*
X56088095Y-57954762D01*
X56040476Y-57907143D01*
X54607143Y-60402381D02*
X54273809Y-59926190D01*
X54035714Y-60402381D02*
X54035714Y-59402381D01*
X54416667Y-59402381D01*
X54511905Y-59450000D01*
X54559524Y-59497619D01*
X54607143Y-59592857D01*
X54607143Y-59735714D01*
X54559524Y-59830952D01*
X54511905Y-59878571D01*
X54416667Y-59926190D01*
X54035714Y-59926190D01*
X55559524Y-60402381D02*
X54988095Y-60402381D01*
X55273809Y-60402381D02*
X55273809Y-59402381D01*
X55178571Y-59545238D01*
X55083333Y-59640476D01*
X54988095Y-59688095D01*
X56416667Y-59402381D02*
X56226190Y-59402381D01*
X56130952Y-59450000D01*
X56083333Y-59497619D01*
X55988095Y-59640476D01*
X55940476Y-59830952D01*
X55940476Y-60211905D01*
X55988095Y-60307143D01*
X56035714Y-60354762D01*
X56130952Y-60402381D01*
X56321429Y-60402381D01*
X56416667Y-60354762D01*
X56464286Y-60307143D01*
X56511905Y-60211905D01*
X56511905Y-59973810D01*
X56464286Y-59878571D01*
X56416667Y-59830952D01*
X56321429Y-59783333D01*
X56130952Y-59783333D01*
X56035714Y-59830952D01*
X55988095Y-59878571D01*
X55940476Y-59973810D01*
X60057143Y-66452381D02*
X59723809Y-65976190D01*
X59485714Y-66452381D02*
X59485714Y-65452381D01*
X59866667Y-65452381D01*
X59961905Y-65500000D01*
X60009524Y-65547619D01*
X60057143Y-65642857D01*
X60057143Y-65785714D01*
X60009524Y-65880952D01*
X59961905Y-65928571D01*
X59866667Y-65976190D01*
X59485714Y-65976190D01*
X61009524Y-66452381D02*
X60438095Y-66452381D01*
X60723809Y-66452381D02*
X60723809Y-65452381D01*
X60628571Y-65595238D01*
X60533333Y-65690476D01*
X60438095Y-65738095D01*
X61342857Y-65452381D02*
X62009524Y-65452381D01*
X61580952Y-66452381D01*
X60007143Y-68352381D02*
X59673809Y-67876190D01*
X59435714Y-68352381D02*
X59435714Y-67352381D01*
X59816667Y-67352381D01*
X59911905Y-67400000D01*
X59959524Y-67447619D01*
X60007143Y-67542857D01*
X60007143Y-67685714D01*
X59959524Y-67780952D01*
X59911905Y-67828571D01*
X59816667Y-67876190D01*
X59435714Y-67876190D01*
X60959524Y-68352381D02*
X60388095Y-68352381D01*
X60673809Y-68352381D02*
X60673809Y-67352381D01*
X60578571Y-67495238D01*
X60483333Y-67590476D01*
X60388095Y-67638095D01*
X61530952Y-67780952D02*
X61435714Y-67733333D01*
X61388095Y-67685714D01*
X61340476Y-67590476D01*
X61340476Y-67542857D01*
X61388095Y-67447619D01*
X61435714Y-67400000D01*
X61530952Y-67352381D01*
X61721429Y-67352381D01*
X61816667Y-67400000D01*
X61864286Y-67447619D01*
X61911905Y-67542857D01*
X61911905Y-67590476D01*
X61864286Y-67685714D01*
X61816667Y-67733333D01*
X61721429Y-67780952D01*
X61530952Y-67780952D01*
X61435714Y-67828571D01*
X61388095Y-67876190D01*
X61340476Y-67971429D01*
X61340476Y-68161905D01*
X61388095Y-68257143D01*
X61435714Y-68304762D01*
X61530952Y-68352381D01*
X61721429Y-68352381D01*
X61816667Y-68304762D01*
X61864286Y-68257143D01*
X61911905Y-68161905D01*
X61911905Y-67971429D01*
X61864286Y-67876190D01*
X61816667Y-67828571D01*
X61721429Y-67780952D01*
X71407143Y-42942857D02*
X71454762Y-42990476D01*
X71502381Y-43133333D01*
X71502381Y-43228571D01*
X71454762Y-43371429D01*
X71359524Y-43466667D01*
X71264286Y-43514286D01*
X71073810Y-43561905D01*
X70930952Y-43561905D01*
X70740476Y-43514286D01*
X70645238Y-43466667D01*
X70550000Y-43371429D01*
X70502381Y-43228571D01*
X70502381Y-43133333D01*
X70550000Y-42990476D01*
X70597619Y-42942857D01*
X70597619Y-42561905D02*
X70550000Y-42514286D01*
X70502381Y-42419048D01*
X70502381Y-42180952D01*
X70550000Y-42085714D01*
X70597619Y-42038095D01*
X70692857Y-41990476D01*
X70788095Y-41990476D01*
X70930952Y-42038095D01*
X71502381Y-42609524D01*
X71502381Y-41990476D01*
X70502381Y-41657143D02*
X70502381Y-41038095D01*
X70883333Y-41371429D01*
X70883333Y-41228571D01*
X70930952Y-41133333D01*
X70978571Y-41085714D01*
X71073810Y-41038095D01*
X71311905Y-41038095D01*
X71407143Y-41085714D01*
X71454762Y-41133333D01*
X71502381Y-41228571D01*
X71502381Y-41514286D01*
X71454762Y-41609524D01*
X71407143Y-41657143D01*
X69802381Y-63992857D02*
X69326190Y-64326191D01*
X69802381Y-64564286D02*
X68802381Y-64564286D01*
X68802381Y-64183333D01*
X68850000Y-64088095D01*
X68897619Y-64040476D01*
X68992857Y-63992857D01*
X69135714Y-63992857D01*
X69230952Y-64040476D01*
X69278571Y-64088095D01*
X69326190Y-64183333D01*
X69326190Y-64564286D01*
X68897619Y-63611905D02*
X68850000Y-63564286D01*
X68802381Y-63469048D01*
X68802381Y-63230952D01*
X68850000Y-63135714D01*
X68897619Y-63088095D01*
X68992857Y-63040476D01*
X69088095Y-63040476D01*
X69230952Y-63088095D01*
X69802381Y-63659524D01*
X69802381Y-63040476D01*
X69802381Y-62088095D02*
X69802381Y-62659524D01*
X69802381Y-62373810D02*
X68802381Y-62373810D01*
X68945238Y-62469048D01*
X69040476Y-62564286D01*
X69088095Y-62659524D01*
X68107143Y-47292857D02*
X68154762Y-47340476D01*
X68202381Y-47483333D01*
X68202381Y-47578571D01*
X68154762Y-47721429D01*
X68059524Y-47816667D01*
X67964286Y-47864286D01*
X67773810Y-47911905D01*
X67630952Y-47911905D01*
X67440476Y-47864286D01*
X67345238Y-47816667D01*
X67250000Y-47721429D01*
X67202381Y-47578571D01*
X67202381Y-47483333D01*
X67250000Y-47340476D01*
X67297619Y-47292857D01*
X67297619Y-46911905D02*
X67250000Y-46864286D01*
X67202381Y-46769048D01*
X67202381Y-46530952D01*
X67250000Y-46435714D01*
X67297619Y-46388095D01*
X67392857Y-46340476D01*
X67488095Y-46340476D01*
X67630952Y-46388095D01*
X68202381Y-46959524D01*
X68202381Y-46340476D01*
X67535714Y-45483333D02*
X68202381Y-45483333D01*
X67154762Y-45721429D02*
X67869048Y-45959524D01*
X67869048Y-45340476D01*
X56557143Y-40892857D02*
X56604762Y-40940476D01*
X56652381Y-41083333D01*
X56652381Y-41178571D01*
X56604762Y-41321429D01*
X56509524Y-41416667D01*
X56414286Y-41464286D01*
X56223810Y-41511905D01*
X56080952Y-41511905D01*
X55890476Y-41464286D01*
X55795238Y-41416667D01*
X55700000Y-41321429D01*
X55652381Y-41178571D01*
X55652381Y-41083333D01*
X55700000Y-40940476D01*
X55747619Y-40892857D01*
X55747619Y-40511905D02*
X55700000Y-40464286D01*
X55652381Y-40369048D01*
X55652381Y-40130952D01*
X55700000Y-40035714D01*
X55747619Y-39988095D01*
X55842857Y-39940476D01*
X55938095Y-39940476D01*
X56080952Y-39988095D01*
X56652381Y-40559524D01*
X56652381Y-39940476D01*
X55652381Y-39035714D02*
X55652381Y-39511905D01*
X56128571Y-39559524D01*
X56080952Y-39511905D01*
X56033333Y-39416667D01*
X56033333Y-39178571D01*
X56080952Y-39083333D01*
X56128571Y-39035714D01*
X56223810Y-38988095D01*
X56461905Y-38988095D01*
X56557143Y-39035714D01*
X56604762Y-39083333D01*
X56652381Y-39178571D01*
X56652381Y-39416667D01*
X56604762Y-39511905D01*
X56557143Y-39559524D01*
X63357143Y-60057143D02*
X63309524Y-60104762D01*
X63166667Y-60152381D01*
X63071429Y-60152381D01*
X62928571Y-60104762D01*
X62833333Y-60009524D01*
X62785714Y-59914286D01*
X62738095Y-59723810D01*
X62738095Y-59580952D01*
X62785714Y-59390476D01*
X62833333Y-59295238D01*
X62928571Y-59200000D01*
X63071429Y-59152381D01*
X63166667Y-59152381D01*
X63309524Y-59200000D01*
X63357143Y-59247619D01*
X63738095Y-59247619D02*
X63785714Y-59200000D01*
X63880952Y-59152381D01*
X64119048Y-59152381D01*
X64214286Y-59200000D01*
X64261905Y-59247619D01*
X64309524Y-59342857D01*
X64309524Y-59438095D01*
X64261905Y-59580952D01*
X63690476Y-60152381D01*
X64309524Y-60152381D01*
X65166667Y-59152381D02*
X64976190Y-59152381D01*
X64880952Y-59200000D01*
X64833333Y-59247619D01*
X64738095Y-59390476D01*
X64690476Y-59580952D01*
X64690476Y-59961905D01*
X64738095Y-60057143D01*
X64785714Y-60104762D01*
X64880952Y-60152381D01*
X65071429Y-60152381D01*
X65166667Y-60104762D01*
X65214286Y-60057143D01*
X65261905Y-59961905D01*
X65261905Y-59723810D01*
X65214286Y-59628571D01*
X65166667Y-59580952D01*
X65071429Y-59533333D01*
X64880952Y-59533333D01*
X64785714Y-59580952D01*
X64738095Y-59628571D01*
X64690476Y-59723810D01*
X59052381Y-44216666D02*
X58576190Y-44550000D01*
X59052381Y-44788095D02*
X58052381Y-44788095D01*
X58052381Y-44407142D01*
X58100000Y-44311904D01*
X58147619Y-44264285D01*
X58242857Y-44216666D01*
X58385714Y-44216666D01*
X58480952Y-44264285D01*
X58528571Y-44311904D01*
X58576190Y-44407142D01*
X58576190Y-44788095D01*
X58385714Y-43359523D02*
X59052381Y-43359523D01*
X58004762Y-43597619D02*
X58719048Y-43835714D01*
X58719048Y-43216666D01*
X64407143Y-44892857D02*
X64454762Y-44940476D01*
X64502381Y-45083333D01*
X64502381Y-45178571D01*
X64454762Y-45321429D01*
X64359524Y-45416667D01*
X64264286Y-45464286D01*
X64073810Y-45511905D01*
X63930952Y-45511905D01*
X63740476Y-45464286D01*
X63645238Y-45416667D01*
X63550000Y-45321429D01*
X63502381Y-45178571D01*
X63502381Y-45083333D01*
X63550000Y-44940476D01*
X63597619Y-44892857D01*
X63597619Y-44511905D02*
X63550000Y-44464286D01*
X63502381Y-44369048D01*
X63502381Y-44130952D01*
X63550000Y-44035714D01*
X63597619Y-43988095D01*
X63692857Y-43940476D01*
X63788095Y-43940476D01*
X63930952Y-43988095D01*
X64502381Y-44559524D01*
X64502381Y-43940476D01*
X63502381Y-43607143D02*
X63502381Y-42940476D01*
X64502381Y-43369048D01*
X68902381Y-39266666D02*
X68426190Y-39600000D01*
X68902381Y-39838095D02*
X67902381Y-39838095D01*
X67902381Y-39457142D01*
X67950000Y-39361904D01*
X67997619Y-39314285D01*
X68092857Y-39266666D01*
X68235714Y-39266666D01*
X68330952Y-39314285D01*
X68378571Y-39361904D01*
X68426190Y-39457142D01*
X68426190Y-39838095D01*
X67902381Y-38361904D02*
X67902381Y-38838095D01*
X68378571Y-38885714D01*
X68330952Y-38838095D01*
X68283333Y-38742857D01*
X68283333Y-38504761D01*
X68330952Y-38409523D01*
X68378571Y-38361904D01*
X68473810Y-38314285D01*
X68711905Y-38314285D01*
X68807143Y-38361904D01*
X68854762Y-38409523D01*
X68902381Y-38504761D01*
X68902381Y-38742857D01*
X68854762Y-38838095D01*
X68807143Y-38885714D01*
X95057143Y-111742857D02*
X95104762Y-111790476D01*
X95152381Y-111933333D01*
X95152381Y-112028571D01*
X95104762Y-112171429D01*
X95009524Y-112266667D01*
X94914286Y-112314286D01*
X94723810Y-112361905D01*
X94580952Y-112361905D01*
X94390476Y-112314286D01*
X94295238Y-112266667D01*
X94200000Y-112171429D01*
X94152381Y-112028571D01*
X94152381Y-111933333D01*
X94200000Y-111790476D01*
X94247619Y-111742857D01*
X94247619Y-111361905D02*
X94200000Y-111314286D01*
X94152381Y-111219048D01*
X94152381Y-110980952D01*
X94200000Y-110885714D01*
X94247619Y-110838095D01*
X94342857Y-110790476D01*
X94438095Y-110790476D01*
X94580952Y-110838095D01*
X95152381Y-111409524D01*
X95152381Y-110790476D01*
X95152381Y-110314286D02*
X95152381Y-110123810D01*
X95104762Y-110028571D01*
X95057143Y-109980952D01*
X94914286Y-109885714D01*
X94723810Y-109838095D01*
X94342857Y-109838095D01*
X94247619Y-109885714D01*
X94200000Y-109933333D01*
X94152381Y-110028571D01*
X94152381Y-110219048D01*
X94200000Y-110314286D01*
X94247619Y-110361905D01*
X94342857Y-110409524D01*
X94580952Y-110409524D01*
X94676190Y-110361905D01*
X94723810Y-110314286D01*
X94771429Y-110219048D01*
X94771429Y-110028571D01*
X94723810Y-109933333D01*
X94676190Y-109885714D01*
X94580952Y-109838095D01*
X60566667Y-87002381D02*
X60566667Y-87716667D01*
X60519047Y-87859524D01*
X60423809Y-87954762D01*
X60280952Y-88002381D01*
X60185714Y-88002381D01*
X61185714Y-87430952D02*
X61090476Y-87383333D01*
X61042857Y-87335714D01*
X60995238Y-87240476D01*
X60995238Y-87192857D01*
X61042857Y-87097619D01*
X61090476Y-87050000D01*
X61185714Y-87002381D01*
X61376191Y-87002381D01*
X61471429Y-87050000D01*
X61519048Y-87097619D01*
X61566667Y-87192857D01*
X61566667Y-87240476D01*
X61519048Y-87335714D01*
X61471429Y-87383333D01*
X61376191Y-87430952D01*
X61185714Y-87430952D01*
X61090476Y-87478571D01*
X61042857Y-87526190D01*
X60995238Y-87621429D01*
X60995238Y-87811905D01*
X61042857Y-87907143D01*
X61090476Y-87954762D01*
X61185714Y-88002381D01*
X61376191Y-88002381D01*
X61471429Y-87954762D01*
X61519048Y-87907143D01*
X61566667Y-87811905D01*
X61566667Y-87621429D01*
X61519048Y-87526190D01*
X61471429Y-87478571D01*
X61376191Y-87430952D01*
X91590477Y-164702381D02*
X91590477Y-165416667D01*
X91542857Y-165559524D01*
X91447619Y-165654762D01*
X91304762Y-165702381D01*
X91209524Y-165702381D01*
X92590477Y-165702381D02*
X92019048Y-165702381D01*
X92304762Y-165702381D02*
X92304762Y-164702381D01*
X92209524Y-164845238D01*
X92114286Y-164940476D01*
X92019048Y-164988095D01*
X93542858Y-165702381D02*
X92971429Y-165702381D01*
X93257143Y-165702381D02*
X93257143Y-164702381D01*
X93161905Y-164845238D01*
X93066667Y-164940476D01*
X92971429Y-164988095D01*
X52640477Y-31302381D02*
X52640477Y-32016667D01*
X52592857Y-32159524D01*
X52497619Y-32254762D01*
X52354762Y-32302381D01*
X52259524Y-32302381D01*
X53640477Y-32302381D02*
X53069048Y-32302381D01*
X53354762Y-32302381D02*
X53354762Y-31302381D01*
X53259524Y-31445238D01*
X53164286Y-31540476D01*
X53069048Y-31588095D01*
X54021429Y-31397619D02*
X54069048Y-31350000D01*
X54164286Y-31302381D01*
X54402382Y-31302381D01*
X54497620Y-31350000D01*
X54545239Y-31397619D01*
X54592858Y-31492857D01*
X54592858Y-31588095D01*
X54545239Y-31730952D01*
X53973810Y-32302381D01*
X54592858Y-32302381D01*
X91040477Y-31652381D02*
X91040477Y-32366667D01*
X90992857Y-32509524D01*
X90897619Y-32604762D01*
X90754762Y-32652381D01*
X90659524Y-32652381D01*
X92040477Y-32652381D02*
X91469048Y-32652381D01*
X91754762Y-32652381D02*
X91754762Y-31652381D01*
X91659524Y-31795238D01*
X91564286Y-31890476D01*
X91469048Y-31938095D01*
X92373810Y-31652381D02*
X92992858Y-31652381D01*
X92659524Y-32033333D01*
X92802382Y-32033333D01*
X92897620Y-32080952D01*
X92945239Y-32128571D01*
X92992858Y-32223810D01*
X92992858Y-32461905D01*
X92945239Y-32557143D01*
X92897620Y-32604762D01*
X92802382Y-32652381D01*
X92516667Y-32652381D01*
X92421429Y-32604762D01*
X92373810Y-32557143D01*
X52590477Y-164752381D02*
X52590477Y-165466667D01*
X52542857Y-165609524D01*
X52447619Y-165704762D01*
X52304762Y-165752381D01*
X52209524Y-165752381D01*
X53590477Y-165752381D02*
X53019048Y-165752381D01*
X53304762Y-165752381D02*
X53304762Y-164752381D01*
X53209524Y-164895238D01*
X53114286Y-164990476D01*
X53019048Y-165038095D01*
X54447620Y-165085714D02*
X54447620Y-165752381D01*
X54209524Y-164704762D02*
X53971429Y-165419048D01*
X54590477Y-165419048D01*
M02*
