G04 #@! TF.FileFunction,Copper,L4,Bot,Signal*
%FSLAX46Y46*%
G04 Gerber Fmt 4.6, Leading zero omitted, Abs format (unit mm)*
G04 Created by KiCad (PCBNEW 4.0.6) date 07/27/19 23:28:40*
%MOMM*%
%LPD*%
G01*
G04 APERTURE LIST*
%ADD10C,0.100000*%
%ADD11C,2.500000*%
%ADD12C,3.500000*%
%ADD13C,6.200000*%
%ADD14C,1.000000*%
%ADD15C,0.800000*%
%ADD16C,0.400000*%
%ADD17C,0.130000*%
G04 APERTURE END LIST*
D10*
D11*
X78150000Y-32550000D03*
X74950000Y-32550000D03*
X78150000Y-36600000D03*
X74950000Y-36600000D03*
D12*
X67600000Y-165400000D03*
X62600000Y-165400000D03*
X80650000Y-166800000D03*
X80650000Y-161800000D03*
X85300000Y-166800000D03*
X85300000Y-161800000D03*
D11*
X61824000Y-82042000D03*
X65024000Y-82042000D03*
X70000000Y-34450000D03*
X67000000Y-34450000D03*
X64000000Y-34450000D03*
X61000000Y-34450000D03*
D13*
X91500000Y-166500000D03*
X53500000Y-33500000D03*
X91500000Y-33500000D03*
X53500000Y-166500000D03*
D11*
X81890000Y-81026000D03*
X85090000Y-81026000D03*
D14*
X60250000Y-71350000D03*
X52700000Y-63950000D03*
X81550000Y-54900000D03*
X82150000Y-57400000D03*
X55500000Y-57700000D03*
X55400000Y-60000000D03*
X60200000Y-49400000D03*
X81550000Y-49800000D03*
X81550000Y-47300000D03*
X81600000Y-44750000D03*
X81550000Y-52350000D03*
D15*
X73600000Y-103500000D03*
X73600000Y-105800000D03*
X73600000Y-108800000D03*
X73600000Y-110650000D03*
X52800000Y-102450000D03*
X52800000Y-104600000D03*
X52800000Y-106450000D03*
X52800000Y-108350000D03*
X68000000Y-168750000D03*
X70000000Y-168750000D03*
X71650000Y-168750000D03*
X73400000Y-168750000D03*
X75050000Y-168750000D03*
X76650000Y-168750000D03*
X76650000Y-166750000D03*
X75900000Y-165700000D03*
X74000000Y-165700000D03*
X72650000Y-165250000D03*
X72650000Y-163300000D03*
X72650000Y-161650000D03*
X72650000Y-159900000D03*
X72650000Y-158450000D03*
X72650000Y-156800000D03*
X71500000Y-155650000D03*
X71500000Y-154200000D03*
X71500000Y-152750000D03*
X71500000Y-151400000D03*
X71500000Y-150050000D03*
X71450000Y-148850000D03*
X69850000Y-148850000D03*
X68331370Y-148850000D03*
X68165685Y-150150000D03*
X68165685Y-151700000D03*
X68165685Y-153250000D03*
X68165685Y-154850000D03*
X67600000Y-161800000D03*
X67600000Y-160750000D03*
X67600000Y-159450000D03*
X67600000Y-158150000D03*
X67600000Y-157050000D03*
X67600000Y-156050000D03*
X52800000Y-110450000D03*
X61775000Y-119125000D03*
X56225000Y-119125000D03*
X61775000Y-114275000D03*
X56225000Y-114275000D03*
X53550000Y-99150000D03*
X53150000Y-96300000D03*
X54350000Y-93650000D03*
X54350000Y-88900000D03*
X73750000Y-101250000D03*
X77502000Y-101854000D03*
X73950000Y-99200000D03*
X73950000Y-97550000D03*
X74954000Y-93980000D03*
X74954000Y-89154000D03*
X76746000Y-119126000D03*
X82296000Y-119126000D03*
X82296000Y-114276000D03*
X76746000Y-114276000D03*
D16*
X55963000Y-77700000D03*
X84800000Y-138650000D03*
X62550000Y-44750000D03*
X69145010Y-52400000D03*
X58000000Y-39700000D03*
X75700000Y-67680000D03*
X75700000Y-65140000D03*
X75700000Y-63870000D03*
X57300000Y-69800000D03*
X57300000Y-67800000D03*
X54200000Y-69800000D03*
X54200000Y-67800000D03*
D15*
X91450000Y-52360000D03*
X91450000Y-49820000D03*
X91450000Y-47280000D03*
D16*
X87500000Y-39900000D03*
X82250000Y-39900000D03*
X53300000Y-55200000D03*
X53200000Y-48400000D03*
X64650000Y-58000000D03*
X66250000Y-45900000D03*
X63300000Y-52600000D03*
X77600000Y-41188700D03*
X76950000Y-42700000D03*
X72550000Y-43050000D03*
X62050000Y-38400000D03*
X61300000Y-39350000D03*
X53149500Y-76200000D03*
X54950000Y-64950000D03*
D15*
X59900000Y-87300000D03*
X59900000Y-88900000D03*
X68100000Y-84200000D03*
X68100000Y-82000000D03*
D16*
X65024000Y-87798000D03*
X57300000Y-104150000D03*
X86400000Y-138650000D03*
X51250000Y-52800000D03*
X71717705Y-54775793D03*
X58000000Y-41200000D03*
X70800000Y-62600000D03*
X75700000Y-62600000D03*
X60050000Y-44800000D03*
D15*
X91450000Y-54900000D03*
X91450000Y-59980000D03*
X91450000Y-57440000D03*
D16*
X51800000Y-60000000D03*
X51800000Y-57700000D03*
X51550000Y-48750000D03*
X51800000Y-55200000D03*
X63150000Y-58000000D03*
X66250000Y-47400000D03*
X72550000Y-41550000D03*
X67000000Y-39850000D03*
X59804990Y-57716195D03*
X70200000Y-55755021D03*
X60132078Y-58440707D03*
X65100000Y-56350000D03*
X71150000Y-48050000D03*
X71700000Y-48600000D03*
X78971770Y-61065001D03*
X72750000Y-51800000D03*
X80350000Y-58800000D03*
X72929315Y-50770685D03*
X59804990Y-55850000D03*
X72850000Y-53000000D03*
X59804990Y-56630888D03*
X72500000Y-53800000D03*
X52950000Y-135100000D03*
X83200000Y-137250000D03*
X65750000Y-54150000D03*
X68700000Y-47550000D03*
X65816041Y-54675882D03*
X68260630Y-47980740D03*
X68605602Y-48863072D03*
X66250000Y-55150000D03*
X82650000Y-59650000D03*
X63350000Y-41750000D03*
X59650000Y-41200000D03*
X79650000Y-39750000D03*
X58650000Y-76550000D03*
X76121000Y-107551000D03*
X55600000Y-107550000D03*
X52850000Y-138200000D03*
X85090000Y-87798000D03*
X77850000Y-104200000D03*
X55450000Y-72800000D03*
X59100000Y-37850000D03*
X65400000Y-140750000D03*
X55400000Y-141750000D03*
D17*
X55000000Y-65282842D02*
X55000000Y-74349500D01*
X55000000Y-74349500D02*
X53149500Y-76200000D01*
X54950000Y-64950000D02*
X54950000Y-65232842D01*
X54950000Y-65232842D02*
X55000000Y-65282842D01*
X57300000Y-104150000D02*
X57300000Y-95522000D01*
X57300000Y-95522000D02*
X65024000Y-87798000D01*
X65694999Y-55915023D02*
X61606162Y-55915023D01*
X61606162Y-55915023D02*
X60004989Y-57516196D01*
X65844999Y-56065023D02*
X65694999Y-55915023D01*
X70200000Y-55755021D02*
X69889998Y-56065023D01*
X69889998Y-56065023D02*
X65844999Y-56065023D01*
X60004989Y-57516196D02*
X59804990Y-57716195D01*
X65100000Y-56350000D02*
X62222785Y-56350000D01*
X60332077Y-58240708D02*
X60132078Y-58440707D01*
X62222785Y-56350000D02*
X60332077Y-58240708D01*
X81550000Y-54900000D02*
X78600000Y-54900000D01*
X71750000Y-48050000D02*
X71432842Y-48050000D01*
X78600000Y-54900000D02*
X71750000Y-48050000D01*
X71432842Y-48050000D02*
X71150000Y-48050000D01*
X82150000Y-57400000D02*
X80500000Y-57400000D01*
X80500000Y-57400000D02*
X71700000Y-48600000D01*
X72750000Y-51800000D02*
X78771771Y-57821771D01*
X78771771Y-57821771D02*
X78771771Y-60865002D01*
X78771771Y-60865002D02*
X78971770Y-61065001D01*
X80350000Y-58517158D02*
X80350000Y-58800000D01*
X80350000Y-58191370D02*
X80350000Y-58517158D01*
X72929315Y-50770685D02*
X80350000Y-58191370D01*
X60004989Y-55650001D02*
X59804990Y-55850000D01*
X65910399Y-55395001D02*
X60259989Y-55395001D01*
X66489601Y-55545001D02*
X66060399Y-55545001D01*
X69034602Y-53000000D02*
X66489601Y-55545001D01*
X66060399Y-55545001D02*
X65910399Y-55395001D01*
X72850000Y-53000000D02*
X69034602Y-53000000D01*
X60259989Y-55395001D02*
X60004989Y-55650001D01*
X66597301Y-55805012D02*
X65952699Y-55805012D01*
X60780866Y-55655012D02*
X60004989Y-56430889D01*
X60004989Y-56430889D02*
X59804990Y-56630888D01*
X65952699Y-55805012D02*
X65802699Y-55655012D01*
X68602313Y-53800000D02*
X66597301Y-55805012D01*
X72500000Y-53800000D02*
X68602313Y-53800000D01*
X65802699Y-55655012D02*
X60780866Y-55655012D01*
X53149999Y-135299999D02*
X52950000Y-135100000D01*
X55100000Y-137250000D02*
X53149999Y-135299999D01*
X83200000Y-137250000D02*
X55100000Y-137250000D01*
X68700000Y-47550000D02*
X68700000Y-48100000D01*
X68700000Y-48100000D02*
X65750000Y-51050000D01*
X65750000Y-51050000D02*
X65750000Y-54150000D01*
X65533199Y-54675882D02*
X65816041Y-54675882D01*
X65304998Y-54447681D02*
X65533199Y-54675882D01*
X65304998Y-50936372D02*
X65304998Y-54447681D01*
X68260630Y-47980740D02*
X65304998Y-50936372D01*
X66250000Y-51218674D02*
X68405603Y-49063071D01*
X66250000Y-55150000D02*
X66250000Y-51218674D01*
X68405603Y-49063071D02*
X68605602Y-48863072D01*
X63632842Y-41750000D02*
X69460011Y-47577169D01*
X63350000Y-41750000D02*
X63632842Y-41750000D01*
X79154999Y-58754999D02*
X80050000Y-59650000D01*
X80050000Y-59650000D02*
X82367158Y-59650000D01*
X79154999Y-57554999D02*
X79154999Y-58754999D01*
X69460011Y-47860011D02*
X79154999Y-57554999D01*
X69460011Y-47577169D02*
X69460011Y-47860011D01*
X82367158Y-59650000D02*
X82650000Y-59650000D01*
X70100000Y-39750000D02*
X68650000Y-41200000D01*
X68650000Y-41200000D02*
X59650000Y-41200000D01*
X79650000Y-39750000D02*
X70100000Y-39750000D01*
X58650000Y-76550000D02*
X55600000Y-79600000D01*
X55600000Y-79600000D02*
X55600000Y-107550000D01*
X55600000Y-107550000D02*
X76120000Y-107550000D01*
X76120000Y-107550000D02*
X76121000Y-107551000D01*
X55350000Y-111200000D02*
X55350000Y-107800000D01*
X55350000Y-107800000D02*
X55600000Y-107550000D01*
X52000000Y-114550000D02*
X55350000Y-111200000D01*
X52000000Y-137067158D02*
X52000000Y-114550000D01*
X52850000Y-138200000D02*
X52850000Y-137917158D01*
X52850000Y-137917158D02*
X52000000Y-137067158D01*
X77850000Y-104200000D02*
X85090000Y-96960000D01*
X85090000Y-96960000D02*
X85090000Y-87798000D01*
X59100000Y-37850000D02*
X59000000Y-37950000D01*
X59000000Y-37950000D02*
X59000000Y-45600000D01*
X59000000Y-45600000D02*
X57450000Y-47150000D01*
X57450000Y-47150000D02*
X57450000Y-63600000D01*
X57450000Y-63600000D02*
X55450000Y-65600000D01*
X55450000Y-65600000D02*
X55450000Y-72800000D01*
X55400000Y-141750000D02*
X56400000Y-140750000D01*
X56400000Y-140750000D02*
X65400000Y-140750000D01*
M02*
