G04 #@! TF.FileFunction,Copper,L1,Top,Signal*
%FSLAX46Y46*%
G04 Gerber Fmt 4.6, Leading zero omitted, Abs format (unit mm)*
G04 Created by KiCad (PCBNEW 4.0.6) date 07/09/19 21:56:50*
%MOMM*%
%LPD*%
G01*
G04 APERTURE LIST*
%ADD10C,0.100000*%
%ADD11R,2.700000X3.600000*%
%ADD12R,0.750000X0.800000*%
%ADD13R,0.800000X0.750000*%
%ADD14R,0.800000X0.800000*%
%ADD15R,2.400000X0.740000*%
%ADD16R,0.500000X0.900000*%
%ADD17R,1.800000X1.800000*%
%ADD18R,0.500000X1.600000*%
%ADD19R,0.711200X0.254000*%
%ADD20R,0.254000X0.711200*%
%ADD21R,0.600000X0.300000*%
%ADD22R,0.300000X0.600000*%
%ADD23R,2.000000X2.000000*%
%ADD24R,0.304800X0.889000*%
%ADD25R,2.000000X0.600000*%
%ADD26R,1.400000X0.400000*%
%ADD27R,1.000000X3.000000*%
%ADD28R,0.900000X0.500000*%
%ADD29R,0.250000X0.700000*%
%ADD30R,2.200000X0.610000*%
%ADD31R,2.500000X1.000000*%
%ADD32R,0.400000X0.800000*%
%ADD33R,5.000000X3.200000*%
%ADD34R,1.800000X2.500000*%
%ADD35R,2.500000X1.800000*%
%ADD36C,2.500000*%
%ADD37C,3.500000*%
%ADD38R,3.150000X1.000000*%
%ADD39C,6.200000*%
%ADD40R,0.820000X0.410000*%
%ADD41R,3.700000X5.000000*%
%ADD42R,1.500000X1.000000*%
%ADD43R,1.800000X1.000000*%
%ADD44R,1.840000X2.200000*%
%ADD45R,0.450000X0.700000*%
%ADD46C,1.000000*%
%ADD47C,0.800000*%
%ADD48C,0.400000*%
%ADD49C,0.130000*%
%ADD50C,0.250000*%
%ADD51C,0.254000*%
G04 APERTURE END LIST*
D10*
D11*
X59350000Y-98750000D03*
X67650000Y-98750000D03*
D12*
X54550000Y-110450000D03*
X54550000Y-111950000D03*
X76200000Y-110550000D03*
X76200000Y-112050000D03*
D13*
X52700000Y-69800000D03*
X54200000Y-69800000D03*
X51800000Y-55200000D03*
X53300000Y-55200000D03*
X57300000Y-69800000D03*
X58800000Y-69800000D03*
D14*
X87600000Y-38300000D03*
X86000000Y-38300000D03*
X82250000Y-38300000D03*
X83850000Y-38300000D03*
D15*
X75700000Y-62600000D03*
X79600000Y-62600000D03*
X75700000Y-63870000D03*
X79600000Y-63870000D03*
X75700000Y-65140000D03*
X79600000Y-65140000D03*
X75700000Y-66410000D03*
X79600000Y-66410000D03*
X75700000Y-67680000D03*
X79600000Y-67680000D03*
D16*
X54500000Y-141300000D03*
X53000000Y-141300000D03*
X54200000Y-67800000D03*
X52700000Y-67800000D03*
X52700000Y-65900000D03*
X54200000Y-65900000D03*
X51800000Y-57700000D03*
X53300000Y-57700000D03*
X51800000Y-60000000D03*
X53300000Y-60000000D03*
X57300000Y-65900000D03*
X58800000Y-65900000D03*
X58800000Y-67800000D03*
X57300000Y-67800000D03*
X87500000Y-39900000D03*
X86000000Y-39900000D03*
X82250000Y-39900000D03*
X83750000Y-39900000D03*
D17*
X86300000Y-143450000D03*
X83300000Y-143450000D03*
D18*
X84800000Y-138650000D03*
X83200000Y-138650000D03*
X86400000Y-138650000D03*
D19*
X51777600Y-49909400D03*
X51777600Y-50392000D03*
X51777600Y-50900000D03*
X51777600Y-51408000D03*
X51777600Y-51890600D03*
D20*
X52692000Y-52322400D03*
X53200000Y-52322400D03*
X53708000Y-52322400D03*
D19*
X54622400Y-51890600D03*
X54622400Y-51408000D03*
X54622400Y-50900000D03*
X54622400Y-50392000D03*
X54622400Y-49909400D03*
D20*
X53708000Y-49477600D03*
X53200000Y-49477600D03*
X52692000Y-49477600D03*
D21*
X66700000Y-50600000D03*
X66700000Y-51100000D03*
X66700000Y-51600000D03*
X66700000Y-52100000D03*
X66700000Y-52600000D03*
X66700000Y-53100000D03*
X66700000Y-53600000D03*
X66700000Y-54100000D03*
D22*
X67300000Y-54700000D03*
X67800000Y-54700000D03*
X68300000Y-54700000D03*
X68800000Y-54700000D03*
X69300000Y-54700000D03*
X69800000Y-54700000D03*
X70300000Y-54700000D03*
X70800000Y-54700000D03*
D21*
X71400000Y-54100000D03*
X71400000Y-53600000D03*
X71400000Y-53100000D03*
X71400000Y-52600000D03*
X71400000Y-52100000D03*
X71400000Y-51600000D03*
X71400000Y-51100000D03*
X71400000Y-50600000D03*
D22*
X70800000Y-50000000D03*
X70300000Y-50000000D03*
X69800000Y-50000000D03*
X69300000Y-50000000D03*
X68800000Y-50000000D03*
X68300000Y-50000000D03*
X67800000Y-50000000D03*
X67300000Y-50000000D03*
D23*
X69100000Y-52400000D03*
D24*
X76100000Y-44211300D03*
X76600000Y-44211300D03*
X77100000Y-44211300D03*
X77600000Y-44211300D03*
X77600000Y-41188700D03*
X77100000Y-41188700D03*
X76600000Y-41188700D03*
X76100000Y-41188700D03*
D25*
X76950000Y-42700000D03*
D26*
X63300000Y-51400000D03*
X63300000Y-52600000D03*
X63300000Y-53800000D03*
D27*
X63000000Y-159600000D03*
X67600000Y-159600000D03*
D12*
X72550000Y-41550000D03*
X72550000Y-43050000D03*
D28*
X70800000Y-64100000D03*
X70800000Y-62600000D03*
D12*
X66250000Y-47400000D03*
X66250000Y-45900000D03*
X58000000Y-41200000D03*
X58000000Y-39700000D03*
D13*
X64650000Y-58000000D03*
X63150000Y-58000000D03*
D28*
X60050000Y-44800000D03*
X60050000Y-43300000D03*
D12*
X62550000Y-43250000D03*
X62550000Y-44750000D03*
D28*
X67000000Y-38350000D03*
X67000000Y-39850000D03*
D29*
X62050000Y-38400000D03*
X61550000Y-38400000D03*
X61050000Y-38400000D03*
X60550000Y-38400000D03*
X60550000Y-40250000D03*
X61050000Y-40250000D03*
X61550000Y-40250000D03*
X62050000Y-40250000D03*
D30*
X61300000Y-39350000D03*
D31*
X66650000Y-119200000D03*
X66650000Y-116200000D03*
X88000000Y-119400000D03*
X88000000Y-116400000D03*
X92250000Y-119350000D03*
X92250000Y-116350000D03*
X70300000Y-119200000D03*
X70300000Y-116200000D03*
D11*
X81750000Y-99900000D03*
X90050000Y-99900000D03*
D32*
X57200000Y-113400000D03*
X58000000Y-113400000D03*
X58800000Y-113400000D03*
X59600000Y-113400000D03*
X60400000Y-113400000D03*
X61200000Y-113400000D03*
X62000000Y-113400000D03*
X62000000Y-108800000D03*
X61200000Y-108800000D03*
X60400000Y-108800000D03*
X59600000Y-108800000D03*
X58800000Y-108800000D03*
X58000000Y-108800000D03*
X57200000Y-108800000D03*
D33*
X59600000Y-111100000D03*
D32*
X78700000Y-113450000D03*
X79500000Y-113450000D03*
X80300000Y-113450000D03*
X81100000Y-113450000D03*
X81900000Y-113450000D03*
X82700000Y-113450000D03*
X83500000Y-113450000D03*
X83500000Y-108850000D03*
X82700000Y-108850000D03*
X81900000Y-108850000D03*
X81100000Y-108850000D03*
X80300000Y-108850000D03*
X79500000Y-108850000D03*
X78700000Y-108850000D03*
D33*
X81100000Y-111150000D03*
D34*
X53350000Y-99600000D03*
X53350000Y-103600000D03*
X76400000Y-99900000D03*
X76400000Y-103900000D03*
X80350000Y-117550000D03*
X80350000Y-121550000D03*
X58800000Y-117950000D03*
X58800000Y-121950000D03*
D31*
X70250000Y-109550000D03*
X70250000Y-112550000D03*
X88150000Y-109700000D03*
X88150000Y-112700000D03*
X66550000Y-109650000D03*
X66550000Y-112650000D03*
X92450000Y-109600000D03*
X92450000Y-112600000D03*
D35*
X78100000Y-153550000D03*
X74100000Y-153550000D03*
D36*
X78150000Y-32550000D03*
X74950000Y-32550000D03*
X78150000Y-36600000D03*
X74950000Y-36600000D03*
D37*
X67600000Y-165400000D03*
X62600000Y-165400000D03*
X80650000Y-166800000D03*
X80650000Y-161800000D03*
X85300000Y-166800000D03*
X85300000Y-161800000D03*
D38*
X86400000Y-44740000D03*
X91450000Y-44740000D03*
X86400000Y-47280000D03*
X91450000Y-47280000D03*
X86400000Y-49820000D03*
X91450000Y-49820000D03*
X86400000Y-52360000D03*
X91450000Y-52360000D03*
X86400000Y-54900000D03*
X91450000Y-54900000D03*
X86400000Y-57440000D03*
X91450000Y-57440000D03*
X86400000Y-59980000D03*
X91450000Y-59980000D03*
X86400000Y-62520000D03*
X91450000Y-62520000D03*
X86400000Y-65060000D03*
X91450000Y-65060000D03*
X86400000Y-67600000D03*
X91450000Y-67600000D03*
D36*
X61900000Y-88050000D03*
X65100000Y-88050000D03*
X70000000Y-34450000D03*
X67000000Y-34450000D03*
X64000000Y-34450000D03*
X61000000Y-34450000D03*
D39*
X91500000Y-166500000D03*
X53500000Y-33500000D03*
X91500000Y-33500000D03*
X53500000Y-166500000D03*
D36*
X84750000Y-88800000D03*
X87950000Y-88800000D03*
D35*
X78100000Y-149750000D03*
X74100000Y-149750000D03*
D40*
X73650000Y-139650000D03*
X73650000Y-140920000D03*
X73650000Y-142190000D03*
X73650000Y-143460000D03*
D41*
X77150000Y-141650000D03*
D10*
G36*
X52241000Y-77300000D02*
X51391000Y-76700000D01*
X51391000Y-75700000D01*
X52241000Y-75100000D01*
X52241000Y-77300000D01*
X52241000Y-77300000D01*
G37*
D42*
X55963000Y-77700000D03*
D43*
X55816500Y-76200000D03*
D42*
X55963000Y-74700000D03*
D44*
X53149500Y-76200000D03*
D10*
G36*
X54059200Y-75100000D02*
X55059200Y-75800000D01*
X55059200Y-76600000D01*
X54059200Y-77300000D01*
X54059200Y-75100000D01*
X54059200Y-75100000D01*
G37*
D45*
X54600000Y-146100000D03*
X55900000Y-146100000D03*
X55250000Y-144100000D03*
D46*
X60250000Y-71350000D03*
X52700000Y-63950000D03*
X81550000Y-54900000D03*
X82150000Y-57400000D03*
X55500000Y-57700000D03*
X55400000Y-60000000D03*
X60200000Y-49400000D03*
X81550000Y-49800000D03*
X81550000Y-47300000D03*
X81600000Y-44750000D03*
X81550000Y-52350000D03*
D47*
X70750000Y-148650000D03*
X70800000Y-150450000D03*
X70800000Y-151950000D03*
X70800000Y-153750000D03*
X70800000Y-155500000D03*
X70800000Y-157500000D03*
X70800000Y-159150000D03*
X70800000Y-160850000D03*
X70800000Y-162550000D03*
X70800000Y-163900000D03*
X70800000Y-165400000D03*
X84650000Y-91150000D03*
X81950000Y-91150000D03*
X79850000Y-91150000D03*
X79850000Y-89150000D03*
X79850000Y-87250000D03*
X79850000Y-85900000D03*
X82200000Y-85900000D03*
X84750000Y-85900000D03*
X74350000Y-104850000D03*
X74350000Y-103300000D03*
X74350000Y-106500000D03*
X76400000Y-106500000D03*
X76400000Y-103900000D03*
X92450000Y-112600000D03*
X88150000Y-112700000D03*
X85400000Y-111900000D03*
X84550000Y-111100000D03*
X81100000Y-111150000D03*
X89350000Y-122200000D03*
X90650000Y-122200004D03*
X92250000Y-119350000D03*
X92250000Y-121000000D03*
X92250000Y-122200000D03*
X87950000Y-122200000D03*
X87950000Y-120900000D03*
X88000000Y-119400000D03*
X61900000Y-90350000D03*
X59700000Y-90350000D03*
X58000000Y-90350000D03*
X58000000Y-88900000D03*
X57950000Y-87300000D03*
X57950000Y-85650000D03*
X60050000Y-85700000D03*
X61900000Y-85700000D03*
X62900000Y-111400000D03*
X64100000Y-112150000D03*
X70250000Y-112550000D03*
X66550000Y-112650000D03*
X59600000Y-111100000D03*
X54800000Y-105450000D03*
X54800000Y-106750000D03*
X53350000Y-106750000D03*
X53350000Y-105400000D03*
X53350000Y-103600000D03*
X70300000Y-119200000D03*
X70300000Y-120300000D03*
X70300000Y-121200000D03*
X68850000Y-121200000D03*
X67800000Y-121200000D03*
X66650000Y-121150000D03*
X66650000Y-120200000D03*
X66650000Y-119200000D03*
D48*
X84800000Y-138650000D03*
X55900000Y-146100000D03*
X62550000Y-44750000D03*
X69145010Y-52400000D03*
X55963000Y-77700000D03*
X58000000Y-39700000D03*
X75700000Y-67680000D03*
X75700000Y-65140000D03*
X75700000Y-63870000D03*
X57300000Y-69800000D03*
X57300000Y-67800000D03*
X54200000Y-69800000D03*
X54200000Y-67800000D03*
D47*
X91450000Y-52360000D03*
X91450000Y-49820000D03*
X91450000Y-47280000D03*
D48*
X87500000Y-39900000D03*
X82250000Y-39900000D03*
X53300000Y-55200000D03*
X53200000Y-48400000D03*
X64650000Y-58000000D03*
X66250000Y-45900000D03*
X63300000Y-52600000D03*
X77600000Y-41188700D03*
X76950000Y-42700000D03*
X72550000Y-43050000D03*
X62050000Y-38400000D03*
X61300000Y-39350000D03*
X53149500Y-76200000D03*
X54950000Y-64950000D03*
X60650000Y-114400000D03*
X54950000Y-113100000D03*
D47*
X76200000Y-113550000D03*
X81750000Y-114600000D03*
X65100000Y-90250000D03*
X67600000Y-90250000D03*
X69600000Y-90250000D03*
X69600000Y-88750000D03*
X69600000Y-87150000D03*
X69600000Y-85750000D03*
X67650000Y-85750000D03*
X65100000Y-85750000D03*
X61900000Y-114450000D03*
X66550000Y-109650000D03*
D48*
X86400000Y-138650000D03*
X51250000Y-52800000D03*
X71717705Y-54775793D03*
X58000000Y-41200000D03*
X70800000Y-62600000D03*
X75700000Y-62600000D03*
X60050000Y-44800000D03*
D47*
X91450000Y-54900000D03*
X91450000Y-59980000D03*
X91450000Y-57440000D03*
D48*
X51800000Y-60000000D03*
X51800000Y-57700000D03*
X51550000Y-48750000D03*
X51800000Y-55200000D03*
X63150000Y-58000000D03*
X66250000Y-47400000D03*
X72550000Y-41550000D03*
X67000000Y-39850000D03*
X59804990Y-57716195D03*
X70200000Y-55755021D03*
X60132078Y-58440707D03*
X65100000Y-56350000D03*
X71150000Y-48050000D03*
X71700000Y-48600000D03*
X78971770Y-61065001D03*
X72750000Y-51800000D03*
X80350000Y-58800000D03*
X72929315Y-50770685D03*
X59804990Y-55850000D03*
X72850000Y-53000000D03*
X59804990Y-56630888D03*
X72500000Y-53800000D03*
X52950000Y-135100000D03*
X83200000Y-137250000D03*
X65750000Y-54150000D03*
X68700000Y-47550000D03*
X65816041Y-54675882D03*
X68260630Y-47980740D03*
X68605602Y-48863072D03*
X66250000Y-55150000D03*
X82650000Y-59650000D03*
X63350000Y-41750000D03*
X59650000Y-41200000D03*
X79650000Y-39750000D03*
X62100000Y-106350000D03*
X54600000Y-146100000D03*
D47*
X83100000Y-114650000D03*
X88150000Y-109700000D03*
D48*
X55450000Y-72800000D03*
X59100000Y-37850000D03*
X73650000Y-143460000D03*
X55250000Y-144100000D03*
D49*
X70800000Y-151950000D02*
X70800000Y-150450000D01*
X70800000Y-155500000D02*
X70800000Y-153750000D01*
X70800000Y-159150000D02*
X70800000Y-157500000D01*
X70800000Y-162550000D02*
X70800000Y-160850000D01*
X70800000Y-165400000D02*
X70800000Y-163900000D01*
X67600000Y-165400000D02*
X70800000Y-165400000D01*
X79850000Y-91150000D02*
X81950000Y-91150000D01*
X79850000Y-87250000D02*
X79850000Y-89150000D01*
X82200000Y-85900000D02*
X79850000Y-85900000D01*
X84750000Y-88800000D02*
X84750000Y-85900000D01*
X82700000Y-108850000D02*
X82700000Y-109380000D01*
X82700000Y-109380000D02*
X81100000Y-110980000D01*
X81100000Y-110980000D02*
X81100000Y-111150000D01*
X61200000Y-108800000D02*
X61200000Y-109330000D01*
X61200000Y-109330000D02*
X59600000Y-110930000D01*
X59600000Y-110930000D02*
X59600000Y-111100000D01*
X74350000Y-104850000D02*
X74350000Y-103300000D01*
X74350000Y-106500000D02*
X74350000Y-104850000D01*
X76400000Y-103900000D02*
X76400000Y-105280000D01*
X76400000Y-105280000D02*
X76400000Y-106500000D01*
X88150000Y-112700000D02*
X92350000Y-112700000D01*
X92350000Y-112700000D02*
X92450000Y-112600000D01*
X85400000Y-111900000D02*
X86200000Y-112700000D01*
X86200000Y-112700000D02*
X88150000Y-112700000D01*
X81100000Y-111150000D02*
X84500000Y-111150000D01*
X84500000Y-111150000D02*
X84550000Y-111100000D01*
X87950000Y-122200000D02*
X89350000Y-122200000D01*
X90650004Y-122200000D02*
X90650000Y-122200004D01*
X92250000Y-122200000D02*
X90650004Y-122200000D01*
X92250000Y-121000000D02*
X92250000Y-119350000D01*
X88000000Y-119400000D02*
X88000000Y-120850000D01*
X88000000Y-120850000D02*
X87950000Y-120900000D01*
X58000000Y-90350000D02*
X59700000Y-90350000D01*
X57950000Y-87300000D02*
X57950000Y-88850000D01*
X57950000Y-88850000D02*
X58000000Y-88900000D01*
X60050000Y-85700000D02*
X58000000Y-85700000D01*
X58000000Y-85700000D02*
X57950000Y-85650000D01*
X61900000Y-88050000D02*
X61900000Y-86282234D01*
X61900000Y-86282234D02*
X61900000Y-85700000D01*
X66550000Y-112650000D02*
X64600000Y-112650000D01*
X64600000Y-112650000D02*
X64100000Y-112150000D01*
X54800000Y-106750000D02*
X54800000Y-105450000D01*
X53350000Y-105400000D02*
X53350000Y-106750000D01*
X53350000Y-103600000D02*
X53350000Y-105400000D01*
X70300000Y-120300000D02*
X70300000Y-119200000D01*
X68850000Y-121200000D02*
X70300000Y-121200000D01*
X66650000Y-121150000D02*
X67750000Y-121150000D01*
X67750000Y-121150000D02*
X67800000Y-121200000D01*
X66650000Y-119200000D02*
X66650000Y-120200000D01*
X58000000Y-39700000D02*
X60950000Y-39700000D01*
X60950000Y-39700000D02*
X61300000Y-39350000D01*
X54200000Y-67800000D02*
X54200000Y-69800000D01*
X57300000Y-69800000D02*
X57300000Y-69295000D01*
X57300000Y-69295000D02*
X57300000Y-67800000D01*
X53708000Y-52322400D02*
X53708000Y-54792000D01*
X53708000Y-54792000D02*
X53300000Y-55200000D01*
X54622400Y-49909400D02*
X54622400Y-48922400D01*
X54622400Y-48922400D02*
X54100000Y-48400000D01*
X54100000Y-48400000D02*
X53200000Y-48400000D01*
X53708000Y-52322400D02*
X54190600Y-52322400D01*
X54190600Y-52322400D02*
X54622400Y-51890600D01*
X54622400Y-51408000D02*
X54622400Y-51890600D01*
X54622400Y-50900000D02*
X54622400Y-51408000D01*
X54622400Y-50392000D02*
X54622400Y-50900000D01*
X54622400Y-49909400D02*
X54622400Y-50392000D01*
X53200000Y-49477600D02*
X53200000Y-48400000D01*
X76950000Y-42700000D02*
X72900000Y-42700000D01*
X72900000Y-42700000D02*
X72550000Y-43050000D01*
D50*
X50800000Y-78729500D02*
X50800000Y-141350000D01*
X50800000Y-141350000D02*
X50800000Y-153600000D01*
D49*
X53000000Y-141300000D02*
X50850000Y-141300000D01*
X50850000Y-141300000D02*
X50800000Y-141350000D01*
D50*
X50800000Y-153600000D02*
X62600000Y-165400000D01*
X53149500Y-76200000D02*
X53149500Y-76380000D01*
X53149500Y-76380000D02*
X50800000Y-78729500D01*
D49*
X54559200Y-76200000D02*
X55816500Y-76200000D01*
X54200000Y-65900000D02*
X54200000Y-65700000D01*
X54200000Y-65700000D02*
X54950000Y-64950000D01*
X53149500Y-76200000D02*
X54559200Y-76200000D01*
X51816000Y-76200000D02*
X53149500Y-76200000D01*
X54550000Y-110450000D02*
X55750000Y-110450000D01*
X55750000Y-110450000D02*
X57200000Y-109000000D01*
X57200000Y-109000000D02*
X57200000Y-108800000D01*
X60650000Y-114400000D02*
X60367158Y-114400000D01*
X60367158Y-114400000D02*
X59600000Y-113632842D01*
X59600000Y-113632842D02*
X59600000Y-113400000D01*
X54550000Y-111950000D02*
X54550000Y-112700000D01*
X54550000Y-112700000D02*
X54950000Y-113100000D01*
X80300000Y-108850000D02*
X79500000Y-108850000D01*
X76200000Y-110550000D02*
X77200000Y-110550000D01*
X77200000Y-110550000D02*
X78700000Y-109050000D01*
X78700000Y-109050000D02*
X78700000Y-108850000D01*
X76200000Y-113550000D02*
X76200000Y-112050000D01*
X81100000Y-113450000D02*
X81100000Y-113650000D01*
X81100000Y-113650000D02*
X81750000Y-114300000D01*
X81750000Y-114300000D02*
X81750000Y-114600000D01*
X69600000Y-90250000D02*
X67600000Y-90250000D01*
X69600000Y-87150000D02*
X69600000Y-88750000D01*
X67650000Y-85750000D02*
X69600000Y-85750000D01*
X65100000Y-88050000D02*
X65100000Y-85750000D01*
X61900000Y-114450000D02*
X61900000Y-113500000D01*
X61900000Y-113500000D02*
X62000000Y-113400000D01*
X51777600Y-51890600D02*
X51777600Y-52272400D01*
X51777600Y-52272400D02*
X51250000Y-52800000D01*
X71400000Y-54100000D02*
X71400000Y-54458088D01*
X71517706Y-54575794D02*
X71717705Y-54775793D01*
X71400000Y-54458088D02*
X71517706Y-54575794D01*
X51777600Y-49909400D02*
X51777600Y-48977600D01*
X51777600Y-48977600D02*
X51550000Y-48750000D01*
X51777600Y-49909400D02*
X52260200Y-49909400D01*
X52260200Y-49909400D02*
X52692000Y-49477600D01*
X51777600Y-51890600D02*
X51777600Y-51408000D01*
X51777600Y-55177600D02*
X51800000Y-55200000D01*
X63150000Y-58000000D02*
X63150000Y-55720000D01*
X63150000Y-55720000D02*
X66270000Y-52600000D01*
X66270000Y-52600000D02*
X66700000Y-52600000D01*
X66700000Y-50600000D02*
X66700000Y-47850000D01*
X66700000Y-47850000D02*
X66250000Y-47400000D01*
X72550000Y-41550000D02*
X75738700Y-41550000D01*
X75738700Y-41550000D02*
X76100000Y-41188700D01*
X86400000Y-65060000D02*
X86400000Y-64430000D01*
X86400000Y-64430000D02*
X86400000Y-62520000D01*
X86400000Y-67600000D02*
X86400000Y-66970000D01*
X86400000Y-66970000D02*
X86400000Y-65060000D01*
X59604991Y-57916194D02*
X59804990Y-57716195D01*
X53571185Y-63950000D02*
X59604991Y-57916194D01*
X52700000Y-63950000D02*
X53571185Y-63950000D01*
X70000001Y-55555022D02*
X70200000Y-55755021D01*
X69800000Y-54700000D02*
X69800000Y-55355021D01*
X69800000Y-55355021D02*
X70000001Y-55555022D01*
X52700000Y-69800000D02*
X52700000Y-69295000D01*
X52700000Y-69295000D02*
X52700000Y-67800000D01*
X52700000Y-65900000D02*
X52700000Y-63950000D01*
X52700000Y-67800000D02*
X52700000Y-65900000D01*
X59932079Y-58640706D02*
X60132078Y-58440707D01*
X58800000Y-59772785D02*
X59932079Y-58640706D01*
X58800000Y-65900000D02*
X58800000Y-59772785D01*
X65100000Y-56350000D02*
X65100000Y-54165398D01*
X65100000Y-54165398D02*
X66165398Y-53100000D01*
X66165398Y-53100000D02*
X66270000Y-53100000D01*
X66270000Y-53100000D02*
X66700000Y-53100000D01*
X58800000Y-67800000D02*
X58800000Y-69800000D01*
X58800000Y-69800000D02*
X58825000Y-69800000D01*
X58825000Y-69800000D02*
X60250000Y-71225000D01*
X60250000Y-71225000D02*
X60250000Y-71350000D01*
X58800000Y-65900000D02*
X58800000Y-67800000D01*
X87600000Y-38300000D02*
X87600000Y-38830000D01*
X87600000Y-38830000D02*
X88750000Y-39980000D01*
X88750000Y-39980000D02*
X88750000Y-53625000D01*
X88750000Y-53625000D02*
X87475000Y-54900000D01*
X87475000Y-54900000D02*
X86400000Y-54900000D01*
X71150000Y-48050000D02*
X70320000Y-48050000D01*
X70320000Y-48050000D02*
X68800000Y-49570000D01*
X68800000Y-49570000D02*
X68800000Y-50000000D01*
X86400000Y-54900000D02*
X81550000Y-54900000D01*
X86000000Y-38300000D02*
X86000000Y-39900000D01*
X88800000Y-56115000D02*
X87475000Y-57440000D01*
X89010011Y-53732700D02*
X88800000Y-53942711D01*
X88800000Y-53942711D02*
X88800000Y-56115000D01*
X89010011Y-38559009D02*
X89010011Y-53732700D01*
X87951002Y-37500000D02*
X89010011Y-38559009D01*
X82520000Y-37500000D02*
X87951002Y-37500000D01*
X82250000Y-37770000D02*
X82520000Y-37500000D01*
X87475000Y-57440000D02*
X86400000Y-57440000D01*
X82250000Y-38300000D02*
X82250000Y-37770000D01*
X86400000Y-57440000D02*
X82190000Y-57440000D01*
X82190000Y-57440000D02*
X82150000Y-57400000D01*
X71700000Y-48600000D02*
X70270000Y-48600000D01*
X70270000Y-48600000D02*
X69300000Y-49570000D01*
X69300000Y-49570000D02*
X69300000Y-50000000D01*
X83850000Y-38300000D02*
X83850000Y-39800000D01*
X83850000Y-39800000D02*
X83750000Y-39900000D01*
X78150000Y-36600000D02*
X78150000Y-38367766D01*
X78150000Y-38367766D02*
X77100000Y-39417766D01*
X77100000Y-39417766D02*
X77100000Y-40614200D01*
X77100000Y-40614200D02*
X77100000Y-41188700D01*
X78150000Y-32550000D02*
X78150000Y-34317766D01*
X78150000Y-34317766D02*
X78150000Y-36600000D01*
X74950000Y-36600000D02*
X74950000Y-38367766D01*
X74950000Y-38367766D02*
X76600000Y-40017766D01*
X76600000Y-40017766D02*
X76600000Y-40614200D01*
X76600000Y-40614200D02*
X76600000Y-41188700D01*
X74950000Y-32550000D02*
X74950000Y-36600000D01*
X79171769Y-61265000D02*
X78971770Y-61065001D01*
X79600000Y-62600000D02*
X79600000Y-61693231D01*
X79600000Y-61693231D02*
X79171769Y-61265000D01*
X72750000Y-51800000D02*
X72050000Y-51100000D01*
X72050000Y-51100000D02*
X71400000Y-51100000D01*
X80549999Y-58999999D02*
X80350000Y-58800000D01*
X81350000Y-59800000D02*
X80549999Y-58999999D01*
X80430000Y-63870000D02*
X81350000Y-62950000D01*
X81350000Y-62950000D02*
X81350000Y-59800000D01*
X79600000Y-63870000D02*
X80430000Y-63870000D01*
X71400000Y-50600000D02*
X72758630Y-50600000D01*
X72758630Y-50600000D02*
X72929315Y-50770685D01*
X70800000Y-64100000D02*
X70800000Y-65350000D01*
X70800000Y-65350000D02*
X74200000Y-68750000D01*
X74200000Y-68750000D02*
X77200000Y-68750000D01*
X77200000Y-68750000D02*
X78270000Y-67680000D01*
X78270000Y-67680000D02*
X79600000Y-67680000D01*
X70800000Y-64100000D02*
X68123998Y-64100000D01*
X68123998Y-64100000D02*
X62554999Y-58531001D01*
X62554999Y-58531001D02*
X62554999Y-55815001D01*
X62554999Y-55815001D02*
X66270000Y-52100000D01*
X66270000Y-52100000D02*
X66700000Y-52100000D01*
X70539602Y-56000023D02*
X70389602Y-56150023D01*
X81600000Y-45457106D02*
X71057083Y-56000023D01*
X71057083Y-56000023D02*
X70539602Y-56000023D01*
X70010398Y-56150023D02*
X69300000Y-55439625D01*
X69300000Y-55130000D02*
X69300000Y-54700000D01*
X81600000Y-44750000D02*
X81600000Y-45457106D01*
X70389602Y-56150023D02*
X70010398Y-56150023D01*
X69300000Y-55439625D02*
X69300000Y-55130000D01*
X86400000Y-44740000D02*
X81610000Y-44740000D01*
X81610000Y-44740000D02*
X81600000Y-44750000D01*
X81550000Y-47300000D02*
X72589966Y-56260034D01*
X68800000Y-55307336D02*
X68800000Y-55130000D01*
X70647302Y-56260034D02*
X70497302Y-56410034D01*
X70497302Y-56410034D02*
X69902698Y-56410034D01*
X72589966Y-56260034D02*
X70647302Y-56260034D01*
X68800000Y-55130000D02*
X68800000Y-54700000D01*
X69902698Y-56410034D02*
X68800000Y-55307336D01*
X86400000Y-47280000D02*
X81570000Y-47280000D01*
X81570000Y-47280000D02*
X81550000Y-47300000D01*
X74829955Y-56520045D02*
X70755002Y-56520045D01*
X68300000Y-55130000D02*
X68300000Y-54700000D01*
X68300000Y-55175047D02*
X68300000Y-55130000D01*
X70605002Y-56670045D02*
X69794998Y-56670045D01*
X81550000Y-49800000D02*
X74829955Y-56520045D01*
X69794998Y-56670045D02*
X68300000Y-55175047D01*
X70755002Y-56520045D02*
X70605002Y-56670045D01*
X86400000Y-49820000D02*
X81570000Y-49820000D01*
X81570000Y-49820000D02*
X81550000Y-49800000D01*
X70862702Y-56780056D02*
X77119944Y-56780056D01*
X77119944Y-56780056D02*
X81050001Y-52849999D01*
X70712702Y-56930056D02*
X70862702Y-56780056D01*
X69600056Y-56930056D02*
X70712702Y-56930056D01*
X67800000Y-55130000D02*
X69600056Y-56930056D01*
X81050001Y-52849999D02*
X81550000Y-52350000D01*
X67800000Y-54700000D02*
X67800000Y-55130000D01*
X86400000Y-52360000D02*
X81560000Y-52360000D01*
X81560000Y-52360000D02*
X81550000Y-52350000D01*
X55500000Y-57700000D02*
X57954990Y-57700000D01*
X59604991Y-56049999D02*
X59804990Y-55850000D01*
X57954990Y-57700000D02*
X59604991Y-56049999D01*
X72450000Y-52600000D02*
X72650001Y-52800001D01*
X71400000Y-52600000D02*
X72450000Y-52600000D01*
X72650001Y-52800001D02*
X72850000Y-53000000D01*
X51777600Y-50900000D02*
X51292000Y-50900000D01*
X51292000Y-50900000D02*
X50600000Y-51592000D01*
X50600000Y-51592000D02*
X50600000Y-55450000D01*
X50600000Y-55450000D02*
X51400000Y-56250000D01*
X51400000Y-56250000D02*
X52430000Y-56250000D01*
X52430000Y-56250000D02*
X53300000Y-57120000D01*
X53300000Y-57120000D02*
X53300000Y-57700000D01*
X55500000Y-57700000D02*
X54792894Y-57700000D01*
X54792894Y-57700000D02*
X53300000Y-57700000D01*
X59604991Y-56830887D02*
X59804990Y-56630888D01*
X56435878Y-60000000D02*
X59604991Y-56830887D01*
X55400000Y-60000000D02*
X56435878Y-60000000D01*
X72500000Y-53770000D02*
X72500000Y-53800000D01*
X71400000Y-53100000D02*
X71830000Y-53100000D01*
X71830000Y-53100000D02*
X72500000Y-53770000D01*
X52920000Y-60000000D02*
X53300000Y-60000000D01*
X51204999Y-58284999D02*
X52920000Y-60000000D01*
X51204999Y-56422710D02*
X51204999Y-58284999D01*
X50339989Y-55557700D02*
X51204999Y-56422710D01*
X51777600Y-50392000D02*
X51292000Y-50392000D01*
X50339989Y-51344011D02*
X50339989Y-55557700D01*
X51292000Y-50392000D02*
X50339989Y-51344011D01*
X55400000Y-60000000D02*
X53300000Y-60000000D01*
X57300000Y-65900000D02*
X57300000Y-66480000D01*
X57300000Y-66480000D02*
X56100000Y-67680000D01*
X56100000Y-70700000D02*
X57300000Y-71900000D01*
X56100000Y-67680000D02*
X56100000Y-70700000D01*
X57300000Y-71900000D02*
X57300000Y-81250000D01*
X57300000Y-81250000D02*
X51250000Y-87300000D01*
X51250000Y-87300000D02*
X51250000Y-133400000D01*
X51250000Y-133400000D02*
X52750001Y-134900001D01*
X52750001Y-134900001D02*
X52950000Y-135100000D01*
X83200000Y-138650000D02*
X83200000Y-137250000D01*
X63300000Y-51400000D02*
X64130000Y-51400000D01*
X64130000Y-51400000D02*
X64430000Y-51100000D01*
X64430000Y-51100000D02*
X66270000Y-51100000D01*
X66270000Y-51100000D02*
X66700000Y-51100000D01*
X63300000Y-53800000D02*
X63800000Y-53800000D01*
X63800000Y-53800000D02*
X66000000Y-51600000D01*
X66000000Y-51600000D02*
X66270000Y-51600000D01*
X66270000Y-51600000D02*
X66700000Y-51600000D01*
X77100000Y-44211300D02*
X76600000Y-44211300D01*
X65750000Y-54150000D02*
X66300000Y-53600000D01*
X66300000Y-53600000D02*
X66700000Y-53600000D01*
X72751602Y-44950000D02*
X71300000Y-44950000D01*
X71300000Y-44950000D02*
X68700000Y-47550000D01*
X72850801Y-44850801D02*
X72751602Y-44950000D01*
X76534999Y-44850801D02*
X72850801Y-44850801D01*
X76600000Y-44211300D02*
X76600000Y-44785800D01*
X76600000Y-44785800D02*
X76534999Y-44850801D01*
X65974118Y-54675882D02*
X65816041Y-54675882D01*
X66700000Y-54100000D02*
X66550000Y-54100000D01*
X66550000Y-54100000D02*
X65974118Y-54675882D01*
X77600000Y-44211300D02*
X77600000Y-44785800D01*
X77225789Y-45160011D02*
X72909302Y-45160011D01*
X72909302Y-45160011D02*
X72609302Y-45460011D01*
X72609302Y-45460011D02*
X71603602Y-45460011D01*
X69082873Y-47980740D02*
X68543472Y-47980740D01*
X68543472Y-47980740D02*
X68260630Y-47980740D01*
X71603602Y-45460011D02*
X69082873Y-47980740D01*
X77600000Y-44785800D02*
X77225789Y-45160011D01*
X68322760Y-48863072D02*
X68605602Y-48863072D01*
X67865629Y-48405941D02*
X68322760Y-48863072D01*
X67865629Y-47799767D02*
X67865629Y-48405941D01*
X71454096Y-44211300D02*
X67865629Y-47799767D01*
X76100000Y-44211300D02*
X71454096Y-44211300D01*
X66700000Y-54700000D02*
X66250000Y-55150000D01*
X67300000Y-54700000D02*
X66700000Y-54700000D01*
X86400000Y-59980000D02*
X82980000Y-59980000D01*
X82980000Y-59980000D02*
X82849999Y-59849999D01*
X82849999Y-59849999D02*
X82650000Y-59650000D01*
X63350000Y-41750000D02*
X62050000Y-40450000D01*
X62050000Y-40450000D02*
X62050000Y-40250000D01*
X91450000Y-44740000D02*
X91450000Y-44110000D01*
X91450000Y-44110000D02*
X89590000Y-42250000D01*
X89590000Y-42250000D02*
X89590000Y-38540000D01*
X89590000Y-38540000D02*
X88250000Y-37200000D01*
X88250000Y-37200000D02*
X81600000Y-37200000D01*
X81600000Y-37200000D02*
X79849999Y-38950001D01*
X79849999Y-38950001D02*
X79849999Y-39550001D01*
X79849999Y-39550001D02*
X79650000Y-39750000D01*
X59650000Y-41200000D02*
X60550000Y-40300000D01*
X60550000Y-40300000D02*
X60550000Y-40250000D01*
X60550000Y-40250000D02*
X60550000Y-42800000D01*
X60550000Y-42800000D02*
X60630000Y-42880000D01*
X60630000Y-42880000D02*
X60630000Y-42920000D01*
X60630000Y-42920000D02*
X60250000Y-43300000D01*
X60250000Y-43300000D02*
X60050000Y-43300000D01*
X62000000Y-108800000D02*
X62000000Y-106450000D01*
X62000000Y-106450000D02*
X62100000Y-106350000D01*
X63500000Y-81700000D02*
X63500000Y-104950000D01*
X62299999Y-106150001D02*
X62100000Y-106350000D01*
X63500000Y-104950000D02*
X62299999Y-106150001D01*
X83500000Y-108850000D02*
X83500000Y-108650000D01*
X83500000Y-108650000D02*
X86350000Y-105800000D01*
X86350000Y-105800000D02*
X86350000Y-84100000D01*
X86350000Y-84100000D02*
X65900000Y-84100000D01*
X65900000Y-84100000D02*
X63500000Y-81700000D01*
X63500000Y-81700000D02*
X63500000Y-61250000D01*
X61550000Y-40250000D02*
X61550000Y-40730000D01*
X61550000Y-40730000D02*
X63120001Y-42300001D01*
X63120001Y-42300001D02*
X63120001Y-46479999D01*
X63120001Y-46479999D02*
X60699999Y-48900001D01*
X60699999Y-48900001D02*
X60200000Y-49400000D01*
X63500000Y-61250000D02*
X60200000Y-57950000D01*
X60200000Y-57950000D02*
X60200000Y-49400000D01*
X61050000Y-40250000D02*
X61050000Y-42255000D01*
X61050000Y-42255000D02*
X62045000Y-43250000D01*
X62045000Y-43250000D02*
X62550000Y-43250000D01*
X67000000Y-34450000D02*
X67000000Y-36217766D01*
X67000000Y-36217766D02*
X67000000Y-38350000D01*
X61000000Y-34450000D02*
X61000000Y-38350000D01*
X61000000Y-38350000D02*
X61050000Y-38400000D01*
X61050000Y-34500000D02*
X61000000Y-34450000D01*
X83100000Y-114650000D02*
X83499999Y-114250001D01*
X83499999Y-114250001D02*
X83500000Y-113980000D01*
X83500000Y-113980000D02*
X83500000Y-113450000D01*
X55450000Y-72800000D02*
X55450000Y-74187000D01*
X55450000Y-74187000D02*
X55963000Y-74700000D01*
X60550000Y-38400000D02*
X59650000Y-38400000D01*
X59650000Y-38400000D02*
X59100000Y-37850000D01*
X54500000Y-141300000D02*
X54500000Y-143705000D01*
X54500000Y-143705000D02*
X54895000Y-144100000D01*
X54895000Y-144100000D02*
X55250000Y-144100000D01*
D51*
G36*
X82623000Y-135824219D02*
X74300046Y-135821217D01*
X74250632Y-135831205D01*
X74208997Y-135859631D01*
X74181702Y-135902015D01*
X74173000Y-135948217D01*
X74173000Y-142473000D01*
X71950000Y-142473000D01*
X71900590Y-142483006D01*
X71858965Y-142511447D01*
X71831685Y-142553841D01*
X71823000Y-142600000D01*
X71823001Y-146921061D01*
X64400064Y-146917304D01*
X64350649Y-146927285D01*
X64309010Y-146955705D01*
X64281709Y-146998085D01*
X64273000Y-147044304D01*
X64273000Y-169290000D01*
X57626384Y-169290000D01*
X57577129Y-120577000D01*
X60923000Y-120577000D01*
X60923000Y-130950000D01*
X60933006Y-130999410D01*
X60961447Y-131041035D01*
X61003841Y-131068315D01*
X61050000Y-131077000D01*
X78550000Y-131077000D01*
X78599410Y-131066994D01*
X78641035Y-131038553D01*
X78668315Y-130996159D01*
X78677000Y-130950000D01*
X78677000Y-120227000D01*
X82623000Y-120227000D01*
X82623000Y-135824219D01*
X82623000Y-135824219D01*
G37*
X82623000Y-135824219D02*
X74300046Y-135821217D01*
X74250632Y-135831205D01*
X74208997Y-135859631D01*
X74181702Y-135902015D01*
X74173000Y-135948217D01*
X74173000Y-142473000D01*
X71950000Y-142473000D01*
X71900590Y-142483006D01*
X71858965Y-142511447D01*
X71831685Y-142553841D01*
X71823000Y-142600000D01*
X71823001Y-146921061D01*
X64400064Y-146917304D01*
X64350649Y-146927285D01*
X64309010Y-146955705D01*
X64281709Y-146998085D01*
X64273000Y-147044304D01*
X64273000Y-169290000D01*
X57626384Y-169290000D01*
X57577129Y-120577000D01*
X60923000Y-120577000D01*
X60923000Y-130950000D01*
X60933006Y-130999410D01*
X60961447Y-131041035D01*
X61003841Y-131068315D01*
X61050000Y-131077000D01*
X78550000Y-131077000D01*
X78599410Y-131066994D01*
X78641035Y-131038553D01*
X78668315Y-130996159D01*
X78677000Y-130950000D01*
X78677000Y-120227000D01*
X82623000Y-120227000D01*
X82623000Y-135824219D01*
G36*
X90273000Y-162974367D02*
X89391582Y-163338561D01*
X88956384Y-163773000D01*
X76827000Y-163773000D01*
X76827000Y-148177000D01*
X85250000Y-148177000D01*
X85299410Y-148166994D01*
X85341035Y-148138553D01*
X85368315Y-148096159D01*
X85377000Y-148050000D01*
X85377000Y-142477000D01*
X90273000Y-142477000D01*
X90273000Y-162974367D01*
X90273000Y-162974367D01*
G37*
X90273000Y-162974367D02*
X89391582Y-163338561D01*
X88956384Y-163773000D01*
X76827000Y-163773000D01*
X76827000Y-148177000D01*
X85250000Y-148177000D01*
X85299410Y-148166994D01*
X85341035Y-148138553D01*
X85368315Y-148096159D01*
X85377000Y-148050000D01*
X85377000Y-142477000D01*
X90273000Y-142477000D01*
X90273000Y-162974367D01*
G36*
X75373000Y-164800000D02*
X75383006Y-164849410D01*
X75411447Y-164891035D01*
X75453841Y-164918315D01*
X75500000Y-164927000D01*
X87273000Y-164927000D01*
X87273000Y-169290000D01*
X65827000Y-169290000D01*
X65827000Y-148177000D01*
X75373000Y-148177000D01*
X75373000Y-164800000D01*
X75373000Y-164800000D01*
G37*
X75373000Y-164800000D02*
X75383006Y-164849410D01*
X75411447Y-164891035D01*
X75453841Y-164918315D01*
X75500000Y-164927000D01*
X87273000Y-164927000D01*
X87273000Y-169290000D01*
X65827000Y-169290000D01*
X65827000Y-148177000D01*
X75373000Y-148177000D01*
X75373000Y-164800000D01*
G36*
X81073000Y-140650000D02*
X81083006Y-140699410D01*
X81108867Y-140738452D01*
X82758867Y-142438452D01*
X82800460Y-142466939D01*
X82850000Y-142477000D01*
X84223000Y-142477000D01*
X84223000Y-147323000D01*
X75427000Y-147323000D01*
X75427000Y-139027000D01*
X81073000Y-139027000D01*
X81073000Y-140650000D01*
X81073000Y-140650000D01*
G37*
X81073000Y-140650000D02*
X81083006Y-140699410D01*
X81108867Y-140738452D01*
X82758867Y-142438452D01*
X82800460Y-142466939D01*
X82850000Y-142477000D01*
X84223000Y-142477000D01*
X84223000Y-147323000D01*
X75427000Y-147323000D01*
X75427000Y-139027000D01*
X81073000Y-139027000D01*
X81073000Y-140650000D01*
G36*
X72073000Y-122073000D02*
X65027000Y-122073000D01*
X65027000Y-118827000D01*
X72073000Y-118827000D01*
X72073000Y-122073000D01*
X72073000Y-122073000D01*
G37*
X72073000Y-122073000D02*
X65027000Y-122073000D01*
X65027000Y-118827000D01*
X72073000Y-118827000D01*
X72073000Y-122073000D01*
G36*
X58873000Y-114100000D02*
X58883006Y-114149410D01*
X58910197Y-114189803D01*
X59810197Y-115089803D01*
X59852211Y-115117666D01*
X59900000Y-115127000D01*
X61634647Y-115127000D01*
X61754756Y-115176874D01*
X62043975Y-115177126D01*
X62165289Y-115127000D01*
X71423000Y-115127000D01*
X71423000Y-116773000D01*
X62450000Y-116773000D01*
X62400590Y-116783006D01*
X62360197Y-116810197D01*
X59897394Y-119273000D01*
X57577000Y-119273000D01*
X57577000Y-114202606D01*
X57889803Y-113889803D01*
X57917666Y-113847789D01*
X57927000Y-113800000D01*
X57927000Y-113127000D01*
X58873000Y-113127000D01*
X58873000Y-114100000D01*
X58873000Y-114100000D01*
G37*
X58873000Y-114100000D02*
X58883006Y-114149410D01*
X58910197Y-114189803D01*
X59810197Y-115089803D01*
X59852211Y-115117666D01*
X59900000Y-115127000D01*
X61634647Y-115127000D01*
X61754756Y-115176874D01*
X62043975Y-115177126D01*
X62165289Y-115127000D01*
X71423000Y-115127000D01*
X71423000Y-116773000D01*
X62450000Y-116773000D01*
X62400590Y-116783006D01*
X62360197Y-116810197D01*
X59897394Y-119273000D01*
X57577000Y-119273000D01*
X57577000Y-114202606D01*
X57889803Y-113889803D01*
X57917666Y-113847789D01*
X57927000Y-113800000D01*
X57927000Y-113127000D01*
X58873000Y-113127000D01*
X58873000Y-114100000D01*
G36*
X64110197Y-111639803D02*
X64152211Y-111667666D01*
X64200000Y-111677000D01*
X71573000Y-111677000D01*
X71573000Y-113123000D01*
X64202606Y-113123000D01*
X63689803Y-112610197D01*
X63647789Y-112582334D01*
X63600000Y-112573000D01*
X57227000Y-112573000D01*
X57227000Y-109627000D01*
X62097394Y-109627000D01*
X64110197Y-111639803D01*
X64110197Y-111639803D01*
G37*
X64110197Y-111639803D02*
X64152211Y-111667666D01*
X64200000Y-111677000D01*
X71573000Y-111677000D01*
X71573000Y-113123000D01*
X64202606Y-113123000D01*
X63689803Y-112610197D01*
X63647789Y-112582334D01*
X63600000Y-112573000D01*
X57227000Y-112573000D01*
X57227000Y-109627000D01*
X62097394Y-109627000D01*
X64110197Y-111639803D01*
G36*
X60773000Y-106397394D02*
X58910197Y-108260197D01*
X58882334Y-108302211D01*
X58873000Y-108350000D01*
X58873000Y-109073000D01*
X57127000Y-109073000D01*
X57127000Y-103350000D01*
X57116994Y-103300590D01*
X57089803Y-103260197D01*
X54789803Y-100960197D01*
X54747789Y-100932334D01*
X54700000Y-100923000D01*
X52377000Y-100923000D01*
X52377000Y-98202606D01*
X53702606Y-96877000D01*
X60773000Y-96877000D01*
X60773000Y-106397394D01*
X60773000Y-106397394D01*
G37*
X60773000Y-106397394D02*
X58910197Y-108260197D01*
X58882334Y-108302211D01*
X58873000Y-108350000D01*
X58873000Y-109073000D01*
X57127000Y-109073000D01*
X57127000Y-103350000D01*
X57116994Y-103300590D01*
X57089803Y-103260197D01*
X54789803Y-100960197D01*
X54747789Y-100932334D01*
X54700000Y-100923000D01*
X52377000Y-100923000D01*
X52377000Y-98202606D01*
X53702606Y-96877000D01*
X60773000Y-96877000D01*
X60773000Y-106397394D01*
G36*
X55773000Y-103802606D02*
X55773000Y-107423000D01*
X52527000Y-107423000D01*
X52527000Y-102477000D01*
X54447394Y-102477000D01*
X55773000Y-103802606D01*
X55773000Y-103802606D01*
G37*
X55773000Y-103802606D02*
X55773000Y-107423000D01*
X52527000Y-107423000D01*
X52527000Y-102477000D01*
X54447394Y-102477000D01*
X55773000Y-103802606D01*
G36*
X71673000Y-110473000D02*
X65152606Y-110473000D01*
X63977000Y-109297394D01*
X63977000Y-105462950D01*
X63994975Y-105444975D01*
X64146716Y-105217879D01*
X64200001Y-104950000D01*
X64200000Y-104949995D01*
X64200000Y-85127000D01*
X71673000Y-85127000D01*
X71673000Y-110473000D01*
X71673000Y-110473000D01*
G37*
X71673000Y-110473000D02*
X65152606Y-110473000D01*
X63977000Y-109297394D01*
X63977000Y-105462950D01*
X63994975Y-105444975D01*
X64146716Y-105217879D01*
X64200001Y-104950000D01*
X64200000Y-104949995D01*
X64200000Y-85127000D01*
X71673000Y-85127000D01*
X71673000Y-110473000D01*
G36*
X62800000Y-91173000D02*
X57027000Y-91173000D01*
X57027000Y-85127000D01*
X62800000Y-85127000D01*
X62800000Y-91173000D01*
X62800000Y-91173000D01*
G37*
X62800000Y-91173000D02*
X57027000Y-91173000D01*
X57027000Y-85127000D01*
X62800000Y-85127000D01*
X62800000Y-91173000D01*
G36*
X93923000Y-122973000D02*
X86277000Y-122973000D01*
X86277000Y-118827000D01*
X93923000Y-118827000D01*
X93923000Y-122973000D01*
X93923000Y-122973000D01*
G37*
X93923000Y-122973000D02*
X86277000Y-122973000D01*
X86277000Y-118827000D01*
X93923000Y-118827000D01*
X93923000Y-122973000D01*
G36*
X80373000Y-114400000D02*
X80383006Y-114449410D01*
X80410197Y-114489803D01*
X81260197Y-115339803D01*
X81302211Y-115367666D01*
X81350000Y-115377000D01*
X83099365Y-115377000D01*
X83243975Y-115377126D01*
X83244280Y-115377000D01*
X93923000Y-115377000D01*
X93923000Y-117323000D01*
X83700000Y-117323000D01*
X83650590Y-117333006D01*
X83610197Y-117360197D01*
X82097394Y-118873000D01*
X79027000Y-118873000D01*
X79027000Y-114863500D01*
X79376200Y-114601600D01*
X79409725Y-114563949D01*
X79427000Y-114500000D01*
X79427000Y-113177000D01*
X80373000Y-113177000D01*
X80373000Y-114400000D01*
X80373000Y-114400000D01*
G37*
X80373000Y-114400000D02*
X80383006Y-114449410D01*
X80410197Y-114489803D01*
X81260197Y-115339803D01*
X81302211Y-115367666D01*
X81350000Y-115377000D01*
X83099365Y-115377000D01*
X83243975Y-115377126D01*
X83244280Y-115377000D01*
X93923000Y-115377000D01*
X93923000Y-117323000D01*
X83700000Y-117323000D01*
X83650590Y-117333006D01*
X83610197Y-117360197D01*
X82097394Y-118873000D01*
X79027000Y-118873000D01*
X79027000Y-114863500D01*
X79376200Y-114601600D01*
X79409725Y-114563949D01*
X79427000Y-114500000D01*
X79427000Y-113177000D01*
X80373000Y-113177000D01*
X80373000Y-114400000D01*
G36*
X83023000Y-105447394D02*
X80410197Y-108060197D01*
X80382334Y-108102211D01*
X80373000Y-108150000D01*
X80373000Y-109123000D01*
X78627000Y-109123000D01*
X78627000Y-101100000D01*
X78616994Y-101050590D01*
X78588553Y-101008965D01*
X78546159Y-100981685D01*
X78500000Y-100973000D01*
X75127000Y-100973000D01*
X75127000Y-97977000D01*
X83023000Y-97977000D01*
X83023000Y-105447394D01*
X83023000Y-105447394D01*
G37*
X83023000Y-105447394D02*
X80410197Y-108060197D01*
X80382334Y-108102211D01*
X80373000Y-108150000D01*
X80373000Y-109123000D01*
X78627000Y-109123000D01*
X78627000Y-101100000D01*
X78616994Y-101050590D01*
X78588553Y-101008965D01*
X78546159Y-100981685D01*
X78500000Y-100973000D01*
X75127000Y-100973000D01*
X75127000Y-97977000D01*
X83023000Y-97977000D01*
X83023000Y-105447394D01*
G36*
X77173000Y-107423000D02*
X73377000Y-107423000D01*
X73377000Y-102777000D01*
X77173000Y-102777000D01*
X77173000Y-107423000D01*
X77173000Y-107423000D01*
G37*
X77173000Y-107423000D02*
X73377000Y-107423000D01*
X73377000Y-102777000D01*
X77173000Y-102777000D01*
X77173000Y-107423000D01*
G36*
X93673000Y-110073000D02*
X86777000Y-110073000D01*
X86777000Y-106362950D01*
X86844975Y-106294975D01*
X86996716Y-106067879D01*
X87050001Y-105800000D01*
X87050000Y-105799995D01*
X87050000Y-86729606D01*
X89389803Y-84389803D01*
X89417666Y-84347789D01*
X89427000Y-84300000D01*
X89427000Y-61977000D01*
X93673000Y-61977000D01*
X93673000Y-110073000D01*
X93673000Y-110073000D01*
G37*
X93673000Y-110073000D02*
X86777000Y-110073000D01*
X86777000Y-106362950D01*
X86844975Y-106294975D01*
X86996716Y-106067879D01*
X87050001Y-105800000D01*
X87050000Y-105799995D01*
X87050000Y-86729606D01*
X89389803Y-84389803D01*
X89417666Y-84347789D01*
X89427000Y-84300000D01*
X89427000Y-61977000D01*
X93673000Y-61977000D01*
X93673000Y-110073000D01*
G36*
X85650000Y-92023000D02*
X78977000Y-92023000D01*
X78977000Y-85127000D01*
X85650000Y-85127000D01*
X85650000Y-92023000D01*
X85650000Y-92023000D01*
G37*
X85650000Y-92023000D02*
X78977000Y-92023000D01*
X78977000Y-85127000D01*
X85650000Y-85127000D01*
X85650000Y-92023000D01*
G36*
X86460197Y-111739803D02*
X86502211Y-111767666D01*
X86550000Y-111777000D01*
X94023000Y-111777000D01*
X94023000Y-113073000D01*
X85702606Y-113073000D01*
X85289803Y-112660197D01*
X85247789Y-112632334D01*
X85200000Y-112623000D01*
X78727000Y-112623000D01*
X78727000Y-109677000D01*
X84397394Y-109677000D01*
X86460197Y-111739803D01*
X86460197Y-111739803D01*
G37*
X86460197Y-111739803D02*
X86502211Y-111767666D01*
X86550000Y-111777000D01*
X94023000Y-111777000D01*
X94023000Y-113073000D01*
X85702606Y-113073000D01*
X85289803Y-112660197D01*
X85247789Y-112632334D01*
X85200000Y-112623000D01*
X78727000Y-112623000D01*
X78727000Y-109677000D01*
X84397394Y-109677000D01*
X86460197Y-111739803D01*
M02*
