G04 #@! TF.FileFunction,Legend,Top*
%FSLAX46Y46*%
G04 Gerber Fmt 4.6, Leading zero omitted, Abs format (unit mm)*
G04 Created by KiCad (PCBNEW 4.0.6) date 07/27/19 23:28:40*
%MOMM*%
%LPD*%
G01*
G04 APERTURE LIST*
%ADD10C,0.100000*%
%ADD11C,0.200000*%
%ADD12C,0.300000*%
%ADD13C,0.120000*%
%ADD14C,0.152400*%
%ADD15C,0.150000*%
G04 APERTURE END LIST*
D10*
D11*
X54000000Y-37950000D02*
X54000000Y-47100000D01*
D12*
X52842857Y-47200000D02*
X51642857Y-47200000D01*
X51642857Y-46914285D01*
X51700000Y-46742857D01*
X51814286Y-46628571D01*
X51928571Y-46571428D01*
X52157143Y-46514285D01*
X52328571Y-46514285D01*
X52557143Y-46571428D01*
X52671429Y-46628571D01*
X52785714Y-46742857D01*
X52842857Y-46914285D01*
X52842857Y-47200000D01*
X52842857Y-46000000D02*
X52042857Y-46000000D01*
X51642857Y-46000000D02*
X51700000Y-46057143D01*
X51757143Y-46000000D01*
X51700000Y-45942857D01*
X51642857Y-46000000D01*
X51757143Y-46000000D01*
X52042857Y-45542856D02*
X52042857Y-44914285D01*
X52842857Y-45542856D01*
X52842857Y-44914285D01*
X52042857Y-44571427D02*
X52042857Y-43942856D01*
X52842857Y-44571427D01*
X52842857Y-43942856D01*
X52042857Y-43599998D02*
X52842857Y-43314284D01*
X52042857Y-43028570D02*
X52842857Y-43314284D01*
X53128571Y-43428570D01*
X53185714Y-43485713D01*
X53242857Y-43599998D01*
X52842857Y-41885712D02*
X52271429Y-42285712D01*
X52842857Y-42571427D02*
X51642857Y-42571427D01*
X51642857Y-42114284D01*
X51700000Y-41999998D01*
X51757143Y-41942855D01*
X51871429Y-41885712D01*
X52042857Y-41885712D01*
X52157143Y-41942855D01*
X52214286Y-41999998D01*
X52271429Y-42114284D01*
X52271429Y-42571427D01*
X52842857Y-41199998D02*
X52785714Y-41314284D01*
X52728571Y-41371427D01*
X52614286Y-41428570D01*
X52271429Y-41428570D01*
X52157143Y-41371427D01*
X52100000Y-41314284D01*
X52042857Y-41199998D01*
X52042857Y-41028570D01*
X52100000Y-40914284D01*
X52157143Y-40857141D01*
X52271429Y-40799998D01*
X52614286Y-40799998D01*
X52728571Y-40857141D01*
X52785714Y-40914284D01*
X52842857Y-41028570D01*
X52842857Y-41199998D01*
X52842857Y-40285713D02*
X51642857Y-40285713D01*
X52100000Y-40285713D02*
X52042857Y-40171427D01*
X52042857Y-39942856D01*
X52100000Y-39828570D01*
X52157143Y-39771427D01*
X52271429Y-39714284D01*
X52614286Y-39714284D01*
X52728571Y-39771427D01*
X52785714Y-39828570D01*
X52842857Y-39942856D01*
X52842857Y-40171427D01*
X52785714Y-40285713D01*
X52842857Y-39028570D02*
X52785714Y-39142856D01*
X52728571Y-39199999D01*
X52614286Y-39257142D01*
X52271429Y-39257142D01*
X52157143Y-39199999D01*
X52100000Y-39142856D01*
X52042857Y-39028570D01*
X52042857Y-38857142D01*
X52100000Y-38742856D01*
X52157143Y-38685713D01*
X52271429Y-38628570D01*
X52614286Y-38628570D01*
X52728571Y-38685713D01*
X52785714Y-38742856D01*
X52842857Y-38857142D01*
X52842857Y-39028570D01*
X52042857Y-38285713D02*
X52042857Y-37828570D01*
X51642857Y-38114285D02*
X52671429Y-38114285D01*
X52785714Y-38057142D01*
X52842857Y-37942856D01*
X52842857Y-37828570D01*
D13*
X54106000Y-140126000D02*
X53106000Y-140126000D01*
X53106000Y-138766000D02*
X54106000Y-138766000D01*
X67124000Y-86648000D02*
X70324000Y-86648000D01*
X70324000Y-86648000D02*
X70324000Y-97248000D01*
X70324000Y-97248000D02*
X67124000Y-97248000D01*
X62924000Y-97248000D02*
X59724000Y-97248000D01*
X59724000Y-97248000D02*
X59724000Y-86648000D01*
X59724000Y-86648000D02*
X62924000Y-86648000D01*
X53100000Y-69200000D02*
X53800000Y-69200000D01*
X53800000Y-70400000D02*
X53100000Y-70400000D01*
X52200000Y-54600000D02*
X52900000Y-54600000D01*
X52900000Y-55800000D02*
X52200000Y-55800000D01*
X57700000Y-69200000D02*
X58400000Y-69200000D01*
X58400000Y-70400000D02*
X57700000Y-70400000D01*
X85500000Y-37800000D02*
X85500000Y-38800000D01*
X85500000Y-38800000D02*
X87600000Y-38800000D01*
X85500000Y-37800000D02*
X87600000Y-37800000D01*
X84350000Y-38800000D02*
X84350000Y-37800000D01*
X84350000Y-37800000D02*
X82250000Y-37800000D01*
X84350000Y-38800000D02*
X82250000Y-38800000D01*
X75885000Y-61905000D02*
X79415000Y-61905000D01*
X75885000Y-68375000D02*
X79415000Y-68375000D01*
X74560000Y-61970000D02*
X75885000Y-61970000D01*
X75885000Y-61905000D02*
X75885000Y-61970000D01*
X79415000Y-61905000D02*
X79415000Y-61970000D01*
X75885000Y-68310000D02*
X75885000Y-68375000D01*
X79415000Y-68310000D02*
X79415000Y-68375000D01*
X52950000Y-67120000D02*
X53950000Y-67120000D01*
X53950000Y-68480000D02*
X52950000Y-68480000D01*
X53950000Y-66580000D02*
X52950000Y-66580000D01*
X52950000Y-65220000D02*
X53950000Y-65220000D01*
X53050000Y-58380000D02*
X52050000Y-58380000D01*
X52050000Y-57020000D02*
X53050000Y-57020000D01*
X53050000Y-60680000D02*
X52050000Y-60680000D01*
X52050000Y-59320000D02*
X53050000Y-59320000D01*
X58550000Y-66580000D02*
X57550000Y-66580000D01*
X57550000Y-65220000D02*
X58550000Y-65220000D01*
X57550000Y-67120000D02*
X58550000Y-67120000D01*
X58550000Y-68480000D02*
X57550000Y-68480000D01*
X86250000Y-39220000D02*
X87250000Y-39220000D01*
X87250000Y-40580000D02*
X86250000Y-40580000D01*
X83500000Y-40580000D02*
X82500000Y-40580000D01*
X82500000Y-39220000D02*
X83500000Y-39220000D01*
D14*
X75605400Y-41023600D02*
X75173600Y-41023600D01*
X78094600Y-44376400D02*
X78526400Y-44376400D01*
X78526400Y-44376400D02*
X78526400Y-41023600D01*
X78526400Y-41023600D02*
X78094600Y-41023600D01*
X75173600Y-41023600D02*
X75173600Y-44376400D01*
X75173600Y-44376400D02*
X75605400Y-44376400D01*
D13*
X73150000Y-41950000D02*
X73150000Y-42650000D01*
X71950000Y-42650000D02*
X71950000Y-41950000D01*
X71480000Y-62850000D02*
X71480000Y-63850000D01*
X70120000Y-63850000D02*
X70120000Y-62850000D01*
X65650000Y-47000000D02*
X65650000Y-46300000D01*
X66850000Y-46300000D02*
X66850000Y-47000000D01*
X57400000Y-40800000D02*
X57400000Y-40100000D01*
X58600000Y-40100000D02*
X58600000Y-40800000D01*
X64250000Y-58600000D02*
X63550000Y-58600000D01*
X63550000Y-57400000D02*
X64250000Y-57400000D01*
X60730000Y-43550000D02*
X60730000Y-44550000D01*
X59370000Y-44550000D02*
X59370000Y-43550000D01*
X63150000Y-43650000D02*
X63150000Y-44350000D01*
X61950000Y-44350000D02*
X61950000Y-43650000D01*
X66320000Y-39600000D02*
X66320000Y-38600000D01*
X67680000Y-38600000D02*
X67680000Y-39600000D01*
X66525000Y-115680000D02*
X68525000Y-115680000D01*
X68525000Y-112720000D02*
X66525000Y-112720000D01*
X87138000Y-115780000D02*
X89138000Y-115780000D01*
X89138000Y-112820000D02*
X87138000Y-112820000D01*
X87138000Y-120606000D02*
X89138000Y-120606000D01*
X89138000Y-117646000D02*
X87138000Y-117646000D01*
X66425000Y-120580000D02*
X68425000Y-120580000D01*
X68425000Y-117620000D02*
X66425000Y-117620000D01*
X87190000Y-86648000D02*
X90390000Y-86648000D01*
X90390000Y-86648000D02*
X90390000Y-97248000D01*
X90390000Y-97248000D02*
X87190000Y-97248000D01*
X82990000Y-97248000D02*
X79790000Y-97248000D01*
X79790000Y-97248000D02*
X79790000Y-86648000D01*
X79790000Y-86648000D02*
X82990000Y-86648000D01*
X61598000Y-102742000D02*
X61598000Y-99442000D01*
X61598000Y-99442000D02*
X56198000Y-99442000D01*
X61598000Y-102742000D02*
X56198000Y-102742000D01*
X82902000Y-103504000D02*
X82902000Y-100204000D01*
X82902000Y-100204000D02*
X77502000Y-100204000D01*
X82902000Y-103504000D02*
X77502000Y-103504000D01*
X82676000Y-124616000D02*
X79376000Y-124616000D01*
X79376000Y-124616000D02*
X79376000Y-130016000D01*
X82676000Y-124616000D02*
X82676000Y-130016000D01*
X60800000Y-125850000D02*
X57500000Y-125850000D01*
X57500000Y-125850000D02*
X57500000Y-131250000D01*
X60800000Y-125850000D02*
X60800000Y-131250000D01*
X54850000Y-95130000D02*
X56850000Y-95130000D01*
X56850000Y-92170000D02*
X54850000Y-92170000D01*
X75454000Y-90634000D02*
X77454000Y-90634000D01*
X77454000Y-87674000D02*
X75454000Y-87674000D01*
X54850000Y-90380000D02*
X56850000Y-90380000D01*
X56850000Y-87420000D02*
X54850000Y-87420000D01*
X75454000Y-95460000D02*
X77454000Y-95460000D01*
X77454000Y-92500000D02*
X75454000Y-92500000D01*
X86325000Y-43410000D02*
X91525000Y-43410000D01*
X86325000Y-68930000D02*
X91525000Y-68930000D01*
X84885000Y-43980000D02*
X86325000Y-43980000D01*
X86325000Y-43410000D02*
X86325000Y-43980000D01*
X91525000Y-43410000D02*
X91525000Y-43980000D01*
X86325000Y-68360000D02*
X86325000Y-68930000D01*
X91525000Y-68360000D02*
X91525000Y-68930000D01*
X86325000Y-45500000D02*
X86325000Y-46520000D01*
X91525000Y-45500000D02*
X91525000Y-46520000D01*
X86325000Y-48040000D02*
X86325000Y-49060000D01*
X91525000Y-48040000D02*
X91525000Y-49060000D01*
X86325000Y-50580000D02*
X86325000Y-51600000D01*
X91525000Y-50580000D02*
X91525000Y-51600000D01*
X86325000Y-53120000D02*
X86325000Y-54140000D01*
X91525000Y-53120000D02*
X91525000Y-54140000D01*
X86325000Y-55660000D02*
X86325000Y-56680000D01*
X91525000Y-55660000D02*
X91525000Y-56680000D01*
X86325000Y-58200000D02*
X86325000Y-59220000D01*
X91525000Y-58200000D02*
X91525000Y-59220000D01*
X86325000Y-60740000D02*
X86325000Y-61760000D01*
X91525000Y-60740000D02*
X91525000Y-61760000D01*
X86325000Y-63280000D02*
X86325000Y-64300000D01*
X91525000Y-63280000D02*
X91525000Y-64300000D01*
X86325000Y-65820000D02*
X86325000Y-66840000D01*
X91525000Y-65820000D02*
X91525000Y-66840000D01*
X52703000Y-75000000D02*
X52703000Y-73800000D01*
X52703000Y-73800000D02*
X55403000Y-73800000D01*
X56703000Y-78600000D02*
X52703000Y-78600000D01*
X52703000Y-78600000D02*
X52703000Y-77400000D01*
X69825000Y-136500000D02*
X68325000Y-136500000D01*
X68325000Y-136500000D02*
X68325000Y-138310000D01*
X68325000Y-138310000D02*
X63200000Y-138310000D01*
X69825000Y-146900000D02*
X68325000Y-146900000D01*
X68325000Y-146900000D02*
X68325000Y-145090000D01*
X68325000Y-145090000D02*
X67225000Y-145090000D01*
X53082000Y-141052000D02*
X54082000Y-141052000D01*
X54082000Y-142412000D02*
X53082000Y-142412000D01*
X64200000Y-111875000D02*
X64200000Y-110375000D01*
X64200000Y-110375000D02*
X63250000Y-110375000D01*
X63250000Y-110375000D02*
X63250000Y-105250000D01*
X53800000Y-111875000D02*
X53800000Y-110375000D01*
X53800000Y-110375000D02*
X54750000Y-110375000D01*
X54750000Y-110375000D02*
X54750000Y-109275000D01*
X84721000Y-111876000D02*
X84721000Y-110376000D01*
X84721000Y-110376000D02*
X83771000Y-110376000D01*
X83771000Y-110376000D02*
X83771000Y-105251000D01*
X74321000Y-111876000D02*
X74321000Y-110376000D01*
X74321000Y-110376000D02*
X75271000Y-110376000D01*
X75271000Y-110376000D02*
X75271000Y-109276000D01*
X66100000Y-153220000D02*
X64100000Y-153220000D01*
X64100000Y-156180000D02*
X66100000Y-156180000D01*
X75100000Y-160330000D02*
X77100000Y-160330000D01*
X77100000Y-157370000D02*
X75100000Y-157370000D01*
X75100000Y-163730000D02*
X77100000Y-163730000D01*
X77100000Y-160770000D02*
X75100000Y-160770000D01*
X66100000Y-149370000D02*
X64100000Y-149370000D01*
X64100000Y-152330000D02*
X66100000Y-152330000D01*
X82250000Y-148400000D02*
X82250000Y-154900000D01*
X82250000Y-148400000D02*
X73850000Y-148400000D01*
X82250000Y-154900000D02*
X73850000Y-154900000D01*
D15*
X53439334Y-138448381D02*
X53106000Y-137972190D01*
X52867905Y-138448381D02*
X52867905Y-137448381D01*
X53248858Y-137448381D01*
X53344096Y-137496000D01*
X53391715Y-137543619D01*
X53439334Y-137638857D01*
X53439334Y-137781714D01*
X53391715Y-137876952D01*
X53344096Y-137924571D01*
X53248858Y-137972190D01*
X52867905Y-137972190D01*
X54391715Y-138448381D02*
X53820286Y-138448381D01*
X54106000Y-138448381D02*
X54106000Y-137448381D01*
X54010762Y-137591238D01*
X53915524Y-137686476D01*
X53820286Y-137734095D01*
X52638095Y-70552381D02*
X52733334Y-70552381D01*
X52828572Y-70600000D01*
X52876191Y-70647619D01*
X52923810Y-70742857D01*
X52971429Y-70933333D01*
X52971429Y-71171429D01*
X52923810Y-71361905D01*
X52876191Y-71457143D01*
X52828572Y-71504762D01*
X52733334Y-71552381D01*
X52638095Y-71552381D01*
X52542857Y-71504762D01*
X52495238Y-71457143D01*
X52447619Y-71361905D01*
X52400000Y-71171429D01*
X52400000Y-70933333D01*
X52447619Y-70742857D01*
X52495238Y-70647619D01*
X52542857Y-70600000D01*
X52638095Y-70552381D01*
X53400000Y-71457143D02*
X53447619Y-71504762D01*
X53400000Y-71552381D01*
X53352381Y-71504762D01*
X53400000Y-71457143D01*
X53400000Y-71552381D01*
X54400000Y-71552381D02*
X53828571Y-71552381D01*
X54114285Y-71552381D02*
X54114285Y-70552381D01*
X54019047Y-70695238D01*
X53923809Y-70790476D01*
X53828571Y-70838095D01*
X54688095Y-54652381D02*
X54783334Y-54652381D01*
X54878572Y-54700000D01*
X54926191Y-54747619D01*
X54973810Y-54842857D01*
X55021429Y-55033333D01*
X55021429Y-55271429D01*
X54973810Y-55461905D01*
X54926191Y-55557143D01*
X54878572Y-55604762D01*
X54783334Y-55652381D01*
X54688095Y-55652381D01*
X54592857Y-55604762D01*
X54545238Y-55557143D01*
X54497619Y-55461905D01*
X54450000Y-55271429D01*
X54450000Y-55033333D01*
X54497619Y-54842857D01*
X54545238Y-54747619D01*
X54592857Y-54700000D01*
X54688095Y-54652381D01*
X55450000Y-55557143D02*
X55497619Y-55604762D01*
X55450000Y-55652381D01*
X55402381Y-55604762D01*
X55450000Y-55557143D01*
X55450000Y-55652381D01*
X56450000Y-55652381D02*
X55878571Y-55652381D01*
X56164285Y-55652381D02*
X56164285Y-54652381D01*
X56069047Y-54795238D01*
X55973809Y-54890476D01*
X55878571Y-54938095D01*
X57238095Y-70552381D02*
X57333334Y-70552381D01*
X57428572Y-70600000D01*
X57476191Y-70647619D01*
X57523810Y-70742857D01*
X57571429Y-70933333D01*
X57571429Y-71171429D01*
X57523810Y-71361905D01*
X57476191Y-71457143D01*
X57428572Y-71504762D01*
X57333334Y-71552381D01*
X57238095Y-71552381D01*
X57142857Y-71504762D01*
X57095238Y-71457143D01*
X57047619Y-71361905D01*
X57000000Y-71171429D01*
X57000000Y-70933333D01*
X57047619Y-70742857D01*
X57095238Y-70647619D01*
X57142857Y-70600000D01*
X57238095Y-70552381D01*
X58000000Y-71457143D02*
X58047619Y-71504762D01*
X58000000Y-71552381D01*
X57952381Y-71504762D01*
X58000000Y-71457143D01*
X58000000Y-71552381D01*
X59000000Y-71552381D02*
X58428571Y-71552381D01*
X58714285Y-71552381D02*
X58714285Y-70552381D01*
X58619047Y-70695238D01*
X58523809Y-70790476D01*
X58428571Y-70838095D01*
X49757143Y-68352381D02*
X49423809Y-67876190D01*
X49185714Y-68352381D02*
X49185714Y-67352381D01*
X49566667Y-67352381D01*
X49661905Y-67400000D01*
X49709524Y-67447619D01*
X49757143Y-67542857D01*
X49757143Y-67685714D01*
X49709524Y-67780952D01*
X49661905Y-67828571D01*
X49566667Y-67876190D01*
X49185714Y-67876190D01*
X50709524Y-68352381D02*
X50138095Y-68352381D01*
X50423809Y-68352381D02*
X50423809Y-67352381D01*
X50328571Y-67495238D01*
X50233333Y-67590476D01*
X50138095Y-67638095D01*
X51042857Y-67352381D02*
X51661905Y-67352381D01*
X51328571Y-67733333D01*
X51471429Y-67733333D01*
X51566667Y-67780952D01*
X51614286Y-67828571D01*
X51661905Y-67923810D01*
X51661905Y-68161905D01*
X51614286Y-68257143D01*
X51566667Y-68304762D01*
X51471429Y-68352381D01*
X51185714Y-68352381D01*
X51090476Y-68304762D01*
X51042857Y-68257143D01*
X50007143Y-66202381D02*
X49673809Y-65726190D01*
X49435714Y-66202381D02*
X49435714Y-65202381D01*
X49816667Y-65202381D01*
X49911905Y-65250000D01*
X49959524Y-65297619D01*
X50007143Y-65392857D01*
X50007143Y-65535714D01*
X49959524Y-65630952D01*
X49911905Y-65678571D01*
X49816667Y-65726190D01*
X49435714Y-65726190D01*
X50959524Y-66202381D02*
X50388095Y-66202381D01*
X50673809Y-66202381D02*
X50673809Y-65202381D01*
X50578571Y-65345238D01*
X50483333Y-65440476D01*
X50388095Y-65488095D01*
X51816667Y-65535714D02*
X51816667Y-66202381D01*
X51578571Y-65154762D02*
X51340476Y-65869048D01*
X51959524Y-65869048D01*
X54707143Y-58002381D02*
X54373809Y-57526190D01*
X54135714Y-58002381D02*
X54135714Y-57002381D01*
X54516667Y-57002381D01*
X54611905Y-57050000D01*
X54659524Y-57097619D01*
X54707143Y-57192857D01*
X54707143Y-57335714D01*
X54659524Y-57430952D01*
X54611905Y-57478571D01*
X54516667Y-57526190D01*
X54135714Y-57526190D01*
X55659524Y-58002381D02*
X55088095Y-58002381D01*
X55373809Y-58002381D02*
X55373809Y-57002381D01*
X55278571Y-57145238D01*
X55183333Y-57240476D01*
X55088095Y-57288095D01*
X56564286Y-57002381D02*
X56088095Y-57002381D01*
X56040476Y-57478571D01*
X56088095Y-57430952D01*
X56183333Y-57383333D01*
X56421429Y-57383333D01*
X56516667Y-57430952D01*
X56564286Y-57478571D01*
X56611905Y-57573810D01*
X56611905Y-57811905D01*
X56564286Y-57907143D01*
X56516667Y-57954762D01*
X56421429Y-58002381D01*
X56183333Y-58002381D01*
X56088095Y-57954762D01*
X56040476Y-57907143D01*
X54607143Y-60402381D02*
X54273809Y-59926190D01*
X54035714Y-60402381D02*
X54035714Y-59402381D01*
X54416667Y-59402381D01*
X54511905Y-59450000D01*
X54559524Y-59497619D01*
X54607143Y-59592857D01*
X54607143Y-59735714D01*
X54559524Y-59830952D01*
X54511905Y-59878571D01*
X54416667Y-59926190D01*
X54035714Y-59926190D01*
X55559524Y-60402381D02*
X54988095Y-60402381D01*
X55273809Y-60402381D02*
X55273809Y-59402381D01*
X55178571Y-59545238D01*
X55083333Y-59640476D01*
X54988095Y-59688095D01*
X56416667Y-59402381D02*
X56226190Y-59402381D01*
X56130952Y-59450000D01*
X56083333Y-59497619D01*
X55988095Y-59640476D01*
X55940476Y-59830952D01*
X55940476Y-60211905D01*
X55988095Y-60307143D01*
X56035714Y-60354762D01*
X56130952Y-60402381D01*
X56321429Y-60402381D01*
X56416667Y-60354762D01*
X56464286Y-60307143D01*
X56511905Y-60211905D01*
X56511905Y-59973810D01*
X56464286Y-59878571D01*
X56416667Y-59830952D01*
X56321429Y-59783333D01*
X56130952Y-59783333D01*
X56035714Y-59830952D01*
X55988095Y-59878571D01*
X55940476Y-59973810D01*
X60057143Y-66452381D02*
X59723809Y-65976190D01*
X59485714Y-66452381D02*
X59485714Y-65452381D01*
X59866667Y-65452381D01*
X59961905Y-65500000D01*
X60009524Y-65547619D01*
X60057143Y-65642857D01*
X60057143Y-65785714D01*
X60009524Y-65880952D01*
X59961905Y-65928571D01*
X59866667Y-65976190D01*
X59485714Y-65976190D01*
X61009524Y-66452381D02*
X60438095Y-66452381D01*
X60723809Y-66452381D02*
X60723809Y-65452381D01*
X60628571Y-65595238D01*
X60533333Y-65690476D01*
X60438095Y-65738095D01*
X61342857Y-65452381D02*
X62009524Y-65452381D01*
X61580952Y-66452381D01*
X60007143Y-68352381D02*
X59673809Y-67876190D01*
X59435714Y-68352381D02*
X59435714Y-67352381D01*
X59816667Y-67352381D01*
X59911905Y-67400000D01*
X59959524Y-67447619D01*
X60007143Y-67542857D01*
X60007143Y-67685714D01*
X59959524Y-67780952D01*
X59911905Y-67828571D01*
X59816667Y-67876190D01*
X59435714Y-67876190D01*
X60959524Y-68352381D02*
X60388095Y-68352381D01*
X60673809Y-68352381D02*
X60673809Y-67352381D01*
X60578571Y-67495238D01*
X60483333Y-67590476D01*
X60388095Y-67638095D01*
X61530952Y-67780952D02*
X61435714Y-67733333D01*
X61388095Y-67685714D01*
X61340476Y-67590476D01*
X61340476Y-67542857D01*
X61388095Y-67447619D01*
X61435714Y-67400000D01*
X61530952Y-67352381D01*
X61721429Y-67352381D01*
X61816667Y-67400000D01*
X61864286Y-67447619D01*
X61911905Y-67542857D01*
X61911905Y-67590476D01*
X61864286Y-67685714D01*
X61816667Y-67733333D01*
X61721429Y-67780952D01*
X61530952Y-67780952D01*
X61435714Y-67828571D01*
X61388095Y-67876190D01*
X61340476Y-67971429D01*
X61340476Y-68161905D01*
X61388095Y-68257143D01*
X61435714Y-68304762D01*
X61530952Y-68352381D01*
X61721429Y-68352381D01*
X61816667Y-68304762D01*
X61864286Y-68257143D01*
X61911905Y-68161905D01*
X61911905Y-67971429D01*
X61864286Y-67876190D01*
X61816667Y-67828571D01*
X61721429Y-67780952D01*
X70502381Y-43061905D02*
X70502381Y-42966666D01*
X70550000Y-42871428D01*
X70597619Y-42823809D01*
X70692857Y-42776190D01*
X70883333Y-42728571D01*
X71121429Y-42728571D01*
X71311905Y-42776190D01*
X71407143Y-42823809D01*
X71454762Y-42871428D01*
X71502381Y-42966666D01*
X71502381Y-43061905D01*
X71454762Y-43157143D01*
X71407143Y-43204762D01*
X71311905Y-43252381D01*
X71121429Y-43300000D01*
X70883333Y-43300000D01*
X70692857Y-43252381D01*
X70597619Y-43204762D01*
X70550000Y-43157143D01*
X70502381Y-43061905D01*
X71407143Y-42300000D02*
X71454762Y-42252381D01*
X71502381Y-42300000D01*
X71454762Y-42347619D01*
X71407143Y-42300000D01*
X71502381Y-42300000D01*
X71502381Y-41300000D02*
X71502381Y-41871429D01*
X71502381Y-41585715D02*
X70502381Y-41585715D01*
X70645238Y-41680953D01*
X70740476Y-41776191D01*
X70788095Y-41871429D01*
X69802381Y-63992857D02*
X69326190Y-64326191D01*
X69802381Y-64564286D02*
X68802381Y-64564286D01*
X68802381Y-64183333D01*
X68850000Y-64088095D01*
X68897619Y-64040476D01*
X68992857Y-63992857D01*
X69135714Y-63992857D01*
X69230952Y-64040476D01*
X69278571Y-64088095D01*
X69326190Y-64183333D01*
X69326190Y-64564286D01*
X68897619Y-63611905D02*
X68850000Y-63564286D01*
X68802381Y-63469048D01*
X68802381Y-63230952D01*
X68850000Y-63135714D01*
X68897619Y-63088095D01*
X68992857Y-63040476D01*
X69088095Y-63040476D01*
X69230952Y-63088095D01*
X69802381Y-63659524D01*
X69802381Y-63040476D01*
X69802381Y-62088095D02*
X69802381Y-62659524D01*
X69802381Y-62373810D02*
X68802381Y-62373810D01*
X68945238Y-62469048D01*
X69040476Y-62564286D01*
X69088095Y-62659524D01*
X67202381Y-47411905D02*
X67202381Y-47316666D01*
X67250000Y-47221428D01*
X67297619Y-47173809D01*
X67392857Y-47126190D01*
X67583333Y-47078571D01*
X67821429Y-47078571D01*
X68011905Y-47126190D01*
X68107143Y-47173809D01*
X68154762Y-47221428D01*
X68202381Y-47316666D01*
X68202381Y-47411905D01*
X68154762Y-47507143D01*
X68107143Y-47554762D01*
X68011905Y-47602381D01*
X67821429Y-47650000D01*
X67583333Y-47650000D01*
X67392857Y-47602381D01*
X67297619Y-47554762D01*
X67250000Y-47507143D01*
X67202381Y-47411905D01*
X68107143Y-46650000D02*
X68154762Y-46602381D01*
X68202381Y-46650000D01*
X68154762Y-46697619D01*
X68107143Y-46650000D01*
X68202381Y-46650000D01*
X68202381Y-45650000D02*
X68202381Y-46221429D01*
X68202381Y-45935715D02*
X67202381Y-45935715D01*
X67345238Y-46030953D01*
X67440476Y-46126191D01*
X67488095Y-46221429D01*
X55652381Y-41011905D02*
X55652381Y-40916666D01*
X55700000Y-40821428D01*
X55747619Y-40773809D01*
X55842857Y-40726190D01*
X56033333Y-40678571D01*
X56271429Y-40678571D01*
X56461905Y-40726190D01*
X56557143Y-40773809D01*
X56604762Y-40821428D01*
X56652381Y-40916666D01*
X56652381Y-41011905D01*
X56604762Y-41107143D01*
X56557143Y-41154762D01*
X56461905Y-41202381D01*
X56271429Y-41250000D01*
X56033333Y-41250000D01*
X55842857Y-41202381D01*
X55747619Y-41154762D01*
X55700000Y-41107143D01*
X55652381Y-41011905D01*
X56557143Y-40250000D02*
X56604762Y-40202381D01*
X56652381Y-40250000D01*
X56604762Y-40297619D01*
X56557143Y-40250000D01*
X56652381Y-40250000D01*
X56652381Y-39250000D02*
X56652381Y-39821429D01*
X56652381Y-39535715D02*
X55652381Y-39535715D01*
X55795238Y-39630953D01*
X55890476Y-39726191D01*
X55938095Y-39821429D01*
X63238095Y-59152381D02*
X63333334Y-59152381D01*
X63428572Y-59200000D01*
X63476191Y-59247619D01*
X63523810Y-59342857D01*
X63571429Y-59533333D01*
X63571429Y-59771429D01*
X63523810Y-59961905D01*
X63476191Y-60057143D01*
X63428572Y-60104762D01*
X63333334Y-60152381D01*
X63238095Y-60152381D01*
X63142857Y-60104762D01*
X63095238Y-60057143D01*
X63047619Y-59961905D01*
X63000000Y-59771429D01*
X63000000Y-59533333D01*
X63047619Y-59342857D01*
X63095238Y-59247619D01*
X63142857Y-59200000D01*
X63238095Y-59152381D01*
X64000000Y-60057143D02*
X64047619Y-60104762D01*
X64000000Y-60152381D01*
X63952381Y-60104762D01*
X64000000Y-60057143D01*
X64000000Y-60152381D01*
X65000000Y-60152381D02*
X64428571Y-60152381D01*
X64714285Y-60152381D02*
X64714285Y-59152381D01*
X64619047Y-59295238D01*
X64523809Y-59390476D01*
X64428571Y-59438095D01*
X59052381Y-44216666D02*
X58576190Y-44550000D01*
X59052381Y-44788095D02*
X58052381Y-44788095D01*
X58052381Y-44407142D01*
X58100000Y-44311904D01*
X58147619Y-44264285D01*
X58242857Y-44216666D01*
X58385714Y-44216666D01*
X58480952Y-44264285D01*
X58528571Y-44311904D01*
X58576190Y-44407142D01*
X58576190Y-44788095D01*
X58385714Y-43359523D02*
X59052381Y-43359523D01*
X58004762Y-43597619D02*
X58719048Y-43835714D01*
X58719048Y-43216666D01*
X64407143Y-44892857D02*
X64454762Y-44940476D01*
X64502381Y-45083333D01*
X64502381Y-45178571D01*
X64454762Y-45321429D01*
X64359524Y-45416667D01*
X64264286Y-45464286D01*
X64073810Y-45511905D01*
X63930952Y-45511905D01*
X63740476Y-45464286D01*
X63645238Y-45416667D01*
X63550000Y-45321429D01*
X63502381Y-45178571D01*
X63502381Y-45083333D01*
X63550000Y-44940476D01*
X63597619Y-44892857D01*
X63597619Y-44511905D02*
X63550000Y-44464286D01*
X63502381Y-44369048D01*
X63502381Y-44130952D01*
X63550000Y-44035714D01*
X63597619Y-43988095D01*
X63692857Y-43940476D01*
X63788095Y-43940476D01*
X63930952Y-43988095D01*
X64502381Y-44559524D01*
X64502381Y-43940476D01*
X63502381Y-43607143D02*
X63502381Y-42940476D01*
X64502381Y-43369048D01*
X68902381Y-39266666D02*
X68426190Y-39600000D01*
X68902381Y-39838095D02*
X67902381Y-39838095D01*
X67902381Y-39457142D01*
X67950000Y-39361904D01*
X67997619Y-39314285D01*
X68092857Y-39266666D01*
X68235714Y-39266666D01*
X68330952Y-39314285D01*
X68378571Y-39361904D01*
X68426190Y-39457142D01*
X68426190Y-39838095D01*
X67902381Y-38361904D02*
X67902381Y-38838095D01*
X68378571Y-38885714D01*
X68330952Y-38838095D01*
X68283333Y-38742857D01*
X68283333Y-38504761D01*
X68330952Y-38409523D01*
X68378571Y-38361904D01*
X68473810Y-38314285D01*
X68711905Y-38314285D01*
X68807143Y-38361904D01*
X68854762Y-38409523D01*
X68902381Y-38504761D01*
X68902381Y-38742857D01*
X68854762Y-38838095D01*
X68807143Y-38885714D01*
X75811143Y-96587143D02*
X75763524Y-96634762D01*
X75620667Y-96682381D01*
X75525429Y-96682381D01*
X75382571Y-96634762D01*
X75287333Y-96539524D01*
X75239714Y-96444286D01*
X75192095Y-96253810D01*
X75192095Y-96110952D01*
X75239714Y-95920476D01*
X75287333Y-95825238D01*
X75382571Y-95730000D01*
X75525429Y-95682381D01*
X75620667Y-95682381D01*
X75763524Y-95730000D01*
X75811143Y-95777619D01*
X76192095Y-95777619D02*
X76239714Y-95730000D01*
X76334952Y-95682381D01*
X76573048Y-95682381D01*
X76668286Y-95730000D01*
X76715905Y-95777619D01*
X76763524Y-95872857D01*
X76763524Y-95968095D01*
X76715905Y-96110952D01*
X76144476Y-96682381D01*
X76763524Y-96682381D01*
X77239714Y-96682381D02*
X77430190Y-96682381D01*
X77525429Y-96634762D01*
X77573048Y-96587143D01*
X77668286Y-96444286D01*
X77715905Y-96253810D01*
X77715905Y-95872857D01*
X77668286Y-95777619D01*
X77620667Y-95730000D01*
X77525429Y-95682381D01*
X77334952Y-95682381D01*
X77239714Y-95730000D01*
X77192095Y-95777619D01*
X77144476Y-95872857D01*
X77144476Y-96110952D01*
X77192095Y-96206190D01*
X77239714Y-96253810D01*
X77334952Y-96301429D01*
X77525429Y-96301429D01*
X77620667Y-96253810D01*
X77668286Y-96206190D01*
X77715905Y-96110952D01*
X60490667Y-80994381D02*
X60490667Y-81708667D01*
X60443047Y-81851524D01*
X60347809Y-81946762D01*
X60204952Y-81994381D01*
X60109714Y-81994381D01*
X61109714Y-81422952D02*
X61014476Y-81375333D01*
X60966857Y-81327714D01*
X60919238Y-81232476D01*
X60919238Y-81184857D01*
X60966857Y-81089619D01*
X61014476Y-81042000D01*
X61109714Y-80994381D01*
X61300191Y-80994381D01*
X61395429Y-81042000D01*
X61443048Y-81089619D01*
X61490667Y-81184857D01*
X61490667Y-81232476D01*
X61443048Y-81327714D01*
X61395429Y-81375333D01*
X61300191Y-81422952D01*
X61109714Y-81422952D01*
X61014476Y-81470571D01*
X60966857Y-81518190D01*
X60919238Y-81613429D01*
X60919238Y-81803905D01*
X60966857Y-81899143D01*
X61014476Y-81946762D01*
X61109714Y-81994381D01*
X61300191Y-81994381D01*
X61395429Y-81946762D01*
X61443048Y-81899143D01*
X61490667Y-81803905D01*
X61490667Y-81613429D01*
X61443048Y-81518190D01*
X61395429Y-81470571D01*
X61300191Y-81422952D01*
X91590477Y-164702381D02*
X91590477Y-165416667D01*
X91542857Y-165559524D01*
X91447619Y-165654762D01*
X91304762Y-165702381D01*
X91209524Y-165702381D01*
X92590477Y-165702381D02*
X92019048Y-165702381D01*
X92304762Y-165702381D02*
X92304762Y-164702381D01*
X92209524Y-164845238D01*
X92114286Y-164940476D01*
X92019048Y-164988095D01*
X93542858Y-165702381D02*
X92971429Y-165702381D01*
X93257143Y-165702381D02*
X93257143Y-164702381D01*
X93161905Y-164845238D01*
X93066667Y-164940476D01*
X92971429Y-164988095D01*
X52640477Y-31302381D02*
X52640477Y-32016667D01*
X52592857Y-32159524D01*
X52497619Y-32254762D01*
X52354762Y-32302381D01*
X52259524Y-32302381D01*
X53640477Y-32302381D02*
X53069048Y-32302381D01*
X53354762Y-32302381D02*
X53354762Y-31302381D01*
X53259524Y-31445238D01*
X53164286Y-31540476D01*
X53069048Y-31588095D01*
X54021429Y-31397619D02*
X54069048Y-31350000D01*
X54164286Y-31302381D01*
X54402382Y-31302381D01*
X54497620Y-31350000D01*
X54545239Y-31397619D01*
X54592858Y-31492857D01*
X54592858Y-31588095D01*
X54545239Y-31730952D01*
X53973810Y-32302381D01*
X54592858Y-32302381D01*
X91040477Y-31652381D02*
X91040477Y-32366667D01*
X90992857Y-32509524D01*
X90897619Y-32604762D01*
X90754762Y-32652381D01*
X90659524Y-32652381D01*
X92040477Y-32652381D02*
X91469048Y-32652381D01*
X91754762Y-32652381D02*
X91754762Y-31652381D01*
X91659524Y-31795238D01*
X91564286Y-31890476D01*
X91469048Y-31938095D01*
X92373810Y-31652381D02*
X92992858Y-31652381D01*
X92659524Y-32033333D01*
X92802382Y-32033333D01*
X92897620Y-32080952D01*
X92945239Y-32128571D01*
X92992858Y-32223810D01*
X92992858Y-32461905D01*
X92945239Y-32557143D01*
X92897620Y-32604762D01*
X92802382Y-32652381D01*
X92516667Y-32652381D01*
X92421429Y-32604762D01*
X92373810Y-32557143D01*
X52590477Y-164752381D02*
X52590477Y-165466667D01*
X52542857Y-165609524D01*
X52447619Y-165704762D01*
X52304762Y-165752381D01*
X52209524Y-165752381D01*
X53590477Y-165752381D02*
X53019048Y-165752381D01*
X53304762Y-165752381D02*
X53304762Y-164752381D01*
X53209524Y-164895238D01*
X53114286Y-164990476D01*
X53019048Y-165038095D01*
X54447620Y-165085714D02*
X54447620Y-165752381D01*
X54209524Y-164704762D02*
X53971429Y-165419048D01*
X54590477Y-165419048D01*
X71179762Y-135597619D02*
X71084524Y-135550000D01*
X70989286Y-135454762D01*
X70846429Y-135311905D01*
X70751190Y-135264286D01*
X70655952Y-135264286D01*
X70703571Y-135502381D02*
X70608333Y-135454762D01*
X70513095Y-135359524D01*
X70465476Y-135169048D01*
X70465476Y-134835714D01*
X70513095Y-134645238D01*
X70608333Y-134550000D01*
X70703571Y-134502381D01*
X70894048Y-134502381D01*
X70989286Y-134550000D01*
X71084524Y-134645238D01*
X71132143Y-134835714D01*
X71132143Y-135169048D01*
X71084524Y-135359524D01*
X70989286Y-135454762D01*
X70894048Y-135502381D01*
X70703571Y-135502381D01*
X72084524Y-135502381D02*
X71513095Y-135502381D01*
X71798809Y-135502381D02*
X71798809Y-134502381D01*
X71703571Y-134645238D01*
X71608333Y-134740476D01*
X71513095Y-134788095D01*
X53415334Y-143634381D02*
X53082000Y-143158190D01*
X52843905Y-143634381D02*
X52843905Y-142634381D01*
X53224858Y-142634381D01*
X53320096Y-142682000D01*
X53367715Y-142729619D01*
X53415334Y-142824857D01*
X53415334Y-142967714D01*
X53367715Y-143062952D01*
X53320096Y-143110571D01*
X53224858Y-143158190D01*
X52843905Y-143158190D01*
X53796286Y-142729619D02*
X53843905Y-142682000D01*
X53939143Y-142634381D01*
X54177239Y-142634381D01*
X54272477Y-142682000D01*
X54320096Y-142729619D01*
X54367715Y-142824857D01*
X54367715Y-142920095D01*
X54320096Y-143062952D01*
X53748667Y-143634381D01*
X54367715Y-143634381D01*
X65102381Y-114086905D02*
X65911905Y-114086905D01*
X66007143Y-114039286D01*
X66054762Y-113991667D01*
X66102381Y-113896429D01*
X66102381Y-113705952D01*
X66054762Y-113610714D01*
X66007143Y-113563095D01*
X65911905Y-113515476D01*
X65102381Y-113515476D01*
X66102381Y-112515476D02*
X66102381Y-113086905D01*
X66102381Y-112801191D02*
X65102381Y-112801191D01*
X65245238Y-112896429D01*
X65340476Y-112991667D01*
X65388095Y-113086905D01*
X85623381Y-114087905D02*
X86432905Y-114087905D01*
X86528143Y-114040286D01*
X86575762Y-113992667D01*
X86623381Y-113897429D01*
X86623381Y-113706952D01*
X86575762Y-113611714D01*
X86528143Y-113564095D01*
X86432905Y-113516476D01*
X85623381Y-113516476D01*
X85718619Y-113087905D02*
X85671000Y-113040286D01*
X85623381Y-112945048D01*
X85623381Y-112706952D01*
X85671000Y-112611714D01*
X85718619Y-112564095D01*
X85813857Y-112516476D01*
X85909095Y-112516476D01*
X86051952Y-112564095D01*
X86623381Y-113135524D01*
X86623381Y-112516476D01*
X64933334Y-152807143D02*
X64885715Y-152854762D01*
X64742858Y-152902381D01*
X64647620Y-152902381D01*
X64504762Y-152854762D01*
X64409524Y-152759524D01*
X64361905Y-152664286D01*
X64314286Y-152473810D01*
X64314286Y-152330952D01*
X64361905Y-152140476D01*
X64409524Y-152045238D01*
X64504762Y-151950000D01*
X64647620Y-151902381D01*
X64742858Y-151902381D01*
X64885715Y-151950000D01*
X64933334Y-151997619D01*
X65885715Y-152902381D02*
X65314286Y-152902381D01*
X65600000Y-152902381D02*
X65600000Y-151902381D01*
X65504762Y-152045238D01*
X65409524Y-152140476D01*
X65314286Y-152188095D01*
X75933334Y-161457143D02*
X75885715Y-161504762D01*
X75742858Y-161552381D01*
X75647620Y-161552381D01*
X75504762Y-161504762D01*
X75409524Y-161409524D01*
X75361905Y-161314286D01*
X75314286Y-161123810D01*
X75314286Y-160980952D01*
X75361905Y-160790476D01*
X75409524Y-160695238D01*
X75504762Y-160600000D01*
X75647620Y-160552381D01*
X75742858Y-160552381D01*
X75885715Y-160600000D01*
X75933334Y-160647619D01*
X76790477Y-160885714D02*
X76790477Y-161552381D01*
X76552381Y-160504762D02*
X76314286Y-161219048D01*
X76933334Y-161219048D01*
X75933334Y-164857143D02*
X75885715Y-164904762D01*
X75742858Y-164952381D01*
X75647620Y-164952381D01*
X75504762Y-164904762D01*
X75409524Y-164809524D01*
X75361905Y-164714286D01*
X75314286Y-164523810D01*
X75314286Y-164380952D01*
X75361905Y-164190476D01*
X75409524Y-164095238D01*
X75504762Y-164000000D01*
X75647620Y-163952381D01*
X75742858Y-163952381D01*
X75885715Y-164000000D01*
X75933334Y-164047619D01*
X76838096Y-163952381D02*
X76361905Y-163952381D01*
X76314286Y-164428571D01*
X76361905Y-164380952D01*
X76457143Y-164333333D01*
X76695239Y-164333333D01*
X76790477Y-164380952D01*
X76838096Y-164428571D01*
X76885715Y-164523810D01*
X76885715Y-164761905D01*
X76838096Y-164857143D01*
X76790477Y-164904762D01*
X76695239Y-164952381D01*
X76457143Y-164952381D01*
X76361905Y-164904762D01*
X76314286Y-164857143D01*
X64457143Y-148957143D02*
X64409524Y-149004762D01*
X64266667Y-149052381D01*
X64171429Y-149052381D01*
X64028571Y-149004762D01*
X63933333Y-148909524D01*
X63885714Y-148814286D01*
X63838095Y-148623810D01*
X63838095Y-148480952D01*
X63885714Y-148290476D01*
X63933333Y-148195238D01*
X64028571Y-148100000D01*
X64171429Y-148052381D01*
X64266667Y-148052381D01*
X64409524Y-148100000D01*
X64457143Y-148147619D01*
X64838095Y-148147619D02*
X64885714Y-148100000D01*
X64980952Y-148052381D01*
X65219048Y-148052381D01*
X65314286Y-148100000D01*
X65361905Y-148147619D01*
X65409524Y-148242857D01*
X65409524Y-148338095D01*
X65361905Y-148480952D01*
X64790476Y-149052381D01*
X65409524Y-149052381D01*
X65790476Y-148147619D02*
X65838095Y-148100000D01*
X65933333Y-148052381D01*
X66171429Y-148052381D01*
X66266667Y-148100000D01*
X66314286Y-148147619D01*
X66361905Y-148242857D01*
X66361905Y-148338095D01*
X66314286Y-148480952D01*
X65742857Y-149052381D01*
X66361905Y-149052381D01*
X76711905Y-156202381D02*
X76711905Y-155202381D01*
X76950000Y-155202381D01*
X77092858Y-155250000D01*
X77188096Y-155345238D01*
X77235715Y-155440476D01*
X77283334Y-155630952D01*
X77283334Y-155773810D01*
X77235715Y-155964286D01*
X77188096Y-156059524D01*
X77092858Y-156154762D01*
X76950000Y-156202381D01*
X76711905Y-156202381D01*
X78188096Y-155202381D02*
X77711905Y-155202381D01*
X77664286Y-155678571D01*
X77711905Y-155630952D01*
X77807143Y-155583333D01*
X78045239Y-155583333D01*
X78140477Y-155630952D01*
X78188096Y-155678571D01*
X78235715Y-155773810D01*
X78235715Y-156011905D01*
X78188096Y-156107143D01*
X78140477Y-156154762D01*
X78045239Y-156202381D01*
X77807143Y-156202381D01*
X77711905Y-156154762D01*
X77664286Y-156107143D01*
M02*
