G04 #@! TF.FileFunction,Copper,L2,Bot,Signal*
%FSLAX46Y46*%
G04 Gerber Fmt 4.6, Leading zero omitted, Abs format (unit mm)*
G04 Created by KiCad (PCBNEW 4.0.6) date 11/06/18 21:24:15*
%MOMM*%
%LPD*%
G01*
G04 APERTURE LIST*
%ADD10C,0.100000*%
%ADD11C,0.400000*%
%ADD12C,6.000000*%
%ADD13C,3.500000*%
%ADD14R,0.800000X1.300000*%
%ADD15R,1.800000X1.300000*%
%ADD16R,1.700000X1.700000*%
%ADD17O,1.700000X1.700000*%
%ADD18C,0.130000*%
%ADD19C,0.250000*%
%ADD20C,2.000000*%
%ADD21C,0.500000*%
%ADD22C,0.254000*%
G04 APERTURE END LIST*
D10*
D11*
X86600000Y-110100000D03*
X86600000Y-111900000D03*
X54350000Y-100300000D03*
X54950000Y-100275000D03*
X55775000Y-100300000D03*
X56550000Y-100300000D03*
X57550000Y-100225000D03*
X58400000Y-100325000D03*
X58450000Y-98600000D03*
X57825000Y-98600000D03*
X56975000Y-98550000D03*
X55925000Y-98575000D03*
X55050000Y-98550000D03*
X54300000Y-98600000D03*
X70850000Y-100575000D03*
X71325000Y-100525000D03*
X72300000Y-100500000D03*
X73150000Y-100575000D03*
X74050000Y-100575000D03*
X74825000Y-100625000D03*
X74775000Y-98475000D03*
X73825000Y-98450000D03*
X73100000Y-98475000D03*
X72500000Y-98450000D03*
X71800000Y-98475000D03*
X71050000Y-98525000D03*
X77400000Y-99375000D03*
X81900000Y-99275000D03*
X82700000Y-101900000D03*
X73450000Y-157000000D03*
X71650000Y-156775000D03*
X62575000Y-156425000D03*
X60525000Y-156200000D03*
X58375000Y-155625000D03*
X90200000Y-150875000D03*
X93625000Y-150900000D03*
X58525000Y-59300000D03*
X60150000Y-61000000D03*
X57700000Y-61675000D03*
X67100000Y-102150000D03*
X66800000Y-95600000D03*
X75850000Y-88500000D03*
X76350000Y-93325000D03*
X60575000Y-89325000D03*
X60625000Y-93150000D03*
X51300000Y-96500000D03*
X51300000Y-103050000D03*
X51175000Y-134575000D03*
X51200000Y-112950000D03*
X51200000Y-118700000D03*
X51125000Y-123425000D03*
X76500000Y-129250000D03*
X72025000Y-122900000D03*
X69775000Y-127600000D03*
X78250000Y-119600000D03*
X79600000Y-122775000D03*
X81675000Y-126775000D03*
X87325000Y-127425000D03*
X89525000Y-130200000D03*
X88400000Y-135150000D03*
X86350000Y-138575000D03*
X82750000Y-136025000D03*
X76925000Y-134100000D03*
X71550000Y-133900000D03*
X65525000Y-133675000D03*
X64075000Y-127425000D03*
X65950000Y-122300000D03*
X71750000Y-117425000D03*
X75125000Y-116600000D03*
X75900000Y-116475000D03*
X80100000Y-116475000D03*
X92200000Y-116625000D03*
X90175000Y-114850000D03*
X92575000Y-114375000D03*
X92925000Y-112025000D03*
X76400000Y-110750000D03*
X79150000Y-109950000D03*
X81075000Y-109850000D03*
X86525000Y-104900000D03*
X86550000Y-103575000D03*
X54700000Y-54950000D03*
X54925000Y-56075000D03*
X80300000Y-32825000D03*
X73375000Y-33000000D03*
X69675000Y-33100000D03*
X64750000Y-33475000D03*
X60750000Y-32050000D03*
X58775000Y-41925000D03*
X55350000Y-41250000D03*
X55700000Y-44800000D03*
X57150000Y-46775000D03*
X69775000Y-41350000D03*
X65425000Y-43925000D03*
X66075000Y-48000000D03*
X89500000Y-44775000D03*
X86275000Y-44475000D03*
X84475000Y-42675000D03*
X77650000Y-43150000D03*
X75950000Y-46950000D03*
X81075000Y-47150000D03*
X86350000Y-55050000D03*
X84175000Y-56125000D03*
X83500000Y-59275000D03*
X86625000Y-58075000D03*
X86475000Y-60225000D03*
X87450000Y-60575000D03*
X85650000Y-62675000D03*
X86925000Y-64075000D03*
X85250000Y-65325000D03*
X86700000Y-66850000D03*
X85175000Y-67475000D03*
X73700000Y-65425000D03*
X73725000Y-64150000D03*
X72725000Y-64400000D03*
X71225000Y-71075000D03*
X72525000Y-71350000D03*
X65450000Y-70625000D03*
X64800000Y-70450000D03*
X65550000Y-71375000D03*
X64650000Y-71475000D03*
X61200000Y-78700000D03*
X56950000Y-77950000D03*
D12*
X68700000Y-165800000D03*
X61500000Y-165800000D03*
D13*
X78700000Y-166700000D03*
X78700000Y-161700000D03*
X84400000Y-166700000D03*
X84400000Y-161700000D03*
D14*
X64650000Y-146820000D03*
D15*
X63350000Y-152020000D03*
X63350000Y-150720000D03*
X63350000Y-146820000D03*
X63350000Y-148120000D03*
X63350000Y-149420000D03*
D14*
X62050000Y-146820000D03*
X62050000Y-148120000D03*
X62050000Y-149420000D03*
X62050000Y-150720000D03*
X62050000Y-152020000D03*
X64650000Y-152020000D03*
X64650000Y-150720000D03*
X64650000Y-149420000D03*
X64650000Y-148120000D03*
D16*
X75300000Y-83300000D03*
D17*
X77840000Y-83300000D03*
D16*
X59260000Y-83300000D03*
D17*
X61800000Y-83300000D03*
D16*
X85100000Y-38100000D03*
D17*
X82560000Y-38100000D03*
D16*
X77100000Y-38100000D03*
D17*
X74560000Y-38100000D03*
D16*
X58820000Y-38100000D03*
D17*
X61360000Y-38100000D03*
X63900000Y-38100000D03*
X66440000Y-38100000D03*
D16*
X90000000Y-49360000D03*
D17*
X92540000Y-49360000D03*
X90000000Y-51900000D03*
X92540000Y-51900000D03*
X90000000Y-54440000D03*
X92540000Y-54440000D03*
X90000000Y-56980000D03*
X92540000Y-56980000D03*
X90000000Y-59520000D03*
X92540000Y-59520000D03*
X90000000Y-62060000D03*
X92540000Y-62060000D03*
X90000000Y-64600000D03*
X92540000Y-64600000D03*
X90000000Y-67140000D03*
X92540000Y-67140000D03*
X90000000Y-69680000D03*
X92540000Y-69680000D03*
X90000000Y-72220000D03*
X92540000Y-72220000D03*
X90000000Y-74760000D03*
X92540000Y-74760000D03*
X90000000Y-77300000D03*
X92540000Y-77300000D03*
X90000000Y-79840000D03*
X92540000Y-79840000D03*
X90000000Y-82380000D03*
X92540000Y-82380000D03*
X90000000Y-84920000D03*
X92540000Y-84920000D03*
X90000000Y-87460000D03*
X92540000Y-87460000D03*
X90000000Y-90000000D03*
X92540000Y-90000000D03*
X90000000Y-92540000D03*
X92540000Y-92540000D03*
X90000000Y-95080000D03*
X92540000Y-95080000D03*
X90000000Y-97620000D03*
X92540000Y-97620000D03*
D11*
X53375000Y-77700000D03*
X59300000Y-69500000D03*
X60945393Y-143206943D03*
X60400000Y-149090000D03*
X56300000Y-157800000D03*
X60500000Y-143900000D03*
X69600000Y-109600000D03*
X69600000Y-108900000D03*
X69600000Y-108200000D03*
X69600000Y-107500000D03*
X70200000Y-105900000D03*
X70800000Y-107500000D03*
X70800000Y-108200000D03*
X70800000Y-108900000D03*
X70800000Y-109600000D03*
X54400000Y-107600000D03*
X54400000Y-108600000D03*
X54400000Y-109600000D03*
X54400000Y-110600000D03*
X53900000Y-105900000D03*
X53400000Y-107600000D03*
X53400000Y-108600000D03*
X53400000Y-109600000D03*
X70300000Y-110600000D03*
X53400000Y-110600000D03*
X60400000Y-148450000D03*
X68200000Y-156300000D03*
X81800000Y-158000000D03*
X73000000Y-101900000D03*
X69000000Y-100600000D03*
X52600000Y-100600000D03*
X56400000Y-101900000D03*
X83505021Y-97800000D03*
X57850000Y-74945010D03*
X57200000Y-74900000D03*
X58350000Y-74900000D03*
X70800000Y-58300000D03*
X80400000Y-97600000D03*
X72400000Y-73700000D03*
X71700000Y-73700000D03*
X71100000Y-73700000D03*
X67300000Y-52100000D03*
X66300000Y-146500000D03*
X68600000Y-154800000D03*
X85729315Y-114270685D03*
X85150000Y-112500000D03*
X85700000Y-115200000D03*
X84400000Y-112500000D03*
X78650000Y-72250000D03*
X64729315Y-66770685D03*
X75900000Y-73250000D03*
X65658187Y-67295010D03*
X69500000Y-64000000D03*
X67000000Y-63600000D03*
X61900000Y-66400000D03*
X61500000Y-70400000D03*
X65608203Y-74154229D03*
X68627117Y-74304958D03*
X69567152Y-74699968D03*
X65520507Y-74676935D03*
X67188495Y-74959979D03*
X70727833Y-74959979D03*
X71253820Y-75219990D03*
X66120685Y-75219990D03*
X76937409Y-72853671D03*
X66200000Y-67295010D03*
X82390000Y-147505000D03*
X66300000Y-147150000D03*
X66200000Y-156200000D03*
X66300000Y-151690000D03*
X58622323Y-56720911D03*
X58050002Y-56150000D03*
X63150000Y-61200000D03*
X55750000Y-53250000D03*
X68500000Y-70700000D03*
X52900000Y-51100000D03*
X56250000Y-51200000D03*
X64000000Y-60800000D03*
X69200000Y-70600000D03*
X53500000Y-50400000D03*
X61795010Y-71900000D03*
X63500000Y-62500000D03*
X63500000Y-63030013D03*
X62200000Y-73500000D03*
X62969987Y-62500000D03*
X62770685Y-74070685D03*
X87700000Y-108100000D03*
X90900000Y-106600000D03*
X72700000Y-112000000D03*
X75400000Y-97300000D03*
X58800000Y-97300000D03*
X60400000Y-149750000D03*
X88500000Y-112600000D03*
X91400000Y-103700000D03*
X76975017Y-72324994D03*
X66900000Y-67295010D03*
X77219028Y-71854493D03*
X67800000Y-66900000D03*
X71000000Y-146600000D03*
X66300000Y-149090000D03*
X55600000Y-157500000D03*
X60400000Y-147800000D03*
X76475000Y-148050000D03*
X71000000Y-145100000D03*
D18*
X60945393Y-143489785D02*
X60945393Y-143206943D01*
X60400000Y-149090000D02*
X60945393Y-148544607D01*
X60945393Y-148544607D02*
X60945393Y-143489785D01*
D19*
X60400000Y-148450000D02*
X56300000Y-148450000D01*
X56300000Y-148450000D02*
X56300000Y-157800000D01*
X53400000Y-144750000D02*
X53400000Y-142400000D01*
X53400000Y-142400000D02*
X59600000Y-142400000D01*
X59600000Y-142400000D02*
X60500000Y-143300000D01*
X60500000Y-143300000D02*
X60500000Y-143900000D01*
D20*
X53400000Y-157700000D02*
X53400000Y-144750000D01*
X53400000Y-144750000D02*
X53400000Y-110600000D01*
D18*
X69600000Y-108900000D02*
X69600000Y-109600000D01*
X69600000Y-107500000D02*
X69600000Y-108200000D01*
X70800000Y-108200000D02*
X70800000Y-107500000D01*
X70800000Y-109600000D02*
X70800000Y-108900000D01*
X54400000Y-110600000D02*
X54400000Y-109600000D01*
D20*
X53400000Y-110600000D02*
X54400000Y-110600000D01*
X54400000Y-110600000D02*
X70300000Y-110600000D01*
D18*
X53400000Y-107600000D02*
X53400000Y-106400000D01*
X53400000Y-106400000D02*
X53900000Y-105900000D01*
X53400000Y-108600000D02*
X53400000Y-107600000D01*
X53400000Y-109600000D02*
X53400000Y-108600000D01*
D20*
X61500000Y-165800000D02*
X53400000Y-157700000D01*
D19*
X60366596Y-148450000D02*
X60400000Y-148450000D01*
D18*
X68200000Y-156300000D02*
X69900000Y-158000000D01*
X69900000Y-158000000D02*
X81800000Y-158000000D01*
D21*
X69000000Y-100600000D02*
X70250000Y-101850000D01*
X70250000Y-101850000D02*
X72950000Y-101850000D01*
X72950000Y-101850000D02*
X73000000Y-101900000D01*
D19*
X52600000Y-100600000D02*
X53900000Y-101900000D01*
X53900000Y-101900000D02*
X56400000Y-101900000D01*
X83305022Y-97600001D02*
X83505021Y-97800000D01*
X80400000Y-97600000D02*
X83305022Y-97600001D01*
D21*
X63959018Y-74945010D02*
X57850000Y-74945010D01*
X57850000Y-74945010D02*
X57627852Y-74945010D01*
X58350000Y-74900000D02*
X57895010Y-74900000D01*
X57895010Y-74900000D02*
X57850000Y-74945010D01*
X57627852Y-74945010D02*
X57582842Y-74900000D01*
X57582842Y-74900000D02*
X57200000Y-74900000D01*
D19*
X70800000Y-58300000D02*
X70800000Y-55600000D01*
D21*
X63959018Y-74945010D02*
X65404027Y-73500001D01*
X70900001Y-73500001D02*
X71100000Y-73700000D01*
X65404027Y-73500001D02*
X70900001Y-73500001D01*
X64930180Y-74945010D02*
X63959018Y-74945010D01*
X77840000Y-83300000D02*
X77840000Y-82097919D01*
X77840000Y-82097919D02*
X71542072Y-75799991D01*
X71542072Y-75799991D02*
X65785161Y-75799991D01*
X65785161Y-75799991D02*
X64930180Y-74945010D01*
X71700000Y-73700000D02*
X72400000Y-73700000D01*
X71100000Y-73700000D02*
X71700000Y-73700000D01*
D19*
X70800000Y-55600000D02*
X67300000Y-52100000D01*
X68600000Y-154800000D02*
X68600000Y-154250000D01*
X68600000Y-154250000D02*
X67700000Y-153350000D01*
X67700000Y-153350000D02*
X67700000Y-151200000D01*
X67700000Y-151200000D02*
X65700000Y-149200000D01*
X65700000Y-149200000D02*
X65700000Y-147100000D01*
X65700000Y-147100000D02*
X66300000Y-146500000D01*
D18*
X85529316Y-114070686D02*
X85729315Y-114270685D01*
X85150000Y-112500000D02*
X85150000Y-113691370D01*
X85150000Y-113691370D02*
X85529316Y-114070686D01*
X85500001Y-115000001D02*
X85700000Y-115200000D01*
X84400000Y-113900000D02*
X85500001Y-115000001D01*
X84400000Y-112500000D02*
X84400000Y-113900000D01*
X64729315Y-66770685D02*
X64995002Y-66504998D01*
X78450001Y-72050001D02*
X78650000Y-72250000D01*
X72904998Y-66504998D02*
X78450001Y-72050001D01*
X64995002Y-66504998D02*
X72904998Y-66504998D01*
X65658187Y-67295010D02*
X65658187Y-67577852D01*
X72694987Y-70044987D02*
X75700001Y-73050001D01*
X75700001Y-73050001D02*
X75900000Y-73250000D01*
X68125322Y-70044987D02*
X72694987Y-70044987D01*
X65658187Y-67577852D02*
X68125322Y-70044987D01*
X67000000Y-63600000D02*
X69100000Y-63600000D01*
X69100000Y-63600000D02*
X69500000Y-64000000D01*
X61500000Y-70400000D02*
X61500000Y-66800000D01*
X61500000Y-66800000D02*
X61900000Y-66400000D01*
X68627117Y-74304958D02*
X65758932Y-74304958D01*
X65758932Y-74304958D02*
X65608203Y-74154229D01*
X65803349Y-74676935D02*
X65520507Y-74676935D01*
X67513088Y-74699968D02*
X67378097Y-74564977D01*
X69567152Y-74699968D02*
X67513088Y-74699968D01*
X67378097Y-74564977D02*
X65915307Y-74564977D01*
X65915307Y-74564977D02*
X65803349Y-74676935D01*
X67606336Y-75094978D02*
X67471337Y-74959979D01*
X70309992Y-75094978D02*
X67606336Y-75094978D01*
X70727833Y-74959979D02*
X70444991Y-74959979D01*
X67471337Y-74959979D02*
X67188495Y-74959979D01*
X70444991Y-74959979D02*
X70309992Y-75094978D01*
X66403527Y-75219990D02*
X66120685Y-75219990D01*
X66538526Y-75354989D02*
X66403527Y-75219990D01*
X71118821Y-75354989D02*
X66538526Y-75354989D01*
X71253820Y-75219990D02*
X71118821Y-75354989D01*
X73868714Y-69784976D02*
X76737410Y-72653672D01*
X68689966Y-69784976D02*
X73868714Y-69784976D01*
X76737410Y-72653672D02*
X76937409Y-72853671D01*
X66200000Y-67295010D02*
X68689966Y-69784976D01*
X76300000Y-142300000D02*
X71650000Y-142300000D01*
X71650000Y-142300000D02*
X66800000Y-147150000D01*
X66800000Y-147150000D02*
X66300000Y-147150000D01*
X81150000Y-147150000D02*
X76300000Y-142300000D01*
X82035000Y-147150000D02*
X81150000Y-147150000D01*
X82035000Y-147150000D02*
X82390000Y-147505000D01*
X66300000Y-151690000D02*
X66300000Y-156100000D01*
X66300000Y-156100000D02*
X66200000Y-156200000D01*
X58620913Y-56720911D02*
X58622323Y-56720911D01*
X58050002Y-56150000D02*
X58620913Y-56720911D01*
X63895002Y-62095002D02*
X63895002Y-61945002D01*
X63895002Y-61945002D02*
X63150000Y-61200000D01*
X52900000Y-51100000D02*
X53600000Y-51100000D01*
X53600000Y-51100000D02*
X55750000Y-53250000D01*
X68217158Y-70700000D02*
X68500000Y-70700000D01*
X63895002Y-67295002D02*
X67300000Y-70700000D01*
X67300000Y-70700000D02*
X68217158Y-70700000D01*
X63895002Y-62095002D02*
X63895002Y-67295002D01*
X56250000Y-51200000D02*
X55450000Y-50400000D01*
X55450000Y-50400000D02*
X53500000Y-50400000D01*
X64200000Y-61100000D02*
X64200000Y-61000000D01*
X64200000Y-61000000D02*
X64000000Y-60800000D01*
X69000001Y-70400001D02*
X69200000Y-70600000D01*
X67704998Y-70304998D02*
X68904998Y-70304998D01*
X64200000Y-61100000D02*
X64200000Y-66800000D01*
X64200000Y-66800000D02*
X67704998Y-70304998D01*
X68904998Y-70304998D02*
X69000001Y-70400001D01*
X61995009Y-71700001D02*
X61795010Y-71900000D01*
X62300000Y-71395010D02*
X61995009Y-71700001D01*
X63182842Y-61900000D02*
X62600000Y-61900000D01*
X63500000Y-62217158D02*
X63182842Y-61900000D01*
X62600000Y-61900000D02*
X62300000Y-62200000D01*
X63500000Y-62500000D02*
X63500000Y-62217158D01*
X62300000Y-62200000D02*
X62300000Y-71395010D01*
X63500000Y-73900000D02*
X63500000Y-63312855D01*
X63500000Y-63312855D02*
X63500000Y-63030013D01*
X62200000Y-74100000D02*
X62600000Y-74500000D01*
X62900000Y-74500000D02*
X63500000Y-73900000D01*
X62200000Y-73500000D02*
X62200000Y-74100000D01*
X62600000Y-74500000D02*
X62900000Y-74500000D01*
X62770685Y-62699302D02*
X62969987Y-62500000D01*
X62770685Y-74070685D02*
X62770685Y-62699302D01*
X87700000Y-108100000D02*
X87700000Y-112032290D01*
X87700000Y-112032290D02*
X87867710Y-112200000D01*
X87867710Y-112200000D02*
X89200000Y-112200000D01*
X89200000Y-112200000D02*
X89600000Y-111800000D01*
X89600000Y-111800000D02*
X89600000Y-99800000D01*
X89600000Y-99800000D02*
X91200000Y-98200000D01*
X91200000Y-96420000D02*
X91690001Y-95929999D01*
X91200000Y-98200000D02*
X91200000Y-96420000D01*
X91690001Y-95929999D02*
X92540000Y-95080000D01*
X90900000Y-106600000D02*
X90900000Y-99260000D01*
X90900000Y-99260000D02*
X92540000Y-97620000D01*
X61295001Y-123404999D02*
X72500001Y-112199999D01*
X61295001Y-142971947D02*
X61295001Y-123404999D01*
X61340395Y-143017341D02*
X61295001Y-142971947D01*
X72500001Y-112199999D02*
X72700000Y-112000000D01*
X61295001Y-143441939D02*
X61340395Y-143396545D01*
X61295001Y-149354999D02*
X61295001Y-143441939D01*
X60900000Y-149750000D02*
X61295001Y-149354999D01*
X60400000Y-149750000D02*
X60900000Y-149750000D01*
X61340395Y-143396545D02*
X61340395Y-143017341D01*
X75400000Y-97300000D02*
X75850000Y-97750000D01*
X75850000Y-97750000D02*
X75850000Y-108850000D01*
X75850000Y-108850000D02*
X72899999Y-111800001D01*
X72899999Y-111800001D02*
X72700000Y-112000000D01*
X58800000Y-97300000D02*
X75400000Y-97300000D01*
X91850000Y-111800000D02*
X91050000Y-112600000D01*
X91050000Y-112600000D02*
X88500000Y-112600000D01*
X91850000Y-111700000D02*
X91850000Y-111800000D01*
X91850000Y-104432842D02*
X91850000Y-111700000D01*
X91400000Y-103700000D02*
X91400000Y-103982842D01*
X91400000Y-103982842D02*
X91850000Y-104432842D01*
X66900000Y-67295010D02*
X71945033Y-67295010D01*
X76775018Y-72124995D02*
X76975017Y-72324994D01*
X71945033Y-67295010D02*
X76775018Y-72124995D01*
X77019029Y-71654494D02*
X77219028Y-71854493D01*
X72264535Y-66900000D02*
X77019029Y-71654494D01*
X67800000Y-66900000D02*
X72264535Y-66900000D01*
X66300000Y-149090000D02*
X68510000Y-149090000D01*
X68510000Y-149090000D02*
X71000000Y-146600000D01*
D19*
X60400000Y-147800000D02*
X55900000Y-147800000D01*
X55900000Y-147800000D02*
X55900000Y-157200000D01*
X55900000Y-157200000D02*
X55600000Y-157500000D01*
X60300000Y-147800000D02*
X60400000Y-147800000D01*
D18*
X71000000Y-145100000D02*
X73525000Y-145100000D01*
X73525000Y-145100000D02*
X76475000Y-148050000D01*
D22*
G36*
X93488338Y-30821046D02*
X93902333Y-31097669D01*
X94178953Y-31511660D01*
X94290000Y-32069931D01*
X94290000Y-167930069D01*
X94178953Y-168488340D01*
X93902333Y-168902331D01*
X93488338Y-169178954D01*
X92930069Y-169290000D01*
X62572325Y-169290000D01*
X63556372Y-168883400D01*
X64579806Y-167861751D01*
X64949128Y-166972325D01*
X89114587Y-166972325D01*
X89476916Y-167849229D01*
X90147242Y-168520726D01*
X91023513Y-168884585D01*
X91972325Y-168885413D01*
X92849229Y-168523084D01*
X93520726Y-167852758D01*
X93884585Y-166976487D01*
X93885413Y-166027675D01*
X93523084Y-165150771D01*
X92852758Y-164479274D01*
X91976487Y-164115415D01*
X91027675Y-164114587D01*
X90150771Y-164476916D01*
X89479274Y-165147242D01*
X89115415Y-166023513D01*
X89114587Y-166972325D01*
X64949128Y-166972325D01*
X65134368Y-166526218D01*
X65135630Y-165080126D01*
X64583400Y-163743628D01*
X63561751Y-162720194D01*
X62242337Y-162172325D01*
X76314587Y-162172325D01*
X76676916Y-163049229D01*
X77347242Y-163720726D01*
X78223513Y-164084585D01*
X79172325Y-164085413D01*
X80049229Y-163723084D01*
X80720726Y-163052758D01*
X81084585Y-162176487D01*
X81084588Y-162172325D01*
X82014587Y-162172325D01*
X82376916Y-163049229D01*
X83047242Y-163720726D01*
X83923513Y-164084585D01*
X84872325Y-164085413D01*
X85749229Y-163723084D01*
X86420726Y-163052758D01*
X86784585Y-162176487D01*
X86785413Y-161227675D01*
X86423084Y-160350771D01*
X85752758Y-159679274D01*
X84876487Y-159315415D01*
X83927675Y-159314587D01*
X83050771Y-159676916D01*
X82379274Y-160347242D01*
X82015415Y-161223513D01*
X82014587Y-162172325D01*
X81084588Y-162172325D01*
X81085413Y-161227675D01*
X80723084Y-160350771D01*
X80052758Y-159679274D01*
X79176487Y-159315415D01*
X78227675Y-159314587D01*
X77350771Y-159676916D01*
X76679274Y-160347242D01*
X76315415Y-161223513D01*
X76314587Y-162172325D01*
X62242337Y-162172325D01*
X62226218Y-162165632D01*
X60780126Y-162164370D01*
X60353067Y-162340827D01*
X56594165Y-158581925D01*
X56772372Y-158508292D01*
X57007466Y-158273607D01*
X57134855Y-157966821D01*
X57135145Y-157634637D01*
X57060000Y-157452771D01*
X57060000Y-149210000D01*
X59564895Y-149210000D01*
X59564855Y-149255363D01*
X59632892Y-149420026D01*
X59565145Y-149583179D01*
X59564855Y-149915363D01*
X59691708Y-150222372D01*
X59926393Y-150457466D01*
X60233179Y-150584855D01*
X60565363Y-150585145D01*
X60872372Y-150458292D01*
X60880678Y-150450000D01*
X60900000Y-150450000D01*
X61167879Y-150396716D01*
X61394975Y-150244975D01*
X61789976Y-149849974D01*
X61941717Y-149622878D01*
X61995002Y-149354999D01*
X61995001Y-149354994D01*
X61995001Y-147100000D01*
X64940000Y-147100000D01*
X64940000Y-149200000D01*
X64997852Y-149490839D01*
X65162599Y-149737401D01*
X66280180Y-150854982D01*
X66134637Y-150854855D01*
X65827628Y-150981708D01*
X65592534Y-151216393D01*
X65465145Y-151523179D01*
X65464855Y-151855363D01*
X65591708Y-152162372D01*
X65600000Y-152170678D01*
X65600000Y-155619114D01*
X65492534Y-155726393D01*
X65365145Y-156033179D01*
X65364855Y-156365363D01*
X65491708Y-156672372D01*
X65726393Y-156907466D01*
X66033179Y-157034855D01*
X66365363Y-157035145D01*
X66672372Y-156908292D01*
X66907466Y-156673607D01*
X67034855Y-156366821D01*
X67035145Y-156034637D01*
X67000000Y-155949579D01*
X67000000Y-153644054D01*
X67162599Y-153887401D01*
X67807170Y-154531972D01*
X67765145Y-154633179D01*
X67764855Y-154965363D01*
X67891708Y-155272372D01*
X68083899Y-155464898D01*
X68034637Y-155464855D01*
X67727628Y-155591708D01*
X67492534Y-155826393D01*
X67365145Y-156133179D01*
X67364855Y-156465363D01*
X67491708Y-156772372D01*
X67726393Y-157007466D01*
X68033179Y-157134855D01*
X68044915Y-157134865D01*
X69405025Y-158494975D01*
X69632121Y-158646716D01*
X69900000Y-158700000D01*
X81318940Y-158700000D01*
X81326393Y-158707466D01*
X81633179Y-158834855D01*
X81965363Y-158835145D01*
X82272372Y-158708292D01*
X82507466Y-158473607D01*
X82634855Y-158166821D01*
X82635145Y-157834637D01*
X82508292Y-157527628D01*
X82273607Y-157292534D01*
X81966821Y-157165145D01*
X81634637Y-157164855D01*
X81327628Y-157291708D01*
X81319322Y-157300000D01*
X70189950Y-157300000D01*
X69035136Y-156145186D01*
X69035145Y-156134637D01*
X68908292Y-155827628D01*
X68716101Y-155635102D01*
X68765363Y-155635145D01*
X69072372Y-155508292D01*
X69307466Y-155273607D01*
X69434855Y-154966821D01*
X69435145Y-154634637D01*
X69360000Y-154452771D01*
X69360000Y-154250000D01*
X69328678Y-154092534D01*
X69302148Y-153959160D01*
X69137401Y-153712599D01*
X68460000Y-153035198D01*
X68460000Y-151200000D01*
X68402148Y-150909161D01*
X68237401Y-150662599D01*
X67364802Y-149790000D01*
X68510000Y-149790000D01*
X68777879Y-149736716D01*
X69004975Y-149584975D01*
X71154814Y-147435136D01*
X71165363Y-147435145D01*
X71472372Y-147308292D01*
X71707466Y-147073607D01*
X71834855Y-146766821D01*
X71835145Y-146434637D01*
X71708292Y-146127628D01*
X71473607Y-145892534D01*
X71371302Y-145850053D01*
X71472372Y-145808292D01*
X71480678Y-145800000D01*
X73235050Y-145800000D01*
X75639864Y-148204814D01*
X75639855Y-148215363D01*
X75766708Y-148522372D01*
X76001393Y-148757466D01*
X76308179Y-148884855D01*
X76640363Y-148885145D01*
X76947372Y-148758292D01*
X77182466Y-148523607D01*
X77309855Y-148216821D01*
X77310145Y-147884637D01*
X77183292Y-147577628D01*
X76948607Y-147342534D01*
X76641821Y-147215145D01*
X76630085Y-147215135D01*
X74019975Y-144605025D01*
X73792879Y-144453284D01*
X73525000Y-144400000D01*
X71481060Y-144400000D01*
X71473607Y-144392534D01*
X71166821Y-144265145D01*
X70834637Y-144264855D01*
X70562757Y-144377193D01*
X71939950Y-143000000D01*
X76010050Y-143000000D01*
X80655025Y-147644975D01*
X80882121Y-147796716D01*
X81150000Y-147850001D01*
X81150005Y-147850000D01*
X81629079Y-147850000D01*
X81681708Y-147977372D01*
X81916393Y-148212466D01*
X82223179Y-148339855D01*
X82555363Y-148340145D01*
X82862372Y-148213292D01*
X83097466Y-147978607D01*
X83224855Y-147671821D01*
X83225145Y-147339637D01*
X83098292Y-147032628D01*
X82863607Y-146797534D01*
X82556821Y-146670145D01*
X82545085Y-146670135D01*
X82529975Y-146655025D01*
X82302879Y-146503284D01*
X82035000Y-146450000D01*
X81439950Y-146450000D01*
X76794975Y-141805025D01*
X76567879Y-141653284D01*
X76300000Y-141600000D01*
X71650005Y-141600000D01*
X71650000Y-141599999D01*
X71382121Y-141653284D01*
X71155025Y-141805025D01*
X66970390Y-145989660D01*
X66773607Y-145792534D01*
X66466821Y-145665145D01*
X66134637Y-145664855D01*
X65827628Y-145791708D01*
X65592534Y-146026393D01*
X65517071Y-146208127D01*
X65162599Y-146562599D01*
X64997852Y-146809161D01*
X64940000Y-147100000D01*
X61995001Y-147100000D01*
X61995001Y-143624758D01*
X62040395Y-143396545D01*
X62040395Y-143017341D01*
X61995001Y-142789129D01*
X61995001Y-123694949D01*
X72854814Y-112835136D01*
X72865363Y-112835145D01*
X73172372Y-112708292D01*
X73215375Y-112665363D01*
X83564855Y-112665363D01*
X83691708Y-112972372D01*
X83700000Y-112980678D01*
X83700000Y-113900000D01*
X83753284Y-114167879D01*
X83905025Y-114394975D01*
X84864864Y-115354814D01*
X84864855Y-115365363D01*
X84991708Y-115672372D01*
X85226393Y-115907466D01*
X85533179Y-116034855D01*
X85865363Y-116035145D01*
X86172372Y-115908292D01*
X86407466Y-115673607D01*
X86534855Y-115366821D01*
X86535145Y-115034637D01*
X86421486Y-114759560D01*
X86436781Y-114744292D01*
X86564170Y-114437506D01*
X86564460Y-114105322D01*
X86437607Y-113798313D01*
X86202922Y-113563219D01*
X85896136Y-113435830D01*
X85884400Y-113435820D01*
X85850000Y-113401420D01*
X85850000Y-112981060D01*
X85857466Y-112973607D01*
X85984855Y-112666821D01*
X85985145Y-112334637D01*
X85858292Y-112027628D01*
X85623607Y-111792534D01*
X85316821Y-111665145D01*
X84984637Y-111664855D01*
X84774863Y-111751532D01*
X84566821Y-111665145D01*
X84234637Y-111664855D01*
X83927628Y-111791708D01*
X83692534Y-112026393D01*
X83565145Y-112333179D01*
X83564855Y-112665363D01*
X73215375Y-112665363D01*
X73407466Y-112473607D01*
X73534855Y-112166821D01*
X73534865Y-112155085D01*
X76344972Y-109344977D01*
X76344975Y-109344975D01*
X76496716Y-109117878D01*
X76550000Y-108850000D01*
X76550000Y-108265363D01*
X86864855Y-108265363D01*
X86991708Y-108572372D01*
X87000000Y-108580678D01*
X87000000Y-112032290D01*
X87053284Y-112300169D01*
X87205025Y-112527265D01*
X87372735Y-112694975D01*
X87599831Y-112846716D01*
X87707302Y-112868094D01*
X87791708Y-113072372D01*
X88026393Y-113307466D01*
X88333179Y-113434855D01*
X88665363Y-113435145D01*
X88972372Y-113308292D01*
X88980678Y-113300000D01*
X91050000Y-113300000D01*
X91317879Y-113246716D01*
X91544975Y-113094975D01*
X92344975Y-112294975D01*
X92496716Y-112067879D01*
X92550000Y-111800000D01*
X92550000Y-104432842D01*
X92544952Y-104407466D01*
X92496716Y-104164963D01*
X92344975Y-103937867D01*
X92234889Y-103827781D01*
X92235145Y-103534637D01*
X92108292Y-103227628D01*
X91873607Y-102992534D01*
X91600000Y-102878922D01*
X91600000Y-99549950D01*
X92122257Y-99027693D01*
X92510907Y-99105000D01*
X92569093Y-99105000D01*
X93137378Y-98991961D01*
X93619147Y-98670054D01*
X93941054Y-98188285D01*
X94054093Y-97620000D01*
X93941054Y-97051715D01*
X93619147Y-96569946D01*
X93289974Y-96350000D01*
X93619147Y-96130054D01*
X93941054Y-95648285D01*
X94054093Y-95080000D01*
X93941054Y-94511715D01*
X93619147Y-94029946D01*
X93289974Y-93810000D01*
X93619147Y-93590054D01*
X93941054Y-93108285D01*
X94054093Y-92540000D01*
X93941054Y-91971715D01*
X93619147Y-91489946D01*
X93137378Y-91168039D01*
X92569093Y-91055000D01*
X92510907Y-91055000D01*
X91942622Y-91168039D01*
X91460853Y-91489946D01*
X91270000Y-91775578D01*
X91079147Y-91489946D01*
X90749974Y-91270000D01*
X91079147Y-91050054D01*
X91401054Y-90568285D01*
X91514093Y-90000000D01*
X91401054Y-89431715D01*
X91079147Y-88949946D01*
X90749974Y-88730000D01*
X91079147Y-88510054D01*
X91270000Y-88224422D01*
X91460853Y-88510054D01*
X91942622Y-88831961D01*
X92510907Y-88945000D01*
X92569093Y-88945000D01*
X93137378Y-88831961D01*
X93619147Y-88510054D01*
X93941054Y-88028285D01*
X94054093Y-87460000D01*
X93941054Y-86891715D01*
X93619147Y-86409946D01*
X93137378Y-86088039D01*
X92569093Y-85975000D01*
X92510907Y-85975000D01*
X91942622Y-86088039D01*
X91460853Y-86409946D01*
X91270000Y-86695578D01*
X91079147Y-86409946D01*
X90749974Y-86190000D01*
X91079147Y-85970054D01*
X91401054Y-85488285D01*
X91514093Y-84920000D01*
X91401054Y-84351715D01*
X91079147Y-83869946D01*
X90749974Y-83650000D01*
X91079147Y-83430054D01*
X91270000Y-83144422D01*
X91460853Y-83430054D01*
X91942622Y-83751961D01*
X92510907Y-83865000D01*
X92569093Y-83865000D01*
X93137378Y-83751961D01*
X93619147Y-83430054D01*
X93941054Y-82948285D01*
X94054093Y-82380000D01*
X93941054Y-81811715D01*
X93619147Y-81329946D01*
X93289974Y-81110000D01*
X93619147Y-80890054D01*
X93941054Y-80408285D01*
X94054093Y-79840000D01*
X93941054Y-79271715D01*
X93619147Y-78789946D01*
X93289974Y-78570000D01*
X93619147Y-78350054D01*
X93941054Y-77868285D01*
X94054093Y-77300000D01*
X93941054Y-76731715D01*
X93619147Y-76249946D01*
X93289974Y-76030000D01*
X93619147Y-75810054D01*
X93941054Y-75328285D01*
X94054093Y-74760000D01*
X93941054Y-74191715D01*
X93619147Y-73709946D01*
X93137378Y-73388039D01*
X92569093Y-73275000D01*
X92510907Y-73275000D01*
X91942622Y-73388039D01*
X91460853Y-73709946D01*
X91270000Y-73995578D01*
X91079147Y-73709946D01*
X90749974Y-73490000D01*
X91079147Y-73270054D01*
X91401054Y-72788285D01*
X91514093Y-72220000D01*
X91401054Y-71651715D01*
X91079147Y-71169946D01*
X90749974Y-70950000D01*
X91079147Y-70730054D01*
X91270000Y-70444422D01*
X91460853Y-70730054D01*
X91942622Y-71051961D01*
X92510907Y-71165000D01*
X92569093Y-71165000D01*
X93137378Y-71051961D01*
X93619147Y-70730054D01*
X93941054Y-70248285D01*
X94054093Y-69680000D01*
X93941054Y-69111715D01*
X93619147Y-68629946D01*
X93289974Y-68410000D01*
X93619147Y-68190054D01*
X93941054Y-67708285D01*
X94054093Y-67140000D01*
X93941054Y-66571715D01*
X93619147Y-66089946D01*
X93137378Y-65768039D01*
X92569093Y-65655000D01*
X92510907Y-65655000D01*
X91942622Y-65768039D01*
X91460853Y-66089946D01*
X91270000Y-66375578D01*
X91079147Y-66089946D01*
X90749974Y-65870000D01*
X91079147Y-65650054D01*
X91401054Y-65168285D01*
X91514093Y-64600000D01*
X91401054Y-64031715D01*
X91079147Y-63549946D01*
X90749974Y-63330000D01*
X91079147Y-63110054D01*
X91270000Y-62824422D01*
X91460853Y-63110054D01*
X91942622Y-63431961D01*
X92510907Y-63545000D01*
X92569093Y-63545000D01*
X93137378Y-63431961D01*
X93619147Y-63110054D01*
X93941054Y-62628285D01*
X94054093Y-62060000D01*
X93941054Y-61491715D01*
X93619147Y-61009946D01*
X93289974Y-60790000D01*
X93619147Y-60570054D01*
X93941054Y-60088285D01*
X94054093Y-59520000D01*
X93941054Y-58951715D01*
X93619147Y-58469946D01*
X93289974Y-58250000D01*
X93619147Y-58030054D01*
X93941054Y-57548285D01*
X94054093Y-56980000D01*
X93941054Y-56411715D01*
X93619147Y-55929946D01*
X93137378Y-55608039D01*
X92569093Y-55495000D01*
X92510907Y-55495000D01*
X91942622Y-55608039D01*
X91460853Y-55929946D01*
X91270000Y-56215578D01*
X91079147Y-55929946D01*
X90749974Y-55710000D01*
X91079147Y-55490054D01*
X91401054Y-55008285D01*
X91514093Y-54440000D01*
X91401054Y-53871715D01*
X91079147Y-53389946D01*
X90749974Y-53170000D01*
X91079147Y-52950054D01*
X91270000Y-52664422D01*
X91460853Y-52950054D01*
X91942622Y-53271961D01*
X92510907Y-53385000D01*
X92569093Y-53385000D01*
X93137378Y-53271961D01*
X93619147Y-52950054D01*
X93941054Y-52468285D01*
X94054093Y-51900000D01*
X93941054Y-51331715D01*
X93619147Y-50849946D01*
X93289974Y-50630000D01*
X93619147Y-50410054D01*
X93941054Y-49928285D01*
X94054093Y-49360000D01*
X93941054Y-48791715D01*
X93619147Y-48309946D01*
X93137378Y-47988039D01*
X92569093Y-47875000D01*
X92510907Y-47875000D01*
X91942622Y-47988039D01*
X91460853Y-48309946D01*
X91460029Y-48311179D01*
X91453162Y-48274683D01*
X91314090Y-48058559D01*
X91101890Y-47913569D01*
X90850000Y-47862560D01*
X89150000Y-47862560D01*
X88914683Y-47906838D01*
X88698559Y-48045910D01*
X88553569Y-48258110D01*
X88502560Y-48510000D01*
X88502560Y-50210000D01*
X88546838Y-50445317D01*
X88685910Y-50661441D01*
X88898110Y-50806431D01*
X88965541Y-50820086D01*
X88920853Y-50849946D01*
X88598946Y-51331715D01*
X88485907Y-51900000D01*
X88598946Y-52468285D01*
X88920853Y-52950054D01*
X89250026Y-53170000D01*
X88920853Y-53389946D01*
X88598946Y-53871715D01*
X88485907Y-54440000D01*
X88598946Y-55008285D01*
X88920853Y-55490054D01*
X89250026Y-55710000D01*
X88920853Y-55929946D01*
X88598946Y-56411715D01*
X88485907Y-56980000D01*
X88598946Y-57548285D01*
X88920853Y-58030054D01*
X89402622Y-58351961D01*
X89970907Y-58465000D01*
X90029093Y-58465000D01*
X90597378Y-58351961D01*
X91079147Y-58030054D01*
X91270000Y-57744422D01*
X91460853Y-58030054D01*
X91790026Y-58250000D01*
X91460853Y-58469946D01*
X91138946Y-58951715D01*
X91025907Y-59520000D01*
X91138946Y-60088285D01*
X91460853Y-60570054D01*
X91790026Y-60790000D01*
X91460853Y-61009946D01*
X91270000Y-61295578D01*
X91079147Y-61009946D01*
X90597378Y-60688039D01*
X90029093Y-60575000D01*
X89970907Y-60575000D01*
X89402622Y-60688039D01*
X88920853Y-61009946D01*
X88598946Y-61491715D01*
X88485907Y-62060000D01*
X88598946Y-62628285D01*
X88920853Y-63110054D01*
X89250026Y-63330000D01*
X88920853Y-63549946D01*
X88598946Y-64031715D01*
X88485907Y-64600000D01*
X88598946Y-65168285D01*
X88920853Y-65650054D01*
X89250026Y-65870000D01*
X88920853Y-66089946D01*
X88598946Y-66571715D01*
X88485907Y-67140000D01*
X88598946Y-67708285D01*
X88920853Y-68190054D01*
X89250026Y-68410000D01*
X88920853Y-68629946D01*
X88598946Y-69111715D01*
X88485907Y-69680000D01*
X88598946Y-70248285D01*
X88920853Y-70730054D01*
X89250026Y-70950000D01*
X88920853Y-71169946D01*
X88598946Y-71651715D01*
X88485907Y-72220000D01*
X88598946Y-72788285D01*
X88920853Y-73270054D01*
X89250026Y-73490000D01*
X88920853Y-73709946D01*
X88598946Y-74191715D01*
X88485907Y-74760000D01*
X88598946Y-75328285D01*
X88920853Y-75810054D01*
X89250026Y-76030000D01*
X88920853Y-76249946D01*
X88598946Y-76731715D01*
X88485907Y-77300000D01*
X88598946Y-77868285D01*
X88920853Y-78350054D01*
X89402622Y-78671961D01*
X89970907Y-78785000D01*
X90029093Y-78785000D01*
X90597378Y-78671961D01*
X91079147Y-78350054D01*
X91270000Y-78064422D01*
X91460853Y-78350054D01*
X91790026Y-78570000D01*
X91460853Y-78789946D01*
X91138946Y-79271715D01*
X91025907Y-79840000D01*
X91138946Y-80408285D01*
X91460853Y-80890054D01*
X91790026Y-81110000D01*
X91460853Y-81329946D01*
X91270000Y-81615578D01*
X91079147Y-81329946D01*
X90597378Y-81008039D01*
X90029093Y-80895000D01*
X89970907Y-80895000D01*
X89402622Y-81008039D01*
X88920853Y-81329946D01*
X88598946Y-81811715D01*
X88485907Y-82380000D01*
X88598946Y-82948285D01*
X88920853Y-83430054D01*
X89250026Y-83650000D01*
X88920853Y-83869946D01*
X88598946Y-84351715D01*
X88485907Y-84920000D01*
X88598946Y-85488285D01*
X88920853Y-85970054D01*
X89250026Y-86190000D01*
X88920853Y-86409946D01*
X88598946Y-86891715D01*
X88485907Y-87460000D01*
X88598946Y-88028285D01*
X88920853Y-88510054D01*
X89250026Y-88730000D01*
X88920853Y-88949946D01*
X88598946Y-89431715D01*
X88485907Y-90000000D01*
X88598946Y-90568285D01*
X88920853Y-91050054D01*
X89250026Y-91270000D01*
X88920853Y-91489946D01*
X88598946Y-91971715D01*
X88485907Y-92540000D01*
X88598946Y-93108285D01*
X88920853Y-93590054D01*
X89250026Y-93810000D01*
X88920853Y-94029946D01*
X88598946Y-94511715D01*
X88485907Y-95080000D01*
X88598946Y-95648285D01*
X88920853Y-96130054D01*
X89402622Y-96451961D01*
X89970907Y-96565000D01*
X90029093Y-96565000D01*
X90500000Y-96471331D01*
X90500000Y-97910050D01*
X89105025Y-99305025D01*
X88953284Y-99532121D01*
X88953284Y-99532122D01*
X88900000Y-99800000D01*
X88900000Y-111500000D01*
X88400000Y-111500000D01*
X88400000Y-108581060D01*
X88407466Y-108573607D01*
X88534855Y-108266821D01*
X88535145Y-107934637D01*
X88408292Y-107627628D01*
X88173607Y-107392534D01*
X87866821Y-107265145D01*
X87534637Y-107264855D01*
X87227628Y-107391708D01*
X86992534Y-107626393D01*
X86865145Y-107933179D01*
X86864855Y-108265363D01*
X76550000Y-108265363D01*
X76550000Y-97765363D01*
X79564855Y-97765363D01*
X79691708Y-98072372D01*
X79926393Y-98307466D01*
X80233179Y-98434855D01*
X80565363Y-98435145D01*
X80747228Y-98360000D01*
X82884205Y-98360001D01*
X83031414Y-98507466D01*
X83338200Y-98634855D01*
X83670384Y-98635145D01*
X83977393Y-98508292D01*
X84212487Y-98273607D01*
X84339876Y-97966821D01*
X84340166Y-97634637D01*
X84213313Y-97327628D01*
X83978628Y-97092534D01*
X83737167Y-96992270D01*
X83595861Y-96897853D01*
X83305022Y-96840001D01*
X80747092Y-96840000D01*
X80566821Y-96765145D01*
X80234637Y-96764855D01*
X79927628Y-96891708D01*
X79692534Y-97126393D01*
X79565145Y-97433179D01*
X79564855Y-97765363D01*
X76550000Y-97765363D01*
X76550000Y-97750000D01*
X76524142Y-97620000D01*
X76496716Y-97482121D01*
X76344975Y-97255025D01*
X76235136Y-97145186D01*
X76235145Y-97134637D01*
X76108292Y-96827628D01*
X75873607Y-96592534D01*
X75566821Y-96465145D01*
X75234637Y-96464855D01*
X74927628Y-96591708D01*
X74919322Y-96600000D01*
X59281060Y-96600000D01*
X59273607Y-96592534D01*
X58966821Y-96465145D01*
X58634637Y-96464855D01*
X58327628Y-96591708D01*
X58092534Y-96826393D01*
X57965145Y-97133179D01*
X57964855Y-97465363D01*
X58091708Y-97772372D01*
X58326393Y-98007466D01*
X58633179Y-98134855D01*
X58965363Y-98135145D01*
X59272372Y-98008292D01*
X59280678Y-98000000D01*
X74918940Y-98000000D01*
X74926393Y-98007466D01*
X75150000Y-98100316D01*
X75150000Y-108560051D01*
X72545186Y-111164864D01*
X72534637Y-111164855D01*
X72227628Y-111291708D01*
X72135000Y-111384175D01*
X72135000Y-105000000D01*
X72091573Y-104769205D01*
X71955173Y-104557233D01*
X71747051Y-104415029D01*
X71500000Y-104365000D01*
X69000000Y-104365000D01*
X68769205Y-104408427D01*
X68557233Y-104544827D01*
X68415029Y-104752949D01*
X68365000Y-105000000D01*
X68365000Y-108965000D01*
X55735000Y-108965000D01*
X55735000Y-105000000D01*
X55691573Y-104769205D01*
X55555173Y-104557233D01*
X55347051Y-104415029D01*
X55100000Y-104365000D01*
X52700000Y-104365000D01*
X52469205Y-104408427D01*
X52257233Y-104544827D01*
X52115029Y-104752949D01*
X52065000Y-105000000D01*
X52065000Y-109711594D01*
X51889457Y-109974313D01*
X51765000Y-110600000D01*
X51765000Y-157699995D01*
X51764999Y-157700000D01*
X51889457Y-158325688D01*
X52243880Y-158856120D01*
X58040475Y-164652714D01*
X57865632Y-165073782D01*
X57864370Y-166519874D01*
X58416600Y-167856372D01*
X59438249Y-168879806D01*
X60426105Y-169290000D01*
X52069931Y-169290000D01*
X51511660Y-169178953D01*
X51097669Y-168902333D01*
X50821046Y-168488338D01*
X50710000Y-167930069D01*
X50710000Y-166972325D01*
X51114587Y-166972325D01*
X51476916Y-167849229D01*
X52147242Y-168520726D01*
X53023513Y-168884585D01*
X53972325Y-168885413D01*
X54849229Y-168523084D01*
X55520726Y-167852758D01*
X55884585Y-166976487D01*
X55885413Y-166027675D01*
X55523084Y-165150771D01*
X54852758Y-164479274D01*
X53976487Y-164115415D01*
X53027675Y-164114587D01*
X52150771Y-164476916D01*
X51479274Y-165147242D01*
X51115415Y-166023513D01*
X51114587Y-166972325D01*
X50710000Y-166972325D01*
X50710000Y-100765363D01*
X51764855Y-100765363D01*
X51891708Y-101072372D01*
X52126393Y-101307466D01*
X52308127Y-101382929D01*
X53362599Y-102437401D01*
X53609161Y-102602148D01*
X53900000Y-102660000D01*
X56052909Y-102660000D01*
X56233179Y-102734855D01*
X56565363Y-102735145D01*
X56872372Y-102608292D01*
X57107466Y-102373607D01*
X57234855Y-102066821D01*
X57235145Y-101734637D01*
X57108292Y-101427628D01*
X56873607Y-101192534D01*
X56566821Y-101065145D01*
X56234637Y-101064855D01*
X56052771Y-101140000D01*
X54214802Y-101140000D01*
X53674802Y-100600000D01*
X68114999Y-100600000D01*
X68182367Y-100938674D01*
X68374210Y-101225790D01*
X69624208Y-102475787D01*
X69624210Y-102475790D01*
X69911325Y-102667633D01*
X69967516Y-102678810D01*
X70250000Y-102735001D01*
X70250005Y-102735000D01*
X72748634Y-102735000D01*
X73000000Y-102785001D01*
X73338675Y-102717633D01*
X73625790Y-102525790D01*
X73817633Y-102238675D01*
X73885001Y-101900000D01*
X73817633Y-101561326D01*
X73625790Y-101274211D01*
X73575790Y-101224210D01*
X73350395Y-101073607D01*
X73288675Y-101032367D01*
X73232484Y-101021190D01*
X72950000Y-100964999D01*
X72949995Y-100965000D01*
X70616579Y-100965000D01*
X69625790Y-99974210D01*
X69338674Y-99782367D01*
X69000000Y-99714999D01*
X68661326Y-99782367D01*
X68374210Y-99974210D01*
X68182367Y-100261326D01*
X68114999Y-100600000D01*
X53674802Y-100600000D01*
X53382832Y-100308030D01*
X53308292Y-100127628D01*
X53073607Y-99892534D01*
X52766821Y-99765145D01*
X52434637Y-99764855D01*
X52127628Y-99891708D01*
X51892534Y-100126393D01*
X51765145Y-100433179D01*
X51764855Y-100765363D01*
X50710000Y-100765363D01*
X50710000Y-83270907D01*
X60315000Y-83270907D01*
X60315000Y-83329093D01*
X60428039Y-83897378D01*
X60749946Y-84379147D01*
X61231715Y-84701054D01*
X61800000Y-84814093D01*
X62368285Y-84701054D01*
X62850054Y-84379147D01*
X63171961Y-83897378D01*
X63285000Y-83329093D01*
X63285000Y-83270907D01*
X63171961Y-82702622D01*
X62850054Y-82220853D01*
X62368285Y-81898946D01*
X61800000Y-81785907D01*
X61231715Y-81898946D01*
X60749946Y-82220853D01*
X60428039Y-82702622D01*
X60315000Y-83270907D01*
X50710000Y-83270907D01*
X50710000Y-74900000D01*
X56315000Y-74900000D01*
X56382367Y-75238675D01*
X56574210Y-75525790D01*
X56861325Y-75717633D01*
X57200000Y-75785000D01*
X57401572Y-75785000D01*
X57627852Y-75830011D01*
X57627857Y-75830010D01*
X57849995Y-75830010D01*
X57850000Y-75830011D01*
X57850005Y-75830010D01*
X63959013Y-75830010D01*
X63959018Y-75830011D01*
X63959023Y-75830010D01*
X64563600Y-75830010D01*
X65159369Y-76425778D01*
X65159371Y-76425781D01*
X65446486Y-76617624D01*
X65502677Y-76628801D01*
X65785161Y-76684992D01*
X65785166Y-76684991D01*
X71175492Y-76684991D01*
X76758467Y-82267965D01*
X76468039Y-82702622D01*
X76355000Y-83270907D01*
X76355000Y-83329093D01*
X76468039Y-83897378D01*
X76789946Y-84379147D01*
X77271715Y-84701054D01*
X77840000Y-84814093D01*
X78408285Y-84701054D01*
X78890054Y-84379147D01*
X79211961Y-83897378D01*
X79325000Y-83329093D01*
X79325000Y-83270907D01*
X79211961Y-82702622D01*
X78890054Y-82220853D01*
X78725000Y-82110568D01*
X78725000Y-82097924D01*
X78725001Y-82097919D01*
X78657633Y-81759244D01*
X78465790Y-81472129D01*
X78465787Y-81472127D01*
X72167862Y-75174201D01*
X72164433Y-75171910D01*
X72088907Y-75121445D01*
X72088965Y-75054627D01*
X71962112Y-74747618D01*
X71799777Y-74585000D01*
X72400000Y-74585000D01*
X72738675Y-74517633D01*
X73025790Y-74325790D01*
X73217633Y-74038675D01*
X73285000Y-73700000D01*
X73217633Y-73361325D01*
X73025790Y-73074210D01*
X72738675Y-72882367D01*
X72400000Y-72815000D01*
X71437175Y-72815000D01*
X71238676Y-72682368D01*
X71150633Y-72664855D01*
X70900001Y-72615000D01*
X70899996Y-72615001D01*
X65404027Y-72615001D01*
X65065352Y-72682368D01*
X64778237Y-72874211D01*
X64778235Y-72874214D01*
X64200000Y-73452449D01*
X64200000Y-68589950D01*
X66805023Y-71194972D01*
X66805025Y-71194975D01*
X67032122Y-71346716D01*
X67300000Y-71400000D01*
X68018940Y-71400000D01*
X68026393Y-71407466D01*
X68333179Y-71534855D01*
X68665363Y-71535145D01*
X68970786Y-71408947D01*
X69033179Y-71434855D01*
X69365363Y-71435145D01*
X69672372Y-71308292D01*
X69907466Y-71073607D01*
X70034855Y-70766821D01*
X70034874Y-70744987D01*
X72405037Y-70744987D01*
X75064864Y-73404813D01*
X75064855Y-73415363D01*
X75191708Y-73722372D01*
X75426393Y-73957466D01*
X75733179Y-74084855D01*
X76065363Y-74085145D01*
X76372372Y-73958292D01*
X76607466Y-73723607D01*
X76643880Y-73635912D01*
X76770588Y-73688526D01*
X77102772Y-73688816D01*
X77409781Y-73561963D01*
X77644875Y-73327278D01*
X77772264Y-73020492D01*
X77772554Y-72688308D01*
X77750472Y-72634865D01*
X77809872Y-72491815D01*
X77809913Y-72444478D01*
X77821929Y-72432483D01*
X77941708Y-72722372D01*
X78176393Y-72957466D01*
X78483179Y-73084855D01*
X78815363Y-73085145D01*
X79122372Y-72958292D01*
X79357466Y-72723607D01*
X79484855Y-72416821D01*
X79485145Y-72084637D01*
X79358292Y-71777628D01*
X79123607Y-71542534D01*
X78816821Y-71415145D01*
X78805084Y-71415135D01*
X73399973Y-66010023D01*
X73172877Y-65858282D01*
X72904998Y-65804998D01*
X64995002Y-65804998D01*
X64900000Y-65823895D01*
X64900000Y-63765363D01*
X66164855Y-63765363D01*
X66291708Y-64072372D01*
X66526393Y-64307466D01*
X66833179Y-64434855D01*
X67165363Y-64435145D01*
X67472372Y-64308292D01*
X67480678Y-64300000D01*
X68720486Y-64300000D01*
X68791708Y-64472372D01*
X69026393Y-64707466D01*
X69333179Y-64834855D01*
X69665363Y-64835145D01*
X69972372Y-64708292D01*
X70207466Y-64473607D01*
X70334855Y-64166821D01*
X70335145Y-63834637D01*
X70208292Y-63527628D01*
X69973607Y-63292534D01*
X69666821Y-63165145D01*
X69655085Y-63165135D01*
X69594975Y-63105025D01*
X69367879Y-62953284D01*
X69100000Y-62900000D01*
X67481060Y-62900000D01*
X67473607Y-62892534D01*
X67166821Y-62765145D01*
X66834637Y-62764855D01*
X66527628Y-62891708D01*
X66292534Y-63126393D01*
X66165145Y-63433179D01*
X66164855Y-63765363D01*
X64900000Y-63765363D01*
X64900000Y-61000005D01*
X64900001Y-61000000D01*
X64846716Y-60732121D01*
X64835075Y-60714699D01*
X64835145Y-60634637D01*
X64708292Y-60327628D01*
X64473607Y-60092534D01*
X64166821Y-59965145D01*
X63834637Y-59964855D01*
X63527628Y-60091708D01*
X63292534Y-60326393D01*
X63276457Y-60365110D01*
X62984637Y-60364855D01*
X62677628Y-60491708D01*
X62442534Y-60726393D01*
X62315145Y-61033179D01*
X62314943Y-61264762D01*
X62105025Y-61405025D01*
X61805025Y-61705025D01*
X61653284Y-61932121D01*
X61620885Y-62095002D01*
X61600000Y-62200000D01*
X61600000Y-65620486D01*
X61427628Y-65691708D01*
X61192534Y-65926393D01*
X61065145Y-66233179D01*
X61065135Y-66244915D01*
X61005025Y-66305025D01*
X60853284Y-66532121D01*
X60853284Y-66532122D01*
X60800000Y-66800000D01*
X60800000Y-69918940D01*
X60792534Y-69926393D01*
X60665145Y-70233179D01*
X60664855Y-70565363D01*
X60791708Y-70872372D01*
X61026393Y-71107466D01*
X61295210Y-71219089D01*
X61087544Y-71426393D01*
X60960155Y-71733179D01*
X60959865Y-72065363D01*
X61086718Y-72372372D01*
X61321403Y-72607466D01*
X61628189Y-72734855D01*
X61864724Y-72735061D01*
X61727628Y-72791708D01*
X61492534Y-73026393D01*
X61365145Y-73333179D01*
X61364855Y-73665363D01*
X61491708Y-73972372D01*
X61500000Y-73980678D01*
X61500000Y-74060010D01*
X58576279Y-74060010D01*
X58350000Y-74015000D01*
X57895015Y-74015000D01*
X57895010Y-74014999D01*
X57738926Y-74046047D01*
X57582842Y-74014999D01*
X57582837Y-74015000D01*
X57200000Y-74015000D01*
X56861325Y-74082367D01*
X56574210Y-74274210D01*
X56382367Y-74561325D01*
X56315000Y-74900000D01*
X50710000Y-74900000D01*
X50710000Y-56315363D01*
X57214857Y-56315363D01*
X57341710Y-56622372D01*
X57576395Y-56857466D01*
X57816464Y-56957152D01*
X57914031Y-57193283D01*
X58148716Y-57428377D01*
X58455502Y-57555766D01*
X58787686Y-57556056D01*
X59094695Y-57429203D01*
X59329789Y-57194518D01*
X59457178Y-56887732D01*
X59457468Y-56555548D01*
X59330615Y-56248539D01*
X59095930Y-56013445D01*
X58855861Y-55913759D01*
X58758294Y-55677628D01*
X58523609Y-55442534D01*
X58216823Y-55315145D01*
X57884639Y-55314855D01*
X57577630Y-55441708D01*
X57342536Y-55676393D01*
X57215147Y-55983179D01*
X57214857Y-56315363D01*
X50710000Y-56315363D01*
X50710000Y-51265363D01*
X52064855Y-51265363D01*
X52191708Y-51572372D01*
X52426393Y-51807466D01*
X52733179Y-51934855D01*
X53065363Y-51935145D01*
X53334139Y-51824089D01*
X54914864Y-53404814D01*
X54914855Y-53415363D01*
X55041708Y-53722372D01*
X55276393Y-53957466D01*
X55583179Y-54084855D01*
X55915363Y-54085145D01*
X56222372Y-53958292D01*
X56457466Y-53723607D01*
X56584855Y-53416821D01*
X56585145Y-53084637D01*
X56458292Y-52777628D01*
X56223607Y-52542534D01*
X55916821Y-52415145D01*
X55905085Y-52415135D01*
X55755313Y-52265363D01*
X66464855Y-52265363D01*
X66591708Y-52572372D01*
X66826393Y-52807466D01*
X67008127Y-52882929D01*
X70040000Y-55914802D01*
X70040000Y-57952909D01*
X69965145Y-58133179D01*
X69964855Y-58465363D01*
X70091708Y-58772372D01*
X70326393Y-59007466D01*
X70633179Y-59134855D01*
X70965363Y-59135145D01*
X71272372Y-59008292D01*
X71507466Y-58773607D01*
X71634855Y-58466821D01*
X71635145Y-58134637D01*
X71560000Y-57952771D01*
X71560000Y-55600000D01*
X71502148Y-55309161D01*
X71502148Y-55309160D01*
X71337401Y-55062599D01*
X68082832Y-51808030D01*
X68008292Y-51627628D01*
X67773607Y-51392534D01*
X67466821Y-51265145D01*
X67134637Y-51264855D01*
X66827628Y-51391708D01*
X66592534Y-51626393D01*
X66465145Y-51933179D01*
X66464855Y-52265363D01*
X55755313Y-52265363D01*
X54589950Y-51100000D01*
X55160050Y-51100000D01*
X55414864Y-51354814D01*
X55414855Y-51365363D01*
X55541708Y-51672372D01*
X55776393Y-51907466D01*
X56083179Y-52034855D01*
X56415363Y-52035145D01*
X56722372Y-51908292D01*
X56957466Y-51673607D01*
X57084855Y-51366821D01*
X57085145Y-51034637D01*
X56958292Y-50727628D01*
X56723607Y-50492534D01*
X56416821Y-50365145D01*
X56405085Y-50365135D01*
X55944975Y-49905025D01*
X55717879Y-49753284D01*
X55450000Y-49700000D01*
X53981060Y-49700000D01*
X53973607Y-49692534D01*
X53666821Y-49565145D01*
X53334637Y-49564855D01*
X53027628Y-49691708D01*
X52792534Y-49926393D01*
X52665145Y-50233179D01*
X52665092Y-50293590D01*
X52427628Y-50391708D01*
X52192534Y-50626393D01*
X52065145Y-50933179D01*
X52064855Y-51265363D01*
X50710000Y-51265363D01*
X50710000Y-38070907D01*
X59875000Y-38070907D01*
X59875000Y-38129093D01*
X59988039Y-38697378D01*
X60309946Y-39179147D01*
X60791715Y-39501054D01*
X61360000Y-39614093D01*
X61928285Y-39501054D01*
X62410054Y-39179147D01*
X62731961Y-38697378D01*
X62845000Y-38129093D01*
X62845000Y-38070907D01*
X64955000Y-38070907D01*
X64955000Y-38129093D01*
X65068039Y-38697378D01*
X65389946Y-39179147D01*
X65871715Y-39501054D01*
X66440000Y-39614093D01*
X67008285Y-39501054D01*
X67490054Y-39179147D01*
X67811961Y-38697378D01*
X67925000Y-38129093D01*
X67925000Y-38070907D01*
X73075000Y-38070907D01*
X73075000Y-38129093D01*
X73188039Y-38697378D01*
X73509946Y-39179147D01*
X73991715Y-39501054D01*
X74560000Y-39614093D01*
X75128285Y-39501054D01*
X75610054Y-39179147D01*
X75637850Y-39137548D01*
X75646838Y-39185317D01*
X75785910Y-39401441D01*
X75998110Y-39546431D01*
X76250000Y-39597440D01*
X77950000Y-39597440D01*
X78185317Y-39553162D01*
X78401441Y-39414090D01*
X78546431Y-39201890D01*
X78597440Y-38950000D01*
X78597440Y-38070907D01*
X81075000Y-38070907D01*
X81075000Y-38129093D01*
X81188039Y-38697378D01*
X81509946Y-39179147D01*
X81991715Y-39501054D01*
X82560000Y-39614093D01*
X83128285Y-39501054D01*
X83610054Y-39179147D01*
X83637850Y-39137548D01*
X83646838Y-39185317D01*
X83785910Y-39401441D01*
X83998110Y-39546431D01*
X84250000Y-39597440D01*
X85950000Y-39597440D01*
X86185317Y-39553162D01*
X86401441Y-39414090D01*
X86546431Y-39201890D01*
X86597440Y-38950000D01*
X86597440Y-37250000D01*
X86553162Y-37014683D01*
X86414090Y-36798559D01*
X86201890Y-36653569D01*
X85950000Y-36602560D01*
X84250000Y-36602560D01*
X84014683Y-36646838D01*
X83798559Y-36785910D01*
X83653569Y-36998110D01*
X83639914Y-37065541D01*
X83610054Y-37020853D01*
X83128285Y-36698946D01*
X82560000Y-36585907D01*
X81991715Y-36698946D01*
X81509946Y-37020853D01*
X81188039Y-37502622D01*
X81075000Y-38070907D01*
X78597440Y-38070907D01*
X78597440Y-37250000D01*
X78553162Y-37014683D01*
X78414090Y-36798559D01*
X78201890Y-36653569D01*
X77950000Y-36602560D01*
X76250000Y-36602560D01*
X76014683Y-36646838D01*
X75798559Y-36785910D01*
X75653569Y-36998110D01*
X75639914Y-37065541D01*
X75610054Y-37020853D01*
X75128285Y-36698946D01*
X74560000Y-36585907D01*
X73991715Y-36698946D01*
X73509946Y-37020853D01*
X73188039Y-37502622D01*
X73075000Y-38070907D01*
X67925000Y-38070907D01*
X67811961Y-37502622D01*
X67490054Y-37020853D01*
X67008285Y-36698946D01*
X66440000Y-36585907D01*
X65871715Y-36698946D01*
X65389946Y-37020853D01*
X65068039Y-37502622D01*
X64955000Y-38070907D01*
X62845000Y-38070907D01*
X62731961Y-37502622D01*
X62410054Y-37020853D01*
X61928285Y-36698946D01*
X61360000Y-36585907D01*
X60791715Y-36698946D01*
X60309946Y-37020853D01*
X59988039Y-37502622D01*
X59875000Y-38070907D01*
X50710000Y-38070907D01*
X50710000Y-33972325D01*
X51114587Y-33972325D01*
X51476916Y-34849229D01*
X52147242Y-35520726D01*
X53023513Y-35884585D01*
X53972325Y-35885413D01*
X54849229Y-35523084D01*
X55520726Y-34852758D01*
X55884585Y-33976487D01*
X55884588Y-33972325D01*
X89114587Y-33972325D01*
X89476916Y-34849229D01*
X90147242Y-35520726D01*
X91023513Y-35884585D01*
X91972325Y-35885413D01*
X92849229Y-35523084D01*
X93520726Y-34852758D01*
X93884585Y-33976487D01*
X93885413Y-33027675D01*
X93523084Y-32150771D01*
X92852758Y-31479274D01*
X91976487Y-31115415D01*
X91027675Y-31114587D01*
X90150771Y-31476916D01*
X89479274Y-32147242D01*
X89115415Y-33023513D01*
X89114587Y-33972325D01*
X55884588Y-33972325D01*
X55885413Y-33027675D01*
X55523084Y-32150771D01*
X54852758Y-31479274D01*
X53976487Y-31115415D01*
X53027675Y-31114587D01*
X52150771Y-31476916D01*
X51479274Y-32147242D01*
X51115415Y-33023513D01*
X51114587Y-33972325D01*
X50710000Y-33972325D01*
X50710000Y-32069931D01*
X50821046Y-31511662D01*
X51097669Y-31097667D01*
X51511660Y-30821047D01*
X52069931Y-30710000D01*
X92930069Y-30710000D01*
X93488338Y-30821046D01*
X93488338Y-30821046D01*
G37*
X93488338Y-30821046D02*
X93902333Y-31097669D01*
X94178953Y-31511660D01*
X94290000Y-32069931D01*
X94290000Y-167930069D01*
X94178953Y-168488340D01*
X93902333Y-168902331D01*
X93488338Y-169178954D01*
X92930069Y-169290000D01*
X62572325Y-169290000D01*
X63556372Y-168883400D01*
X64579806Y-167861751D01*
X64949128Y-166972325D01*
X89114587Y-166972325D01*
X89476916Y-167849229D01*
X90147242Y-168520726D01*
X91023513Y-168884585D01*
X91972325Y-168885413D01*
X92849229Y-168523084D01*
X93520726Y-167852758D01*
X93884585Y-166976487D01*
X93885413Y-166027675D01*
X93523084Y-165150771D01*
X92852758Y-164479274D01*
X91976487Y-164115415D01*
X91027675Y-164114587D01*
X90150771Y-164476916D01*
X89479274Y-165147242D01*
X89115415Y-166023513D01*
X89114587Y-166972325D01*
X64949128Y-166972325D01*
X65134368Y-166526218D01*
X65135630Y-165080126D01*
X64583400Y-163743628D01*
X63561751Y-162720194D01*
X62242337Y-162172325D01*
X76314587Y-162172325D01*
X76676916Y-163049229D01*
X77347242Y-163720726D01*
X78223513Y-164084585D01*
X79172325Y-164085413D01*
X80049229Y-163723084D01*
X80720726Y-163052758D01*
X81084585Y-162176487D01*
X81084588Y-162172325D01*
X82014587Y-162172325D01*
X82376916Y-163049229D01*
X83047242Y-163720726D01*
X83923513Y-164084585D01*
X84872325Y-164085413D01*
X85749229Y-163723084D01*
X86420726Y-163052758D01*
X86784585Y-162176487D01*
X86785413Y-161227675D01*
X86423084Y-160350771D01*
X85752758Y-159679274D01*
X84876487Y-159315415D01*
X83927675Y-159314587D01*
X83050771Y-159676916D01*
X82379274Y-160347242D01*
X82015415Y-161223513D01*
X82014587Y-162172325D01*
X81084588Y-162172325D01*
X81085413Y-161227675D01*
X80723084Y-160350771D01*
X80052758Y-159679274D01*
X79176487Y-159315415D01*
X78227675Y-159314587D01*
X77350771Y-159676916D01*
X76679274Y-160347242D01*
X76315415Y-161223513D01*
X76314587Y-162172325D01*
X62242337Y-162172325D01*
X62226218Y-162165632D01*
X60780126Y-162164370D01*
X60353067Y-162340827D01*
X56594165Y-158581925D01*
X56772372Y-158508292D01*
X57007466Y-158273607D01*
X57134855Y-157966821D01*
X57135145Y-157634637D01*
X57060000Y-157452771D01*
X57060000Y-149210000D01*
X59564895Y-149210000D01*
X59564855Y-149255363D01*
X59632892Y-149420026D01*
X59565145Y-149583179D01*
X59564855Y-149915363D01*
X59691708Y-150222372D01*
X59926393Y-150457466D01*
X60233179Y-150584855D01*
X60565363Y-150585145D01*
X60872372Y-150458292D01*
X60880678Y-150450000D01*
X60900000Y-150450000D01*
X61167879Y-150396716D01*
X61394975Y-150244975D01*
X61789976Y-149849974D01*
X61941717Y-149622878D01*
X61995002Y-149354999D01*
X61995001Y-149354994D01*
X61995001Y-147100000D01*
X64940000Y-147100000D01*
X64940000Y-149200000D01*
X64997852Y-149490839D01*
X65162599Y-149737401D01*
X66280180Y-150854982D01*
X66134637Y-150854855D01*
X65827628Y-150981708D01*
X65592534Y-151216393D01*
X65465145Y-151523179D01*
X65464855Y-151855363D01*
X65591708Y-152162372D01*
X65600000Y-152170678D01*
X65600000Y-155619114D01*
X65492534Y-155726393D01*
X65365145Y-156033179D01*
X65364855Y-156365363D01*
X65491708Y-156672372D01*
X65726393Y-156907466D01*
X66033179Y-157034855D01*
X66365363Y-157035145D01*
X66672372Y-156908292D01*
X66907466Y-156673607D01*
X67034855Y-156366821D01*
X67035145Y-156034637D01*
X67000000Y-155949579D01*
X67000000Y-153644054D01*
X67162599Y-153887401D01*
X67807170Y-154531972D01*
X67765145Y-154633179D01*
X67764855Y-154965363D01*
X67891708Y-155272372D01*
X68083899Y-155464898D01*
X68034637Y-155464855D01*
X67727628Y-155591708D01*
X67492534Y-155826393D01*
X67365145Y-156133179D01*
X67364855Y-156465363D01*
X67491708Y-156772372D01*
X67726393Y-157007466D01*
X68033179Y-157134855D01*
X68044915Y-157134865D01*
X69405025Y-158494975D01*
X69632121Y-158646716D01*
X69900000Y-158700000D01*
X81318940Y-158700000D01*
X81326393Y-158707466D01*
X81633179Y-158834855D01*
X81965363Y-158835145D01*
X82272372Y-158708292D01*
X82507466Y-158473607D01*
X82634855Y-158166821D01*
X82635145Y-157834637D01*
X82508292Y-157527628D01*
X82273607Y-157292534D01*
X81966821Y-157165145D01*
X81634637Y-157164855D01*
X81327628Y-157291708D01*
X81319322Y-157300000D01*
X70189950Y-157300000D01*
X69035136Y-156145186D01*
X69035145Y-156134637D01*
X68908292Y-155827628D01*
X68716101Y-155635102D01*
X68765363Y-155635145D01*
X69072372Y-155508292D01*
X69307466Y-155273607D01*
X69434855Y-154966821D01*
X69435145Y-154634637D01*
X69360000Y-154452771D01*
X69360000Y-154250000D01*
X69328678Y-154092534D01*
X69302148Y-153959160D01*
X69137401Y-153712599D01*
X68460000Y-153035198D01*
X68460000Y-151200000D01*
X68402148Y-150909161D01*
X68237401Y-150662599D01*
X67364802Y-149790000D01*
X68510000Y-149790000D01*
X68777879Y-149736716D01*
X69004975Y-149584975D01*
X71154814Y-147435136D01*
X71165363Y-147435145D01*
X71472372Y-147308292D01*
X71707466Y-147073607D01*
X71834855Y-146766821D01*
X71835145Y-146434637D01*
X71708292Y-146127628D01*
X71473607Y-145892534D01*
X71371302Y-145850053D01*
X71472372Y-145808292D01*
X71480678Y-145800000D01*
X73235050Y-145800000D01*
X75639864Y-148204814D01*
X75639855Y-148215363D01*
X75766708Y-148522372D01*
X76001393Y-148757466D01*
X76308179Y-148884855D01*
X76640363Y-148885145D01*
X76947372Y-148758292D01*
X77182466Y-148523607D01*
X77309855Y-148216821D01*
X77310145Y-147884637D01*
X77183292Y-147577628D01*
X76948607Y-147342534D01*
X76641821Y-147215145D01*
X76630085Y-147215135D01*
X74019975Y-144605025D01*
X73792879Y-144453284D01*
X73525000Y-144400000D01*
X71481060Y-144400000D01*
X71473607Y-144392534D01*
X71166821Y-144265145D01*
X70834637Y-144264855D01*
X70562757Y-144377193D01*
X71939950Y-143000000D01*
X76010050Y-143000000D01*
X80655025Y-147644975D01*
X80882121Y-147796716D01*
X81150000Y-147850001D01*
X81150005Y-147850000D01*
X81629079Y-147850000D01*
X81681708Y-147977372D01*
X81916393Y-148212466D01*
X82223179Y-148339855D01*
X82555363Y-148340145D01*
X82862372Y-148213292D01*
X83097466Y-147978607D01*
X83224855Y-147671821D01*
X83225145Y-147339637D01*
X83098292Y-147032628D01*
X82863607Y-146797534D01*
X82556821Y-146670145D01*
X82545085Y-146670135D01*
X82529975Y-146655025D01*
X82302879Y-146503284D01*
X82035000Y-146450000D01*
X81439950Y-146450000D01*
X76794975Y-141805025D01*
X76567879Y-141653284D01*
X76300000Y-141600000D01*
X71650005Y-141600000D01*
X71650000Y-141599999D01*
X71382121Y-141653284D01*
X71155025Y-141805025D01*
X66970390Y-145989660D01*
X66773607Y-145792534D01*
X66466821Y-145665145D01*
X66134637Y-145664855D01*
X65827628Y-145791708D01*
X65592534Y-146026393D01*
X65517071Y-146208127D01*
X65162599Y-146562599D01*
X64997852Y-146809161D01*
X64940000Y-147100000D01*
X61995001Y-147100000D01*
X61995001Y-143624758D01*
X62040395Y-143396545D01*
X62040395Y-143017341D01*
X61995001Y-142789129D01*
X61995001Y-123694949D01*
X72854814Y-112835136D01*
X72865363Y-112835145D01*
X73172372Y-112708292D01*
X73215375Y-112665363D01*
X83564855Y-112665363D01*
X83691708Y-112972372D01*
X83700000Y-112980678D01*
X83700000Y-113900000D01*
X83753284Y-114167879D01*
X83905025Y-114394975D01*
X84864864Y-115354814D01*
X84864855Y-115365363D01*
X84991708Y-115672372D01*
X85226393Y-115907466D01*
X85533179Y-116034855D01*
X85865363Y-116035145D01*
X86172372Y-115908292D01*
X86407466Y-115673607D01*
X86534855Y-115366821D01*
X86535145Y-115034637D01*
X86421486Y-114759560D01*
X86436781Y-114744292D01*
X86564170Y-114437506D01*
X86564460Y-114105322D01*
X86437607Y-113798313D01*
X86202922Y-113563219D01*
X85896136Y-113435830D01*
X85884400Y-113435820D01*
X85850000Y-113401420D01*
X85850000Y-112981060D01*
X85857466Y-112973607D01*
X85984855Y-112666821D01*
X85985145Y-112334637D01*
X85858292Y-112027628D01*
X85623607Y-111792534D01*
X85316821Y-111665145D01*
X84984637Y-111664855D01*
X84774863Y-111751532D01*
X84566821Y-111665145D01*
X84234637Y-111664855D01*
X83927628Y-111791708D01*
X83692534Y-112026393D01*
X83565145Y-112333179D01*
X83564855Y-112665363D01*
X73215375Y-112665363D01*
X73407466Y-112473607D01*
X73534855Y-112166821D01*
X73534865Y-112155085D01*
X76344972Y-109344977D01*
X76344975Y-109344975D01*
X76496716Y-109117878D01*
X76550000Y-108850000D01*
X76550000Y-108265363D01*
X86864855Y-108265363D01*
X86991708Y-108572372D01*
X87000000Y-108580678D01*
X87000000Y-112032290D01*
X87053284Y-112300169D01*
X87205025Y-112527265D01*
X87372735Y-112694975D01*
X87599831Y-112846716D01*
X87707302Y-112868094D01*
X87791708Y-113072372D01*
X88026393Y-113307466D01*
X88333179Y-113434855D01*
X88665363Y-113435145D01*
X88972372Y-113308292D01*
X88980678Y-113300000D01*
X91050000Y-113300000D01*
X91317879Y-113246716D01*
X91544975Y-113094975D01*
X92344975Y-112294975D01*
X92496716Y-112067879D01*
X92550000Y-111800000D01*
X92550000Y-104432842D01*
X92544952Y-104407466D01*
X92496716Y-104164963D01*
X92344975Y-103937867D01*
X92234889Y-103827781D01*
X92235145Y-103534637D01*
X92108292Y-103227628D01*
X91873607Y-102992534D01*
X91600000Y-102878922D01*
X91600000Y-99549950D01*
X92122257Y-99027693D01*
X92510907Y-99105000D01*
X92569093Y-99105000D01*
X93137378Y-98991961D01*
X93619147Y-98670054D01*
X93941054Y-98188285D01*
X94054093Y-97620000D01*
X93941054Y-97051715D01*
X93619147Y-96569946D01*
X93289974Y-96350000D01*
X93619147Y-96130054D01*
X93941054Y-95648285D01*
X94054093Y-95080000D01*
X93941054Y-94511715D01*
X93619147Y-94029946D01*
X93289974Y-93810000D01*
X93619147Y-93590054D01*
X93941054Y-93108285D01*
X94054093Y-92540000D01*
X93941054Y-91971715D01*
X93619147Y-91489946D01*
X93137378Y-91168039D01*
X92569093Y-91055000D01*
X92510907Y-91055000D01*
X91942622Y-91168039D01*
X91460853Y-91489946D01*
X91270000Y-91775578D01*
X91079147Y-91489946D01*
X90749974Y-91270000D01*
X91079147Y-91050054D01*
X91401054Y-90568285D01*
X91514093Y-90000000D01*
X91401054Y-89431715D01*
X91079147Y-88949946D01*
X90749974Y-88730000D01*
X91079147Y-88510054D01*
X91270000Y-88224422D01*
X91460853Y-88510054D01*
X91942622Y-88831961D01*
X92510907Y-88945000D01*
X92569093Y-88945000D01*
X93137378Y-88831961D01*
X93619147Y-88510054D01*
X93941054Y-88028285D01*
X94054093Y-87460000D01*
X93941054Y-86891715D01*
X93619147Y-86409946D01*
X93137378Y-86088039D01*
X92569093Y-85975000D01*
X92510907Y-85975000D01*
X91942622Y-86088039D01*
X91460853Y-86409946D01*
X91270000Y-86695578D01*
X91079147Y-86409946D01*
X90749974Y-86190000D01*
X91079147Y-85970054D01*
X91401054Y-85488285D01*
X91514093Y-84920000D01*
X91401054Y-84351715D01*
X91079147Y-83869946D01*
X90749974Y-83650000D01*
X91079147Y-83430054D01*
X91270000Y-83144422D01*
X91460853Y-83430054D01*
X91942622Y-83751961D01*
X92510907Y-83865000D01*
X92569093Y-83865000D01*
X93137378Y-83751961D01*
X93619147Y-83430054D01*
X93941054Y-82948285D01*
X94054093Y-82380000D01*
X93941054Y-81811715D01*
X93619147Y-81329946D01*
X93289974Y-81110000D01*
X93619147Y-80890054D01*
X93941054Y-80408285D01*
X94054093Y-79840000D01*
X93941054Y-79271715D01*
X93619147Y-78789946D01*
X93289974Y-78570000D01*
X93619147Y-78350054D01*
X93941054Y-77868285D01*
X94054093Y-77300000D01*
X93941054Y-76731715D01*
X93619147Y-76249946D01*
X93289974Y-76030000D01*
X93619147Y-75810054D01*
X93941054Y-75328285D01*
X94054093Y-74760000D01*
X93941054Y-74191715D01*
X93619147Y-73709946D01*
X93137378Y-73388039D01*
X92569093Y-73275000D01*
X92510907Y-73275000D01*
X91942622Y-73388039D01*
X91460853Y-73709946D01*
X91270000Y-73995578D01*
X91079147Y-73709946D01*
X90749974Y-73490000D01*
X91079147Y-73270054D01*
X91401054Y-72788285D01*
X91514093Y-72220000D01*
X91401054Y-71651715D01*
X91079147Y-71169946D01*
X90749974Y-70950000D01*
X91079147Y-70730054D01*
X91270000Y-70444422D01*
X91460853Y-70730054D01*
X91942622Y-71051961D01*
X92510907Y-71165000D01*
X92569093Y-71165000D01*
X93137378Y-71051961D01*
X93619147Y-70730054D01*
X93941054Y-70248285D01*
X94054093Y-69680000D01*
X93941054Y-69111715D01*
X93619147Y-68629946D01*
X93289974Y-68410000D01*
X93619147Y-68190054D01*
X93941054Y-67708285D01*
X94054093Y-67140000D01*
X93941054Y-66571715D01*
X93619147Y-66089946D01*
X93137378Y-65768039D01*
X92569093Y-65655000D01*
X92510907Y-65655000D01*
X91942622Y-65768039D01*
X91460853Y-66089946D01*
X91270000Y-66375578D01*
X91079147Y-66089946D01*
X90749974Y-65870000D01*
X91079147Y-65650054D01*
X91401054Y-65168285D01*
X91514093Y-64600000D01*
X91401054Y-64031715D01*
X91079147Y-63549946D01*
X90749974Y-63330000D01*
X91079147Y-63110054D01*
X91270000Y-62824422D01*
X91460853Y-63110054D01*
X91942622Y-63431961D01*
X92510907Y-63545000D01*
X92569093Y-63545000D01*
X93137378Y-63431961D01*
X93619147Y-63110054D01*
X93941054Y-62628285D01*
X94054093Y-62060000D01*
X93941054Y-61491715D01*
X93619147Y-61009946D01*
X93289974Y-60790000D01*
X93619147Y-60570054D01*
X93941054Y-60088285D01*
X94054093Y-59520000D01*
X93941054Y-58951715D01*
X93619147Y-58469946D01*
X93289974Y-58250000D01*
X93619147Y-58030054D01*
X93941054Y-57548285D01*
X94054093Y-56980000D01*
X93941054Y-56411715D01*
X93619147Y-55929946D01*
X93137378Y-55608039D01*
X92569093Y-55495000D01*
X92510907Y-55495000D01*
X91942622Y-55608039D01*
X91460853Y-55929946D01*
X91270000Y-56215578D01*
X91079147Y-55929946D01*
X90749974Y-55710000D01*
X91079147Y-55490054D01*
X91401054Y-55008285D01*
X91514093Y-54440000D01*
X91401054Y-53871715D01*
X91079147Y-53389946D01*
X90749974Y-53170000D01*
X91079147Y-52950054D01*
X91270000Y-52664422D01*
X91460853Y-52950054D01*
X91942622Y-53271961D01*
X92510907Y-53385000D01*
X92569093Y-53385000D01*
X93137378Y-53271961D01*
X93619147Y-52950054D01*
X93941054Y-52468285D01*
X94054093Y-51900000D01*
X93941054Y-51331715D01*
X93619147Y-50849946D01*
X93289974Y-50630000D01*
X93619147Y-50410054D01*
X93941054Y-49928285D01*
X94054093Y-49360000D01*
X93941054Y-48791715D01*
X93619147Y-48309946D01*
X93137378Y-47988039D01*
X92569093Y-47875000D01*
X92510907Y-47875000D01*
X91942622Y-47988039D01*
X91460853Y-48309946D01*
X91460029Y-48311179D01*
X91453162Y-48274683D01*
X91314090Y-48058559D01*
X91101890Y-47913569D01*
X90850000Y-47862560D01*
X89150000Y-47862560D01*
X88914683Y-47906838D01*
X88698559Y-48045910D01*
X88553569Y-48258110D01*
X88502560Y-48510000D01*
X88502560Y-50210000D01*
X88546838Y-50445317D01*
X88685910Y-50661441D01*
X88898110Y-50806431D01*
X88965541Y-50820086D01*
X88920853Y-50849946D01*
X88598946Y-51331715D01*
X88485907Y-51900000D01*
X88598946Y-52468285D01*
X88920853Y-52950054D01*
X89250026Y-53170000D01*
X88920853Y-53389946D01*
X88598946Y-53871715D01*
X88485907Y-54440000D01*
X88598946Y-55008285D01*
X88920853Y-55490054D01*
X89250026Y-55710000D01*
X88920853Y-55929946D01*
X88598946Y-56411715D01*
X88485907Y-56980000D01*
X88598946Y-57548285D01*
X88920853Y-58030054D01*
X89402622Y-58351961D01*
X89970907Y-58465000D01*
X90029093Y-58465000D01*
X90597378Y-58351961D01*
X91079147Y-58030054D01*
X91270000Y-57744422D01*
X91460853Y-58030054D01*
X91790026Y-58250000D01*
X91460853Y-58469946D01*
X91138946Y-58951715D01*
X91025907Y-59520000D01*
X91138946Y-60088285D01*
X91460853Y-60570054D01*
X91790026Y-60790000D01*
X91460853Y-61009946D01*
X91270000Y-61295578D01*
X91079147Y-61009946D01*
X90597378Y-60688039D01*
X90029093Y-60575000D01*
X89970907Y-60575000D01*
X89402622Y-60688039D01*
X88920853Y-61009946D01*
X88598946Y-61491715D01*
X88485907Y-62060000D01*
X88598946Y-62628285D01*
X88920853Y-63110054D01*
X89250026Y-63330000D01*
X88920853Y-63549946D01*
X88598946Y-64031715D01*
X88485907Y-64600000D01*
X88598946Y-65168285D01*
X88920853Y-65650054D01*
X89250026Y-65870000D01*
X88920853Y-66089946D01*
X88598946Y-66571715D01*
X88485907Y-67140000D01*
X88598946Y-67708285D01*
X88920853Y-68190054D01*
X89250026Y-68410000D01*
X88920853Y-68629946D01*
X88598946Y-69111715D01*
X88485907Y-69680000D01*
X88598946Y-70248285D01*
X88920853Y-70730054D01*
X89250026Y-70950000D01*
X88920853Y-71169946D01*
X88598946Y-71651715D01*
X88485907Y-72220000D01*
X88598946Y-72788285D01*
X88920853Y-73270054D01*
X89250026Y-73490000D01*
X88920853Y-73709946D01*
X88598946Y-74191715D01*
X88485907Y-74760000D01*
X88598946Y-75328285D01*
X88920853Y-75810054D01*
X89250026Y-76030000D01*
X88920853Y-76249946D01*
X88598946Y-76731715D01*
X88485907Y-77300000D01*
X88598946Y-77868285D01*
X88920853Y-78350054D01*
X89402622Y-78671961D01*
X89970907Y-78785000D01*
X90029093Y-78785000D01*
X90597378Y-78671961D01*
X91079147Y-78350054D01*
X91270000Y-78064422D01*
X91460853Y-78350054D01*
X91790026Y-78570000D01*
X91460853Y-78789946D01*
X91138946Y-79271715D01*
X91025907Y-79840000D01*
X91138946Y-80408285D01*
X91460853Y-80890054D01*
X91790026Y-81110000D01*
X91460853Y-81329946D01*
X91270000Y-81615578D01*
X91079147Y-81329946D01*
X90597378Y-81008039D01*
X90029093Y-80895000D01*
X89970907Y-80895000D01*
X89402622Y-81008039D01*
X88920853Y-81329946D01*
X88598946Y-81811715D01*
X88485907Y-82380000D01*
X88598946Y-82948285D01*
X88920853Y-83430054D01*
X89250026Y-83650000D01*
X88920853Y-83869946D01*
X88598946Y-84351715D01*
X88485907Y-84920000D01*
X88598946Y-85488285D01*
X88920853Y-85970054D01*
X89250026Y-86190000D01*
X88920853Y-86409946D01*
X88598946Y-86891715D01*
X88485907Y-87460000D01*
X88598946Y-88028285D01*
X88920853Y-88510054D01*
X89250026Y-88730000D01*
X88920853Y-88949946D01*
X88598946Y-89431715D01*
X88485907Y-90000000D01*
X88598946Y-90568285D01*
X88920853Y-91050054D01*
X89250026Y-91270000D01*
X88920853Y-91489946D01*
X88598946Y-91971715D01*
X88485907Y-92540000D01*
X88598946Y-93108285D01*
X88920853Y-93590054D01*
X89250026Y-93810000D01*
X88920853Y-94029946D01*
X88598946Y-94511715D01*
X88485907Y-95080000D01*
X88598946Y-95648285D01*
X88920853Y-96130054D01*
X89402622Y-96451961D01*
X89970907Y-96565000D01*
X90029093Y-96565000D01*
X90500000Y-96471331D01*
X90500000Y-97910050D01*
X89105025Y-99305025D01*
X88953284Y-99532121D01*
X88953284Y-99532122D01*
X88900000Y-99800000D01*
X88900000Y-111500000D01*
X88400000Y-111500000D01*
X88400000Y-108581060D01*
X88407466Y-108573607D01*
X88534855Y-108266821D01*
X88535145Y-107934637D01*
X88408292Y-107627628D01*
X88173607Y-107392534D01*
X87866821Y-107265145D01*
X87534637Y-107264855D01*
X87227628Y-107391708D01*
X86992534Y-107626393D01*
X86865145Y-107933179D01*
X86864855Y-108265363D01*
X76550000Y-108265363D01*
X76550000Y-97765363D01*
X79564855Y-97765363D01*
X79691708Y-98072372D01*
X79926393Y-98307466D01*
X80233179Y-98434855D01*
X80565363Y-98435145D01*
X80747228Y-98360000D01*
X82884205Y-98360001D01*
X83031414Y-98507466D01*
X83338200Y-98634855D01*
X83670384Y-98635145D01*
X83977393Y-98508292D01*
X84212487Y-98273607D01*
X84339876Y-97966821D01*
X84340166Y-97634637D01*
X84213313Y-97327628D01*
X83978628Y-97092534D01*
X83737167Y-96992270D01*
X83595861Y-96897853D01*
X83305022Y-96840001D01*
X80747092Y-96840000D01*
X80566821Y-96765145D01*
X80234637Y-96764855D01*
X79927628Y-96891708D01*
X79692534Y-97126393D01*
X79565145Y-97433179D01*
X79564855Y-97765363D01*
X76550000Y-97765363D01*
X76550000Y-97750000D01*
X76524142Y-97620000D01*
X76496716Y-97482121D01*
X76344975Y-97255025D01*
X76235136Y-97145186D01*
X76235145Y-97134637D01*
X76108292Y-96827628D01*
X75873607Y-96592534D01*
X75566821Y-96465145D01*
X75234637Y-96464855D01*
X74927628Y-96591708D01*
X74919322Y-96600000D01*
X59281060Y-96600000D01*
X59273607Y-96592534D01*
X58966821Y-96465145D01*
X58634637Y-96464855D01*
X58327628Y-96591708D01*
X58092534Y-96826393D01*
X57965145Y-97133179D01*
X57964855Y-97465363D01*
X58091708Y-97772372D01*
X58326393Y-98007466D01*
X58633179Y-98134855D01*
X58965363Y-98135145D01*
X59272372Y-98008292D01*
X59280678Y-98000000D01*
X74918940Y-98000000D01*
X74926393Y-98007466D01*
X75150000Y-98100316D01*
X75150000Y-108560051D01*
X72545186Y-111164864D01*
X72534637Y-111164855D01*
X72227628Y-111291708D01*
X72135000Y-111384175D01*
X72135000Y-105000000D01*
X72091573Y-104769205D01*
X71955173Y-104557233D01*
X71747051Y-104415029D01*
X71500000Y-104365000D01*
X69000000Y-104365000D01*
X68769205Y-104408427D01*
X68557233Y-104544827D01*
X68415029Y-104752949D01*
X68365000Y-105000000D01*
X68365000Y-108965000D01*
X55735000Y-108965000D01*
X55735000Y-105000000D01*
X55691573Y-104769205D01*
X55555173Y-104557233D01*
X55347051Y-104415029D01*
X55100000Y-104365000D01*
X52700000Y-104365000D01*
X52469205Y-104408427D01*
X52257233Y-104544827D01*
X52115029Y-104752949D01*
X52065000Y-105000000D01*
X52065000Y-109711594D01*
X51889457Y-109974313D01*
X51765000Y-110600000D01*
X51765000Y-157699995D01*
X51764999Y-157700000D01*
X51889457Y-158325688D01*
X52243880Y-158856120D01*
X58040475Y-164652714D01*
X57865632Y-165073782D01*
X57864370Y-166519874D01*
X58416600Y-167856372D01*
X59438249Y-168879806D01*
X60426105Y-169290000D01*
X52069931Y-169290000D01*
X51511660Y-169178953D01*
X51097669Y-168902333D01*
X50821046Y-168488338D01*
X50710000Y-167930069D01*
X50710000Y-166972325D01*
X51114587Y-166972325D01*
X51476916Y-167849229D01*
X52147242Y-168520726D01*
X53023513Y-168884585D01*
X53972325Y-168885413D01*
X54849229Y-168523084D01*
X55520726Y-167852758D01*
X55884585Y-166976487D01*
X55885413Y-166027675D01*
X55523084Y-165150771D01*
X54852758Y-164479274D01*
X53976487Y-164115415D01*
X53027675Y-164114587D01*
X52150771Y-164476916D01*
X51479274Y-165147242D01*
X51115415Y-166023513D01*
X51114587Y-166972325D01*
X50710000Y-166972325D01*
X50710000Y-100765363D01*
X51764855Y-100765363D01*
X51891708Y-101072372D01*
X52126393Y-101307466D01*
X52308127Y-101382929D01*
X53362599Y-102437401D01*
X53609161Y-102602148D01*
X53900000Y-102660000D01*
X56052909Y-102660000D01*
X56233179Y-102734855D01*
X56565363Y-102735145D01*
X56872372Y-102608292D01*
X57107466Y-102373607D01*
X57234855Y-102066821D01*
X57235145Y-101734637D01*
X57108292Y-101427628D01*
X56873607Y-101192534D01*
X56566821Y-101065145D01*
X56234637Y-101064855D01*
X56052771Y-101140000D01*
X54214802Y-101140000D01*
X53674802Y-100600000D01*
X68114999Y-100600000D01*
X68182367Y-100938674D01*
X68374210Y-101225790D01*
X69624208Y-102475787D01*
X69624210Y-102475790D01*
X69911325Y-102667633D01*
X69967516Y-102678810D01*
X70250000Y-102735001D01*
X70250005Y-102735000D01*
X72748634Y-102735000D01*
X73000000Y-102785001D01*
X73338675Y-102717633D01*
X73625790Y-102525790D01*
X73817633Y-102238675D01*
X73885001Y-101900000D01*
X73817633Y-101561326D01*
X73625790Y-101274211D01*
X73575790Y-101224210D01*
X73350395Y-101073607D01*
X73288675Y-101032367D01*
X73232484Y-101021190D01*
X72950000Y-100964999D01*
X72949995Y-100965000D01*
X70616579Y-100965000D01*
X69625790Y-99974210D01*
X69338674Y-99782367D01*
X69000000Y-99714999D01*
X68661326Y-99782367D01*
X68374210Y-99974210D01*
X68182367Y-100261326D01*
X68114999Y-100600000D01*
X53674802Y-100600000D01*
X53382832Y-100308030D01*
X53308292Y-100127628D01*
X53073607Y-99892534D01*
X52766821Y-99765145D01*
X52434637Y-99764855D01*
X52127628Y-99891708D01*
X51892534Y-100126393D01*
X51765145Y-100433179D01*
X51764855Y-100765363D01*
X50710000Y-100765363D01*
X50710000Y-83270907D01*
X60315000Y-83270907D01*
X60315000Y-83329093D01*
X60428039Y-83897378D01*
X60749946Y-84379147D01*
X61231715Y-84701054D01*
X61800000Y-84814093D01*
X62368285Y-84701054D01*
X62850054Y-84379147D01*
X63171961Y-83897378D01*
X63285000Y-83329093D01*
X63285000Y-83270907D01*
X63171961Y-82702622D01*
X62850054Y-82220853D01*
X62368285Y-81898946D01*
X61800000Y-81785907D01*
X61231715Y-81898946D01*
X60749946Y-82220853D01*
X60428039Y-82702622D01*
X60315000Y-83270907D01*
X50710000Y-83270907D01*
X50710000Y-74900000D01*
X56315000Y-74900000D01*
X56382367Y-75238675D01*
X56574210Y-75525790D01*
X56861325Y-75717633D01*
X57200000Y-75785000D01*
X57401572Y-75785000D01*
X57627852Y-75830011D01*
X57627857Y-75830010D01*
X57849995Y-75830010D01*
X57850000Y-75830011D01*
X57850005Y-75830010D01*
X63959013Y-75830010D01*
X63959018Y-75830011D01*
X63959023Y-75830010D01*
X64563600Y-75830010D01*
X65159369Y-76425778D01*
X65159371Y-76425781D01*
X65446486Y-76617624D01*
X65502677Y-76628801D01*
X65785161Y-76684992D01*
X65785166Y-76684991D01*
X71175492Y-76684991D01*
X76758467Y-82267965D01*
X76468039Y-82702622D01*
X76355000Y-83270907D01*
X76355000Y-83329093D01*
X76468039Y-83897378D01*
X76789946Y-84379147D01*
X77271715Y-84701054D01*
X77840000Y-84814093D01*
X78408285Y-84701054D01*
X78890054Y-84379147D01*
X79211961Y-83897378D01*
X79325000Y-83329093D01*
X79325000Y-83270907D01*
X79211961Y-82702622D01*
X78890054Y-82220853D01*
X78725000Y-82110568D01*
X78725000Y-82097924D01*
X78725001Y-82097919D01*
X78657633Y-81759244D01*
X78465790Y-81472129D01*
X78465787Y-81472127D01*
X72167862Y-75174201D01*
X72164433Y-75171910D01*
X72088907Y-75121445D01*
X72088965Y-75054627D01*
X71962112Y-74747618D01*
X71799777Y-74585000D01*
X72400000Y-74585000D01*
X72738675Y-74517633D01*
X73025790Y-74325790D01*
X73217633Y-74038675D01*
X73285000Y-73700000D01*
X73217633Y-73361325D01*
X73025790Y-73074210D01*
X72738675Y-72882367D01*
X72400000Y-72815000D01*
X71437175Y-72815000D01*
X71238676Y-72682368D01*
X71150633Y-72664855D01*
X70900001Y-72615000D01*
X70899996Y-72615001D01*
X65404027Y-72615001D01*
X65065352Y-72682368D01*
X64778237Y-72874211D01*
X64778235Y-72874214D01*
X64200000Y-73452449D01*
X64200000Y-68589950D01*
X66805023Y-71194972D01*
X66805025Y-71194975D01*
X67032122Y-71346716D01*
X67300000Y-71400000D01*
X68018940Y-71400000D01*
X68026393Y-71407466D01*
X68333179Y-71534855D01*
X68665363Y-71535145D01*
X68970786Y-71408947D01*
X69033179Y-71434855D01*
X69365363Y-71435145D01*
X69672372Y-71308292D01*
X69907466Y-71073607D01*
X70034855Y-70766821D01*
X70034874Y-70744987D01*
X72405037Y-70744987D01*
X75064864Y-73404813D01*
X75064855Y-73415363D01*
X75191708Y-73722372D01*
X75426393Y-73957466D01*
X75733179Y-74084855D01*
X76065363Y-74085145D01*
X76372372Y-73958292D01*
X76607466Y-73723607D01*
X76643880Y-73635912D01*
X76770588Y-73688526D01*
X77102772Y-73688816D01*
X77409781Y-73561963D01*
X77644875Y-73327278D01*
X77772264Y-73020492D01*
X77772554Y-72688308D01*
X77750472Y-72634865D01*
X77809872Y-72491815D01*
X77809913Y-72444478D01*
X77821929Y-72432483D01*
X77941708Y-72722372D01*
X78176393Y-72957466D01*
X78483179Y-73084855D01*
X78815363Y-73085145D01*
X79122372Y-72958292D01*
X79357466Y-72723607D01*
X79484855Y-72416821D01*
X79485145Y-72084637D01*
X79358292Y-71777628D01*
X79123607Y-71542534D01*
X78816821Y-71415145D01*
X78805084Y-71415135D01*
X73399973Y-66010023D01*
X73172877Y-65858282D01*
X72904998Y-65804998D01*
X64995002Y-65804998D01*
X64900000Y-65823895D01*
X64900000Y-63765363D01*
X66164855Y-63765363D01*
X66291708Y-64072372D01*
X66526393Y-64307466D01*
X66833179Y-64434855D01*
X67165363Y-64435145D01*
X67472372Y-64308292D01*
X67480678Y-64300000D01*
X68720486Y-64300000D01*
X68791708Y-64472372D01*
X69026393Y-64707466D01*
X69333179Y-64834855D01*
X69665363Y-64835145D01*
X69972372Y-64708292D01*
X70207466Y-64473607D01*
X70334855Y-64166821D01*
X70335145Y-63834637D01*
X70208292Y-63527628D01*
X69973607Y-63292534D01*
X69666821Y-63165145D01*
X69655085Y-63165135D01*
X69594975Y-63105025D01*
X69367879Y-62953284D01*
X69100000Y-62900000D01*
X67481060Y-62900000D01*
X67473607Y-62892534D01*
X67166821Y-62765145D01*
X66834637Y-62764855D01*
X66527628Y-62891708D01*
X66292534Y-63126393D01*
X66165145Y-63433179D01*
X66164855Y-63765363D01*
X64900000Y-63765363D01*
X64900000Y-61000005D01*
X64900001Y-61000000D01*
X64846716Y-60732121D01*
X64835075Y-60714699D01*
X64835145Y-60634637D01*
X64708292Y-60327628D01*
X64473607Y-60092534D01*
X64166821Y-59965145D01*
X63834637Y-59964855D01*
X63527628Y-60091708D01*
X63292534Y-60326393D01*
X63276457Y-60365110D01*
X62984637Y-60364855D01*
X62677628Y-60491708D01*
X62442534Y-60726393D01*
X62315145Y-61033179D01*
X62314943Y-61264762D01*
X62105025Y-61405025D01*
X61805025Y-61705025D01*
X61653284Y-61932121D01*
X61620885Y-62095002D01*
X61600000Y-62200000D01*
X61600000Y-65620486D01*
X61427628Y-65691708D01*
X61192534Y-65926393D01*
X61065145Y-66233179D01*
X61065135Y-66244915D01*
X61005025Y-66305025D01*
X60853284Y-66532121D01*
X60853284Y-66532122D01*
X60800000Y-66800000D01*
X60800000Y-69918940D01*
X60792534Y-69926393D01*
X60665145Y-70233179D01*
X60664855Y-70565363D01*
X60791708Y-70872372D01*
X61026393Y-71107466D01*
X61295210Y-71219089D01*
X61087544Y-71426393D01*
X60960155Y-71733179D01*
X60959865Y-72065363D01*
X61086718Y-72372372D01*
X61321403Y-72607466D01*
X61628189Y-72734855D01*
X61864724Y-72735061D01*
X61727628Y-72791708D01*
X61492534Y-73026393D01*
X61365145Y-73333179D01*
X61364855Y-73665363D01*
X61491708Y-73972372D01*
X61500000Y-73980678D01*
X61500000Y-74060010D01*
X58576279Y-74060010D01*
X58350000Y-74015000D01*
X57895015Y-74015000D01*
X57895010Y-74014999D01*
X57738926Y-74046047D01*
X57582842Y-74014999D01*
X57582837Y-74015000D01*
X57200000Y-74015000D01*
X56861325Y-74082367D01*
X56574210Y-74274210D01*
X56382367Y-74561325D01*
X56315000Y-74900000D01*
X50710000Y-74900000D01*
X50710000Y-56315363D01*
X57214857Y-56315363D01*
X57341710Y-56622372D01*
X57576395Y-56857466D01*
X57816464Y-56957152D01*
X57914031Y-57193283D01*
X58148716Y-57428377D01*
X58455502Y-57555766D01*
X58787686Y-57556056D01*
X59094695Y-57429203D01*
X59329789Y-57194518D01*
X59457178Y-56887732D01*
X59457468Y-56555548D01*
X59330615Y-56248539D01*
X59095930Y-56013445D01*
X58855861Y-55913759D01*
X58758294Y-55677628D01*
X58523609Y-55442534D01*
X58216823Y-55315145D01*
X57884639Y-55314855D01*
X57577630Y-55441708D01*
X57342536Y-55676393D01*
X57215147Y-55983179D01*
X57214857Y-56315363D01*
X50710000Y-56315363D01*
X50710000Y-51265363D01*
X52064855Y-51265363D01*
X52191708Y-51572372D01*
X52426393Y-51807466D01*
X52733179Y-51934855D01*
X53065363Y-51935145D01*
X53334139Y-51824089D01*
X54914864Y-53404814D01*
X54914855Y-53415363D01*
X55041708Y-53722372D01*
X55276393Y-53957466D01*
X55583179Y-54084855D01*
X55915363Y-54085145D01*
X56222372Y-53958292D01*
X56457466Y-53723607D01*
X56584855Y-53416821D01*
X56585145Y-53084637D01*
X56458292Y-52777628D01*
X56223607Y-52542534D01*
X55916821Y-52415145D01*
X55905085Y-52415135D01*
X55755313Y-52265363D01*
X66464855Y-52265363D01*
X66591708Y-52572372D01*
X66826393Y-52807466D01*
X67008127Y-52882929D01*
X70040000Y-55914802D01*
X70040000Y-57952909D01*
X69965145Y-58133179D01*
X69964855Y-58465363D01*
X70091708Y-58772372D01*
X70326393Y-59007466D01*
X70633179Y-59134855D01*
X70965363Y-59135145D01*
X71272372Y-59008292D01*
X71507466Y-58773607D01*
X71634855Y-58466821D01*
X71635145Y-58134637D01*
X71560000Y-57952771D01*
X71560000Y-55600000D01*
X71502148Y-55309161D01*
X71502148Y-55309160D01*
X71337401Y-55062599D01*
X68082832Y-51808030D01*
X68008292Y-51627628D01*
X67773607Y-51392534D01*
X67466821Y-51265145D01*
X67134637Y-51264855D01*
X66827628Y-51391708D01*
X66592534Y-51626393D01*
X66465145Y-51933179D01*
X66464855Y-52265363D01*
X55755313Y-52265363D01*
X54589950Y-51100000D01*
X55160050Y-51100000D01*
X55414864Y-51354814D01*
X55414855Y-51365363D01*
X55541708Y-51672372D01*
X55776393Y-51907466D01*
X56083179Y-52034855D01*
X56415363Y-52035145D01*
X56722372Y-51908292D01*
X56957466Y-51673607D01*
X57084855Y-51366821D01*
X57085145Y-51034637D01*
X56958292Y-50727628D01*
X56723607Y-50492534D01*
X56416821Y-50365145D01*
X56405085Y-50365135D01*
X55944975Y-49905025D01*
X55717879Y-49753284D01*
X55450000Y-49700000D01*
X53981060Y-49700000D01*
X53973607Y-49692534D01*
X53666821Y-49565145D01*
X53334637Y-49564855D01*
X53027628Y-49691708D01*
X52792534Y-49926393D01*
X52665145Y-50233179D01*
X52665092Y-50293590D01*
X52427628Y-50391708D01*
X52192534Y-50626393D01*
X52065145Y-50933179D01*
X52064855Y-51265363D01*
X50710000Y-51265363D01*
X50710000Y-38070907D01*
X59875000Y-38070907D01*
X59875000Y-38129093D01*
X59988039Y-38697378D01*
X60309946Y-39179147D01*
X60791715Y-39501054D01*
X61360000Y-39614093D01*
X61928285Y-39501054D01*
X62410054Y-39179147D01*
X62731961Y-38697378D01*
X62845000Y-38129093D01*
X62845000Y-38070907D01*
X64955000Y-38070907D01*
X64955000Y-38129093D01*
X65068039Y-38697378D01*
X65389946Y-39179147D01*
X65871715Y-39501054D01*
X66440000Y-39614093D01*
X67008285Y-39501054D01*
X67490054Y-39179147D01*
X67811961Y-38697378D01*
X67925000Y-38129093D01*
X67925000Y-38070907D01*
X73075000Y-38070907D01*
X73075000Y-38129093D01*
X73188039Y-38697378D01*
X73509946Y-39179147D01*
X73991715Y-39501054D01*
X74560000Y-39614093D01*
X75128285Y-39501054D01*
X75610054Y-39179147D01*
X75637850Y-39137548D01*
X75646838Y-39185317D01*
X75785910Y-39401441D01*
X75998110Y-39546431D01*
X76250000Y-39597440D01*
X77950000Y-39597440D01*
X78185317Y-39553162D01*
X78401441Y-39414090D01*
X78546431Y-39201890D01*
X78597440Y-38950000D01*
X78597440Y-38070907D01*
X81075000Y-38070907D01*
X81075000Y-38129093D01*
X81188039Y-38697378D01*
X81509946Y-39179147D01*
X81991715Y-39501054D01*
X82560000Y-39614093D01*
X83128285Y-39501054D01*
X83610054Y-39179147D01*
X83637850Y-39137548D01*
X83646838Y-39185317D01*
X83785910Y-39401441D01*
X83998110Y-39546431D01*
X84250000Y-39597440D01*
X85950000Y-39597440D01*
X86185317Y-39553162D01*
X86401441Y-39414090D01*
X86546431Y-39201890D01*
X86597440Y-38950000D01*
X86597440Y-37250000D01*
X86553162Y-37014683D01*
X86414090Y-36798559D01*
X86201890Y-36653569D01*
X85950000Y-36602560D01*
X84250000Y-36602560D01*
X84014683Y-36646838D01*
X83798559Y-36785910D01*
X83653569Y-36998110D01*
X83639914Y-37065541D01*
X83610054Y-37020853D01*
X83128285Y-36698946D01*
X82560000Y-36585907D01*
X81991715Y-36698946D01*
X81509946Y-37020853D01*
X81188039Y-37502622D01*
X81075000Y-38070907D01*
X78597440Y-38070907D01*
X78597440Y-37250000D01*
X78553162Y-37014683D01*
X78414090Y-36798559D01*
X78201890Y-36653569D01*
X77950000Y-36602560D01*
X76250000Y-36602560D01*
X76014683Y-36646838D01*
X75798559Y-36785910D01*
X75653569Y-36998110D01*
X75639914Y-37065541D01*
X75610054Y-37020853D01*
X75128285Y-36698946D01*
X74560000Y-36585907D01*
X73991715Y-36698946D01*
X73509946Y-37020853D01*
X73188039Y-37502622D01*
X73075000Y-38070907D01*
X67925000Y-38070907D01*
X67811961Y-37502622D01*
X67490054Y-37020853D01*
X67008285Y-36698946D01*
X66440000Y-36585907D01*
X65871715Y-36698946D01*
X65389946Y-37020853D01*
X65068039Y-37502622D01*
X64955000Y-38070907D01*
X62845000Y-38070907D01*
X62731961Y-37502622D01*
X62410054Y-37020853D01*
X61928285Y-36698946D01*
X61360000Y-36585907D01*
X60791715Y-36698946D01*
X60309946Y-37020853D01*
X59988039Y-37502622D01*
X59875000Y-38070907D01*
X50710000Y-38070907D01*
X50710000Y-33972325D01*
X51114587Y-33972325D01*
X51476916Y-34849229D01*
X52147242Y-35520726D01*
X53023513Y-35884585D01*
X53972325Y-35885413D01*
X54849229Y-35523084D01*
X55520726Y-34852758D01*
X55884585Y-33976487D01*
X55884588Y-33972325D01*
X89114587Y-33972325D01*
X89476916Y-34849229D01*
X90147242Y-35520726D01*
X91023513Y-35884585D01*
X91972325Y-35885413D01*
X92849229Y-35523084D01*
X93520726Y-34852758D01*
X93884585Y-33976487D01*
X93885413Y-33027675D01*
X93523084Y-32150771D01*
X92852758Y-31479274D01*
X91976487Y-31115415D01*
X91027675Y-31114587D01*
X90150771Y-31476916D01*
X89479274Y-32147242D01*
X89115415Y-33023513D01*
X89114587Y-33972325D01*
X55884588Y-33972325D01*
X55885413Y-33027675D01*
X55523084Y-32150771D01*
X54852758Y-31479274D01*
X53976487Y-31115415D01*
X53027675Y-31114587D01*
X52150771Y-31476916D01*
X51479274Y-32147242D01*
X51115415Y-33023513D01*
X51114587Y-33972325D01*
X50710000Y-33972325D01*
X50710000Y-32069931D01*
X50821046Y-31511662D01*
X51097669Y-31097667D01*
X51511660Y-30821047D01*
X52069931Y-30710000D01*
X92930069Y-30710000D01*
X93488338Y-30821046D01*
G36*
X71373000Y-111473000D02*
X69127000Y-111473000D01*
X69127000Y-105127000D01*
X71373000Y-105127000D01*
X71373000Y-111473000D01*
X71373000Y-111473000D01*
G37*
X71373000Y-111473000D02*
X69127000Y-111473000D01*
X69127000Y-105127000D01*
X71373000Y-105127000D01*
X71373000Y-111473000D01*
G36*
X54973000Y-111473000D02*
X52827000Y-111473000D01*
X52827000Y-105127000D01*
X54973000Y-105127000D01*
X54973000Y-111473000D01*
X54973000Y-111473000D01*
G37*
X54973000Y-111473000D02*
X52827000Y-111473000D01*
X52827000Y-105127000D01*
X54973000Y-105127000D01*
X54973000Y-111473000D01*
M02*
