M48
INCH,TZ
T1C0.010
T2C0.012
T3C0.039
T4C0.114
T5C0.177
%
G90
G05
T1
X20128Y-48593
X20148Y-52982
X20157Y-44469
X20157Y-46732
X20197Y-37992
X20197Y-40571
X20709Y-39606
X20827Y-20118
X21014Y-30591
X21024Y-42362
X21024Y-42756
X21024Y-43150
X21024Y-43543
X21063Y-19843
X21220Y-41693
X21378Y-38819
X21398Y-39488
X21417Y-42362
X21417Y-42756
X21417Y-43150
X21417Y-43543
X21535Y-21634
X21624Y-22077
X21634Y-39478
X21673Y-38799
X21791Y-16240
X21890Y-62008
X21929Y-17638
X21949Y-20965
X21959Y-39488
X22018Y-38809
X22146Y-20157
X22165Y-62126
X22205Y-40118
X22264Y-39488
X22421Y-30689
X22431Y-38799
X22500Y-18415
X22520Y-29488
X22657Y-39459
X22717Y-24281
X22766Y-38819
X22776Y-29506
X22854Y-22106
X22972Y-29488
X22982Y-61270
X22992Y-39498
X23012Y-38819
X23041Y-23346
X23080Y-22331
X23140Y-16506
X23150Y-38307
X23346Y-27362
X23681Y-24016
X23780Y-58189
X23780Y-58445
X23780Y-58697
X23780Y-58957
X23819Y-56654
X23829Y-61496
X23848Y-35167
X23868Y-36673
X23917Y-12618
X23994Y-56381
X24094Y-30984
X24213Y-27717
X24329Y-28307
X24370Y-26142
X24488Y-28937
X24636Y-61585
X24713Y-29162
X24791Y-24606
X24862Y-24094
X25000Y-24606
X25000Y-24815
X25197Y-23937
X25226Y-50167
X25453Y-28140
X25484Y-26288
X25492Y-13179
X25512Y-27736
X25758Y-17293
X25768Y-27805
X25795Y-29400
X25797Y-52628
X25807Y-28100
X25830Y-29195
X25850Y-26494
X25965Y-48150
X26014Y-18898
X26032Y-29614
X26063Y-26494
X26063Y-61496
X26102Y-57677
X26102Y-57933
X26102Y-58697
X26102Y-59720
X26299Y-37638
X26339Y-26494
X26378Y-25039
X26417Y-40217
X26452Y-29512
X26496Y-20512
X26693Y-26339
X26850Y-61535
X26969Y-27835
X27008Y-60945
X27019Y-29254
X27165Y-39606
X27244Y-27795
X27362Y-25197
X27389Y-29409
X27402Y-42323
X27402Y-42598
X27402Y-42874
X27402Y-43150
X27431Y-13031
X27470Y-16280
X27470Y-50236
X27638Y-41693
X27677Y-43543
X27846Y-29512
X27874Y-22953
X27874Y-42323
X27874Y-42598
X27874Y-42874
X27874Y-43150
X27894Y-39596
X27953Y-57126
X27953Y-57717
X27972Y-38789
X27992Y-29016
X28041Y-27982
X28053Y-29614
X28081Y-39577
X28169Y-52717
X28209Y-61722
X28228Y-29016
X28248Y-46230
X28268Y-38770
X28356Y-48386
X28465Y-39567
X28504Y-29016
X28543Y-38760
X28553Y-28091
X28622Y-44094
X28632Y-25354
X28740Y-40118
X28780Y-38770
X28799Y-39596
X28888Y-12992
X28917Y-61811
X29016Y-25758
X29026Y-25256
X29065Y-38760
X29154Y-39596
X29439Y-38770
X29459Y-39616
X29577Y-45906
X29685Y-38307
X29862Y-34843
X29882Y-28839
X29882Y-45856
X29902Y-18484
X30059Y-36742
X30079Y-43602
X30108Y-58287
X30118Y-50886
X30285Y-52795
X30290Y-28683
X30305Y-28474
X30401Y-28289
X30472Y-39124
X30571Y-16988
X30807Y-47087
X30965Y-28445
X31161Y-43287
X31339Y-48337
X31535Y-45856
X31614Y-12923
X31654Y-38425
X31919Y-18563
X31919Y-43248
X32156Y-49911
X32205Y-62205
X32244Y-39085
X32437Y-58073
X32559Y-40118
X32579Y-53553
X32874Y-23337
X32876Y-38504
X33140Y-22096
X33228Y-44291
X33258Y-16801
X33524Y-44291
X33533Y-26565
X33563Y-25719
X33720Y-24675
X33740Y-45354
X33752Y-44988
X33967Y-17510
X33996Y-21673
X33996Y-54557
X34045Y-23711
X34065Y-41299
X34075Y-40778
X34094Y-43346
X34094Y-44055
X34104Y-22864
X34134Y-26319
X34222Y-25226
X34380Y-50167
X34429Y-23848
X34528Y-42559
X34803Y-53209
X34843Y-44331
X35236Y-17628
X35246Y-51260
X35502Y-45217
X35512Y-59400
X35787Y-41969
X35984Y-40827
X36299Y-45915
X36447Y-45030
X36585Y-44104
X36860Y-59409
T2
X24429Y-57803
X24429Y-58315
X24429Y-58827
X24429Y-59339
X24429Y-59850
X24941Y-57803
X24941Y-58315
X24941Y-58827
X24941Y-59339
X24941Y-59850
X25453Y-57803
X25453Y-58315
X25453Y-58827
X25453Y-59339
X25453Y-59850
T3
X23157Y-15000
X23331Y-32795
X24157Y-15000
X24331Y-32795
X25157Y-15000
X26157Y-15000
X29354Y-15000
X29646Y-32795
X30354Y-15000
X30646Y-32795
X32504Y-15000
X33504Y-15000
X35433Y-19433
X35433Y-20433
X35433Y-21433
X35433Y-22433
X35433Y-23433
X35433Y-24433
X35433Y-25433
X35433Y-26433
X35433Y-27433
X35433Y-28433
X35433Y-29433
X35433Y-30433
X35433Y-31433
X35433Y-32433
X35433Y-33433
X35433Y-34433
X35433Y-35433
X35433Y-36433
X35433Y-37433
X35433Y-38433
X36433Y-19433
X36433Y-20433
X36433Y-21433
X36433Y-22433
X36433Y-23433
X36433Y-24433
X36433Y-25433
X36433Y-26433
X36433Y-27433
X36433Y-28433
X36433Y-29433
X36433Y-30433
X36433Y-31433
X36433Y-32433
X36433Y-33433
X36433Y-34433
X36433Y-35433
X36433Y-36433
X36433Y-37433
X36433Y-38433
T4
X30984Y-63661
X30984Y-65630
X33228Y-63661
X33228Y-65630
T5
X24213Y-65276
X27047Y-65276
T0
M30
