G04 #@! TF.FileFunction,Legend,Top*
%FSLAX46Y46*%
G04 Gerber Fmt 4.6, Leading zero omitted, Abs format (unit mm)*
G04 Created by KiCad (PCBNEW 4.0.6) date 11/06/18 21:24:15*
%MOMM*%
%LPD*%
G01*
G04 APERTURE LIST*
%ADD10C,0.100000*%
%ADD11C,0.120000*%
%ADD12C,0.150000*%
%ADD13C,0.127000*%
%ADD14C,0.152400*%
%ADD15C,0.050000*%
G04 APERTURE END LIST*
D10*
D11*
X58700000Y-148400000D02*
X58700000Y-149100000D01*
X57500000Y-149100000D02*
X57500000Y-148400000D01*
X66400000Y-143600000D02*
X67100000Y-143600000D01*
X67100000Y-144800000D02*
X66400000Y-144800000D01*
X61800000Y-153900000D02*
X62500000Y-153900000D01*
X62500000Y-155100000D02*
X61800000Y-155100000D01*
X69600000Y-99500000D02*
X69600000Y-100200000D01*
X68400000Y-100200000D02*
X68400000Y-99500000D01*
X53200000Y-99500000D02*
X53200000Y-100200000D01*
X52000000Y-100200000D02*
X52000000Y-99500000D01*
X70900000Y-150100000D02*
X70900000Y-150800000D01*
X69700000Y-150800000D02*
X69700000Y-150100000D01*
X67850000Y-146300000D02*
X67850000Y-147300000D01*
X69550000Y-147300000D02*
X69550000Y-146300000D01*
X81900000Y-156730000D02*
X85500000Y-156730000D01*
X85500000Y-153270000D02*
X81900000Y-153270000D01*
X81900000Y-152830000D02*
X85500000Y-152830000D01*
X85500000Y-149370000D02*
X81900000Y-149370000D01*
X85600000Y-122100000D02*
X86300000Y-122100000D01*
X86300000Y-123300000D02*
X85600000Y-123300000D01*
X52200000Y-54600000D02*
X52900000Y-54600000D01*
X52900000Y-55800000D02*
X52200000Y-55800000D01*
X90200000Y-122100000D02*
X90900000Y-122100000D01*
X90900000Y-123300000D02*
X90200000Y-123300000D01*
X67750000Y-155250000D02*
X69450000Y-155250000D01*
X69450000Y-155250000D02*
X69450000Y-152700000D01*
X67750000Y-155250000D02*
X67750000Y-152700000D01*
X74900000Y-51100000D02*
X74900000Y-52100000D01*
X74900000Y-52100000D02*
X77000000Y-52100000D01*
X74900000Y-51100000D02*
X77000000Y-51100000D01*
X82100000Y-52100000D02*
X82100000Y-51100000D01*
X82100000Y-51100000D02*
X80000000Y-51100000D01*
X82100000Y-52100000D02*
X80000000Y-52100000D01*
D12*
X73100000Y-161800000D02*
X73100000Y-169800000D01*
X57100000Y-161800000D02*
X73100000Y-161800000D01*
X57100000Y-169800000D02*
X57100000Y-161800000D01*
X73100000Y-169800000D02*
X57100000Y-169800000D01*
X81500000Y-169300000D02*
X75900000Y-169300000D01*
X81500000Y-159100000D02*
X81500000Y-169300000D01*
X75900000Y-159100000D02*
X81500000Y-159100000D01*
X75900000Y-169300000D02*
X75900000Y-159100000D01*
X87200000Y-169300000D02*
X81600000Y-169300000D01*
X87200000Y-159100000D02*
X87200000Y-169300000D01*
X81600000Y-159100000D02*
X87200000Y-159100000D01*
X81600000Y-169300000D02*
X81600000Y-159100000D01*
D11*
X75885000Y-61905000D02*
X79415000Y-61905000D01*
X75885000Y-68375000D02*
X79415000Y-68375000D01*
X74560000Y-61970000D02*
X75885000Y-61970000D01*
X75885000Y-61905000D02*
X75885000Y-61970000D01*
X79415000Y-61905000D02*
X79415000Y-61970000D01*
X75885000Y-68310000D02*
X75885000Y-68375000D01*
X79415000Y-68310000D02*
X79415000Y-68375000D01*
D12*
X50800000Y-108800000D02*
X50800000Y-141800000D01*
X82800000Y-108800000D02*
X50800000Y-108800000D01*
X82800000Y-141800000D02*
X82800000Y-108800000D01*
X50800000Y-141800000D02*
X82800000Y-141800000D01*
D13*
X88430000Y-143100000D02*
X88430000Y-148100000D01*
X88430000Y-148100000D02*
X81430000Y-148100000D01*
X81430000Y-148100000D02*
X81430000Y-143100000D01*
X81430000Y-143100000D02*
X88430000Y-143100000D01*
X85247500Y-143695000D02*
G75*
G03X85247500Y-143695000I-317500J0D01*
G01*
D11*
X64350000Y-144880000D02*
X63350000Y-144880000D01*
X63350000Y-143520000D02*
X64350000Y-143520000D01*
X57420000Y-152100000D02*
X57420000Y-151100000D01*
X58780000Y-151100000D02*
X58780000Y-152100000D01*
X51580000Y-161500000D02*
X51580000Y-156300000D01*
X55220000Y-156300000D02*
X55220000Y-161500000D01*
X64950000Y-153820000D02*
X65950000Y-153820000D01*
X65950000Y-155180000D02*
X64950000Y-155180000D01*
X64950000Y-155520000D02*
X65950000Y-155520000D01*
X65950000Y-156880000D02*
X64950000Y-156880000D01*
X83350000Y-157320000D02*
X84350000Y-157320000D01*
X84350000Y-158680000D02*
X83350000Y-158680000D01*
X80550000Y-157320000D02*
X81550000Y-157320000D01*
X81550000Y-158680000D02*
X80550000Y-158680000D01*
X85450000Y-120020000D02*
X86450000Y-120020000D01*
X86450000Y-121380000D02*
X85450000Y-121380000D01*
X86450000Y-119480000D02*
X85450000Y-119480000D01*
X85450000Y-118120000D02*
X86450000Y-118120000D01*
X53050000Y-58380000D02*
X52050000Y-58380000D01*
X52050000Y-57020000D02*
X53050000Y-57020000D01*
X53050000Y-60680000D02*
X52050000Y-60680000D01*
X52050000Y-59320000D02*
X53050000Y-59320000D01*
X91050000Y-119480000D02*
X90050000Y-119480000D01*
X90050000Y-118120000D02*
X91050000Y-118120000D01*
X90050000Y-120020000D02*
X91050000Y-120020000D01*
X91050000Y-121380000D02*
X90050000Y-121380000D01*
X75650000Y-52520000D02*
X76650000Y-52520000D01*
X76650000Y-53880000D02*
X75650000Y-53880000D01*
X81250000Y-53880000D02*
X80250000Y-53880000D01*
X80250000Y-52520000D02*
X81250000Y-52520000D01*
X61120000Y-152870000D02*
X65580000Y-152870000D01*
X59600000Y-145970000D02*
X65580000Y-145970000D01*
D14*
X69955400Y-51523600D02*
X69523600Y-51523600D01*
X72444600Y-54876400D02*
X72876400Y-54876400D01*
X72876400Y-54876400D02*
X72876400Y-51523600D01*
X72876400Y-51523600D02*
X72444600Y-51523600D01*
X69523600Y-51523600D02*
X69523600Y-54876400D01*
X69523600Y-54876400D02*
X69955400Y-54876400D01*
D11*
X67100000Y-157870000D02*
X63500000Y-157870000D01*
X63500000Y-161330000D02*
X67100000Y-161330000D01*
X79170000Y-84630000D02*
X79170000Y-81970000D01*
X76570000Y-84630000D02*
X79170000Y-84630000D01*
X76570000Y-81970000D02*
X79170000Y-81970000D01*
X76570000Y-84630000D02*
X76570000Y-81970000D01*
X75300000Y-84630000D02*
X73970000Y-84630000D01*
X73970000Y-84630000D02*
X73970000Y-83300000D01*
X63130000Y-84630000D02*
X63130000Y-81970000D01*
X60530000Y-84630000D02*
X63130000Y-84630000D01*
X60530000Y-81970000D02*
X63130000Y-81970000D01*
X60530000Y-84630000D02*
X60530000Y-81970000D01*
X59260000Y-84630000D02*
X57930000Y-84630000D01*
X57930000Y-84630000D02*
X57930000Y-83300000D01*
X67900000Y-52500000D02*
X67900000Y-53200000D01*
X66700000Y-53200000D02*
X66700000Y-52500000D01*
X71480000Y-62850000D02*
X71480000Y-63850000D01*
X70120000Y-63850000D02*
X70120000Y-62850000D01*
X60500000Y-65100000D02*
X60500000Y-64400000D01*
X61700000Y-64400000D02*
X61700000Y-65100000D01*
X71500000Y-71800000D02*
X72200000Y-71800000D01*
X72200000Y-73000000D02*
X71500000Y-73000000D01*
X59750000Y-73600000D02*
X59050000Y-73600000D01*
X59050000Y-72400000D02*
X59750000Y-72400000D01*
X90220000Y-106350000D02*
X90220000Y-105350000D01*
X91580000Y-105350000D02*
X91580000Y-106350000D01*
X88200000Y-106300000D02*
X88200000Y-105600000D01*
X89400000Y-105600000D02*
X89400000Y-106300000D01*
X61720000Y-49950000D02*
X61720000Y-48950000D01*
X63080000Y-48950000D02*
X63080000Y-49950000D01*
X81230000Y-36770000D02*
X81230000Y-39430000D01*
X83830000Y-36770000D02*
X81230000Y-36770000D01*
X83830000Y-39430000D02*
X81230000Y-39430000D01*
X83830000Y-36770000D02*
X83830000Y-39430000D01*
X85100000Y-36770000D02*
X86430000Y-36770000D01*
X86430000Y-36770000D02*
X86430000Y-38100000D01*
X73230000Y-36770000D02*
X73230000Y-39430000D01*
X75830000Y-36770000D02*
X73230000Y-36770000D01*
X75830000Y-39430000D02*
X73230000Y-39430000D01*
X75830000Y-36770000D02*
X75830000Y-39430000D01*
X77100000Y-36770000D02*
X78430000Y-36770000D01*
X78430000Y-36770000D02*
X78430000Y-38100000D01*
X67770000Y-39430000D02*
X67770000Y-36770000D01*
X60090000Y-39430000D02*
X67770000Y-39430000D01*
X60090000Y-36770000D02*
X67770000Y-36770000D01*
X60090000Y-39430000D02*
X60090000Y-36770000D01*
X58820000Y-39430000D02*
X57490000Y-39430000D01*
X57490000Y-39430000D02*
X57490000Y-38100000D01*
X76620000Y-104400000D02*
X76620000Y-106400000D01*
X79580000Y-106400000D02*
X79580000Y-104400000D01*
X60020000Y-104400000D02*
X60020000Y-106400000D01*
X62980000Y-106400000D02*
X62980000Y-104400000D01*
X63320000Y-104400000D02*
X63320000Y-106400000D01*
X66280000Y-106400000D02*
X66280000Y-104400000D01*
X79820000Y-104400000D02*
X79820000Y-106400000D01*
X82780000Y-106400000D02*
X82780000Y-104400000D01*
X81600000Y-92900000D02*
X81600000Y-96100000D01*
X81600000Y-96100000D02*
X71000000Y-96100000D01*
X71000000Y-96100000D02*
X71000000Y-92900000D01*
X71000000Y-88700000D02*
X71000000Y-85500000D01*
X71000000Y-85500000D02*
X81600000Y-85500000D01*
X81600000Y-85500000D02*
X81600000Y-88700000D01*
X65950000Y-92900000D02*
X65950000Y-96100000D01*
X65950000Y-96100000D02*
X55350000Y-96100000D01*
X55350000Y-96100000D02*
X55350000Y-92900000D01*
X55350000Y-88700000D02*
X55350000Y-85500000D01*
X55350000Y-85500000D02*
X65950000Y-85500000D01*
X65950000Y-85500000D02*
X65950000Y-88700000D01*
X70150000Y-89400000D02*
X66850000Y-89400000D01*
X66850000Y-89400000D02*
X66850000Y-94800000D01*
X70150000Y-89400000D02*
X70150000Y-94800000D01*
X54250000Y-88300000D02*
X50950000Y-88300000D01*
X50950000Y-88300000D02*
X50950000Y-93700000D01*
X54250000Y-88300000D02*
X54250000Y-93700000D01*
X59300000Y-107550000D02*
X59300000Y-104250000D01*
X59300000Y-104250000D02*
X53900000Y-104250000D01*
X59300000Y-107550000D02*
X53900000Y-107550000D01*
X75600000Y-107550000D02*
X75600000Y-104250000D01*
X75600000Y-104250000D02*
X70200000Y-104250000D01*
X75600000Y-107550000D02*
X70200000Y-107550000D01*
X82630000Y-100100000D02*
X82630000Y-98100000D01*
X79670000Y-98100000D02*
X79670000Y-100100000D01*
X62580000Y-100800000D02*
X62580000Y-98800000D01*
X59620000Y-98800000D02*
X59620000Y-100800000D01*
X79480000Y-100100000D02*
X79480000Y-98100000D01*
X76520000Y-98100000D02*
X76520000Y-100100000D01*
X65830000Y-100800000D02*
X65830000Y-98800000D01*
X62870000Y-98800000D02*
X62870000Y-100800000D01*
X52200000Y-142650000D02*
X52200000Y-145950000D01*
X52200000Y-145950000D02*
X57600000Y-145950000D01*
X52200000Y-142650000D02*
X57600000Y-142650000D01*
D13*
X55700000Y-154130000D02*
X50700000Y-154130000D01*
X50700000Y-154130000D02*
X50700000Y-147130000D01*
X50700000Y-147130000D02*
X55700000Y-147130000D01*
X55700000Y-147130000D02*
X55700000Y-154130000D01*
X55422500Y-150630000D02*
G75*
G03X55422500Y-150630000I-317500J0D01*
G01*
D11*
X70320000Y-146350000D02*
X70320000Y-145350000D01*
X71680000Y-145350000D02*
X71680000Y-146350000D01*
X88670000Y-98950000D02*
X93870000Y-98950000D01*
X88670000Y-50630000D02*
X88670000Y-98950000D01*
X93870000Y-48030000D02*
X93870000Y-98950000D01*
X88670000Y-50630000D02*
X91270000Y-50630000D01*
X91270000Y-50630000D02*
X91270000Y-48030000D01*
X91270000Y-48030000D02*
X93870000Y-48030000D01*
X88670000Y-49360000D02*
X88670000Y-48030000D01*
X88670000Y-48030000D02*
X90000000Y-48030000D01*
X69100000Y-150200000D02*
X69100000Y-150900000D01*
X67900000Y-150900000D02*
X67900000Y-150200000D01*
D12*
X52166667Y-162452381D02*
X51833333Y-161976190D01*
X51595238Y-162452381D02*
X51595238Y-161452381D01*
X51976191Y-161452381D01*
X52071429Y-161500000D01*
X52119048Y-161547619D01*
X52166667Y-161642857D01*
X52166667Y-161785714D01*
X52119048Y-161880952D01*
X52071429Y-161928571D01*
X51976191Y-161976190D01*
X51595238Y-161976190D01*
X52595238Y-161928571D02*
X52928572Y-161928571D01*
X53071429Y-162452381D02*
X52595238Y-162452381D01*
X52595238Y-161452381D01*
X53071429Y-161452381D01*
X53833334Y-161928571D02*
X53500000Y-161928571D01*
X53500000Y-162452381D02*
X53500000Y-161452381D01*
X53976191Y-161452381D01*
X54500000Y-161452381D02*
X54500000Y-161690476D01*
X54261905Y-161595238D02*
X54500000Y-161690476D01*
X54738096Y-161595238D01*
X54357143Y-161880952D02*
X54500000Y-161690476D01*
X54642858Y-161880952D01*
X55261905Y-161452381D02*
X55261905Y-161690476D01*
X55023810Y-161595238D02*
X55261905Y-161690476D01*
X55500001Y-161595238D01*
X55119048Y-161880952D02*
X55261905Y-161690476D01*
X55404763Y-161880952D01*
X57057143Y-148666666D02*
X57104762Y-148714285D01*
X57152381Y-148857142D01*
X57152381Y-148952380D01*
X57104762Y-149095238D01*
X57009524Y-149190476D01*
X56914286Y-149238095D01*
X56723810Y-149285714D01*
X56580952Y-149285714D01*
X56390476Y-149238095D01*
X56295238Y-149190476D01*
X56200000Y-149095238D01*
X56152381Y-148952380D01*
X56152381Y-148857142D01*
X56200000Y-148714285D01*
X56247619Y-148666666D01*
X56485714Y-147809523D02*
X57152381Y-147809523D01*
X56104762Y-148047619D02*
X56819048Y-148285714D01*
X56819048Y-147666666D01*
X66683334Y-143107143D02*
X66635715Y-143154762D01*
X66492858Y-143202381D01*
X66397620Y-143202381D01*
X66254762Y-143154762D01*
X66159524Y-143059524D01*
X66111905Y-142964286D01*
X66064286Y-142773810D01*
X66064286Y-142630952D01*
X66111905Y-142440476D01*
X66159524Y-142345238D01*
X66254762Y-142250000D01*
X66397620Y-142202381D01*
X66492858Y-142202381D01*
X66635715Y-142250000D01*
X66683334Y-142297619D01*
X67635715Y-143202381D02*
X67064286Y-143202381D01*
X67350000Y-143202381D02*
X67350000Y-142202381D01*
X67254762Y-142345238D01*
X67159524Y-142440476D01*
X67064286Y-142488095D01*
X59483334Y-155007143D02*
X59435715Y-155054762D01*
X59292858Y-155102381D01*
X59197620Y-155102381D01*
X59054762Y-155054762D01*
X58959524Y-154959524D01*
X58911905Y-154864286D01*
X58864286Y-154673810D01*
X58864286Y-154530952D01*
X58911905Y-154340476D01*
X58959524Y-154245238D01*
X59054762Y-154150000D01*
X59197620Y-154102381D01*
X59292858Y-154102381D01*
X59435715Y-154150000D01*
X59483334Y-154197619D01*
X60340477Y-154102381D02*
X60150000Y-154102381D01*
X60054762Y-154150000D01*
X60007143Y-154197619D01*
X59911905Y-154340476D01*
X59864286Y-154530952D01*
X59864286Y-154911905D01*
X59911905Y-155007143D01*
X59959524Y-155054762D01*
X60054762Y-155102381D01*
X60245239Y-155102381D01*
X60340477Y-155054762D01*
X60388096Y-155007143D01*
X60435715Y-154911905D01*
X60435715Y-154673810D01*
X60388096Y-154578571D01*
X60340477Y-154530952D01*
X60245239Y-154483333D01*
X60054762Y-154483333D01*
X59959524Y-154530952D01*
X59911905Y-154578571D01*
X59864286Y-154673810D01*
X68557143Y-102241666D02*
X68604762Y-102289285D01*
X68652381Y-102432142D01*
X68652381Y-102527380D01*
X68604762Y-102670238D01*
X68509524Y-102765476D01*
X68414286Y-102813095D01*
X68223810Y-102860714D01*
X68080952Y-102860714D01*
X67890476Y-102813095D01*
X67795238Y-102765476D01*
X67700000Y-102670238D01*
X67652381Y-102527380D01*
X67652381Y-102432142D01*
X67700000Y-102289285D01*
X67747619Y-102241666D01*
X67652381Y-101908333D02*
X67652381Y-101241666D01*
X68652381Y-101670238D01*
X51457143Y-100016666D02*
X51504762Y-100064285D01*
X51552381Y-100207142D01*
X51552381Y-100302380D01*
X51504762Y-100445238D01*
X51409524Y-100540476D01*
X51314286Y-100588095D01*
X51123810Y-100635714D01*
X50980952Y-100635714D01*
X50790476Y-100588095D01*
X50695238Y-100540476D01*
X50600000Y-100445238D01*
X50552381Y-100302380D01*
X50552381Y-100207142D01*
X50600000Y-100064285D01*
X50647619Y-100016666D01*
X50980952Y-99445238D02*
X50933333Y-99540476D01*
X50885714Y-99588095D01*
X50790476Y-99635714D01*
X50742857Y-99635714D01*
X50647619Y-99588095D01*
X50600000Y-99540476D01*
X50552381Y-99445238D01*
X50552381Y-99254761D01*
X50600000Y-99159523D01*
X50647619Y-99111904D01*
X50742857Y-99064285D01*
X50790476Y-99064285D01*
X50885714Y-99111904D01*
X50933333Y-99159523D01*
X50980952Y-99254761D01*
X50980952Y-99445238D01*
X51028571Y-99540476D01*
X51076190Y-99588095D01*
X51171429Y-99635714D01*
X51361905Y-99635714D01*
X51457143Y-99588095D01*
X51504762Y-99540476D01*
X51552381Y-99445238D01*
X51552381Y-99254761D01*
X51504762Y-99159523D01*
X51457143Y-99111904D01*
X51361905Y-99064285D01*
X51171429Y-99064285D01*
X51076190Y-99111904D01*
X51028571Y-99159523D01*
X50980952Y-99254761D01*
X72257143Y-151142857D02*
X72304762Y-151190476D01*
X72352381Y-151333333D01*
X72352381Y-151428571D01*
X72304762Y-151571429D01*
X72209524Y-151666667D01*
X72114286Y-151714286D01*
X71923810Y-151761905D01*
X71780952Y-151761905D01*
X71590476Y-151714286D01*
X71495238Y-151666667D01*
X71400000Y-151571429D01*
X71352381Y-151428571D01*
X71352381Y-151333333D01*
X71400000Y-151190476D01*
X71447619Y-151142857D01*
X72352381Y-150190476D02*
X72352381Y-150761905D01*
X72352381Y-150476191D02*
X71352381Y-150476191D01*
X71495238Y-150571429D01*
X71590476Y-150666667D01*
X71638095Y-150761905D01*
X71685714Y-149333333D02*
X72352381Y-149333333D01*
X71304762Y-149571429D02*
X72019048Y-149809524D01*
X72019048Y-149190476D01*
X70807143Y-146542857D02*
X70854762Y-146590476D01*
X70902381Y-146733333D01*
X70902381Y-146828571D01*
X70854762Y-146971429D01*
X70759524Y-147066667D01*
X70664286Y-147114286D01*
X70473810Y-147161905D01*
X70330952Y-147161905D01*
X70140476Y-147114286D01*
X70045238Y-147066667D01*
X69950000Y-146971429D01*
X69902381Y-146828571D01*
X69902381Y-146733333D01*
X69950000Y-146590476D01*
X69997619Y-146542857D01*
X70902381Y-145590476D02*
X70902381Y-146161905D01*
X70902381Y-145876191D02*
X69902381Y-145876191D01*
X70045238Y-145971429D01*
X70140476Y-146066667D01*
X70188095Y-146161905D01*
X69902381Y-144685714D02*
X69902381Y-145161905D01*
X70378571Y-145209524D01*
X70330952Y-145161905D01*
X70283333Y-145066667D01*
X70283333Y-144828571D01*
X70330952Y-144733333D01*
X70378571Y-144685714D01*
X70473810Y-144638095D01*
X70711905Y-144638095D01*
X70807143Y-144685714D01*
X70854762Y-144733333D01*
X70902381Y-144828571D01*
X70902381Y-145066667D01*
X70854762Y-145161905D01*
X70807143Y-145209524D01*
X83007143Y-155857143D02*
X82959524Y-155904762D01*
X82816667Y-155952381D01*
X82721429Y-155952381D01*
X82578571Y-155904762D01*
X82483333Y-155809524D01*
X82435714Y-155714286D01*
X82388095Y-155523810D01*
X82388095Y-155380952D01*
X82435714Y-155190476D01*
X82483333Y-155095238D01*
X82578571Y-155000000D01*
X82721429Y-154952381D01*
X82816667Y-154952381D01*
X82959524Y-155000000D01*
X83007143Y-155047619D01*
X83959524Y-155952381D02*
X83388095Y-155952381D01*
X83673809Y-155952381D02*
X83673809Y-154952381D01*
X83578571Y-155095238D01*
X83483333Y-155190476D01*
X83388095Y-155238095D01*
X84292857Y-154952381D02*
X84959524Y-154952381D01*
X84530952Y-155952381D01*
X83007143Y-150407143D02*
X82959524Y-150454762D01*
X82816667Y-150502381D01*
X82721429Y-150502381D01*
X82578571Y-150454762D01*
X82483333Y-150359524D01*
X82435714Y-150264286D01*
X82388095Y-150073810D01*
X82388095Y-149930952D01*
X82435714Y-149740476D01*
X82483333Y-149645238D01*
X82578571Y-149550000D01*
X82721429Y-149502381D01*
X82816667Y-149502381D01*
X82959524Y-149550000D01*
X83007143Y-149597619D01*
X83959524Y-150502381D02*
X83388095Y-150502381D01*
X83673809Y-150502381D02*
X83673809Y-149502381D01*
X83578571Y-149645238D01*
X83483333Y-149740476D01*
X83388095Y-149788095D01*
X84530952Y-149930952D02*
X84435714Y-149883333D01*
X84388095Y-149835714D01*
X84340476Y-149740476D01*
X84340476Y-149692857D01*
X84388095Y-149597619D01*
X84435714Y-149550000D01*
X84530952Y-149502381D01*
X84721429Y-149502381D01*
X84816667Y-149550000D01*
X84864286Y-149597619D01*
X84911905Y-149692857D01*
X84911905Y-149740476D01*
X84864286Y-149835714D01*
X84816667Y-149883333D01*
X84721429Y-149930952D01*
X84530952Y-149930952D01*
X84435714Y-149978571D01*
X84388095Y-150026190D01*
X84340476Y-150121429D01*
X84340476Y-150311905D01*
X84388095Y-150407143D01*
X84435714Y-150454762D01*
X84530952Y-150502381D01*
X84721429Y-150502381D01*
X84816667Y-150454762D01*
X84864286Y-150407143D01*
X84911905Y-150311905D01*
X84911905Y-150121429D01*
X84864286Y-150026190D01*
X84816667Y-149978571D01*
X84721429Y-149930952D01*
X82257143Y-123057143D02*
X82209524Y-123104762D01*
X82066667Y-123152381D01*
X81971429Y-123152381D01*
X81828571Y-123104762D01*
X81733333Y-123009524D01*
X81685714Y-122914286D01*
X81638095Y-122723810D01*
X81638095Y-122580952D01*
X81685714Y-122390476D01*
X81733333Y-122295238D01*
X81828571Y-122200000D01*
X81971429Y-122152381D01*
X82066667Y-122152381D01*
X82209524Y-122200000D01*
X82257143Y-122247619D01*
X83209524Y-123152381D02*
X82638095Y-123152381D01*
X82923809Y-123152381D02*
X82923809Y-122152381D01*
X82828571Y-122295238D01*
X82733333Y-122390476D01*
X82638095Y-122438095D01*
X83685714Y-123152381D02*
X83876190Y-123152381D01*
X83971429Y-123104762D01*
X84019048Y-123057143D01*
X84114286Y-122914286D01*
X84161905Y-122723810D01*
X84161905Y-122342857D01*
X84114286Y-122247619D01*
X84066667Y-122200000D01*
X83971429Y-122152381D01*
X83780952Y-122152381D01*
X83685714Y-122200000D01*
X83638095Y-122247619D01*
X83590476Y-122342857D01*
X83590476Y-122580952D01*
X83638095Y-122676190D01*
X83685714Y-122723810D01*
X83780952Y-122771429D01*
X83971429Y-122771429D01*
X84066667Y-122723810D01*
X84114286Y-122676190D01*
X84161905Y-122580952D01*
X54807143Y-55557143D02*
X54759524Y-55604762D01*
X54616667Y-55652381D01*
X54521429Y-55652381D01*
X54378571Y-55604762D01*
X54283333Y-55509524D01*
X54235714Y-55414286D01*
X54188095Y-55223810D01*
X54188095Y-55080952D01*
X54235714Y-54890476D01*
X54283333Y-54795238D01*
X54378571Y-54700000D01*
X54521429Y-54652381D01*
X54616667Y-54652381D01*
X54759524Y-54700000D01*
X54807143Y-54747619D01*
X55188095Y-54747619D02*
X55235714Y-54700000D01*
X55330952Y-54652381D01*
X55569048Y-54652381D01*
X55664286Y-54700000D01*
X55711905Y-54747619D01*
X55759524Y-54842857D01*
X55759524Y-54938095D01*
X55711905Y-55080952D01*
X55140476Y-55652381D01*
X55759524Y-55652381D01*
X56378571Y-54652381D02*
X56473810Y-54652381D01*
X56569048Y-54700000D01*
X56616667Y-54747619D01*
X56664286Y-54842857D01*
X56711905Y-55033333D01*
X56711905Y-55271429D01*
X56664286Y-55461905D01*
X56616667Y-55557143D01*
X56569048Y-55604762D01*
X56473810Y-55652381D01*
X56378571Y-55652381D01*
X56283333Y-55604762D01*
X56235714Y-55557143D01*
X56188095Y-55461905D01*
X56140476Y-55271429D01*
X56140476Y-55033333D01*
X56188095Y-54842857D01*
X56235714Y-54747619D01*
X56283333Y-54700000D01*
X56378571Y-54652381D01*
X92807143Y-123107143D02*
X92759524Y-123154762D01*
X92616667Y-123202381D01*
X92521429Y-123202381D01*
X92378571Y-123154762D01*
X92283333Y-123059524D01*
X92235714Y-122964286D01*
X92188095Y-122773810D01*
X92188095Y-122630952D01*
X92235714Y-122440476D01*
X92283333Y-122345238D01*
X92378571Y-122250000D01*
X92521429Y-122202381D01*
X92616667Y-122202381D01*
X92759524Y-122250000D01*
X92807143Y-122297619D01*
X93188095Y-122297619D02*
X93235714Y-122250000D01*
X93330952Y-122202381D01*
X93569048Y-122202381D01*
X93664286Y-122250000D01*
X93711905Y-122297619D01*
X93759524Y-122392857D01*
X93759524Y-122488095D01*
X93711905Y-122630952D01*
X93140476Y-123202381D01*
X93759524Y-123202381D01*
X94711905Y-123202381D02*
X94140476Y-123202381D01*
X94426190Y-123202381D02*
X94426190Y-122202381D01*
X94330952Y-122345238D01*
X94235714Y-122440476D01*
X94140476Y-122488095D01*
X70802381Y-154488095D02*
X69802381Y-154488095D01*
X69802381Y-154250000D01*
X69850000Y-154107142D01*
X69945238Y-154011904D01*
X70040476Y-153964285D01*
X70230952Y-153916666D01*
X70373810Y-153916666D01*
X70564286Y-153964285D01*
X70659524Y-154011904D01*
X70754762Y-154107142D01*
X70802381Y-154250000D01*
X70802381Y-154488095D01*
X69802381Y-153011904D02*
X69802381Y-153488095D01*
X70278571Y-153535714D01*
X70230952Y-153488095D01*
X70183333Y-153392857D01*
X70183333Y-153154761D01*
X70230952Y-153059523D01*
X70278571Y-153011904D01*
X70373810Y-152964285D01*
X70611905Y-152964285D01*
X70707143Y-153011904D01*
X70754762Y-153059523D01*
X70802381Y-153154761D01*
X70802381Y-153392857D01*
X70754762Y-153488095D01*
X70707143Y-153535714D01*
X75461905Y-50802381D02*
X75461905Y-49802381D01*
X75700000Y-49802381D01*
X75842858Y-49850000D01*
X75938096Y-49945238D01*
X75985715Y-50040476D01*
X76033334Y-50230952D01*
X76033334Y-50373810D01*
X75985715Y-50564286D01*
X75938096Y-50659524D01*
X75842858Y-50754762D01*
X75700000Y-50802381D01*
X75461905Y-50802381D01*
X76890477Y-49802381D02*
X76700000Y-49802381D01*
X76604762Y-49850000D01*
X76557143Y-49897619D01*
X76461905Y-50040476D01*
X76414286Y-50230952D01*
X76414286Y-50611905D01*
X76461905Y-50707143D01*
X76509524Y-50754762D01*
X76604762Y-50802381D01*
X76795239Y-50802381D01*
X76890477Y-50754762D01*
X76938096Y-50707143D01*
X76985715Y-50611905D01*
X76985715Y-50373810D01*
X76938096Y-50278571D01*
X76890477Y-50230952D01*
X76795239Y-50183333D01*
X76604762Y-50183333D01*
X76509524Y-50230952D01*
X76461905Y-50278571D01*
X76414286Y-50373810D01*
X80011905Y-50602381D02*
X80011905Y-49602381D01*
X80250000Y-49602381D01*
X80392858Y-49650000D01*
X80488096Y-49745238D01*
X80535715Y-49840476D01*
X80583334Y-50030952D01*
X80583334Y-50173810D01*
X80535715Y-50364286D01*
X80488096Y-50459524D01*
X80392858Y-50554762D01*
X80250000Y-50602381D01*
X80011905Y-50602381D01*
X80916667Y-49602381D02*
X81583334Y-49602381D01*
X81154762Y-50602381D01*
X63683334Y-143202381D02*
X63350000Y-142726190D01*
X63111905Y-143202381D02*
X63111905Y-142202381D01*
X63492858Y-142202381D01*
X63588096Y-142250000D01*
X63635715Y-142297619D01*
X63683334Y-142392857D01*
X63683334Y-142535714D01*
X63635715Y-142630952D01*
X63588096Y-142678571D01*
X63492858Y-142726190D01*
X63111905Y-142726190D01*
X64635715Y-143202381D02*
X64064286Y-143202381D01*
X64350000Y-143202381D02*
X64350000Y-142202381D01*
X64254762Y-142345238D01*
X64159524Y-142440476D01*
X64064286Y-142488095D01*
X57052381Y-151766666D02*
X56576190Y-152100000D01*
X57052381Y-152338095D02*
X56052381Y-152338095D01*
X56052381Y-151957142D01*
X56100000Y-151861904D01*
X56147619Y-151814285D01*
X56242857Y-151766666D01*
X56385714Y-151766666D01*
X56480952Y-151814285D01*
X56528571Y-151861904D01*
X56576190Y-151957142D01*
X56576190Y-152338095D01*
X56052381Y-150909523D02*
X56052381Y-151100000D01*
X56100000Y-151195238D01*
X56147619Y-151242857D01*
X56290476Y-151338095D01*
X56480952Y-151385714D01*
X56861905Y-151385714D01*
X56957143Y-151338095D01*
X57004762Y-151290476D01*
X57052381Y-151195238D01*
X57052381Y-151004761D01*
X57004762Y-150909523D01*
X56957143Y-150861904D01*
X56861905Y-150814285D01*
X56623810Y-150814285D01*
X56528571Y-150861904D01*
X56480952Y-150909523D01*
X56433333Y-151004761D01*
X56433333Y-151195238D01*
X56480952Y-151290476D01*
X56528571Y-151338095D01*
X56623810Y-151385714D01*
X53652381Y-158716666D02*
X53176190Y-159050000D01*
X53652381Y-159288095D02*
X52652381Y-159288095D01*
X52652381Y-158907142D01*
X52700000Y-158811904D01*
X52747619Y-158764285D01*
X52842857Y-158716666D01*
X52985714Y-158716666D01*
X53080952Y-158764285D01*
X53128571Y-158811904D01*
X53176190Y-158907142D01*
X53176190Y-159288095D01*
X52652381Y-158383333D02*
X52652381Y-157716666D01*
X53652381Y-158145238D01*
X67483334Y-154302381D02*
X67150000Y-153826190D01*
X66911905Y-154302381D02*
X66911905Y-153302381D01*
X67292858Y-153302381D01*
X67388096Y-153350000D01*
X67435715Y-153397619D01*
X67483334Y-153492857D01*
X67483334Y-153635714D01*
X67435715Y-153730952D01*
X67388096Y-153778571D01*
X67292858Y-153826190D01*
X66911905Y-153826190D01*
X68054762Y-153730952D02*
X67959524Y-153683333D01*
X67911905Y-153635714D01*
X67864286Y-153540476D01*
X67864286Y-153492857D01*
X67911905Y-153397619D01*
X67959524Y-153350000D01*
X68054762Y-153302381D01*
X68245239Y-153302381D01*
X68340477Y-153350000D01*
X68388096Y-153397619D01*
X68435715Y-153492857D01*
X68435715Y-153540476D01*
X68388096Y-153635714D01*
X68340477Y-153683333D01*
X68245239Y-153730952D01*
X68054762Y-153730952D01*
X67959524Y-153778571D01*
X67911905Y-153826190D01*
X67864286Y-153921429D01*
X67864286Y-154111905D01*
X67911905Y-154207143D01*
X67959524Y-154254762D01*
X68054762Y-154302381D01*
X68245239Y-154302381D01*
X68340477Y-154254762D01*
X68388096Y-154207143D01*
X68435715Y-154111905D01*
X68435715Y-153921429D01*
X68388096Y-153826190D01*
X68340477Y-153778571D01*
X68245239Y-153730952D01*
X63083334Y-157102381D02*
X62750000Y-156626190D01*
X62511905Y-157102381D02*
X62511905Y-156102381D01*
X62892858Y-156102381D01*
X62988096Y-156150000D01*
X63035715Y-156197619D01*
X63083334Y-156292857D01*
X63083334Y-156435714D01*
X63035715Y-156530952D01*
X62988096Y-156578571D01*
X62892858Y-156626190D01*
X62511905Y-156626190D01*
X63559524Y-157102381D02*
X63750000Y-157102381D01*
X63845239Y-157054762D01*
X63892858Y-157007143D01*
X63988096Y-156864286D01*
X64035715Y-156673810D01*
X64035715Y-156292857D01*
X63988096Y-156197619D01*
X63940477Y-156150000D01*
X63845239Y-156102381D01*
X63654762Y-156102381D01*
X63559524Y-156150000D01*
X63511905Y-156197619D01*
X63464286Y-156292857D01*
X63464286Y-156530952D01*
X63511905Y-156626190D01*
X63559524Y-156673810D01*
X63654762Y-156721429D01*
X63845239Y-156721429D01*
X63940477Y-156673810D01*
X63988096Y-156626190D01*
X64035715Y-156530952D01*
X85907143Y-158452381D02*
X85573809Y-157976190D01*
X85335714Y-158452381D02*
X85335714Y-157452381D01*
X85716667Y-157452381D01*
X85811905Y-157500000D01*
X85859524Y-157547619D01*
X85907143Y-157642857D01*
X85907143Y-157785714D01*
X85859524Y-157880952D01*
X85811905Y-157928571D01*
X85716667Y-157976190D01*
X85335714Y-157976190D01*
X86859524Y-158452381D02*
X86288095Y-158452381D01*
X86573809Y-158452381D02*
X86573809Y-157452381D01*
X86478571Y-157595238D01*
X86383333Y-157690476D01*
X86288095Y-157738095D01*
X87478571Y-157452381D02*
X87573810Y-157452381D01*
X87669048Y-157500000D01*
X87716667Y-157547619D01*
X87764286Y-157642857D01*
X87811905Y-157833333D01*
X87811905Y-158071429D01*
X87764286Y-158261905D01*
X87716667Y-158357143D01*
X87669048Y-158404762D01*
X87573810Y-158452381D01*
X87478571Y-158452381D01*
X87383333Y-158404762D01*
X87335714Y-158357143D01*
X87288095Y-158261905D01*
X87240476Y-158071429D01*
X87240476Y-157833333D01*
X87288095Y-157642857D01*
X87335714Y-157547619D01*
X87383333Y-157500000D01*
X87478571Y-157452381D01*
X77557143Y-158552381D02*
X77223809Y-158076190D01*
X76985714Y-158552381D02*
X76985714Y-157552381D01*
X77366667Y-157552381D01*
X77461905Y-157600000D01*
X77509524Y-157647619D01*
X77557143Y-157742857D01*
X77557143Y-157885714D01*
X77509524Y-157980952D01*
X77461905Y-158028571D01*
X77366667Y-158076190D01*
X76985714Y-158076190D01*
X78509524Y-158552381D02*
X77938095Y-158552381D01*
X78223809Y-158552381D02*
X78223809Y-157552381D01*
X78128571Y-157695238D01*
X78033333Y-157790476D01*
X77938095Y-157838095D01*
X79461905Y-158552381D02*
X78890476Y-158552381D01*
X79176190Y-158552381D02*
X79176190Y-157552381D01*
X79080952Y-157695238D01*
X78985714Y-157790476D01*
X78890476Y-157838095D01*
X82257143Y-121252381D02*
X81923809Y-120776190D01*
X81685714Y-121252381D02*
X81685714Y-120252381D01*
X82066667Y-120252381D01*
X82161905Y-120300000D01*
X82209524Y-120347619D01*
X82257143Y-120442857D01*
X82257143Y-120585714D01*
X82209524Y-120680952D01*
X82161905Y-120728571D01*
X82066667Y-120776190D01*
X81685714Y-120776190D01*
X83209524Y-121252381D02*
X82638095Y-121252381D01*
X82923809Y-121252381D02*
X82923809Y-120252381D01*
X82828571Y-120395238D01*
X82733333Y-120490476D01*
X82638095Y-120538095D01*
X83542857Y-120252381D02*
X84161905Y-120252381D01*
X83828571Y-120633333D01*
X83971429Y-120633333D01*
X84066667Y-120680952D01*
X84114286Y-120728571D01*
X84161905Y-120823810D01*
X84161905Y-121061905D01*
X84114286Y-121157143D01*
X84066667Y-121204762D01*
X83971429Y-121252381D01*
X83685714Y-121252381D01*
X83590476Y-121204762D01*
X83542857Y-121157143D01*
X82507143Y-119102381D02*
X82173809Y-118626190D01*
X81935714Y-119102381D02*
X81935714Y-118102381D01*
X82316667Y-118102381D01*
X82411905Y-118150000D01*
X82459524Y-118197619D01*
X82507143Y-118292857D01*
X82507143Y-118435714D01*
X82459524Y-118530952D01*
X82411905Y-118578571D01*
X82316667Y-118626190D01*
X81935714Y-118626190D01*
X83459524Y-119102381D02*
X82888095Y-119102381D01*
X83173809Y-119102381D02*
X83173809Y-118102381D01*
X83078571Y-118245238D01*
X82983333Y-118340476D01*
X82888095Y-118388095D01*
X84316667Y-118435714D02*
X84316667Y-119102381D01*
X84078571Y-118054762D02*
X83840476Y-118769048D01*
X84459524Y-118769048D01*
X54707143Y-58002381D02*
X54373809Y-57526190D01*
X54135714Y-58002381D02*
X54135714Y-57002381D01*
X54516667Y-57002381D01*
X54611905Y-57050000D01*
X54659524Y-57097619D01*
X54707143Y-57192857D01*
X54707143Y-57335714D01*
X54659524Y-57430952D01*
X54611905Y-57478571D01*
X54516667Y-57526190D01*
X54135714Y-57526190D01*
X55659524Y-58002381D02*
X55088095Y-58002381D01*
X55373809Y-58002381D02*
X55373809Y-57002381D01*
X55278571Y-57145238D01*
X55183333Y-57240476D01*
X55088095Y-57288095D01*
X56564286Y-57002381D02*
X56088095Y-57002381D01*
X56040476Y-57478571D01*
X56088095Y-57430952D01*
X56183333Y-57383333D01*
X56421429Y-57383333D01*
X56516667Y-57430952D01*
X56564286Y-57478571D01*
X56611905Y-57573810D01*
X56611905Y-57811905D01*
X56564286Y-57907143D01*
X56516667Y-57954762D01*
X56421429Y-58002381D01*
X56183333Y-58002381D01*
X56088095Y-57954762D01*
X56040476Y-57907143D01*
X54607143Y-60402381D02*
X54273809Y-59926190D01*
X54035714Y-60402381D02*
X54035714Y-59402381D01*
X54416667Y-59402381D01*
X54511905Y-59450000D01*
X54559524Y-59497619D01*
X54607143Y-59592857D01*
X54607143Y-59735714D01*
X54559524Y-59830952D01*
X54511905Y-59878571D01*
X54416667Y-59926190D01*
X54035714Y-59926190D01*
X55559524Y-60402381D02*
X54988095Y-60402381D01*
X55273809Y-60402381D02*
X55273809Y-59402381D01*
X55178571Y-59545238D01*
X55083333Y-59640476D01*
X54988095Y-59688095D01*
X56416667Y-59402381D02*
X56226190Y-59402381D01*
X56130952Y-59450000D01*
X56083333Y-59497619D01*
X55988095Y-59640476D01*
X55940476Y-59830952D01*
X55940476Y-60211905D01*
X55988095Y-60307143D01*
X56035714Y-60354762D01*
X56130952Y-60402381D01*
X56321429Y-60402381D01*
X56416667Y-60354762D01*
X56464286Y-60307143D01*
X56511905Y-60211905D01*
X56511905Y-59973810D01*
X56464286Y-59878571D01*
X56416667Y-59830952D01*
X56321429Y-59783333D01*
X56130952Y-59783333D01*
X56035714Y-59830952D01*
X55988095Y-59878571D01*
X55940476Y-59973810D01*
X92557143Y-119352381D02*
X92223809Y-118876190D01*
X91985714Y-119352381D02*
X91985714Y-118352381D01*
X92366667Y-118352381D01*
X92461905Y-118400000D01*
X92509524Y-118447619D01*
X92557143Y-118542857D01*
X92557143Y-118685714D01*
X92509524Y-118780952D01*
X92461905Y-118828571D01*
X92366667Y-118876190D01*
X91985714Y-118876190D01*
X93509524Y-119352381D02*
X92938095Y-119352381D01*
X93223809Y-119352381D02*
X93223809Y-118352381D01*
X93128571Y-118495238D01*
X93033333Y-118590476D01*
X92938095Y-118638095D01*
X93842857Y-118352381D02*
X94509524Y-118352381D01*
X94080952Y-119352381D01*
X92507143Y-121252381D02*
X92173809Y-120776190D01*
X91935714Y-121252381D02*
X91935714Y-120252381D01*
X92316667Y-120252381D01*
X92411905Y-120300000D01*
X92459524Y-120347619D01*
X92507143Y-120442857D01*
X92507143Y-120585714D01*
X92459524Y-120680952D01*
X92411905Y-120728571D01*
X92316667Y-120776190D01*
X91935714Y-120776190D01*
X93459524Y-121252381D02*
X92888095Y-121252381D01*
X93173809Y-121252381D02*
X93173809Y-120252381D01*
X93078571Y-120395238D01*
X92983333Y-120490476D01*
X92888095Y-120538095D01*
X94030952Y-120680952D02*
X93935714Y-120633333D01*
X93888095Y-120585714D01*
X93840476Y-120490476D01*
X93840476Y-120442857D01*
X93888095Y-120347619D01*
X93935714Y-120300000D01*
X94030952Y-120252381D01*
X94221429Y-120252381D01*
X94316667Y-120300000D01*
X94364286Y-120347619D01*
X94411905Y-120442857D01*
X94411905Y-120490476D01*
X94364286Y-120585714D01*
X94316667Y-120633333D01*
X94221429Y-120680952D01*
X94030952Y-120680952D01*
X93935714Y-120728571D01*
X93888095Y-120776190D01*
X93840476Y-120871429D01*
X93840476Y-121061905D01*
X93888095Y-121157143D01*
X93935714Y-121204762D01*
X94030952Y-121252381D01*
X94221429Y-121252381D01*
X94316667Y-121204762D01*
X94364286Y-121157143D01*
X94411905Y-121061905D01*
X94411905Y-120871429D01*
X94364286Y-120776190D01*
X94316667Y-120728571D01*
X94221429Y-120680952D01*
X75507143Y-55102381D02*
X75173809Y-54626190D01*
X74935714Y-55102381D02*
X74935714Y-54102381D01*
X75316667Y-54102381D01*
X75411905Y-54150000D01*
X75459524Y-54197619D01*
X75507143Y-54292857D01*
X75507143Y-54435714D01*
X75459524Y-54530952D01*
X75411905Y-54578571D01*
X75316667Y-54626190D01*
X74935714Y-54626190D01*
X76459524Y-55102381D02*
X75888095Y-55102381D01*
X76173809Y-55102381D02*
X76173809Y-54102381D01*
X76078571Y-54245238D01*
X75983333Y-54340476D01*
X75888095Y-54388095D01*
X76935714Y-55102381D02*
X77126190Y-55102381D01*
X77221429Y-55054762D01*
X77269048Y-55007143D01*
X77364286Y-54864286D01*
X77411905Y-54673810D01*
X77411905Y-54292857D01*
X77364286Y-54197619D01*
X77316667Y-54150000D01*
X77221429Y-54102381D01*
X77030952Y-54102381D01*
X76935714Y-54150000D01*
X76888095Y-54197619D01*
X76840476Y-54292857D01*
X76840476Y-54530952D01*
X76888095Y-54626190D01*
X76935714Y-54673810D01*
X77030952Y-54721429D01*
X77221429Y-54721429D01*
X77316667Y-54673810D01*
X77364286Y-54626190D01*
X77411905Y-54530952D01*
X80157143Y-55202381D02*
X79823809Y-54726190D01*
X79585714Y-55202381D02*
X79585714Y-54202381D01*
X79966667Y-54202381D01*
X80061905Y-54250000D01*
X80109524Y-54297619D01*
X80157143Y-54392857D01*
X80157143Y-54535714D01*
X80109524Y-54630952D01*
X80061905Y-54678571D01*
X79966667Y-54726190D01*
X79585714Y-54726190D01*
X80538095Y-54297619D02*
X80585714Y-54250000D01*
X80680952Y-54202381D01*
X80919048Y-54202381D01*
X81014286Y-54250000D01*
X81061905Y-54297619D01*
X81109524Y-54392857D01*
X81109524Y-54488095D01*
X81061905Y-54630952D01*
X80490476Y-55202381D01*
X81109524Y-55202381D01*
X81728571Y-54202381D02*
X81823810Y-54202381D01*
X81919048Y-54250000D01*
X81966667Y-54297619D01*
X82014286Y-54392857D01*
X82061905Y-54583333D01*
X82061905Y-54821429D01*
X82014286Y-55011905D01*
X81966667Y-55107143D01*
X81919048Y-55154762D01*
X81823810Y-55202381D01*
X81728571Y-55202381D01*
X81633333Y-55154762D01*
X81585714Y-55107143D01*
X81538095Y-55011905D01*
X81490476Y-54821429D01*
X81490476Y-54583333D01*
X81538095Y-54392857D01*
X81585714Y-54297619D01*
X81633333Y-54250000D01*
X81728571Y-54202381D01*
X64557143Y-160707143D02*
X64509524Y-160754762D01*
X64366667Y-160802381D01*
X64271429Y-160802381D01*
X64128571Y-160754762D01*
X64033333Y-160659524D01*
X63985714Y-160564286D01*
X63938095Y-160373810D01*
X63938095Y-160230952D01*
X63985714Y-160040476D01*
X64033333Y-159945238D01*
X64128571Y-159850000D01*
X64271429Y-159802381D01*
X64366667Y-159802381D01*
X64509524Y-159850000D01*
X64557143Y-159897619D01*
X64938095Y-159897619D02*
X64985714Y-159850000D01*
X65080952Y-159802381D01*
X65319048Y-159802381D01*
X65414286Y-159850000D01*
X65461905Y-159897619D01*
X65509524Y-159992857D01*
X65509524Y-160088095D01*
X65461905Y-160230952D01*
X64890476Y-160802381D01*
X65509524Y-160802381D01*
X65890476Y-159897619D02*
X65938095Y-159850000D01*
X66033333Y-159802381D01*
X66271429Y-159802381D01*
X66366667Y-159850000D01*
X66414286Y-159897619D01*
X66461905Y-159992857D01*
X66461905Y-160088095D01*
X66414286Y-160230952D01*
X65842857Y-160802381D01*
X66461905Y-160802381D01*
X66157143Y-53492857D02*
X66204762Y-53540476D01*
X66252381Y-53683333D01*
X66252381Y-53778571D01*
X66204762Y-53921429D01*
X66109524Y-54016667D01*
X66014286Y-54064286D01*
X65823810Y-54111905D01*
X65680952Y-54111905D01*
X65490476Y-54064286D01*
X65395238Y-54016667D01*
X65300000Y-53921429D01*
X65252381Y-53778571D01*
X65252381Y-53683333D01*
X65300000Y-53540476D01*
X65347619Y-53492857D01*
X65347619Y-53111905D02*
X65300000Y-53064286D01*
X65252381Y-52969048D01*
X65252381Y-52730952D01*
X65300000Y-52635714D01*
X65347619Y-52588095D01*
X65442857Y-52540476D01*
X65538095Y-52540476D01*
X65680952Y-52588095D01*
X66252381Y-53159524D01*
X66252381Y-52540476D01*
X65252381Y-52207143D02*
X65252381Y-51588095D01*
X65633333Y-51921429D01*
X65633333Y-51778571D01*
X65680952Y-51683333D01*
X65728571Y-51635714D01*
X65823810Y-51588095D01*
X66061905Y-51588095D01*
X66157143Y-51635714D01*
X66204762Y-51683333D01*
X66252381Y-51778571D01*
X66252381Y-52064286D01*
X66204762Y-52159524D01*
X66157143Y-52207143D01*
X69802381Y-63992857D02*
X69326190Y-64326191D01*
X69802381Y-64564286D02*
X68802381Y-64564286D01*
X68802381Y-64183333D01*
X68850000Y-64088095D01*
X68897619Y-64040476D01*
X68992857Y-63992857D01*
X69135714Y-63992857D01*
X69230952Y-64040476D01*
X69278571Y-64088095D01*
X69326190Y-64183333D01*
X69326190Y-64564286D01*
X68897619Y-63611905D02*
X68850000Y-63564286D01*
X68802381Y-63469048D01*
X68802381Y-63230952D01*
X68850000Y-63135714D01*
X68897619Y-63088095D01*
X68992857Y-63040476D01*
X69088095Y-63040476D01*
X69230952Y-63088095D01*
X69802381Y-63659524D01*
X69802381Y-63040476D01*
X69802381Y-62088095D02*
X69802381Y-62659524D01*
X69802381Y-62373810D02*
X68802381Y-62373810D01*
X68945238Y-62469048D01*
X69040476Y-62564286D01*
X69088095Y-62659524D01*
X62957143Y-65392857D02*
X63004762Y-65440476D01*
X63052381Y-65583333D01*
X63052381Y-65678571D01*
X63004762Y-65821429D01*
X62909524Y-65916667D01*
X62814286Y-65964286D01*
X62623810Y-66011905D01*
X62480952Y-66011905D01*
X62290476Y-65964286D01*
X62195238Y-65916667D01*
X62100000Y-65821429D01*
X62052381Y-65678571D01*
X62052381Y-65583333D01*
X62100000Y-65440476D01*
X62147619Y-65392857D01*
X62147619Y-65011905D02*
X62100000Y-64964286D01*
X62052381Y-64869048D01*
X62052381Y-64630952D01*
X62100000Y-64535714D01*
X62147619Y-64488095D01*
X62242857Y-64440476D01*
X62338095Y-64440476D01*
X62480952Y-64488095D01*
X63052381Y-65059524D01*
X63052381Y-64440476D01*
X62385714Y-63583333D02*
X63052381Y-63583333D01*
X62004762Y-63821429D02*
X62719048Y-64059524D01*
X62719048Y-63440476D01*
X71207143Y-74257143D02*
X71159524Y-74304762D01*
X71016667Y-74352381D01*
X70921429Y-74352381D01*
X70778571Y-74304762D01*
X70683333Y-74209524D01*
X70635714Y-74114286D01*
X70588095Y-73923810D01*
X70588095Y-73780952D01*
X70635714Y-73590476D01*
X70683333Y-73495238D01*
X70778571Y-73400000D01*
X70921429Y-73352381D01*
X71016667Y-73352381D01*
X71159524Y-73400000D01*
X71207143Y-73447619D01*
X71588095Y-73447619D02*
X71635714Y-73400000D01*
X71730952Y-73352381D01*
X71969048Y-73352381D01*
X72064286Y-73400000D01*
X72111905Y-73447619D01*
X72159524Y-73542857D01*
X72159524Y-73638095D01*
X72111905Y-73780952D01*
X71540476Y-74352381D01*
X72159524Y-74352381D01*
X73064286Y-73352381D02*
X72588095Y-73352381D01*
X72540476Y-73828571D01*
X72588095Y-73780952D01*
X72683333Y-73733333D01*
X72921429Y-73733333D01*
X73016667Y-73780952D01*
X73064286Y-73828571D01*
X73111905Y-73923810D01*
X73111905Y-74161905D01*
X73064286Y-74257143D01*
X73016667Y-74304762D01*
X72921429Y-74352381D01*
X72683333Y-74352381D01*
X72588095Y-74304762D01*
X72540476Y-74257143D01*
X55757143Y-73307143D02*
X55709524Y-73354762D01*
X55566667Y-73402381D01*
X55471429Y-73402381D01*
X55328571Y-73354762D01*
X55233333Y-73259524D01*
X55185714Y-73164286D01*
X55138095Y-72973810D01*
X55138095Y-72830952D01*
X55185714Y-72640476D01*
X55233333Y-72545238D01*
X55328571Y-72450000D01*
X55471429Y-72402381D01*
X55566667Y-72402381D01*
X55709524Y-72450000D01*
X55757143Y-72497619D01*
X56138095Y-72497619D02*
X56185714Y-72450000D01*
X56280952Y-72402381D01*
X56519048Y-72402381D01*
X56614286Y-72450000D01*
X56661905Y-72497619D01*
X56709524Y-72592857D01*
X56709524Y-72688095D01*
X56661905Y-72830952D01*
X56090476Y-73402381D01*
X56709524Y-73402381D01*
X57566667Y-72402381D02*
X57376190Y-72402381D01*
X57280952Y-72450000D01*
X57233333Y-72497619D01*
X57138095Y-72640476D01*
X57090476Y-72830952D01*
X57090476Y-73211905D01*
X57138095Y-73307143D01*
X57185714Y-73354762D01*
X57280952Y-73402381D01*
X57471429Y-73402381D01*
X57566667Y-73354762D01*
X57614286Y-73307143D01*
X57661905Y-73211905D01*
X57661905Y-72973810D01*
X57614286Y-72878571D01*
X57566667Y-72830952D01*
X57471429Y-72783333D01*
X57280952Y-72783333D01*
X57185714Y-72830952D01*
X57138095Y-72878571D01*
X57090476Y-72973810D01*
X92802381Y-106016666D02*
X92326190Y-106350000D01*
X92802381Y-106588095D02*
X91802381Y-106588095D01*
X91802381Y-106207142D01*
X91850000Y-106111904D01*
X91897619Y-106064285D01*
X91992857Y-106016666D01*
X92135714Y-106016666D01*
X92230952Y-106064285D01*
X92278571Y-106111904D01*
X92326190Y-106207142D01*
X92326190Y-106588095D01*
X92135714Y-105159523D02*
X92802381Y-105159523D01*
X91754762Y-105397619D02*
X92469048Y-105635714D01*
X92469048Y-105016666D01*
X87657143Y-106342857D02*
X87704762Y-106390476D01*
X87752381Y-106533333D01*
X87752381Y-106628571D01*
X87704762Y-106771429D01*
X87609524Y-106866667D01*
X87514286Y-106914286D01*
X87323810Y-106961905D01*
X87180952Y-106961905D01*
X86990476Y-106914286D01*
X86895238Y-106866667D01*
X86800000Y-106771429D01*
X86752381Y-106628571D01*
X86752381Y-106533333D01*
X86800000Y-106390476D01*
X86847619Y-106342857D01*
X86847619Y-105961905D02*
X86800000Y-105914286D01*
X86752381Y-105819048D01*
X86752381Y-105580952D01*
X86800000Y-105485714D01*
X86847619Y-105438095D01*
X86942857Y-105390476D01*
X87038095Y-105390476D01*
X87180952Y-105438095D01*
X87752381Y-106009524D01*
X87752381Y-105390476D01*
X86752381Y-105057143D02*
X86752381Y-104390476D01*
X87752381Y-104819048D01*
X64302381Y-49616666D02*
X63826190Y-49950000D01*
X64302381Y-50188095D02*
X63302381Y-50188095D01*
X63302381Y-49807142D01*
X63350000Y-49711904D01*
X63397619Y-49664285D01*
X63492857Y-49616666D01*
X63635714Y-49616666D01*
X63730952Y-49664285D01*
X63778571Y-49711904D01*
X63826190Y-49807142D01*
X63826190Y-50188095D01*
X63302381Y-48711904D02*
X63302381Y-49188095D01*
X63778571Y-49235714D01*
X63730952Y-49188095D01*
X63683333Y-49092857D01*
X63683333Y-48854761D01*
X63730952Y-48759523D01*
X63778571Y-48711904D01*
X63873810Y-48664285D01*
X64111905Y-48664285D01*
X64207143Y-48711904D01*
X64254762Y-48759523D01*
X64302381Y-48854761D01*
X64302381Y-49092857D01*
X64254762Y-49188095D01*
X64207143Y-49235714D01*
X78307143Y-109416666D02*
X78354762Y-109464285D01*
X78402381Y-109607142D01*
X78402381Y-109702380D01*
X78354762Y-109845238D01*
X78259524Y-109940476D01*
X78164286Y-109988095D01*
X77973810Y-110035714D01*
X77830952Y-110035714D01*
X77640476Y-109988095D01*
X77545238Y-109940476D01*
X77450000Y-109845238D01*
X77402381Y-109702380D01*
X77402381Y-109607142D01*
X77450000Y-109464285D01*
X77497619Y-109416666D01*
X77497619Y-109035714D02*
X77450000Y-108988095D01*
X77402381Y-108892857D01*
X77402381Y-108654761D01*
X77450000Y-108559523D01*
X77497619Y-108511904D01*
X77592857Y-108464285D01*
X77688095Y-108464285D01*
X77830952Y-108511904D01*
X78402381Y-109083333D01*
X78402381Y-108464285D01*
X62107143Y-109266666D02*
X62154762Y-109314285D01*
X62202381Y-109457142D01*
X62202381Y-109552380D01*
X62154762Y-109695238D01*
X62059524Y-109790476D01*
X61964286Y-109838095D01*
X61773810Y-109885714D01*
X61630952Y-109885714D01*
X61440476Y-109838095D01*
X61345238Y-109790476D01*
X61250000Y-109695238D01*
X61202381Y-109552380D01*
X61202381Y-109457142D01*
X61250000Y-109314285D01*
X61297619Y-109266666D01*
X61202381Y-108933333D02*
X61202381Y-108314285D01*
X61583333Y-108647619D01*
X61583333Y-108504761D01*
X61630952Y-108409523D01*
X61678571Y-108361904D01*
X61773810Y-108314285D01*
X62011905Y-108314285D01*
X62107143Y-108361904D01*
X62154762Y-108409523D01*
X62202381Y-108504761D01*
X62202381Y-108790476D01*
X62154762Y-108885714D01*
X62107143Y-108933333D01*
X65257143Y-109066666D02*
X65304762Y-109114285D01*
X65352381Y-109257142D01*
X65352381Y-109352380D01*
X65304762Y-109495238D01*
X65209524Y-109590476D01*
X65114286Y-109638095D01*
X64923810Y-109685714D01*
X64780952Y-109685714D01*
X64590476Y-109638095D01*
X64495238Y-109590476D01*
X64400000Y-109495238D01*
X64352381Y-109352380D01*
X64352381Y-109257142D01*
X64400000Y-109114285D01*
X64447619Y-109066666D01*
X65352381Y-108590476D02*
X65352381Y-108400000D01*
X65304762Y-108304761D01*
X65257143Y-108257142D01*
X65114286Y-108161904D01*
X64923810Y-108114285D01*
X64542857Y-108114285D01*
X64447619Y-108161904D01*
X64400000Y-108209523D01*
X64352381Y-108304761D01*
X64352381Y-108495238D01*
X64400000Y-108590476D01*
X64447619Y-108638095D01*
X64542857Y-108685714D01*
X64780952Y-108685714D01*
X64876190Y-108638095D01*
X64923810Y-108590476D01*
X64971429Y-108495238D01*
X64971429Y-108304761D01*
X64923810Y-108209523D01*
X64876190Y-108161904D01*
X64780952Y-108114285D01*
X81557143Y-109792857D02*
X81604762Y-109840476D01*
X81652381Y-109983333D01*
X81652381Y-110078571D01*
X81604762Y-110221429D01*
X81509524Y-110316667D01*
X81414286Y-110364286D01*
X81223810Y-110411905D01*
X81080952Y-110411905D01*
X80890476Y-110364286D01*
X80795238Y-110316667D01*
X80700000Y-110221429D01*
X80652381Y-110078571D01*
X80652381Y-109983333D01*
X80700000Y-109840476D01*
X80747619Y-109792857D01*
X81652381Y-108840476D02*
X81652381Y-109411905D01*
X81652381Y-109126191D02*
X80652381Y-109126191D01*
X80795238Y-109221429D01*
X80890476Y-109316667D01*
X80938095Y-109411905D01*
X80652381Y-108221429D02*
X80652381Y-108126190D01*
X80700000Y-108030952D01*
X80747619Y-107983333D01*
X80842857Y-107935714D01*
X81033333Y-107888095D01*
X81271429Y-107888095D01*
X81461905Y-107935714D01*
X81557143Y-107983333D01*
X81604762Y-108030952D01*
X81652381Y-108126190D01*
X81652381Y-108221429D01*
X81604762Y-108316667D01*
X81557143Y-108364286D01*
X81461905Y-108411905D01*
X81271429Y-108459524D01*
X81033333Y-108459524D01*
X80842857Y-108411905D01*
X80747619Y-108364286D01*
X80700000Y-108316667D01*
X80652381Y-108221429D01*
X72783334Y-87502381D02*
X72307143Y-87502381D01*
X72307143Y-86502381D01*
X73640477Y-87502381D02*
X73069048Y-87502381D01*
X73354762Y-87502381D02*
X73354762Y-86502381D01*
X73259524Y-86645238D01*
X73164286Y-86740476D01*
X73069048Y-86788095D01*
X57083334Y-86952381D02*
X56607143Y-86952381D01*
X56607143Y-85952381D01*
X57369048Y-86047619D02*
X57416667Y-86000000D01*
X57511905Y-85952381D01*
X57750001Y-85952381D01*
X57845239Y-86000000D01*
X57892858Y-86047619D01*
X57940477Y-86142857D01*
X57940477Y-86238095D01*
X57892858Y-86380952D01*
X57321429Y-86952381D01*
X57940477Y-86952381D01*
X68852381Y-88988095D02*
X67852381Y-88988095D01*
X67852381Y-88750000D01*
X67900000Y-88607142D01*
X67995238Y-88511904D01*
X68090476Y-88464285D01*
X68280952Y-88416666D01*
X68423810Y-88416666D01*
X68614286Y-88464285D01*
X68709524Y-88511904D01*
X68804762Y-88607142D01*
X68852381Y-88750000D01*
X68852381Y-88988095D01*
X68852381Y-87464285D02*
X68852381Y-88035714D01*
X68852381Y-87750000D02*
X67852381Y-87750000D01*
X67995238Y-87845238D01*
X68090476Y-87940476D01*
X68138095Y-88035714D01*
X53002381Y-87788095D02*
X52002381Y-87788095D01*
X52002381Y-87550000D01*
X52050000Y-87407142D01*
X52145238Y-87311904D01*
X52240476Y-87264285D01*
X52430952Y-87216666D01*
X52573810Y-87216666D01*
X52764286Y-87264285D01*
X52859524Y-87311904D01*
X52954762Y-87407142D01*
X53002381Y-87550000D01*
X53002381Y-87788095D01*
X52097619Y-86835714D02*
X52050000Y-86788095D01*
X52002381Y-86692857D01*
X52002381Y-86454761D01*
X52050000Y-86359523D01*
X52097619Y-86311904D01*
X52192857Y-86264285D01*
X52288095Y-86264285D01*
X52430952Y-86311904D01*
X53002381Y-86883333D01*
X53002381Y-86264285D01*
X55161905Y-108852381D02*
X55161905Y-107852381D01*
X55400000Y-107852381D01*
X55542858Y-107900000D01*
X55638096Y-107995238D01*
X55685715Y-108090476D01*
X55733334Y-108280952D01*
X55733334Y-108423810D01*
X55685715Y-108614286D01*
X55638096Y-108709524D01*
X55542858Y-108804762D01*
X55400000Y-108852381D01*
X55161905Y-108852381D01*
X56066667Y-107852381D02*
X56685715Y-107852381D01*
X56352381Y-108233333D01*
X56495239Y-108233333D01*
X56590477Y-108280952D01*
X56638096Y-108328571D01*
X56685715Y-108423810D01*
X56685715Y-108661905D01*
X56638096Y-108757143D01*
X56590477Y-108804762D01*
X56495239Y-108852381D01*
X56209524Y-108852381D01*
X56114286Y-108804762D01*
X56066667Y-108757143D01*
X71461905Y-108852381D02*
X71461905Y-107852381D01*
X71700000Y-107852381D01*
X71842858Y-107900000D01*
X71938096Y-107995238D01*
X71985715Y-108090476D01*
X72033334Y-108280952D01*
X72033334Y-108423810D01*
X71985715Y-108614286D01*
X71938096Y-108709524D01*
X71842858Y-108804762D01*
X71700000Y-108852381D01*
X71461905Y-108852381D01*
X72890477Y-108185714D02*
X72890477Y-108852381D01*
X72652381Y-107804762D02*
X72414286Y-108519048D01*
X73033334Y-108519048D01*
X83757143Y-99742857D02*
X83804762Y-99790476D01*
X83852381Y-99933333D01*
X83852381Y-100028571D01*
X83804762Y-100171429D01*
X83709524Y-100266667D01*
X83614286Y-100314286D01*
X83423810Y-100361905D01*
X83280952Y-100361905D01*
X83090476Y-100314286D01*
X82995238Y-100266667D01*
X82900000Y-100171429D01*
X82852381Y-100028571D01*
X82852381Y-99933333D01*
X82900000Y-99790476D01*
X82947619Y-99742857D01*
X83852381Y-98790476D02*
X83852381Y-99361905D01*
X83852381Y-99076191D02*
X82852381Y-99076191D01*
X82995238Y-99171429D01*
X83090476Y-99266667D01*
X83138095Y-99361905D01*
X82947619Y-98409524D02*
X82900000Y-98361905D01*
X82852381Y-98266667D01*
X82852381Y-98028571D01*
X82900000Y-97933333D01*
X82947619Y-97885714D01*
X83042857Y-97838095D01*
X83138095Y-97838095D01*
X83280952Y-97885714D01*
X83852381Y-98457143D01*
X83852381Y-97838095D01*
X61657143Y-96417857D02*
X61704762Y-96465476D01*
X61752381Y-96608333D01*
X61752381Y-96703571D01*
X61704762Y-96846429D01*
X61609524Y-96941667D01*
X61514286Y-96989286D01*
X61323810Y-97036905D01*
X61180952Y-97036905D01*
X60990476Y-96989286D01*
X60895238Y-96941667D01*
X60800000Y-96846429D01*
X60752381Y-96703571D01*
X60752381Y-96608333D01*
X60800000Y-96465476D01*
X60847619Y-96417857D01*
X61752381Y-95465476D02*
X61752381Y-96036905D01*
X61752381Y-95751191D02*
X60752381Y-95751191D01*
X60895238Y-95846429D01*
X60990476Y-95941667D01*
X61038095Y-96036905D01*
X60752381Y-95132143D02*
X60752381Y-94513095D01*
X61133333Y-94846429D01*
X61133333Y-94703571D01*
X61180952Y-94608333D01*
X61228571Y-94560714D01*
X61323810Y-94513095D01*
X61561905Y-94513095D01*
X61657143Y-94560714D01*
X61704762Y-94608333D01*
X61752381Y-94703571D01*
X61752381Y-94989286D01*
X61704762Y-95084524D01*
X61657143Y-95132143D01*
X78557143Y-95292857D02*
X78604762Y-95340476D01*
X78652381Y-95483333D01*
X78652381Y-95578571D01*
X78604762Y-95721429D01*
X78509524Y-95816667D01*
X78414286Y-95864286D01*
X78223810Y-95911905D01*
X78080952Y-95911905D01*
X77890476Y-95864286D01*
X77795238Y-95816667D01*
X77700000Y-95721429D01*
X77652381Y-95578571D01*
X77652381Y-95483333D01*
X77700000Y-95340476D01*
X77747619Y-95292857D01*
X77747619Y-94911905D02*
X77700000Y-94864286D01*
X77652381Y-94769048D01*
X77652381Y-94530952D01*
X77700000Y-94435714D01*
X77747619Y-94388095D01*
X77842857Y-94340476D01*
X77938095Y-94340476D01*
X78080952Y-94388095D01*
X78652381Y-94959524D01*
X78652381Y-94340476D01*
X78080952Y-93769048D02*
X78033333Y-93864286D01*
X77985714Y-93911905D01*
X77890476Y-93959524D01*
X77842857Y-93959524D01*
X77747619Y-93911905D01*
X77700000Y-93864286D01*
X77652381Y-93769048D01*
X77652381Y-93578571D01*
X77700000Y-93483333D01*
X77747619Y-93435714D01*
X77842857Y-93388095D01*
X77890476Y-93388095D01*
X77985714Y-93435714D01*
X78033333Y-93483333D01*
X78080952Y-93578571D01*
X78080952Y-93769048D01*
X78128571Y-93864286D01*
X78176190Y-93911905D01*
X78271429Y-93959524D01*
X78461905Y-93959524D01*
X78557143Y-93911905D01*
X78604762Y-93864286D01*
X78652381Y-93769048D01*
X78652381Y-93578571D01*
X78604762Y-93483333D01*
X78557143Y-93435714D01*
X78461905Y-93388095D01*
X78271429Y-93388095D01*
X78176190Y-93435714D01*
X78128571Y-93483333D01*
X78080952Y-93578571D01*
X66957143Y-100442857D02*
X67004762Y-100490476D01*
X67052381Y-100633333D01*
X67052381Y-100728571D01*
X67004762Y-100871429D01*
X66909524Y-100966667D01*
X66814286Y-101014286D01*
X66623810Y-101061905D01*
X66480952Y-101061905D01*
X66290476Y-101014286D01*
X66195238Y-100966667D01*
X66100000Y-100871429D01*
X66052381Y-100728571D01*
X66052381Y-100633333D01*
X66100000Y-100490476D01*
X66147619Y-100442857D01*
X66147619Y-100061905D02*
X66100000Y-100014286D01*
X66052381Y-99919048D01*
X66052381Y-99680952D01*
X66100000Y-99585714D01*
X66147619Y-99538095D01*
X66242857Y-99490476D01*
X66338095Y-99490476D01*
X66480952Y-99538095D01*
X67052381Y-100109524D01*
X67052381Y-99490476D01*
X67052381Y-99014286D02*
X67052381Y-98823810D01*
X67004762Y-98728571D01*
X66957143Y-98680952D01*
X66814286Y-98585714D01*
X66623810Y-98538095D01*
X66242857Y-98538095D01*
X66147619Y-98585714D01*
X66100000Y-98633333D01*
X66052381Y-98728571D01*
X66052381Y-98919048D01*
X66100000Y-99014286D01*
X66147619Y-99061905D01*
X66242857Y-99109524D01*
X66480952Y-99109524D01*
X66576190Y-99061905D01*
X66623810Y-99014286D01*
X66671429Y-98919048D01*
X66671429Y-98728571D01*
X66623810Y-98633333D01*
X66576190Y-98585714D01*
X66480952Y-98538095D01*
X54861905Y-142252381D02*
X54861905Y-141252381D01*
X55100000Y-141252381D01*
X55242858Y-141300000D01*
X55338096Y-141395238D01*
X55385715Y-141490476D01*
X55433334Y-141680952D01*
X55433334Y-141823810D01*
X55385715Y-142014286D01*
X55338096Y-142109524D01*
X55242858Y-142204762D01*
X55100000Y-142252381D01*
X54861905Y-142252381D01*
X56004762Y-141680952D02*
X55909524Y-141633333D01*
X55861905Y-141585714D01*
X55814286Y-141490476D01*
X55814286Y-141442857D01*
X55861905Y-141347619D01*
X55909524Y-141300000D01*
X56004762Y-141252381D01*
X56195239Y-141252381D01*
X56290477Y-141300000D01*
X56338096Y-141347619D01*
X56385715Y-141442857D01*
X56385715Y-141490476D01*
X56338096Y-141585714D01*
X56290477Y-141633333D01*
X56195239Y-141680952D01*
X56004762Y-141680952D01*
X55909524Y-141728571D01*
X55861905Y-141776190D01*
X55814286Y-141871429D01*
X55814286Y-142061905D01*
X55861905Y-142157143D01*
X55909524Y-142204762D01*
X56004762Y-142252381D01*
X56195239Y-142252381D01*
X56290477Y-142204762D01*
X56338096Y-142157143D01*
X56385715Y-142061905D01*
X56385715Y-141871429D01*
X56338096Y-141776190D01*
X56290477Y-141728571D01*
X56195239Y-141680952D01*
D15*
X54053448Y-155196876D02*
X53992495Y-155166400D01*
X53931543Y-155105448D01*
X53840114Y-155014019D01*
X53779162Y-154983543D01*
X53718210Y-154983543D01*
X53748686Y-155135924D02*
X53687733Y-155105448D01*
X53626781Y-155044495D01*
X53596305Y-154922590D01*
X53596305Y-154709257D01*
X53626781Y-154587352D01*
X53687733Y-154526400D01*
X53748686Y-154495924D01*
X53870590Y-154495924D01*
X53931543Y-154526400D01*
X53992495Y-154587352D01*
X54022971Y-154709257D01*
X54022971Y-154922590D01*
X53992495Y-155044495D01*
X53931543Y-155105448D01*
X53870590Y-155135924D01*
X53748686Y-155135924D01*
X54571543Y-154709257D02*
X54571543Y-155135924D01*
X54419162Y-154465448D02*
X54266781Y-154922590D01*
X54662971Y-154922590D01*
D12*
X72902381Y-146016666D02*
X72426190Y-146350000D01*
X72902381Y-146588095D02*
X71902381Y-146588095D01*
X71902381Y-146207142D01*
X71950000Y-146111904D01*
X71997619Y-146064285D01*
X72092857Y-146016666D01*
X72235714Y-146016666D01*
X72330952Y-146064285D01*
X72378571Y-146111904D01*
X72426190Y-146207142D01*
X72426190Y-146588095D01*
X71997619Y-145635714D02*
X71950000Y-145588095D01*
X71902381Y-145492857D01*
X71902381Y-145254761D01*
X71950000Y-145159523D01*
X71997619Y-145111904D01*
X72092857Y-145064285D01*
X72188095Y-145064285D01*
X72330952Y-145111904D01*
X72902381Y-145683333D01*
X72902381Y-145064285D01*
X67357143Y-150716666D02*
X67404762Y-150764285D01*
X67452381Y-150907142D01*
X67452381Y-151002380D01*
X67404762Y-151145238D01*
X67309524Y-151240476D01*
X67214286Y-151288095D01*
X67023810Y-151335714D01*
X66880952Y-151335714D01*
X66690476Y-151288095D01*
X66595238Y-151240476D01*
X66500000Y-151145238D01*
X66452381Y-151002380D01*
X66452381Y-150907142D01*
X66500000Y-150764285D01*
X66547619Y-150716666D01*
X66452381Y-149811904D02*
X66452381Y-150288095D01*
X66928571Y-150335714D01*
X66880952Y-150288095D01*
X66833333Y-150192857D01*
X66833333Y-149954761D01*
X66880952Y-149859523D01*
X66928571Y-149811904D01*
X67023810Y-149764285D01*
X67261905Y-149764285D01*
X67357143Y-149811904D01*
X67404762Y-149859523D01*
X67452381Y-149954761D01*
X67452381Y-150192857D01*
X67404762Y-150288095D01*
X67357143Y-150335714D01*
X78547619Y-150695238D02*
X78500000Y-150790476D01*
X78404762Y-150885714D01*
X78261905Y-151028571D01*
X78214286Y-151123810D01*
X78214286Y-151219048D01*
X78452381Y-151171429D02*
X78404762Y-151266667D01*
X78309524Y-151361905D01*
X78119048Y-151409524D01*
X77785714Y-151409524D01*
X77595238Y-151361905D01*
X77500000Y-151266667D01*
X77452381Y-151171429D01*
X77452381Y-150980952D01*
X77500000Y-150885714D01*
X77595238Y-150790476D01*
X77785714Y-150742857D01*
X78119048Y-150742857D01*
X78309524Y-150790476D01*
X78404762Y-150885714D01*
X78452381Y-150980952D01*
X78452381Y-151171429D01*
X78452381Y-149790476D02*
X78452381Y-150361905D01*
X78452381Y-150076191D02*
X77452381Y-150076191D01*
X77595238Y-150171429D01*
X77690476Y-150266667D01*
X77738095Y-150361905D01*
M02*
