M48
INCH,TZ
T1C0.010
T2C0.020
T3C0.024
T4C0.059
T5C0.083
T6C0.169
%
G90
G05
T1
X20177Y-20787
X20295Y-19193
X20394Y-21732
X20394Y-22717
X20394Y-23622
X20807Y-54409
X20846Y-53189
X20925Y-30000
X20945Y-19055
X20984Y-21732
X21339Y-26693
X21339Y-27480
X21634Y-25571
X21811Y-55807
X21831Y-28661
X21890Y-42343
X22033Y-30591
X22559Y-26693
X22559Y-27480
X22559Y-41004
X22835Y-15630
X22835Y-16220
X23091Y-30138
X23268Y-14902
X23484Y-16220
X23545Y-21988
X23545Y-22296
X23545Y-22723
X23642Y-17638
X23674Y-23008
X24134Y-15492
X24429Y-15118
X24626Y-17618
X24862Y-22835
X24921Y-20709
X24941Y-16437
X25453Y-22835
X25600Y-34566
X25630Y-22185
X25748Y-55413
X25886Y-21319
X25912Y-21526
X26083Y-18071
X26083Y-18661
X26083Y-21713
X26378Y-15689
X26874Y-18890
X27010Y-19237
X27047Y-18720
X27222Y-20630
X27638Y-21951
X27874Y-24646
X28012Y-18917
X28228Y-19134
X28235Y-21565
X28543Y-21181
X28563Y-16358
X28563Y-16949
X28642Y-20394
X28681Y-20866
X28712Y-19988
X29803Y-24646
X29803Y-25146
X29803Y-25646
X29803Y-26646
X29969Y-42343
X30295Y-16811
X30551Y-16216
X30650Y-41024
X31091Y-24041
X31358Y-15650
X31634Y-23150
X32382Y-15709
X32539Y-23484
X32756Y-54035
X33386Y-54587
X33500Y-34566
X34016Y-54587
X34449Y-15709
T2
X20787Y-40335
X20787Y-41181
X20787Y-41909
X20787Y-42657
X20787Y-43484
X20925Y-37913
X21083Y-39035
X21398Y-35000
X21398Y-36870
X22136Y-44990
X22136Y-46900
X23583Y-34370
X23583Y-35000
X24321Y-44990
X24321Y-46900
X26614Y-61437
X26614Y-61831
X26614Y-62264
X26614Y-62776
X26614Y-63287
X26614Y-63701
X26772Y-66437
X26811Y-32283
X26811Y-33150
X26837Y-59114
X26837Y-59724
X26837Y-60335
X26837Y-60965
X26902Y-58602
X27500Y-58602
X27559Y-66437
X28130Y-58602
X28150Y-59075
X28150Y-59606
X28150Y-60138
X28150Y-60709
X28150Y-61280
X28209Y-66437
X28602Y-61732
X28602Y-62382
X28602Y-62953
X28602Y-63642
X28602Y-64291
X28602Y-65059
X28898Y-66437
X28976Y-40748
X28976Y-41654
X28976Y-42835
X28976Y-43563
X29035Y-39862
X29114Y-38406
X29114Y-39055
X29134Y-65236
X29509Y-35100
X29509Y-37000
X29547Y-66437
X29882Y-65236
X30177Y-65650
X30177Y-66437
X30215Y-44991
X30215Y-46900
X30513Y-40100
X32400Y-44991
X32400Y-46900
X36004Y-18614
X36004Y-19614
X36004Y-20614
X36004Y-21614
X36004Y-22614
X36004Y-23614
T3
X20748Y-25177
X21811Y-23622
X21850Y-22717
X23701Y-19449
X23720Y-28091
X32106Y-18622
X32106Y-19606
X32106Y-20610
X32106Y-21614
X32126Y-17618
X32343Y-22598
T4
X24016Y-13563
X24340Y-32300
X25197Y-13563
X25600Y-32300
X26378Y-13563
X27559Y-13563
X29508Y-12815
X29508Y-14409
X30768Y-12815
X30768Y-14409
X32240Y-31900
X33500Y-31900
T5
X24646Y-65118
X26614Y-65118
X31752Y-63701
X31752Y-65669
X33583Y-63701
X33583Y-65669
T6
X21063Y-13189
X21063Y-65551
X36024Y-13189
X36024Y-65551
T0
M30
