G04 #@! TF.FileFunction,Copper,L2,Inr,Signal*
%FSLAX46Y46*%
G04 Gerber Fmt 4.6, Leading zero omitted, Abs format (unit mm)*
G04 Created by KiCad (PCBNEW 4.0.6) date 07/27/19 23:28:40*
%MOMM*%
%LPD*%
G01*
G04 APERTURE LIST*
%ADD10C,0.100000*%
%ADD11C,2.500000*%
%ADD12C,3.500000*%
%ADD13C,6.200000*%
%ADD14C,1.000000*%
%ADD15C,0.800000*%
%ADD16C,0.400000*%
%ADD17C,0.254000*%
G04 APERTURE END LIST*
D10*
D11*
X78150000Y-32550000D03*
X74950000Y-32550000D03*
X78150000Y-36600000D03*
X74950000Y-36600000D03*
D12*
X67600000Y-165400000D03*
X62600000Y-165400000D03*
X80650000Y-166800000D03*
X80650000Y-161800000D03*
X85300000Y-166800000D03*
X85300000Y-161800000D03*
D11*
X61824000Y-82042000D03*
X65024000Y-82042000D03*
X70000000Y-34450000D03*
X67000000Y-34450000D03*
X64000000Y-34450000D03*
X61000000Y-34450000D03*
D13*
X91500000Y-166500000D03*
X53500000Y-33500000D03*
X91500000Y-33500000D03*
X53500000Y-166500000D03*
D11*
X81890000Y-81026000D03*
X85090000Y-81026000D03*
D14*
X60250000Y-71350000D03*
X52700000Y-63950000D03*
X81550000Y-54900000D03*
X82150000Y-57400000D03*
X55500000Y-57700000D03*
X55400000Y-60000000D03*
X60200000Y-49400000D03*
X81550000Y-49800000D03*
X81550000Y-47300000D03*
X81600000Y-44750000D03*
X81550000Y-52350000D03*
D15*
X73600000Y-103500000D03*
X73600000Y-105800000D03*
X73600000Y-108800000D03*
X73600000Y-110650000D03*
X52800000Y-102450000D03*
X52800000Y-104600000D03*
X52800000Y-106450000D03*
X52800000Y-108350000D03*
X68000000Y-168750000D03*
X70000000Y-168750000D03*
X71650000Y-168750000D03*
X73400000Y-168750000D03*
X75050000Y-168750000D03*
X76650000Y-168750000D03*
X76650000Y-166750000D03*
X75900000Y-165700000D03*
X74000000Y-165700000D03*
X72650000Y-165250000D03*
X72650000Y-163300000D03*
X72650000Y-161650000D03*
X72650000Y-159900000D03*
X72650000Y-158450000D03*
X72650000Y-156800000D03*
X71500000Y-155650000D03*
X71500000Y-154200000D03*
X71500000Y-152750000D03*
X71500000Y-151400000D03*
X71500000Y-150050000D03*
X71450000Y-148850000D03*
X69850000Y-148850000D03*
X68331370Y-148850000D03*
X68165685Y-150150000D03*
X68165685Y-151700000D03*
X68165685Y-153250000D03*
X68165685Y-154850000D03*
X67600000Y-161800000D03*
X67600000Y-160750000D03*
X67600000Y-159450000D03*
X67600000Y-158150000D03*
X67600000Y-157050000D03*
X67600000Y-156050000D03*
X52800000Y-110450000D03*
X61775000Y-119125000D03*
X56225000Y-119125000D03*
X61775000Y-114275000D03*
X56225000Y-114275000D03*
X53550000Y-99150000D03*
X53150000Y-96300000D03*
X54350000Y-93650000D03*
X54350000Y-88900000D03*
X73750000Y-101250000D03*
X77502000Y-101854000D03*
X73950000Y-99200000D03*
X73950000Y-97550000D03*
X74954000Y-93980000D03*
X74954000Y-89154000D03*
X76746000Y-119126000D03*
X82296000Y-119126000D03*
X82296000Y-114276000D03*
X76746000Y-114276000D03*
D16*
X55963000Y-77700000D03*
X84800000Y-138650000D03*
X62550000Y-44750000D03*
X69145010Y-52400000D03*
X58000000Y-39700000D03*
X75700000Y-67680000D03*
X75700000Y-65140000D03*
X75700000Y-63870000D03*
X57300000Y-69800000D03*
X57300000Y-67800000D03*
X54200000Y-69800000D03*
X54200000Y-67800000D03*
D15*
X91450000Y-52360000D03*
X91450000Y-49820000D03*
X91450000Y-47280000D03*
D16*
X87500000Y-39900000D03*
X82250000Y-39900000D03*
X53300000Y-55200000D03*
X53200000Y-48400000D03*
X64650000Y-58000000D03*
X66250000Y-45900000D03*
X63300000Y-52600000D03*
X77600000Y-41188700D03*
X76950000Y-42700000D03*
X72550000Y-43050000D03*
X62050000Y-38400000D03*
X61300000Y-39350000D03*
X53149500Y-76200000D03*
X54950000Y-64950000D03*
D15*
X59900000Y-87300000D03*
X59900000Y-88900000D03*
X68100000Y-84200000D03*
X68100000Y-82000000D03*
D16*
X65024000Y-87798000D03*
X57300000Y-104150000D03*
X86400000Y-138650000D03*
X51250000Y-52800000D03*
X71717705Y-54775793D03*
X58000000Y-41200000D03*
X70800000Y-62600000D03*
X75700000Y-62600000D03*
X60050000Y-44800000D03*
D15*
X91450000Y-54900000D03*
X91450000Y-59980000D03*
X91450000Y-57440000D03*
D16*
X51800000Y-60000000D03*
X51800000Y-57700000D03*
X51550000Y-48750000D03*
X51800000Y-55200000D03*
X63150000Y-58000000D03*
X66250000Y-47400000D03*
X72550000Y-41550000D03*
X67000000Y-39850000D03*
X59804990Y-57716195D03*
X70200000Y-55755021D03*
X60132078Y-58440707D03*
X65100000Y-56350000D03*
X71150000Y-48050000D03*
X71700000Y-48600000D03*
X78971770Y-61065001D03*
X72750000Y-51800000D03*
X80350000Y-58800000D03*
X72929315Y-50770685D03*
X59804990Y-55850000D03*
X72850000Y-53000000D03*
X59804990Y-56630888D03*
X72500000Y-53800000D03*
X52950000Y-135100000D03*
X83200000Y-137250000D03*
X65750000Y-54150000D03*
X68700000Y-47550000D03*
X65816041Y-54675882D03*
X68260630Y-47980740D03*
X68605602Y-48863072D03*
X66250000Y-55150000D03*
X82650000Y-59650000D03*
X63350000Y-41750000D03*
X59650000Y-41200000D03*
X79650000Y-39750000D03*
X58650000Y-76550000D03*
X76121000Y-107551000D03*
X55600000Y-107550000D03*
X52850000Y-138200000D03*
X85090000Y-87798000D03*
X77850000Y-104200000D03*
X55450000Y-72800000D03*
X59100000Y-37850000D03*
X65400000Y-140750000D03*
X55400000Y-141750000D03*
D17*
G36*
X73883628Y-30951043D02*
X73352907Y-31480839D01*
X73065328Y-32173405D01*
X73064674Y-32923305D01*
X73351043Y-33616372D01*
X73880839Y-34147093D01*
X74573405Y-34434672D01*
X75323305Y-34435326D01*
X76016372Y-34148957D01*
X76547093Y-33619161D01*
X76549650Y-33613002D01*
X76551043Y-33616372D01*
X77080839Y-34147093D01*
X77773405Y-34434672D01*
X78523305Y-34435326D01*
X79216372Y-34148957D01*
X79747093Y-33619161D01*
X80034672Y-32926595D01*
X80035326Y-32176695D01*
X79748957Y-31483628D01*
X79219161Y-30952907D01*
X78634177Y-30710000D01*
X89008170Y-30710000D01*
X88335467Y-31381530D01*
X87765650Y-32753803D01*
X87764353Y-34239678D01*
X88331775Y-35612944D01*
X89381530Y-36664533D01*
X90753803Y-37234350D01*
X92239678Y-37235647D01*
X93612944Y-36668225D01*
X94290000Y-35992350D01*
X94290000Y-164008170D01*
X93618470Y-163335467D01*
X92246197Y-162765650D01*
X90760322Y-162764353D01*
X89387056Y-163331775D01*
X88335467Y-164381530D01*
X87765650Y-165753803D01*
X87764353Y-167239678D01*
X88331775Y-168612944D01*
X89007650Y-169290000D01*
X55991830Y-169290000D01*
X56664533Y-168618470D01*
X57234350Y-167246197D01*
X57235549Y-165872325D01*
X60214587Y-165872325D01*
X60576916Y-166749229D01*
X61247242Y-167420726D01*
X62123513Y-167784585D01*
X63072325Y-167785413D01*
X63949229Y-167423084D01*
X64620726Y-166752758D01*
X64984585Y-165876487D01*
X64985413Y-164927675D01*
X64623084Y-164050771D01*
X63952758Y-163379274D01*
X63076487Y-163015415D01*
X62127675Y-163014587D01*
X61250771Y-163376916D01*
X60579274Y-164047242D01*
X60215415Y-164923513D01*
X60214587Y-165872325D01*
X57235549Y-165872325D01*
X57235647Y-165760322D01*
X56668225Y-164387056D01*
X55618470Y-163335467D01*
X54246197Y-162765650D01*
X52760322Y-162764353D01*
X51387056Y-163331775D01*
X50710000Y-164007650D01*
X50710000Y-162272325D01*
X78264587Y-162272325D01*
X78626916Y-163149229D01*
X79297242Y-163820726D01*
X80173513Y-164184585D01*
X81122325Y-164185413D01*
X81999229Y-163823084D01*
X82670726Y-163152758D01*
X82975300Y-162419262D01*
X83276916Y-163149229D01*
X83947242Y-163820726D01*
X84823513Y-164184585D01*
X85772325Y-164185413D01*
X86649229Y-163823084D01*
X87320726Y-163152758D01*
X87684585Y-162276487D01*
X87685413Y-161327675D01*
X87323084Y-160450771D01*
X86652758Y-159779274D01*
X85776487Y-159415415D01*
X84827675Y-159414587D01*
X83950771Y-159776916D01*
X83279274Y-160447242D01*
X82974700Y-161180738D01*
X82673084Y-160450771D01*
X82002758Y-159779274D01*
X81126487Y-159415415D01*
X80177675Y-159414587D01*
X79300771Y-159776916D01*
X78629274Y-160447242D01*
X78265415Y-161323513D01*
X78264587Y-162272325D01*
X50710000Y-162272325D01*
X50710000Y-141915363D01*
X54564855Y-141915363D01*
X54691708Y-142222372D01*
X54926393Y-142457466D01*
X55233179Y-142584855D01*
X55565363Y-142585145D01*
X55872372Y-142458292D01*
X56107466Y-142223607D01*
X56234855Y-141916821D01*
X56235145Y-141584637D01*
X56108292Y-141277628D01*
X55873607Y-141042534D01*
X55567347Y-140915363D01*
X64564855Y-140915363D01*
X64691708Y-141222372D01*
X64926393Y-141457466D01*
X65233179Y-141584855D01*
X65565363Y-141585145D01*
X65872372Y-141458292D01*
X66107466Y-141223607D01*
X66234855Y-140916821D01*
X66235145Y-140584637D01*
X66108292Y-140277628D01*
X65873607Y-140042534D01*
X65566821Y-139915145D01*
X65234637Y-139914855D01*
X64927628Y-140041708D01*
X64692534Y-140276393D01*
X64565145Y-140583179D01*
X64564855Y-140915363D01*
X55567347Y-140915363D01*
X55566821Y-140915145D01*
X55234637Y-140914855D01*
X54927628Y-141041708D01*
X54692534Y-141276393D01*
X54565145Y-141583179D01*
X54564855Y-141915363D01*
X50710000Y-141915363D01*
X50710000Y-138365363D01*
X52014855Y-138365363D01*
X52141708Y-138672372D01*
X52376393Y-138907466D01*
X52683179Y-139034855D01*
X53015363Y-139035145D01*
X53322372Y-138908292D01*
X53415462Y-138815363D01*
X85564855Y-138815363D01*
X85691708Y-139122372D01*
X85926393Y-139357466D01*
X86233179Y-139484855D01*
X86565363Y-139485145D01*
X86872372Y-139358292D01*
X87107466Y-139123607D01*
X87234855Y-138816821D01*
X87235145Y-138484637D01*
X87108292Y-138177628D01*
X86873607Y-137942534D01*
X86566821Y-137815145D01*
X86234637Y-137814855D01*
X85927628Y-137941708D01*
X85692534Y-138176393D01*
X85565145Y-138483179D01*
X85564855Y-138815363D01*
X53415462Y-138815363D01*
X53557466Y-138673607D01*
X53684855Y-138366821D01*
X53685145Y-138034637D01*
X53558292Y-137727628D01*
X53323607Y-137492534D01*
X53137760Y-137415363D01*
X82364855Y-137415363D01*
X82491708Y-137722372D01*
X82726393Y-137957466D01*
X83033179Y-138084855D01*
X83365363Y-138085145D01*
X83672372Y-137958292D01*
X83907466Y-137723607D01*
X84034855Y-137416821D01*
X84035145Y-137084637D01*
X83908292Y-136777628D01*
X83673607Y-136542534D01*
X83366821Y-136415145D01*
X83034637Y-136414855D01*
X82727628Y-136541708D01*
X82492534Y-136776393D01*
X82365145Y-137083179D01*
X82364855Y-137415363D01*
X53137760Y-137415363D01*
X53016821Y-137365145D01*
X52684637Y-137364855D01*
X52377628Y-137491708D01*
X52142534Y-137726393D01*
X52015145Y-138033179D01*
X52014855Y-138365363D01*
X50710000Y-138365363D01*
X50710000Y-135265363D01*
X52114855Y-135265363D01*
X52241708Y-135572372D01*
X52476393Y-135807466D01*
X52783179Y-135934855D01*
X53115363Y-135935145D01*
X53422372Y-135808292D01*
X53657466Y-135573607D01*
X53784855Y-135266821D01*
X53785145Y-134934637D01*
X53658292Y-134627628D01*
X53423607Y-134392534D01*
X53116821Y-134265145D01*
X52784637Y-134264855D01*
X52477628Y-134391708D01*
X52242534Y-134626393D01*
X52115145Y-134933179D01*
X52114855Y-135265363D01*
X50710000Y-135265363D01*
X50710000Y-107715363D01*
X54764855Y-107715363D01*
X54891708Y-108022372D01*
X55126393Y-108257466D01*
X55433179Y-108384855D01*
X55765363Y-108385145D01*
X56072372Y-108258292D01*
X56307466Y-108023607D01*
X56434855Y-107716821D01*
X56434855Y-107716363D01*
X75285855Y-107716363D01*
X75412708Y-108023372D01*
X75647393Y-108258466D01*
X75954179Y-108385855D01*
X76286363Y-108386145D01*
X76593372Y-108259292D01*
X76828466Y-108024607D01*
X76955855Y-107717821D01*
X76956145Y-107385637D01*
X76829292Y-107078628D01*
X76594607Y-106843534D01*
X76287821Y-106716145D01*
X75955637Y-106715855D01*
X75648628Y-106842708D01*
X75413534Y-107077393D01*
X75286145Y-107384179D01*
X75285855Y-107716363D01*
X56434855Y-107716363D01*
X56435145Y-107384637D01*
X56308292Y-107077628D01*
X56073607Y-106842534D01*
X55766821Y-106715145D01*
X55434637Y-106714855D01*
X55127628Y-106841708D01*
X54892534Y-107076393D01*
X54765145Y-107383179D01*
X54764855Y-107715363D01*
X50710000Y-107715363D01*
X50710000Y-104315363D01*
X56464855Y-104315363D01*
X56591708Y-104622372D01*
X56826393Y-104857466D01*
X57133179Y-104984855D01*
X57465363Y-104985145D01*
X57772372Y-104858292D01*
X58007466Y-104623607D01*
X58114698Y-104365363D01*
X77014855Y-104365363D01*
X77141708Y-104672372D01*
X77376393Y-104907466D01*
X77683179Y-105034855D01*
X78015363Y-105035145D01*
X78322372Y-104908292D01*
X78557466Y-104673607D01*
X78684855Y-104366821D01*
X78685145Y-104034637D01*
X78558292Y-103727628D01*
X78323607Y-103492534D01*
X78016821Y-103365145D01*
X77684637Y-103364855D01*
X77377628Y-103491708D01*
X77142534Y-103726393D01*
X77015145Y-104033179D01*
X77014855Y-104365363D01*
X58114698Y-104365363D01*
X58134855Y-104316821D01*
X58135145Y-103984637D01*
X58008292Y-103677628D01*
X57773607Y-103442534D01*
X57466821Y-103315145D01*
X57134637Y-103314855D01*
X56827628Y-103441708D01*
X56592534Y-103676393D01*
X56465145Y-103983179D01*
X56464855Y-104315363D01*
X50710000Y-104315363D01*
X50710000Y-87504971D01*
X58864821Y-87504971D01*
X59022058Y-87885515D01*
X59236288Y-88100119D01*
X59023081Y-88312954D01*
X58865180Y-88693223D01*
X58864821Y-89104971D01*
X59022058Y-89485515D01*
X59312954Y-89776919D01*
X59693223Y-89934820D01*
X60104971Y-89935179D01*
X60485515Y-89777942D01*
X60776919Y-89487046D01*
X60934820Y-89106777D01*
X60935179Y-88695029D01*
X60777942Y-88314485D01*
X60563712Y-88099881D01*
X60700468Y-87963363D01*
X64188855Y-87963363D01*
X64315708Y-88270372D01*
X64550393Y-88505466D01*
X64857179Y-88632855D01*
X65189363Y-88633145D01*
X65496372Y-88506292D01*
X65731466Y-88271607D01*
X65858855Y-87964821D01*
X65858856Y-87963363D01*
X84254855Y-87963363D01*
X84381708Y-88270372D01*
X84616393Y-88505466D01*
X84923179Y-88632855D01*
X85255363Y-88633145D01*
X85562372Y-88506292D01*
X85797466Y-88271607D01*
X85924855Y-87964821D01*
X85925145Y-87632637D01*
X85798292Y-87325628D01*
X85563607Y-87090534D01*
X85256821Y-86963145D01*
X84924637Y-86962855D01*
X84617628Y-87089708D01*
X84382534Y-87324393D01*
X84255145Y-87631179D01*
X84254855Y-87963363D01*
X65858856Y-87963363D01*
X65859145Y-87632637D01*
X65732292Y-87325628D01*
X65497607Y-87090534D01*
X65190821Y-86963145D01*
X64858637Y-86962855D01*
X64551628Y-87089708D01*
X64316534Y-87324393D01*
X64189145Y-87631179D01*
X64188855Y-87963363D01*
X60700468Y-87963363D01*
X60776919Y-87887046D01*
X60934820Y-87506777D01*
X60935179Y-87095029D01*
X60777942Y-86714485D01*
X60487046Y-86423081D01*
X60106777Y-86265180D01*
X59695029Y-86264821D01*
X59314485Y-86422058D01*
X59023081Y-86712954D01*
X58865180Y-87093223D01*
X58864821Y-87504971D01*
X50710000Y-87504971D01*
X50710000Y-84404971D01*
X67064821Y-84404971D01*
X67222058Y-84785515D01*
X67512954Y-85076919D01*
X67893223Y-85234820D01*
X68304971Y-85235179D01*
X68685515Y-85077942D01*
X68976919Y-84787046D01*
X69134820Y-84406777D01*
X69135179Y-83995029D01*
X68977942Y-83614485D01*
X68687046Y-83323081D01*
X68306777Y-83165180D01*
X67895029Y-83164821D01*
X67514485Y-83322058D01*
X67223081Y-83612954D01*
X67065180Y-83993223D01*
X67064821Y-84404971D01*
X50710000Y-84404971D01*
X50710000Y-82415305D01*
X63138674Y-82415305D01*
X63425043Y-83108372D01*
X63954839Y-83639093D01*
X64647405Y-83926672D01*
X65397305Y-83927326D01*
X66090372Y-83640957D01*
X66621093Y-83111161D01*
X66908672Y-82418595D01*
X66908858Y-82204971D01*
X67064821Y-82204971D01*
X67222058Y-82585515D01*
X67512954Y-82876919D01*
X67893223Y-83034820D01*
X68304971Y-83035179D01*
X68685515Y-82877942D01*
X68976919Y-82587046D01*
X69134820Y-82206777D01*
X69135179Y-81795029D01*
X68977942Y-81414485D01*
X68962789Y-81399305D01*
X83204674Y-81399305D01*
X83491043Y-82092372D01*
X84020839Y-82623093D01*
X84713405Y-82910672D01*
X85463305Y-82911326D01*
X86156372Y-82624957D01*
X86687093Y-82095161D01*
X86974672Y-81402595D01*
X86975326Y-80652695D01*
X86688957Y-79959628D01*
X86159161Y-79428907D01*
X85466595Y-79141328D01*
X84716695Y-79140674D01*
X84023628Y-79427043D01*
X83492907Y-79956839D01*
X83205328Y-80649405D01*
X83204674Y-81399305D01*
X68962789Y-81399305D01*
X68687046Y-81123081D01*
X68306777Y-80965180D01*
X67895029Y-80964821D01*
X67514485Y-81122058D01*
X67223081Y-81412954D01*
X67065180Y-81793223D01*
X67064821Y-82204971D01*
X66908858Y-82204971D01*
X66909326Y-81668695D01*
X66622957Y-80975628D01*
X66093161Y-80444907D01*
X65400595Y-80157328D01*
X64650695Y-80156674D01*
X63957628Y-80443043D01*
X63426907Y-80972839D01*
X63139328Y-81665405D01*
X63138674Y-82415305D01*
X50710000Y-82415305D01*
X50710000Y-76365363D01*
X52314355Y-76365363D01*
X52441208Y-76672372D01*
X52675893Y-76907466D01*
X52982679Y-77034855D01*
X53314863Y-77035145D01*
X53621872Y-76908292D01*
X53815137Y-76715363D01*
X57814855Y-76715363D01*
X57941708Y-77022372D01*
X58176393Y-77257466D01*
X58483179Y-77384855D01*
X58815363Y-77385145D01*
X59122372Y-77258292D01*
X59357466Y-77023607D01*
X59484855Y-76716821D01*
X59485145Y-76384637D01*
X59358292Y-76077628D01*
X59123607Y-75842534D01*
X58816821Y-75715145D01*
X58484637Y-75714855D01*
X58177628Y-75841708D01*
X57942534Y-76076393D01*
X57815145Y-76383179D01*
X57814855Y-76715363D01*
X53815137Y-76715363D01*
X53856966Y-76673607D01*
X53984355Y-76366821D01*
X53984645Y-76034637D01*
X53857792Y-75727628D01*
X53623107Y-75492534D01*
X53316321Y-75365145D01*
X52984137Y-75364855D01*
X52677128Y-75491708D01*
X52442034Y-75726393D01*
X52314645Y-76033179D01*
X52314355Y-76365363D01*
X50710000Y-76365363D01*
X50710000Y-72965363D01*
X54614855Y-72965363D01*
X54741708Y-73272372D01*
X54976393Y-73507466D01*
X55283179Y-73634855D01*
X55615363Y-73635145D01*
X55922372Y-73508292D01*
X56157466Y-73273607D01*
X56284855Y-72966821D01*
X56285145Y-72634637D01*
X56158292Y-72327628D01*
X55923607Y-72092534D01*
X55616821Y-71965145D01*
X55284637Y-71964855D01*
X54977628Y-72091708D01*
X54742534Y-72326393D01*
X54615145Y-72633179D01*
X54614855Y-72965363D01*
X50710000Y-72965363D01*
X50710000Y-71574775D01*
X59114803Y-71574775D01*
X59287233Y-71992086D01*
X59606235Y-72311645D01*
X60023244Y-72484803D01*
X60474775Y-72485197D01*
X60892086Y-72312767D01*
X61211645Y-71993765D01*
X61384803Y-71576756D01*
X61385197Y-71125225D01*
X61212767Y-70707914D01*
X60893765Y-70388355D01*
X60476756Y-70215197D01*
X60025225Y-70214803D01*
X59607914Y-70387233D01*
X59288355Y-70706235D01*
X59115197Y-71123244D01*
X59114803Y-71574775D01*
X50710000Y-71574775D01*
X50710000Y-65115363D01*
X54114855Y-65115363D01*
X54241708Y-65422372D01*
X54476393Y-65657466D01*
X54783179Y-65784855D01*
X55115363Y-65785145D01*
X55422372Y-65658292D01*
X55657466Y-65423607D01*
X55784855Y-65116821D01*
X55785145Y-64784637D01*
X55658292Y-64477628D01*
X55423607Y-64242534D01*
X55116821Y-64115145D01*
X54784637Y-64114855D01*
X54477628Y-64241708D01*
X54242534Y-64476393D01*
X54115145Y-64783179D01*
X54114855Y-65115363D01*
X50710000Y-65115363D01*
X50710000Y-64174775D01*
X51564803Y-64174775D01*
X51737233Y-64592086D01*
X52056235Y-64911645D01*
X52473244Y-65084803D01*
X52924775Y-65085197D01*
X53342086Y-64912767D01*
X53661645Y-64593765D01*
X53834803Y-64176756D01*
X53835197Y-63725225D01*
X53662767Y-63307914D01*
X53343765Y-62988355D01*
X52926756Y-62815197D01*
X52475225Y-62814803D01*
X52057914Y-62987233D01*
X51738355Y-63306235D01*
X51565197Y-63723244D01*
X51564803Y-64174775D01*
X50710000Y-64174775D01*
X50710000Y-62765363D01*
X69964855Y-62765363D01*
X70091708Y-63072372D01*
X70326393Y-63307466D01*
X70633179Y-63434855D01*
X70965363Y-63435145D01*
X71272372Y-63308292D01*
X71507466Y-63073607D01*
X71634855Y-62766821D01*
X71634856Y-62765363D01*
X74864855Y-62765363D01*
X74991708Y-63072372D01*
X75226393Y-63307466D01*
X75533179Y-63434855D01*
X75865363Y-63435145D01*
X76172372Y-63308292D01*
X76407466Y-63073607D01*
X76534855Y-62766821D01*
X76535145Y-62434637D01*
X76408292Y-62127628D01*
X76173607Y-61892534D01*
X75866821Y-61765145D01*
X75534637Y-61764855D01*
X75227628Y-61891708D01*
X74992534Y-62126393D01*
X74865145Y-62433179D01*
X74864855Y-62765363D01*
X71634856Y-62765363D01*
X71635145Y-62434637D01*
X71508292Y-62127628D01*
X71273607Y-61892534D01*
X70966821Y-61765145D01*
X70634637Y-61764855D01*
X70327628Y-61891708D01*
X70092534Y-62126393D01*
X69965145Y-62433179D01*
X69964855Y-62765363D01*
X50710000Y-62765363D01*
X50710000Y-61230364D01*
X78136625Y-61230364D01*
X78263478Y-61537373D01*
X78498163Y-61772467D01*
X78804949Y-61899856D01*
X79137133Y-61900146D01*
X79444142Y-61773293D01*
X79679236Y-61538608D01*
X79806625Y-61231822D01*
X79806915Y-60899638D01*
X79680062Y-60592629D01*
X79445377Y-60357535D01*
X79138591Y-60230146D01*
X78806407Y-60229856D01*
X78499398Y-60356709D01*
X78264304Y-60591394D01*
X78136915Y-60898180D01*
X78136625Y-61230364D01*
X50710000Y-61230364D01*
X50710000Y-60165363D01*
X50964855Y-60165363D01*
X51091708Y-60472372D01*
X51326393Y-60707466D01*
X51633179Y-60834855D01*
X51965363Y-60835145D01*
X52272372Y-60708292D01*
X52507466Y-60473607D01*
X52610790Y-60224775D01*
X54264803Y-60224775D01*
X54437233Y-60642086D01*
X54756235Y-60961645D01*
X55173244Y-61134803D01*
X55624775Y-61135197D01*
X56042086Y-60962767D01*
X56361645Y-60643765D01*
X56534803Y-60226756D01*
X56535161Y-59815363D01*
X81814855Y-59815363D01*
X81941708Y-60122372D01*
X82176393Y-60357466D01*
X82483179Y-60484855D01*
X82815363Y-60485145D01*
X83122372Y-60358292D01*
X83295995Y-60184971D01*
X90414821Y-60184971D01*
X90572058Y-60565515D01*
X90862954Y-60856919D01*
X91243223Y-61014820D01*
X91654971Y-61015179D01*
X92035515Y-60857942D01*
X92326919Y-60567046D01*
X92484820Y-60186777D01*
X92485179Y-59775029D01*
X92327942Y-59394485D01*
X92037046Y-59103081D01*
X91656777Y-58945180D01*
X91245029Y-58944821D01*
X90864485Y-59102058D01*
X90573081Y-59392954D01*
X90415180Y-59773223D01*
X90414821Y-60184971D01*
X83295995Y-60184971D01*
X83357466Y-60123607D01*
X83484855Y-59816821D01*
X83485145Y-59484637D01*
X83358292Y-59177628D01*
X83123607Y-58942534D01*
X82816821Y-58815145D01*
X82484637Y-58814855D01*
X82177628Y-58941708D01*
X81942534Y-59176393D01*
X81815145Y-59483179D01*
X81814855Y-59815363D01*
X56535161Y-59815363D01*
X56535197Y-59775225D01*
X56362767Y-59357914D01*
X56043765Y-59038355D01*
X55626756Y-58865197D01*
X55175225Y-58864803D01*
X54757914Y-59037233D01*
X54438355Y-59356235D01*
X54265197Y-59773244D01*
X54264803Y-60224775D01*
X52610790Y-60224775D01*
X52634855Y-60166821D01*
X52635145Y-59834637D01*
X52508292Y-59527628D01*
X52273607Y-59292534D01*
X51966821Y-59165145D01*
X51634637Y-59164855D01*
X51327628Y-59291708D01*
X51092534Y-59526393D01*
X50965145Y-59833179D01*
X50964855Y-60165363D01*
X50710000Y-60165363D01*
X50710000Y-57865363D01*
X50964855Y-57865363D01*
X51091708Y-58172372D01*
X51326393Y-58407466D01*
X51633179Y-58534855D01*
X51965363Y-58535145D01*
X52272372Y-58408292D01*
X52507466Y-58173607D01*
X52610790Y-57924775D01*
X54364803Y-57924775D01*
X54537233Y-58342086D01*
X54856235Y-58661645D01*
X55273244Y-58834803D01*
X55724775Y-58835197D01*
X56142086Y-58662767D01*
X56461645Y-58343765D01*
X56634803Y-57926756D01*
X56635197Y-57475225D01*
X56462767Y-57057914D01*
X56143765Y-56738355D01*
X55726756Y-56565197D01*
X55275225Y-56564803D01*
X54857914Y-56737233D01*
X54538355Y-57056235D01*
X54365197Y-57473244D01*
X54364803Y-57924775D01*
X52610790Y-57924775D01*
X52634855Y-57866821D01*
X52635145Y-57534637D01*
X52508292Y-57227628D01*
X52273607Y-56992534D01*
X51966821Y-56865145D01*
X51634637Y-56864855D01*
X51327628Y-56991708D01*
X51092534Y-57226393D01*
X50965145Y-57533179D01*
X50964855Y-57865363D01*
X50710000Y-57865363D01*
X50710000Y-55365363D01*
X50964855Y-55365363D01*
X51091708Y-55672372D01*
X51326393Y-55907466D01*
X51633179Y-56034855D01*
X51965363Y-56035145D01*
X52013239Y-56015363D01*
X58969845Y-56015363D01*
X59062919Y-56240620D01*
X58970135Y-56464067D01*
X58969845Y-56796251D01*
X59096698Y-57103260D01*
X59166774Y-57173458D01*
X59097524Y-57242588D01*
X58970135Y-57549374D01*
X58969845Y-57881558D01*
X59096698Y-58188567D01*
X59297122Y-58389340D01*
X59296933Y-58606070D01*
X59423786Y-58913079D01*
X59658471Y-59148173D01*
X59965257Y-59275562D01*
X60297441Y-59275852D01*
X60604450Y-59148999D01*
X60788406Y-58965363D01*
X79514855Y-58965363D01*
X79641708Y-59272372D01*
X79876393Y-59507466D01*
X80183179Y-59634855D01*
X80515363Y-59635145D01*
X80822372Y-59508292D01*
X81057466Y-59273607D01*
X81184855Y-58966821D01*
X81185145Y-58634637D01*
X81058292Y-58327628D01*
X80823607Y-58092534D01*
X80516821Y-57965145D01*
X80184637Y-57964855D01*
X79877628Y-58091708D01*
X79642534Y-58326393D01*
X79515145Y-58633179D01*
X79514855Y-58965363D01*
X60788406Y-58965363D01*
X60839544Y-58914314D01*
X60966933Y-58607528D01*
X60967223Y-58275344D01*
X60921780Y-58165363D01*
X62314855Y-58165363D01*
X62441708Y-58472372D01*
X62676393Y-58707466D01*
X62983179Y-58834855D01*
X63315363Y-58835145D01*
X63622372Y-58708292D01*
X63857466Y-58473607D01*
X63984855Y-58166821D01*
X63985145Y-57834637D01*
X63898433Y-57624775D01*
X81014803Y-57624775D01*
X81187233Y-58042086D01*
X81506235Y-58361645D01*
X81923244Y-58534803D01*
X82374775Y-58535197D01*
X82792086Y-58362767D01*
X83111645Y-58043765D01*
X83277239Y-57644971D01*
X90414821Y-57644971D01*
X90572058Y-58025515D01*
X90862954Y-58316919D01*
X91243223Y-58474820D01*
X91654971Y-58475179D01*
X92035515Y-58317942D01*
X92326919Y-58027046D01*
X92484820Y-57646777D01*
X92485179Y-57235029D01*
X92327942Y-56854485D01*
X92037046Y-56563081D01*
X91656777Y-56405180D01*
X91245029Y-56404821D01*
X90864485Y-56562058D01*
X90573081Y-56852954D01*
X90415180Y-57233223D01*
X90414821Y-57644971D01*
X83277239Y-57644971D01*
X83284803Y-57626756D01*
X83285197Y-57175225D01*
X83112767Y-56757914D01*
X82793765Y-56438355D01*
X82376756Y-56265197D01*
X81925225Y-56264803D01*
X81507914Y-56437233D01*
X81188355Y-56756235D01*
X81015197Y-57173244D01*
X81014803Y-57624775D01*
X63898433Y-57624775D01*
X63858292Y-57527628D01*
X63623607Y-57292534D01*
X63316821Y-57165145D01*
X62984637Y-57164855D01*
X62677628Y-57291708D01*
X62442534Y-57526393D01*
X62315145Y-57833179D01*
X62314855Y-58165363D01*
X60921780Y-58165363D01*
X60840370Y-57968335D01*
X60639946Y-57767562D01*
X60640135Y-57550832D01*
X60513282Y-57243823D01*
X60443206Y-57173625D01*
X60512456Y-57104495D01*
X60639845Y-56797709D01*
X60640091Y-56515363D01*
X64264855Y-56515363D01*
X64391708Y-56822372D01*
X64626393Y-57057466D01*
X64933179Y-57184855D01*
X65265363Y-57185145D01*
X65572372Y-57058292D01*
X65807466Y-56823607D01*
X65934855Y-56516821D01*
X65935145Y-56184637D01*
X65808292Y-55877628D01*
X65796500Y-55865815D01*
X66083179Y-55984855D01*
X66415363Y-55985145D01*
X66572097Y-55920384D01*
X69364855Y-55920384D01*
X69491708Y-56227393D01*
X69726393Y-56462487D01*
X70033179Y-56589876D01*
X70365363Y-56590166D01*
X70672372Y-56463313D01*
X70907466Y-56228628D01*
X71034855Y-55921842D01*
X71035145Y-55589658D01*
X70908292Y-55282649D01*
X70673607Y-55047555D01*
X70417371Y-54941156D01*
X70882560Y-54941156D01*
X71009413Y-55248165D01*
X71244098Y-55483259D01*
X71550884Y-55610648D01*
X71883068Y-55610938D01*
X72190077Y-55484085D01*
X72425171Y-55249400D01*
X72476919Y-55124775D01*
X80414803Y-55124775D01*
X80587233Y-55542086D01*
X80906235Y-55861645D01*
X81323244Y-56034803D01*
X81774775Y-56035197D01*
X82192086Y-55862767D01*
X82511645Y-55543765D01*
X82684803Y-55126756D01*
X82684822Y-55104971D01*
X90414821Y-55104971D01*
X90572058Y-55485515D01*
X90862954Y-55776919D01*
X91243223Y-55934820D01*
X91654971Y-55935179D01*
X92035515Y-55777942D01*
X92326919Y-55487046D01*
X92484820Y-55106777D01*
X92485179Y-54695029D01*
X92327942Y-54314485D01*
X92037046Y-54023081D01*
X91656777Y-53865180D01*
X91245029Y-53864821D01*
X90864485Y-54022058D01*
X90573081Y-54312954D01*
X90415180Y-54693223D01*
X90414821Y-55104971D01*
X82684822Y-55104971D01*
X82685197Y-54675225D01*
X82512767Y-54257914D01*
X82193765Y-53938355D01*
X81776756Y-53765197D01*
X81325225Y-53764803D01*
X80907914Y-53937233D01*
X80588355Y-54256235D01*
X80415197Y-54673244D01*
X80414803Y-55124775D01*
X72476919Y-55124775D01*
X72552560Y-54942614D01*
X72552829Y-54635047D01*
X72665363Y-54635145D01*
X72972372Y-54508292D01*
X73207466Y-54273607D01*
X73334855Y-53966821D01*
X73335092Y-53695594D01*
X73557466Y-53473607D01*
X73684855Y-53166821D01*
X73685145Y-52834637D01*
X73577773Y-52574775D01*
X80414803Y-52574775D01*
X80587233Y-52992086D01*
X80906235Y-53311645D01*
X81323244Y-53484803D01*
X81774775Y-53485197D01*
X82192086Y-53312767D01*
X82511645Y-52993765D01*
X82684803Y-52576756D01*
X82685197Y-52125225D01*
X82512767Y-51707914D01*
X82193765Y-51388355D01*
X81776756Y-51215197D01*
X81325225Y-51214803D01*
X80907914Y-51387233D01*
X80588355Y-51706235D01*
X80415197Y-52123244D01*
X80414803Y-52574775D01*
X73577773Y-52574775D01*
X73558292Y-52527628D01*
X73380956Y-52349983D01*
X73457466Y-52273607D01*
X73584855Y-51966821D01*
X73585145Y-51634637D01*
X73486036Y-51394774D01*
X73636781Y-51244292D01*
X73764170Y-50937506D01*
X73764460Y-50605322D01*
X73637607Y-50298313D01*
X73402922Y-50063219D01*
X73310339Y-50024775D01*
X80414803Y-50024775D01*
X80587233Y-50442086D01*
X80906235Y-50761645D01*
X81323244Y-50934803D01*
X81774775Y-50935197D01*
X82192086Y-50762767D01*
X82511645Y-50443765D01*
X82684803Y-50026756D01*
X82685197Y-49575225D01*
X82512767Y-49157914D01*
X82193765Y-48838355D01*
X81776756Y-48665197D01*
X81325225Y-48664803D01*
X80907914Y-48837233D01*
X80588355Y-49156235D01*
X80415197Y-49573244D01*
X80414803Y-50024775D01*
X73310339Y-50024775D01*
X73096136Y-49935830D01*
X72763952Y-49935540D01*
X72456943Y-50062393D01*
X72221849Y-50297078D01*
X72094460Y-50603864D01*
X72094170Y-50936048D01*
X72193279Y-51175911D01*
X72042534Y-51326393D01*
X71915145Y-51633179D01*
X71914855Y-51965363D01*
X72041708Y-52272372D01*
X72219044Y-52450017D01*
X72142534Y-52526393D01*
X72015145Y-52833179D01*
X72014908Y-53104406D01*
X71792534Y-53326393D01*
X71665145Y-53633179D01*
X71664876Y-53940746D01*
X71552342Y-53940648D01*
X71245333Y-54067501D01*
X71010239Y-54302186D01*
X70882850Y-54608972D01*
X70882560Y-54941156D01*
X70417371Y-54941156D01*
X70366821Y-54920166D01*
X70034637Y-54919876D01*
X69727628Y-55046729D01*
X69492534Y-55281414D01*
X69365145Y-55588200D01*
X69364855Y-55920384D01*
X66572097Y-55920384D01*
X66722372Y-55858292D01*
X66957466Y-55623607D01*
X67084855Y-55316821D01*
X67085145Y-54984637D01*
X66958292Y-54677628D01*
X66723607Y-54442534D01*
X66602279Y-54392154D01*
X66577987Y-54333362D01*
X66584855Y-54316821D01*
X66585145Y-53984637D01*
X66458292Y-53677628D01*
X66223607Y-53442534D01*
X65916821Y-53315145D01*
X65584637Y-53314855D01*
X65277628Y-53441708D01*
X65042534Y-53676393D01*
X64915145Y-53983179D01*
X64914855Y-54315363D01*
X64988054Y-54492520D01*
X64981186Y-54509061D01*
X64980896Y-54841245D01*
X65107749Y-55148254D01*
X65342434Y-55383348D01*
X65463762Y-55433728D01*
X65541708Y-55622372D01*
X65553500Y-55634185D01*
X65266821Y-55515145D01*
X64934637Y-55514855D01*
X64627628Y-55641708D01*
X64392534Y-55876393D01*
X64265145Y-56183179D01*
X64264855Y-56515363D01*
X60640091Y-56515363D01*
X60640135Y-56465525D01*
X60547061Y-56240268D01*
X60639845Y-56016821D01*
X60640135Y-55684637D01*
X60513282Y-55377628D01*
X60278597Y-55142534D01*
X59971811Y-55015145D01*
X59639627Y-55014855D01*
X59332618Y-55141708D01*
X59097524Y-55376393D01*
X58970135Y-55683179D01*
X58969845Y-56015363D01*
X52013239Y-56015363D01*
X52272372Y-55908292D01*
X52507466Y-55673607D01*
X52634855Y-55366821D01*
X52635145Y-55034637D01*
X52508292Y-54727628D01*
X52273607Y-54492534D01*
X51966821Y-54365145D01*
X51634637Y-54364855D01*
X51327628Y-54491708D01*
X51092534Y-54726393D01*
X50965145Y-55033179D01*
X50964855Y-55365363D01*
X50710000Y-55365363D01*
X50710000Y-53440957D01*
X50776393Y-53507466D01*
X51083179Y-53634855D01*
X51415363Y-53635145D01*
X51722372Y-53508292D01*
X51957466Y-53273607D01*
X52084855Y-52966821D01*
X52085145Y-52634637D01*
X51958292Y-52327628D01*
X51723607Y-52092534D01*
X51416821Y-51965145D01*
X51084637Y-51964855D01*
X50777628Y-52091708D01*
X50710000Y-52159218D01*
X50710000Y-49624775D01*
X59064803Y-49624775D01*
X59237233Y-50042086D01*
X59556235Y-50361645D01*
X59973244Y-50534803D01*
X60424775Y-50535197D01*
X60842086Y-50362767D01*
X61161645Y-50043765D01*
X61334803Y-49626756D01*
X61335197Y-49175225D01*
X61162767Y-48757914D01*
X60843765Y-48438355D01*
X60426756Y-48265197D01*
X59975225Y-48264803D01*
X59557914Y-48437233D01*
X59238355Y-48756235D01*
X59065197Y-49173244D01*
X59064803Y-49624775D01*
X50710000Y-49624775D01*
X50710000Y-48915363D01*
X50714855Y-48915363D01*
X50841708Y-49222372D01*
X51076393Y-49457466D01*
X51383179Y-49584855D01*
X51715363Y-49585145D01*
X52022372Y-49458292D01*
X52257466Y-49223607D01*
X52384855Y-48916821D01*
X52385145Y-48584637D01*
X52258292Y-48277628D01*
X52023607Y-48042534D01*
X51716821Y-47915145D01*
X51384637Y-47914855D01*
X51077628Y-48041708D01*
X50842534Y-48276393D01*
X50715145Y-48583179D01*
X50714855Y-48915363D01*
X50710000Y-48915363D01*
X50710000Y-47565363D01*
X65414855Y-47565363D01*
X65541708Y-47872372D01*
X65776393Y-48107466D01*
X66083179Y-48234855D01*
X66415363Y-48235145D01*
X66630862Y-48146103D01*
X67425485Y-48146103D01*
X67552338Y-48453112D01*
X67777888Y-48679055D01*
X67770747Y-48696251D01*
X67770457Y-49028435D01*
X67897310Y-49335444D01*
X68131995Y-49570538D01*
X68438781Y-49697927D01*
X68770965Y-49698217D01*
X69077974Y-49571364D01*
X69313068Y-49336679D01*
X69440457Y-49029893D01*
X69440747Y-48697709D01*
X69313894Y-48390700D01*
X69177052Y-48253620D01*
X69215375Y-48215363D01*
X70314855Y-48215363D01*
X70441708Y-48522372D01*
X70676393Y-48757466D01*
X70899948Y-48850294D01*
X70991708Y-49072372D01*
X71226393Y-49307466D01*
X71533179Y-49434855D01*
X71865363Y-49435145D01*
X72172372Y-49308292D01*
X72407466Y-49073607D01*
X72534855Y-48766821D01*
X72535145Y-48434637D01*
X72408292Y-48127628D01*
X72173607Y-47892534D01*
X71950052Y-47799706D01*
X71858292Y-47577628D01*
X71805531Y-47524775D01*
X80414803Y-47524775D01*
X80587233Y-47942086D01*
X80906235Y-48261645D01*
X81323244Y-48434803D01*
X81774775Y-48435197D01*
X82192086Y-48262767D01*
X82511645Y-47943765D01*
X82684803Y-47526756D01*
X82685197Y-47075225D01*
X82512767Y-46657914D01*
X82193765Y-46338355D01*
X81776756Y-46165197D01*
X81325225Y-46164803D01*
X80907914Y-46337233D01*
X80588355Y-46656235D01*
X80415197Y-47073244D01*
X80414803Y-47524775D01*
X71805531Y-47524775D01*
X71623607Y-47342534D01*
X71316821Y-47215145D01*
X70984637Y-47214855D01*
X70677628Y-47341708D01*
X70442534Y-47576393D01*
X70315145Y-47883179D01*
X70314855Y-48215363D01*
X69215375Y-48215363D01*
X69407466Y-48023607D01*
X69534855Y-47716821D01*
X69535145Y-47384637D01*
X69408292Y-47077628D01*
X69173607Y-46842534D01*
X68866821Y-46715145D01*
X68534637Y-46714855D01*
X68227628Y-46841708D01*
X67992534Y-47076393D01*
X67936571Y-47211167D01*
X67788258Y-47272448D01*
X67553164Y-47507133D01*
X67425775Y-47813919D01*
X67425485Y-48146103D01*
X66630862Y-48146103D01*
X66722372Y-48108292D01*
X66957466Y-47873607D01*
X67084855Y-47566821D01*
X67085145Y-47234637D01*
X66958292Y-46927628D01*
X66723607Y-46692534D01*
X66416821Y-46565145D01*
X66084637Y-46564855D01*
X65777628Y-46691708D01*
X65542534Y-46926393D01*
X65415145Y-47233179D01*
X65414855Y-47565363D01*
X50710000Y-47565363D01*
X50710000Y-44965363D01*
X59214855Y-44965363D01*
X59341708Y-45272372D01*
X59576393Y-45507466D01*
X59883179Y-45634855D01*
X60215363Y-45635145D01*
X60522372Y-45508292D01*
X60757466Y-45273607D01*
X60881552Y-44974775D01*
X80464803Y-44974775D01*
X80637233Y-45392086D01*
X80956235Y-45711645D01*
X81373244Y-45884803D01*
X81824775Y-45885197D01*
X82242086Y-45712767D01*
X82561645Y-45393765D01*
X82734803Y-44976756D01*
X82735197Y-44525225D01*
X82562767Y-44107914D01*
X82243765Y-43788355D01*
X81826756Y-43615197D01*
X81375225Y-43614803D01*
X80957914Y-43787233D01*
X80638355Y-44106235D01*
X80465197Y-44523244D01*
X80464803Y-44974775D01*
X60881552Y-44974775D01*
X60884855Y-44966821D01*
X60885145Y-44634637D01*
X60758292Y-44327628D01*
X60523607Y-44092534D01*
X60216821Y-43965145D01*
X59884637Y-43964855D01*
X59577628Y-44091708D01*
X59342534Y-44326393D01*
X59215145Y-44633179D01*
X59214855Y-44965363D01*
X50710000Y-44965363D01*
X50710000Y-41365363D01*
X57164855Y-41365363D01*
X57291708Y-41672372D01*
X57526393Y-41907466D01*
X57833179Y-42034855D01*
X58165363Y-42035145D01*
X58472372Y-41908292D01*
X58707466Y-41673607D01*
X58825132Y-41390236D01*
X58941708Y-41672372D01*
X59176393Y-41907466D01*
X59483179Y-42034855D01*
X59815363Y-42035145D01*
X60105258Y-41915363D01*
X62514855Y-41915363D01*
X62641708Y-42222372D01*
X62876393Y-42457466D01*
X63183179Y-42584855D01*
X63515363Y-42585145D01*
X63822372Y-42458292D01*
X64057466Y-42223607D01*
X64184855Y-41916821D01*
X64185030Y-41715363D01*
X71714855Y-41715363D01*
X71841708Y-42022372D01*
X72076393Y-42257466D01*
X72383179Y-42384855D01*
X72715363Y-42385145D01*
X73022372Y-42258292D01*
X73257466Y-42023607D01*
X73384855Y-41716821D01*
X73385145Y-41384637D01*
X73258292Y-41077628D01*
X73023607Y-40842534D01*
X72716821Y-40715145D01*
X72384637Y-40714855D01*
X72077628Y-40841708D01*
X71842534Y-41076393D01*
X71715145Y-41383179D01*
X71714855Y-41715363D01*
X64185030Y-41715363D01*
X64185145Y-41584637D01*
X64058292Y-41277628D01*
X63823607Y-41042534D01*
X63516821Y-40915145D01*
X63184637Y-40914855D01*
X62877628Y-41041708D01*
X62642534Y-41276393D01*
X62515145Y-41583179D01*
X62514855Y-41915363D01*
X60105258Y-41915363D01*
X60122372Y-41908292D01*
X60357466Y-41673607D01*
X60484855Y-41366821D01*
X60485145Y-41034637D01*
X60358292Y-40727628D01*
X60123607Y-40492534D01*
X59816821Y-40365145D01*
X59484637Y-40364855D01*
X59177628Y-40491708D01*
X58942534Y-40726393D01*
X58824868Y-41009764D01*
X58708292Y-40727628D01*
X58473607Y-40492534D01*
X58166821Y-40365145D01*
X57834637Y-40364855D01*
X57527628Y-40491708D01*
X57292534Y-40726393D01*
X57165145Y-41033179D01*
X57164855Y-41365363D01*
X50710000Y-41365363D01*
X50710000Y-40015363D01*
X66164855Y-40015363D01*
X66291708Y-40322372D01*
X66526393Y-40557466D01*
X66833179Y-40684855D01*
X67165363Y-40685145D01*
X67472372Y-40558292D01*
X67707466Y-40323607D01*
X67834855Y-40016821D01*
X67834943Y-39915363D01*
X78814855Y-39915363D01*
X78941708Y-40222372D01*
X79176393Y-40457466D01*
X79483179Y-40584855D01*
X79815363Y-40585145D01*
X80122372Y-40458292D01*
X80357466Y-40223607D01*
X80484855Y-39916821D01*
X80485145Y-39584637D01*
X80358292Y-39277628D01*
X80123607Y-39042534D01*
X79816821Y-38915145D01*
X79484637Y-38914855D01*
X79177628Y-39041708D01*
X78942534Y-39276393D01*
X78815145Y-39583179D01*
X78814855Y-39915363D01*
X67834943Y-39915363D01*
X67835145Y-39684637D01*
X67708292Y-39377628D01*
X67473607Y-39142534D01*
X67166821Y-39015145D01*
X66834637Y-39014855D01*
X66527628Y-39141708D01*
X66292534Y-39376393D01*
X66165145Y-39683179D01*
X66164855Y-40015363D01*
X50710000Y-40015363D01*
X50710000Y-38015363D01*
X58264855Y-38015363D01*
X58391708Y-38322372D01*
X58626393Y-38557466D01*
X58933179Y-38684855D01*
X59265363Y-38685145D01*
X59572372Y-38558292D01*
X59807466Y-38323607D01*
X59934855Y-38016821D01*
X59935145Y-37684637D01*
X59808292Y-37377628D01*
X59573607Y-37142534D01*
X59266821Y-37015145D01*
X58934637Y-37014855D01*
X58627628Y-37141708D01*
X58392534Y-37376393D01*
X58265145Y-37683179D01*
X58264855Y-38015363D01*
X50710000Y-38015363D01*
X50710000Y-35991830D01*
X51381530Y-36664533D01*
X52753803Y-37234350D01*
X54239678Y-37235647D01*
X54874594Y-36973305D01*
X73064674Y-36973305D01*
X73351043Y-37666372D01*
X73880839Y-38197093D01*
X74573405Y-38484672D01*
X75323305Y-38485326D01*
X76016372Y-38198957D01*
X76547093Y-37669161D01*
X76549650Y-37663002D01*
X76551043Y-37666372D01*
X77080839Y-38197093D01*
X77773405Y-38484672D01*
X78523305Y-38485326D01*
X79216372Y-38198957D01*
X79747093Y-37669161D01*
X80034672Y-36976595D01*
X80035326Y-36226695D01*
X79748957Y-35533628D01*
X79219161Y-35002907D01*
X78526595Y-34715328D01*
X77776695Y-34714674D01*
X77083628Y-35001043D01*
X76552907Y-35530839D01*
X76550350Y-35536998D01*
X76548957Y-35533628D01*
X76019161Y-35002907D01*
X75326595Y-34715328D01*
X74576695Y-34714674D01*
X73883628Y-35001043D01*
X73352907Y-35530839D01*
X73065328Y-36223405D01*
X73064674Y-36973305D01*
X54874594Y-36973305D01*
X55612944Y-36668225D01*
X56664533Y-35618470D01*
X56994714Y-34823305D01*
X59114674Y-34823305D01*
X59401043Y-35516372D01*
X59930839Y-36047093D01*
X60623405Y-36334672D01*
X61373305Y-36335326D01*
X62066372Y-36048957D01*
X62597093Y-35519161D01*
X62884672Y-34826595D01*
X62884674Y-34823305D01*
X65114674Y-34823305D01*
X65401043Y-35516372D01*
X65930839Y-36047093D01*
X66623405Y-36334672D01*
X67373305Y-36335326D01*
X68066372Y-36048957D01*
X68597093Y-35519161D01*
X68884672Y-34826595D01*
X68885326Y-34076695D01*
X68598957Y-33383628D01*
X68069161Y-32852907D01*
X67376595Y-32565328D01*
X66626695Y-32564674D01*
X65933628Y-32851043D01*
X65402907Y-33380839D01*
X65115328Y-34073405D01*
X65114674Y-34823305D01*
X62884674Y-34823305D01*
X62885326Y-34076695D01*
X62598957Y-33383628D01*
X62069161Y-32852907D01*
X61376595Y-32565328D01*
X60626695Y-32564674D01*
X59933628Y-32851043D01*
X59402907Y-33380839D01*
X59115328Y-34073405D01*
X59114674Y-34823305D01*
X56994714Y-34823305D01*
X57234350Y-34246197D01*
X57235647Y-32760322D01*
X56668225Y-31387056D01*
X55992350Y-30710000D01*
X74466998Y-30710000D01*
X73883628Y-30951043D01*
X73883628Y-30951043D01*
G37*
X73883628Y-30951043D02*
X73352907Y-31480839D01*
X73065328Y-32173405D01*
X73064674Y-32923305D01*
X73351043Y-33616372D01*
X73880839Y-34147093D01*
X74573405Y-34434672D01*
X75323305Y-34435326D01*
X76016372Y-34148957D01*
X76547093Y-33619161D01*
X76549650Y-33613002D01*
X76551043Y-33616372D01*
X77080839Y-34147093D01*
X77773405Y-34434672D01*
X78523305Y-34435326D01*
X79216372Y-34148957D01*
X79747093Y-33619161D01*
X80034672Y-32926595D01*
X80035326Y-32176695D01*
X79748957Y-31483628D01*
X79219161Y-30952907D01*
X78634177Y-30710000D01*
X89008170Y-30710000D01*
X88335467Y-31381530D01*
X87765650Y-32753803D01*
X87764353Y-34239678D01*
X88331775Y-35612944D01*
X89381530Y-36664533D01*
X90753803Y-37234350D01*
X92239678Y-37235647D01*
X93612944Y-36668225D01*
X94290000Y-35992350D01*
X94290000Y-164008170D01*
X93618470Y-163335467D01*
X92246197Y-162765650D01*
X90760322Y-162764353D01*
X89387056Y-163331775D01*
X88335467Y-164381530D01*
X87765650Y-165753803D01*
X87764353Y-167239678D01*
X88331775Y-168612944D01*
X89007650Y-169290000D01*
X55991830Y-169290000D01*
X56664533Y-168618470D01*
X57234350Y-167246197D01*
X57235549Y-165872325D01*
X60214587Y-165872325D01*
X60576916Y-166749229D01*
X61247242Y-167420726D01*
X62123513Y-167784585D01*
X63072325Y-167785413D01*
X63949229Y-167423084D01*
X64620726Y-166752758D01*
X64984585Y-165876487D01*
X64985413Y-164927675D01*
X64623084Y-164050771D01*
X63952758Y-163379274D01*
X63076487Y-163015415D01*
X62127675Y-163014587D01*
X61250771Y-163376916D01*
X60579274Y-164047242D01*
X60215415Y-164923513D01*
X60214587Y-165872325D01*
X57235549Y-165872325D01*
X57235647Y-165760322D01*
X56668225Y-164387056D01*
X55618470Y-163335467D01*
X54246197Y-162765650D01*
X52760322Y-162764353D01*
X51387056Y-163331775D01*
X50710000Y-164007650D01*
X50710000Y-162272325D01*
X78264587Y-162272325D01*
X78626916Y-163149229D01*
X79297242Y-163820726D01*
X80173513Y-164184585D01*
X81122325Y-164185413D01*
X81999229Y-163823084D01*
X82670726Y-163152758D01*
X82975300Y-162419262D01*
X83276916Y-163149229D01*
X83947242Y-163820726D01*
X84823513Y-164184585D01*
X85772325Y-164185413D01*
X86649229Y-163823084D01*
X87320726Y-163152758D01*
X87684585Y-162276487D01*
X87685413Y-161327675D01*
X87323084Y-160450771D01*
X86652758Y-159779274D01*
X85776487Y-159415415D01*
X84827675Y-159414587D01*
X83950771Y-159776916D01*
X83279274Y-160447242D01*
X82974700Y-161180738D01*
X82673084Y-160450771D01*
X82002758Y-159779274D01*
X81126487Y-159415415D01*
X80177675Y-159414587D01*
X79300771Y-159776916D01*
X78629274Y-160447242D01*
X78265415Y-161323513D01*
X78264587Y-162272325D01*
X50710000Y-162272325D01*
X50710000Y-141915363D01*
X54564855Y-141915363D01*
X54691708Y-142222372D01*
X54926393Y-142457466D01*
X55233179Y-142584855D01*
X55565363Y-142585145D01*
X55872372Y-142458292D01*
X56107466Y-142223607D01*
X56234855Y-141916821D01*
X56235145Y-141584637D01*
X56108292Y-141277628D01*
X55873607Y-141042534D01*
X55567347Y-140915363D01*
X64564855Y-140915363D01*
X64691708Y-141222372D01*
X64926393Y-141457466D01*
X65233179Y-141584855D01*
X65565363Y-141585145D01*
X65872372Y-141458292D01*
X66107466Y-141223607D01*
X66234855Y-140916821D01*
X66235145Y-140584637D01*
X66108292Y-140277628D01*
X65873607Y-140042534D01*
X65566821Y-139915145D01*
X65234637Y-139914855D01*
X64927628Y-140041708D01*
X64692534Y-140276393D01*
X64565145Y-140583179D01*
X64564855Y-140915363D01*
X55567347Y-140915363D01*
X55566821Y-140915145D01*
X55234637Y-140914855D01*
X54927628Y-141041708D01*
X54692534Y-141276393D01*
X54565145Y-141583179D01*
X54564855Y-141915363D01*
X50710000Y-141915363D01*
X50710000Y-138365363D01*
X52014855Y-138365363D01*
X52141708Y-138672372D01*
X52376393Y-138907466D01*
X52683179Y-139034855D01*
X53015363Y-139035145D01*
X53322372Y-138908292D01*
X53415462Y-138815363D01*
X85564855Y-138815363D01*
X85691708Y-139122372D01*
X85926393Y-139357466D01*
X86233179Y-139484855D01*
X86565363Y-139485145D01*
X86872372Y-139358292D01*
X87107466Y-139123607D01*
X87234855Y-138816821D01*
X87235145Y-138484637D01*
X87108292Y-138177628D01*
X86873607Y-137942534D01*
X86566821Y-137815145D01*
X86234637Y-137814855D01*
X85927628Y-137941708D01*
X85692534Y-138176393D01*
X85565145Y-138483179D01*
X85564855Y-138815363D01*
X53415462Y-138815363D01*
X53557466Y-138673607D01*
X53684855Y-138366821D01*
X53685145Y-138034637D01*
X53558292Y-137727628D01*
X53323607Y-137492534D01*
X53137760Y-137415363D01*
X82364855Y-137415363D01*
X82491708Y-137722372D01*
X82726393Y-137957466D01*
X83033179Y-138084855D01*
X83365363Y-138085145D01*
X83672372Y-137958292D01*
X83907466Y-137723607D01*
X84034855Y-137416821D01*
X84035145Y-137084637D01*
X83908292Y-136777628D01*
X83673607Y-136542534D01*
X83366821Y-136415145D01*
X83034637Y-136414855D01*
X82727628Y-136541708D01*
X82492534Y-136776393D01*
X82365145Y-137083179D01*
X82364855Y-137415363D01*
X53137760Y-137415363D01*
X53016821Y-137365145D01*
X52684637Y-137364855D01*
X52377628Y-137491708D01*
X52142534Y-137726393D01*
X52015145Y-138033179D01*
X52014855Y-138365363D01*
X50710000Y-138365363D01*
X50710000Y-135265363D01*
X52114855Y-135265363D01*
X52241708Y-135572372D01*
X52476393Y-135807466D01*
X52783179Y-135934855D01*
X53115363Y-135935145D01*
X53422372Y-135808292D01*
X53657466Y-135573607D01*
X53784855Y-135266821D01*
X53785145Y-134934637D01*
X53658292Y-134627628D01*
X53423607Y-134392534D01*
X53116821Y-134265145D01*
X52784637Y-134264855D01*
X52477628Y-134391708D01*
X52242534Y-134626393D01*
X52115145Y-134933179D01*
X52114855Y-135265363D01*
X50710000Y-135265363D01*
X50710000Y-107715363D01*
X54764855Y-107715363D01*
X54891708Y-108022372D01*
X55126393Y-108257466D01*
X55433179Y-108384855D01*
X55765363Y-108385145D01*
X56072372Y-108258292D01*
X56307466Y-108023607D01*
X56434855Y-107716821D01*
X56434855Y-107716363D01*
X75285855Y-107716363D01*
X75412708Y-108023372D01*
X75647393Y-108258466D01*
X75954179Y-108385855D01*
X76286363Y-108386145D01*
X76593372Y-108259292D01*
X76828466Y-108024607D01*
X76955855Y-107717821D01*
X76956145Y-107385637D01*
X76829292Y-107078628D01*
X76594607Y-106843534D01*
X76287821Y-106716145D01*
X75955637Y-106715855D01*
X75648628Y-106842708D01*
X75413534Y-107077393D01*
X75286145Y-107384179D01*
X75285855Y-107716363D01*
X56434855Y-107716363D01*
X56435145Y-107384637D01*
X56308292Y-107077628D01*
X56073607Y-106842534D01*
X55766821Y-106715145D01*
X55434637Y-106714855D01*
X55127628Y-106841708D01*
X54892534Y-107076393D01*
X54765145Y-107383179D01*
X54764855Y-107715363D01*
X50710000Y-107715363D01*
X50710000Y-104315363D01*
X56464855Y-104315363D01*
X56591708Y-104622372D01*
X56826393Y-104857466D01*
X57133179Y-104984855D01*
X57465363Y-104985145D01*
X57772372Y-104858292D01*
X58007466Y-104623607D01*
X58114698Y-104365363D01*
X77014855Y-104365363D01*
X77141708Y-104672372D01*
X77376393Y-104907466D01*
X77683179Y-105034855D01*
X78015363Y-105035145D01*
X78322372Y-104908292D01*
X78557466Y-104673607D01*
X78684855Y-104366821D01*
X78685145Y-104034637D01*
X78558292Y-103727628D01*
X78323607Y-103492534D01*
X78016821Y-103365145D01*
X77684637Y-103364855D01*
X77377628Y-103491708D01*
X77142534Y-103726393D01*
X77015145Y-104033179D01*
X77014855Y-104365363D01*
X58114698Y-104365363D01*
X58134855Y-104316821D01*
X58135145Y-103984637D01*
X58008292Y-103677628D01*
X57773607Y-103442534D01*
X57466821Y-103315145D01*
X57134637Y-103314855D01*
X56827628Y-103441708D01*
X56592534Y-103676393D01*
X56465145Y-103983179D01*
X56464855Y-104315363D01*
X50710000Y-104315363D01*
X50710000Y-87504971D01*
X58864821Y-87504971D01*
X59022058Y-87885515D01*
X59236288Y-88100119D01*
X59023081Y-88312954D01*
X58865180Y-88693223D01*
X58864821Y-89104971D01*
X59022058Y-89485515D01*
X59312954Y-89776919D01*
X59693223Y-89934820D01*
X60104971Y-89935179D01*
X60485515Y-89777942D01*
X60776919Y-89487046D01*
X60934820Y-89106777D01*
X60935179Y-88695029D01*
X60777942Y-88314485D01*
X60563712Y-88099881D01*
X60700468Y-87963363D01*
X64188855Y-87963363D01*
X64315708Y-88270372D01*
X64550393Y-88505466D01*
X64857179Y-88632855D01*
X65189363Y-88633145D01*
X65496372Y-88506292D01*
X65731466Y-88271607D01*
X65858855Y-87964821D01*
X65858856Y-87963363D01*
X84254855Y-87963363D01*
X84381708Y-88270372D01*
X84616393Y-88505466D01*
X84923179Y-88632855D01*
X85255363Y-88633145D01*
X85562372Y-88506292D01*
X85797466Y-88271607D01*
X85924855Y-87964821D01*
X85925145Y-87632637D01*
X85798292Y-87325628D01*
X85563607Y-87090534D01*
X85256821Y-86963145D01*
X84924637Y-86962855D01*
X84617628Y-87089708D01*
X84382534Y-87324393D01*
X84255145Y-87631179D01*
X84254855Y-87963363D01*
X65858856Y-87963363D01*
X65859145Y-87632637D01*
X65732292Y-87325628D01*
X65497607Y-87090534D01*
X65190821Y-86963145D01*
X64858637Y-86962855D01*
X64551628Y-87089708D01*
X64316534Y-87324393D01*
X64189145Y-87631179D01*
X64188855Y-87963363D01*
X60700468Y-87963363D01*
X60776919Y-87887046D01*
X60934820Y-87506777D01*
X60935179Y-87095029D01*
X60777942Y-86714485D01*
X60487046Y-86423081D01*
X60106777Y-86265180D01*
X59695029Y-86264821D01*
X59314485Y-86422058D01*
X59023081Y-86712954D01*
X58865180Y-87093223D01*
X58864821Y-87504971D01*
X50710000Y-87504971D01*
X50710000Y-84404971D01*
X67064821Y-84404971D01*
X67222058Y-84785515D01*
X67512954Y-85076919D01*
X67893223Y-85234820D01*
X68304971Y-85235179D01*
X68685515Y-85077942D01*
X68976919Y-84787046D01*
X69134820Y-84406777D01*
X69135179Y-83995029D01*
X68977942Y-83614485D01*
X68687046Y-83323081D01*
X68306777Y-83165180D01*
X67895029Y-83164821D01*
X67514485Y-83322058D01*
X67223081Y-83612954D01*
X67065180Y-83993223D01*
X67064821Y-84404971D01*
X50710000Y-84404971D01*
X50710000Y-82415305D01*
X63138674Y-82415305D01*
X63425043Y-83108372D01*
X63954839Y-83639093D01*
X64647405Y-83926672D01*
X65397305Y-83927326D01*
X66090372Y-83640957D01*
X66621093Y-83111161D01*
X66908672Y-82418595D01*
X66908858Y-82204971D01*
X67064821Y-82204971D01*
X67222058Y-82585515D01*
X67512954Y-82876919D01*
X67893223Y-83034820D01*
X68304971Y-83035179D01*
X68685515Y-82877942D01*
X68976919Y-82587046D01*
X69134820Y-82206777D01*
X69135179Y-81795029D01*
X68977942Y-81414485D01*
X68962789Y-81399305D01*
X83204674Y-81399305D01*
X83491043Y-82092372D01*
X84020839Y-82623093D01*
X84713405Y-82910672D01*
X85463305Y-82911326D01*
X86156372Y-82624957D01*
X86687093Y-82095161D01*
X86974672Y-81402595D01*
X86975326Y-80652695D01*
X86688957Y-79959628D01*
X86159161Y-79428907D01*
X85466595Y-79141328D01*
X84716695Y-79140674D01*
X84023628Y-79427043D01*
X83492907Y-79956839D01*
X83205328Y-80649405D01*
X83204674Y-81399305D01*
X68962789Y-81399305D01*
X68687046Y-81123081D01*
X68306777Y-80965180D01*
X67895029Y-80964821D01*
X67514485Y-81122058D01*
X67223081Y-81412954D01*
X67065180Y-81793223D01*
X67064821Y-82204971D01*
X66908858Y-82204971D01*
X66909326Y-81668695D01*
X66622957Y-80975628D01*
X66093161Y-80444907D01*
X65400595Y-80157328D01*
X64650695Y-80156674D01*
X63957628Y-80443043D01*
X63426907Y-80972839D01*
X63139328Y-81665405D01*
X63138674Y-82415305D01*
X50710000Y-82415305D01*
X50710000Y-76365363D01*
X52314355Y-76365363D01*
X52441208Y-76672372D01*
X52675893Y-76907466D01*
X52982679Y-77034855D01*
X53314863Y-77035145D01*
X53621872Y-76908292D01*
X53815137Y-76715363D01*
X57814855Y-76715363D01*
X57941708Y-77022372D01*
X58176393Y-77257466D01*
X58483179Y-77384855D01*
X58815363Y-77385145D01*
X59122372Y-77258292D01*
X59357466Y-77023607D01*
X59484855Y-76716821D01*
X59485145Y-76384637D01*
X59358292Y-76077628D01*
X59123607Y-75842534D01*
X58816821Y-75715145D01*
X58484637Y-75714855D01*
X58177628Y-75841708D01*
X57942534Y-76076393D01*
X57815145Y-76383179D01*
X57814855Y-76715363D01*
X53815137Y-76715363D01*
X53856966Y-76673607D01*
X53984355Y-76366821D01*
X53984645Y-76034637D01*
X53857792Y-75727628D01*
X53623107Y-75492534D01*
X53316321Y-75365145D01*
X52984137Y-75364855D01*
X52677128Y-75491708D01*
X52442034Y-75726393D01*
X52314645Y-76033179D01*
X52314355Y-76365363D01*
X50710000Y-76365363D01*
X50710000Y-72965363D01*
X54614855Y-72965363D01*
X54741708Y-73272372D01*
X54976393Y-73507466D01*
X55283179Y-73634855D01*
X55615363Y-73635145D01*
X55922372Y-73508292D01*
X56157466Y-73273607D01*
X56284855Y-72966821D01*
X56285145Y-72634637D01*
X56158292Y-72327628D01*
X55923607Y-72092534D01*
X55616821Y-71965145D01*
X55284637Y-71964855D01*
X54977628Y-72091708D01*
X54742534Y-72326393D01*
X54615145Y-72633179D01*
X54614855Y-72965363D01*
X50710000Y-72965363D01*
X50710000Y-71574775D01*
X59114803Y-71574775D01*
X59287233Y-71992086D01*
X59606235Y-72311645D01*
X60023244Y-72484803D01*
X60474775Y-72485197D01*
X60892086Y-72312767D01*
X61211645Y-71993765D01*
X61384803Y-71576756D01*
X61385197Y-71125225D01*
X61212767Y-70707914D01*
X60893765Y-70388355D01*
X60476756Y-70215197D01*
X60025225Y-70214803D01*
X59607914Y-70387233D01*
X59288355Y-70706235D01*
X59115197Y-71123244D01*
X59114803Y-71574775D01*
X50710000Y-71574775D01*
X50710000Y-65115363D01*
X54114855Y-65115363D01*
X54241708Y-65422372D01*
X54476393Y-65657466D01*
X54783179Y-65784855D01*
X55115363Y-65785145D01*
X55422372Y-65658292D01*
X55657466Y-65423607D01*
X55784855Y-65116821D01*
X55785145Y-64784637D01*
X55658292Y-64477628D01*
X55423607Y-64242534D01*
X55116821Y-64115145D01*
X54784637Y-64114855D01*
X54477628Y-64241708D01*
X54242534Y-64476393D01*
X54115145Y-64783179D01*
X54114855Y-65115363D01*
X50710000Y-65115363D01*
X50710000Y-64174775D01*
X51564803Y-64174775D01*
X51737233Y-64592086D01*
X52056235Y-64911645D01*
X52473244Y-65084803D01*
X52924775Y-65085197D01*
X53342086Y-64912767D01*
X53661645Y-64593765D01*
X53834803Y-64176756D01*
X53835197Y-63725225D01*
X53662767Y-63307914D01*
X53343765Y-62988355D01*
X52926756Y-62815197D01*
X52475225Y-62814803D01*
X52057914Y-62987233D01*
X51738355Y-63306235D01*
X51565197Y-63723244D01*
X51564803Y-64174775D01*
X50710000Y-64174775D01*
X50710000Y-62765363D01*
X69964855Y-62765363D01*
X70091708Y-63072372D01*
X70326393Y-63307466D01*
X70633179Y-63434855D01*
X70965363Y-63435145D01*
X71272372Y-63308292D01*
X71507466Y-63073607D01*
X71634855Y-62766821D01*
X71634856Y-62765363D01*
X74864855Y-62765363D01*
X74991708Y-63072372D01*
X75226393Y-63307466D01*
X75533179Y-63434855D01*
X75865363Y-63435145D01*
X76172372Y-63308292D01*
X76407466Y-63073607D01*
X76534855Y-62766821D01*
X76535145Y-62434637D01*
X76408292Y-62127628D01*
X76173607Y-61892534D01*
X75866821Y-61765145D01*
X75534637Y-61764855D01*
X75227628Y-61891708D01*
X74992534Y-62126393D01*
X74865145Y-62433179D01*
X74864855Y-62765363D01*
X71634856Y-62765363D01*
X71635145Y-62434637D01*
X71508292Y-62127628D01*
X71273607Y-61892534D01*
X70966821Y-61765145D01*
X70634637Y-61764855D01*
X70327628Y-61891708D01*
X70092534Y-62126393D01*
X69965145Y-62433179D01*
X69964855Y-62765363D01*
X50710000Y-62765363D01*
X50710000Y-61230364D01*
X78136625Y-61230364D01*
X78263478Y-61537373D01*
X78498163Y-61772467D01*
X78804949Y-61899856D01*
X79137133Y-61900146D01*
X79444142Y-61773293D01*
X79679236Y-61538608D01*
X79806625Y-61231822D01*
X79806915Y-60899638D01*
X79680062Y-60592629D01*
X79445377Y-60357535D01*
X79138591Y-60230146D01*
X78806407Y-60229856D01*
X78499398Y-60356709D01*
X78264304Y-60591394D01*
X78136915Y-60898180D01*
X78136625Y-61230364D01*
X50710000Y-61230364D01*
X50710000Y-60165363D01*
X50964855Y-60165363D01*
X51091708Y-60472372D01*
X51326393Y-60707466D01*
X51633179Y-60834855D01*
X51965363Y-60835145D01*
X52272372Y-60708292D01*
X52507466Y-60473607D01*
X52610790Y-60224775D01*
X54264803Y-60224775D01*
X54437233Y-60642086D01*
X54756235Y-60961645D01*
X55173244Y-61134803D01*
X55624775Y-61135197D01*
X56042086Y-60962767D01*
X56361645Y-60643765D01*
X56534803Y-60226756D01*
X56535161Y-59815363D01*
X81814855Y-59815363D01*
X81941708Y-60122372D01*
X82176393Y-60357466D01*
X82483179Y-60484855D01*
X82815363Y-60485145D01*
X83122372Y-60358292D01*
X83295995Y-60184971D01*
X90414821Y-60184971D01*
X90572058Y-60565515D01*
X90862954Y-60856919D01*
X91243223Y-61014820D01*
X91654971Y-61015179D01*
X92035515Y-60857942D01*
X92326919Y-60567046D01*
X92484820Y-60186777D01*
X92485179Y-59775029D01*
X92327942Y-59394485D01*
X92037046Y-59103081D01*
X91656777Y-58945180D01*
X91245029Y-58944821D01*
X90864485Y-59102058D01*
X90573081Y-59392954D01*
X90415180Y-59773223D01*
X90414821Y-60184971D01*
X83295995Y-60184971D01*
X83357466Y-60123607D01*
X83484855Y-59816821D01*
X83485145Y-59484637D01*
X83358292Y-59177628D01*
X83123607Y-58942534D01*
X82816821Y-58815145D01*
X82484637Y-58814855D01*
X82177628Y-58941708D01*
X81942534Y-59176393D01*
X81815145Y-59483179D01*
X81814855Y-59815363D01*
X56535161Y-59815363D01*
X56535197Y-59775225D01*
X56362767Y-59357914D01*
X56043765Y-59038355D01*
X55626756Y-58865197D01*
X55175225Y-58864803D01*
X54757914Y-59037233D01*
X54438355Y-59356235D01*
X54265197Y-59773244D01*
X54264803Y-60224775D01*
X52610790Y-60224775D01*
X52634855Y-60166821D01*
X52635145Y-59834637D01*
X52508292Y-59527628D01*
X52273607Y-59292534D01*
X51966821Y-59165145D01*
X51634637Y-59164855D01*
X51327628Y-59291708D01*
X51092534Y-59526393D01*
X50965145Y-59833179D01*
X50964855Y-60165363D01*
X50710000Y-60165363D01*
X50710000Y-57865363D01*
X50964855Y-57865363D01*
X51091708Y-58172372D01*
X51326393Y-58407466D01*
X51633179Y-58534855D01*
X51965363Y-58535145D01*
X52272372Y-58408292D01*
X52507466Y-58173607D01*
X52610790Y-57924775D01*
X54364803Y-57924775D01*
X54537233Y-58342086D01*
X54856235Y-58661645D01*
X55273244Y-58834803D01*
X55724775Y-58835197D01*
X56142086Y-58662767D01*
X56461645Y-58343765D01*
X56634803Y-57926756D01*
X56635197Y-57475225D01*
X56462767Y-57057914D01*
X56143765Y-56738355D01*
X55726756Y-56565197D01*
X55275225Y-56564803D01*
X54857914Y-56737233D01*
X54538355Y-57056235D01*
X54365197Y-57473244D01*
X54364803Y-57924775D01*
X52610790Y-57924775D01*
X52634855Y-57866821D01*
X52635145Y-57534637D01*
X52508292Y-57227628D01*
X52273607Y-56992534D01*
X51966821Y-56865145D01*
X51634637Y-56864855D01*
X51327628Y-56991708D01*
X51092534Y-57226393D01*
X50965145Y-57533179D01*
X50964855Y-57865363D01*
X50710000Y-57865363D01*
X50710000Y-55365363D01*
X50964855Y-55365363D01*
X51091708Y-55672372D01*
X51326393Y-55907466D01*
X51633179Y-56034855D01*
X51965363Y-56035145D01*
X52013239Y-56015363D01*
X58969845Y-56015363D01*
X59062919Y-56240620D01*
X58970135Y-56464067D01*
X58969845Y-56796251D01*
X59096698Y-57103260D01*
X59166774Y-57173458D01*
X59097524Y-57242588D01*
X58970135Y-57549374D01*
X58969845Y-57881558D01*
X59096698Y-58188567D01*
X59297122Y-58389340D01*
X59296933Y-58606070D01*
X59423786Y-58913079D01*
X59658471Y-59148173D01*
X59965257Y-59275562D01*
X60297441Y-59275852D01*
X60604450Y-59148999D01*
X60788406Y-58965363D01*
X79514855Y-58965363D01*
X79641708Y-59272372D01*
X79876393Y-59507466D01*
X80183179Y-59634855D01*
X80515363Y-59635145D01*
X80822372Y-59508292D01*
X81057466Y-59273607D01*
X81184855Y-58966821D01*
X81185145Y-58634637D01*
X81058292Y-58327628D01*
X80823607Y-58092534D01*
X80516821Y-57965145D01*
X80184637Y-57964855D01*
X79877628Y-58091708D01*
X79642534Y-58326393D01*
X79515145Y-58633179D01*
X79514855Y-58965363D01*
X60788406Y-58965363D01*
X60839544Y-58914314D01*
X60966933Y-58607528D01*
X60967223Y-58275344D01*
X60921780Y-58165363D01*
X62314855Y-58165363D01*
X62441708Y-58472372D01*
X62676393Y-58707466D01*
X62983179Y-58834855D01*
X63315363Y-58835145D01*
X63622372Y-58708292D01*
X63857466Y-58473607D01*
X63984855Y-58166821D01*
X63985145Y-57834637D01*
X63898433Y-57624775D01*
X81014803Y-57624775D01*
X81187233Y-58042086D01*
X81506235Y-58361645D01*
X81923244Y-58534803D01*
X82374775Y-58535197D01*
X82792086Y-58362767D01*
X83111645Y-58043765D01*
X83277239Y-57644971D01*
X90414821Y-57644971D01*
X90572058Y-58025515D01*
X90862954Y-58316919D01*
X91243223Y-58474820D01*
X91654971Y-58475179D01*
X92035515Y-58317942D01*
X92326919Y-58027046D01*
X92484820Y-57646777D01*
X92485179Y-57235029D01*
X92327942Y-56854485D01*
X92037046Y-56563081D01*
X91656777Y-56405180D01*
X91245029Y-56404821D01*
X90864485Y-56562058D01*
X90573081Y-56852954D01*
X90415180Y-57233223D01*
X90414821Y-57644971D01*
X83277239Y-57644971D01*
X83284803Y-57626756D01*
X83285197Y-57175225D01*
X83112767Y-56757914D01*
X82793765Y-56438355D01*
X82376756Y-56265197D01*
X81925225Y-56264803D01*
X81507914Y-56437233D01*
X81188355Y-56756235D01*
X81015197Y-57173244D01*
X81014803Y-57624775D01*
X63898433Y-57624775D01*
X63858292Y-57527628D01*
X63623607Y-57292534D01*
X63316821Y-57165145D01*
X62984637Y-57164855D01*
X62677628Y-57291708D01*
X62442534Y-57526393D01*
X62315145Y-57833179D01*
X62314855Y-58165363D01*
X60921780Y-58165363D01*
X60840370Y-57968335D01*
X60639946Y-57767562D01*
X60640135Y-57550832D01*
X60513282Y-57243823D01*
X60443206Y-57173625D01*
X60512456Y-57104495D01*
X60639845Y-56797709D01*
X60640091Y-56515363D01*
X64264855Y-56515363D01*
X64391708Y-56822372D01*
X64626393Y-57057466D01*
X64933179Y-57184855D01*
X65265363Y-57185145D01*
X65572372Y-57058292D01*
X65807466Y-56823607D01*
X65934855Y-56516821D01*
X65935145Y-56184637D01*
X65808292Y-55877628D01*
X65796500Y-55865815D01*
X66083179Y-55984855D01*
X66415363Y-55985145D01*
X66572097Y-55920384D01*
X69364855Y-55920384D01*
X69491708Y-56227393D01*
X69726393Y-56462487D01*
X70033179Y-56589876D01*
X70365363Y-56590166D01*
X70672372Y-56463313D01*
X70907466Y-56228628D01*
X71034855Y-55921842D01*
X71035145Y-55589658D01*
X70908292Y-55282649D01*
X70673607Y-55047555D01*
X70417371Y-54941156D01*
X70882560Y-54941156D01*
X71009413Y-55248165D01*
X71244098Y-55483259D01*
X71550884Y-55610648D01*
X71883068Y-55610938D01*
X72190077Y-55484085D01*
X72425171Y-55249400D01*
X72476919Y-55124775D01*
X80414803Y-55124775D01*
X80587233Y-55542086D01*
X80906235Y-55861645D01*
X81323244Y-56034803D01*
X81774775Y-56035197D01*
X82192086Y-55862767D01*
X82511645Y-55543765D01*
X82684803Y-55126756D01*
X82684822Y-55104971D01*
X90414821Y-55104971D01*
X90572058Y-55485515D01*
X90862954Y-55776919D01*
X91243223Y-55934820D01*
X91654971Y-55935179D01*
X92035515Y-55777942D01*
X92326919Y-55487046D01*
X92484820Y-55106777D01*
X92485179Y-54695029D01*
X92327942Y-54314485D01*
X92037046Y-54023081D01*
X91656777Y-53865180D01*
X91245029Y-53864821D01*
X90864485Y-54022058D01*
X90573081Y-54312954D01*
X90415180Y-54693223D01*
X90414821Y-55104971D01*
X82684822Y-55104971D01*
X82685197Y-54675225D01*
X82512767Y-54257914D01*
X82193765Y-53938355D01*
X81776756Y-53765197D01*
X81325225Y-53764803D01*
X80907914Y-53937233D01*
X80588355Y-54256235D01*
X80415197Y-54673244D01*
X80414803Y-55124775D01*
X72476919Y-55124775D01*
X72552560Y-54942614D01*
X72552829Y-54635047D01*
X72665363Y-54635145D01*
X72972372Y-54508292D01*
X73207466Y-54273607D01*
X73334855Y-53966821D01*
X73335092Y-53695594D01*
X73557466Y-53473607D01*
X73684855Y-53166821D01*
X73685145Y-52834637D01*
X73577773Y-52574775D01*
X80414803Y-52574775D01*
X80587233Y-52992086D01*
X80906235Y-53311645D01*
X81323244Y-53484803D01*
X81774775Y-53485197D01*
X82192086Y-53312767D01*
X82511645Y-52993765D01*
X82684803Y-52576756D01*
X82685197Y-52125225D01*
X82512767Y-51707914D01*
X82193765Y-51388355D01*
X81776756Y-51215197D01*
X81325225Y-51214803D01*
X80907914Y-51387233D01*
X80588355Y-51706235D01*
X80415197Y-52123244D01*
X80414803Y-52574775D01*
X73577773Y-52574775D01*
X73558292Y-52527628D01*
X73380956Y-52349983D01*
X73457466Y-52273607D01*
X73584855Y-51966821D01*
X73585145Y-51634637D01*
X73486036Y-51394774D01*
X73636781Y-51244292D01*
X73764170Y-50937506D01*
X73764460Y-50605322D01*
X73637607Y-50298313D01*
X73402922Y-50063219D01*
X73310339Y-50024775D01*
X80414803Y-50024775D01*
X80587233Y-50442086D01*
X80906235Y-50761645D01*
X81323244Y-50934803D01*
X81774775Y-50935197D01*
X82192086Y-50762767D01*
X82511645Y-50443765D01*
X82684803Y-50026756D01*
X82685197Y-49575225D01*
X82512767Y-49157914D01*
X82193765Y-48838355D01*
X81776756Y-48665197D01*
X81325225Y-48664803D01*
X80907914Y-48837233D01*
X80588355Y-49156235D01*
X80415197Y-49573244D01*
X80414803Y-50024775D01*
X73310339Y-50024775D01*
X73096136Y-49935830D01*
X72763952Y-49935540D01*
X72456943Y-50062393D01*
X72221849Y-50297078D01*
X72094460Y-50603864D01*
X72094170Y-50936048D01*
X72193279Y-51175911D01*
X72042534Y-51326393D01*
X71915145Y-51633179D01*
X71914855Y-51965363D01*
X72041708Y-52272372D01*
X72219044Y-52450017D01*
X72142534Y-52526393D01*
X72015145Y-52833179D01*
X72014908Y-53104406D01*
X71792534Y-53326393D01*
X71665145Y-53633179D01*
X71664876Y-53940746D01*
X71552342Y-53940648D01*
X71245333Y-54067501D01*
X71010239Y-54302186D01*
X70882850Y-54608972D01*
X70882560Y-54941156D01*
X70417371Y-54941156D01*
X70366821Y-54920166D01*
X70034637Y-54919876D01*
X69727628Y-55046729D01*
X69492534Y-55281414D01*
X69365145Y-55588200D01*
X69364855Y-55920384D01*
X66572097Y-55920384D01*
X66722372Y-55858292D01*
X66957466Y-55623607D01*
X67084855Y-55316821D01*
X67085145Y-54984637D01*
X66958292Y-54677628D01*
X66723607Y-54442534D01*
X66602279Y-54392154D01*
X66577987Y-54333362D01*
X66584855Y-54316821D01*
X66585145Y-53984637D01*
X66458292Y-53677628D01*
X66223607Y-53442534D01*
X65916821Y-53315145D01*
X65584637Y-53314855D01*
X65277628Y-53441708D01*
X65042534Y-53676393D01*
X64915145Y-53983179D01*
X64914855Y-54315363D01*
X64988054Y-54492520D01*
X64981186Y-54509061D01*
X64980896Y-54841245D01*
X65107749Y-55148254D01*
X65342434Y-55383348D01*
X65463762Y-55433728D01*
X65541708Y-55622372D01*
X65553500Y-55634185D01*
X65266821Y-55515145D01*
X64934637Y-55514855D01*
X64627628Y-55641708D01*
X64392534Y-55876393D01*
X64265145Y-56183179D01*
X64264855Y-56515363D01*
X60640091Y-56515363D01*
X60640135Y-56465525D01*
X60547061Y-56240268D01*
X60639845Y-56016821D01*
X60640135Y-55684637D01*
X60513282Y-55377628D01*
X60278597Y-55142534D01*
X59971811Y-55015145D01*
X59639627Y-55014855D01*
X59332618Y-55141708D01*
X59097524Y-55376393D01*
X58970135Y-55683179D01*
X58969845Y-56015363D01*
X52013239Y-56015363D01*
X52272372Y-55908292D01*
X52507466Y-55673607D01*
X52634855Y-55366821D01*
X52635145Y-55034637D01*
X52508292Y-54727628D01*
X52273607Y-54492534D01*
X51966821Y-54365145D01*
X51634637Y-54364855D01*
X51327628Y-54491708D01*
X51092534Y-54726393D01*
X50965145Y-55033179D01*
X50964855Y-55365363D01*
X50710000Y-55365363D01*
X50710000Y-53440957D01*
X50776393Y-53507466D01*
X51083179Y-53634855D01*
X51415363Y-53635145D01*
X51722372Y-53508292D01*
X51957466Y-53273607D01*
X52084855Y-52966821D01*
X52085145Y-52634637D01*
X51958292Y-52327628D01*
X51723607Y-52092534D01*
X51416821Y-51965145D01*
X51084637Y-51964855D01*
X50777628Y-52091708D01*
X50710000Y-52159218D01*
X50710000Y-49624775D01*
X59064803Y-49624775D01*
X59237233Y-50042086D01*
X59556235Y-50361645D01*
X59973244Y-50534803D01*
X60424775Y-50535197D01*
X60842086Y-50362767D01*
X61161645Y-50043765D01*
X61334803Y-49626756D01*
X61335197Y-49175225D01*
X61162767Y-48757914D01*
X60843765Y-48438355D01*
X60426756Y-48265197D01*
X59975225Y-48264803D01*
X59557914Y-48437233D01*
X59238355Y-48756235D01*
X59065197Y-49173244D01*
X59064803Y-49624775D01*
X50710000Y-49624775D01*
X50710000Y-48915363D01*
X50714855Y-48915363D01*
X50841708Y-49222372D01*
X51076393Y-49457466D01*
X51383179Y-49584855D01*
X51715363Y-49585145D01*
X52022372Y-49458292D01*
X52257466Y-49223607D01*
X52384855Y-48916821D01*
X52385145Y-48584637D01*
X52258292Y-48277628D01*
X52023607Y-48042534D01*
X51716821Y-47915145D01*
X51384637Y-47914855D01*
X51077628Y-48041708D01*
X50842534Y-48276393D01*
X50715145Y-48583179D01*
X50714855Y-48915363D01*
X50710000Y-48915363D01*
X50710000Y-47565363D01*
X65414855Y-47565363D01*
X65541708Y-47872372D01*
X65776393Y-48107466D01*
X66083179Y-48234855D01*
X66415363Y-48235145D01*
X66630862Y-48146103D01*
X67425485Y-48146103D01*
X67552338Y-48453112D01*
X67777888Y-48679055D01*
X67770747Y-48696251D01*
X67770457Y-49028435D01*
X67897310Y-49335444D01*
X68131995Y-49570538D01*
X68438781Y-49697927D01*
X68770965Y-49698217D01*
X69077974Y-49571364D01*
X69313068Y-49336679D01*
X69440457Y-49029893D01*
X69440747Y-48697709D01*
X69313894Y-48390700D01*
X69177052Y-48253620D01*
X69215375Y-48215363D01*
X70314855Y-48215363D01*
X70441708Y-48522372D01*
X70676393Y-48757466D01*
X70899948Y-48850294D01*
X70991708Y-49072372D01*
X71226393Y-49307466D01*
X71533179Y-49434855D01*
X71865363Y-49435145D01*
X72172372Y-49308292D01*
X72407466Y-49073607D01*
X72534855Y-48766821D01*
X72535145Y-48434637D01*
X72408292Y-48127628D01*
X72173607Y-47892534D01*
X71950052Y-47799706D01*
X71858292Y-47577628D01*
X71805531Y-47524775D01*
X80414803Y-47524775D01*
X80587233Y-47942086D01*
X80906235Y-48261645D01*
X81323244Y-48434803D01*
X81774775Y-48435197D01*
X82192086Y-48262767D01*
X82511645Y-47943765D01*
X82684803Y-47526756D01*
X82685197Y-47075225D01*
X82512767Y-46657914D01*
X82193765Y-46338355D01*
X81776756Y-46165197D01*
X81325225Y-46164803D01*
X80907914Y-46337233D01*
X80588355Y-46656235D01*
X80415197Y-47073244D01*
X80414803Y-47524775D01*
X71805531Y-47524775D01*
X71623607Y-47342534D01*
X71316821Y-47215145D01*
X70984637Y-47214855D01*
X70677628Y-47341708D01*
X70442534Y-47576393D01*
X70315145Y-47883179D01*
X70314855Y-48215363D01*
X69215375Y-48215363D01*
X69407466Y-48023607D01*
X69534855Y-47716821D01*
X69535145Y-47384637D01*
X69408292Y-47077628D01*
X69173607Y-46842534D01*
X68866821Y-46715145D01*
X68534637Y-46714855D01*
X68227628Y-46841708D01*
X67992534Y-47076393D01*
X67936571Y-47211167D01*
X67788258Y-47272448D01*
X67553164Y-47507133D01*
X67425775Y-47813919D01*
X67425485Y-48146103D01*
X66630862Y-48146103D01*
X66722372Y-48108292D01*
X66957466Y-47873607D01*
X67084855Y-47566821D01*
X67085145Y-47234637D01*
X66958292Y-46927628D01*
X66723607Y-46692534D01*
X66416821Y-46565145D01*
X66084637Y-46564855D01*
X65777628Y-46691708D01*
X65542534Y-46926393D01*
X65415145Y-47233179D01*
X65414855Y-47565363D01*
X50710000Y-47565363D01*
X50710000Y-44965363D01*
X59214855Y-44965363D01*
X59341708Y-45272372D01*
X59576393Y-45507466D01*
X59883179Y-45634855D01*
X60215363Y-45635145D01*
X60522372Y-45508292D01*
X60757466Y-45273607D01*
X60881552Y-44974775D01*
X80464803Y-44974775D01*
X80637233Y-45392086D01*
X80956235Y-45711645D01*
X81373244Y-45884803D01*
X81824775Y-45885197D01*
X82242086Y-45712767D01*
X82561645Y-45393765D01*
X82734803Y-44976756D01*
X82735197Y-44525225D01*
X82562767Y-44107914D01*
X82243765Y-43788355D01*
X81826756Y-43615197D01*
X81375225Y-43614803D01*
X80957914Y-43787233D01*
X80638355Y-44106235D01*
X80465197Y-44523244D01*
X80464803Y-44974775D01*
X60881552Y-44974775D01*
X60884855Y-44966821D01*
X60885145Y-44634637D01*
X60758292Y-44327628D01*
X60523607Y-44092534D01*
X60216821Y-43965145D01*
X59884637Y-43964855D01*
X59577628Y-44091708D01*
X59342534Y-44326393D01*
X59215145Y-44633179D01*
X59214855Y-44965363D01*
X50710000Y-44965363D01*
X50710000Y-41365363D01*
X57164855Y-41365363D01*
X57291708Y-41672372D01*
X57526393Y-41907466D01*
X57833179Y-42034855D01*
X58165363Y-42035145D01*
X58472372Y-41908292D01*
X58707466Y-41673607D01*
X58825132Y-41390236D01*
X58941708Y-41672372D01*
X59176393Y-41907466D01*
X59483179Y-42034855D01*
X59815363Y-42035145D01*
X60105258Y-41915363D01*
X62514855Y-41915363D01*
X62641708Y-42222372D01*
X62876393Y-42457466D01*
X63183179Y-42584855D01*
X63515363Y-42585145D01*
X63822372Y-42458292D01*
X64057466Y-42223607D01*
X64184855Y-41916821D01*
X64185030Y-41715363D01*
X71714855Y-41715363D01*
X71841708Y-42022372D01*
X72076393Y-42257466D01*
X72383179Y-42384855D01*
X72715363Y-42385145D01*
X73022372Y-42258292D01*
X73257466Y-42023607D01*
X73384855Y-41716821D01*
X73385145Y-41384637D01*
X73258292Y-41077628D01*
X73023607Y-40842534D01*
X72716821Y-40715145D01*
X72384637Y-40714855D01*
X72077628Y-40841708D01*
X71842534Y-41076393D01*
X71715145Y-41383179D01*
X71714855Y-41715363D01*
X64185030Y-41715363D01*
X64185145Y-41584637D01*
X64058292Y-41277628D01*
X63823607Y-41042534D01*
X63516821Y-40915145D01*
X63184637Y-40914855D01*
X62877628Y-41041708D01*
X62642534Y-41276393D01*
X62515145Y-41583179D01*
X62514855Y-41915363D01*
X60105258Y-41915363D01*
X60122372Y-41908292D01*
X60357466Y-41673607D01*
X60484855Y-41366821D01*
X60485145Y-41034637D01*
X60358292Y-40727628D01*
X60123607Y-40492534D01*
X59816821Y-40365145D01*
X59484637Y-40364855D01*
X59177628Y-40491708D01*
X58942534Y-40726393D01*
X58824868Y-41009764D01*
X58708292Y-40727628D01*
X58473607Y-40492534D01*
X58166821Y-40365145D01*
X57834637Y-40364855D01*
X57527628Y-40491708D01*
X57292534Y-40726393D01*
X57165145Y-41033179D01*
X57164855Y-41365363D01*
X50710000Y-41365363D01*
X50710000Y-40015363D01*
X66164855Y-40015363D01*
X66291708Y-40322372D01*
X66526393Y-40557466D01*
X66833179Y-40684855D01*
X67165363Y-40685145D01*
X67472372Y-40558292D01*
X67707466Y-40323607D01*
X67834855Y-40016821D01*
X67834943Y-39915363D01*
X78814855Y-39915363D01*
X78941708Y-40222372D01*
X79176393Y-40457466D01*
X79483179Y-40584855D01*
X79815363Y-40585145D01*
X80122372Y-40458292D01*
X80357466Y-40223607D01*
X80484855Y-39916821D01*
X80485145Y-39584637D01*
X80358292Y-39277628D01*
X80123607Y-39042534D01*
X79816821Y-38915145D01*
X79484637Y-38914855D01*
X79177628Y-39041708D01*
X78942534Y-39276393D01*
X78815145Y-39583179D01*
X78814855Y-39915363D01*
X67834943Y-39915363D01*
X67835145Y-39684637D01*
X67708292Y-39377628D01*
X67473607Y-39142534D01*
X67166821Y-39015145D01*
X66834637Y-39014855D01*
X66527628Y-39141708D01*
X66292534Y-39376393D01*
X66165145Y-39683179D01*
X66164855Y-40015363D01*
X50710000Y-40015363D01*
X50710000Y-38015363D01*
X58264855Y-38015363D01*
X58391708Y-38322372D01*
X58626393Y-38557466D01*
X58933179Y-38684855D01*
X59265363Y-38685145D01*
X59572372Y-38558292D01*
X59807466Y-38323607D01*
X59934855Y-38016821D01*
X59935145Y-37684637D01*
X59808292Y-37377628D01*
X59573607Y-37142534D01*
X59266821Y-37015145D01*
X58934637Y-37014855D01*
X58627628Y-37141708D01*
X58392534Y-37376393D01*
X58265145Y-37683179D01*
X58264855Y-38015363D01*
X50710000Y-38015363D01*
X50710000Y-35991830D01*
X51381530Y-36664533D01*
X52753803Y-37234350D01*
X54239678Y-37235647D01*
X54874594Y-36973305D01*
X73064674Y-36973305D01*
X73351043Y-37666372D01*
X73880839Y-38197093D01*
X74573405Y-38484672D01*
X75323305Y-38485326D01*
X76016372Y-38198957D01*
X76547093Y-37669161D01*
X76549650Y-37663002D01*
X76551043Y-37666372D01*
X77080839Y-38197093D01*
X77773405Y-38484672D01*
X78523305Y-38485326D01*
X79216372Y-38198957D01*
X79747093Y-37669161D01*
X80034672Y-36976595D01*
X80035326Y-36226695D01*
X79748957Y-35533628D01*
X79219161Y-35002907D01*
X78526595Y-34715328D01*
X77776695Y-34714674D01*
X77083628Y-35001043D01*
X76552907Y-35530839D01*
X76550350Y-35536998D01*
X76548957Y-35533628D01*
X76019161Y-35002907D01*
X75326595Y-34715328D01*
X74576695Y-34714674D01*
X73883628Y-35001043D01*
X73352907Y-35530839D01*
X73065328Y-36223405D01*
X73064674Y-36973305D01*
X54874594Y-36973305D01*
X55612944Y-36668225D01*
X56664533Y-35618470D01*
X56994714Y-34823305D01*
X59114674Y-34823305D01*
X59401043Y-35516372D01*
X59930839Y-36047093D01*
X60623405Y-36334672D01*
X61373305Y-36335326D01*
X62066372Y-36048957D01*
X62597093Y-35519161D01*
X62884672Y-34826595D01*
X62884674Y-34823305D01*
X65114674Y-34823305D01*
X65401043Y-35516372D01*
X65930839Y-36047093D01*
X66623405Y-36334672D01*
X67373305Y-36335326D01*
X68066372Y-36048957D01*
X68597093Y-35519161D01*
X68884672Y-34826595D01*
X68885326Y-34076695D01*
X68598957Y-33383628D01*
X68069161Y-32852907D01*
X67376595Y-32565328D01*
X66626695Y-32564674D01*
X65933628Y-32851043D01*
X65402907Y-33380839D01*
X65115328Y-34073405D01*
X65114674Y-34823305D01*
X62884674Y-34823305D01*
X62885326Y-34076695D01*
X62598957Y-33383628D01*
X62069161Y-32852907D01*
X61376595Y-32565328D01*
X60626695Y-32564674D01*
X59933628Y-32851043D01*
X59402907Y-33380839D01*
X59115328Y-34073405D01*
X59114674Y-34823305D01*
X56994714Y-34823305D01*
X57234350Y-34246197D01*
X57235647Y-32760322D01*
X56668225Y-31387056D01*
X55992350Y-30710000D01*
X74466998Y-30710000D01*
X73883628Y-30951043D01*
M02*
