M48
INCH,TZ
T1C0.016
T2C0.039
T3C0.059
%
G90
G05
T1
X58465Y-43051
X58465Y-45413
X58524Y-48091
T2
X61850Y-50638
X61850Y-51638
X61850Y-52638
X61850Y-53638
X61850Y-54638
X61850Y-55638
X61850Y-56638
X61850Y-57638
X61850Y-58638
X61850Y-59638
X62850Y-50638
X62850Y-51638
X62850Y-52638
X62850Y-53638
X62850Y-54638
X62850Y-55638
X62850Y-56638
X62850Y-57638
X62850Y-58638
X62850Y-59638
X65634Y-42102
X65634Y-43102
X65634Y-44102
X65634Y-45102
X65634Y-46102
X65634Y-47102
X65634Y-48102
X65634Y-49102
X65634Y-50102
X65634Y-51102
X65634Y-52102
X65634Y-53102
X65634Y-54102
X65634Y-55102
X65634Y-56102
X65634Y-57102
X65634Y-58102
X65634Y-59102
X65634Y-60102
X65634Y-61102
X66634Y-42102
X66634Y-43102
X66634Y-44102
X66634Y-45102
X66634Y-46102
X66634Y-47102
X66634Y-48102
X66634Y-49102
X66634Y-50102
X66634Y-51102
X66634Y-52102
X66634Y-53102
X66634Y-54102
X66634Y-55102
X66634Y-56102
X66634Y-57102
X66634Y-58102
X66634Y-59102
X66634Y-60102
X66634Y-61102
T3
X61161Y-43051
X61181Y-45413
X61181Y-48091
X62421Y-43051
X62441Y-45413
X62441Y-48091
T0
M30
