G04 #@! TF.FileFunction,Copper,L1,Top,Signal*
%FSLAX46Y46*%
G04 Gerber Fmt 4.6, Leading zero omitted, Abs format (unit mm)*
G04 Created by KiCad (PCBNEW 4.0.6) date 06/16/19 22:17:06*
%MOMM*%
%LPD*%
G01*
G04 APERTURE LIST*
%ADD10C,0.100000*%
%ADD11R,1.500000X1.250000*%
%ADD12R,1.700000X1.700000*%
%ADD13O,1.700000X1.700000*%
%ADD14C,2.500000*%
%ADD15C,0.600000*%
%ADD16C,2.000000*%
%ADD17C,0.250000*%
%ADD18C,0.254000*%
G04 APERTURE END LIST*
D10*
D11*
X148500000Y-109350000D03*
X151000000Y-109350000D03*
X148500000Y-115350000D03*
X151000000Y-115350000D03*
X148650000Y-122150000D03*
X151150000Y-122150000D03*
D12*
X159640000Y-128620000D03*
D13*
X157100000Y-128620000D03*
X159640000Y-131160000D03*
X157100000Y-131160000D03*
X159640000Y-133700000D03*
X157100000Y-133700000D03*
X159640000Y-136240000D03*
X157100000Y-136240000D03*
X159640000Y-138780000D03*
X157100000Y-138780000D03*
X159640000Y-141320000D03*
X157100000Y-141320000D03*
X159640000Y-143860000D03*
X157100000Y-143860000D03*
X159640000Y-146400000D03*
X157100000Y-146400000D03*
X159640000Y-148940000D03*
X157100000Y-148940000D03*
X159640000Y-151480000D03*
X157100000Y-151480000D03*
D12*
X166710000Y-106940000D03*
D13*
X169250000Y-106940000D03*
X166710000Y-109480000D03*
X169250000Y-109480000D03*
X166710000Y-112020000D03*
X169250000Y-112020000D03*
X166710000Y-114560000D03*
X169250000Y-114560000D03*
X166710000Y-117100000D03*
X169250000Y-117100000D03*
X166710000Y-119640000D03*
X169250000Y-119640000D03*
X166710000Y-122180000D03*
X169250000Y-122180000D03*
X166710000Y-124720000D03*
X169250000Y-124720000D03*
X166710000Y-127260000D03*
X169250000Y-127260000D03*
X166710000Y-129800000D03*
X169250000Y-129800000D03*
X166710000Y-132340000D03*
X169250000Y-132340000D03*
X166710000Y-134880000D03*
X169250000Y-134880000D03*
X166710000Y-137420000D03*
X169250000Y-137420000D03*
X166710000Y-139960000D03*
X169250000Y-139960000D03*
X166710000Y-142500000D03*
X169250000Y-142500000D03*
X166710000Y-145040000D03*
X169250000Y-145040000D03*
X166710000Y-147580000D03*
X169250000Y-147580000D03*
X166710000Y-150120000D03*
X169250000Y-150120000D03*
X166710000Y-152660000D03*
X169250000Y-152660000D03*
X166710000Y-155200000D03*
X169250000Y-155200000D03*
D14*
X158550000Y-109350000D03*
X155350000Y-109350000D03*
X158600000Y-115350000D03*
X155400000Y-115350000D03*
X158600000Y-122150000D03*
X155400000Y-122150000D03*
D15*
X148650000Y-122150000D03*
X148500000Y-115350000D03*
X148500000Y-109350000D03*
D16*
X158600000Y-115350000D02*
X158600000Y-122150000D01*
X158550000Y-109350000D02*
X158550000Y-115300000D01*
X158550000Y-115300000D02*
X158600000Y-115350000D01*
D17*
X157100000Y-148940000D02*
X157100000Y-150142081D01*
X157100000Y-150142081D02*
X157100000Y-151480000D01*
X157100000Y-146400000D02*
X157100000Y-147602081D01*
X157100000Y-147602081D02*
X157100000Y-148940000D01*
D16*
X151000000Y-109350000D02*
X155350000Y-109350000D01*
D17*
X159640000Y-148940000D02*
X159640000Y-150142081D01*
X159640000Y-150142081D02*
X159640000Y-151480000D01*
X159640000Y-146400000D02*
X159640000Y-147602081D01*
X159640000Y-147602081D02*
X159640000Y-148940000D01*
D16*
X151000000Y-115350000D02*
X155400000Y-115350000D01*
X151150000Y-122150000D02*
X155400000Y-122150000D01*
D17*
X159640000Y-128620000D02*
X165530000Y-128620000D01*
X165530000Y-128620000D02*
X166710000Y-129800000D01*
X171124999Y-128624999D02*
X171124999Y-153325001D01*
X171124999Y-153325001D02*
X169250000Y-155200000D01*
X157100000Y-128620000D02*
X158275001Y-127444999D01*
X158275001Y-127444999D02*
X165155997Y-127444999D01*
X165155997Y-127444999D02*
X166335997Y-128624999D01*
X166335997Y-128624999D02*
X171124999Y-128624999D01*
X159640000Y-131160000D02*
X165530000Y-131160000D01*
X165530000Y-131160000D02*
X166710000Y-132340000D01*
X159640000Y-133700000D02*
X165530000Y-133700000D01*
X165530000Y-133700000D02*
X166710000Y-134880000D01*
X159640000Y-136240000D02*
X167890000Y-136240000D01*
X167890000Y-136240000D02*
X169250000Y-134880000D01*
X159640000Y-138780000D02*
X163360000Y-142500000D01*
X163360000Y-142500000D02*
X166710000Y-142500000D01*
X159640000Y-141320000D02*
X163360000Y-145040000D01*
X163360000Y-145040000D02*
X166710000Y-145040000D01*
X159640000Y-143860000D02*
X160815001Y-145035001D01*
X168074999Y-151484999D02*
X168400001Y-151810001D01*
X160815001Y-145035001D02*
X160815001Y-145964003D01*
X160815001Y-145964003D02*
X166335997Y-151484999D01*
X166335997Y-151484999D02*
X168074999Y-151484999D01*
X168400001Y-151810001D02*
X169250000Y-152660000D01*
D18*
G36*
X171331022Y-98543906D02*
X171813467Y-98930690D01*
X172116522Y-99482395D01*
X172190000Y-100004465D01*
X172190000Y-161098828D01*
X172006094Y-161731024D01*
X171619310Y-162213467D01*
X171067605Y-162516522D01*
X170545535Y-162590000D01*
X153457748Y-162590000D01*
X153782108Y-162266206D01*
X154526151Y-160474351D01*
X154527845Y-158534161D01*
X153786930Y-156741011D01*
X152416206Y-155367892D01*
X150624351Y-154623849D01*
X148684161Y-154622155D01*
X146891011Y-155363070D01*
X146560000Y-155693504D01*
X146560000Y-128620000D01*
X155585907Y-128620000D01*
X155698946Y-129188285D01*
X156020853Y-129670054D01*
X156350026Y-129890000D01*
X156020853Y-130109946D01*
X155698946Y-130591715D01*
X155585907Y-131160000D01*
X155698946Y-131728285D01*
X156020853Y-132210054D01*
X156350026Y-132430000D01*
X156020853Y-132649946D01*
X155698946Y-133131715D01*
X155585907Y-133700000D01*
X155698946Y-134268285D01*
X156020853Y-134750054D01*
X156350026Y-134970000D01*
X156020853Y-135189946D01*
X155698946Y-135671715D01*
X155585907Y-136240000D01*
X155698946Y-136808285D01*
X156020853Y-137290054D01*
X156502622Y-137611961D01*
X157070907Y-137725000D01*
X157129093Y-137725000D01*
X157697378Y-137611961D01*
X158179147Y-137290054D01*
X158370000Y-137004422D01*
X158560853Y-137290054D01*
X158890026Y-137510000D01*
X158560853Y-137729946D01*
X158238946Y-138211715D01*
X158125907Y-138780000D01*
X158238946Y-139348285D01*
X158560853Y-139830054D01*
X158890026Y-140050000D01*
X158560853Y-140269946D01*
X158238946Y-140751715D01*
X158125907Y-141320000D01*
X158238946Y-141888285D01*
X158560853Y-142370054D01*
X158890026Y-142590000D01*
X158560853Y-142809946D01*
X158238946Y-143291715D01*
X158125907Y-143860000D01*
X158238946Y-144428285D01*
X158560853Y-144910054D01*
X158890026Y-145130000D01*
X158560853Y-145349946D01*
X158370000Y-145635578D01*
X158179147Y-145349946D01*
X157697378Y-145028039D01*
X157129093Y-144915000D01*
X157070907Y-144915000D01*
X156502622Y-145028039D01*
X156020853Y-145349946D01*
X155698946Y-145831715D01*
X155585907Y-146400000D01*
X155698946Y-146968285D01*
X156020853Y-147450054D01*
X156340000Y-147663301D01*
X156340000Y-147676699D01*
X156020853Y-147889946D01*
X155698946Y-148371715D01*
X155585907Y-148940000D01*
X155698946Y-149508285D01*
X156020853Y-149990054D01*
X156340000Y-150203301D01*
X156340000Y-150216699D01*
X156020853Y-150429946D01*
X155698946Y-150911715D01*
X155585907Y-151480000D01*
X155698946Y-152048285D01*
X156020853Y-152530054D01*
X156502622Y-152851961D01*
X157070907Y-152965000D01*
X157129093Y-152965000D01*
X157697378Y-152851961D01*
X158179147Y-152530054D01*
X158370000Y-152244422D01*
X158560853Y-152530054D01*
X159042622Y-152851961D01*
X159610907Y-152965000D01*
X159669093Y-152965000D01*
X160237378Y-152851961D01*
X160719147Y-152530054D01*
X161041054Y-152048285D01*
X161154093Y-151480000D01*
X161041054Y-150911715D01*
X160719147Y-150429946D01*
X160400000Y-150216699D01*
X160400000Y-150203301D01*
X160719147Y-149990054D01*
X161041054Y-149508285D01*
X161154093Y-148940000D01*
X161041054Y-148371715D01*
X160719147Y-147889946D01*
X160400000Y-147676699D01*
X160400000Y-147663301D01*
X160719147Y-147450054D01*
X160922264Y-147146068D01*
X165532836Y-151756640D01*
X165308946Y-152091715D01*
X165195907Y-152660000D01*
X165308946Y-153228285D01*
X165630853Y-153710054D01*
X165960026Y-153930000D01*
X165630853Y-154149946D01*
X165308946Y-154631715D01*
X165195907Y-155200000D01*
X165308946Y-155768285D01*
X165630853Y-156250054D01*
X166112622Y-156571961D01*
X166680907Y-156685000D01*
X166739093Y-156685000D01*
X167307378Y-156571961D01*
X167789147Y-156250054D01*
X167980000Y-155964422D01*
X168170853Y-156250054D01*
X168652622Y-156571961D01*
X169220907Y-156685000D01*
X169279093Y-156685000D01*
X169847378Y-156571961D01*
X170329147Y-156250054D01*
X170651054Y-155768285D01*
X170764093Y-155200000D01*
X170691210Y-154833592D01*
X171662400Y-153862402D01*
X171827147Y-153615840D01*
X171884999Y-153325001D01*
X171884999Y-128624999D01*
X171827147Y-128334160D01*
X171662400Y-128087598D01*
X171415838Y-127922851D01*
X171124999Y-127864999D01*
X170626523Y-127864999D01*
X170651054Y-127828285D01*
X170764093Y-127260000D01*
X170651054Y-126691715D01*
X170329147Y-126209946D01*
X169999974Y-125990000D01*
X170329147Y-125770054D01*
X170651054Y-125288285D01*
X170764093Y-124720000D01*
X170651054Y-124151715D01*
X170329147Y-123669946D01*
X169999974Y-123450000D01*
X170329147Y-123230054D01*
X170651054Y-122748285D01*
X170764093Y-122180000D01*
X170651054Y-121611715D01*
X170329147Y-121129946D01*
X169999974Y-120910000D01*
X170329147Y-120690054D01*
X170651054Y-120208285D01*
X170764093Y-119640000D01*
X170651054Y-119071715D01*
X170329147Y-118589946D01*
X169999974Y-118370000D01*
X170329147Y-118150054D01*
X170651054Y-117668285D01*
X170764093Y-117100000D01*
X170651054Y-116531715D01*
X170329147Y-116049946D01*
X169999974Y-115830000D01*
X170329147Y-115610054D01*
X170651054Y-115128285D01*
X170764093Y-114560000D01*
X170651054Y-113991715D01*
X170329147Y-113509946D01*
X169999974Y-113290000D01*
X170329147Y-113070054D01*
X170651054Y-112588285D01*
X170764093Y-112020000D01*
X170651054Y-111451715D01*
X170329147Y-110969946D01*
X169999974Y-110750000D01*
X170329147Y-110530054D01*
X170651054Y-110048285D01*
X170764093Y-109480000D01*
X170651054Y-108911715D01*
X170329147Y-108429946D01*
X169999974Y-108210000D01*
X170329147Y-107990054D01*
X170651054Y-107508285D01*
X170764093Y-106940000D01*
X170651054Y-106371715D01*
X170329147Y-105889946D01*
X169847378Y-105568039D01*
X169279093Y-105455000D01*
X169220907Y-105455000D01*
X168652622Y-105568039D01*
X168170853Y-105889946D01*
X167848946Y-106371715D01*
X167735907Y-106940000D01*
X167848946Y-107508285D01*
X168170853Y-107990054D01*
X168500026Y-108210000D01*
X168170853Y-108429946D01*
X167980000Y-108715578D01*
X167789147Y-108429946D01*
X167307378Y-108108039D01*
X166739093Y-107995000D01*
X166680907Y-107995000D01*
X166112622Y-108108039D01*
X165630853Y-108429946D01*
X165308946Y-108911715D01*
X165195907Y-109480000D01*
X165308946Y-110048285D01*
X165630853Y-110530054D01*
X165960026Y-110750000D01*
X165630853Y-110969946D01*
X165308946Y-111451715D01*
X165195907Y-112020000D01*
X165308946Y-112588285D01*
X165630853Y-113070054D01*
X165960026Y-113290000D01*
X165630853Y-113509946D01*
X165308946Y-113991715D01*
X165195907Y-114560000D01*
X165308946Y-115128285D01*
X165630853Y-115610054D01*
X165960026Y-115830000D01*
X165630853Y-116049946D01*
X165308946Y-116531715D01*
X165195907Y-117100000D01*
X165308946Y-117668285D01*
X165630853Y-118150054D01*
X165960026Y-118370000D01*
X165630853Y-118589946D01*
X165308946Y-119071715D01*
X165195907Y-119640000D01*
X165308946Y-120208285D01*
X165630853Y-120690054D01*
X165960026Y-120910000D01*
X165630853Y-121129946D01*
X165308946Y-121611715D01*
X165195907Y-122180000D01*
X165308946Y-122748285D01*
X165630853Y-123230054D01*
X165960026Y-123450000D01*
X165630853Y-123669946D01*
X165308946Y-124151715D01*
X165195907Y-124720000D01*
X165308946Y-125288285D01*
X165630853Y-125770054D01*
X166112622Y-126091961D01*
X166680907Y-126205000D01*
X166739093Y-126205000D01*
X167307378Y-126091961D01*
X167789147Y-125770054D01*
X167980000Y-125484422D01*
X168170853Y-125770054D01*
X168500026Y-125990000D01*
X168170853Y-126209946D01*
X167848946Y-126691715D01*
X167735907Y-127260000D01*
X167848946Y-127828285D01*
X167873477Y-127864999D01*
X166650799Y-127864999D01*
X165693398Y-126907598D01*
X165446836Y-126742851D01*
X165155997Y-126684999D01*
X158275001Y-126684999D01*
X157984161Y-126742851D01*
X157737600Y-126907598D01*
X157446969Y-127198229D01*
X157129093Y-127135000D01*
X157070907Y-127135000D01*
X156502622Y-127248039D01*
X156020853Y-127569946D01*
X155698946Y-128051715D01*
X155585907Y-128620000D01*
X146560000Y-128620000D01*
X146560000Y-121525000D01*
X147252560Y-121525000D01*
X147252560Y-122775000D01*
X147296838Y-123010317D01*
X147435910Y-123226441D01*
X147648110Y-123371431D01*
X147900000Y-123422440D01*
X149400000Y-123422440D01*
X149635317Y-123378162D01*
X149851441Y-123239090D01*
X149996431Y-123026890D01*
X150047440Y-122775000D01*
X150047440Y-121525000D01*
X150003162Y-121289683D01*
X149864090Y-121073559D01*
X149651890Y-120928569D01*
X149400000Y-120877560D01*
X147900000Y-120877560D01*
X147664683Y-120921838D01*
X147448559Y-121060910D01*
X147303569Y-121273110D01*
X147252560Y-121525000D01*
X146560000Y-121525000D01*
X146560000Y-108725000D01*
X147102560Y-108725000D01*
X147102560Y-109975000D01*
X147146838Y-110210317D01*
X147285910Y-110426441D01*
X147498110Y-110571431D01*
X147750000Y-110622440D01*
X149250000Y-110622440D01*
X149485317Y-110578162D01*
X149701441Y-110439090D01*
X149749134Y-110369289D01*
X149785910Y-110426441D01*
X149794614Y-110432388D01*
X149843880Y-110506120D01*
X150374313Y-110860543D01*
X151000000Y-110985000D01*
X154372129Y-110985000D01*
X154973405Y-111234672D01*
X155723305Y-111235326D01*
X156416372Y-110948957D01*
X156915000Y-110451198D01*
X156915000Y-114199524D01*
X156469161Y-113752907D01*
X155776595Y-113465328D01*
X155026695Y-113464674D01*
X154420859Y-113715000D01*
X151000000Y-113715000D01*
X150374313Y-113839457D01*
X149843880Y-114193880D01*
X149799494Y-114260308D01*
X149798559Y-114260910D01*
X149750866Y-114330711D01*
X149714090Y-114273559D01*
X149501890Y-114128569D01*
X149250000Y-114077560D01*
X147750000Y-114077560D01*
X147514683Y-114121838D01*
X147298559Y-114260910D01*
X147153569Y-114473110D01*
X147102560Y-114725000D01*
X147102560Y-115975000D01*
X147146838Y-116210317D01*
X147285910Y-116426441D01*
X147498110Y-116571431D01*
X147750000Y-116622440D01*
X149250000Y-116622440D01*
X149485317Y-116578162D01*
X149701441Y-116439090D01*
X149749134Y-116369289D01*
X149785910Y-116426441D01*
X149794614Y-116432388D01*
X149843880Y-116506120D01*
X150374313Y-116860543D01*
X151000000Y-116985000D01*
X154422129Y-116985000D01*
X155023405Y-117234672D01*
X155773305Y-117235326D01*
X156466372Y-116948957D01*
X156965000Y-116451198D01*
X156965000Y-121172129D01*
X156715328Y-121773405D01*
X156714674Y-122523305D01*
X157001043Y-123216372D01*
X157530839Y-123747093D01*
X158223405Y-124034672D01*
X158973305Y-124035326D01*
X159666372Y-123748957D01*
X160197093Y-123219161D01*
X160484672Y-122526595D01*
X160485326Y-121776695D01*
X160235000Y-121170859D01*
X160235000Y-116327871D01*
X160484672Y-115726595D01*
X160485326Y-114976695D01*
X160198957Y-114283628D01*
X160185000Y-114269647D01*
X160185000Y-110327871D01*
X160434672Y-109726595D01*
X160435326Y-108976695D01*
X160148957Y-108283628D01*
X159619161Y-107752907D01*
X158926595Y-107465328D01*
X158176695Y-107464674D01*
X157483628Y-107751043D01*
X156952907Y-108280839D01*
X156950350Y-108286998D01*
X156948957Y-108283628D01*
X156419161Y-107752907D01*
X155726595Y-107465328D01*
X154976695Y-107464674D01*
X154370859Y-107715000D01*
X151000000Y-107715000D01*
X150374313Y-107839457D01*
X149843880Y-108193880D01*
X149799494Y-108260308D01*
X149798559Y-108260910D01*
X149750866Y-108330711D01*
X149714090Y-108273559D01*
X149501890Y-108128569D01*
X149250000Y-108077560D01*
X147750000Y-108077560D01*
X147514683Y-108121838D01*
X147298559Y-108260910D01*
X147153569Y-108473110D01*
X147102560Y-108725000D01*
X146560000Y-108725000D01*
X146560000Y-105207748D01*
X146883794Y-105532108D01*
X148675649Y-106276151D01*
X150615839Y-106277845D01*
X152408989Y-105536930D01*
X153782108Y-104166206D01*
X154526151Y-102374351D01*
X154527845Y-100434161D01*
X153786930Y-98641011D01*
X153506409Y-98360000D01*
X170698828Y-98360000D01*
X171331022Y-98543906D01*
X171331022Y-98543906D01*
G37*
X171331022Y-98543906D02*
X171813467Y-98930690D01*
X172116522Y-99482395D01*
X172190000Y-100004465D01*
X172190000Y-161098828D01*
X172006094Y-161731024D01*
X171619310Y-162213467D01*
X171067605Y-162516522D01*
X170545535Y-162590000D01*
X153457748Y-162590000D01*
X153782108Y-162266206D01*
X154526151Y-160474351D01*
X154527845Y-158534161D01*
X153786930Y-156741011D01*
X152416206Y-155367892D01*
X150624351Y-154623849D01*
X148684161Y-154622155D01*
X146891011Y-155363070D01*
X146560000Y-155693504D01*
X146560000Y-128620000D01*
X155585907Y-128620000D01*
X155698946Y-129188285D01*
X156020853Y-129670054D01*
X156350026Y-129890000D01*
X156020853Y-130109946D01*
X155698946Y-130591715D01*
X155585907Y-131160000D01*
X155698946Y-131728285D01*
X156020853Y-132210054D01*
X156350026Y-132430000D01*
X156020853Y-132649946D01*
X155698946Y-133131715D01*
X155585907Y-133700000D01*
X155698946Y-134268285D01*
X156020853Y-134750054D01*
X156350026Y-134970000D01*
X156020853Y-135189946D01*
X155698946Y-135671715D01*
X155585907Y-136240000D01*
X155698946Y-136808285D01*
X156020853Y-137290054D01*
X156502622Y-137611961D01*
X157070907Y-137725000D01*
X157129093Y-137725000D01*
X157697378Y-137611961D01*
X158179147Y-137290054D01*
X158370000Y-137004422D01*
X158560853Y-137290054D01*
X158890026Y-137510000D01*
X158560853Y-137729946D01*
X158238946Y-138211715D01*
X158125907Y-138780000D01*
X158238946Y-139348285D01*
X158560853Y-139830054D01*
X158890026Y-140050000D01*
X158560853Y-140269946D01*
X158238946Y-140751715D01*
X158125907Y-141320000D01*
X158238946Y-141888285D01*
X158560853Y-142370054D01*
X158890026Y-142590000D01*
X158560853Y-142809946D01*
X158238946Y-143291715D01*
X158125907Y-143860000D01*
X158238946Y-144428285D01*
X158560853Y-144910054D01*
X158890026Y-145130000D01*
X158560853Y-145349946D01*
X158370000Y-145635578D01*
X158179147Y-145349946D01*
X157697378Y-145028039D01*
X157129093Y-144915000D01*
X157070907Y-144915000D01*
X156502622Y-145028039D01*
X156020853Y-145349946D01*
X155698946Y-145831715D01*
X155585907Y-146400000D01*
X155698946Y-146968285D01*
X156020853Y-147450054D01*
X156340000Y-147663301D01*
X156340000Y-147676699D01*
X156020853Y-147889946D01*
X155698946Y-148371715D01*
X155585907Y-148940000D01*
X155698946Y-149508285D01*
X156020853Y-149990054D01*
X156340000Y-150203301D01*
X156340000Y-150216699D01*
X156020853Y-150429946D01*
X155698946Y-150911715D01*
X155585907Y-151480000D01*
X155698946Y-152048285D01*
X156020853Y-152530054D01*
X156502622Y-152851961D01*
X157070907Y-152965000D01*
X157129093Y-152965000D01*
X157697378Y-152851961D01*
X158179147Y-152530054D01*
X158370000Y-152244422D01*
X158560853Y-152530054D01*
X159042622Y-152851961D01*
X159610907Y-152965000D01*
X159669093Y-152965000D01*
X160237378Y-152851961D01*
X160719147Y-152530054D01*
X161041054Y-152048285D01*
X161154093Y-151480000D01*
X161041054Y-150911715D01*
X160719147Y-150429946D01*
X160400000Y-150216699D01*
X160400000Y-150203301D01*
X160719147Y-149990054D01*
X161041054Y-149508285D01*
X161154093Y-148940000D01*
X161041054Y-148371715D01*
X160719147Y-147889946D01*
X160400000Y-147676699D01*
X160400000Y-147663301D01*
X160719147Y-147450054D01*
X160922264Y-147146068D01*
X165532836Y-151756640D01*
X165308946Y-152091715D01*
X165195907Y-152660000D01*
X165308946Y-153228285D01*
X165630853Y-153710054D01*
X165960026Y-153930000D01*
X165630853Y-154149946D01*
X165308946Y-154631715D01*
X165195907Y-155200000D01*
X165308946Y-155768285D01*
X165630853Y-156250054D01*
X166112622Y-156571961D01*
X166680907Y-156685000D01*
X166739093Y-156685000D01*
X167307378Y-156571961D01*
X167789147Y-156250054D01*
X167980000Y-155964422D01*
X168170853Y-156250054D01*
X168652622Y-156571961D01*
X169220907Y-156685000D01*
X169279093Y-156685000D01*
X169847378Y-156571961D01*
X170329147Y-156250054D01*
X170651054Y-155768285D01*
X170764093Y-155200000D01*
X170691210Y-154833592D01*
X171662400Y-153862402D01*
X171827147Y-153615840D01*
X171884999Y-153325001D01*
X171884999Y-128624999D01*
X171827147Y-128334160D01*
X171662400Y-128087598D01*
X171415838Y-127922851D01*
X171124999Y-127864999D01*
X170626523Y-127864999D01*
X170651054Y-127828285D01*
X170764093Y-127260000D01*
X170651054Y-126691715D01*
X170329147Y-126209946D01*
X169999974Y-125990000D01*
X170329147Y-125770054D01*
X170651054Y-125288285D01*
X170764093Y-124720000D01*
X170651054Y-124151715D01*
X170329147Y-123669946D01*
X169999974Y-123450000D01*
X170329147Y-123230054D01*
X170651054Y-122748285D01*
X170764093Y-122180000D01*
X170651054Y-121611715D01*
X170329147Y-121129946D01*
X169999974Y-120910000D01*
X170329147Y-120690054D01*
X170651054Y-120208285D01*
X170764093Y-119640000D01*
X170651054Y-119071715D01*
X170329147Y-118589946D01*
X169999974Y-118370000D01*
X170329147Y-118150054D01*
X170651054Y-117668285D01*
X170764093Y-117100000D01*
X170651054Y-116531715D01*
X170329147Y-116049946D01*
X169999974Y-115830000D01*
X170329147Y-115610054D01*
X170651054Y-115128285D01*
X170764093Y-114560000D01*
X170651054Y-113991715D01*
X170329147Y-113509946D01*
X169999974Y-113290000D01*
X170329147Y-113070054D01*
X170651054Y-112588285D01*
X170764093Y-112020000D01*
X170651054Y-111451715D01*
X170329147Y-110969946D01*
X169999974Y-110750000D01*
X170329147Y-110530054D01*
X170651054Y-110048285D01*
X170764093Y-109480000D01*
X170651054Y-108911715D01*
X170329147Y-108429946D01*
X169999974Y-108210000D01*
X170329147Y-107990054D01*
X170651054Y-107508285D01*
X170764093Y-106940000D01*
X170651054Y-106371715D01*
X170329147Y-105889946D01*
X169847378Y-105568039D01*
X169279093Y-105455000D01*
X169220907Y-105455000D01*
X168652622Y-105568039D01*
X168170853Y-105889946D01*
X167848946Y-106371715D01*
X167735907Y-106940000D01*
X167848946Y-107508285D01*
X168170853Y-107990054D01*
X168500026Y-108210000D01*
X168170853Y-108429946D01*
X167980000Y-108715578D01*
X167789147Y-108429946D01*
X167307378Y-108108039D01*
X166739093Y-107995000D01*
X166680907Y-107995000D01*
X166112622Y-108108039D01*
X165630853Y-108429946D01*
X165308946Y-108911715D01*
X165195907Y-109480000D01*
X165308946Y-110048285D01*
X165630853Y-110530054D01*
X165960026Y-110750000D01*
X165630853Y-110969946D01*
X165308946Y-111451715D01*
X165195907Y-112020000D01*
X165308946Y-112588285D01*
X165630853Y-113070054D01*
X165960026Y-113290000D01*
X165630853Y-113509946D01*
X165308946Y-113991715D01*
X165195907Y-114560000D01*
X165308946Y-115128285D01*
X165630853Y-115610054D01*
X165960026Y-115830000D01*
X165630853Y-116049946D01*
X165308946Y-116531715D01*
X165195907Y-117100000D01*
X165308946Y-117668285D01*
X165630853Y-118150054D01*
X165960026Y-118370000D01*
X165630853Y-118589946D01*
X165308946Y-119071715D01*
X165195907Y-119640000D01*
X165308946Y-120208285D01*
X165630853Y-120690054D01*
X165960026Y-120910000D01*
X165630853Y-121129946D01*
X165308946Y-121611715D01*
X165195907Y-122180000D01*
X165308946Y-122748285D01*
X165630853Y-123230054D01*
X165960026Y-123450000D01*
X165630853Y-123669946D01*
X165308946Y-124151715D01*
X165195907Y-124720000D01*
X165308946Y-125288285D01*
X165630853Y-125770054D01*
X166112622Y-126091961D01*
X166680907Y-126205000D01*
X166739093Y-126205000D01*
X167307378Y-126091961D01*
X167789147Y-125770054D01*
X167980000Y-125484422D01*
X168170853Y-125770054D01*
X168500026Y-125990000D01*
X168170853Y-126209946D01*
X167848946Y-126691715D01*
X167735907Y-127260000D01*
X167848946Y-127828285D01*
X167873477Y-127864999D01*
X166650799Y-127864999D01*
X165693398Y-126907598D01*
X165446836Y-126742851D01*
X165155997Y-126684999D01*
X158275001Y-126684999D01*
X157984161Y-126742851D01*
X157737600Y-126907598D01*
X157446969Y-127198229D01*
X157129093Y-127135000D01*
X157070907Y-127135000D01*
X156502622Y-127248039D01*
X156020853Y-127569946D01*
X155698946Y-128051715D01*
X155585907Y-128620000D01*
X146560000Y-128620000D01*
X146560000Y-121525000D01*
X147252560Y-121525000D01*
X147252560Y-122775000D01*
X147296838Y-123010317D01*
X147435910Y-123226441D01*
X147648110Y-123371431D01*
X147900000Y-123422440D01*
X149400000Y-123422440D01*
X149635317Y-123378162D01*
X149851441Y-123239090D01*
X149996431Y-123026890D01*
X150047440Y-122775000D01*
X150047440Y-121525000D01*
X150003162Y-121289683D01*
X149864090Y-121073559D01*
X149651890Y-120928569D01*
X149400000Y-120877560D01*
X147900000Y-120877560D01*
X147664683Y-120921838D01*
X147448559Y-121060910D01*
X147303569Y-121273110D01*
X147252560Y-121525000D01*
X146560000Y-121525000D01*
X146560000Y-108725000D01*
X147102560Y-108725000D01*
X147102560Y-109975000D01*
X147146838Y-110210317D01*
X147285910Y-110426441D01*
X147498110Y-110571431D01*
X147750000Y-110622440D01*
X149250000Y-110622440D01*
X149485317Y-110578162D01*
X149701441Y-110439090D01*
X149749134Y-110369289D01*
X149785910Y-110426441D01*
X149794614Y-110432388D01*
X149843880Y-110506120D01*
X150374313Y-110860543D01*
X151000000Y-110985000D01*
X154372129Y-110985000D01*
X154973405Y-111234672D01*
X155723305Y-111235326D01*
X156416372Y-110948957D01*
X156915000Y-110451198D01*
X156915000Y-114199524D01*
X156469161Y-113752907D01*
X155776595Y-113465328D01*
X155026695Y-113464674D01*
X154420859Y-113715000D01*
X151000000Y-113715000D01*
X150374313Y-113839457D01*
X149843880Y-114193880D01*
X149799494Y-114260308D01*
X149798559Y-114260910D01*
X149750866Y-114330711D01*
X149714090Y-114273559D01*
X149501890Y-114128569D01*
X149250000Y-114077560D01*
X147750000Y-114077560D01*
X147514683Y-114121838D01*
X147298559Y-114260910D01*
X147153569Y-114473110D01*
X147102560Y-114725000D01*
X147102560Y-115975000D01*
X147146838Y-116210317D01*
X147285910Y-116426441D01*
X147498110Y-116571431D01*
X147750000Y-116622440D01*
X149250000Y-116622440D01*
X149485317Y-116578162D01*
X149701441Y-116439090D01*
X149749134Y-116369289D01*
X149785910Y-116426441D01*
X149794614Y-116432388D01*
X149843880Y-116506120D01*
X150374313Y-116860543D01*
X151000000Y-116985000D01*
X154422129Y-116985000D01*
X155023405Y-117234672D01*
X155773305Y-117235326D01*
X156466372Y-116948957D01*
X156965000Y-116451198D01*
X156965000Y-121172129D01*
X156715328Y-121773405D01*
X156714674Y-122523305D01*
X157001043Y-123216372D01*
X157530839Y-123747093D01*
X158223405Y-124034672D01*
X158973305Y-124035326D01*
X159666372Y-123748957D01*
X160197093Y-123219161D01*
X160484672Y-122526595D01*
X160485326Y-121776695D01*
X160235000Y-121170859D01*
X160235000Y-116327871D01*
X160484672Y-115726595D01*
X160485326Y-114976695D01*
X160198957Y-114283628D01*
X160185000Y-114269647D01*
X160185000Y-110327871D01*
X160434672Y-109726595D01*
X160435326Y-108976695D01*
X160148957Y-108283628D01*
X159619161Y-107752907D01*
X158926595Y-107465328D01*
X158176695Y-107464674D01*
X157483628Y-107751043D01*
X156952907Y-108280839D01*
X156950350Y-108286998D01*
X156948957Y-108283628D01*
X156419161Y-107752907D01*
X155726595Y-107465328D01*
X154976695Y-107464674D01*
X154370859Y-107715000D01*
X151000000Y-107715000D01*
X150374313Y-107839457D01*
X149843880Y-108193880D01*
X149799494Y-108260308D01*
X149798559Y-108260910D01*
X149750866Y-108330711D01*
X149714090Y-108273559D01*
X149501890Y-108128569D01*
X149250000Y-108077560D01*
X147750000Y-108077560D01*
X147514683Y-108121838D01*
X147298559Y-108260910D01*
X147153569Y-108473110D01*
X147102560Y-108725000D01*
X146560000Y-108725000D01*
X146560000Y-105207748D01*
X146883794Y-105532108D01*
X148675649Y-106276151D01*
X150615839Y-106277845D01*
X152408989Y-105536930D01*
X153782108Y-104166206D01*
X154526151Y-102374351D01*
X154527845Y-100434161D01*
X153786930Y-98641011D01*
X153506409Y-98360000D01*
X170698828Y-98360000D01*
X171331022Y-98543906D01*
M02*
