G04 #@! TF.FileFunction,Copper,L2,Bot,Signal*
%FSLAX46Y46*%
G04 Gerber Fmt 4.6, Leading zero omitted, Abs format (unit mm)*
G04 Created by KiCad (PCBNEW 4.0.6) date 06/16/19 22:17:06*
%MOMM*%
%LPD*%
G01*
G04 APERTURE LIST*
%ADD10C,0.100000*%
%ADD11R,1.700000X1.700000*%
%ADD12O,1.700000X1.700000*%
%ADD13C,2.500000*%
%ADD14C,0.600000*%
%ADD15C,2.000000*%
%ADD16C,0.254000*%
G04 APERTURE END LIST*
D10*
D11*
X159640000Y-128620000D03*
D12*
X157100000Y-128620000D03*
X159640000Y-131160000D03*
X157100000Y-131160000D03*
X159640000Y-133700000D03*
X157100000Y-133700000D03*
X159640000Y-136240000D03*
X157100000Y-136240000D03*
X159640000Y-138780000D03*
X157100000Y-138780000D03*
X159640000Y-141320000D03*
X157100000Y-141320000D03*
X159640000Y-143860000D03*
X157100000Y-143860000D03*
X159640000Y-146400000D03*
X157100000Y-146400000D03*
X159640000Y-148940000D03*
X157100000Y-148940000D03*
X159640000Y-151480000D03*
X157100000Y-151480000D03*
D11*
X166710000Y-106940000D03*
D12*
X169250000Y-106940000D03*
X166710000Y-109480000D03*
X169250000Y-109480000D03*
X166710000Y-112020000D03*
X169250000Y-112020000D03*
X166710000Y-114560000D03*
X169250000Y-114560000D03*
X166710000Y-117100000D03*
X169250000Y-117100000D03*
X166710000Y-119640000D03*
X169250000Y-119640000D03*
X166710000Y-122180000D03*
X169250000Y-122180000D03*
X166710000Y-124720000D03*
X169250000Y-124720000D03*
X166710000Y-127260000D03*
X169250000Y-127260000D03*
X166710000Y-129800000D03*
X169250000Y-129800000D03*
X166710000Y-132340000D03*
X169250000Y-132340000D03*
X166710000Y-134880000D03*
X169250000Y-134880000D03*
X166710000Y-137420000D03*
X169250000Y-137420000D03*
X166710000Y-139960000D03*
X169250000Y-139960000D03*
X166710000Y-142500000D03*
X169250000Y-142500000D03*
X166710000Y-145040000D03*
X169250000Y-145040000D03*
X166710000Y-147580000D03*
X169250000Y-147580000D03*
X166710000Y-150120000D03*
X169250000Y-150120000D03*
X166710000Y-152660000D03*
X169250000Y-152660000D03*
X166710000Y-155200000D03*
X169250000Y-155200000D03*
D13*
X158550000Y-109350000D03*
X155350000Y-109350000D03*
X158600000Y-115350000D03*
X155400000Y-115350000D03*
X158600000Y-122150000D03*
X155400000Y-122150000D03*
D14*
X148650000Y-122150000D03*
X148500000Y-115350000D03*
X148500000Y-109350000D03*
D15*
X157100000Y-148940000D02*
X157100000Y-151480000D01*
X157100000Y-146400000D02*
X157100000Y-148940000D01*
X155350000Y-109350000D02*
X152950000Y-111750000D01*
X152950000Y-111750000D02*
X152950000Y-143452081D01*
X152950000Y-143452081D02*
X155897919Y-146400000D01*
X155897919Y-146400000D02*
X157100000Y-146400000D01*
X159640000Y-146400000D02*
X160842081Y-146400000D01*
X160842081Y-146400000D02*
X161690001Y-145552080D01*
X161690001Y-121613999D02*
X159776001Y-119699999D01*
X161690001Y-145552080D02*
X161690001Y-121613999D01*
X155400000Y-117117766D02*
X155400000Y-115350000D01*
X159776001Y-119699999D02*
X157982233Y-119699999D01*
X157982233Y-119699999D02*
X155400000Y-117117766D01*
X159640000Y-148940000D02*
X159640000Y-146400000D01*
X159640000Y-151480000D02*
X159640000Y-148940000D01*
D16*
G36*
X171331022Y-98543906D02*
X171813467Y-98930690D01*
X172116522Y-99482395D01*
X172190000Y-100004465D01*
X172190000Y-161098828D01*
X172006094Y-161731024D01*
X171619310Y-162213467D01*
X171067605Y-162516522D01*
X170545535Y-162590000D01*
X153457748Y-162590000D01*
X153782108Y-162266206D01*
X154526151Y-160474351D01*
X154527845Y-158534161D01*
X153786930Y-156741011D01*
X152416206Y-155367892D01*
X150624351Y-154623849D01*
X148684161Y-154622155D01*
X146891011Y-155363070D01*
X146560000Y-155693504D01*
X146560000Y-111750000D01*
X151314999Y-111750000D01*
X151315000Y-111750005D01*
X151315000Y-143452076D01*
X151314999Y-143452081D01*
X151439457Y-144077769D01*
X151793880Y-144608201D01*
X154741799Y-147556120D01*
X155272231Y-147910543D01*
X155465000Y-147948887D01*
X155465000Y-151480000D01*
X155589457Y-152105687D01*
X155943880Y-152636120D01*
X156474313Y-152990543D01*
X157100000Y-153115000D01*
X157725687Y-152990543D01*
X158256120Y-152636120D01*
X158370000Y-152465686D01*
X158483880Y-152636120D01*
X159014313Y-152990543D01*
X159640000Y-153115000D01*
X160265687Y-152990543D01*
X160796120Y-152636120D01*
X161150543Y-152105687D01*
X161275000Y-151480000D01*
X161275000Y-147948887D01*
X161467769Y-147910543D01*
X161998201Y-147556120D01*
X162846121Y-146708200D01*
X163200544Y-146177768D01*
X163325002Y-145552080D01*
X163325001Y-145552075D01*
X163325001Y-121614004D01*
X163325002Y-121613999D01*
X163200544Y-120988311D01*
X163001255Y-120690054D01*
X162846121Y-120457879D01*
X162846118Y-120457877D01*
X160932121Y-118543879D01*
X160401689Y-118189456D01*
X159776001Y-118064998D01*
X159775996Y-118064999D01*
X158659473Y-118064999D01*
X157035000Y-116440526D01*
X157035000Y-116327871D01*
X157284672Y-115726595D01*
X157285326Y-114976695D01*
X156998957Y-114283628D01*
X156469161Y-113752907D01*
X155776595Y-113465328D01*
X155026695Y-113464674D01*
X154585000Y-113647178D01*
X154585000Y-112427240D01*
X155814661Y-111197579D01*
X156416372Y-110948957D01*
X156947093Y-110419161D01*
X157234672Y-109726595D01*
X157234887Y-109480000D01*
X165195907Y-109480000D01*
X165308946Y-110048285D01*
X165630853Y-110530054D01*
X165960026Y-110750000D01*
X165630853Y-110969946D01*
X165308946Y-111451715D01*
X165195907Y-112020000D01*
X165308946Y-112588285D01*
X165630853Y-113070054D01*
X165960026Y-113290000D01*
X165630853Y-113509946D01*
X165308946Y-113991715D01*
X165195907Y-114560000D01*
X165308946Y-115128285D01*
X165630853Y-115610054D01*
X166112622Y-115931961D01*
X166680907Y-116045000D01*
X166739093Y-116045000D01*
X167307378Y-115931961D01*
X167789147Y-115610054D01*
X167980000Y-115324422D01*
X168170853Y-115610054D01*
X168500026Y-115830000D01*
X168170853Y-116049946D01*
X167848946Y-116531715D01*
X167735907Y-117100000D01*
X167848946Y-117668285D01*
X168170853Y-118150054D01*
X168500026Y-118370000D01*
X168170853Y-118589946D01*
X167980000Y-118875578D01*
X167789147Y-118589946D01*
X167307378Y-118268039D01*
X166739093Y-118155000D01*
X166680907Y-118155000D01*
X166112622Y-118268039D01*
X165630853Y-118589946D01*
X165308946Y-119071715D01*
X165195907Y-119640000D01*
X165308946Y-120208285D01*
X165630853Y-120690054D01*
X165960026Y-120910000D01*
X165630853Y-121129946D01*
X165308946Y-121611715D01*
X165195907Y-122180000D01*
X165308946Y-122748285D01*
X165630853Y-123230054D01*
X165960026Y-123450000D01*
X165630853Y-123669946D01*
X165308946Y-124151715D01*
X165195907Y-124720000D01*
X165308946Y-125288285D01*
X165630853Y-125770054D01*
X165960026Y-125990000D01*
X165630853Y-126209946D01*
X165308946Y-126691715D01*
X165195907Y-127260000D01*
X165308946Y-127828285D01*
X165630853Y-128310054D01*
X165960026Y-128530000D01*
X165630853Y-128749946D01*
X165308946Y-129231715D01*
X165195907Y-129800000D01*
X165308946Y-130368285D01*
X165630853Y-130850054D01*
X165960026Y-131070000D01*
X165630853Y-131289946D01*
X165308946Y-131771715D01*
X165195907Y-132340000D01*
X165308946Y-132908285D01*
X165630853Y-133390054D01*
X165960026Y-133610000D01*
X165630853Y-133829946D01*
X165308946Y-134311715D01*
X165195907Y-134880000D01*
X165308946Y-135448285D01*
X165630853Y-135930054D01*
X166112622Y-136251961D01*
X166680907Y-136365000D01*
X166739093Y-136365000D01*
X167307378Y-136251961D01*
X167789147Y-135930054D01*
X167980000Y-135644422D01*
X168170853Y-135930054D01*
X168500026Y-136150000D01*
X168170853Y-136369946D01*
X167848946Y-136851715D01*
X167735907Y-137420000D01*
X167848946Y-137988285D01*
X168170853Y-138470054D01*
X168500026Y-138690000D01*
X168170853Y-138909946D01*
X167980000Y-139195578D01*
X167789147Y-138909946D01*
X167307378Y-138588039D01*
X166739093Y-138475000D01*
X166680907Y-138475000D01*
X166112622Y-138588039D01*
X165630853Y-138909946D01*
X165308946Y-139391715D01*
X165195907Y-139960000D01*
X165308946Y-140528285D01*
X165630853Y-141010054D01*
X165960026Y-141230000D01*
X165630853Y-141449946D01*
X165308946Y-141931715D01*
X165195907Y-142500000D01*
X165308946Y-143068285D01*
X165630853Y-143550054D01*
X165960026Y-143770000D01*
X165630853Y-143989946D01*
X165308946Y-144471715D01*
X165195907Y-145040000D01*
X165308946Y-145608285D01*
X165630853Y-146090054D01*
X165960026Y-146310000D01*
X165630853Y-146529946D01*
X165308946Y-147011715D01*
X165195907Y-147580000D01*
X165308946Y-148148285D01*
X165630853Y-148630054D01*
X165960026Y-148850000D01*
X165630853Y-149069946D01*
X165308946Y-149551715D01*
X165195907Y-150120000D01*
X165308946Y-150688285D01*
X165630853Y-151170054D01*
X165960026Y-151390000D01*
X165630853Y-151609946D01*
X165308946Y-152091715D01*
X165195907Y-152660000D01*
X165308946Y-153228285D01*
X165630853Y-153710054D01*
X166112622Y-154031961D01*
X166680907Y-154145000D01*
X166739093Y-154145000D01*
X167307378Y-154031961D01*
X167789147Y-153710054D01*
X167980000Y-153424422D01*
X168170853Y-153710054D01*
X168500026Y-153930000D01*
X168170853Y-154149946D01*
X167848946Y-154631715D01*
X167735907Y-155200000D01*
X167848946Y-155768285D01*
X168170853Y-156250054D01*
X168652622Y-156571961D01*
X169220907Y-156685000D01*
X169279093Y-156685000D01*
X169847378Y-156571961D01*
X170329147Y-156250054D01*
X170651054Y-155768285D01*
X170764093Y-155200000D01*
X170651054Y-154631715D01*
X170329147Y-154149946D01*
X169999974Y-153930000D01*
X170329147Y-153710054D01*
X170651054Y-153228285D01*
X170764093Y-152660000D01*
X170651054Y-152091715D01*
X170329147Y-151609946D01*
X169999974Y-151390000D01*
X170329147Y-151170054D01*
X170651054Y-150688285D01*
X170764093Y-150120000D01*
X170651054Y-149551715D01*
X170329147Y-149069946D01*
X169847378Y-148748039D01*
X169279093Y-148635000D01*
X169220907Y-148635000D01*
X168652622Y-148748039D01*
X168170853Y-149069946D01*
X167980000Y-149355578D01*
X167789147Y-149069946D01*
X167459974Y-148850000D01*
X167789147Y-148630054D01*
X168111054Y-148148285D01*
X168224093Y-147580000D01*
X168111054Y-147011715D01*
X167789147Y-146529946D01*
X167459974Y-146310000D01*
X167789147Y-146090054D01*
X167980000Y-145804422D01*
X168170853Y-146090054D01*
X168652622Y-146411961D01*
X169220907Y-146525000D01*
X169279093Y-146525000D01*
X169847378Y-146411961D01*
X170329147Y-146090054D01*
X170651054Y-145608285D01*
X170764093Y-145040000D01*
X170651054Y-144471715D01*
X170329147Y-143989946D01*
X169847378Y-143668039D01*
X169279093Y-143555000D01*
X169220907Y-143555000D01*
X168652622Y-143668039D01*
X168170853Y-143989946D01*
X167980000Y-144275578D01*
X167789147Y-143989946D01*
X167459974Y-143770000D01*
X167789147Y-143550054D01*
X168111054Y-143068285D01*
X168224093Y-142500000D01*
X168111054Y-141931715D01*
X167789147Y-141449946D01*
X167459974Y-141230000D01*
X167789147Y-141010054D01*
X167980000Y-140724422D01*
X168170853Y-141010054D01*
X168652622Y-141331961D01*
X169220907Y-141445000D01*
X169279093Y-141445000D01*
X169847378Y-141331961D01*
X170329147Y-141010054D01*
X170651054Y-140528285D01*
X170764093Y-139960000D01*
X170651054Y-139391715D01*
X170329147Y-138909946D01*
X169999974Y-138690000D01*
X170329147Y-138470054D01*
X170651054Y-137988285D01*
X170764093Y-137420000D01*
X170651054Y-136851715D01*
X170329147Y-136369946D01*
X169999974Y-136150000D01*
X170329147Y-135930054D01*
X170651054Y-135448285D01*
X170764093Y-134880000D01*
X170651054Y-134311715D01*
X170329147Y-133829946D01*
X169999974Y-133610000D01*
X170329147Y-133390054D01*
X170651054Y-132908285D01*
X170764093Y-132340000D01*
X170651054Y-131771715D01*
X170329147Y-131289946D01*
X169847378Y-130968039D01*
X169279093Y-130855000D01*
X169220907Y-130855000D01*
X168652622Y-130968039D01*
X168170853Y-131289946D01*
X167980000Y-131575578D01*
X167789147Y-131289946D01*
X167459974Y-131070000D01*
X167789147Y-130850054D01*
X168111054Y-130368285D01*
X168224093Y-129800000D01*
X168111054Y-129231715D01*
X167789147Y-128749946D01*
X167459974Y-128530000D01*
X167789147Y-128310054D01*
X167980000Y-128024422D01*
X168170853Y-128310054D01*
X168652622Y-128631961D01*
X169220907Y-128745000D01*
X169279093Y-128745000D01*
X169847378Y-128631961D01*
X170329147Y-128310054D01*
X170651054Y-127828285D01*
X170764093Y-127260000D01*
X170651054Y-126691715D01*
X170329147Y-126209946D01*
X169999974Y-125990000D01*
X170329147Y-125770054D01*
X170651054Y-125288285D01*
X170764093Y-124720000D01*
X170651054Y-124151715D01*
X170329147Y-123669946D01*
X169847378Y-123348039D01*
X169279093Y-123235000D01*
X169220907Y-123235000D01*
X168652622Y-123348039D01*
X168170853Y-123669946D01*
X167980000Y-123955578D01*
X167789147Y-123669946D01*
X167459974Y-123450000D01*
X167789147Y-123230054D01*
X168111054Y-122748285D01*
X168224093Y-122180000D01*
X168111054Y-121611715D01*
X167789147Y-121129946D01*
X167459974Y-120910000D01*
X167789147Y-120690054D01*
X167980000Y-120404422D01*
X168170853Y-120690054D01*
X168652622Y-121011961D01*
X169220907Y-121125000D01*
X169279093Y-121125000D01*
X169847378Y-121011961D01*
X170329147Y-120690054D01*
X170651054Y-120208285D01*
X170764093Y-119640000D01*
X170651054Y-119071715D01*
X170329147Y-118589946D01*
X169999974Y-118370000D01*
X170329147Y-118150054D01*
X170651054Y-117668285D01*
X170764093Y-117100000D01*
X170651054Y-116531715D01*
X170329147Y-116049946D01*
X169999974Y-115830000D01*
X170329147Y-115610054D01*
X170651054Y-115128285D01*
X170764093Y-114560000D01*
X170651054Y-113991715D01*
X170329147Y-113509946D01*
X169847378Y-113188039D01*
X169279093Y-113075000D01*
X169220907Y-113075000D01*
X168652622Y-113188039D01*
X168170853Y-113509946D01*
X167980000Y-113795578D01*
X167789147Y-113509946D01*
X167459974Y-113290000D01*
X167789147Y-113070054D01*
X168111054Y-112588285D01*
X168224093Y-112020000D01*
X168111054Y-111451715D01*
X167789147Y-110969946D01*
X167459974Y-110750000D01*
X167789147Y-110530054D01*
X167980000Y-110244422D01*
X168170853Y-110530054D01*
X168652622Y-110851961D01*
X169220907Y-110965000D01*
X169279093Y-110965000D01*
X169847378Y-110851961D01*
X170329147Y-110530054D01*
X170651054Y-110048285D01*
X170764093Y-109480000D01*
X170651054Y-108911715D01*
X170329147Y-108429946D01*
X169999974Y-108210000D01*
X170329147Y-107990054D01*
X170651054Y-107508285D01*
X170764093Y-106940000D01*
X170651054Y-106371715D01*
X170329147Y-105889946D01*
X169847378Y-105568039D01*
X169279093Y-105455000D01*
X169220907Y-105455000D01*
X168652622Y-105568039D01*
X168170853Y-105889946D01*
X168170029Y-105891179D01*
X168163162Y-105854683D01*
X168024090Y-105638559D01*
X167811890Y-105493569D01*
X167560000Y-105442560D01*
X165860000Y-105442560D01*
X165624683Y-105486838D01*
X165408559Y-105625910D01*
X165263569Y-105838110D01*
X165212560Y-106090000D01*
X165212560Y-107790000D01*
X165256838Y-108025317D01*
X165395910Y-108241441D01*
X165608110Y-108386431D01*
X165675541Y-108400086D01*
X165630853Y-108429946D01*
X165308946Y-108911715D01*
X165195907Y-109480000D01*
X157234887Y-109480000D01*
X157235326Y-108976695D01*
X156948957Y-108283628D01*
X156419161Y-107752907D01*
X155726595Y-107465328D01*
X154976695Y-107464674D01*
X154283628Y-107751043D01*
X153752907Y-108280839D01*
X153501523Y-108886238D01*
X151793880Y-110593880D01*
X151439457Y-111124312D01*
X151314999Y-111750000D01*
X146560000Y-111750000D01*
X146560000Y-105207748D01*
X146883794Y-105532108D01*
X148675649Y-106276151D01*
X150615839Y-106277845D01*
X152408989Y-105536930D01*
X153782108Y-104166206D01*
X154526151Y-102374351D01*
X154527845Y-100434161D01*
X153786930Y-98641011D01*
X153506409Y-98360000D01*
X170698828Y-98360000D01*
X171331022Y-98543906D01*
X171331022Y-98543906D01*
G37*
X171331022Y-98543906D02*
X171813467Y-98930690D01*
X172116522Y-99482395D01*
X172190000Y-100004465D01*
X172190000Y-161098828D01*
X172006094Y-161731024D01*
X171619310Y-162213467D01*
X171067605Y-162516522D01*
X170545535Y-162590000D01*
X153457748Y-162590000D01*
X153782108Y-162266206D01*
X154526151Y-160474351D01*
X154527845Y-158534161D01*
X153786930Y-156741011D01*
X152416206Y-155367892D01*
X150624351Y-154623849D01*
X148684161Y-154622155D01*
X146891011Y-155363070D01*
X146560000Y-155693504D01*
X146560000Y-111750000D01*
X151314999Y-111750000D01*
X151315000Y-111750005D01*
X151315000Y-143452076D01*
X151314999Y-143452081D01*
X151439457Y-144077769D01*
X151793880Y-144608201D01*
X154741799Y-147556120D01*
X155272231Y-147910543D01*
X155465000Y-147948887D01*
X155465000Y-151480000D01*
X155589457Y-152105687D01*
X155943880Y-152636120D01*
X156474313Y-152990543D01*
X157100000Y-153115000D01*
X157725687Y-152990543D01*
X158256120Y-152636120D01*
X158370000Y-152465686D01*
X158483880Y-152636120D01*
X159014313Y-152990543D01*
X159640000Y-153115000D01*
X160265687Y-152990543D01*
X160796120Y-152636120D01*
X161150543Y-152105687D01*
X161275000Y-151480000D01*
X161275000Y-147948887D01*
X161467769Y-147910543D01*
X161998201Y-147556120D01*
X162846121Y-146708200D01*
X163200544Y-146177768D01*
X163325002Y-145552080D01*
X163325001Y-145552075D01*
X163325001Y-121614004D01*
X163325002Y-121613999D01*
X163200544Y-120988311D01*
X163001255Y-120690054D01*
X162846121Y-120457879D01*
X162846118Y-120457877D01*
X160932121Y-118543879D01*
X160401689Y-118189456D01*
X159776001Y-118064998D01*
X159775996Y-118064999D01*
X158659473Y-118064999D01*
X157035000Y-116440526D01*
X157035000Y-116327871D01*
X157284672Y-115726595D01*
X157285326Y-114976695D01*
X156998957Y-114283628D01*
X156469161Y-113752907D01*
X155776595Y-113465328D01*
X155026695Y-113464674D01*
X154585000Y-113647178D01*
X154585000Y-112427240D01*
X155814661Y-111197579D01*
X156416372Y-110948957D01*
X156947093Y-110419161D01*
X157234672Y-109726595D01*
X157234887Y-109480000D01*
X165195907Y-109480000D01*
X165308946Y-110048285D01*
X165630853Y-110530054D01*
X165960026Y-110750000D01*
X165630853Y-110969946D01*
X165308946Y-111451715D01*
X165195907Y-112020000D01*
X165308946Y-112588285D01*
X165630853Y-113070054D01*
X165960026Y-113290000D01*
X165630853Y-113509946D01*
X165308946Y-113991715D01*
X165195907Y-114560000D01*
X165308946Y-115128285D01*
X165630853Y-115610054D01*
X166112622Y-115931961D01*
X166680907Y-116045000D01*
X166739093Y-116045000D01*
X167307378Y-115931961D01*
X167789147Y-115610054D01*
X167980000Y-115324422D01*
X168170853Y-115610054D01*
X168500026Y-115830000D01*
X168170853Y-116049946D01*
X167848946Y-116531715D01*
X167735907Y-117100000D01*
X167848946Y-117668285D01*
X168170853Y-118150054D01*
X168500026Y-118370000D01*
X168170853Y-118589946D01*
X167980000Y-118875578D01*
X167789147Y-118589946D01*
X167307378Y-118268039D01*
X166739093Y-118155000D01*
X166680907Y-118155000D01*
X166112622Y-118268039D01*
X165630853Y-118589946D01*
X165308946Y-119071715D01*
X165195907Y-119640000D01*
X165308946Y-120208285D01*
X165630853Y-120690054D01*
X165960026Y-120910000D01*
X165630853Y-121129946D01*
X165308946Y-121611715D01*
X165195907Y-122180000D01*
X165308946Y-122748285D01*
X165630853Y-123230054D01*
X165960026Y-123450000D01*
X165630853Y-123669946D01*
X165308946Y-124151715D01*
X165195907Y-124720000D01*
X165308946Y-125288285D01*
X165630853Y-125770054D01*
X165960026Y-125990000D01*
X165630853Y-126209946D01*
X165308946Y-126691715D01*
X165195907Y-127260000D01*
X165308946Y-127828285D01*
X165630853Y-128310054D01*
X165960026Y-128530000D01*
X165630853Y-128749946D01*
X165308946Y-129231715D01*
X165195907Y-129800000D01*
X165308946Y-130368285D01*
X165630853Y-130850054D01*
X165960026Y-131070000D01*
X165630853Y-131289946D01*
X165308946Y-131771715D01*
X165195907Y-132340000D01*
X165308946Y-132908285D01*
X165630853Y-133390054D01*
X165960026Y-133610000D01*
X165630853Y-133829946D01*
X165308946Y-134311715D01*
X165195907Y-134880000D01*
X165308946Y-135448285D01*
X165630853Y-135930054D01*
X166112622Y-136251961D01*
X166680907Y-136365000D01*
X166739093Y-136365000D01*
X167307378Y-136251961D01*
X167789147Y-135930054D01*
X167980000Y-135644422D01*
X168170853Y-135930054D01*
X168500026Y-136150000D01*
X168170853Y-136369946D01*
X167848946Y-136851715D01*
X167735907Y-137420000D01*
X167848946Y-137988285D01*
X168170853Y-138470054D01*
X168500026Y-138690000D01*
X168170853Y-138909946D01*
X167980000Y-139195578D01*
X167789147Y-138909946D01*
X167307378Y-138588039D01*
X166739093Y-138475000D01*
X166680907Y-138475000D01*
X166112622Y-138588039D01*
X165630853Y-138909946D01*
X165308946Y-139391715D01*
X165195907Y-139960000D01*
X165308946Y-140528285D01*
X165630853Y-141010054D01*
X165960026Y-141230000D01*
X165630853Y-141449946D01*
X165308946Y-141931715D01*
X165195907Y-142500000D01*
X165308946Y-143068285D01*
X165630853Y-143550054D01*
X165960026Y-143770000D01*
X165630853Y-143989946D01*
X165308946Y-144471715D01*
X165195907Y-145040000D01*
X165308946Y-145608285D01*
X165630853Y-146090054D01*
X165960026Y-146310000D01*
X165630853Y-146529946D01*
X165308946Y-147011715D01*
X165195907Y-147580000D01*
X165308946Y-148148285D01*
X165630853Y-148630054D01*
X165960026Y-148850000D01*
X165630853Y-149069946D01*
X165308946Y-149551715D01*
X165195907Y-150120000D01*
X165308946Y-150688285D01*
X165630853Y-151170054D01*
X165960026Y-151390000D01*
X165630853Y-151609946D01*
X165308946Y-152091715D01*
X165195907Y-152660000D01*
X165308946Y-153228285D01*
X165630853Y-153710054D01*
X166112622Y-154031961D01*
X166680907Y-154145000D01*
X166739093Y-154145000D01*
X167307378Y-154031961D01*
X167789147Y-153710054D01*
X167980000Y-153424422D01*
X168170853Y-153710054D01*
X168500026Y-153930000D01*
X168170853Y-154149946D01*
X167848946Y-154631715D01*
X167735907Y-155200000D01*
X167848946Y-155768285D01*
X168170853Y-156250054D01*
X168652622Y-156571961D01*
X169220907Y-156685000D01*
X169279093Y-156685000D01*
X169847378Y-156571961D01*
X170329147Y-156250054D01*
X170651054Y-155768285D01*
X170764093Y-155200000D01*
X170651054Y-154631715D01*
X170329147Y-154149946D01*
X169999974Y-153930000D01*
X170329147Y-153710054D01*
X170651054Y-153228285D01*
X170764093Y-152660000D01*
X170651054Y-152091715D01*
X170329147Y-151609946D01*
X169999974Y-151390000D01*
X170329147Y-151170054D01*
X170651054Y-150688285D01*
X170764093Y-150120000D01*
X170651054Y-149551715D01*
X170329147Y-149069946D01*
X169847378Y-148748039D01*
X169279093Y-148635000D01*
X169220907Y-148635000D01*
X168652622Y-148748039D01*
X168170853Y-149069946D01*
X167980000Y-149355578D01*
X167789147Y-149069946D01*
X167459974Y-148850000D01*
X167789147Y-148630054D01*
X168111054Y-148148285D01*
X168224093Y-147580000D01*
X168111054Y-147011715D01*
X167789147Y-146529946D01*
X167459974Y-146310000D01*
X167789147Y-146090054D01*
X167980000Y-145804422D01*
X168170853Y-146090054D01*
X168652622Y-146411961D01*
X169220907Y-146525000D01*
X169279093Y-146525000D01*
X169847378Y-146411961D01*
X170329147Y-146090054D01*
X170651054Y-145608285D01*
X170764093Y-145040000D01*
X170651054Y-144471715D01*
X170329147Y-143989946D01*
X169847378Y-143668039D01*
X169279093Y-143555000D01*
X169220907Y-143555000D01*
X168652622Y-143668039D01*
X168170853Y-143989946D01*
X167980000Y-144275578D01*
X167789147Y-143989946D01*
X167459974Y-143770000D01*
X167789147Y-143550054D01*
X168111054Y-143068285D01*
X168224093Y-142500000D01*
X168111054Y-141931715D01*
X167789147Y-141449946D01*
X167459974Y-141230000D01*
X167789147Y-141010054D01*
X167980000Y-140724422D01*
X168170853Y-141010054D01*
X168652622Y-141331961D01*
X169220907Y-141445000D01*
X169279093Y-141445000D01*
X169847378Y-141331961D01*
X170329147Y-141010054D01*
X170651054Y-140528285D01*
X170764093Y-139960000D01*
X170651054Y-139391715D01*
X170329147Y-138909946D01*
X169999974Y-138690000D01*
X170329147Y-138470054D01*
X170651054Y-137988285D01*
X170764093Y-137420000D01*
X170651054Y-136851715D01*
X170329147Y-136369946D01*
X169999974Y-136150000D01*
X170329147Y-135930054D01*
X170651054Y-135448285D01*
X170764093Y-134880000D01*
X170651054Y-134311715D01*
X170329147Y-133829946D01*
X169999974Y-133610000D01*
X170329147Y-133390054D01*
X170651054Y-132908285D01*
X170764093Y-132340000D01*
X170651054Y-131771715D01*
X170329147Y-131289946D01*
X169847378Y-130968039D01*
X169279093Y-130855000D01*
X169220907Y-130855000D01*
X168652622Y-130968039D01*
X168170853Y-131289946D01*
X167980000Y-131575578D01*
X167789147Y-131289946D01*
X167459974Y-131070000D01*
X167789147Y-130850054D01*
X168111054Y-130368285D01*
X168224093Y-129800000D01*
X168111054Y-129231715D01*
X167789147Y-128749946D01*
X167459974Y-128530000D01*
X167789147Y-128310054D01*
X167980000Y-128024422D01*
X168170853Y-128310054D01*
X168652622Y-128631961D01*
X169220907Y-128745000D01*
X169279093Y-128745000D01*
X169847378Y-128631961D01*
X170329147Y-128310054D01*
X170651054Y-127828285D01*
X170764093Y-127260000D01*
X170651054Y-126691715D01*
X170329147Y-126209946D01*
X169999974Y-125990000D01*
X170329147Y-125770054D01*
X170651054Y-125288285D01*
X170764093Y-124720000D01*
X170651054Y-124151715D01*
X170329147Y-123669946D01*
X169847378Y-123348039D01*
X169279093Y-123235000D01*
X169220907Y-123235000D01*
X168652622Y-123348039D01*
X168170853Y-123669946D01*
X167980000Y-123955578D01*
X167789147Y-123669946D01*
X167459974Y-123450000D01*
X167789147Y-123230054D01*
X168111054Y-122748285D01*
X168224093Y-122180000D01*
X168111054Y-121611715D01*
X167789147Y-121129946D01*
X167459974Y-120910000D01*
X167789147Y-120690054D01*
X167980000Y-120404422D01*
X168170853Y-120690054D01*
X168652622Y-121011961D01*
X169220907Y-121125000D01*
X169279093Y-121125000D01*
X169847378Y-121011961D01*
X170329147Y-120690054D01*
X170651054Y-120208285D01*
X170764093Y-119640000D01*
X170651054Y-119071715D01*
X170329147Y-118589946D01*
X169999974Y-118370000D01*
X170329147Y-118150054D01*
X170651054Y-117668285D01*
X170764093Y-117100000D01*
X170651054Y-116531715D01*
X170329147Y-116049946D01*
X169999974Y-115830000D01*
X170329147Y-115610054D01*
X170651054Y-115128285D01*
X170764093Y-114560000D01*
X170651054Y-113991715D01*
X170329147Y-113509946D01*
X169847378Y-113188039D01*
X169279093Y-113075000D01*
X169220907Y-113075000D01*
X168652622Y-113188039D01*
X168170853Y-113509946D01*
X167980000Y-113795578D01*
X167789147Y-113509946D01*
X167459974Y-113290000D01*
X167789147Y-113070054D01*
X168111054Y-112588285D01*
X168224093Y-112020000D01*
X168111054Y-111451715D01*
X167789147Y-110969946D01*
X167459974Y-110750000D01*
X167789147Y-110530054D01*
X167980000Y-110244422D01*
X168170853Y-110530054D01*
X168652622Y-110851961D01*
X169220907Y-110965000D01*
X169279093Y-110965000D01*
X169847378Y-110851961D01*
X170329147Y-110530054D01*
X170651054Y-110048285D01*
X170764093Y-109480000D01*
X170651054Y-108911715D01*
X170329147Y-108429946D01*
X169999974Y-108210000D01*
X170329147Y-107990054D01*
X170651054Y-107508285D01*
X170764093Y-106940000D01*
X170651054Y-106371715D01*
X170329147Y-105889946D01*
X169847378Y-105568039D01*
X169279093Y-105455000D01*
X169220907Y-105455000D01*
X168652622Y-105568039D01*
X168170853Y-105889946D01*
X168170029Y-105891179D01*
X168163162Y-105854683D01*
X168024090Y-105638559D01*
X167811890Y-105493569D01*
X167560000Y-105442560D01*
X165860000Y-105442560D01*
X165624683Y-105486838D01*
X165408559Y-105625910D01*
X165263569Y-105838110D01*
X165212560Y-106090000D01*
X165212560Y-107790000D01*
X165256838Y-108025317D01*
X165395910Y-108241441D01*
X165608110Y-108386431D01*
X165675541Y-108400086D01*
X165630853Y-108429946D01*
X165308946Y-108911715D01*
X165195907Y-109480000D01*
X157234887Y-109480000D01*
X157235326Y-108976695D01*
X156948957Y-108283628D01*
X156419161Y-107752907D01*
X155726595Y-107465328D01*
X154976695Y-107464674D01*
X154283628Y-107751043D01*
X153752907Y-108280839D01*
X153501523Y-108886238D01*
X151793880Y-110593880D01*
X151439457Y-111124312D01*
X151314999Y-111750000D01*
X146560000Y-111750000D01*
X146560000Y-105207748D01*
X146883794Y-105532108D01*
X148675649Y-106276151D01*
X150615839Y-106277845D01*
X152408989Y-105536930D01*
X153782108Y-104166206D01*
X154526151Y-102374351D01*
X154527845Y-100434161D01*
X153786930Y-98641011D01*
X153506409Y-98360000D01*
X170698828Y-98360000D01*
X171331022Y-98543906D01*
G36*
X156826113Y-120856119D02*
X157356545Y-121210542D01*
X157982233Y-121335000D01*
X157982238Y-121334999D01*
X159098761Y-121334999D01*
X160055001Y-122291238D01*
X160055001Y-127122560D01*
X158790000Y-127122560D01*
X158554683Y-127166838D01*
X158338559Y-127305910D01*
X158193569Y-127518110D01*
X158182159Y-127574454D01*
X158179147Y-127569946D01*
X157697378Y-127248039D01*
X157129093Y-127135000D01*
X157070907Y-127135000D01*
X156502622Y-127248039D01*
X156020853Y-127569946D01*
X155698946Y-128051715D01*
X155585907Y-128620000D01*
X155698946Y-129188285D01*
X156020853Y-129670054D01*
X156502622Y-129991961D01*
X157070907Y-130105000D01*
X157129093Y-130105000D01*
X157697378Y-129991961D01*
X158179147Y-129670054D01*
X158179971Y-129668821D01*
X158186838Y-129705317D01*
X158325910Y-129921441D01*
X158538110Y-130066431D01*
X158605541Y-130080086D01*
X158560853Y-130109946D01*
X158238946Y-130591715D01*
X158125907Y-131160000D01*
X158238946Y-131728285D01*
X158560853Y-132210054D01*
X158890026Y-132430000D01*
X158560853Y-132649946D01*
X158238946Y-133131715D01*
X158125907Y-133700000D01*
X158238946Y-134268285D01*
X158560853Y-134750054D01*
X158890026Y-134970000D01*
X158560853Y-135189946D01*
X158238946Y-135671715D01*
X158125907Y-136240000D01*
X158238946Y-136808285D01*
X158560853Y-137290054D01*
X158890026Y-137510000D01*
X158560853Y-137729946D01*
X158370000Y-138015578D01*
X158179147Y-137729946D01*
X157697378Y-137408039D01*
X157129093Y-137295000D01*
X157070907Y-137295000D01*
X156502622Y-137408039D01*
X156020853Y-137729946D01*
X155698946Y-138211715D01*
X155585907Y-138780000D01*
X155698946Y-139348285D01*
X156020853Y-139830054D01*
X156350026Y-140050000D01*
X156020853Y-140269946D01*
X155698946Y-140751715D01*
X155585907Y-141320000D01*
X155698946Y-141888285D01*
X156020853Y-142370054D01*
X156350026Y-142590000D01*
X156020853Y-142809946D01*
X155698946Y-143291715D01*
X155599885Y-143789726D01*
X154585000Y-142774841D01*
X154585000Y-123852630D01*
X155023405Y-124034672D01*
X155773305Y-124035326D01*
X156466372Y-123748957D01*
X156997093Y-123219161D01*
X157284672Y-122526595D01*
X157285326Y-121776695D01*
X156998957Y-121083628D01*
X156469161Y-120552907D01*
X155776595Y-120265328D01*
X155026695Y-120264674D01*
X154585000Y-120447178D01*
X154585000Y-118615006D01*
X156826113Y-120856119D01*
X156826113Y-120856119D01*
G37*
X156826113Y-120856119D02*
X157356545Y-121210542D01*
X157982233Y-121335000D01*
X157982238Y-121334999D01*
X159098761Y-121334999D01*
X160055001Y-122291238D01*
X160055001Y-127122560D01*
X158790000Y-127122560D01*
X158554683Y-127166838D01*
X158338559Y-127305910D01*
X158193569Y-127518110D01*
X158182159Y-127574454D01*
X158179147Y-127569946D01*
X157697378Y-127248039D01*
X157129093Y-127135000D01*
X157070907Y-127135000D01*
X156502622Y-127248039D01*
X156020853Y-127569946D01*
X155698946Y-128051715D01*
X155585907Y-128620000D01*
X155698946Y-129188285D01*
X156020853Y-129670054D01*
X156502622Y-129991961D01*
X157070907Y-130105000D01*
X157129093Y-130105000D01*
X157697378Y-129991961D01*
X158179147Y-129670054D01*
X158179971Y-129668821D01*
X158186838Y-129705317D01*
X158325910Y-129921441D01*
X158538110Y-130066431D01*
X158605541Y-130080086D01*
X158560853Y-130109946D01*
X158238946Y-130591715D01*
X158125907Y-131160000D01*
X158238946Y-131728285D01*
X158560853Y-132210054D01*
X158890026Y-132430000D01*
X158560853Y-132649946D01*
X158238946Y-133131715D01*
X158125907Y-133700000D01*
X158238946Y-134268285D01*
X158560853Y-134750054D01*
X158890026Y-134970000D01*
X158560853Y-135189946D01*
X158238946Y-135671715D01*
X158125907Y-136240000D01*
X158238946Y-136808285D01*
X158560853Y-137290054D01*
X158890026Y-137510000D01*
X158560853Y-137729946D01*
X158370000Y-138015578D01*
X158179147Y-137729946D01*
X157697378Y-137408039D01*
X157129093Y-137295000D01*
X157070907Y-137295000D01*
X156502622Y-137408039D01*
X156020853Y-137729946D01*
X155698946Y-138211715D01*
X155585907Y-138780000D01*
X155698946Y-139348285D01*
X156020853Y-139830054D01*
X156350026Y-140050000D01*
X156020853Y-140269946D01*
X155698946Y-140751715D01*
X155585907Y-141320000D01*
X155698946Y-141888285D01*
X156020853Y-142370054D01*
X156350026Y-142590000D01*
X156020853Y-142809946D01*
X155698946Y-143291715D01*
X155599885Y-143789726D01*
X154585000Y-142774841D01*
X154585000Y-123852630D01*
X155023405Y-124034672D01*
X155773305Y-124035326D01*
X156466372Y-123748957D01*
X156997093Y-123219161D01*
X157284672Y-122526595D01*
X157285326Y-121776695D01*
X156998957Y-121083628D01*
X156469161Y-120552907D01*
X155776595Y-120265328D01*
X155026695Y-120264674D01*
X154585000Y-120447178D01*
X154585000Y-118615006D01*
X156826113Y-120856119D01*
M02*
