G04 #@! TF.FileFunction,Soldermask,Bot*
%FSLAX46Y46*%
G04 Gerber Fmt 4.6, Leading zero omitted, Abs format (unit mm)*
G04 Created by KiCad (PCBNEW 4.0.6) date 06/16/19 22:17:06*
%MOMM*%
%LPD*%
G01*
G04 APERTURE LIST*
%ADD10C,0.100000*%
%ADD11C,3.900000*%
%ADD12R,2.100000X2.100000*%
%ADD13O,2.100000X2.100000*%
%ADD14C,2.900000*%
G04 APERTURE END LIST*
D10*
D11*
X149650000Y-101400000D03*
D12*
X159640000Y-128620000D03*
D13*
X157100000Y-128620000D03*
X159640000Y-131160000D03*
X157100000Y-131160000D03*
X159640000Y-133700000D03*
X157100000Y-133700000D03*
X159640000Y-136240000D03*
X157100000Y-136240000D03*
X159640000Y-138780000D03*
X157100000Y-138780000D03*
X159640000Y-141320000D03*
X157100000Y-141320000D03*
X159640000Y-143860000D03*
X157100000Y-143860000D03*
X159640000Y-146400000D03*
X157100000Y-146400000D03*
X159640000Y-148940000D03*
X157100000Y-148940000D03*
X159640000Y-151480000D03*
X157100000Y-151480000D03*
D12*
X166710000Y-106940000D03*
D13*
X169250000Y-106940000D03*
X166710000Y-109480000D03*
X169250000Y-109480000D03*
X166710000Y-112020000D03*
X169250000Y-112020000D03*
X166710000Y-114560000D03*
X169250000Y-114560000D03*
X166710000Y-117100000D03*
X169250000Y-117100000D03*
X166710000Y-119640000D03*
X169250000Y-119640000D03*
X166710000Y-122180000D03*
X169250000Y-122180000D03*
X166710000Y-124720000D03*
X169250000Y-124720000D03*
X166710000Y-127260000D03*
X169250000Y-127260000D03*
X166710000Y-129800000D03*
X169250000Y-129800000D03*
X166710000Y-132340000D03*
X169250000Y-132340000D03*
X166710000Y-134880000D03*
X169250000Y-134880000D03*
X166710000Y-137420000D03*
X169250000Y-137420000D03*
X166710000Y-139960000D03*
X169250000Y-139960000D03*
X166710000Y-142500000D03*
X169250000Y-142500000D03*
X166710000Y-145040000D03*
X169250000Y-145040000D03*
X166710000Y-147580000D03*
X169250000Y-147580000D03*
X166710000Y-150120000D03*
X169250000Y-150120000D03*
X166710000Y-152660000D03*
X169250000Y-152660000D03*
X166710000Y-155200000D03*
X169250000Y-155200000D03*
D14*
X158550000Y-109350000D03*
X155350000Y-109350000D03*
X158600000Y-115350000D03*
X155400000Y-115350000D03*
X158600000Y-122150000D03*
X155400000Y-122150000D03*
D11*
X149650000Y-159500000D03*
M02*
